<svg xmlns="http://www.w3.org/2000/svg" xmlns:xlink="http://www.w3.org/1999/xlink" xmlns:lucid="lucid" width="941.88" height="823"><g transform="translate(-378.1173339506166 -398.5)" lucid:page-tab-id="0_0"><path d="M0 0h1500v1500H0z" fill="#fff"/><path d="M460 426a6 6 0 0 1 6-6h148a6 6 0 0 1 6 6v108a6 6 0 0 1-6 6H466a6 6 0 0 1-6-6z" stroke="#5e5e5e" stroke-width="3" fill="#c3f7c8"/><use xlink:href="#a" transform="matrix(1,0,0,1,472,432) translate(5.129629629629626 53.77777777777778)"/><path d="M460 626a6 6 0 0 1 6-6h148a6 6 0 0 1 6 6v108a6 6 0 0 1-6 6H466a6 6 0 0 1-6-6z" stroke="#5e5e5e" stroke-width="3" fill="#c3f7c8"/><use xlink:href="#a" transform="matrix(1,0,0,1,472,632) translate(5.129629629629626 53.77777777777778)"/><path d="M540.98 617.5H539v-5.1H541zm0-26.43H539V561.5H541z" stroke="#5e5e5e" stroke-width=".05" fill="#5e5e5e"/><path d="M540.98 618.5H539v-1.03H541z" fill="#5e5e5e"/><path stroke="#5e5e5e" stroke-width=".05" fill="#5e5e5e"/><path fill="#fff"/><path d="M550 562.48h-20v-1.96h20z" stroke="#5e5e5e" stroke-width=".05" fill="#5e5e5e"/><path fill="#fff"/><path d="M540.98 561.5H539v-20H541z" stroke="#5e5e5e" stroke-width=".05" fill="#5e5e5e"/><use xlink:href="#b" transform="matrix(1,0,0,1,511.9753086419753,591.0657057914556) translate(0.004999999999999005 14.222222222222223)"/><path d="M840 626a6 6 0 0 1 6-6h148a6 6 0 0 1 6 6v108a6 6 0 0 1-6 6H846a6 6 0 0 1-6-6z" stroke="#5e5e5e" stroke-width="3" fill="#c3f7c8"/><use xlink:href="#c" transform="matrix(1,0,0,1,852,632) translate(26.05555555555555 53.77777777777778)"/><path d="M840 426a6 6 0 0 1 6-6h148a6 6 0 0 1 6 6v108a6 6 0 0 1-6 6H846a6 6 0 0 1-6-6z" stroke="#5e5e5e" stroke-width="3" fill="#c3f7c8"/><use xlink:href="#c" transform="matrix(1,0,0,1,852,432) translate(26.05555555555555 53.77777777777778)"/><path d="M920.98 617.5H919v-2.85H921zm0-24.2H919v-31.8H921z" stroke="#5e5e5e" stroke-width=".05" fill="#5e5e5e"/><path d="M920.98 618.5H919v-1.03H921z" fill="#5e5e5e"/><path stroke="#5e5e5e" stroke-width=".05" fill="#5e5e5e"/><path fill="#fff"/><path d="M930 562.48h-20v-1.96h20z" stroke="#5e5e5e" stroke-width=".05" fill="#5e5e5e"/><path fill="#fff"/><path d="M920.98 561.5H919v-20H921z" stroke="#5e5e5e" stroke-width=".05" fill="#5e5e5e"/><use xlink:href="#b" transform="matrix(1,0,0,1,891.9753086419753,593.3138822526406) translate(0.004999999999999005 14.222222222222223)"/><path d="M613.33 866a6 6 0 0 1 6-6H834a6 6 0 0 1 6 6v108a6 6 0 0 1-6 6H619.33a6 6 0 0 1-6-6z" stroke="#5e5e5e" stroke-width="3" fill="#c3f7c8"/><use xlink:href="#d" transform="matrix(1,0,0,1,625.3333333333334,872) translate(8.475308641975317 53.77777777777778)"/><path d="M720.7 799.02l1.06.1 1.06.24 1 .42.95.58.83.7.7.84.58.93.42 1 .26 1.08.08 1.06v51.54h-1.95v-51.46l-.07-.83-.2-.75-.3-.73-.4-.67-.5-.6-.6-.5-.68-.43-.73-.3-.77-.18-.82-.06h-19.8V799zm-179.66-4.23l.18.75.3.73.42.67.5.6.6.5.68.43.73.3.76.18.84.06h57.25V801h-57.34l-1.05-.1-1.06-.24-1-.42-.94-.58-.83-.7-.72-.84-.57-.93-.42-1-.25-1.08-.08-1.06V761.5H541v32.46z" stroke="#5e5e5e" stroke-width=".05" fill="#5e5e5e"/><path d="M727.64 858.5h-1.95v-1.03h1.94z" fill="#5e5e5e"/><path stroke="#5e5e5e" stroke-width=".05" fill="#5e5e5e"/><path fill="#fff"/><path d="M550 762.48h-20v-1.96h20z" stroke="#5e5e5e" stroke-width=".05" fill="#5e5e5e"/><path fill="#fff"/><path d="M540.98 761.5H539v-20H541z" stroke="#5e5e5e" stroke-width=".05" fill="#5e5e5e"/><use xlink:href="#e" transform="matrix(1,0,0,1,603.2896431788475,789.3333333333335) translate(0.005000000000002558 14.222222222222223)"/><path d="M764.25 800.98H732.7l-.82.06-.76.18-.73.3-.68.42-.6.5-.52.6-.4.68-.3.73-.2.76-.06.84v51.46h-1.95v-51.54l.07-1.05.26-1.06.42-1 .57-.94.7-.83.85-.72.93-.57 1-.42 1.08-.25 1.05-.08h31.62zm156.73-6.94l-.1 1.05-.24 1.06-.42 1-.58.94-.7.83-.84.72-.93.57-1 .42-1.08.25-1.06.08H832.2V799h81.76l.83-.06.75-.18.73-.3.67-.42.6-.5.5-.6.43-.68.3-.73.18-.76.06-.84V761.5H921z" stroke="#5e5e5e" stroke-width=".05" fill="#5e5e5e"/><path d="M727.64 858.5h-1.95v-1.03h1.94z" fill="#5e5e5e"/><path stroke="#5e5e5e" stroke-width=".05" fill="#5e5e5e"/><path d="M930 741.95l-10 20-10-20" fill="#fff" fill-opacity="0"/><path d="M930.87 742.38L920 764.13l-10.87-21.75 1.74-.87 9.13 18.27 9.13-18.26z" stroke="#5e5e5e" stroke-width=".05" fill="#5e5e5e"/><path fill="#fff"/><path d="M920.98 761.95H919v-20H921z" stroke="#5e5e5e" stroke-width=".05" fill="#5e5e5e"/><path fill="#fff"/><path d="M930 762.92h-20v-1.95h20z" stroke="#5e5e5e" stroke-width=".05" fill="#5e5e5e"/><use xlink:href="#f" transform="matrix(1,0,0,1,764.2488815712948,789.3333333333335) translate(0.005000000000002558 14.222222222222223)"/><path d="M727.64 1039.5h-1.95v-30.34h1.94zm0-51.67h-1.95v-5.33h1.94z" stroke="#5e5e5e" stroke-width=".05" fill="#5e5e5e"/><path d="M727.64 982.53h-1.95v-1.03h1.94z" fill="#5e5e5e"/><path stroke="#5e5e5e" stroke-width=".05" fill="#5e5e5e"/><path d="M716.67 1078.05l10-20 10 20" fill="#fff" fill-opacity="0"/><path d="M737.54 1077.62l-1.75.87-9.13-18.27-9.13 18.26-1.75-.88 10.87-21.75z" stroke="#5e5e5e" stroke-width=".05" fill="#5e5e5e"/><path fill="#fff"/><path d="M727.64 1078.05h-1.95v-20h1.94z" stroke="#5e5e5e" stroke-width=".05" fill="#5e5e5e"/><path d="M736.67 1048.05l-.5 3.16-1.43 2.76-2.17 2.16-2.74 1.42-3.16.5-3.16-.5-2.74-1.42-2.16-2.16-1.42-2.75-.5-3.15.5-3.16 1.42-2.75 2.16-2.17 2.75-1.42 3.17-.5 3.16.5 2.74 1.42 2.17 2.17 1.42 2.74.5 3.15" fill="#fff"/><path d="M730.14 1037.62l3 1.57 2.4 2.36 1.56 3.02.53 3.32-.96.15.96.16-.53 3.32-1.57 3.02-2.38 2.38-3 1.56-3.48.56-3.47-.56-3.02-1.56-2.38-2.38-1.56-3.02-.56-3.47.56-3.47 1.56-3.02 2.38-2.38 3.02-1.56 3.47-.56zm-6.32 1.88l-2.48 1.28-1.95 1.95-1.3 2.47-.45 2.85.46 2.85 1.3 2.47 1.94 1.96 2.48 1.27 2.85.46 2.85-.46 2.47-1.27 1.94-1.95 1.28-2.48.46-2.85-.46-2.85-1.28-2.47-1.95-1.95-2.48-1.28-2.85-.46z" stroke="#5e5e5e" stroke-width=".05" fill="#5e5e5e"/><use xlink:href="#g" transform="matrix(1,0,0,1,689.283950708025,987.8290542930607) translate(0.005000000000002558 14.222222222222223)"/><path d="M646.67 1086a6 6 0 0 1 6-6h148a6 6 0 0 1 6 6v108a6 6 0 0 1-6 6h-148a6 6 0 0 1-6-6z" stroke="#5e5e5e" stroke-width="3" fill="#fff7a1"/><use xlink:href="#h" transform="matrix(1,0,0,1,658.6666666666667,1092) translate(24.203703703703702 53.77777777777778)"/><path d="M1042.47 1134.04l-.08 1.05-.26 1.06-.42 1-.58.94-.7.83-.84.7-.93.6-1 .4-1.08.26-1.06.07H847.17v-1.94h188.3l.82-.07.75-.18.73-.3.67-.42.6-.5.5-.6.42-.68.3-.73.2-.76.06-.84v-439.7h1.94zm-39.97-453.06V679h1.62V681z" stroke="#5e5e5e" stroke-width=".05" fill="#5e5e5e"/><path d="M1002.53 680.98h-1.03V679h1.03z" fill="#5e5e5e"/><path stroke="#5e5e5e" stroke-width=".05" fill="#5e5e5e"/><path d="M808.6 1130l20 10-20 10" fill="#fff" fill-opacity="0"/><path d="M830.8 1140l-21.75 10.87-.87-1.74 18.25-9.13-18.25-9.13.87-1.74z" stroke="#5e5e5e" stroke-width=".05" fill="#5e5e5e"/><path fill="#fff"/><path d="M828.6 1140.97h-20v-1.94h20z" stroke="#5e5e5e" stroke-width=".05" fill="#5e5e5e"/><path d="M848.6 1140l-.5 3.16-1.42 2.75-2.16 2.17-2.75 1.42-3.16.5-3.15-.5-2.74-1.43-2.16-2.16-1.42-2.74-.5-3.16.5-3.16 1.42-2.75 2.17-2.17 2.75-1.42 3.16-.5 3.17.5 2.75 1.43 2.16 2.16 1.42 2.74.5 3.16" fill="#fff"/><path d="M842.08 1129.57l3.02 1.56 2.38 2.38 1.56 3.03.54 3.32-.97.15.98.15-.54 3.32-1.56 3.02-2.38 2.37-3.02 1.56-3.47.56-3.46-.57-3-1.56-2.4-2.38-1.55-3.03-.57-3.47.56-3.47 1.55-3.02 2.38-2.37 3-1.56 3.48-.56zm-6.32 1.88l-2.47 1.28-1.96 1.95-1.28 2.47-.46 2.85.46 2.85 1.28 2.47 1.95 1.95 2.46 1.28 2.85.46 2.87-.45 2.47-1.28 1.95-1.95 1.27-2.47.46-2.85-.46-2.85-1.28-2.47-1.96-1.95-2.48-1.28-2.85-.46z" stroke="#5e5e5e" stroke-width=".05" fill="#5e5e5e"/><use xlink:href="#g" transform="matrix(1,0,0,1,1004.1172339506179,672.9182389993074) translate(0.005000000000002558 14.222222222222223)"/><path d="M419.48 1133.96l.06.83.18.75.3.73.42.67.5.6.6.5.68.42.73.3.76.2.84.06h181.63v1.94h-181.7l-1.06-.08-1.06-.26-1-.42-.94-.58-.83-.7-.7-.84-.6-.93-.4-1-.26-1.08-.08-1.06V692.1h1.96zm38.02-453h-1.62v-1.94h1.62z" stroke="#5e5e5e" stroke-width=".05" fill="#5e5e5e"/><path d="M458.5 680.98h-1.03V679h1.03z" fill="#5e5e5e"/><path stroke="#5e5e5e" stroke-width=".05" fill="#5e5e5e"/><path d="M644.72 1150l-20-10 20-10" fill="#fff" fill-opacity="0"/><path d="M645.16 1130.87L626.9 1140l18.26 9.13-.88 1.74-21.74-10.87 21.74-10.87z" stroke="#5e5e5e" stroke-width=".05" fill="#5e5e5e"/><path fill="#fff"/><path d="M644.72 1140.97h-20v-1.94h20z" stroke="#5e5e5e" stroke-width=".05" fill="#5e5e5e"/><path d="M624.72 1140l-.5 3.16-1.43 2.75-2.17 2.17-2.75 1.42-3.16.5-3.16-.5-2.75-1.43-2.15-2.16-1.42-2.74-.5-3.16.5-3.16 1.42-2.75 2.16-2.17 2.76-1.42 3.16-.5 3.16.5 2.75 1.43 2.16 2.16 1.4 2.74.52 3.16" fill="#fff"/><path d="M618.2 1129.57l3 1.56 2.4 2.38 1.55 3.03.53 3.32-.96.15.96.15-.53 3.32-1.56 3.02-2.4 2.37-3 1.56-3.48.56-3.47-.57-3.02-1.56-2.38-2.38-1.56-3.03-.57-3.47.56-3.47 1.55-3.02 2.38-2.37 3.02-1.56 3.47-.56zm-6.33 1.88l-2.47 1.28-1.95 1.95-1.28 2.47-.46 2.85.47 2.85 1.28 2.47 1.95 1.95 2.47 1.28 2.85.46 2.85-.45 2.47-1.28 1.95-1.95 1.27-2.47.46-2.85-.46-2.85-1.28-2.47-1.96-1.95-2.47-1.28-2.85-.46z" stroke="#5e5e5e" stroke-width=".05" fill="#5e5e5e"/><use xlink:href="#i" transform="matrix(1,0,0,1,381.1173339506166,670.7601246053222) translate(0.005000000000002558 14.222222222222223)"/><path d="M693.75 680.98H641.5V679h52.25zm143.75 0h-35.35V679h35.35z" stroke="#5e5e5e" stroke-width=".05" fill="#5e5e5e"/><path d="M838.5 680.98h-1.03V679h1.03z" fill="#5e5e5e"/><path stroke="#5e5e5e" stroke-width=".05" fill="#5e5e5e"/><path fill="#fff"/><path d="M642.48 690h-1.96v-20h1.96z" stroke="#5e5e5e" stroke-width=".05" fill="#5e5e5e"/><path fill="#fff"/><path d="M641.5 680.98h-20V679h20z" stroke="#5e5e5e" stroke-width=".05" fill="#5e5e5e"/><use xlink:href="#j" transform="matrix(1,0,0,1,693.753802504659,658.6666666666666) translate(12.32598765432099 14.222222222222223)"/><use xlink:href="#k" transform="matrix(1,0,0,1,693.753802504659,658.6666666666666) translate(0.005000000000002558 35.55555555555556)"/><path d="M693.75 478.3H641.5v-1.94h52.25zm143.75 0h-35.35v-1.94h35.35z" stroke="#5e5e5e" stroke-width=".05" fill="#5e5e5e"/><path d="M838.5 478.3h-1.03v-1.94h1.03z" fill="#5e5e5e"/><path stroke="#5e5e5e" stroke-width=".05" fill="#5e5e5e"/><path fill="#fff"/><path d="M642.48 487.33h-1.96v-20h1.96z" stroke="#5e5e5e" stroke-width=".05" fill="#5e5e5e"/><path fill="#fff"/><path d="M641.5 478.3h-20v-1.94h20z" stroke="#5e5e5e" stroke-width=".05" fill="#5e5e5e"/><use xlink:href="#j" transform="matrix(1,0,0,1,693.7538000355117,455.99998765432326) translate(12.32598765432099 14.222222222222223)"/><use xlink:href="#k" transform="matrix(1,0,0,1,693.7538000355117,455.99998765432326) translate(0.005000000000002558 35.55555555555556)"/><path d="M1138.5 426a6 6 0 0 1 6-6h148a6 6 0 0 1 6 6v108a6 6 0 0 1-6 6h-148a6 6 0 0 1-6-6z" stroke="#5e5e5e" stroke-width="3" fill="#c3f7c8"/><use xlink:href="#l" transform="matrix(1,0,0,1,1150.500074691361,432) translate(11.950617283950606 53.77777777777778)"/><path d="M1138.5 626a6 6 0 0 1 6-6h148a6 6 0 0 1 6 6v108a6 6 0 0 1-6 6h-148a6 6 0 0 1-6-6z" stroke="#5e5e5e" stroke-width="3" fill="#c3f7c8"/><use xlink:href="#m" transform="matrix(1,0,0,1,1150.500074691361,632) translate(-10.82716049382715 52.44444444444444)"/><path d="M1219.47 617.5h-1.94v-.72h1.94zm0-22.05h-1.94V561.5h1.94z" stroke="#5e5e5e" stroke-width=".05" fill="#5e5e5e"/><path d="M1219.47 618.5h-1.94v-1.03h1.94z" fill="#5e5e5e"/><path stroke="#5e5e5e" stroke-width=".05" fill="#5e5e5e"/><path fill="#fff"/><path d="M1228.5 562.48h-20v-1.96h20z" stroke="#5e5e5e" stroke-width=".05" fill="#5e5e5e"/><path fill="#fff"/><path d="M1219.47 561.5h-1.94v-20h1.94z" stroke="#5e5e5e" stroke-width=".05" fill="#5e5e5e"/><use xlink:href="#n" transform="matrix(1,0,0,1,1169.7346425925957,595.4502804965841) translate(0.005000000000002558 14.222222222222223)"/><path d="M1136 654.3h-114.5v-1.94H1136z" stroke="#5e5e5e" stroke-width=".05" fill="#5e5e5e"/><path d="M1137 654.3h-1.03v-1.94h1.03z" fill="#5e5e5e"/><path stroke="#5e5e5e" stroke-width=".05" fill="#5e5e5e"/><path d="M1001.95 643.33l20 10-20 10" fill="#fff" fill-opacity="0"/><path d="M1024.13 653.33l-21.75 10.88-.87-1.74 18.27-9.13-18.26-9.13.88-1.74z" stroke="#5e5e5e" stroke-width=".05" fill="#5e5e5e"/><path fill="#fff"/><path d="M1021.95 654.3h-20v-1.94h20z" stroke="#5e5e5e" stroke-width=".05" fill="#5e5e5e"/><path fill="#fff"/><path d="M1022.92 663.33h-1.95v-20h1.95z" stroke="#5e5e5e" stroke-width=".05" fill="#5e5e5e"/><use xlink:href="#o" transform="matrix(1,0,0,1,1006.0246913580247,617.9999961420446) translate(0.005000000000002558 14.222222222222223)"/><path d="M1219.47 1168.04l-.08 1.05-.26 1.06-.42 1-.58.94-.7.83-.84.7-.93.6-1 .4-1.08.26-1.06.07H847.17v-1.94h365.3l.82-.07.75-.18.73-.3.67-.42.6-.5.5-.6.42-.68.3-.73.2-.76.06-.84v-383.3h1.94zm0-404.7h-1.94V742.5h1.94z" stroke="#5e5e5e" stroke-width=".05" fill="#5e5e5e"/><path d="M1219.47 742.53h-1.94v-1.03h1.94z" fill="#5e5e5e"/><path stroke="#5e5e5e" stroke-width=".05" fill="#5e5e5e"/><path d="M808.6 1164l20 10-20 10" fill="#fff" fill-opacity="0"/><path d="M830.8 1174l-21.75 10.87-.87-1.74 18.25-9.13-18.25-9.13.87-1.74z" stroke="#5e5e5e" stroke-width=".05" fill="#5e5e5e"/><path fill="#fff"/><path d="M828.6 1174.97h-20v-1.94h20z" stroke="#5e5e5e" stroke-width=".05" fill="#5e5e5e"/><path d="M848.6 1174l-.5 3.16-1.42 2.75-2.16 2.17-2.75 1.42-3.16.5-3.15-.5-2.74-1.43-2.16-2.16-1.42-2.74-.5-3.16.5-3.16 1.42-2.75 2.17-2.17 2.75-1.42 3.16-.5 3.17.5 2.75 1.43 2.16 2.16 1.42 2.74.5 3.16" fill="#fff"/><path d="M842.08 1163.57l3.02 1.56 2.38 2.38 1.56 3.03.54 3.32-.97.15.98.15-.54 3.32-1.56 3.02-2.38 2.37-3.02 1.56-3.47.56-3.46-.57-3-1.56-2.4-2.38-1.55-3.03-.57-3.47.56-3.47 1.55-3.02 2.38-2.37 3-1.56 3.48-.56zm-6.32 1.88l-2.47 1.28-1.96 1.95-1.28 2.47-.46 2.85.46 2.85 1.28 2.47 1.95 1.95 2.46 1.28 2.85.46 2.87-.45 2.47-1.28 1.95-1.95 1.27-2.47.46-2.85-.46-2.85-1.28-2.47-1.96-1.95-2.48-1.28-2.85-.46z" stroke="#5e5e5e" stroke-width=".05" fill="#5e5e5e"/><g><use xlink:href="#i" transform="matrix(1,0,0,1,1181.1173586419784,763.3333333333334) translate(0.005000000000002558 14.222222222222223)"/></g><defs><path d="M140-251c81 0 123 46 123 126C263-46 219 4 140 4 59 4 17-45 17-125s42-126 123-126zm0 227c63 0 89-41 89-101s-29-99-89-99c-61 0-89 39-89 99S79-25 140-24" id="p"/><path d="M114-163C36-179 61-72 57 0H25l-1-190h30c1 12-1 29 2 39 6-27 23-49 58-41v29" id="q"/><path d="M177-190C167-65 218 103 67 71c-23-6-38-20-44-43l32-5c15 47 100 32 89-28v-30C133-14 115 1 83 1 29 1 15-40 15-95c0-56 16-97 71-98 29-1 48 16 59 35 1-10 0-23 2-32h30zM94-22c36 0 50-32 50-73 0-42-14-75-50-75-39 0-46 34-46 75s6 73 46 73" id="r"/><path d="M141-36C126-15 110 5 73 4 37 3 15-17 15-53c-1-64 63-63 125-63 3-35-9-54-41-54-24 1-41 7-42 31l-33-3c5-37 33-52 76-52 45 0 72 20 72 64v82c-1 20 7 32 28 27v20c-31 9-61-2-59-35zM48-53c0 20 12 33 32 33 41-3 63-29 60-74-43 2-92-5-92 41" id="s"/><path d="M117-194c89-4 53 116 60 194h-32v-121c0-31-8-49-39-48C34-167 62-67 57 0H25l-1-190h30c1 10-1 24 2 32 11-22 29-35 61-36" id="t"/><path d="M24-231v-30h32v30H24zM24 0v-190h32V0H24" id="u"/><path d="M9 0v-24l116-142H16v-24h144v24L44-24h123V0H9" id="v"/><path d="M59-47c-2 24 18 29 38 22v24C64 9 27 4 27-40v-127H5v-23h24l9-43h21v43h35v23H59v120" id="w"/><path d="M100-194c62-1 85 37 85 99 1 63-27 99-86 99S16-35 15-95c0-66 28-99 85-99zM99-20c44 1 53-31 53-75 0-43-8-75-51-75s-53 32-53 75 10 74 51 75" id="x"/><g id="a"><use transform="matrix(0.06172839506172839,0,0,0.06172839506172839,0,0)" xlink:href="#p"/><use transform="matrix(0.06172839506172839,0,0,0.06172839506172839,17.28395061728395,0)" xlink:href="#q"/><use transform="matrix(0.06172839506172839,0,0,0.06172839506172839,24.629629629629626,0)" xlink:href="#r"/><use transform="matrix(0.06172839506172839,0,0,0.06172839506172839,36.9753086419753,0)" xlink:href="#s"/><use transform="matrix(0.06172839506172839,0,0,0.06172839506172839,49.32098765432098,0)" xlink:href="#t"/><use transform="matrix(0.06172839506172839,0,0,0.06172839506172839,61.66666666666666,0)" xlink:href="#u"/><use transform="matrix(0.06172839506172839,0,0,0.06172839506172839,66.5432098765432,0)" xlink:href="#v"/><use transform="matrix(0.06172839506172839,0,0,0.06172839506172839,77.65432098765432,0)" xlink:href="#s"/><use transform="matrix(0.06172839506172839,0,0,0.06172839506172839,90,0)" xlink:href="#w"/><use transform="matrix(0.06172839506172839,0,0,0.06172839506172839,96.17283950617283,0)" xlink:href="#u"/><use transform="matrix(0.06172839506172839,0,0,0.06172839506172839,101.04938271604938,0)" xlink:href="#x"/><use transform="matrix(0.06172839506172839,0,0,0.06172839506172839,113.39506172839506,0)" xlink:href="#t"/></g><path fill="#333" d="M135-194c53 0 70 44 70 98 0 56-19 98-73 100-31 1-45-17-59-34 3 33 2 69 2 105H25l-1-265h48c2 10 0 23 3 31 11-24 29-35 60-35zM114-30c33 0 39-31 40-66 0-38-9-64-40-64-56 0-55 130 0 130" id="y"/><path fill="#333" d="M133-34C117-15 103 5 69 4 32 3 11-16 11-54c-1-60 55-63 116-61 1-26-3-47-28-47-18 1-26 9-28 27l-52-2c7-38 36-58 82-57s74 22 75 68l1 82c-1 14 12 18 25 15v27c-30 8-71 5-69-32zm-48 3c29 0 43-24 42-57-32 0-66-3-65 30 0 17 8 27 23 27" id="z"/><path fill="#333" d="M135-150c-39-12-60 13-60 57V0H25l-1-190h47c2 13-1 29 3 40 6-28 27-53 61-41v41" id="A"/><path fill="#333" d="M115-3C79 11 28 4 28-45v-112H4v-33h27l15-45h31v45h36v33H77v99c-1 23 16 31 38 25v30" id="B"/><path fill="#333" d="M14-72v-43h91v43H14" id="C"/><path fill="#333" d="M110-194c64 0 96 36 96 99 0 64-35 99-97 99-61 0-95-36-95-99 0-62 34-99 96-99zm-1 164c35 0 45-28 45-65 0-40-10-65-43-65-34 0-45 26-45 65 0 36 10 65 43 65" id="D"/><path fill="#333" d="M121-226c-27-7-43 5-38 36h38v33H83V0H34v-157H6v-33h28c-9-59 32-81 87-68v32" id="E"/><g id="b"><use transform="matrix(0.04938271604938272,0,0,0.04938271604938272,0,0)" xlink:href="#y"/><use transform="matrix(0.04938271604938272,0,0,0.04938271604938272,10.814814814814815,0)" xlink:href="#z"/><use transform="matrix(0.04938271604938272,0,0,0.04938271604938272,20.69135802469136,0)" xlink:href="#A"/><use transform="matrix(0.04938271604938272,0,0,0.04938271604938272,27.604938271604947,0)" xlink:href="#B"/><use transform="matrix(0.04938271604938272,0,0,0.04938271604938272,33.48148148148149,0)" xlink:href="#C"/><use transform="matrix(0.04938271604938272,0,0,0.04938271604938272,39.35802469135803,0)" xlink:href="#D"/><use transform="matrix(0.04938271604938272,0,0,0.04938271604938272,50.17283950617285,0)" xlink:href="#E"/></g><path d="M30 0v-248h33v221h125V0H30" id="F"/><path d="M96-169c-40 0-48 33-48 73s9 75 48 75c24 0 41-14 43-38l32 2c-6 37-31 61-74 61-59 0-76-41-82-99-10-93 101-131 147-64 4 7 5 14 7 22l-32 3c-4-21-16-35-41-35" id="G"/><g id="c"><use transform="matrix(0.06172839506172839,0,0,0.06172839506172839,0,0)" xlink:href="#F"/><use transform="matrix(0.06172839506172839,0,0,0.06172839506172839,12.345679012345679,0)" xlink:href="#x"/><use transform="matrix(0.06172839506172839,0,0,0.06172839506172839,24.691358024691358,0)" xlink:href="#G"/><use transform="matrix(0.06172839506172839,0,0,0.06172839506172839,35.80246913580247,0)" xlink:href="#s"/><use transform="matrix(0.06172839506172839,0,0,0.06172839506172839,48.148148148148145,0)" xlink:href="#w"/><use transform="matrix(0.06172839506172839,0,0,0.06172839506172839,54.32098765432099,0)" xlink:href="#u"/><use transform="matrix(0.06172839506172839,0,0,0.06172839506172839,59.19753086419753,0)" xlink:href="#x"/><use transform="matrix(0.06172839506172839,0,0,0.06172839506172839,71.54320987654322,0)" xlink:href="#t"/></g><path d="M197 0v-115H63V0H30v-248h33v105h134v-105h34V0h-34" id="H"/><path d="M100-194c63 0 86 42 84 106H49c0 40 14 67 53 68 26 1 43-12 49-29l28 8c-11 28-37 45-77 45C44 4 14-33 15-96c1-61 26-98 85-98zm52 81c6-60-76-77-97-28-3 7-6 17-6 28h103" id="I"/><path d="M24 0v-261h32V0H24" id="J"/><path d="M106-169C34-169 62-67 57 0H25v-261h32l-1 103c12-21 28-36 61-36 89 0 53 116 60 194h-32v-121c2-32-8-49-39-48" id="K"/><path d="M212-179c-10-28-35-45-73-45-59 0-87 40-87 99 0 60 29 101 89 101 43 0 62-24 78-52l27 14C228-24 195 4 139 4 59 4 22-46 18-125c-6-104 99-153 187-111 19 9 31 26 39 46" id="L"/><path d="M185-189c-5-48-123-54-124 2 14 75 158 14 163 119 3 78-121 87-175 55-17-10-28-26-33-46l33-7c5 56 141 63 141-1 0-78-155-14-162-118-5-82 145-84 179-34 5 7 8 16 11 25" id="M"/><path d="M108 0H70L1-190h34L89-25l56-165h34" id="N"/><g id="d"><use transform="matrix(0.06172839506172839,0,0,0.06172839506172839,0,0)" xlink:href="#H"/><use transform="matrix(0.06172839506172839,0,0,0.06172839506172839,15.987654320987653,0)" xlink:href="#I"/><use transform="matrix(0.06172839506172839,0,0,0.06172839506172839,28.333333333333332,0)" xlink:href="#s"/><use transform="matrix(0.06172839506172839,0,0,0.06172839506172839,40.67901234567901,0)" xlink:href="#J"/><use transform="matrix(0.06172839506172839,0,0,0.06172839506172839,45.55555555555556,0)" xlink:href="#w"/><use transform="matrix(0.06172839506172839,0,0,0.06172839506172839,51.7283950617284,0)" xlink:href="#K"/><use transform="matrix(0.06172839506172839,0,0,0.06172839506172839,64.07407407407408,0)" xlink:href="#L"/><use transform="matrix(0.06172839506172839,0,0,0.06172839506172839,80.06172839506173,0)" xlink:href="#s"/><use transform="matrix(0.06172839506172839,0,0,0.06172839506172839,92.40740740740742,0)" xlink:href="#q"/><use transform="matrix(0.06172839506172839,0,0,0.06172839506172839,99.7530864197531,0)" xlink:href="#I"/><use transform="matrix(0.06172839506172839,0,0,0.06172839506172839,112.09876543209879,0)" xlink:href="#M"/><use transform="matrix(0.06172839506172839,0,0,0.06172839506172839,126.9135802469136,0)" xlink:href="#I"/><use transform="matrix(0.06172839506172839,0,0,0.06172839506172839,139.25925925925927,0)" xlink:href="#q"/><use transform="matrix(0.06172839506172839,0,0,0.06172839506172839,146.60493827160494,0)" xlink:href="#N"/><use transform="matrix(0.06172839506172839,0,0,0.06172839506172839,157.71604938271605,0)" xlink:href="#u"/><use transform="matrix(0.06172839506172839,0,0,0.06172839506172839,162.59259259259258,0)" xlink:href="#G"/><use transform="matrix(0.06172839506172839,0,0,0.06172839506172839,173.7037037037037,0)" xlink:href="#I"/></g><path fill="#333" d="M128 0H69L1-190h53L99-40l48-150h52" id="O"/><path fill="#333" d="M25-224v-37h50v37H25zM25 0v-190h50V0H25" id="P"/><path fill="#333" d="M88-194c31-1 46 15 58 34l-1-101h50l1 261h-48c-2-10 0-23-3-31C134-8 116 4 84 4 32 4 16-41 15-95c0-56 19-97 73-99zm17 164c33 0 40-30 41-66 1-37-9-64-41-64s-38 30-39 65c0 43 13 65 39 65" id="Q"/><path fill="#333" d="M185-48c-13 30-37 53-82 52C43 2 14-33 14-96s30-98 90-98c62 0 83 45 84 108H66c0 31 8 55 39 56 18 0 30-7 34-22zm-45-69c5-46-57-63-70-21-2 6-4 13-4 21h74" id="R"/><path fill="#333" d="M182-130c37 4 62 22 62 59C244 23 116-4 24 0v-248c84 5 203-23 205 63 0 31-19 50-47 55zM76-148c40-3 101 13 101-30 0-44-60-28-101-31v61zm0 110c48-3 116 14 116-37 0-48-69-32-116-35v72" id="S"/><path fill="#333" d="M123 10C108 53 80 86 19 72V37c35 8 53-11 59-39L3-190h52l48 148c12-52 28-100 44-148h51" id="T"/><g id="e"><use transform="matrix(0.04938271604938272,0,0,0.04938271604938272,0,0)" xlink:href="#y"/><use transform="matrix(0.04938271604938272,0,0,0.04938271604938272,10.814814814814815,0)" xlink:href="#A"/><use transform="matrix(0.04938271604938272,0,0,0.04938271604938272,17.728395061728396,0)" xlink:href="#D"/><use transform="matrix(0.04938271604938272,0,0,0.04938271604938272,28.543209876543205,0)" xlink:href="#O"/><use transform="matrix(0.04938271604938272,0,0,0.04938271604938272,38.41975308641975,0)" xlink:href="#P"/><use transform="matrix(0.04938271604938272,0,0,0.04938271604938272,43.358024691358025,0)" xlink:href="#Q"/><use transform="matrix(0.04938271604938272,0,0,0.04938271604938272,54.17283950617284,0)" xlink:href="#R"/><use transform="matrix(0.04938271604938272,0,0,0.04938271604938272,64.0493827160494,0)" xlink:href="#Q"/><use transform="matrix(0.04938271604938272,0,0,0.04938271604938272,74.8641975308642,0)" xlink:href="#S"/><use transform="matrix(0.04938271604938272,0,0,0.04938271604938272,87.65432098765433,0)" xlink:href="#T"/></g><path fill="#333" d="M25 0v-261h50V0H25" id="U"/><path fill="#333" d="M190-63c-7 42-38 67-86 67-59 0-84-38-90-98-12-110 154-137 174-36l-49 2c-2-19-15-32-35-32-30 0-35 28-38 64-6 74 65 87 74 30" id="V"/><path fill="#333" d="M135-194c87-1 58 113 63 194h-50c-7-57 23-157-34-157-59 0-34 97-39 157H25l-1-190h47c2 12-1 28 3 38 12-26 28-41 61-42" id="W"/><g id="f"><use transform="matrix(0.04938271604938272,0,0,0.04938271604938272,0,0)" xlink:href="#U"/><use transform="matrix(0.04938271604938272,0,0,0.04938271604938272,4.938271604938272,0)" xlink:href="#D"/><use transform="matrix(0.04938271604938272,0,0,0.04938271604938272,15.753086419753087,0)" xlink:href="#V"/><use transform="matrix(0.04938271604938272,0,0,0.04938271604938272,25.629629629629633,0)" xlink:href="#z"/><use transform="matrix(0.04938271604938272,0,0,0.04938271604938272,35.50617283950618,0)" xlink:href="#B"/><use transform="matrix(0.04938271604938272,0,0,0.04938271604938272,41.38271604938272,0)" xlink:href="#P"/><use transform="matrix(0.04938271604938272,0,0,0.04938271604938272,46.320987654320994,0)" xlink:href="#D"/><use transform="matrix(0.04938271604938272,0,0,0.04938271604938272,57.135802469135804,0)" xlink:href="#W"/></g><g id="g"><use transform="matrix(0.04938271604938272,0,0,0.04938271604938272,0,0)" xlink:href="#R"/><use transform="matrix(0.04938271604938272,0,0,0.04938271604938272,9.876543209876544,0)" xlink:href="#W"/><use transform="matrix(0.04938271604938272,0,0,0.04938271604938272,20.69135802469136,0)" xlink:href="#Q"/><use transform="matrix(0.04938271604938272,0,0,0.04938271604938272,31.506172839506174,0)" xlink:href="#y"/><use transform="matrix(0.04938271604938272,0,0,0.04938271604938272,42.320987654320994,0)" xlink:href="#D"/><use transform="matrix(0.04938271604938272,0,0,0.04938271604938272,53.135802469135804,0)" xlink:href="#P"/><use transform="matrix(0.04938271604938272,0,0,0.04938271604938272,58.074074074074076,0)" xlink:href="#W"/><use transform="matrix(0.04938271604938272,0,0,0.04938271604938272,68.8888888888889,0)" xlink:href="#B"/></g><path d="M30 0v-248h187v28H63v79h144v27H63v87h162V0H30" id="X"/><path d="M85-194c31 0 48 13 60 33l-1-100h32l1 261h-30c-2-10 0-23-3-31C134-8 116 4 85 4 32 4 16-35 15-94c0-66 23-100 70-100zm9 24c-40 0-46 34-46 75 0 40 6 74 45 74 42 0 51-32 51-76 0-42-9-74-50-73" id="Y"/><path d="M115-194c55 1 70 41 70 98S169 2 115 4C84 4 66-9 55-30l1 105H24l-1-265h31l2 30c10-21 28-34 59-34zm-8 174c40 0 45-34 45-75s-6-73-45-74c-42 0-51 32-51 76 0 43 10 73 51 73" id="Z"/><g id="h"><use transform="matrix(0.06172839506172839,0,0,0.06172839506172839,0,0)" xlink:href="#X"/><use transform="matrix(0.06172839506172839,0,0,0.06172839506172839,14.814814814814813,0)" xlink:href="#t"/><use transform="matrix(0.06172839506172839,0,0,0.06172839506172839,27.160493827160494,0)" xlink:href="#Y"/><use transform="matrix(0.06172839506172839,0,0,0.06172839506172839,39.50617283950617,0)" xlink:href="#Z"/><use transform="matrix(0.06172839506172839,0,0,0.06172839506172839,51.85185185185185,0)" xlink:href="#x"/><use transform="matrix(0.06172839506172839,0,0,0.06172839506172839,64.19753086419753,0)" xlink:href="#u"/><use transform="matrix(0.06172839506172839,0,0,0.06172839506172839,69.07407407407408,0)" xlink:href="#t"/><use transform="matrix(0.06172839506172839,0,0,0.06172839506172839,81.41975308641976,0)" xlink:href="#w"/></g><g id="i"><use transform="matrix(0.04938271604938272,0,0,0.04938271604938272,0,0)" xlink:href="#R"/><use transform="matrix(0.04938271604938272,0,0,0.04938271604938272,9.876543209876544,0)" xlink:href="#W"/><use transform="matrix(0.04938271604938272,0,0,0.04938271604938272,20.69135802469136,0)" xlink:href="#Q"/><use transform="matrix(0.04938271604938272,0,0,0.04938271604938272,31.506172839506174,0)" xlink:href="#y"/><use transform="matrix(0.04938271604938272,0,0,0.04938271604938272,42.320987654320994,0)" xlink:href="#D"/><use transform="matrix(0.04938271604938272,0,0,0.04938271604938272,53.135802469135804,0)" xlink:href="#P"/><use transform="matrix(0.04938271604938272,0,0,0.04938271604938272,58.074074074074076,0)" xlink:href="#W"/><use transform="matrix(0.04938271604938272,0,0,0.04938271604938272,68.8888888888889,0)" xlink:href="#B"/></g><path fill="#333" d="M220-157c-53 9-28 100-34 157h-49v-107c1-27-5-49-29-50C55-147 81-57 75 0H25l-1-190h47c2 12-1 28 3 38 10-53 101-56 108 0 13-22 24-43 59-42 82 1 51 116 57 194h-49v-107c-1-25-5-48-29-50" id="aa"/><path fill="#333" d="M195-6C206 82 75 100 31 46c-4-6-6-13-8-21l49-6c3 16 16 24 34 25 40 0 42-37 40-79-11 22-30 35-61 35-53 0-70-43-70-97 0-56 18-96 73-97 30 0 46 14 59 34l2-30h47zm-90-29c32 0 41-27 41-63 0-35-9-62-40-62-32 0-39 29-40 63 0 36 9 62 39 62" id="ab"/><g id="j"><use transform="matrix(0.04938271604938272,0,0,0.04938271604938272,0,0)" xlink:href="#aa"/><use transform="matrix(0.04938271604938272,0,0,0.04938271604938272,15.80246913580247,0)" xlink:href="#z"/><use transform="matrix(0.04938271604938272,0,0,0.04938271604938272,25.679012345679016,0)" xlink:href="#W"/><use transform="matrix(0.04938271604938272,0,0,0.04938271604938272,36.49382716049383,0)" xlink:href="#z"/><use transform="matrix(0.04938271604938272,0,0,0.04938271604938272,46.370370370370374,0)" xlink:href="#ab"/><use transform="matrix(0.04938271604938272,0,0,0.04938271604938272,57.18518518518519,0)" xlink:href="#P"/><use transform="matrix(0.04938271604938272,0,0,0.04938271604938272,62.12345679012346,0)" xlink:href="#W"/><use transform="matrix(0.04938271604938272,0,0,0.04938271604938272,72.93827160493828,0)" xlink:href="#ab"/></g><path fill="#333" d="M140-251c80 0 125 45 125 126S219 4 139 4C58 4 15-44 15-125s44-126 125-126zm-1 214c52 0 73-35 73-88 0-50-21-86-72-86-52 0-73 35-73 86s22 88 72 88" id="ac"/><path fill="#333" d="M12 0v-35l95-120H19v-35h142v35L67-36h103V0H12" id="ad"/><g id="k"><use transform="matrix(0.04938271604938272,0,0,0.04938271604938272,0,0)" xlink:href="#ac"/><use transform="matrix(0.04938271604938272,0,0,0.04938271604938272,13.827160493827162,0)" xlink:href="#A"/><use transform="matrix(0.04938271604938272,0,0,0.04938271604938272,20.74074074074074,0)" xlink:href="#ab"/><use transform="matrix(0.04938271604938272,0,0,0.04938271604938272,31.555555555555557,0)" xlink:href="#z"/><use transform="matrix(0.04938271604938272,0,0,0.04938271604938272,41.4320987654321,0)" xlink:href="#W"/><use transform="matrix(0.04938271604938272,0,0,0.04938271604938272,52.24691358024692,0)" xlink:href="#P"/><use transform="matrix(0.04938271604938272,0,0,0.04938271604938272,57.18518518518519,0)" xlink:href="#ad"/><use transform="matrix(0.04938271604938272,0,0,0.04938271604938272,66.07407407407408,0)" xlink:href="#z"/><use transform="matrix(0.04938271604938272,0,0,0.04938271604938272,75.95061728395062,0)" xlink:href="#B"/><use transform="matrix(0.04938271604938272,0,0,0.04938271604938272,81.82716049382717,0)" xlink:href="#P"/><use transform="matrix(0.04938271604938272,0,0,0.04938271604938272,86.76543209876544,0)" xlink:href="#D"/><use transform="matrix(0.04938271604938272,0,0,0.04938271604938272,97.58024691358025,0)" xlink:href="#W"/></g><path d="M30-248c87 1 191-15 191 75 0 78-77 80-158 76V0H30v-248zm33 125c57 0 124 11 124-50 0-59-68-47-124-48v98" id="ae"/><g id="l"><use transform="matrix(0.06172839506172839,0,0,0.06172839506172839,0,0)" xlink:href="#ae"/><use transform="matrix(0.06172839506172839,0,0,0.06172839506172839,14.814814814814813,0)" xlink:href="#q"/><use transform="matrix(0.06172839506172839,0,0,0.06172839506172839,22.160493827160494,0)" xlink:href="#s"/><use transform="matrix(0.06172839506172839,0,0,0.06172839506172839,34.50617283950617,0)" xlink:href="#G"/><use transform="matrix(0.06172839506172839,0,0,0.06172839506172839,45.61728395061728,0)" xlink:href="#w"/><use transform="matrix(0.06172839506172839,0,0,0.06172839506172839,51.79012345679012,0)" xlink:href="#u"/><use transform="matrix(0.06172839506172839,0,0,0.06172839506172839,56.666666666666664,0)" xlink:href="#w"/><use transform="matrix(0.06172839506172839,0,0,0.06172839506172839,62.839506172839506,0)" xlink:href="#u"/><use transform="matrix(0.06172839506172839,0,0,0.06172839506172839,67.71604938271605,0)" xlink:href="#x"/><use transform="matrix(0.06172839506172839,0,0,0.06172839506172839,80.06172839506173,0)" xlink:href="#t"/><use transform="matrix(0.06172839506172839,0,0,0.06172839506172839,92.40740740740742,0)" xlink:href="#I"/><use transform="matrix(0.06172839506172839,0,0,0.06172839506172839,104.7530864197531,0)" xlink:href="#q"/></g><path d="M233-177c-1 41-23 64-60 70L243 0h-38l-65-103H63V0H30v-248c88 3 205-21 203 71zM63-129c60-2 137 13 137-47 0-61-80-42-137-45v92" id="af"/><g id="m"><use transform="matrix(0.06172839506172839,0,0,0.06172839506172839,0,0)" xlink:href="#ae"/><use transform="matrix(0.06172839506172839,0,0,0.06172839506172839,14.814814814814813,0)" xlink:href="#q"/><use transform="matrix(0.06172839506172839,0,0,0.06172839506172839,22.160493827160494,0)" xlink:href="#s"/><use transform="matrix(0.06172839506172839,0,0,0.06172839506172839,34.50617283950617,0)" xlink:href="#G"/><use transform="matrix(0.06172839506172839,0,0,0.06172839506172839,45.61728395061728,0)" xlink:href="#w"/><use transform="matrix(0.06172839506172839,0,0,0.06172839506172839,51.79012345679012,0)" xlink:href="#u"/><use transform="matrix(0.06172839506172839,0,0,0.06172839506172839,56.666666666666664,0)" xlink:href="#w"/><use transform="matrix(0.06172839506172839,0,0,0.06172839506172839,62.839506172839506,0)" xlink:href="#u"/><use transform="matrix(0.06172839506172839,0,0,0.06172839506172839,67.71604938271605,0)" xlink:href="#x"/><use transform="matrix(0.06172839506172839,0,0,0.06172839506172839,80.06172839506173,0)" xlink:href="#t"/><use transform="matrix(0.06172839506172839,0,0,0.06172839506172839,92.40740740740742,0)" xlink:href="#I"/><use transform="matrix(0.06172839506172839,0,0,0.06172839506172839,104.7530864197531,0)" xlink:href="#q"/><use transform="matrix(0.06172839506172839,0,0,0.06172839506172839,112.09876543209879,0)" xlink:href="#af"/><use transform="matrix(0.06172839506172839,0,0,0.06172839506172839,128.08641975308643,0)" xlink:href="#x"/><use transform="matrix(0.06172839506172839,0,0,0.06172839506172839,140.4320987654321,0)" xlink:href="#J"/><use transform="matrix(0.06172839506172839,0,0,0.06172839506172839,145.30864197530863,0)" xlink:href="#I"/></g><g id="n"><use transform="matrix(0.04938271604938272,0,0,0.04938271604938272,0,0)" xlink:href="#y"/><use transform="matrix(0.04938271604938272,0,0,0.04938271604938272,10.814814814814815,0)" xlink:href="#A"/><use transform="matrix(0.04938271604938272,0,0,0.04938271604938272,17.728395061728396,0)" xlink:href="#z"/><use transform="matrix(0.04938271604938272,0,0,0.04938271604938272,27.60493827160494,0)" xlink:href="#V"/><use transform="matrix(0.04938271604938272,0,0,0.04938271604938272,37.48148148148148,0)" xlink:href="#B"/><use transform="matrix(0.04938271604938272,0,0,0.04938271604938272,43.358024691358025,0)" xlink:href="#P"/><use transform="matrix(0.04938271604938272,0,0,0.04938271604938272,48.2962962962963,0)" xlink:href="#B"/><use transform="matrix(0.04938271604938272,0,0,0.04938271604938272,54.17283950617284,0)" xlink:href="#P"/><use transform="matrix(0.04938271604938272,0,0,0.04938271604938272,59.111111111111114,0)" xlink:href="#D"/><use transform="matrix(0.04938271604938272,0,0,0.04938271604938272,69.92592592592592,0)" xlink:href="#W"/><use transform="matrix(0.04938271604938272,0,0,0.04938271604938272,80.74074074074073,0)" xlink:href="#R"/><use transform="matrix(0.04938271604938272,0,0,0.04938271604938272,90.61728395061728,0)" xlink:href="#A"/></g><g id="o"><use transform="matrix(0.04938271604938272,0,0,0.04938271604938272,0,0)" xlink:href="#U"/><use transform="matrix(0.04938271604938272,0,0,0.04938271604938272,4.938271604938272,0)" xlink:href="#D"/><use transform="matrix(0.04938271604938272,0,0,0.04938271604938272,15.753086419753087,0)" xlink:href="#V"/><use transform="matrix(0.04938271604938272,0,0,0.04938271604938272,25.629629629629633,0)" xlink:href="#z"/><use transform="matrix(0.04938271604938272,0,0,0.04938271604938272,35.50617283950618,0)" xlink:href="#B"/><use transform="matrix(0.04938271604938272,0,0,0.04938271604938272,41.38271604938272,0)" xlink:href="#P"/><use transform="matrix(0.04938271604938272,0,0,0.04938271604938272,46.320987654320994,0)" xlink:href="#D"/><use transform="matrix(0.04938271604938272,0,0,0.04938271604938272,57.135802469135804,0)" xlink:href="#W"/></g></defs></g></svg>