<svg xmlns="http://www.w3.org/2000/svg" xmlns:xlink="http://www.w3.org/1999/xlink" contentStyleType="text/css" data-diagram-type="CLASS" height="294px" preserveAspectRatio="none" style="width:564px;height:294px;background:#FFFFFF;" version="1.1" viewBox="0 0 564 294" width="564px" zoomAndPan="magnify"><defs/><g><!--class Organization--><g class="entity" data-entity="Organization" data-source-line="2" data-uid="ent0002" id="entity_Organization"><rect fill="#F1F1F1" height="48" rx="2.5" ry="2.5" style="stroke:#181818;stroke-width:0.5;" width="121.749" x="210.28" y="7"/><ellipse cx="225.28" cy="23" fill="#ADD1B2" rx="11" ry="11" style="stroke:#181818;stroke-width:1;"/><path d="M228.2488,28.6406 Q227.6706,28.9375 227.03,29.0781 Q226.3894,29.2344 225.6863,29.2344 Q223.1863,29.2344 221.8581,27.5938 Q220.5456,25.9375 220.5456,22.8125 Q220.5456,19.6875 221.8581,18.0313 Q223.1863,16.375 225.6863,16.375 Q226.3894,16.375 227.03,16.5313 Q227.6863,16.6875 228.2488,16.9844 L228.2488,19.7031 Q227.6238,19.125 227.03,18.8594 Q226.4363,18.5781 225.8113,18.5781 Q224.4675,18.5781 223.78,19.6563 Q223.0925,20.7188 223.0925,22.8125 Q223.0925,24.9063 223.78,25.9844 Q224.4675,27.0469 225.8113,27.0469 Q226.4363,27.0469 227.03,26.7813 Q227.6238,26.5 228.2488,25.9219 L228.2488,28.6406 Z " fill="#000000"/><text fill="#000000" font-family="sans-serif" font-size="14" lengthAdjust="spacing" textLength="89.749" x="239.28" y="27.8467">Organization</text><line style="stroke:#181818;stroke-width:0.5;" x1="211.28" x2="331.029" y1="39" y2="39"/><line style="stroke:#181818;stroke-width:0.5;" x1="211.28" x2="331.029" y1="47" y2="47"/></g><!--class HealthcareService--><g class="entity" data-entity="HealthcareService" data-source-line="6" data-uid="ent0003" id="entity_HealthcareService"><rect fill="#F1F1F1" height="64.2969" rx="2.5" ry="2.5" style="stroke:#181818;stroke-width:0.5;" width="178.5303" x="71.89" y="115"/><ellipse cx="95.0673" cy="131" fill="#ADD1B2" rx="11" ry="11" style="stroke:#181818;stroke-width:1;"/><path d="M98.0361,136.6406 Q97.458,136.9375 96.8173,137.0781 Q96.1767,137.2344 95.4736,137.2344 Q92.9736,137.2344 91.6455,135.5938 Q90.333,133.9375 90.333,130.8125 Q90.333,127.6875 91.6455,126.0313 Q92.9736,124.375 95.4736,124.375 Q96.1767,124.375 96.8173,124.5313 Q97.4736,124.6875 98.0361,124.9844 L98.0361,127.7031 Q97.4111,127.125 96.8173,126.8594 Q96.2236,126.5781 95.5986,126.5781 Q94.2548,126.5781 93.5673,127.6563 Q92.8798,128.7188 92.8798,130.8125 Q92.8798,132.9063 93.5673,133.9844 Q94.2548,135.0469 95.5986,135.0469 Q96.2236,135.0469 96.8173,134.7813 Q97.4111,134.5 98.0361,133.9219 L98.0361,136.6406 Z " fill="#000000"/><text fill="#000000" font-family="sans-serif" font-size="14" lengthAdjust="spacing" textLength="128.3584" x="110.8845" y="135.8467">HealthcareService</text><line style="stroke:#181818;stroke-width:0.5;" x1="72.89" x2="249.4203" y1="147" y2="147"/><text fill="#000000" font-family="sans-serif" font-size="14" lengthAdjust="spacing" textLength="166.5303" x="77.89" y="163.9951">meta.tag.origin ("ldap")</text><line style="stroke:#181818;stroke-width:0.5;" x1="72.89" x2="249.4203" y1="171.2969" y2="171.2969"/></g><!--class HealthcareService_n--><g class="entity" data-entity="HealthcareService_n" data-source-line="10" data-uid="ent0004" id="entity_HealthcareService_n"><rect fill="#F1F1F1" height="64.2969" rx="2.5" ry="2.5" style="stroke:#181818;stroke-width:0.5;" width="191.5459" x="285.38" y="115"/><ellipse cx="307.2715" cy="131" fill="#ADD1B2" rx="11" ry="11" style="stroke:#181818;stroke-width:1;"/><path d="M310.2403,136.6406 Q309.6621,136.9375 309.0215,137.0781 Q308.3809,137.2344 307.6778,137.2344 Q305.1778,137.2344 303.8496,135.5938 Q302.5371,133.9375 302.5371,130.8125 Q302.5371,127.6875 303.8496,126.0313 Q305.1778,124.375 307.6778,124.375 Q308.3809,124.375 309.0215,124.5313 Q309.6778,124.6875 310.2403,124.9844 L310.2403,127.7031 Q309.6153,127.125 309.0215,126.8594 Q308.4278,126.5781 307.8028,126.5781 Q306.459,126.5781 305.7715,127.6563 Q305.084,128.7188 305.084,130.8125 Q305.084,132.9063 305.7715,133.9844 Q306.459,135.0469 307.8028,135.0469 Q308.4278,135.0469 309.0215,134.7813 Q309.6153,134.5 310.2403,133.9219 L310.2403,136.6406 Z " fill="#000000"/><text fill="#000000" font-family="sans-serif" font-size="14" lengthAdjust="spacing" textLength="144.2314" x="322.8029" y="135.8467">HealthcareService_n</text><line style="stroke:#181818;stroke-width:0.5;" x1="286.38" x2="475.9259" y1="147" y2="147"/><text fill="#000000" font-family="sans-serif" font-size="14" lengthAdjust="spacing" textLength="179.5459" x="291.38" y="163.9951">meta.tag.origin ("owner")</text><line style="stroke:#181818;stroke-width:0.5;" x1="286.38" x2="475.9259" y1="171.2969" y2="171.2969"/></g><!--class Endpoint--><g class="entity" data-entity="Endpoint" data-source-line="14" data-uid="ent0005" id="entity_Endpoint"><rect fill="#F1F1F1" height="48" rx="2.5" ry="2.5" style="stroke:#181818;stroke-width:0.5;" width="94.3096" x="7" y="239.3"/><ellipse cx="22" cy="255.3" fill="#ADD1B2" rx="11" ry="11" style="stroke:#181818;stroke-width:1;"/><path d="M24.9688,260.9406 Q24.3906,261.2375 23.75,261.3781 Q23.1094,261.5344 22.4063,261.5344 Q19.9063,261.5344 18.5781,259.8938 Q17.2656,258.2375 17.2656,255.1125 Q17.2656,251.9875 18.5781,250.3313 Q19.9063,248.675 22.4063,248.675 Q23.1094,248.675 23.75,248.8313 Q24.4063,248.9875 24.9688,249.2844 L24.9688,252.0031 Q24.3438,251.425 23.75,251.1594 Q23.1563,250.8781 22.5313,250.8781 Q21.1875,250.8781 20.5,251.9563 Q19.8125,253.0188 19.8125,255.1125 Q19.8125,257.2063 20.5,258.2844 Q21.1875,259.3469 22.5313,259.3469 Q23.1563,259.3469 23.75,259.0813 Q24.3438,258.8 24.9688,258.2219 L24.9688,260.9406 Z " fill="#000000"/><text fill="#000000" font-family="sans-serif" font-size="14" lengthAdjust="spacing" textLength="62.3096" x="36" y="260.1467">Endpoint</text><line style="stroke:#181818;stroke-width:0.5;" x1="8" x2="100.3096" y1="271.3" y2="271.3"/><line style="stroke:#181818;stroke-width:0.5;" x1="8" x2="100.3096" y1="279.3" y2="279.3"/></g><!--class Location--><g class="entity" data-entity="Location" data-source-line="17" data-uid="ent0006" id="entity_Location"><rect fill="#F1F1F1" height="48" rx="2.5" ry="2.5" style="stroke:#181818;stroke-width:0.5;" width="91.459" x="136.43" y="239.3"/><ellipse cx="151.43" cy="255.3" fill="#ADD1B2" rx="11" ry="11" style="stroke:#181818;stroke-width:1;"/><path d="M154.3988,260.9406 Q153.8206,261.2375 153.18,261.3781 Q152.5394,261.5344 151.8363,261.5344 Q149.3363,261.5344 148.0081,259.8938 Q146.6956,258.2375 146.6956,255.1125 Q146.6956,251.9875 148.0081,250.3313 Q149.3363,248.675 151.8363,248.675 Q152.5394,248.675 153.18,248.8313 Q153.8363,248.9875 154.3988,249.2844 L154.3988,252.0031 Q153.7738,251.425 153.18,251.1594 Q152.5863,250.8781 151.9613,250.8781 Q150.6175,250.8781 149.93,251.9563 Q149.2425,253.0188 149.2425,255.1125 Q149.2425,257.2063 149.93,258.2844 Q150.6175,259.3469 151.9613,259.3469 Q152.5863,259.3469 153.18,259.0813 Q153.7738,258.8 154.3988,258.2219 L154.3988,260.9406 Z " fill="#000000"/><text fill="#000000" font-family="sans-serif" font-size="14" lengthAdjust="spacing" textLength="59.459" x="165.43" y="260.1467">Location</text><line style="stroke:#181818;stroke-width:0.5;" x1="137.43" x2="226.889" y1="271.3" y2="271.3"/><line style="stroke:#181818;stroke-width:0.5;" x1="137.43" x2="226.889" y1="279.3" y2="279.3"/></g><!--class Endpoint_n--><g class="entity" data-entity="Endpoint_n" data-source-line="25" data-uid="ent0011" id="entity_Endpoint_n"><rect fill="#F1F1F1" height="48" rx="2.5" ry="2.5" style="stroke:#181818;stroke-width:0.5;" width="110.1826" x="305.06" y="239.3"/><ellipse cx="320.06" cy="255.3" fill="#ADD1B2" rx="11" ry="11" style="stroke:#181818;stroke-width:1;"/><path d="M323.0288,260.9406 Q322.4506,261.2375 321.81,261.3781 Q321.1694,261.5344 320.4663,261.5344 Q317.9663,261.5344 316.6381,259.8938 Q315.3256,258.2375 315.3256,255.1125 Q315.3256,251.9875 316.6381,250.3313 Q317.9663,248.675 320.4663,248.675 Q321.1694,248.675 321.81,248.8313 Q322.4663,248.9875 323.0288,249.2844 L323.0288,252.0031 Q322.4038,251.425 321.81,251.1594 Q321.2163,250.8781 320.5913,250.8781 Q319.2475,250.8781 318.56,251.9563 Q317.8725,253.0188 317.8725,255.1125 Q317.8725,257.2063 318.56,258.2844 Q319.2475,259.3469 320.5913,259.3469 Q321.2163,259.3469 321.81,259.0813 Q322.4038,258.8 323.0288,258.2219 L323.0288,260.9406 Z " fill="#000000"/><text fill="#000000" font-family="sans-serif" font-size="14" lengthAdjust="spacing" textLength="78.1826" x="334.06" y="260.1467">Endpoint_n</text><line style="stroke:#181818;stroke-width:0.5;" x1="306.06" x2="414.2426" y1="271.3" y2="271.3"/><line style="stroke:#181818;stroke-width:0.5;" x1="306.06" x2="414.2426" y1="279.3" y2="279.3"/></g><!--class Location_n--><g class="entity" data-entity="Location_n" data-source-line="26" data-uid="ent0013" id="entity_Location_n"><rect fill="#F1F1F1" height="48" rx="2.5" ry="2.5" style="stroke:#181818;stroke-width:0.5;" width="107.332" x="450.49" y="239.3"/><ellipse cx="465.49" cy="255.3" fill="#ADD1B2" rx="11" ry="11" style="stroke:#181818;stroke-width:1;"/><path d="M468.4588,260.9406 Q467.8806,261.2375 467.24,261.3781 Q466.5994,261.5344 465.8963,261.5344 Q463.3963,261.5344 462.0681,259.8938 Q460.7556,258.2375 460.7556,255.1125 Q460.7556,251.9875 462.0681,250.3313 Q463.3963,248.675 465.8963,248.675 Q466.5994,248.675 467.24,248.8313 Q467.8963,248.9875 468.4588,249.2844 L468.4588,252.0031 Q467.8338,251.425 467.24,251.1594 Q466.6463,250.8781 466.0213,250.8781 Q464.6775,250.8781 463.99,251.9563 Q463.3025,253.0188 463.3025,255.1125 Q463.3025,257.2063 463.99,258.2844 Q464.6775,259.3469 466.0213,259.3469 Q466.6463,259.3469 467.24,259.0813 Q467.8338,258.8 468.4588,258.2219 L468.4588,260.9406 Z " fill="#000000"/><text fill="#000000" font-family="sans-serif" font-size="14" lengthAdjust="spacing" textLength="75.332" x="479.49" y="260.1467">Location_n</text><line style="stroke:#181818;stroke-width:0.5;" x1="451.49" x2="556.822" y1="271.3" y2="271.3"/><line style="stroke:#181818;stroke-width:0.5;" x1="451.49" x2="556.822" y1="279.3" y2="279.3"/></g><!--reverse link Organization to HealthcareService--><g class="link" data-entity-1="Organization" data-entity-2="HealthcareService" data-source-line="20" data-uid="lnk7" id="link_Organization_HealthcareService"><path codeLine="20" d="M244.4664,59.7003 C227.9964,76.7903 209.64,95.84 191.58,114.58" fill="none" id="Organization-backto-HealthcareService" style="stroke:#181818;stroke-width:1;"/><polygon fill="#181818" points="248.63,55.38,239.5045,59.0847,245.1604,58.9802,245.2649,64.6361,248.63,55.38" style="stroke:#181818;stroke-width:1;"/></g><!--link HealthcareService to Endpoint--><g class="link" data-entity-1="HealthcareService" data-entity-2="Endpoint" data-source-line="21" data-uid="lnk8" id="link_HealthcareService_Endpoint"><path codeLine="21" d="M131.63,179.65 C114.07,198.39 96.2536,217.3927 80.2136,234.5027" fill="none" id="HealthcareService-to-Endpoint" style="stroke:#181818;stroke-width:1;"/><polygon fill="#181818" points="76.11,238.88,85.1835,235.0498,79.5296,235.2322,79.3471,229.5783,76.11,238.88" style="stroke:#181818;stroke-width:1;"/></g><!--link HealthcareService to Location--><g class="link" data-entity-1="HealthcareService" data-entity-2="Location" data-source-line="22" data-uid="lnk9" id="link_HealthcareService_Location"><path codeLine="22" d="M166.95,179.65 C170.4,198.39 173.6136,215.8692 176.7636,232.9792" fill="none" id="HealthcareService-to-Location" style="stroke:#181818;stroke-width:1;"/><polygon fill="#181818" points="177.85,238.88,180.1543,229.3045,176.9447,233.9626,172.2866,230.753,177.85,238.88" style="stroke:#181818;stroke-width:1;"/></g><!--reverse link Organization to HealthcareService_n--><g class="link" data-entity-1="Organization" data-entity-2="HealthcareService_n" data-source-line="24" data-uid="lnk10" id="link_Organization_HealthcareService_n"><path codeLine="24" d="M297.8436,59.7003 C314.3136,76.7903 332.67,95.84 350.73,114.58" fill="none" id="Organization-backto-HealthcareService_n" style="stroke:#181818;stroke-width:1;"/><polygon fill="#181818" points="293.68,55.38,297.0451,64.6361,297.1496,58.9802,302.8055,59.0847,293.68,55.38" style="stroke:#181818;stroke-width:1;"/></g><!--link HealthcareService_n to Endpoint_n--><g class="link" data-entity-1="HealthcareService_n" data-entity-2="Endpoint_n" data-source-line="25" data-uid="lnk12" id="link_HealthcareService_n_Endpoint_n"><path codeLine="25" d="M375.36,179.65 C371.91,198.39 368.6964,215.8692 365.5464,232.9792" fill="none" id="HealthcareService_n-to-Endpoint_n" style="stroke:#181818;stroke-width:1;"/><polygon fill="#181818" points="364.46,238.88,370.0234,230.753,365.3653,233.9626,362.1557,229.3045,364.46,238.88" style="stroke:#181818;stroke-width:1;"/></g><!--link HealthcareService_n to Location_n--><g class="link" data-entity-1="HealthcareService_n" data-entity-2="Location_n" data-source-line="26" data-uid="lnk14" id="link_HealthcareService_n_Location_n"><path codeLine="26" d="M415.09,179.65 C435.29,198.39 456.0828,217.6878 474.5128,234.7978" fill="none" id="HealthcareService_n-to-Location_n" style="stroke:#181818;stroke-width:1;"/><polygon fill="#181818" points="478.91,238.88,475.0357,229.8252,475.2457,235.4781,469.5927,235.6881,478.91,238.88" style="stroke:#181818;stroke-width:1;"/></g><!--SRC=[ZO_D2i8m48JlUOgb9psaJo3U10-21n-WBEaQ5-AcfA62fUzk5ECFjUfrPdQ-7L36OTl2DbWKFcDaBz0hDIYuEsj25my60-qeT6mesG3zdidL0nmfOXdHbZwmPO5PuMfiYdagcBglv4U3Fmc5MqN-OILrurbYEdoA6s_okrVnRS52wp5OZQTelNoKJzWPynUY4lLfxolcIoIZKWGk]--></g></svg>