<svg xmlns="http://www.w3.org/2000/svg" xmlns:xlink="http://www.w3.org/1999/xlink" contentStyleType="text/css" height="834px" preserveAspectRatio="none" style="width:2602px;height:834px;background:#FFFFFF;" version="1.1" viewBox="0 0 2602 834" width="2602px" zoomAndPan="magnify"><defs/><g><!--cluster LDAP VZD--><g id="cluster_LDAP VZD"><rect fill="#90EE90" height="172" rx="2.5" ry="2.5" style="stroke:#181818;stroke-width:1.0;" width="918" x="228.75" y="7"/><path d="M317.8691,7 L317.8691,16.2969 L307.8691,26.2969 L228.75,26.2969 " fill="none" style="stroke:#181818;stroke-width:1.0;"/><text fill="#000000" font-family="sans-serif" font-size="14" font-weight="bold" lengthAdjust="spacing" textLength="79.1191" x="231.75" y="20.9951">LDAP VZD</text></g><!--cluster FHIR VZD--><g id="cluster_FHIR VZD"><rect fill="#FFFFE0" height="616" rx="2.5" ry="2.5" style="stroke:#181818;stroke-width:1.0;" width="1749" x="184.75" y="212"/><path d="M269.501,212 L269.501,221.2969 L259.501,231.2969 L184.75,231.2969 " fill="none" style="stroke:#181818;stroke-width:1.0;"/><text fill="#000000" font-family="sans-serif" font-size="14" font-weight="bold" lengthAdjust="spacing" textLength="74.751" x="187.75" y="225.9951">FHIR VZD</text></g><!--cluster ApoVZD--><g id="cluster_ApoVZD"><rect fill="#ADD8E6" height="172" rx="2.5" ry="2.5" style="stroke:#181818;stroke-width:1.0;" width="581" x="1809.75" y="7"/><path d="M1882.832,7 L1882.832,16.2969 L1872.832,26.2969 L1809.75,26.2969 " fill="none" style="stroke:#181818;stroke-width:1.0;"/><text fill="#000000" font-family="sans-serif" font-size="14" font-weight="bold" lengthAdjust="spacing" textLength="63.082" x="1812.75" y="20.9951">ApoVZD</text></g><!--class specialization--><g id="elem_specialization"><rect codeLine="3" fill="#F1F1F1" height="113.1875" id="specialization" rx="2.5" ry="2.5" style="stroke:#181818;stroke-width:0.5;" width="304.2842" x="457.75" y="46"/><ellipse cx="557.8999" cy="62" fill="#ADD1B2" rx="11" ry="11" style="stroke:#181818;stroke-width:1.0;"/><path d="M560.8687,67.6406 Q560.2905,67.9375 559.6499,68.0781 Q559.0093,68.2344 558.3062,68.2344 Q555.8062,68.2344 554.478,66.5938 Q553.1655,64.9375 553.1655,61.8125 Q553.1655,58.6875 554.478,57.0313 Q555.8062,55.375 558.3062,55.375 Q559.0093,55.375 559.6499,55.5313 Q560.3062,55.6875 560.8687,55.9844 L560.8687,58.7031 Q560.2437,58.125 559.6499,57.8594 Q559.0562,57.5781 558.4312,57.5781 Q557.0874,57.5781 556.3999,58.6563 Q555.7124,59.7188 555.7124,61.8125 Q555.7124,63.9063 556.3999,64.9844 Q557.0874,66.0469 558.4312,66.0469 Q559.0562,66.0469 559.6499,65.7813 Q560.2437,65.5 560.8687,64.9219 L560.8687,67.6406 Z " fill="#000000"/><text fill="#000000" font-family="sans-serif" font-size="14" lengthAdjust="spacing" textLength="95.4844" x="578.3999" y="66.8467">specialization</text><line style="stroke:#181818;stroke-width:0.5;" x1="458.75" x2="761.0342" y1="78" y2="78"/><ellipse cx="468.75" cy="91.6484" fill="none" rx="3" ry="3" style="stroke:#038048;stroke-width:1.0;"/><text fill="#000000" font-family="sans-serif" font-size="14" lengthAdjust="spacing" textLength="143.7666" x="477.75" y="94.9951">10_Officin_Apotheke</text><ellipse cx="468.75" cy="107.9453" fill="none" rx="3" ry="3" style="stroke:#038048;stroke-width:1.0;"/><text fill="#000000" font-family="sans-serif" font-size="14" lengthAdjust="spacing" textLength="278.2842" x="477.75" y="111.292">20_Krankenhausversorgende_Apotheke</text><ellipse cx="468.75" cy="124.2422" fill="none" rx="3" ry="3" style="stroke:#038048;stroke-width:1.0;"/><text fill="#000000" font-family="sans-serif" font-size="14" lengthAdjust="spacing" textLength="223.3506" x="477.75" y="127.5889">30_Heimversorgende_Apotheke</text><ellipse cx="468.75" cy="140.5391" fill="none" rx="3" ry="3" style="stroke:#038048;stroke-width:1.0;"/><text fill="#000000" font-family="sans-serif" font-size="14" lengthAdjust="spacing" textLength="148.1211" x="477.75" y="143.8857">40_Versandapotheke</text><line style="stroke:#181818;stroke-width:0.5;" x1="458.75" x2="761.0342" y1="151.1875" y2="151.1875"/></g><g id="elem_GMN4"><path d="M245.22,89.93 L245.22,115.0628 A0,0 0 0 0 245.22,115.0628 L414.2791,115.0628 A0,0 0 0 0 414.2791,115.0628 L414.2791,107.93 L449.98,102.5 L414.2791,99.93 L414.2791,99.93 L404.2791,89.93 L245.22,89.93 A0,0 0 0 0 245.22,89.93 " fill="#FEFFDD" style="stroke:#181818;stroke-width:0.5;"/><path d="M404.2791,89.93 L404.2791,99.93 L414.2791,99.93 L404.2791,89.93 " fill="#FEFFDD" style="stroke:#181818;stroke-width:0.5;"/><text fill="#000000" font-family="sans-serif" font-size="13" lengthAdjust="spacing" textLength="148.0591" x="251.22" y="106.9969">PharmacyTypeLDAPCS</text></g><!--class professionOID--><g id="elem_professionOID"><rect codeLine="14" fill="#F1F1F1" height="96.8906" id="professionOID" rx="2.5" ry="2.5" style="stroke:#181818;stroke-width:0.5;" width="325.7354" x="804.88" y="54.05"/><ellipse cx="914.2003" cy="70.05" fill="#ADD1B2" rx="11" ry="11" style="stroke:#181818;stroke-width:1.0;"/><path d="M917.1691,75.6906 Q916.5909,75.9875 915.9503,76.1281 Q915.3097,76.2844 914.6066,76.2844 Q912.1066,76.2844 910.7784,74.6437 Q909.4659,72.9875 909.4659,69.8625 Q909.4659,66.7375 910.7784,65.0812 Q912.1066,63.425 914.6066,63.425 Q915.3097,63.425 915.9503,63.5812 Q916.6066,63.7375 917.1691,64.0344 L917.1691,66.7531 Q916.5441,66.175 915.9503,65.9094 Q915.3566,65.6281 914.7316,65.6281 Q913.3878,65.6281 912.7003,66.7062 Q912.0128,67.7687 912.0128,69.8625 Q912.0128,71.9562 912.7003,73.0344 Q913.3878,74.0969 914.7316,74.0969 Q915.3566,74.0969 915.9503,73.8312 Q916.5441,73.55 917.1691,72.9719 L917.1691,75.6906 Z " fill="#000000"/><text fill="#000000" font-family="sans-serif" font-size="14" lengthAdjust="spacing" textLength="98.5947" x="934.7003" y="74.8967">professionOID</text><line style="stroke:#181818;stroke-width:0.5;" x1="805.88" x2="1129.6154" y1="86.05" y2="86.05"/><ellipse cx="815.88" cy="99.6984" fill="none" rx="3" ry="3" style="stroke:#038048;stroke-width:1.0;"/><text fill="#000000" font-family="sans-serif" font-size="14" lengthAdjust="spacing" textLength="124.6807" x="824.88" y="103.0451">1.2.276.0.76.4.54</text><text fill="#000000" font-family="sans-serif" font-size="14" lengthAdjust="spacing" textLength="147.9912" x="967.2863" y="103.0451">&#214;ffentliche Apotheke</text><ellipse cx="815.88" cy="115.9953" fill="none" rx="3" ry="3" style="stroke:#038048;stroke-width:1.0;"/><text fill="#000000" font-family="sans-serif" font-size="14" lengthAdjust="spacing" textLength="124.6807" x="824.88" y="119.342">1.2.276.0.76.4.55</text><text fill="#000000" font-family="sans-serif" font-size="14" lengthAdjust="spacing" textLength="157.3291" x="967.2863" y="119.342">Krankenhausapotheke</text><ellipse cx="815.88" cy="132.2922" fill="none" rx="3" ry="3" style="stroke:#038048;stroke-width:1.0;"/><text fill="#000000" font-family="sans-serif" font-size="14" lengthAdjust="spacing" textLength="124.6807" x="824.88" y="135.6389">1.2.276.0.76.4.56</text><text fill="#000000" font-family="sans-serif" font-size="14" lengthAdjust="spacing" textLength="152.5645" x="967.2863" y="135.6389">Bundeswehrapotheke</text><line style="stroke:#181818;stroke-width:0.5;" x1="805.88" x2="1129.6154" y1="142.9406" y2="142.9406"/></g><!--class HealthcareService_specialty--><g id="elem_HealthcareService_specialty"><rect codeLine="23" fill="#F1F1F1" height="129.4844" id="HealthcareService_specialty" rx="2.5" ry="2.5" style="stroke:#181818;stroke-width:0.5;" width="229.9824" x="209.25" y="514"/><ellipse cx="224.25" cy="530" fill="#ADD1B2" rx="11" ry="11" style="stroke:#181818;stroke-width:1.0;"/><path d="M227.2188,535.6406 Q226.6406,535.9375 226,536.0781 Q225.3594,536.2344 224.6563,536.2344 Q222.1563,536.2344 220.8281,534.5938 Q219.5156,532.9375 219.5156,529.8125 Q219.5156,526.6875 220.8281,525.0313 Q222.1563,523.375 224.6563,523.375 Q225.3594,523.375 226,523.5313 Q226.6563,523.6875 227.2188,523.9844 L227.2188,526.7031 Q226.5938,526.125 226,525.8594 Q225.4063,525.5781 224.7813,525.5781 Q223.4375,525.5781 222.75,526.6563 Q222.0625,527.7188 222.0625,529.8125 Q222.0625,531.9063 222.75,532.9844 Q223.4375,534.0469 224.7813,534.0469 Q225.4063,534.0469 226,533.7813 Q226.5938,533.5 227.2188,532.9219 L227.2188,535.6406 Z " fill="#000000"/><text fill="#000000" font-family="sans-serif" font-size="14" lengthAdjust="spacing" textLength="197.9824" x="238.25" y="534.8467">HealthcareService_specialty</text><line style="stroke:#181818;stroke-width:0.5;" x1="210.25" x2="438.2324" y1="546" y2="546"/><ellipse cx="220.25" cy="559.6484" fill="none" rx="3" ry="3" style="stroke:#038048;stroke-width:1.0;"/><text fill="#000000" font-family="sans-serif" font-size="14" lengthAdjust="spacing" textLength="114.8232" x="229.25" y="562.9951">10_Handverkauf</text><ellipse cx="220.25" cy="575.9453" fill="none" rx="3" ry="3" style="stroke:#038048;stroke-width:1.0;"/><text fill="#000000" font-family="sans-serif" font-size="14" lengthAdjust="spacing" textLength="174.1318" x="229.25" y="579.292">20_Nacht_und_Notdienst</text><ellipse cx="220.25" cy="592.2422" fill="none" rx="3" ry="3" style="stroke:#038048;stroke-width:1.0;"/><text fill="#000000" font-family="sans-serif" font-size="14" lengthAdjust="spacing" textLength="109.0059" x="229.25" y="595.5889">30_Botendienst</text><ellipse cx="220.25" cy="608.5391" fill="none" rx="3" ry="3" style="stroke:#038048;stroke-width:1.0;"/><text fill="#000000" font-family="sans-serif" font-size="14" lengthAdjust="spacing" textLength="82.3936" x="229.25" y="611.8857">40_Versand</text><ellipse cx="220.25" cy="624.8359" fill="none" rx="3" ry="3" style="stroke:#038048;stroke-width:1.0;"/><text fill="#000000" font-family="sans-serif" font-size="14" lengthAdjust="spacing" textLength="140.3896" x="229.25" y="628.1826">50_Sterilherstellung</text><line style="stroke:#181818;stroke-width:0.5;" x1="210.25" x2="438.2324" y1="635.4844" y2="635.4844"/></g><g id="elem_GMN10"><path d="M200.96,327.43 L200.96,352.5628 A0,0 0 0 0 200.96,352.5628 L315.95,352.5628 L322.61,510.09 L323.95,352.5628 L438.5357,352.5628 A0,0 0 0 0 438.5357,352.5628 L438.5357,337.43 L428.5357,327.43 L200.96,327.43 A0,0 0 0 0 200.96,327.43 " fill="#FEFFDD" style="stroke:#181818;stroke-width:0.5;"/><path d="M428.5357,327.43 L428.5357,337.43 L438.5357,337.43 L428.5357,327.43 " fill="#FEFFDD" style="stroke:#181818;stroke-width:0.5;"/><text fill="#000000" font-family="sans-serif" font-size="13" lengthAdjust="spacing" textLength="216.5757" x="206.96" y="344.4969">PharmacyHealthcareSpecialityCS</text></g><!--class HealthcareService_type--><g id="elem_HealthcareService_type"><rect codeLine="35" fill="#F1F1F1" height="145.7813" id="HealthcareService_type" rx="2.5" ry="2.5" style="stroke:#181818;stroke-width:0.5;" width="535.2705" x="473.11" y="267.11"/><ellipse cx="653.1788" cy="283.11" fill="#ADD1B2" rx="11" ry="11" style="stroke:#181818;stroke-width:1.0;"/><path d="M656.1476,288.7506 Q655.5695,289.0475 654.9288,289.1881 Q654.2882,289.3444 653.5851,289.3444 Q651.0851,289.3444 649.757,287.7038 Q648.4445,286.0475 648.4445,282.9225 Q648.4445,279.7975 649.757,278.1413 Q651.0851,276.485 653.5851,276.485 Q654.2882,276.485 654.9288,276.6413 Q655.5851,276.7975 656.1476,277.0944 L656.1476,279.8131 Q655.5226,279.235 654.9288,278.9694 Q654.3351,278.6881 653.7101,278.6881 Q652.3663,278.6881 651.6788,279.7663 Q650.9913,280.8288 650.9913,282.9225 Q650.9913,285.0163 651.6788,286.0944 Q652.3663,287.1569 653.7101,287.1569 Q654.3351,287.1569 654.9288,286.8913 Q655.5226,286.61 656.1476,286.0319 L656.1476,288.7506 Z " fill="#000000"/><text fill="#000000" font-family="sans-serif" font-size="14" lengthAdjust="spacing" textLength="166.6328" x="673.6788" y="287.9567">HealthcareService_type</text><line style="stroke:#181818;stroke-width:0.5;" x1="474.11" x2="1007.3805" y1="299.11" y2="299.11"/><ellipse cx="484.11" cy="312.7584" fill="none" rx="3" ry="3" style="stroke:#038048;stroke-width:1.0;"/><text fill="#000000" font-family="sans-serif" font-size="14" lengthAdjust="spacing" textLength="372.2646" x="493.11" y="316.1051">offizin-apotheke                                Offizin-Apotheke</text><ellipse cx="484.11" cy="329.0553" fill="none" rx="3" ry="3" style="stroke:#038048;stroke-width:1.0;"/><text fill="#000000" font-family="sans-serif" font-size="14" lengthAdjust="spacing" textLength="509.2705" x="493.11" y="332.402">krankenhausversorgende-apotheke  Krankenhausversorgende Apotheke</text><ellipse cx="484.11" cy="345.3522" fill="none" rx="3" ry="3" style="stroke:#038048;stroke-width:1.0;"/><text fill="#000000" font-family="sans-serif" font-size="14" lengthAdjust="spacing" textLength="411.2158" x="493.11" y="348.6989">bundeswehrapotheke                        Bundeswehrapotheke</text><ellipse cx="484.11" cy="361.6491" fill="none" rx="3" ry="3" style="stroke:#038048;stroke-width:1.0;"/><text fill="#000000" font-family="sans-serif" font-size="14" lengthAdjust="spacing" textLength="452.2246" x="493.11" y="364.9957">heimversorgende-apotheke              Heimversorgende Apotheke</text><ellipse cx="484.11" cy="377.9459" fill="none" rx="3" ry="3" style="stroke:#038048;stroke-width:1.0;"/><text fill="#000000" font-family="sans-serif" font-size="14" lengthAdjust="spacing" textLength="378.8271" x="493.11" y="381.2926">versandapotheke                              Versandapotheke</text><ellipse cx="484.11" cy="394.2428" fill="none" rx="3" ry="3" style="stroke:#038048;stroke-width:1.0;"/><text fill="#000000" font-family="sans-serif" font-size="14" lengthAdjust="spacing" textLength="367.5137" x="493.11" y="397.5895">sterilherstellung                               Sterilherstellung</text><line style="stroke:#181818;stroke-width:0.5;" x1="474.11" x2="1007.3805" y1="404.8913" y2="404.8913"/></g><!--class Organization_type--><g id="elem_Organization_type"><rect codeLine="44" fill="#F1F1F1" height="96.8906" id="Organization_type" rx="2.5" ry="2.5" style="stroke:#181818;stroke-width:0.5;" width="325.7354" x="1043.88" y="291.55"/><ellipse cx="1138.486" cy="307.55" fill="#ADD1B2" rx="11" ry="11" style="stroke:#181818;stroke-width:1.0;"/><path d="M1141.4547,313.1906 Q1140.8766,313.4875 1140.236,313.6281 Q1139.5953,313.7844 1138.8922,313.7844 Q1136.3922,313.7844 1135.0641,312.1437 Q1133.7516,310.4875 1133.7516,307.3625 Q1133.7516,304.2375 1135.0641,302.5812 Q1136.3922,300.925 1138.8922,300.925 Q1139.5953,300.925 1140.236,301.0812 Q1140.8922,301.2375 1141.4547,301.5344 L1141.4547,304.2531 Q1140.8297,303.675 1140.236,303.4094 Q1139.6422,303.1281 1139.0172,303.1281 Q1137.6735,303.1281 1136.986,304.2062 Q1136.2985,305.2687 1136.2985,307.3625 Q1136.2985,309.4562 1136.986,310.5344 Q1137.6735,311.5969 1139.0172,311.5969 Q1139.6422,311.5969 1140.236,311.3312 Q1140.8297,311.05 1141.4547,310.4719 L1141.4547,313.1906 Z " fill="#000000"/><text fill="#000000" font-family="sans-serif" font-size="14" lengthAdjust="spacing" textLength="128.0234" x="1158.986" y="312.3967">Organization_type</text><line style="stroke:#181818;stroke-width:0.5;" x1="1044.88" x2="1368.6154" y1="323.55" y2="323.55"/><ellipse cx="1054.88" cy="337.1984" fill="none" rx="3" ry="3" style="stroke:#038048;stroke-width:1.0;"/><text fill="#000000" font-family="sans-serif" font-size="14" lengthAdjust="spacing" textLength="124.6807" x="1063.88" y="340.5451">1.2.276.0.76.4.54</text><text fill="#000000" font-family="sans-serif" font-size="14" lengthAdjust="spacing" textLength="147.9912" x="1206.2862" y="340.5451">&#214;ffentliche Apotheke</text><ellipse cx="1054.88" cy="353.4953" fill="none" rx="3" ry="3" style="stroke:#038048;stroke-width:1.0;"/><text fill="#000000" font-family="sans-serif" font-size="14" lengthAdjust="spacing" textLength="124.6807" x="1063.88" y="356.842">1.2.276.0.76.4.55</text><text fill="#000000" font-family="sans-serif" font-size="14" lengthAdjust="spacing" textLength="157.3291" x="1206.2862" y="356.842">Krankenhausapotheke</text><ellipse cx="1054.88" cy="369.7922" fill="none" rx="3" ry="3" style="stroke:#038048;stroke-width:1.0;"/><text fill="#000000" font-family="sans-serif" font-size="14" lengthAdjust="spacing" textLength="124.6807" x="1063.88" y="373.1389">1.2.276.0.76.4.56</text><text fill="#000000" font-family="sans-serif" font-size="14" lengthAdjust="spacing" textLength="152.5645" x="1206.2862" y="373.1389">Bundeswehrapotheke</text><line style="stroke:#181818;stroke-width:0.5;" x1="1044.88" x2="1368.6154" y1="380.4406" y2="380.4406"/></g><!--class HealthcareService_characteristic--><g id="elem_HealthcareService_characteristic"><rect codeLine="50" fill="#F1F1F1" height="178.375" id="HealthcareService_characteristic" rx="2.5" ry="2.5" style="stroke:#181818;stroke-width:0.5;" width="497.208" x="1412.25" y="251"/><ellipse cx="1541.2749" cy="267" fill="#ADD1B2" rx="11" ry="11" style="stroke:#181818;stroke-width:1.0;"/><path d="M1544.2437,272.6406 Q1543.6655,272.9375 1543.0249,273.0781 Q1542.3843,273.2344 1541.6812,273.2344 Q1539.1812,273.2344 1537.853,271.5938 Q1536.5405,269.9375 1536.5405,266.8125 Q1536.5405,263.6875 1537.853,262.0313 Q1539.1812,260.375 1541.6812,260.375 Q1542.3843,260.375 1543.0249,260.5313 Q1543.6812,260.6875 1544.2437,260.9844 L1544.2437,263.7031 Q1543.6187,263.125 1543.0249,262.8594 Q1542.4312,262.5781 1541.8062,262.5781 Q1540.4624,262.5781 1539.7749,263.6563 Q1539.0874,264.7188 1539.0874,266.8125 Q1539.0874,268.9063 1539.7749,269.9844 Q1540.4624,271.0469 1541.8062,271.0469 Q1542.4312,271.0469 1543.0249,270.7813 Q1543.6187,270.5 1544.2437,269.9219 L1544.2437,272.6406 Z " fill="#000000"/><text fill="#000000" font-family="sans-serif" font-size="14" lengthAdjust="spacing" textLength="230.6582" x="1561.7749" y="271.8467">HealthcareService_characteristic</text><line style="stroke:#181818;stroke-width:0.5;" x1="1413.25" x2="1908.458" y1="283" y2="283"/><ellipse cx="1423.25" cy="296.6484" fill="none" rx="3" ry="3" style="stroke:#038048;stroke-width:1.0;"/><text fill="#000000" font-family="sans-serif" font-size="14" lengthAdjust="spacing" textLength="382.2725" x="1432.25" y="299.9951">erx-token-receiver                        eRX_Token_Receiver</text><ellipse cx="1423.25" cy="312.9453" fill="none" rx="3" ry="3" style="stroke:#038048;stroke-width:1.0;"/><text fill="#000000" font-family="sans-serif" font-size="14" lengthAdjust="spacing" textLength="471.208" x="1432.25" y="316.292">apotheke-verfuegbarkeitsanfrage Apotheke_Verf&#252;gbarkeitsanfrage</text><ellipse cx="1423.25" cy="329.2422" fill="none" rx="3" ry="3" style="stroke:#038048;stroke-width:1.0;"/><text fill="#000000" font-family="sans-serif" font-size="14" lengthAdjust="spacing" textLength="432.8447" x="1432.25" y="332.5889">apotheken-ident-verfahren           Apotheken_Ident_Verfahren</text><ellipse cx="1423.25" cy="345.5391" fill="none" rx="3" ry="3" style="stroke:#038048;stroke-width:1.0;"/><text fill="#000000" font-family="sans-serif" font-size="14" lengthAdjust="spacing" textLength="346.5615" x="1432.25" y="348.8857">terminbuchung                             Terminbuchung</text><rect fill="none" height="6" style="stroke:#C82930;stroke-width:1.0;" width="6" x="1420.25" y="358.8359"/><text fill="#000000" font-family="sans-serif" font-size="14" lengthAdjust="spacing" textLength="349.6104" x="1432.25" y="365.1826">parkmoeglichkeit                          Parkm&#246;glichkeit</text><rect fill="none" height="6" style="stroke:#C82930;stroke-width:1.0;" width="6" x="1420.25" y="375.1328"/><text fill="#000000" font-family="sans-serif" font-size="14" lengthAdjust="spacing" textLength="367.6504" x="1432.25" y="381.4795">oepnv                                           &#214;PNV_in_der_N&#228;he</text><rect fill="none" height="6" style="stroke:#C82930;stroke-width:1.0;" width="6" x="1420.25" y="391.4297"/><text fill="#000000" font-family="sans-serif" font-size="14" lengthAdjust="spacing" textLength="314.5488" x="1432.25" y="397.7764">barrierefrei                                   Barrierefrei</text><rect fill="none" height="6" style="stroke:#C82930;stroke-width:1.0;" width="6" x="1420.25" y="407.7266"/><text fill="#000000" font-family="sans-serif" font-size="14" lengthAdjust="spacing" textLength="330.5176" x="1432.25" y="414.0732">abholautomat                              Abholautomat</text><line style="stroke:#181818;stroke-width:0.5;" x1="1413.25" x2="1908.458" y1="421.375" y2="421.375"/></g><!--class Endpoint--><g id="elem_Endpoint"><rect codeLine="61" fill="#F1F1F1" height="96.8906" id="Endpoint" rx="2.5" ry="2.5" style="stroke:#181818;stroke-width:0.5;" width="137.4736" x="1772.25" y="712"/><ellipse cx="1806.6738" cy="728" fill="#ADD1B2" rx="11" ry="11" style="stroke:#181818;stroke-width:1.0;"/><path d="M1809.6426,733.6406 Q1809.0645,733.9375 1808.4238,734.0781 Q1807.7832,734.2344 1807.0801,734.2344 Q1804.5801,734.2344 1803.252,732.5938 Q1801.9395,730.9375 1801.9395,727.8125 Q1801.9395,724.6875 1803.252,723.0313 Q1804.5801,721.375 1807.0801,721.375 Q1807.7832,721.375 1808.4238,721.5313 Q1809.0801,721.6875 1809.6426,721.9844 L1809.6426,724.7031 Q1809.0176,724.125 1808.4238,723.8594 Q1807.8301,723.5781 1807.2051,723.5781 Q1805.8613,723.5781 1805.1738,724.6563 Q1804.4863,725.7188 1804.4863,727.8125 Q1804.4863,729.9063 1805.1738,730.9844 Q1805.8613,732.0469 1807.2051,732.0469 Q1807.8301,732.0469 1808.4238,731.7813 Q1809.0176,731.5 1809.6426,730.9219 L1809.6426,733.6406 Z " fill="#000000"/><text fill="#000000" font-family="sans-serif" font-size="14" lengthAdjust="spacing" textLength="62.3096" x="1824.9902" y="732.8467">Endpoint</text><line style="stroke:#181818;stroke-width:0.5;" x1="1773.25" x2="1908.7236" y1="744" y2="744"/><ellipse cx="1783.25" cy="757.6484" fill="none" rx="3" ry="3" style="stroke:#038048;stroke-width:1.0;"/><text fill="#000000" font-family="sans-serif" font-size="14" lengthAdjust="spacing" textLength="111.4736" x="1792.25" y="760.9951">connectionType</text><ellipse cx="1783.25" cy="773.9453" fill="none" rx="3" ry="3" style="stroke:#038048;stroke-width:1.0;"/><text fill="#000000" font-family="sans-serif" font-size="14" lengthAdjust="spacing" textLength="90.0088" x="1792.25" y="777.292">payloadType</text><ellipse cx="1783.25" cy="790.2422" fill="none" rx="3" ry="3" style="stroke:#038048;stroke-width:1.0;"/><text fill="#000000" font-family="sans-serif" font-size="14" lengthAdjust="spacing" textLength="55.3096" x="1792.25" y="793.5889">address</text><line style="stroke:#181818;stroke-width:0.5;" x1="1773.25" x2="1908.7236" y1="800.8906" y2="800.8906"/></g><!--class ApoVZD_Mehrwertdaten--><g id="elem_ApoVZD_Mehrwertdaten"><rect codeLine="71" fill="#F1F1F1" height="113.1875" id="ApoVZD_Mehrwertdaten" rx="2.5" ry="2.5" style="stroke:#181818;stroke-width:0.5;" width="264.834" x="1833.75" y="46"/><ellipse cx="1876.5533" cy="62" fill="#ADD1B2" rx="11" ry="11" style="stroke:#181818;stroke-width:1.0;"/><path d="M1879.5221,67.6406 Q1878.9439,67.9375 1878.3033,68.0781 Q1877.6627,68.2344 1876.9596,68.2344 Q1874.4596,68.2344 1873.1314,66.5938 Q1871.8189,64.9375 1871.8189,61.8125 Q1871.8189,58.6875 1873.1314,57.0313 Q1874.4596,55.375 1876.9596,55.375 Q1877.6627,55.375 1878.3033,55.5313 Q1878.9596,55.6875 1879.5221,55.9844 L1879.5221,58.7031 Q1878.8971,58.125 1878.3033,57.8594 Q1877.7096,57.5781 1877.0846,57.5781 Q1875.7408,57.5781 1875.0533,58.6563 Q1874.3658,59.7188 1874.3658,61.8125 Q1874.3658,63.9063 1875.0533,64.9844 Q1875.7408,66.0469 1877.0846,66.0469 Q1877.7096,66.0469 1878.3033,65.7813 Q1878.8971,65.5 1879.5221,64.9219 L1879.5221,67.6406 Z " fill="#000000"/><text fill="#000000" font-family="sans-serif" font-size="14" lengthAdjust="spacing" textLength="171.0488" x="1896.7318" y="66.8467">ApoVZD_Mehrwertdaten</text><line style="stroke:#181818;stroke-width:0.5;" x1="1834.75" x2="2097.584" y1="78" y2="78"/><ellipse cx="1844.75" cy="91.6484" fill="none" rx="3" ry="3" style="stroke:#038048;stroke-width:1.0;"/><text fill="#000000" font-family="sans-serif" font-size="14" lengthAdjust="spacing" textLength="124.0791" x="1853.75" y="94.9951">Apotheke_PHARM</text><ellipse cx="1844.75" cy="107.9453" fill="none" rx="3" ry="3" style="stroke:#038048;stroke-width:1.0;"/><text fill="#000000" font-family="sans-serif" font-size="14" lengthAdjust="spacing" textLength="235.792" x="1853.75" y="111.292">Apotheke_mit_Offizin_OUTPHARM</text><ellipse cx="1844.75" cy="124.2422" fill="none" rx="3" ry="3" style="stroke:#038048;stroke-width:1.0;"/><text fill="#000000" font-family="sans-serif" font-size="14" lengthAdjust="spacing" textLength="170.8096" x="1853.75" y="127.5889">Versandapotheke_MOBL</text><ellipse cx="1844.75" cy="140.5391" fill="none" rx="3" ry="3" style="stroke:#038048;stroke-width:1.0;"/><text fill="#000000" font-family="sans-serif" font-size="14" lengthAdjust="spacing" textLength="238.834" x="1853.75" y="143.8857">eRX_Token_Receiver_DELEGATOR</text><line style="stroke:#181818;stroke-width:0.5;" x1="1834.75" x2="2097.584" y1="151.1875" y2="151.1875"/></g><!--class ApoVZD_Location_telecom--><g id="elem_ApoVZD_Location_telecom"><rect codeLine="78" fill="#F1F1F1" height="96.8906" id="ApoVZD_Location_telecom" rx="2.5" ry="2.5" style="stroke:#181818;stroke-width:0.5;" width="218.9424" x="2148.75" y="54.5"/><ellipse cx="2163.75" cy="70.5" fill="#ADD1B2" rx="11" ry="11" style="stroke:#181818;stroke-width:1.0;"/><path d="M2166.7188,76.1406 Q2166.1406,76.4375 2165.5,76.5781 Q2164.8594,76.7344 2164.1563,76.7344 Q2161.6563,76.7344 2160.3281,75.0938 Q2159.0156,73.4375 2159.0156,70.3125 Q2159.0156,67.1875 2160.3281,65.5313 Q2161.6563,63.875 2164.1563,63.875 Q2164.8594,63.875 2165.5,64.0313 Q2166.1563,64.1875 2166.7188,64.4844 L2166.7188,67.2031 Q2166.0938,66.625 2165.5,66.3594 Q2164.9063,66.0781 2164.2813,66.0781 Q2162.9375,66.0781 2162.25,67.1563 Q2161.5625,68.2188 2161.5625,70.3125 Q2161.5625,72.4063 2162.25,73.4844 Q2162.9375,74.5469 2164.2813,74.5469 Q2164.9063,74.5469 2165.5,74.2813 Q2166.0938,74 2166.7188,73.4219 L2166.7188,76.1406 Z " fill="#000000"/><text fill="#000000" font-family="sans-serif" font-size="14" lengthAdjust="spacing" textLength="186.9424" x="2177.75" y="75.3467">ApoVZD_Location_telecom</text><line style="stroke:#181818;stroke-width:0.5;" x1="2149.75" x2="2366.6924" y1="86.5" y2="86.5"/><ellipse cx="2159.75" cy="100.1484" fill="none" rx="3" ry="3" style="stroke:#038048;stroke-width:1.0;"/><text fill="#000000" font-family="sans-serif" font-size="14" lengthAdjust="spacing" textLength="108.459" x="2168.75" y="103.4951">onPremise_URL</text><ellipse cx="2159.75" cy="116.4453" fill="none" rx="3" ry="3" style="stroke:#038048;stroke-width:1.0;"/><text fill="#000000" font-family="sans-serif" font-size="14" lengthAdjust="spacing" textLength="90.9932" x="2168.75" y="119.792">delivery_URL</text><ellipse cx="2159.75" cy="132.7422" fill="none" rx="3" ry="3" style="stroke:#038048;stroke-width:1.0;"/><text fill="#000000" font-family="sans-serif" font-size="14" lengthAdjust="spacing" textLength="100.9736" x="2168.75" y="136.0889">shipment_URP</text><line style="stroke:#181818;stroke-width:0.5;" x1="2149.75" x2="2366.6924" y1="143.3906" y2="143.3906"/></g><!--link specialization to HealthcareService_type--><g id="link_specialization_HealthcareService_type"><path codeLine="87" d="M642.81,162.93 C660.39,194.54 679.2333,228.4066 697.7733,261.7366 " fill="none" id="specialization-to-HealthcareService_type" style="stroke:#FF0000;stroke-width:4.0;"/><polygon fill="#FF0000" points="700.69,266.98,699.8106,257.1705,698.2594,262.6105,692.8194,261.0594,700.69,266.98" style="stroke:#FF0000;stroke-width:4.0;"/></g><!--link professionOID to Organization_type--><g id="link_professionOID_Organization_type"><path codeLine="88" d="M1016.4,151.44 C1057.76,192.19 1112.5559,246.189 1153.8959,286.919 " fill="none" id="professionOID-to-Organization_type" style="stroke:#FF0000;stroke-width:4.0;"/><polygon fill="#FF0000" points="1158.17,291.13,1154.5662,281.9641,1154.6083,287.6208,1148.9516,287.6629,1158.17,291.13" style="stroke:#FF0000;stroke-width:4.0;"/></g><!--link specialization to HealthcareService_specialty--><g id="link_specialization_HealthcareService_specialty"><path codeLine="89" d="M456.75,90 C412.23,90 466.59,159.28 431.75,187 C418.27,197.73 133.77,182.66 121.75,195 C6,313.78 36.4,558 202.25,558 " fill="none" id="specialization-to-HealthcareService_specialty" style="stroke:#008000;stroke-width:1.0;"/><polygon fill="#008000" points="208.25,558,199.25,554,203.25,558,199.25,562,208.25,558" style="stroke:#008000;stroke-width:1.0;"/></g><!--link specialization to HealthcareService_specialty--><g id="link_specialization_HealthcareService_specialty"><path codeLine="90" d="M456.75,138 C432.3,138 452.15,173.53 431.75,187 C385.66,217.45 221.45,163.63 183.75,204 C122.67,269.41 112.75,606 202.25,606 " fill="none" id="specialization-to-HealthcareService_specialty-1" style="stroke:#0000FF;stroke-width:1.0;"/><polygon fill="#0000FF" points="208.25,606,199.25,602,203.25,606,199.25,610,208.25,606" style="stroke:#0000FF;stroke-width:1.0;"/></g><!--link ApoVZD_Mehrwertdaten to HealthcareService_specialty--><g id="link_ApoVZD_Mehrwertdaten_HealthcareService_specialty"><path codeLine="93" d="M2098.75,106 C2124.09,106 2112.23,142.21 2097.75,163 C2075.4,195.11 2042.8,166.73 2015.75,195 C1938.5,275.73 2022.81,364.22 1934.75,433 C1803.34,535.64 612,558 445.25,558 " fill="none" id="ApoVZD_Mehrwertdaten-to-HealthcareService_specialty" style="stroke:#008000;stroke-width:1.0;"/><polygon fill="#008000" points="439.25,558,448.25,562,444.25,558,448.25,554,439.25,558" style="stroke:#008000;stroke-width:1.0;"/></g><!--link ApoVZD_Mehrwertdaten to HealthcareService_specialty--><g id="link_ApoVZD_Mehrwertdaten_HealthcareService_specialty"><path codeLine="94" d="M2098.75,122 C2116.98,122 2101.21,145.1 2097.75,163 C2096.23,170.86 2002.57,427.5 1996.75,433 C1945.67,481.28 1914.7,466.34 1845.75,480 C1230.1,601.95 1072.86,606 445.25,606 " fill="none" id="ApoVZD_Mehrwertdaten-to-HealthcareService_specialty-1" style="stroke:#0000FF;stroke-width:1.0;"/><polygon fill="#0000FF" points="439.25,606,448.25,610,444.25,606,448.25,602,439.25,606" style="stroke:#0000FF;stroke-width:1.0;"/></g><!--link ApoVZD_Mehrwertdaten to HealthcareService_characteristic--><g id="link_ApoVZD_Mehrwertdaten_HealthcareService_characteristic"><path codeLine="95" d="M1832.75,138 C1821.63,138 1829.56,152.7 1833.75,163 C1852.65,209.5 1890.79,200.32 1909.25,247 C1917.1,266.84 1937.59,295 1916.25,295 " fill="none" id="ApoVZD_Mehrwertdaten-to-HealthcareService_characteristic" style="stroke:#A0522D;stroke-width:1.0;"/><polygon fill="#A0522D" points="1910.25,295,1919.25,299,1915.25,295,1919.25,291,1910.25,295" style="stroke:#A0522D;stroke-width:1.0;"/></g><!--link ApoVZD_Location_telecom to Endpoint--><g id="link_ApoVZD_Location_telecom_Endpoint"><path codeLine="98" d="M2147.75,98.5 C2122.86,98.5 2145.99,129.76 2148.75,154.5 C2165.11,301.03 2238.98,334.91 2212.75,480 C2178.62,668.81 2108.12,788 1916.25,788 " fill="none" id="ApoVZD_Location_telecom-to-Endpoint" style="stroke:#000000;stroke-width:1.0;"/><polygon fill="#000000" points="1910.25,788,1919.25,792,1915.25,788,1919.25,784,1910.25,788" style="stroke:#000000;stroke-width:1.0;"/><text fill="#000000" font-family="sans-serif" font-size="13" lengthAdjust="spacing" textLength="25.7905" x="2215.75" y="476.0669">URL</text></g><!--link ApoVZD_Location_telecom to Endpoint--><g id="link_ApoVZD_Location_telecom_Endpoint"><path codeLine="99" d="M2147.75,98.5 C2142.97,98.5 2067.37,428.5 2065.75,433 C2011.94,582.96 2075.58,756 1916.25,756 " fill="none" id="ApoVZD_Location_telecom-to-Endpoint-1" style="stroke:#000000;stroke-width:1.0;"/><polygon fill="#000000" points="1910.25,756,1919.25,760,1915.25,756,1919.25,752,1910.25,756" style="stroke:#000000;stroke-width:1.0;"/><text fill="#000000" font-family="sans-serif" font-size="13" lengthAdjust="spacing" textLength="97.9824" x="2056.75" y="476.0669">eRP-onPremise</text></g><!--link ApoVZD_Location_telecom to Endpoint--><g id="link_ApoVZD_Location_telecom_Endpoint"><path codeLine="100" d="M2367.75,98.5 C2414.08,98.5 2595.64,114.82 2209.75,647 C2147.07,733.44 2032.13,772 1916.25,772 " fill="none" id="ApoVZD_Location_telecom-to-Endpoint-2" style="stroke:#000000;stroke-width:1.0;"/><polygon fill="#000000" points="1910.25,772,1919.25,776,1915.25,772,1919.25,768,1910.25,772" style="stroke:#000000;stroke-width:1.0;"/><text fill="#000000" font-family="sans-serif" font-size="13" lengthAdjust="spacing" textLength="92.6504" x="2333.75" y="476.0669">not-applicable</text></g><!--link HealthcareService_type to Endpoint--><!--SRC=[pLRDRkCs43v7Jq5a3psaCjmqsGM4RG2dpjP1azXmdA3eOa7GrCWYB942HIVr5liQ-mJx33trvXVhK9Aj7qlUOB67wc30m-77cVa-pZ1XVCaMG8vlXeC9UVnpU4pUldsdMGmN5-HL91QXMMW0IVvsUCJIbAG9SC4YyP4PeQpvXFpKf-CW45n8EaYK2M49Q3tjqzyraqkG8LkbJw1JfHSWVQWw_Tod8n1nn-fPdpxY2fC-Auo4E9ySXn2f39080aDKq0W9LyaaP3fcV3rR9s0J-_KUhOYUxSFzUIg9LW6aAUuPNmyn4zo8oVHEUwTlNlVwFVmvwvsV7Mq-1m584maU0jb5r-fyVbH9cHrqVNrqkS9qqsS8TSNpavEdc6nvUJUwdhRpieOeKiysxZoT4R38X9nfk0Vz93ZGeZ1cdIMN4JN2OcArbsmLP2PawOxnq50CXjufumkGgScMa9jBB9Uic4f2ih_dVNflG8ieHAF1S5PoGHnICcHKOWaw49bJabNnAWWrwnfnM9dkN0rINQIfK8mVXNHBqHp-neL_XTiJicpLRWMpNTmxWHnbAFCzZhk2Q5N32GdhjwCZfyOT8hLCdffNwD3Nk6yPGBh7yU5lJnEv97Bcndh1P75LIzB-9nUlKrqSDSgupIirWcz31lsNQnIUwchW8B3GNIM1wHzqPZtfjF3C4RO1k6W9Lh2OCxq4OP22GDlhlytQNhjWyszplGuYNU5ZlJ8i5cfiskMt1PBqslfaU9bF3e6PnKBELppy6hspggVTx984WueLB2nHDhhkpHFhkVdd1PwM38kj895FvENVvlFaxf7Y9F91qxlDbn1o72oS5g0Xq21U07DPSSy1s3nK4LiP5JDpUE-Wufa92tzoNLr9Fr52cgr-k98IkBq9Tb3bjeIj8yNyqi1yN-EKsY9LXmEIYfDXRp3CenMKOo5tehSezsVGncScc-OMUgUkoMWmlQsROc5eqHZf-65MUZGw1BqTNzva2_iQfyEhcwlV1hFnjDe1Ye1k52-Q04J0LRnjtdAY8HOfq8TfZkj3PC7MEqCQYYIs8dwOJX2O55NvWMHlcA5Dq6ayKzpthpJuFvfGyAN4Qlvozi6zw9WYJlrTqBvrhuqrJlIybbUHnSfUK-s7xuPYjhawgPlORGyZnBR4VnMwCiEnP8M4QkfmsYJZUGUbySsfjP_L9h9loR0T_P1IxIdt-EAHhFsS-YHemx9bBU5GjAdJ8NdFgwazJn3lzWTjhp4UlsqOdbTq0U9PmE-0Lsyz27iCqucxstxy7OweT3ABZoyuVBqasFhPFC83x7rbQxKoJiTZpdqV2j-tYgh0Ely1]--></g></svg>