<svg xmlns="http://www.w3.org/2000/svg" xmlns:xlink="http://www.w3.org/1999/xlink" contentStyleType="text/css" height="620px" preserveAspectRatio="none" style="width:898px;height:620px;background:#FFFFFF;" version="1.1" viewBox="0 0 898 620" width="898px" zoomAndPan="magnify"><defs/><g><!--class Practitioner--><g id="elem_Practitioner"><rect codeLine="2" fill="#F1F1F1" height="129.4844" id="Practitioner" rx="2.5" ry="2.5" style="stroke:#181818;stroke-width:0.5;" width="228" x="427.5" y="7"/><ellipse cx="498.25" cy="23" fill="#ADD1B2" rx="11" ry="11" style="stroke:#181818;stroke-width:1.0;"/><path d="M501.2188,28.6406 Q500.6406,28.9375 500,29.0781 Q499.3594,29.2344 498.6563,29.2344 Q496.1563,29.2344 494.8281,27.5938 Q493.5156,25.9375 493.5156,22.8125 Q493.5156,19.6875 494.8281,18.0313 Q496.1563,16.375 498.6563,16.375 Q499.3594,16.375 500,16.5313 Q500.6563,16.6875 501.2188,16.9844 L501.2188,19.7031 Q500.5938,19.125 500,18.8594 Q499.4063,18.5781 498.7813,18.5781 Q497.4375,18.5781 496.75,19.6563 Q496.0625,20.7188 496.0625,22.8125 Q496.0625,24.9063 496.75,25.9844 Q497.4375,27.0469 498.7813,27.0469 Q499.4063,27.0469 500,26.7813 Q500.5938,26.5 501.2188,25.9219 L501.2188,28.6406 Z " fill="#000000"/><text fill="#000000" font-family="sans-serif" font-size="14" lengthAdjust="spacing" textLength="78" x="518.75" y="27.8467">Practitioner</text><line style="stroke:#181818;stroke-width:0.5;" x1="428.5" x2="654.5" y1="39" y2="39"/><text fill="#000000" font-family="sans-serif" font-size="14" lengthAdjust="spacing" textLength="170" x="433.5" y="55.9951">identifier (1..*, MS, LDAP)</text><text fill="#000000" font-family="sans-serif" font-size="14" lengthAdjust="spacing" textLength="153" x="433.5" y="72.292">active (1..1, MS, LDAP)</text><text fill="#000000" font-family="sans-serif" font-size="14" lengthAdjust="spacing" textLength="150" x="433.5" y="88.5889">name (1..*, MS, LDAP)</text><text fill="#000000" font-family="sans-serif" font-size="14" lengthAdjust="spacing" textLength="192" x="433.5" y="104.8857">qualification (0..*, MS, LDAP)</text><text fill="#000000" font-family="sans-serif" font-size="14" lengthAdjust="spacing" textLength="216" x="433.5" y="121.1826">meta.tag.origin (1..1, MS, LDAP)</text><line style="stroke:#181818;stroke-width:0.5;" x1="428.5" x2="654.5" y1="128.4844" y2="128.4844"/></g><!--class PractitionerRole--><g id="elem_PractitionerRole"><rect codeLine="10" fill="#F1F1F1" height="178.375" id="PractitionerRole" rx="2.5" ry="2.5" style="stroke:#181818;stroke-width:0.5;" width="597" x="37" y="196.48"/><ellipse cx="276.75" cy="212.48" fill="#ADD1B2" rx="11" ry="11" style="stroke:#181818;stroke-width:1.0;"/><path d="M279.7188,218.1206 Q279.1406,218.4175 278.5,218.5581 Q277.8594,218.7144 277.1563,218.7144 Q274.6563,218.7144 273.3281,217.0738 Q272.0156,215.4175 272.0156,212.2925 Q272.0156,209.1675 273.3281,207.5113 Q274.6563,205.855 277.1563,205.855 Q277.8594,205.855 278.5,206.0113 Q279.1563,206.1675 279.7188,206.4644 L279.7188,209.1831 Q279.0938,208.605 278.5,208.3394 Q277.9063,208.0581 277.2813,208.0581 Q275.9375,208.0581 275.25,209.1363 Q274.5625,210.1988 274.5625,212.2925 Q274.5625,214.3863 275.25,215.4644 Q275.9375,216.5269 277.2813,216.5269 Q277.9063,216.5269 278.5,216.2613 Q279.0938,215.98 279.7188,215.4019 L279.7188,218.1206 Z " fill="#000000"/><text fill="#000000" font-family="sans-serif" font-size="14" lengthAdjust="spacing" textLength="109" x="297.25" y="217.3267">PractitionerRole</text><line style="stroke:#181818;stroke-width:0.5;" x1="38" x2="633" y1="228.48" y2="228.48"/><text fill="#000000" font-family="sans-serif" font-size="14" lengthAdjust="spacing" textLength="126" x="43" y="245.4751">identifier (1..*, MS)</text><text fill="#000000" font-family="sans-serif" font-size="14" lengthAdjust="spacing" textLength="191" x="43" y="261.772">practitioner (1..1, MS, LDAP)</text><text fill="#000000" font-family="sans-serif" font-size="14" lengthAdjust="spacing" textLength="165" x="43" y="278.0689">location (0..*, MS, LDAP)</text><text fill="#000000" font-family="sans-serif" font-size="14" lengthAdjust="spacing" textLength="129" x="43" y="294.3657">endpoint (0..*, MS)</text><text fill="#000000" font-family="sans-serif" font-size="14" lengthAdjust="spacing" textLength="216" x="43" y="310.6626">meta.tag.origin (1..1, MS, LDAP)</text><text fill="#000000" font-family="sans-serif" font-size="14" lengthAdjust="spacing" textLength="219" x="43" y="326.9595">meta.security.ownerId (1..*, MS)</text><text fill="#000000" font-family="sans-serif" font-size="14" lengthAdjust="spacing" textLength="252" x="43" y="343.2564">meta.security.holder (1..*, MS, LDAP)</text><text fill="#000000" font-family="sans-serif" font-size="14" lengthAdjust="spacing" textLength="585" x="43" y="359.5532">healthcareService (0..*, MS, OWNER) (geplant f&#252;r Verkn&#252;pfung mit HealthcareService)</text><line style="stroke:#181818;stroke-width:0.5;" x1="38" x2="633" y1="366.855" y2="366.855"/></g><!--class Endpoint--><g id="elem_Endpoint"><rect codeLine="21" fill="#F1F1F1" height="178.375" id="Endpoint" rx="2.5" ry="2.5" style="stroke:#181818;stroke-width:0.5;" width="231" x="7" y="434.85"/><ellipse cx="87.25" cy="450.85" fill="#ADD1B2" rx="11" ry="11" style="stroke:#181818;stroke-width:1.0;"/><path d="M90.2188,456.4906 Q89.6406,456.7875 89,456.9281 Q88.3594,457.0844 87.6563,457.0844 Q85.1563,457.0844 83.8281,455.4438 Q82.5156,453.7875 82.5156,450.6625 Q82.5156,447.5375 83.8281,445.8813 Q85.1563,444.225 87.6563,444.225 Q88.3594,444.225 89,444.3813 Q89.6563,444.5375 90.2188,444.8344 L90.2188,447.5531 Q89.5938,446.975 89,446.7094 Q88.4063,446.4281 87.7813,446.4281 Q86.4375,446.4281 85.75,447.5063 Q85.0625,448.5688 85.0625,450.6625 Q85.0625,452.7563 85.75,453.8344 Q86.4375,454.8969 87.7813,454.8969 Q88.4063,454.8969 89,454.6313 Q89.5938,454.35 90.2188,453.7719 L90.2188,456.4906 Z " fill="#000000"/><text fill="#000000" font-family="sans-serif" font-size="14" lengthAdjust="spacing" textLength="62" x="107.75" y="455.6967">Endpoint</text><line style="stroke:#181818;stroke-width:0.5;" x1="8" x2="237" y1="466.85" y2="466.85"/><text fill="#000000" font-family="sans-serif" font-size="14" lengthAdjust="spacing" textLength="126" x="13" y="483.8451">identifier (1..*, MS)</text><text fill="#000000" font-family="sans-serif" font-size="14" lengthAdjust="spacing" textLength="179" x="13" y="500.142">connectionType (0..*, MS)</text><text fill="#000000" font-family="sans-serif" font-size="14" lengthAdjust="spacing" textLength="112" x="13" y="516.4389">status (1..1, MS)</text><text fill="#000000" font-family="sans-serif" font-size="14" lengthAdjust="spacing" textLength="108" x="13" y="532.7357">name (0..1, MS)</text><text fill="#000000" font-family="sans-serif" font-size="14" lengthAdjust="spacing" textLength="125" x="13" y="549.0326">address (1..1, MS)</text><text fill="#000000" font-family="sans-serif" font-size="14" lengthAdjust="spacing" textLength="154" x="13" y="565.3295">payloadType (1..*, MS)</text><text fill="#000000" font-family="sans-serif" font-size="14" lengthAdjust="spacing" textLength="172" x="13" y="581.6264">meta.tag.origin (1..1, MS)</text><text fill="#000000" font-family="sans-serif" font-size="14" lengthAdjust="spacing" textLength="219" x="13" y="597.9232">meta.security.ownerId (1..*, MS)</text><line style="stroke:#181818;stroke-width:0.5;" x1="8" x2="237" y1="605.225" y2="605.225"/></g><!--class Location--><g id="elem_Location"><rect codeLine="31" fill="#F1F1F1" height="96.8906" id="Location" rx="2.5" ry="2.5" style="stroke:#181818;stroke-width:0.5;" width="228" x="273.5" y="475.6"/><ellipse cx="354.25" cy="491.6" fill="#ADD1B2" rx="11" ry="11" style="stroke:#181818;stroke-width:1.0;"/><path d="M357.2188,497.2406 Q356.6406,497.5375 356,497.6781 Q355.3594,497.8344 354.6563,497.8344 Q352.1563,497.8344 350.8281,496.1938 Q349.5156,494.5375 349.5156,491.4125 Q349.5156,488.2875 350.8281,486.6313 Q352.1563,484.975 354.6563,484.975 Q355.3594,484.975 356,485.1313 Q356.6563,485.2875 357.2188,485.5844 L357.2188,488.3031 Q356.5938,487.725 356,487.4594 Q355.4063,487.1781 354.7813,487.1781 Q353.4375,487.1781 352.75,488.2563 Q352.0625,489.3188 352.0625,491.4125 Q352.0625,493.5063 352.75,494.5844 Q353.4375,495.6469 354.7813,495.6469 Q355.4063,495.6469 356,495.3813 Q356.5938,495.1 357.2188,494.5219 L357.2188,497.2406 Z " fill="#000000"/><text fill="#000000" font-family="sans-serif" font-size="14" lengthAdjust="spacing" textLength="58" x="374.75" y="496.4467">Location</text><line style="stroke:#181818;stroke-width:0.5;" x1="274.5" x2="500.5" y1="507.6" y2="507.6"/><text fill="#000000" font-family="sans-serif" font-size="14" lengthAdjust="spacing" textLength="170" x="279.5" y="524.5951">identifier (1..*, MS, LDAP)</text><text fill="#000000" font-family="sans-serif" font-size="14" lengthAdjust="spacing" textLength="169" x="279.5" y="540.892">address (0..1, MS, LDAP)</text><text fill="#000000" font-family="sans-serif" font-size="14" lengthAdjust="spacing" textLength="216" x="279.5" y="557.1889">meta.tag.origin (1..1, MS, LDAP)</text><line style="stroke:#181818;stroke-width:0.5;" x1="274.5" x2="500.5" y1="564.4906" y2="564.4906"/></g><!--class PractitionerRole_n--><g id="elem_PractitionerRole_n"><rect fill="#F1F1F1" height="48" id="PractitionerRole_n" rx="2.5" ry="2.5" style="stroke:#181818;stroke-width:0.5;" width="157" x="669" y="261.67"/><ellipse cx="684" cy="277.67" fill="#ADD1B2" rx="11" ry="11" style="stroke:#181818;stroke-width:1.0;"/><path d="M686.9688,283.3106 Q686.3906,283.6075 685.75,283.7481 Q685.1094,283.9044 684.4063,283.9044 Q681.9063,283.9044 680.5781,282.2638 Q679.2656,280.6075 679.2656,277.4825 Q679.2656,274.3575 680.5781,272.7013 Q681.9063,271.045 684.4063,271.045 Q685.1094,271.045 685.75,271.2013 Q686.4063,271.3575 686.9688,271.6544 L686.9688,274.3731 Q686.3438,273.795 685.75,273.5294 Q685.1563,273.2481 684.5313,273.2481 Q683.1875,273.2481 682.5,274.3263 Q681.8125,275.3888 681.8125,277.4825 Q681.8125,279.5763 682.5,280.6544 Q683.1875,281.7169 684.5313,281.7169 Q685.1563,281.7169 685.75,281.4513 Q686.3438,281.17 686.9688,280.5919 L686.9688,283.3106 Z " fill="#000000"/><text fill="#000000" font-family="sans-serif" font-size="14" lengthAdjust="spacing" textLength="125" x="698" y="282.5167">PractitionerRole_n</text><line style="stroke:#181818;stroke-width:0.5;" x1="670" x2="825" y1="293.67" y2="293.67"/><line style="stroke:#181818;stroke-width:0.5;" x1="670" x2="825" y1="301.67" y2="301.67"/></g><!--class Endpoint_n--><g id="elem_Endpoint_n"><rect fill="#F1F1F1" height="48" id="Endpoint_n" rx="2.5" ry="2.5" style="stroke:#181818;stroke-width:0.5;" width="110" x="640.5" y="500.04"/><ellipse cx="655.5" cy="516.04" fill="#ADD1B2" rx="11" ry="11" style="stroke:#181818;stroke-width:1.0;"/><path d="M658.4688,521.6806 Q657.8906,521.9775 657.25,522.1181 Q656.6094,522.2744 655.9063,522.2744 Q653.4063,522.2744 652.0781,520.6338 Q650.7656,518.9775 650.7656,515.8525 Q650.7656,512.7275 652.0781,511.0712 Q653.4063,509.415 655.9063,509.415 Q656.6094,509.415 657.25,509.5712 Q657.9063,509.7275 658.4688,510.0244 L658.4688,512.7431 Q657.8438,512.165 657.25,511.8994 Q656.6563,511.6181 656.0313,511.6181 Q654.6875,511.6181 654,512.6963 Q653.3125,513.7588 653.3125,515.8525 Q653.3125,517.9463 654,519.0244 Q654.6875,520.0869 656.0313,520.0869 Q656.6563,520.0869 657.25,519.8213 Q657.8438,519.54 658.4688,518.9619 L658.4688,521.6806 Z " fill="#000000"/><text fill="#000000" font-family="sans-serif" font-size="14" lengthAdjust="spacing" textLength="78" x="669.5" y="520.8867">Endpoint_n</text><line style="stroke:#181818;stroke-width:0.5;" x1="641.5" x2="749.5" y1="532.04" y2="532.04"/><line style="stroke:#181818;stroke-width:0.5;" x1="641.5" x2="749.5" y1="540.04" y2="540.04"/></g><!--class Location_n--><g id="elem_Location_n"><rect fill="#F1F1F1" height="48" id="Location_n" rx="2.5" ry="2.5" style="stroke:#181818;stroke-width:0.5;" width="106" x="785.5" y="500.04"/><ellipse cx="800.5" cy="516.04" fill="#ADD1B2" rx="11" ry="11" style="stroke:#181818;stroke-width:1.0;"/><path d="M803.4688,521.6806 Q802.8906,521.9775 802.25,522.1181 Q801.6094,522.2744 800.9063,522.2744 Q798.4063,522.2744 797.0781,520.6338 Q795.7656,518.9775 795.7656,515.8525 Q795.7656,512.7275 797.0781,511.0712 Q798.4063,509.415 800.9063,509.415 Q801.6094,509.415 802.25,509.5712 Q802.9063,509.7275 803.4688,510.0244 L803.4688,512.7431 Q802.8438,512.165 802.25,511.8994 Q801.6563,511.6181 801.0313,511.6181 Q799.6875,511.6181 799,512.6963 Q798.3125,513.7588 798.3125,515.8525 Q798.3125,517.9463 799,519.0244 Q799.6875,520.0869 801.0313,520.0869 Q801.6563,520.0869 802.25,519.8213 Q802.8438,519.54 803.4688,518.9619 L803.4688,521.6806 Z " fill="#000000"/><text fill="#000000" font-family="sans-serif" font-size="14" lengthAdjust="spacing" textLength="74" x="814.5" y="520.8867">Location_n</text><line style="stroke:#181818;stroke-width:0.5;" x1="786.5" x2="890.5" y1="532.04" y2="532.04"/><line style="stroke:#181818;stroke-width:0.5;" x1="786.5" x2="890.5" y1="540.04" y2="540.04"/></g><!--reverse link Practitioner to PractitionerRole--><g id="link_Practitioner_PractitionerRole"><path codeLine="37" d="M474.949,141.2034 C456.839,159.8434 440.9,176.23 421.6,196.09 " fill="none" id="Practitioner-backto-PractitionerRole" style="stroke:#181818;stroke-width:1.0;"/><polygon fill="#181818" points="479.13,136.9,469.9896,140.5677,475.6458,140.4861,475.7274,146.1424,479.13,136.9" style="stroke:#181818;stroke-width:1.0;"/></g><!--link PractitionerRole to Endpoint--><g id="link_PractitionerRole_Endpoint"><path codeLine="38" d="M255.88,375.02 C238.4,394.43 223.8866,410.5227 206.3866,429.9427 " fill="none" id="PractitionerRole-to-Endpoint" style="stroke:#181818;stroke-width:1.0;"/><polygon fill="#181818" points="202.37,434.4,211.3664,430.3918,205.7171,430.6856,205.4234,425.0364,202.37,434.4" style="stroke:#181818;stroke-width:1.0;"/></g><!--link PractitionerRole to Location--><g id="link_PractitionerRole_Location"><path codeLine="39" d="M354.94,375.02 C362.41,408.98 369.3599,440.6003 375.6899,469.3503 " fill="none" id="PractitionerRole-to-Location" style="stroke:#181818;stroke-width:1.0;"/><polygon fill="#181818" points="376.98,475.21,378.9512,465.5604,375.9049,470.327,371.1384,467.2806,376.98,475.21" style="stroke:#181818;stroke-width:1.0;"/></g><!--reverse link Practitioner to PractitionerRole_n--><g id="link_Practitioner_PractitionerRole_n"><path codeLine="41" d="M608.0518,141.2026 C648.9018,183.2326 695.73,231.41 724.66,261.18 " fill="none" id="Practitioner-backto-PractitionerRole_n" style="stroke:#181818;stroke-width:1.0;"/><polygon fill="#181818" points="603.87,136.9,607.2743,146.1418,607.3548,140.4855,613.0111,140.566,603.87,136.9" style="stroke:#181818;stroke-width:1.0;"/></g><!--link PractitionerRole_n to Endpoint_n--><g id="link_PractitionerRole_n_Endpoint_n"><path codeLine="42" d="M742.42,309.76 C732.48,354.95 711.8495,448.7302 701.8895,493.9902 " fill="none" id="PractitionerRole_n-to-Endpoint_n" style="stroke:#181818;stroke-width:1.0;"/><polygon fill="#181818" points="700.6,499.85,706.4408,491.92,701.6746,494.9668,698.6277,490.2006,700.6,499.85" style="stroke:#181818;stroke-width:1.0;"/></g><!--link PractitionerRole_n to Location_n--><g id="link_PractitionerRole_n_Location_n"><path codeLine="43" d="M756.39,309.76 C773.79,354.95 809.9948,448.9904 827.4148,494.2504 " fill="none" id="PractitionerRole_n-to-Location_n" style="stroke:#181818;stroke-width:1.0;"/><polygon fill="#181818" points="829.57,499.85,830.0702,490.0139,827.774,495.1837,822.6042,492.8875,829.57,499.85" style="stroke:#181818;stroke-width:1.0;"/></g><!--SRC=[dLF1Ji904BttA-O8XZRjtPYOI889AW6ZHpBP7TgDosxTRZ64zC-uyMEsQgMbfLYFk_jsthptPi1X4fC4PWQP5LPeHGPs3i1k9KZo30GdPKL-C308FEzg10-B4KplRcV32ghulA4lHD2EKBYchWhlASgSXc7H0mpyiy0rMVGiXfus8XIgoPavq29ghYLT55RbYQkET0YJ-dBFf7YiXR97J2z59z24M6g4tNhw8-_jdhVtNuT6MlBk22D2QIE6XXPaDe9HLT3Jw-DuFeH1IB74NCVgi3VmGkPD7VRnAbKXh8M5oMc9QXZZqeC-8J2j5B72tkTjJEts9HPjcXnTQqwTt_A2d1jApdoBSIiryc_Ee4zalSBAVgoPbYFqZyKhPVZTCtDfOMhxV-swZTrn6ilakZU_eRQ_bhh-Kd-fdEOLr4Ww82NJKdq2]--></g></svg>