<svg xmlns="http://www.w3.org/2000/svg" xmlns:xlink="http://www.w3.org/1999/xlink" contentStyleType="text/css" height="382px" preserveAspectRatio="none" style="width:762px;height:382px;background:#FFFFFF;" version="1.1" viewBox="0 0 762 382" width="762px" zoomAndPan="magnify"><defs/><g><!--class PractitionerRole--><g id="elem_PractitionerRole"><rect codeLine="2" fill="#F1F1F1" height="96.8906" id="PractitionerRole" rx="2.5" ry="2.5" style="stroke:#181818;stroke-width:0.5;" width="210.9395" x="264.82" y="7"/><ellipse cx="310.1218" cy="23" fill="#C2C2C2" rx="11" ry="11" style="stroke:#181818;stroke-width:1.0;"/><path d="M313.0905,28.6406 Q312.5124,28.9375 311.8718,29.0781 Q311.2311,29.2344 310.528,29.2344 Q308.028,29.2344 306.6999,27.5938 Q305.3874,25.9375 305.3874,22.8125 Q305.3874,19.6875 306.6999,18.0313 Q308.028,16.375 310.528,16.375 Q311.2311,16.375 311.8718,16.5313 Q312.528,16.6875 313.0905,16.9844 L313.0905,19.7031 Q312.4655,19.125 311.8718,18.8594 Q311.278,18.5781 310.653,18.5781 Q309.3093,18.5781 308.6218,19.6563 Q307.9343,20.7188 307.9343,22.8125 Q307.9343,24.9063 308.6218,25.9844 Q309.3093,27.0469 310.653,27.0469 Q311.278,27.0469 311.8718,26.7813 Q312.4655,26.5 313.0905,25.9219 L313.0905,28.6406 Z " fill="#000000"/><text fill="#000000" font-family="sans-serif" font-size="14" lengthAdjust="spacing" textLength="111.8359" x="330.6218" y="27.8467">PractitionerRole</text><line style="stroke:#181818;stroke-width:0.5;" x1="265.82" x2="474.7595" y1="39" y2="39"/><text fill="#000000" font-family="sans-serif" font-size="14" lengthAdjust="spacing" textLength="198.9395" x="270.82" y="55.9951">practitioner (1..1, MS, LDAP)</text><text fill="#000000" font-family="sans-serif" font-size="14" lengthAdjust="spacing" textLength="118.5967" x="270.82" y="72.292">location (0.., MS)</text><text fill="#000000" font-family="sans-serif" font-size="14" lengthAdjust="spacing" textLength="125.125" x="270.82" y="88.5889">endpoint (0.., MS)</text><line style="stroke:#181818;stroke-width:0.5;" x1="265.82" x2="474.7595" y1="95.8906" y2="95.8906"/></g><!--class Practitioner--><g id="elem_Practitioner"><rect codeLine="7" fill="#F1F1F1" height="194.6719" id="Practitioner" rx="2.5" ry="2.5" style="stroke:#181818;stroke-width:0.5;" width="206.5781" x="7" y="180.89"/><ellipse cx="65.519" cy="196.89" fill="#C2C2C2" rx="11" ry="11" style="stroke:#181818;stroke-width:1.0;"/><path d="M68.4878,202.5306 Q67.9097,202.8275 67.269,202.9681 Q66.6284,203.1244 65.9253,203.1244 Q63.4253,203.1244 62.0972,201.4838 Q60.7847,199.8275 60.7847,196.7025 Q60.7847,193.5775 62.0972,191.9213 Q63.4253,190.265 65.9253,190.265 Q66.6284,190.265 67.269,190.4213 Q67.9253,190.5775 68.4878,190.8744 L68.4878,193.5931 Q67.8628,193.015 67.269,192.7494 Q66.6753,192.4681 66.0503,192.4681 Q64.7065,192.4681 64.019,193.5463 Q63.3315,194.6088 63.3315,196.7025 Q63.3315,198.7963 64.019,199.8744 Q64.7065,200.9369 66.0503,200.9369 Q66.6753,200.9369 67.269,200.6713 Q67.8628,200.39 68.4878,199.8119 L68.4878,202.5306 Z " fill="#000000"/><text fill="#000000" font-family="sans-serif" font-size="14" lengthAdjust="spacing" textLength="81.04" x="86.019" y="201.7367">Practitioner</text><line style="stroke:#181818;stroke-width:0.5;" x1="8" x2="212.5781" y1="212.89" y2="212.89"/><text fill="#000000" font-family="sans-serif" font-size="14" lengthAdjust="spacing" textLength="171.377" x="13" y="229.8851">identifier (1.., MS, LDAP)</text><text fill="#000000" font-family="sans-serif" font-size="14" lengthAdjust="spacing" textLength="160.0088" x="13" y="246.182">active (1..1, MS, LDAP)</text><text fill="#000000" font-family="sans-serif" font-size="14" lengthAdjust="spacing" textLength="157.1582" x="13" y="262.4789">name (1..1, MS, LDAP)</text><text fill="#000000" font-family="sans-serif" font-size="14" lengthAdjust="spacing" textLength="119.5537" x="13" y="278.7757">telecom (0.., MS)</text><text fill="#000000" font-family="sans-serif" font-size="14" lengthAdjust="spacing" textLength="112.6768" x="13" y="295.0726">gender (..1, MS)</text><text fill="#000000" font-family="sans-serif" font-size="14" lengthAdjust="spacing" textLength="129.4043" x="13" y="311.3695">birthDate (..1, MS)</text><text fill="#000000" font-family="sans-serif" font-size="14" lengthAdjust="spacing" textLength="103.4277" x="13" y="327.6664">photo (0.., MS)</text><text fill="#000000" font-family="sans-serif" font-size="14" lengthAdjust="spacing" textLength="194.5781" x="13" y="343.9632">qualification (0.., MS, LDAP)</text><text fill="#000000" font-family="sans-serif" font-size="14" lengthAdjust="spacing" textLength="171.3154" x="13" y="360.2601">communication (0.., MS)</text><line style="stroke:#181818;stroke-width:0.5;" x1="8" x2="212.5781" y1="367.5619" y2="367.5619"/></g><!--class Endpoint--><g id="elem_Endpoint"><rect codeLine="18" fill="#F1F1F1" height="145.7813" id="Endpoint" rx="2.5" ry="2.5" style="stroke:#181818;stroke-width:0.5;" width="243.9092" x="248.33" y="205.33"/><ellipse cx="334.8798" cy="221.33" fill="#C2C2C2" rx="11" ry="11" style="stroke:#181818;stroke-width:1.0;"/><path d="M337.8486,226.9706 Q337.2704,227.2675 336.6298,227.4081 Q335.9892,227.5644 335.2861,227.5644 Q332.7861,227.5644 331.4579,225.9238 Q330.1454,224.2675 330.1454,221.1425 Q330.1454,218.0175 331.4579,216.3613 Q332.7861,214.705 335.2861,214.705 Q335.9892,214.705 336.6298,214.8613 Q337.2861,215.0175 337.8486,215.3144 L337.8486,218.0331 Q337.2236,217.455 336.6298,217.1894 Q336.0361,216.9081 335.4111,216.9081 Q334.0673,216.9081 333.3798,217.9863 Q332.6923,219.0488 332.6923,221.1425 Q332.6923,223.2363 333.3798,224.3144 Q334.0673,225.3769 335.4111,225.3769 Q336.0361,225.3769 336.6298,225.1113 Q337.2236,224.83 337.8486,224.2519 L337.8486,226.9706 Z " fill="#000000"/><text fill="#000000" font-family="sans-serif" font-size="14" lengthAdjust="spacing" textLength="62.3096" x="355.3798" y="226.1767">Endpoint</text><line style="stroke:#181818;stroke-width:0.5;" x1="249.33" x2="491.2392" y1="237.33" y2="237.33"/><text fill="#000000" font-family="sans-serif" font-size="14" lengthAdjust="spacing" textLength="114.9736" x="254.33" y="254.3251">status (1..1, MS)</text><text fill="#000000" font-family="sans-serif" font-size="14" lengthAdjust="spacing" textLength="183.4287" x="254.33" y="270.622">connectionType (1..1, MS)</text><text fill="#000000" font-family="sans-serif" font-size="14" lengthAdjust="spacing" textLength="111.6582" x="254.33" y="286.9189">name (1..1, MS)</text><text fill="#000000" font-family="sans-serif" font-size="14" lengthAdjust="spacing" textLength="231.9092" x="254.33" y="303.2157">managingOrganization (0..1, MS)</text><text fill="#000000" font-family="sans-serif" font-size="14" lengthAdjust="spacing" textLength="153.0566" x="254.33" y="319.5126">payloadType (1.., MS)</text><text fill="#000000" font-family="sans-serif" font-size="14" lengthAdjust="spacing" textLength="127.2646" x="254.33" y="335.8095">address (1..1, MS)</text><line style="stroke:#181818;stroke-width:0.5;" x1="249.33" x2="491.2392" y1="343.1113" y2="343.1113"/></g><!--class Location--><g id="elem_Location"><rect codeLine="26" fill="#F1F1F1" height="145.7813" id="Location" rx="2.5" ry="2.5" style="stroke:#181818;stroke-width:0.5;" width="227.6191" x="527.48" y="205.33"/><ellipse cx="607.3101" cy="221.33" fill="#C2C2C2" rx="11" ry="11" style="stroke:#181818;stroke-width:1.0;"/><path d="M610.2788,226.9706 Q609.7007,227.2675 609.0601,227.4081 Q608.4195,227.5644 607.7163,227.5644 Q605.2163,227.5644 603.8882,225.9238 Q602.5757,224.2675 602.5757,221.1425 Q602.5757,218.0175 603.8882,216.3613 Q605.2163,214.705 607.7163,214.705 Q608.4195,214.705 609.0601,214.8613 Q609.7163,215.0175 610.2788,215.3144 L610.2788,218.0331 Q609.6538,217.455 609.0601,217.1894 Q608.4663,216.9081 607.8413,216.9081 Q606.4976,216.9081 605.8101,217.9863 Q605.1226,219.0488 605.1226,221.1425 Q605.1226,223.2363 605.8101,224.3144 Q606.4976,225.3769 607.8413,225.3769 Q608.4663,225.3769 609.0601,225.1113 Q609.6538,224.83 610.2788,224.2519 L610.2788,226.9706 Z " fill="#000000"/><text fill="#000000" font-family="sans-serif" font-size="14" lengthAdjust="spacing" textLength="59.459" x="627.8101" y="226.1767">Location</text><line style="stroke:#181818;stroke-width:0.5;" x1="528.48" x2="754.0991" y1="237.33" y2="237.33"/><text fill="#000000" font-family="sans-serif" font-size="14" lengthAdjust="spacing" textLength="102.751" x="533.48" y="254.3251">name (..1, MS)</text><text fill="#000000" font-family="sans-serif" font-size="14" lengthAdjust="spacing" textLength="140.8887" x="533.48" y="270.622">description (..1, MS)</text><text fill="#000000" font-family="sans-serif" font-size="14" lengthAdjust="spacing" textLength="118.3574" x="533.48" y="286.9189">address (..1, MS)</text><text fill="#000000" font-family="sans-serif" font-size="14" lengthAdjust="spacing" textLength="118.501" x="533.48" y="303.2157">position (..1, MS)</text><text fill="#000000" font-family="sans-serif" font-size="14" lengthAdjust="spacing" textLength="188.0293" x="533.48" y="319.5126">hoursOfOperation (0.., MS)</text><text fill="#000000" font-family="sans-serif" font-size="14" lengthAdjust="spacing" textLength="215.6191" x="533.48" y="335.8095">availabilityExceptions (..1, MS)</text><line style="stroke:#181818;stroke-width:0.5;" x1="528.48" x2="754.0991" y1="343.1113" y2="343.1113"/></g><!--reverse link PractitionerRole to Practitioner--><g id="link_PractitionerRole_Practitioner"><path codeLine="35" d="M304.7221,112.1163 C275.5221,136.9063 248.09,160.21 214.02,189.14 " fill="none" id="PractitionerRole-backto-Practitioner" style="stroke:#181818;stroke-width:1.0;"/><polygon fill="none" points="313.87,104.35,306.7073,105.1839,304.7221,112.1163,311.8848,111.2825,313.87,104.35" style="stroke:#181818;stroke-width:1.0;"/><text fill="#000000" font-family="sans-serif" font-size="13" lengthAdjust="spacing" textLength="75.6641" x="280.29" y="146.9569">practitioner</text></g><!--reverse link PractitionerRole to Endpoint--><g id="link_PractitionerRole_Endpoint"><path codeLine="36" d="M370.29,116.35 C370.29,145.77 370.29,172.03 370.29,205.07 " fill="none" id="PractitionerRole-backto-Endpoint" style="stroke:#181818;stroke-width:1.0;"/><polygon fill="none" points="370.29,104.35,366.29,110.35,370.29,116.35,374.29,110.35,370.29,104.35" style="stroke:#181818;stroke-width:1.0;"/><text fill="#000000" font-family="sans-serif" font-size="13" lengthAdjust="spacing" textLength="57.6431" x="371.29" y="146.9569">endpoint</text></g><!--reverse link PractitionerRole to Location--><g id="link_PractitionerRole_Location"><path codeLine="37" d="M438.3936,111.9292 C474.4336,141.2892 511.96,171.86 552.46,204.85 " fill="none" id="PractitionerRole-backto-Location" style="stroke:#181818;stroke-width:1.0;"/><polygon fill="none" points="429.09,104.35,431.2154,111.2408,438.3936,111.9292,436.2682,105.0384,429.09,104.35" style="stroke:#181818;stroke-width:1.0;"/><text fill="#000000" font-family="sans-serif" font-size="13" lengthAdjust="spacing" textLength="51.5811" x="482.29" y="146.9569">location</text></g><!--SRC=[VLF1Ri8m3BttAt9a4bJZocqIt9X0stx09AQrbiHTag8nnB-l7Mj9QU0OlMU_vnVRVvAjm84HXYtBqh514LoDcTJWlTWwa842iKNtnXh5AHFYj2VKwYog21IJUPxFf-BrVIhMovVjKyJJBA5bYSbpdhUK64IhAYOR8l2S41y8aq8Rg7bSPDEgRUq17_coO1xY0JLADadRHUExbVylZg4TkL0k8M0IhKeEd6pvLODkXhh9QcohiMHgIwDCkzXMNQ9nP3v0gFrrsc53Qr6stJwE5QOvmwnYn825WconSGLO-hcw6eyEHysWUf5R79How0SckvdMtGgTHfuIGWgzT5HTd2JmNYXbaZtTBIovTdwptrJexcyq780qx4XJEAw-9VxvYCNEMJQwAvxD1lk-65nNcjzzzA8_eZIl2s_HN-8l]--></g></svg>