<?xml version="1.0" encoding="UTF-8" standalone="no"?><svg xmlns="http://www.w3.org/2000/svg" xmlns:xlink="http://www.w3.org/1999/xlink" contentScriptType="application/ecmascript" contentStyleType="text/css" height="373px" preserveAspectRatio="none" style="width:654px;height:373px;background:#FFFFFF;" version="1.1" viewBox="0 0 654 373" width="654px" zoomAndPan="magnify"><defs><filter height="300%" id="fr4grd7q16yw2" width="300%" x="-1" y="-1"><feGaussianBlur result="blurOut" stdDeviation="2.0"/><feColorMatrix in="blurOut" result="blurOut2" type="matrix" values="0 0 0 0 0 0 0 0 0 0 0 0 0 0 0 0 0 0 .4 0"/><feOffset dx="4.0" dy="4.0" in="blurOut2" result="blurOut3"/><feBlend in="SourceGraphic" in2="blurOut3" mode="normal"/></filter></defs><g><!--MD5=[7b9c16a3d4995a55b032296f71ab1184]
class PractitionerRole--><rect codeLine="2" fill="#F8F8F8" filter="url(#fr4grd7q16yw2)" height="112.0234" id="PractitionerRole" style="stroke:#383838;stroke-width:1.5;" width="172" x="229" y="7"/><ellipse cx="262" cy="23" fill="#C2C2C2" rx="11" ry="11" style="stroke:#383838;stroke-width:1.0;"/><path d="M264.9688,28.6406 Q264.3906,28.9375 263.75,29.0781 Q263.1094,29.2344 262.4063,29.2344 Q259.9063,29.2344 258.5781,27.5938 Q257.2656,25.9375 257.2656,22.8125 Q257.2656,19.6875 258.5781,18.0313 Q259.9063,16.375 262.4063,16.375 Q263.1094,16.375 263.75,16.5313 Q264.4063,16.6875 264.9688,16.9844 L264.9688,19.7031 Q264.3438,19.125 263.75,18.8594 Q263.1563,18.5781 262.5313,18.5781 Q261.1875,18.5781 260.5,19.6563 Q259.8125,20.7188 259.8125,22.8125 Q259.8125,24.9063 260.5,25.9844 Q261.1875,27.0469 262.5313,27.0469 Q263.1563,27.0469 263.75,26.7813 Q264.3438,26.5 264.9688,25.9219 L264.9688,28.6406 Z " fill="#000000"/><text fill="#000000" font-family="sans-serif" font-size="12" lengthAdjust="spacing" textLength="100" x="280" y="27.1543">PractitionerRole</text><line style="stroke:#383838;stroke-width:1.5;" x1="230" x2="400" y1="39" y2="39"/><text fill="#000000" font-family="sans-serif" font-size="11" lengthAdjust="spacing" textLength="108" x="235" y="53.2104">identifier (0..*, MS)</text><text fill="#000000" font-family="sans-serif" font-size="11" lengthAdjust="spacing" textLength="160" x="235" y="66.0151">practitioner (1..1, MS, LDAP)</text><text fill="#000000" font-family="sans-serif" font-size="11" lengthAdjust="spacing" textLength="111" x="235" y="78.8198">speciality (0..*, MS)</text><text fill="#000000" font-family="sans-serif" font-size="11" lengthAdjust="spacing" textLength="102" x="235" y="91.6245">location (0..*, MS)</text><text fill="#000000" font-family="sans-serif" font-size="11" lengthAdjust="spacing" textLength="107" x="235" y="104.4292">endpoint (0..*, MS)</text><line style="stroke:#383838;stroke-width:1.5;" x1="230" x2="400" y1="111.0234" y2="111.0234"/><!--MD5=[2edc31ff762501c9cec4b1b863028f54]
class Practitioner--><rect codeLine="9" fill="#F8F8F8" filter="url(#fr4grd7q16yw2)" height="163.2422" id="Practitioner" style="stroke:#383838;stroke-width:1.5;" width="174" x="7" y="196"/><ellipse cx="53.25" cy="212" fill="#C2C2C2" rx="11" ry="11" style="stroke:#383838;stroke-width:1.0;"/><path d="M56.2188,217.6406 Q55.6406,217.9375 55,218.0781 Q54.3594,218.2344 53.6563,218.2344 Q51.1563,218.2344 49.8281,216.5938 Q48.5156,214.9375 48.5156,211.8125 Q48.5156,208.6875 49.8281,207.0313 Q51.1563,205.375 53.6563,205.375 Q54.3594,205.375 55,205.5313 Q55.6563,205.6875 56.2188,205.9844 L56.2188,208.7031 Q55.5938,208.125 55,207.8594 Q54.4063,207.5781 53.7813,207.5781 Q52.4375,207.5781 51.75,208.6563 Q51.0625,209.7188 51.0625,211.8125 Q51.0625,213.9063 51.75,214.9844 Q52.4375,216.0469 53.7813,216.0469 Q54.4063,216.0469 55,215.7813 Q55.5938,215.5 56.2188,214.9219 L56.2188,217.6406 Z " fill="#000000"/><text fill="#000000" font-family="sans-serif" font-size="12" lengthAdjust="spacing" textLength="73" x="73.75" y="216.1543">Practitioner</text><line style="stroke:#383838;stroke-width:1.5;" x1="8" x2="180" y1="228" y2="228"/><text fill="#000000" font-family="sans-serif" font-size="11" lengthAdjust="spacing" textLength="144" x="13" y="242.2104">identifier (1..*, MS, LDAP)</text><text fill="#000000" font-family="sans-serif" font-size="11" lengthAdjust="spacing" textLength="128" x="13" y="255.0151">active (1..1, MS, LDAP)</text><text fill="#000000" font-family="sans-serif" font-size="11" lengthAdjust="spacing" textLength="126" x="13" y="267.8198">name (1..*, MS, LDAP)</text><text fill="#000000" font-family="sans-serif" font-size="11" lengthAdjust="spacing" textLength="103" x="13" y="280.6245">telecom (0..*, MS)</text><text fill="#000000" font-family="sans-serif" font-size="11" lengthAdjust="spacing" textLength="98" x="13" y="293.4292">gender (0..*, MS)</text><text fill="#000000" font-family="sans-serif" font-size="11" lengthAdjust="spacing" textLength="110" x="13" y="306.2339">birthDate (0..*, MS)</text><text fill="#000000" font-family="sans-serif" font-size="11" lengthAdjust="spacing" textLength="90" x="13" y="319.0386">photo (0..*, MS)</text><text fill="#000000" font-family="sans-serif" font-size="11" lengthAdjust="spacing" textLength="162" x="13" y="331.8433">qualification (0..*, MS, LDAP)</text><text fill="#000000" font-family="sans-serif" font-size="11" lengthAdjust="spacing" textLength="144" x="13" y="344.6479">communication (0..*, MS)</text><line style="stroke:#383838;stroke-width:1.5;" x1="8" x2="180" y1="351.2422" y2="351.2422"/><!--MD5=[4fd3bb6c1d79f4919f90c95b62a35422]
class Endpoint--><rect codeLine="20" fill="#F8F8F8" filter="url(#fr4grd7q16yw2)" height="137.6328" id="Endpoint" style="stroke:#383838;stroke-width:1.5;" width="198" x="216" y="208.5"/><ellipse cx="282.75" cy="224.5" fill="#C2C2C2" rx="11" ry="11" style="stroke:#383838;stroke-width:1.0;"/><path d="M285.7188,230.1406 Q285.1406,230.4375 284.5,230.5781 Q283.8594,230.7344 283.1563,230.7344 Q280.6563,230.7344 279.3281,229.0938 Q278.0156,227.4375 278.0156,224.3125 Q278.0156,221.1875 279.3281,219.5313 Q280.6563,217.875 283.1563,217.875 Q283.8594,217.875 284.5,218.0313 Q285.1563,218.1875 285.7188,218.4844 L285.7188,221.2031 Q285.0938,220.625 284.5,220.3594 Q283.9063,220.0781 283.2813,220.0781 Q281.9375,220.0781 281.25,221.1563 Q280.5625,222.2188 280.5625,224.3125 Q280.5625,226.4063 281.25,227.4844 Q281.9375,228.5469 283.2813,228.5469 Q283.9063,228.5469 284.5,228.2813 Q285.0938,228 285.7188,227.4219 L285.7188,230.1406 Z " fill="#000000"/><text fill="#000000" font-family="sans-serif" font-size="12" lengthAdjust="spacing" textLength="56" x="303.25" y="228.6543">Endpoint</text><line style="stroke:#383838;stroke-width:1.5;" x1="217" x2="413" y1="240.5" y2="240.5"/><text fill="#000000" font-family="sans-serif" font-size="11" lengthAdjust="spacing" textLength="108" x="222" y="254.7104">identifier (0..*, MS)</text><text fill="#000000" font-family="sans-serif" font-size="11" lengthAdjust="spacing" textLength="94" x="222" y="267.5151">status (1..*, MS)</text><text fill="#000000" font-family="sans-serif" font-size="11" lengthAdjust="spacing" textLength="146" x="222" y="280.3198">connectionType (0..*, MS)</text><text fill="#000000" font-family="sans-serif" font-size="11" lengthAdjust="spacing" textLength="91" x="222" y="293.1245">name (1..1, MS)</text><text fill="#000000" font-family="sans-serif" font-size="11" lengthAdjust="spacing" textLength="186" x="222" y="305.9292">managingOrganization (0..1, MS)</text><text fill="#000000" font-family="sans-serif" font-size="11" lengthAdjust="spacing" textLength="129" x="222" y="318.7339">payloadType (1..*, MS)</text><text fill="#000000" font-family="sans-serif" font-size="11" lengthAdjust="spacing" textLength="106" x="222" y="331.5386">address (1..1, MS)</text><line style="stroke:#383838;stroke-width:1.5;" x1="217" x2="413" y1="338.1328" y2="338.1328"/><!--MD5=[4f1f3706c1a355a8488e154afcaed5df]
class Location--><rect codeLine="29" fill="#F8F8F8" filter="url(#fr4grd7q16yw2)" height="163.2422" id="Location" style="stroke:#383838;stroke-width:1.5;" width="191" x="449.5" y="196"/><ellipse cx="514.25" cy="212" fill="#C2C2C2" rx="11" ry="11" style="stroke:#383838;stroke-width:1.0;"/><path d="M517.2188,217.6406 Q516.6406,217.9375 516,218.0781 Q515.3594,218.2344 514.6563,218.2344 Q512.1563,218.2344 510.8281,216.5938 Q509.5156,214.9375 509.5156,211.8125 Q509.5156,208.6875 510.8281,207.0313 Q512.1563,205.375 514.6563,205.375 Q515.3594,205.375 516,205.5313 Q516.6563,205.6875 517.2188,205.9844 L517.2188,208.7031 Q516.5938,208.125 516,207.8594 Q515.4063,207.5781 514.7813,207.5781 Q513.4375,207.5781 512.75,208.6563 Q512.0625,209.7188 512.0625,211.8125 Q512.0625,213.9063 512.75,214.9844 Q513.4375,216.0469 514.7813,216.0469 Q515.4063,216.0469 516,215.7813 Q516.5938,215.5 517.2188,214.9219 L517.2188,217.6406 Z " fill="#000000"/><text fill="#000000" font-family="sans-serif" font-size="12" lengthAdjust="spacing" textLength="53" x="534.75" y="216.1543">Location</text><line style="stroke:#383838;stroke-width:1.5;" x1="450.5" x2="639.5" y1="228" y2="228"/><text fill="#000000" font-family="sans-serif" font-size="11" lengthAdjust="spacing" textLength="108" x="455.5" y="242.2104">identifier (0..*, MS)</text><text fill="#000000" font-family="sans-serif" font-size="11" lengthAdjust="spacing" textLength="94" x="455.5" y="255.0151">status (0..*, MS)</text><text fill="#000000" font-family="sans-serif" font-size="11" lengthAdjust="spacing" textLength="91" x="455.5" y="267.8198">name (0..1, MS)</text><text fill="#000000" font-family="sans-serif" font-size="11" lengthAdjust="spacing" textLength="122" x="455.5" y="280.6245">description (0..1, MS)</text><text fill="#000000" font-family="sans-serif" font-size="11" lengthAdjust="spacing" textLength="103" x="455.5" y="293.4292">telecom (0..*, MS)</text><text fill="#000000" font-family="sans-serif" font-size="11" lengthAdjust="spacing" textLength="106" x="455.5" y="306.2339">address (0..1, MS)</text><text fill="#000000" font-family="sans-serif" font-size="11" lengthAdjust="spacing" textLength="104" x="455.5" y="319.0386">position (0..1, MS)</text><text fill="#000000" font-family="sans-serif" font-size="11" lengthAdjust="spacing" textLength="160" x="455.5" y="331.8433">hoursOfOperation (0..*, MS)</text><text fill="#000000" font-family="sans-serif" font-size="11" lengthAdjust="spacing" textLength="179" x="455.5" y="344.6479">availabilityExceptions (0..1, MS)</text><line style="stroke:#383838;stroke-width:1.5;" x1="450.5" x2="639.5" y1="351.2422" y2="351.2422"/><!--MD5=[8bdbfd47c206126371fe28da16da2c38]
reverse link PractitionerRole to Practitioner--><path codeLine="41" d="M248.19,128.24 C226.11,149.48 201.24,173.38 178.04,195.7 " fill="none" id="PractitionerRole-backto-Practitioner" style="stroke:#383838;stroke-width:1.0;"/><polygon fill="#FFFFFF" points="257.8,119,250.7018,120.271,249.1449,127.312,256.2431,126.041,257.8,119" style="stroke:#383838;stroke-width:1.0;"/><text fill="#000000" font-family="sans-serif" font-size="13" lengthAdjust="spacing" textLength="73" x="226" y="162.0669">practitioner</text><!--MD5=[19650f91da0f4b19284021841804106f]
reverse link PractitionerRole to Endpoint--><path codeLine="42" d="M315,132.19 C315,156.58 315,184.05 315,208.43 " fill="none" id="PractitionerRole-backto-Endpoint" style="stroke:#383838;stroke-width:1.0;"/><polygon fill="#FFFFFF" points="315,119,311,125,315,131,319,125,315,119" style="stroke:#383838;stroke-width:1.0;"/><text fill="#000000" font-family="sans-serif" font-size="13" lengthAdjust="spacing" textLength="56" x="316" y="162.0669">endpoint</text><!--MD5=[8db30d2c8d0b651ef32eee6ae94cb401]
reverse link PractitionerRole to Location--><path codeLine="43" d="M384.22,127.95 C407.28,149.26 433.28,173.28 457.54,195.7 " fill="none" id="PractitionerRole-backto-Location" style="stroke:#383838;stroke-width:1.0;"/><polygon fill="#FFFFFF" points="374.53,119,376.2179,126.0108,383.3385,127.1492,381.6507,120.1384,374.53,119" style="stroke:#383838;stroke-width:1.0;"/><text fill="#000000" font-family="sans-serif" font-size="13" lengthAdjust="spacing" textLength="50" x="425" y="162.0669">location</text><!--MD5=[9acc1080ccd004c3827f75f6277ee448]
@startuml ClassDiagram.PractitionerRole
skinparam monochrome true
class PractitionerRole {
  {field} identifier (0..*, MS)
  {field} practitioner (1..1, MS, LDAP)
  {field} speciality (0..*, MS)
  {field} location (0..*, MS)
  {field} endpoint (0..*, MS)
}
class Practitioner {
  {field} identifier (1..*, MS, LDAP)
  {field} active (1..1, MS, LDAP)
  {field} name (1..*, MS, LDAP)
  {field} telecom (0..*, MS)
  {field} gender (0..*, MS)
  {field} birthDate (0..*, MS)
  {field} photo (0..*, MS)
  {field} qualification (0..*, MS, LDAP)
  {field} communication (0..*, MS)
}
class Endpoint {
  {field} identifier (0..*, MS)
  {field} status (1..*, MS)
  {field} connectionType (0..*, MS)
  {field} name (1..1, MS)
  {field} managingOrganization (0..1, MS)
  {field} payloadType (1..*, MS)
  {field} address (1..1, MS)
}
class Location {
  {field} identifier (0..*, MS)
  {field} status (0..*, MS)
  {field} name (0..1, MS)
  {field} description (0..1, MS)
  {field} telecom (0..*, MS)
  {field} address (0..1, MS)
  {field} position (0..1, MS)
  {field} hoursOfOperation (0..*, MS)
  {field} availabilityExceptions (0..1, MS)
}

PractitionerRole o- - Practitioner: practitioner
PractitionerRole o- - Endpoint: endpoint
PractitionerRole o- - Location: location
@enduml

PlantUML version 1.2021.16(Wed Dec 08 17:25:22 UTC 2021)
(GPL source distribution)
Java Runtime: OpenJDK Runtime Environment
JVM: OpenJDK 64-Bit Server VM
Default Encoding: UTF-8
Language: en
Country: null
--></g></svg>