<svg xmlns="http://www.w3.org/2000/svg" xmlns:xlink="http://www.w3.org/1999/xlink" version="1.1" data-diagram-type="CLASS" style="width:2116px;height:842px;background:#FFFFFF;" width="2116px" height="842px" viewBox="0 0 2116 842" zoomAndPan="magnify" preserveAspectRatio="none" contentStyleType="text/css"><?plantuml 1.2026.8?><defs/><g font-family="sans-serif" lengthAdjust="spacing"><!--cluster LDAP VZD--><g class="cluster" data-qualified-name="LDAP VZD" id="ent0001" data-source-line="3"><rect x="7" y="7" width="918" height="172" fill="#90EE90" style="stroke:#181818;stroke-width:1;" rx="2.5" ry="2.5"/><path d="M96.119,7 L96.119,16.297 L86.119,26.297 L7,26.297" style="stroke:#181818;stroke-width:1;" fill="none"/><text x="10" y="20.995" fill="#000" font-size="14" textLength="79.119" font-weight="700">LDAP VZD</text></g><!--cluster FHIR VZD--><g class="cluster" data-qualified-name="FHIR VZD" id="ent0007" data-source-line="23"><rect x="189" y="212" width="1255" height="616" fill="#FFFFE0" style="stroke:#181818;stroke-width:1;" rx="2.5" ry="2.5"/><path d="M273.751,212 L273.751,221.297 L263.751,231.297 L189,231.297" style="stroke:#181818;stroke-width:1;" fill="none"/><text x="192" y="225.995" fill="#000" font-size="14" textLength="74.751" font-weight="700">FHIR VZD</text></g><!--cluster ApoVZD--><g class="cluster" data-qualified-name="ApoVZD" id="ent0016" data-source-line="71"><rect x="1320" y="7" width="581" height="172" fill="#ADD8E6" style="stroke:#181818;stroke-width:1;" rx="2.5" ry="2.5"/><path d="M1393.082,7 L1393.082,16.297 L1383.082,26.297 L1320,26.297" style="stroke:#181818;stroke-width:1;" fill="none"/><text x="1323" y="20.995" fill="#000" font-size="14" textLength="63.082" font-weight="700">ApoVZD</text></g><!--class specialization--><g class="entity" data-qualified-name="LDAP VZD.specialization" id="ent0002" data-source-line="4"><rect x="236" y="46" width="304.284" height="113.188" fill="#F1F1F1" style="stroke:#181818;stroke-width:0.5;" rx="2.5" ry="2.5"/><ellipse cx="336.15" cy="62" rx="11" ry="11" fill="#ADD1B2" style="stroke:#181818;stroke-width:1;"/><path d="M339.119,67.641 Q338.541,67.938 337.9,68.078 Q337.259,68.234 336.556,68.234 Q334.056,68.234 332.728,66.594 Q331.416,64.938 331.416,61.813 Q331.416,58.688 332.728,57.031 Q334.056,55.375 336.556,55.375 Q337.259,55.375 337.9,55.531 Q338.556,55.688 339.119,55.984 L339.119,58.703 Q338.494,58.125 337.9,57.859 Q337.306,57.578 336.681,57.578 Q335.337,57.578 334.65,58.656 Q333.962,59.719 333.962,61.813 Q333.962,63.906 334.65,64.984 Q335.337,66.047 336.681,66.047 Q337.306,66.047 337.9,65.781 Q338.494,65.5 339.119,64.922 L339.119,67.641 Z " fill="#000"/><text x="356.65" y="66.847" fill="#000" font-size="14" textLength="95.484">specialization</text><line x1="237" y1="78" x2="539.284" y2="78" style="stroke:#181818;stroke-width:0.5;"/><g data-visibility-modifier="PUBLIC_FIELD"><ellipse cx="247" cy="91.648" rx="3" ry="3" fill="none" style="stroke:#038048;stroke-width:1;"/></g><text x="256" y="94.995" fill="#000" font-size="14" textLength="143.767">10_Officin_Apotheke</text><g data-visibility-modifier="PUBLIC_FIELD"><ellipse cx="247" cy="107.945" rx="3" ry="3" fill="none" style="stroke:#038048;stroke-width:1;"/></g><text x="256" y="111.292" fill="#000" font-size="14" textLength="278.284">20_Krankenhausversorgende_Apotheke</text><g data-visibility-modifier="PUBLIC_FIELD"><ellipse cx="247" cy="124.242" rx="3" ry="3" fill="none" style="stroke:#038048;stroke-width:1;"/></g><text x="256" y="127.589" fill="#000" font-size="14" textLength="223.351">30_Heimversorgende_Apotheke</text><g data-visibility-modifier="PUBLIC_FIELD"><ellipse cx="247" cy="140.539" rx="3" ry="3" fill="none" style="stroke:#038048;stroke-width:1;"/></g><text x="256" y="143.886" fill="#000" font-size="14" textLength="148.121">40_Versandapotheke</text><line x1="237" y1="151.188" x2="539.284" y2="151.188" style="stroke:#181818;stroke-width:0.5;"/></g><g class="entity" data-qualified-name="LDAP VZD.GMN3" id="ent0004" data-source-line="12"><path d="M23.47,89.93 L23.47,115.063 A0,0 0 0 0 23.47,115.063 L192.529,115.063 A0,0 0 0 0 192.529,115.063 L192.529,107.93 L228.23,102.5 L192.529,99.93 L192.529,99.93 L182.529,89.93 L23.47,89.93 A0,0 0 0 0 23.47,89.93" style="stroke:#181818;stroke-width:0.5;" fill="#FEFFDD"/><path d="M182.529,89.93 L182.529,99.93 L192.529,99.93 L182.529,89.93" style="stroke:#181818;stroke-width:0.5;" fill="#FEFFDD"/><text x="29.47" y="106.997" fill="#000" font-size="13" textLength="148.059">PharmacyTypeLDAPCS</text></g><!--class professionOID--><g class="entity" data-qualified-name="LDAP VZD.professionOID" id="ent0006" data-source-line="15"><rect x="583.13" y="54.05" width="325.735" height="96.891" fill="#F1F1F1" style="stroke:#181818;stroke-width:0.5;" rx="2.5" ry="2.5"/><ellipse cx="692.45" cy="70.05" rx="11" ry="11" fill="#ADD1B2" style="stroke:#181818;stroke-width:1;"/><path d="M695.419,75.691 Q694.841,75.987 694.2,76.128 Q693.56,76.284 692.857,76.284 Q690.357,76.284 689.028,74.644 Q687.716,72.987 687.716,69.862 Q687.716,66.737 689.028,65.081 Q690.357,63.425 692.857,63.425 Q693.56,63.425 694.2,63.581 Q694.857,63.737 695.419,64.034 L695.419,66.753 Q694.794,66.175 694.2,65.909 Q693.607,65.628 692.982,65.628 Q691.638,65.628 690.95,66.706 Q690.263,67.769 690.263,69.862 Q690.263,71.956 690.95,73.034 Q691.638,74.097 692.982,74.097 Q693.607,74.097 694.2,73.831 Q694.794,73.55 695.419,72.972 L695.419,75.691 Z " fill="#000"/><text x="712.95" y="74.897" fill="#000" font-size="14" textLength="98.595">professionOID</text><line x1="584.13" y1="86.05" x2="907.865" y2="86.05" style="stroke:#181818;stroke-width:0.5;"/><g data-visibility-modifier="PUBLIC_FIELD"><ellipse cx="594.13" cy="99.698" rx="3" ry="3" fill="none" style="stroke:#038048;stroke-width:1;"/></g><text x="603.13" y="103.045" fill="#000" font-size="14" textLength="124.681">1.2.276.0.76.4.54</text><text x="745.536" y="103.045" fill="#000" font-size="14" textLength="147.991">Öffentliche Apotheke</text><g data-visibility-modifier="PUBLIC_FIELD"><ellipse cx="594.13" cy="115.995" rx="3" ry="3" fill="none" style="stroke:#038048;stroke-width:1;"/></g><text x="603.13" y="119.342" fill="#000" font-size="14" textLength="124.681">1.2.276.0.76.4.55</text><text x="745.536" y="119.342" fill="#000" font-size="14" textLength="157.329">Krankenhausapotheke</text><g data-visibility-modifier="PUBLIC_FIELD"><ellipse cx="594.13" cy="132.292" rx="3" ry="3" fill="none" style="stroke:#038048;stroke-width:1;"/></g><text x="603.13" y="135.639" fill="#000" font-size="14" textLength="124.681">1.2.276.0.76.4.56</text><text x="745.536" y="135.639" fill="#000" font-size="14" textLength="152.564">Bundeswehrapotheke</text><line x1="584.13" y1="142.941" x2="907.865" y2="142.941" style="stroke:#181818;stroke-width:0.5;"/></g><!--class HealthcareService_specialty--><g class="entity" data-qualified-name="FHIR VZD.HealthcareService_specialty" id="ent0008" data-source-line="24"><rect x="213.5" y="514" width="229.982" height="129.484" fill="#F1F1F1" style="stroke:#181818;stroke-width:0.5;" rx="2.5" ry="2.5"/><ellipse cx="228.5" cy="530" rx="11" ry="11" fill="#ADD1B2" style="stroke:#181818;stroke-width:1;"/><path d="M231.469,535.641 Q230.891,535.938 230.25,536.078 Q229.609,536.234 228.906,536.234 Q226.406,536.234 225.078,534.594 Q223.766,532.938 223.766,529.813 Q223.766,526.688 225.078,525.031 Q226.406,523.375 228.906,523.375 Q229.609,523.375 230.25,523.531 Q230.906,523.688 231.469,523.984 L231.469,526.703 Q230.844,526.125 230.25,525.859 Q229.656,525.578 229.031,525.578 Q227.688,525.578 227,526.656 Q226.313,527.719 226.313,529.813 Q226.313,531.906 227,532.984 Q227.688,534.047 229.031,534.047 Q229.656,534.047 230.25,533.781 Q230.844,533.5 231.469,532.922 L231.469,535.641 Z " fill="#000"/><text x="242.5" y="534.847" fill="#000" font-size="14" textLength="197.982">HealthcareService_specialty</text><line x1="214.5" y1="546" x2="442.482" y2="546" style="stroke:#181818;stroke-width:0.5;"/><g data-visibility-modifier="PUBLIC_FIELD"><ellipse cx="224.5" cy="559.648" rx="3" ry="3" fill="none" style="stroke:#038048;stroke-width:1;"/></g><text x="233.5" y="562.995" fill="#000" font-size="14" textLength="114.823">10_Handverkauf</text><g data-visibility-modifier="PUBLIC_FIELD"><ellipse cx="224.5" cy="575.945" rx="3" ry="3" fill="none" style="stroke:#038048;stroke-width:1;"/></g><text x="233.5" y="579.292" fill="#000" font-size="14" textLength="174.132">20_Nacht_und_Notdienst</text><g data-visibility-modifier="PUBLIC_FIELD"><ellipse cx="224.5" cy="592.242" rx="3" ry="3" fill="none" style="stroke:#038048;stroke-width:1;"/></g><text x="233.5" y="595.589" fill="#000" font-size="14" textLength="109.006">30_Botendienst</text><g data-visibility-modifier="PUBLIC_FIELD"><ellipse cx="224.5" cy="608.539" rx="3" ry="3" fill="none" style="stroke:#038048;stroke-width:1;"/></g><text x="233.5" y="611.886" fill="#000" font-size="14" textLength="82.394">40_Versand</text><g data-visibility-modifier="PUBLIC_FIELD"><ellipse cx="224.5" cy="624.836" rx="3" ry="3" fill="none" style="stroke:#038048;stroke-width:1;"/></g><text x="233.5" y="628.183" fill="#000" font-size="14" textLength="140.39">50_Sterilherstellung</text><line x1="214.5" y1="635.484" x2="442.482" y2="635.484" style="stroke:#181818;stroke-width:0.5;"/></g><g class="entity" data-qualified-name="FHIR VZD.GMN9" id="ent0010" data-source-line="33"><path d="M205.21,327.43 L205.21,352.563 A0,0 0 0 0 205.21,352.563 L320.2,352.563 L326.86,510.09 L328.2,352.563 L442.786,352.563 A0,0 0 0 0 442.786,352.563 L442.786,337.43 L432.786,327.43 L205.21,327.43 A0,0 0 0 0 205.21,327.43" style="stroke:#181818;stroke-width:0.5;" fill="#FEFFDD"/><path d="M432.786,327.43 L432.786,337.43 L442.786,337.43 L432.786,327.43" style="stroke:#181818;stroke-width:0.5;" fill="#FEFFDD"/><text x="211.21" y="344.497" fill="#000" font-size="13" textLength="216.576">PharmacyHealthcareSpecialityCS</text></g><!--class HealthcareService_type--><g class="entity" data-qualified-name="FHIR VZD.HealthcareService_type" id="ent0012" data-source-line="36"><rect x="477.54" y="267.11" width="276.92" height="145.781" fill="#F1F1F1" style="stroke:#181818;stroke-width:0.5;" rx="2.5" ry="2.5"/><ellipse cx="528.434" cy="283.11" rx="11" ry="11" fill="#ADD1B2" style="stroke:#181818;stroke-width:1;"/><path d="M531.402,288.751 Q530.824,289.048 530.184,289.188 Q529.543,289.344 528.84,289.344 Q526.34,289.344 525.012,287.704 Q523.699,286.048 523.699,282.923 Q523.699,279.798 525.012,278.141 Q526.34,276.485 528.84,276.485 Q529.543,276.485 530.184,276.641 Q530.84,276.798 531.402,277.094 L531.402,279.813 Q530.777,279.235 530.184,278.969 Q529.59,278.688 528.965,278.688 Q527.621,278.688 526.934,279.766 Q526.246,280.829 526.246,282.923 Q526.246,285.016 526.934,286.094 Q527.621,287.157 528.965,287.157 Q529.59,287.157 530.184,286.891 Q530.777,286.61 531.402,286.032 L531.402,288.751 Z " fill="#000"/><text x="548.934" y="287.957" fill="#000" font-size="14" textLength="166.633">HealthcareService_type</text><line x1="478.54" y1="299.11" x2="753.46" y2="299.11" style="stroke:#181818;stroke-width:0.5;"/><g data-visibility-modifier="PUBLIC_FIELD"><ellipse cx="488.54" cy="312.758" rx="3" ry="3" fill="none" style="stroke:#038048;stroke-width:1;"/></g><text x="497.54" y="316.105" fill="#000" font-size="14" textLength="116.655">Offizin-Apotheke</text><g data-visibility-modifier="PUBLIC_FIELD"><ellipse cx="488.54" cy="329.055" rx="3" ry="3" fill="none" style="stroke:#038048;stroke-width:1;"/></g><text x="497.54" y="332.402" fill="#000" font-size="14" textLength="250.92">Krankenhausversorgende Apotheke</text><g data-visibility-modifier="PUBLIC_FIELD"><ellipse cx="488.54" cy="345.352" rx="3" ry="3" fill="none" style="stroke:#038048;stroke-width:1;"/></g><text x="497.54" y="348.699" fill="#000" font-size="14" textLength="152.564">Bundeswehrapotheke</text><g data-visibility-modifier="PUBLIC_FIELD"><ellipse cx="488.54" cy="361.649" rx="3" ry="3" fill="none" style="stroke:#038048;stroke-width:1;"/></g><text x="497.54" y="364.996" fill="#000" font-size="14" textLength="195.986">Heimversorgende Apotheke</text><g data-visibility-modifier="PUBLIC_FIELD"><ellipse cx="488.54" cy="377.946" rx="3" ry="3" fill="none" style="stroke:#038048;stroke-width:1;"/></g><text x="497.54" y="381.293" fill="#000" font-size="14" textLength="123.307">Versandapotheke</text><g data-visibility-modifier="PUBLIC_FIELD"><ellipse cx="488.54" cy="394.243" rx="3" ry="3" fill="none" style="stroke:#038048;stroke-width:1;"/></g><text x="497.54" y="397.589" fill="#000" font-size="14" textLength="115.575">Sterilherstellung</text><line x1="478.54" y1="404.891" x2="753.46" y2="404.891" style="stroke:#181818;stroke-width:0.5;"/></g><!--class Organization_type--><g class="entity" data-qualified-name="FHIR VZD.Organization_type" id="ent0013" data-source-line="45"><rect x="789.13" y="291.55" width="325.735" height="96.891" fill="#F1F1F1" style="stroke:#181818;stroke-width:0.5;" rx="2.5" ry="2.5"/><ellipse cx="883.736" cy="307.55" rx="11" ry="11" fill="#ADD1B2" style="stroke:#181818;stroke-width:1;"/><path d="M886.705,313.191 Q886.127,313.487 885.486,313.628 Q884.845,313.784 884.142,313.784 Q881.642,313.784 880.314,312.144 Q879.002,310.487 879.002,307.362 Q879.002,304.237 880.314,302.581 Q881.642,300.925 884.142,300.925 Q884.845,300.925 885.486,301.081 Q886.142,301.237 886.705,301.534 L886.705,304.253 Q886.08,303.675 885.486,303.409 Q884.892,303.128 884.267,303.128 Q882.923,303.128 882.236,304.206 Q881.548,305.269 881.548,307.362 Q881.548,309.456 882.236,310.534 Q882.923,311.597 884.267,311.597 Q884.892,311.597 885.486,311.331 Q886.08,311.05 886.705,310.472 L886.705,313.191 Z " fill="#000"/><text x="904.236" y="312.397" fill="#000" font-size="14" textLength="128.023">Organization_type</text><line x1="790.13" y1="323.55" x2="1113.865" y2="323.55" style="stroke:#181818;stroke-width:0.5;"/><g data-visibility-modifier="PUBLIC_FIELD"><ellipse cx="800.13" cy="337.198" rx="3" ry="3" fill="none" style="stroke:#038048;stroke-width:1;"/></g><text x="809.13" y="340.545" fill="#000" font-size="14" textLength="124.681">1.2.276.0.76.4.54</text><text x="951.536" y="340.545" fill="#000" font-size="14" textLength="147.991">Öffentliche Apotheke</text><g data-visibility-modifier="PUBLIC_FIELD"><ellipse cx="800.13" cy="353.495" rx="3" ry="3" fill="none" style="stroke:#038048;stroke-width:1;"/></g><text x="809.13" y="356.842" fill="#000" font-size="14" textLength="124.681">1.2.276.0.76.4.55</text><text x="951.536" y="356.842" fill="#000" font-size="14" textLength="157.329">Krankenhausapotheke</text><g data-visibility-modifier="PUBLIC_FIELD"><ellipse cx="800.13" cy="369.792" rx="3" ry="3" fill="none" style="stroke:#038048;stroke-width:1;"/></g><text x="809.13" y="373.139" fill="#000" font-size="14" textLength="124.681">1.2.276.0.76.4.56</text><text x="951.536" y="373.139" fill="#000" font-size="14" textLength="152.564">Bundeswehrapotheke</text><line x1="790.13" y1="380.441" x2="1113.865" y2="380.441" style="stroke:#181818;stroke-width:0.5;"/></g><!--class HealthcareService_characteristic--><g class="entity" data-qualified-name="FHIR VZD.HealthcareService_characteristic" id="ent0014" data-source-line="51"><rect x="1158" y="251" width="262.658" height="178.375" fill="#F1F1F1" style="stroke:#181818;stroke-width:0.5;" rx="2.5" ry="2.5"/><ellipse cx="1173" cy="267" rx="11" ry="11" fill="#ADD1B2" style="stroke:#181818;stroke-width:1;"/><path d="M1175.969,272.641 Q1175.391,272.938 1174.75,273.078 Q1174.109,273.234 1173.406,273.234 Q1170.906,273.234 1169.578,271.594 Q1168.266,269.938 1168.266,266.813 Q1168.266,263.688 1169.578,262.031 Q1170.906,260.375 1173.406,260.375 Q1174.109,260.375 1174.75,260.531 Q1175.406,260.688 1175.969,260.984 L1175.969,263.703 Q1175.344,263.125 1174.75,262.859 Q1174.156,262.578 1173.531,262.578 Q1172.188,262.578 1171.5,263.656 Q1170.813,264.719 1170.813,266.813 Q1170.813,268.906 1171.5,269.984 Q1172.188,271.047 1173.531,271.047 Q1174.156,271.047 1174.75,270.781 Q1175.344,270.5 1175.969,269.922 L1175.969,272.641 Z " fill="#000"/><text x="1187" y="271.847" fill="#000" font-size="14" textLength="230.658">HealthcareService_characteristic</text><line x1="1159" y1="283" x2="1419.658" y2="283" style="stroke:#181818;stroke-width:0.5;"/><g data-visibility-modifier="PUBLIC_FIELD"><ellipse cx="1169" cy="296.648" rx="3" ry="3" fill="none" style="stroke:#038048;stroke-width:1;"/></g><text x="1178" y="299.995" fill="#000" font-size="14" textLength="145.838">eRX_Token_Receiver</text><g data-visibility-modifier="PUBLIC_FIELD"><ellipse cx="1169" cy="312.945" rx="3" ry="3" fill="none" style="stroke:#038048;stroke-width:1;"/></g><text x="1178" y="316.292" fill="#000" font-size="14" textLength="231.191">Apotheke_Verfügbarkeitsanfrage</text><g data-visibility-modifier="PUBLIC_FIELD"><ellipse cx="1169" cy="329.242" rx="3" ry="3" fill="none" style="stroke:#038048;stroke-width:1;"/></g><text x="1178" y="332.589" fill="#000" font-size="14" textLength="195.159">Apotheken_Ident_Verfahren</text><g data-visibility-modifier="PUBLIC_FIELD"><ellipse cx="1169" cy="345.539" rx="3" ry="3" fill="none" style="stroke:#038048;stroke-width:1;"/></g><text x="1178" y="348.886" fill="#000" font-size="14" textLength="110.284">Terminbuchung</text><g data-visibility-modifier="PRIVATE_FIELD"><rect x="1166" y="358.836" width="6" height="6" fill="none" style="stroke:#C82930;stroke-width:1;"/></g><text x="1178" y="365.183" fill="#000" font-size="14" textLength="112.424">Parkmöglichkeit</text><g data-visibility-modifier="PRIVATE_FIELD"><rect x="1166" y="375.133" width="6" height="6" fill="none" style="stroke:#C82930;stroke-width:1;"/></g><text x="1178" y="381.479" fill="#000" font-size="14" textLength="133.068">ÖPNV_in_der_Nähe</text><g data-visibility-modifier="PRIVATE_FIELD"><rect x="1166" y="391.43" width="6" height="6" fill="none" style="stroke:#C82930;stroke-width:1;"/></g><text x="1178" y="397.776" fill="#000" font-size="14" textLength="79.755">Barrierefrei</text><g data-visibility-modifier="PRIVATE_FIELD"><rect x="1166" y="407.727" width="6" height="6" fill="none" style="stroke:#C82930;stroke-width:1;"/></g><text x="1178" y="414.073" fill="#000" font-size="14" textLength="99.005">Abholautomat</text><line x1="1159" y1="421.375" x2="1419.658" y2="421.375" style="stroke:#181818;stroke-width:0.5;"/></g><!--class Endpoint--><g class="entity" data-qualified-name="FHIR VZD.Endpoint" id="ent0015" data-source-line="62"><rect x="1282.5" y="712" width="137.474" height="96.891" fill="#F1F1F1" style="stroke:#181818;stroke-width:0.5;" rx="2.5" ry="2.5"/><ellipse cx="1316.924" cy="728" rx="11" ry="11" fill="#ADD1B2" style="stroke:#181818;stroke-width:1;"/><path d="M1319.893,733.641 Q1319.314,733.938 1318.674,734.078 Q1318.033,734.234 1317.33,734.234 Q1314.83,734.234 1313.502,732.594 Q1312.189,730.938 1312.189,727.813 Q1312.189,724.688 1313.502,723.031 Q1314.83,721.375 1317.33,721.375 Q1318.033,721.375 1318.674,721.531 Q1319.33,721.688 1319.893,721.984 L1319.893,724.703 Q1319.268,724.125 1318.674,723.859 Q1318.08,723.578 1317.455,723.578 Q1316.111,723.578 1315.424,724.656 Q1314.736,725.719 1314.736,727.813 Q1314.736,729.906 1315.424,730.984 Q1316.111,732.047 1317.455,732.047 Q1318.08,732.047 1318.674,731.781 Q1319.268,731.5 1319.893,730.922 L1319.893,733.641 Z " fill="#000"/><text x="1335.24" y="732.847" fill="#000" font-size="14" textLength="62.31">Endpoint</text><line x1="1283.5" y1="744" x2="1418.974" y2="744" style="stroke:#181818;stroke-width:0.5;"/><g data-visibility-modifier="PUBLIC_FIELD"><ellipse cx="1293.5" cy="757.648" rx="3" ry="3" fill="none" style="stroke:#038048;stroke-width:1;"/></g><text x="1302.5" y="760.995" fill="#000" font-size="14" textLength="111.474">connectionType</text><g data-visibility-modifier="PUBLIC_FIELD"><ellipse cx="1293.5" cy="773.945" rx="3" ry="3" fill="none" style="stroke:#038048;stroke-width:1;"/></g><text x="1302.5" y="777.292" fill="#000" font-size="14" textLength="90.009">payloadType</text><g data-visibility-modifier="PUBLIC_FIELD"><ellipse cx="1293.5" cy="790.242" rx="3" ry="3" fill="none" style="stroke:#038048;stroke-width:1;"/></g><text x="1302.5" y="793.589" fill="#000" font-size="14" textLength="55.31">address</text><line x1="1283.5" y1="800.891" x2="1418.974" y2="800.891" style="stroke:#181818;stroke-width:0.5;"/></g><!--class ApoVZD_Mehrwertdaten--><g class="entity" data-qualified-name="ApoVZD.ApoVZD_Mehrwertdaten" id="ent0017" data-source-line="72"><rect x="1344" y="46" width="264.834" height="113.188" fill="#F1F1F1" style="stroke:#181818;stroke-width:0.5;" rx="2.5" ry="2.5"/><ellipse cx="1386.803" cy="62" rx="11" ry="11" fill="#ADD1B2" style="stroke:#181818;stroke-width:1;"/><path d="M1389.772,67.641 Q1389.194,67.938 1388.553,68.078 Q1387.913,68.234 1387.21,68.234 Q1384.71,68.234 1383.381,66.594 Q1382.069,64.938 1382.069,61.813 Q1382.069,58.688 1383.381,57.031 Q1384.71,55.375 1387.21,55.375 Q1387.913,55.375 1388.553,55.531 Q1389.21,55.688 1389.772,55.984 L1389.772,58.703 Q1389.147,58.125 1388.553,57.859 Q1387.96,57.578 1387.335,57.578 Q1385.991,57.578 1385.303,58.656 Q1384.616,59.719 1384.616,61.813 Q1384.616,63.906 1385.303,64.984 Q1385.991,66.047 1387.335,66.047 Q1387.96,66.047 1388.553,65.781 Q1389.147,65.5 1389.772,64.922 L1389.772,67.641 Z " fill="#000"/><text x="1406.982" y="66.847" fill="#000" font-size="14" textLength="171.049">ApoVZD_Mehrwertdaten</text><line x1="1345" y1="78" x2="1607.834" y2="78" style="stroke:#181818;stroke-width:0.5;"/><g data-visibility-modifier="PUBLIC_FIELD"><ellipse cx="1355" cy="91.648" rx="3" ry="3" fill="none" style="stroke:#038048;stroke-width:1;"/></g><text x="1364" y="94.995" fill="#000" font-size="14" textLength="124.079">Apotheke_PHARM</text><g data-visibility-modifier="PUBLIC_FIELD"><ellipse cx="1355" cy="107.945" rx="3" ry="3" fill="none" style="stroke:#038048;stroke-width:1;"/></g><text x="1364" y="111.292" fill="#000" font-size="14" textLength="235.792">Apotheke_mit_Offizin_OUTPHARM</text><g data-visibility-modifier="PUBLIC_FIELD"><ellipse cx="1355" cy="124.242" rx="3" ry="3" fill="none" style="stroke:#038048;stroke-width:1;"/></g><text x="1364" y="127.589" fill="#000" font-size="14" textLength="170.81">Versandapotheke_MOBL</text><g data-visibility-modifier="PUBLIC_FIELD"><ellipse cx="1355" cy="140.539" rx="3" ry="3" fill="none" style="stroke:#038048;stroke-width:1;"/></g><text x="1364" y="143.886" fill="#000" font-size="14" textLength="238.834">eRX_Token_Receiver_DELEGATOR</text><line x1="1345" y1="151.188" x2="1607.834" y2="151.188" style="stroke:#181818;stroke-width:0.5;"/></g><!--class ApoVZD_Location_telecom--><g class="entity" data-qualified-name="ApoVZD.ApoVZD_Location_telecom" id="ent0018" data-source-line="79"><rect x="1659" y="54.5" width="218.942" height="96.891" fill="#F1F1F1" style="stroke:#181818;stroke-width:0.5;" rx="2.5" ry="2.5"/><ellipse cx="1674" cy="70.5" rx="11" ry="11" fill="#ADD1B2" style="stroke:#181818;stroke-width:1;"/><path d="M1676.969,76.141 Q1676.391,76.438 1675.75,76.578 Q1675.109,76.734 1674.406,76.734 Q1671.906,76.734 1670.578,75.094 Q1669.266,73.438 1669.266,70.313 Q1669.266,67.188 1670.578,65.531 Q1671.906,63.875 1674.406,63.875 Q1675.109,63.875 1675.75,64.031 Q1676.406,64.188 1676.969,64.484 L1676.969,67.203 Q1676.344,66.625 1675.75,66.359 Q1675.156,66.078 1674.531,66.078 Q1673.188,66.078 1672.5,67.156 Q1671.813,68.219 1671.813,70.313 Q1671.813,72.406 1672.5,73.484 Q1673.188,74.547 1674.531,74.547 Q1675.156,74.547 1675.75,74.281 Q1676.344,74 1676.969,73.422 L1676.969,76.141 Z " fill="#000"/><text x="1688" y="75.347" fill="#000" font-size="14" textLength="186.942">ApoVZD_Location_telecom</text><line x1="1660" y1="86.5" x2="1876.942" y2="86.5" style="stroke:#181818;stroke-width:0.5;"/><g data-visibility-modifier="PUBLIC_FIELD"><ellipse cx="1670" cy="100.148" rx="3" ry="3" fill="none" style="stroke:#038048;stroke-width:1;"/></g><text x="1679" y="103.495" fill="#000" font-size="14" textLength="108.459">onPremise_URL</text><g data-visibility-modifier="PUBLIC_FIELD"><ellipse cx="1670" cy="116.445" rx="3" ry="3" fill="none" style="stroke:#038048;stroke-width:1;"/></g><text x="1679" y="119.792" fill="#000" font-size="14" textLength="90.993">delivery_URL</text><g data-visibility-modifier="PUBLIC_FIELD"><ellipse cx="1670" cy="132.742" rx="3" ry="3" fill="none" style="stroke:#038048;stroke-width:1;"/></g><text x="1679" y="136.089" fill="#000" font-size="14" textLength="100.974">shipment_URP</text><line x1="1660" y1="143.391" x2="1876.942" y2="143.391" style="stroke:#181818;stroke-width:0.5;"/></g><!--link specialization to HealthcareService_type--><g class="link" data-entity-1="ent0002" data-entity-2="ent0012" id="lnk19" data-source-line="88" data-link-type="dependency"><path d="M445.53,162.93 C476.14,194.54 510.532,230.058 542.802,263.388" style="stroke:#F00;stroke-width:4;" fill="none" id="specialization-to-HealthcareService_type" codeLine="88"/><polygon points="546.28,266.98,542.893,257.732,542.802,263.388,537.146,263.296,546.28,266.98" fill="#F00" style="stroke:#F00;stroke-width:4;stroke-linejoin:miter;stroke-miterlimit:10;"/></g><!--link professionOID to Organization_type--><g class="link" data-entity-1="ent0006" data-entity-2="ent0013" id="lnk20" data-source-line="89" data-link-type="dependency"><path d="M787.94,151.44 C823.58,192.19 871.208,246.636 906.828,287.366" style="stroke:#F00;stroke-width:4;" fill="none" id="professionOID-to-Organization_type" codeLine="89"/><polygon points="910.12,291.13,907.206,281.722,906.828,287.366,901.184,286.988,910.12,291.13" fill="#F00" style="stroke:#F00;stroke-width:4;stroke-linejoin:miter;stroke-miterlimit:10;"/></g><!--link specialization to HealthcareService_specialty--><g class="link" data-entity-1="ent0002" data-entity-2="ent0008" id="lnk21" data-source-line="90" data-link-type="dependency"><path d="M235,90 C190.48,90 243.86,158.09 210,187 C195.74,199.18 138.61,181.13 126,195 C40.78,288.72 74.52,364.27 126,480 C147.04,527.3 155.73,558 207.5,558" style="stroke:#008000;stroke-width:1;" fill="none" id="specialization-to-HealthcareService_specialty" codeLine="90"/><polygon points="212.5,558,203.5,554,207.5,558,203.5,562,212.5,558" fill="#008000" style="stroke:#008000;stroke-width:1;stroke-linejoin:miter;stroke-miterlimit:10;"/></g><!--link specialization to HealthcareService_specialty--><g class="link" data-entity-1="ent0002" data-entity-2="ent0008" id="lnk22" data-source-line="91" data-link-type="dependency"><path d="M235,138 C210.55,138 225.61,168.18 210,187 C202.11,196.51 193.45,192.91 188,204 C148.55,284.34 118,606 207.5,606" style="stroke:#00F;stroke-width:1;" fill="none" id="specialization-to-HealthcareService_specialty-1" codeLine="91"/><polygon points="212.5,606,203.5,602,207.5,606,203.5,610,212.5,606" fill="#00F" style="stroke:#00F;stroke-width:1;stroke-linejoin:miter;stroke-miterlimit:10;"/></g><!--link ApoVZD_Mehrwertdaten to HealthcareService_specialty--><g class="link" data-entity-1="ent0017" data-entity-2="ent0008" id="lnk23" data-source-line="94" data-link-type="dependency"><path d="M1609,106 C1634.34,106 1622.48,142.21 1608,163 C1585.65,195.11 1552.99,166.68 1526,195 C1449,275.77 1532.4,362.37 1446,433 C1359.09,504.04 560.75,558 448.5,558" style="stroke:#008000;stroke-width:1;" fill="none" id="ApoVZD_Mehrwertdaten-to-HealthcareService_specialty" codeLine="94"/><polygon points="443.5,558,452.5,562,448.5,558,452.5,554,443.5,558" fill="#008000" style="stroke:#008000;stroke-width:1;stroke-linejoin:miter;stroke-miterlimit:10;"/></g><!--link ApoVZD_Mehrwertdaten to HealthcareService_specialty--><g class="link" data-entity-1="ent0017" data-entity-2="ent0008" id="lnk24" data-source-line="95" data-link-type="dependency"><path d="M1609,122 C1627.23,122 1611.43,145.1 1608,163 C1607.25,166.93 1510.91,430.26 1508,433 C1349.82,581.65 1643.19,606 448.5,606" style="stroke:#00F;stroke-width:1;" fill="none" id="ApoVZD_Mehrwertdaten-to-HealthcareService_specialty-1" codeLine="95"/><polygon points="443.5,606,452.5,610,448.5,606,452.5,602,443.5,606" fill="#00F" style="stroke:#00F;stroke-width:1;stroke-linejoin:miter;stroke-miterlimit:10;"/></g><!--link ApoVZD_Mehrwertdaten to HealthcareService_characteristic--><g class="link" data-entity-1="ent0017" data-entity-2="ent0014" id="lnk25" data-source-line="96" data-link-type="dependency"><path d="M1343,138 C1331.88,138 1339.8,152.71 1344,163 C1363.03,209.61 1401.41,200.21 1420,247 C1427.88,266.83 1447.34,295 1426,295" style="stroke:#A0522D;stroke-width:1;" fill="none" id="ApoVZD_Mehrwertdaten-to-HealthcareService_characteristic" codeLine="96"/><polygon points="1421,295,1430,299,1426,295,1430,291,1421,295" fill="#A0522D" style="stroke:#A0522D;stroke-width:1;stroke-linejoin:miter;stroke-miterlimit:10;"/></g><!--link ApoVZD_Location_telecom to Endpoint--><g class="link" data-entity-1="ent0018" data-entity-2="ent0015" id="lnk26" data-source-line="99" data-link-type="dependency"><path d="M1658,98.5 C1633.11,98.5 1656.24,129.76 1659,154.5 C1675.36,301.03 1749.23,334.91 1723,480 C1688.87,668.81 1617.37,788 1425.5,788" style="stroke:#000;stroke-width:1;" fill="none" id="ApoVZD_Location_telecom-to-Endpoint" codeLine="99"/><polygon points="1420.5,788,1429.5,792,1425.5,788,1429.5,784,1420.5,788" fill="#000" style="stroke:#000;stroke-width:1;stroke-linejoin:miter;stroke-miterlimit:10;"/><text x="1726.43" y="476.067" fill="#000" font-size="13" textLength="25.791">URL</text></g><!--link ApoVZD_Location_telecom to Endpoint--><g class="link" data-entity-1="ent0018" data-entity-2="ent0015" id="lnk27" data-source-line="100" data-link-type="dependency"><path d="M1658,98.5 C1653.22,98.5 1578.61,428.5 1577,433 C1523.14,583.15 1585.02,756 1425.5,756" style="stroke:#000;stroke-width:1;" fill="none" id="ApoVZD_Location_telecom-to-Endpoint-1" codeLine="100"/><polygon points="1420.5,756,1429.5,760,1425.5,756,1429.5,752,1420.5,756" fill="#000" style="stroke:#000;stroke-width:1;stroke-linejoin:miter;stroke-miterlimit:10;"/><text x="1568.68" y="476.067" fill="#000" font-size="13" textLength="97.982">eRP-onPremise</text></g><!--link ApoVZD_Location_telecom to Endpoint--><g class="link" data-entity-1="ent0018" data-entity-2="ent0015" id="lnk28" data-source-line="101" data-link-type="dependency"><path d="M1878,98.5 C1923.84,98.5 2101.36,114.82 1720,647 C1656.72,735.3 1536.9,772 1425.5,772" style="stroke:#000;stroke-width:1;" fill="none" id="ApoVZD_Location_telecom-to-Endpoint-2" codeLine="101"/><polygon points="1420.5,772,1429.5,776,1425.5,772,1429.5,768,1420.5,772" fill="#000" style="stroke:#000;stroke-width:1;stroke-linejoin:miter;stroke-miterlimit:10;"/><text x="1843.18" y="476.067" fill="#000" font-size="13" textLength="92.65">not-applicable</text></g><!--link HealthcareService_type to Endpoint--><?plantuml-src pLN1Jjj043tZhrZ1eGUQAAL09OiY9Gqqg42Y451LX5QRzJXUnTwrrXjGgFWDlg3Vq5Dl-R7EsavY1oUL48TU8cKy-sRUlBUpCUDZDWAoVTvkziZDZ_OsEJewrIo2usEo4ufHO4OQG9AV3WzPaf0a1YvOA1wP4Sg6Tyc71ktwlk12qcQiJ01ZmEXUWtxJJ8v11coIt8DEb1w1zA2OzB51Eo2YDL_t6_G6lp3fiJn8YFFaE8H8PO24u1kY_9MMy2lf1Kn7Z4y7qnWiiIzN64Nqz1oUpwZ4MlcG97YcUzP69dWGoTJtwdkV3kkDElxirm_sjsRFlW_IX887G1RTLIOVR1KeiusfXrkj2T9D7Y3GXSmd9wCOptKvxPprgtMPGXYg1zjtHgS3B3G1PngkGDyB3ZGVZ9ccv5AXEZXCdFQOJVmqX2fTCXuOYitGIsKy0J8nwIVKfeNZaeNGKf3qxq63NXdG8WmmQB2TYHmHXomLCYgs0ctep5cALSZA1JNJad0ucVLS3KgTqxHcV1IoLj1gbrHxSQ7dLffKASakMR4eAG6lE3IDlPXADfIizwuUCPcRTTdsVsAzjVFbg1BZbbTY19-t3FtlTA2mAkq31u53okBpNgrT_DcVqP3fCGY3W_8rshgS9EcPXopJN1PeaDdd0UX8oE641-a02QcH7i94izyZEn2BbqLdpxtB6uhRnmDDBsU_0iZYBQQr00s-1f55ciD0XMnYLCHCoXX_Ci8dqekLa6PEZ2ifWLk9x0x9OZ6RXefvom3pF8qBP8vKlBV83I_jYpix32UmlB5P4hr07Hv06u-PTD6M1jZhDFiNvL0a3CqzJhlNWsN6YXNfHRTrxbJBHDidvoTVcuDklsZDlA5pnNDtGWXSHNbFIlOqH281UjtFS3q8BTXq4KW24KTMo-j-3u59FfLt97rUsfQWi_A2r6vtD7ZlJI3uME8qF-_VrOxNN72dlBAhZxwuNoiLNRVYmR9OwKDNNNonhzB3nIMwYbtrPY6s5VwVq8NrYYFBBLHoXrDb6TVTQ8rNKwkkLMMorp2iHj_aL5lb2XyZoQhhb5TK5POTwn8EJPiuQoplkYMtPmJnRjzfUusn_7nXk6w-1OXh0Ty0hxnw47OR-htQulZs6vGeR3ABZuzhZSKnRbKs3B60lQzigYR6MVFErcu3uNdMKGLOvoy0?></g></svg>