<svg xmlns="http://www.w3.org/2000/svg" xmlns:xlink="http://www.w3.org/1999/xlink" contentStyleType="text/css" height="294px" preserveAspectRatio="none" style="width:451px;height:294px;background:#FFFFFF;" version="1.1" viewBox="0 0 451 294" width="451px" zoomAndPan="magnify"><defs/><g><!--class Organization--><g id="elem_Organization"><rect codeLine="2" fill="#F1F1F1" height="48" id="Organization" rx="2.5" ry="2.5" style="stroke:#181818;stroke-width:0.5;" width="119" x="188.5" y="7"/><ellipse cx="203.5" cy="23" fill="#ADD1B2" rx="11" ry="11" style="stroke:#181818;stroke-width:1.0;"/><path d="M206.4688,28.6406 Q205.8906,28.9375 205.25,29.0781 Q204.6094,29.2344 203.9063,29.2344 Q201.4063,29.2344 200.0781,27.5938 Q198.7656,25.9375 198.7656,22.8125 Q198.7656,19.6875 200.0781,18.0313 Q201.4063,16.375 203.9063,16.375 Q204.6094,16.375 205.25,16.5313 Q205.9063,16.6875 206.4688,16.9844 L206.4688,19.7031 Q205.8438,19.125 205.25,18.8594 Q204.6563,18.5781 204.0313,18.5781 Q202.6875,18.5781 202,19.6563 Q201.3125,20.7188 201.3125,22.8125 Q201.3125,24.9063 202,25.9844 Q202.6875,27.0469 204.0313,27.0469 Q204.6563,27.0469 205.25,26.7813 Q205.8438,26.5 206.4688,25.9219 L206.4688,28.6406 Z " fill="#000000"/><text fill="#000000" font-family="sans-serif" font-size="14" lengthAdjust="spacing" textLength="87" x="217.5" y="27.8467">Organization</text><line style="stroke:#181818;stroke-width:0.5;" x1="189.5" x2="306.5" y1="39" y2="39"/><line style="stroke:#181818;stroke-width:0.5;" x1="189.5" x2="306.5" y1="47" y2="47"/></g><!--class HealthcareService--><g id="elem_HealthcareService"><rect codeLine="6" fill="#F1F1F1" height="64.2969" id="HealthcareService" rx="2.5" ry="2.5" style="stroke:#181818;stroke-width:0.5;" width="168" x="59" y="115"/><ellipse cx="79.4" cy="131" fill="#ADD1B2" rx="11" ry="11" style="stroke:#181818;stroke-width:1.0;"/><path d="M82.3688,136.6406 Q81.7906,136.9375 81.15,137.0781 Q80.5094,137.2344 79.8063,137.2344 Q77.3063,137.2344 75.9781,135.5938 Q74.6656,133.9375 74.6656,130.8125 Q74.6656,127.6875 75.9781,126.0313 Q77.3063,124.375 79.8063,124.375 Q80.5094,124.375 81.15,124.5313 Q81.8063,124.6875 82.3688,124.9844 L82.3688,127.7031 Q81.7438,127.125 81.15,126.8594 Q80.5563,126.5781 79.9313,126.5781 Q78.5875,126.5781 77.9,127.6563 Q77.2125,128.7188 77.2125,130.8125 Q77.2125,132.9063 77.9,133.9844 Q78.5875,135.0469 79.9313,135.0469 Q80.5563,135.0469 81.15,134.7813 Q81.7438,134.5 82.3688,133.9219 L82.3688,136.6406 Z " fill="#000000"/><text fill="#000000" font-family="sans-serif" font-size="14" lengthAdjust="spacing" textLength="124" x="94.6" y="135.8467">HealthcareService</text><line style="stroke:#181818;stroke-width:0.5;" x1="60" x2="226" y1="147" y2="147"/><text fill="#000000" font-family="sans-serif" font-size="14" lengthAdjust="spacing" textLength="156" x="65" y="163.9951">meta.tag.origin ("ldap")</text><line style="stroke:#181818;stroke-width:0.5;" x1="60" x2="226" y1="171.2969" y2="171.2969"/></g><!--class HealthcareService_n--><g id="elem_HealthcareService_n"><rect codeLine="10" fill="#F1F1F1" height="64.2969" id="HealthcareService_n" rx="2.5" ry="2.5" style="stroke:#181818;stroke-width:0.5;" width="182" x="262" y="115"/><ellipse cx="281.5" cy="131" fill="#ADD1B2" rx="11" ry="11" style="stroke:#181818;stroke-width:1.0;"/><path d="M284.4688,136.6406 Q283.8906,136.9375 283.25,137.0781 Q282.6094,137.2344 281.9063,137.2344 Q279.4063,137.2344 278.0781,135.5938 Q276.7656,133.9375 276.7656,130.8125 Q276.7656,127.6875 278.0781,126.0313 Q279.4063,124.375 281.9063,124.375 Q282.6094,124.375 283.25,124.5313 Q283.9063,124.6875 284.4688,124.9844 L284.4688,127.7031 Q283.8438,127.125 283.25,126.8594 Q282.6563,126.5781 282.0313,126.5781 Q280.6875,126.5781 280,127.6563 Q279.3125,128.7188 279.3125,130.8125 Q279.3125,132.9063 280,133.9844 Q280.6875,135.0469 282.0313,135.0469 Q282.6563,135.0469 283.25,134.7813 Q283.8438,134.5 284.4688,133.9219 L284.4688,136.6406 Z " fill="#000000"/><text fill="#000000" font-family="sans-serif" font-size="14" lengthAdjust="spacing" textLength="140" x="296.5" y="135.8467">HealthcareService_n</text><line style="stroke:#181818;stroke-width:0.5;" x1="263" x2="443" y1="147" y2="147"/><text fill="#000000" font-family="sans-serif" font-size="14" lengthAdjust="spacing" textLength="170" x="268" y="163.9951">meta.tag.origin ("owner")</text><line style="stroke:#181818;stroke-width:0.5;" x1="263" x2="443" y1="171.2969" y2="171.2969"/></g><!--class Endpoint--><g id="elem_Endpoint"><rect codeLine="14" fill="#F1F1F1" height="48" id="Endpoint" rx="2.5" ry="2.5" style="stroke:#181818;stroke-width:0.5;" width="94" x="7" y="239.3"/><ellipse cx="22" cy="255.3" fill="#ADD1B2" rx="11" ry="11" style="stroke:#181818;stroke-width:1.0;"/><path d="M24.9688,260.9406 Q24.3906,261.2375 23.75,261.3781 Q23.1094,261.5344 22.4063,261.5344 Q19.9063,261.5344 18.5781,259.8938 Q17.2656,258.2375 17.2656,255.1125 Q17.2656,251.9875 18.5781,250.3313 Q19.9063,248.675 22.4063,248.675 Q23.1094,248.675 23.75,248.8313 Q24.4063,248.9875 24.9688,249.2844 L24.9688,252.0031 Q24.3438,251.425 23.75,251.1594 Q23.1563,250.8781 22.5313,250.8781 Q21.1875,250.8781 20.5,251.9563 Q19.8125,253.0188 19.8125,255.1125 Q19.8125,257.2063 20.5,258.2844 Q21.1875,259.3469 22.5313,259.3469 Q23.1563,259.3469 23.75,259.0813 Q24.3438,258.8 24.9688,258.2219 L24.9688,260.9406 Z " fill="#000000"/><text fill="#000000" font-family="sans-serif" font-size="14" lengthAdjust="spacing" textLength="62" x="36" y="260.1467">Endpoint</text><line style="stroke:#181818;stroke-width:0.5;" x1="8" x2="100" y1="271.3" y2="271.3"/><line style="stroke:#181818;stroke-width:0.5;" x1="8" x2="100" y1="279.3" y2="279.3"/></g><!--class Location--><g id="elem_Location"><rect codeLine="17" fill="#F1F1F1" height="48" id="Location" rx="2.5" ry="2.5" style="stroke:#181818;stroke-width:0.5;" width="90" x="136" y="239.3"/><ellipse cx="151" cy="255.3" fill="#ADD1B2" rx="11" ry="11" style="stroke:#181818;stroke-width:1.0;"/><path d="M153.9688,260.9406 Q153.3906,261.2375 152.75,261.3781 Q152.1094,261.5344 151.4063,261.5344 Q148.9063,261.5344 147.5781,259.8938 Q146.2656,258.2375 146.2656,255.1125 Q146.2656,251.9875 147.5781,250.3313 Q148.9063,248.675 151.4063,248.675 Q152.1094,248.675 152.75,248.8313 Q153.4063,248.9875 153.9688,249.2844 L153.9688,252.0031 Q153.3438,251.425 152.75,251.1594 Q152.1563,250.8781 151.5313,250.8781 Q150.1875,250.8781 149.5,251.9563 Q148.8125,253.0188 148.8125,255.1125 Q148.8125,257.2063 149.5,258.2844 Q150.1875,259.3469 151.5313,259.3469 Q152.1563,259.3469 152.75,259.0813 Q153.3438,258.8 153.9688,258.2219 L153.9688,260.9406 Z " fill="#000000"/><text fill="#000000" font-family="sans-serif" font-size="14" lengthAdjust="spacing" textLength="58" x="165" y="260.1467">Location</text><line style="stroke:#181818;stroke-width:0.5;" x1="137" x2="225" y1="271.3" y2="271.3"/><line style="stroke:#181818;stroke-width:0.5;" x1="137" x2="225" y1="279.3" y2="279.3"/></g><!--class Endpoint_n--><g id="elem_Endpoint_n"><rect fill="#F1F1F1" height="48" id="Endpoint_n" rx="2.5" ry="2.5" style="stroke:#181818;stroke-width:0.5;" width="110" x="298" y="239.3"/><ellipse cx="313" cy="255.3" fill="#ADD1B2" rx="11" ry="11" style="stroke:#181818;stroke-width:1.0;"/><path d="M315.9688,260.9406 Q315.3906,261.2375 314.75,261.3781 Q314.1094,261.5344 313.4063,261.5344 Q310.9063,261.5344 309.5781,259.8938 Q308.2656,258.2375 308.2656,255.1125 Q308.2656,251.9875 309.5781,250.3313 Q310.9063,248.675 313.4063,248.675 Q314.1094,248.675 314.75,248.8313 Q315.4063,248.9875 315.9688,249.2844 L315.9688,252.0031 Q315.3438,251.425 314.75,251.1594 Q314.1563,250.8781 313.5313,250.8781 Q312.1875,250.8781 311.5,251.9563 Q310.8125,253.0188 310.8125,255.1125 Q310.8125,257.2063 311.5,258.2844 Q312.1875,259.3469 313.5313,259.3469 Q314.1563,259.3469 314.75,259.0813 Q315.3438,258.8 315.9688,258.2219 L315.9688,260.9406 Z " fill="#000000"/><text fill="#000000" font-family="sans-serif" font-size="14" lengthAdjust="spacing" textLength="78" x="327" y="260.1467">Endpoint_n</text><line style="stroke:#181818;stroke-width:0.5;" x1="299" x2="407" y1="271.3" y2="271.3"/><line style="stroke:#181818;stroke-width:0.5;" x1="299" x2="407" y1="279.3" y2="279.3"/></g><!--reverse link Organization to HealthcareService--><g id="link_Organization_HealthcareService"><path codeLine="20" d="M222.4381,59.7959 C206.7181,76.8859 189.28,95.84 172.04,114.58 " fill="none" id="Organization-backto-HealthcareService" style="stroke:#181818;stroke-width:1.0;"/><polygon fill="#181818" points="226.5,55.38,217.4631,59.296,223.115,59.06,223.351,64.7119,226.5,55.38" style="stroke:#181818;stroke-width:1.0;"/></g><!--link HealthcareService to Endpoint--><g id="link_HealthcareService_Endpoint"><path codeLine="21" d="M118.44,179.65 C103.83,198.39 89.2892,217.0382 75.9492,234.1482 " fill="none" id="HealthcareService-to-Endpoint" style="stroke:#181818;stroke-width:1.0;"/><polygon fill="#181818" points="72.26,238.88,80.9483,234.2418,75.3343,234.9368,74.6393,229.3229,72.26,238.88" style="stroke:#181818;stroke-width:1.0;"/></g><!--link HealthcareService to Location--><g id="link_HealthcareService_Location"><path codeLine="22" d="M153.48,179.65 C159.72,198.39 165.6166,216.0766 171.3066,233.1866 " fill="none" id="HealthcareService-to-Location" style="stroke:#181818;stroke-width:1.0;"/><polygon fill="#181818" points="173.2,238.88,174.1556,229.0776,171.6222,234.1355,166.5643,231.6021,173.2,238.88" style="stroke:#181818;stroke-width:1.0;"/></g><!--reverse link Organization to HealthcareService_n--><g id="link_Organization_HealthcareService_n"><path codeLine="24" d="M273.5619,59.7959 C289.2819,76.8859 306.72,95.84 323.96,114.58 " fill="none" id="Organization-backto-HealthcareService_n" style="stroke:#181818;stroke-width:1.0;"/><polygon fill="#181818" points="269.5,55.38,272.649,64.7119,272.885,59.06,278.5369,59.296,269.5,55.38" style="stroke:#181818;stroke-width:1.0;"/></g><!--link HealthcareService_n to Endpoint_n--><g id="link_HealthcareService_n_Endpoint_n"><path codeLine="25" d="M353,179.65 C353,198.39 353,215.77 353,232.88 " fill="none" id="HealthcareService_n-to-Endpoint_n" style="stroke:#181818;stroke-width:1.0;"/><polygon fill="#181818" points="353,238.88,357,229.88,353,233.88,349,229.88,353,238.88" style="stroke:#181818;stroke-width:1.0;"/></g><!--SRC=[ZO_D2i9038JlUOhGanwsJo3U10-21n-WX6rS0sksR1S5Iz_TLQm_rABNJEQR6GJhgMrn6nsfN2X9KEm0Ui27icRowM0fyexZIInd6R7R2_kwnoCdAXEvCaHneZWhV4rDCS-0AN-bFmZXh1plYA73IkicYAPiV1qtmGvrRyUF1GjZni4mdcBCyWcVa8UOlo8gXMzxtsFo2-0L]--></g></svg>