<?xml version="1.0" encoding="UTF-8" standalone="no"?><svg xmlns="http://www.w3.org/2000/svg" xmlns:xlink="http://www.w3.org/1999/xlink" contentStyleType="text/css" height="701px" preserveAspectRatio="none" style="width:815px;height:701px;background:#FFFFFF;" version="1.1" viewBox="0 0 815 701" width="815px" zoomAndPan="magnify"><defs/><g><!--MD5=[2edc31ff762501c9cec4b1b863028f54]
class Practitioner--><g id="elem_Practitioner"><rect codeLine="2" fill="#F1F1F1" height="210.9688" id="Practitioner" rx="2.5" ry="2.5" style="stroke:#181818;stroke-width:0.5;" width="228" x="385.5" y="7"/><ellipse cx="456.25" cy="23" fill="#ADD1B2" rx="11" ry="11" style="stroke:#181818;stroke-width:1.0;"/><path d="M459.2188,28.6406 Q458.6406,28.9375 458,29.0781 Q457.3594,29.2344 456.6563,29.2344 Q454.1563,29.2344 452.8281,27.5938 Q451.5156,25.9375 451.5156,22.8125 Q451.5156,19.6875 452.8281,18.0313 Q454.1563,16.375 456.6563,16.375 Q457.3594,16.375 458,16.5313 Q458.6563,16.6875 459.2188,16.9844 L459.2188,19.7031 Q458.5938,19.125 458,18.8594 Q457.4063,18.5781 456.7813,18.5781 Q455.4375,18.5781 454.75,19.6563 Q454.0625,20.7188 454.0625,22.8125 Q454.0625,24.9063 454.75,25.9844 Q455.4375,27.0469 456.7813,27.0469 Q457.4063,27.0469 458,26.7813 Q458.5938,26.5 459.2188,25.9219 L459.2188,28.6406 Z " fill="#000000"/><text fill="#000000" font-family="sans-serif" font-size="14" lengthAdjust="spacing" textLength="78" x="476.75" y="27.8467">Practitioner</text><line style="stroke:#181818;stroke-width:0.5;" x1="386.5" x2="612.5" y1="39" y2="39"/><text fill="#000000" font-family="sans-serif" font-size="14" lengthAdjust="spacing" textLength="170" x="391.5" y="55.9951">identifier (1..*, MS, LDAP)</text><text fill="#000000" font-family="sans-serif" font-size="14" lengthAdjust="spacing" textLength="153" x="391.5" y="72.292">active (1..1, MS, LDAP)</text><text fill="#000000" font-family="sans-serif" font-size="14" lengthAdjust="spacing" textLength="150" x="391.5" y="88.5889">name (1..*, MS, LDAP)</text><text fill="#000000" font-family="sans-serif" font-size="14" lengthAdjust="spacing" textLength="123" x="391.5" y="104.8857">telecom (0..*, MS)</text><text fill="#000000" font-family="sans-serif" font-size="14" lengthAdjust="spacing" textLength="117" x="391.5" y="121.1826">gender (0..*, MS)</text><text fill="#000000" font-family="sans-serif" font-size="14" lengthAdjust="spacing" textLength="131" x="391.5" y="137.4795">birthDate (0..*, MS)</text><text fill="#000000" font-family="sans-serif" font-size="14" lengthAdjust="spacing" textLength="108" x="391.5" y="153.7764">photo (0..*, MS)</text><text fill="#000000" font-family="sans-serif" font-size="14" lengthAdjust="spacing" textLength="192" x="391.5" y="170.0732">qualification (0..*, MS, LDAP)</text><text fill="#000000" font-family="sans-serif" font-size="14" lengthAdjust="spacing" textLength="173" x="391.5" y="186.3701">communication (0..*, MS)</text><text fill="#000000" font-family="sans-serif" font-size="14" lengthAdjust="spacing" textLength="216" x="391.5" y="202.667">meta.tag.origin (1..1, MS, LDAP)</text><line style="stroke:#181818;stroke-width:0.5;" x1="386.5" x2="612.5" y1="209.9688" y2="209.9688"/></g><!--MD5=[7b9c16a3d4995a55b032296f71ab1184]
class PractitionerRole--><g id="elem_PractitionerRole"><rect codeLine="15" fill="#F1F1F1" height="178.375" id="PractitionerRole" rx="2.5" ry="2.5" style="stroke:#181818;stroke-width:0.5;" width="264" x="244.5" y="278"/><ellipse cx="317.75" cy="294" fill="#ADD1B2" rx="11" ry="11" style="stroke:#181818;stroke-width:1.0;"/><path d="M320.7188,299.6406 Q320.1406,299.9375 319.5,300.0781 Q318.8594,300.2344 318.1563,300.2344 Q315.6563,300.2344 314.3281,298.5938 Q313.0156,296.9375 313.0156,293.8125 Q313.0156,290.6875 314.3281,289.0313 Q315.6563,287.375 318.1563,287.375 Q318.8594,287.375 319.5,287.5313 Q320.1563,287.6875 320.7188,287.9844 L320.7188,290.7031 Q320.0938,290.125 319.5,289.8594 Q318.9063,289.5781 318.2813,289.5781 Q316.9375,289.5781 316.25,290.6563 Q315.5625,291.7188 315.5625,293.8125 Q315.5625,295.9063 316.25,296.9844 Q316.9375,298.0469 318.2813,298.0469 Q318.9063,298.0469 319.5,297.7813 Q320.0938,297.5 320.7188,296.9219 L320.7188,299.6406 Z " fill="#000000"/><text fill="#000000" font-family="sans-serif" font-size="14" lengthAdjust="spacing" textLength="109" x="338.25" y="298.8467">PractitionerRole</text><line style="stroke:#181818;stroke-width:0.5;" x1="245.5" x2="507.5" y1="310" y2="310"/><text fill="#000000" font-family="sans-serif" font-size="14" lengthAdjust="spacing" textLength="126" x="250.5" y="326.9951">identifier (1..*, MS)</text><text fill="#000000" font-family="sans-serif" font-size="14" lengthAdjust="spacing" textLength="191" x="250.5" y="343.292">practitioner (1..1, MS, LDAP)</text><text fill="#000000" font-family="sans-serif" font-size="14" lengthAdjust="spacing" textLength="165" x="250.5" y="359.5889">location (0..*, MS, LDAP)</text><text fill="#000000" font-family="sans-serif" font-size="14" lengthAdjust="spacing" textLength="190" x="250.5" y="375.8857">healthcareService (0..*, MS)</text><text fill="#000000" font-family="sans-serif" font-size="14" lengthAdjust="spacing" textLength="129" x="250.5" y="392.1826">endpoint (0..*, MS)</text><text fill="#000000" font-family="sans-serif" font-size="14" lengthAdjust="spacing" textLength="216" x="250.5" y="408.4795">meta.tag.origin (1..1, MS, LDAP)</text><text fill="#000000" font-family="sans-serif" font-size="14" lengthAdjust="spacing" textLength="219" x="250.5" y="424.7764">meta.security.ownerId (1..*, MS)</text><text fill="#000000" font-family="sans-serif" font-size="14" lengthAdjust="spacing" textLength="252" x="250.5" y="441.0732">meta.security.holder (1..*, MS, LDAP)</text><line style="stroke:#181818;stroke-width:0.5;" x1="245.5" x2="507.5" y1="448.375" y2="448.375"/></g><!--MD5=[4fd3bb6c1d79f4919f90c95b62a35422]
class Endpoint--><g id="elem_Endpoint"><rect codeLine="26" fill="#F1F1F1" height="178.375" id="Endpoint" rx="2.5" ry="2.5" style="stroke:#181818;stroke-width:0.5;" width="231" x="7" y="516"/><ellipse cx="87.25" cy="532" fill="#ADD1B2" rx="11" ry="11" style="stroke:#181818;stroke-width:1.0;"/><path d="M90.2188,537.6406 Q89.6406,537.9375 89,538.0781 Q88.3594,538.2344 87.6563,538.2344 Q85.1563,538.2344 83.8281,536.5938 Q82.5156,534.9375 82.5156,531.8125 Q82.5156,528.6875 83.8281,527.0313 Q85.1563,525.375 87.6563,525.375 Q88.3594,525.375 89,525.5313 Q89.6563,525.6875 90.2188,525.9844 L90.2188,528.7031 Q89.5938,528.125 89,527.8594 Q88.4063,527.5781 87.7813,527.5781 Q86.4375,527.5781 85.75,528.6563 Q85.0625,529.7188 85.0625,531.8125 Q85.0625,533.9063 85.75,534.9844 Q86.4375,536.0469 87.7813,536.0469 Q88.4063,536.0469 89,535.7813 Q89.5938,535.5 90.2188,534.9219 L90.2188,537.6406 Z " fill="#000000"/><text fill="#000000" font-family="sans-serif" font-size="14" lengthAdjust="spacing" textLength="62" x="107.75" y="536.8467">Endpoint</text><line style="stroke:#181818;stroke-width:0.5;" x1="8" x2="237" y1="548" y2="548"/><text fill="#000000" font-family="sans-serif" font-size="14" lengthAdjust="spacing" textLength="126" x="13" y="564.9951">identifier (1..*, MS)</text><text fill="#000000" font-family="sans-serif" font-size="14" lengthAdjust="spacing" textLength="110" x="13" y="581.292">status (0..*, MS)</text><text fill="#000000" font-family="sans-serif" font-size="14" lengthAdjust="spacing" textLength="179" x="13" y="597.5889">connectionType (0..*, MS)</text><text fill="#000000" font-family="sans-serif" font-size="14" lengthAdjust="spacing" textLength="108" x="13" y="613.8857">name (0..1, MS)</text><text fill="#000000" font-family="sans-serif" font-size="14" lengthAdjust="spacing" textLength="154" x="13" y="630.1826">payloadType (1..*, MS)</text><text fill="#000000" font-family="sans-serif" font-size="14" lengthAdjust="spacing" textLength="125" x="13" y="646.4795">address (1..1, MS)</text><text fill="#000000" font-family="sans-serif" font-size="14" lengthAdjust="spacing" textLength="172" x="13" y="662.7764">meta.tag.origin (1..1, MS)</text><text fill="#000000" font-family="sans-serif" font-size="14" lengthAdjust="spacing" textLength="219" x="13" y="679.0732">meta.security.ownerId (1..*, MS)</text><line style="stroke:#181818;stroke-width:0.5;" x1="8" x2="237" y1="686.375" y2="686.375"/></g><!--MD5=[4f1f3706c1a355a8488e154afcaed5df]
class Location--><g id="elem_Location"><rect codeLine="37" fill="#F1F1F1" height="96.8906" id="Location" rx="2.5" ry="2.5" style="stroke:#181818;stroke-width:0.5;" width="228" x="273.5" y="556.5"/><ellipse cx="354.25" cy="572.5" fill="#ADD1B2" rx="11" ry="11" style="stroke:#181818;stroke-width:1.0;"/><path d="M357.2188,578.1406 Q356.6406,578.4375 356,578.5781 Q355.3594,578.7344 354.6563,578.7344 Q352.1563,578.7344 350.8281,577.0938 Q349.5156,575.4375 349.5156,572.3125 Q349.5156,569.1875 350.8281,567.5313 Q352.1563,565.875 354.6563,565.875 Q355.3594,565.875 356,566.0313 Q356.6563,566.1875 357.2188,566.4844 L357.2188,569.2031 Q356.5938,568.625 356,568.3594 Q355.4063,568.0781 354.7813,568.0781 Q353.4375,568.0781 352.75,569.1563 Q352.0625,570.2188 352.0625,572.3125 Q352.0625,574.4063 352.75,575.4844 Q353.4375,576.5469 354.7813,576.5469 Q355.4063,576.5469 356,576.2813 Q356.5938,576 357.2188,575.4219 L357.2188,578.1406 Z " fill="#000000"/><text fill="#000000" font-family="sans-serif" font-size="14" lengthAdjust="spacing" textLength="58" x="374.75" y="577.3467">Location</text><line style="stroke:#181818;stroke-width:0.5;" x1="274.5" x2="500.5" y1="588.5" y2="588.5"/><text fill="#000000" font-family="sans-serif" font-size="14" lengthAdjust="spacing" textLength="170" x="279.5" y="605.4951">identifier (1..*, MS, LDAP)</text><text fill="#000000" font-family="sans-serif" font-size="14" lengthAdjust="spacing" textLength="169" x="279.5" y="621.792">address (0..1, MS, LDAP)</text><text fill="#000000" font-family="sans-serif" font-size="14" lengthAdjust="spacing" textLength="216" x="279.5" y="638.0889">meta.tag.origin (1..1, MS, LDAP)</text><line style="stroke:#181818;stroke-width:0.5;" x1="274.5" x2="500.5" y1="645.3906" y2="645.3906"/></g><!--MD5=[8e69bc4a0f91eded406771ca2ac31900]
class PractitionerRole_n--><g id="elem_PractitionerRole_n"><rect fill="#F1F1F1" height="48" id="PractitionerRole_n" rx="2.5" ry="2.5" style="stroke:#181818;stroke-width:0.5;" width="157" x="544" y="343"/><ellipse cx="559" cy="359" fill="#ADD1B2" rx="11" ry="11" style="stroke:#181818;stroke-width:1.0;"/><path d="M561.9688,364.6406 Q561.3906,364.9375 560.75,365.0781 Q560.1094,365.2344 559.4063,365.2344 Q556.9063,365.2344 555.5781,363.5938 Q554.2656,361.9375 554.2656,358.8125 Q554.2656,355.6875 555.5781,354.0313 Q556.9063,352.375 559.4063,352.375 Q560.1094,352.375 560.75,352.5313 Q561.4063,352.6875 561.9688,352.9844 L561.9688,355.7031 Q561.3438,355.125 560.75,354.8594 Q560.1563,354.5781 559.5313,354.5781 Q558.1875,354.5781 557.5,355.6563 Q556.8125,356.7188 556.8125,358.8125 Q556.8125,360.9063 557.5,361.9844 Q558.1875,363.0469 559.5313,363.0469 Q560.1563,363.0469 560.75,362.7813 Q561.3438,362.5 561.9688,361.9219 L561.9688,364.6406 Z " fill="#000000"/><text fill="#000000" font-family="sans-serif" font-size="14" lengthAdjust="spacing" textLength="125" x="573" y="363.8467">PractitionerRole_n</text><line style="stroke:#181818;stroke-width:0.5;" x1="545" x2="700" y1="375" y2="375"/><line style="stroke:#181818;stroke-width:0.5;" x1="545" x2="700" y1="383" y2="383"/></g><!--MD5=[03a2d6c2492f622f1f216e3c97e7fe8e]
class Endpoint_n--><g id="elem_Endpoint_n"><rect fill="#F1F1F1" height="48" id="Endpoint_n" rx="2.5" ry="2.5" style="stroke:#181818;stroke-width:0.5;" width="110" x="557.5" y="581"/><ellipse cx="572.5" cy="597" fill="#ADD1B2" rx="11" ry="11" style="stroke:#181818;stroke-width:1.0;"/><path d="M575.4688,602.6406 Q574.8906,602.9375 574.25,603.0781 Q573.6094,603.2344 572.9063,603.2344 Q570.4063,603.2344 569.0781,601.5938 Q567.7656,599.9375 567.7656,596.8125 Q567.7656,593.6875 569.0781,592.0313 Q570.4063,590.375 572.9063,590.375 Q573.6094,590.375 574.25,590.5313 Q574.9063,590.6875 575.4688,590.9844 L575.4688,593.7031 Q574.8438,593.125 574.25,592.8594 Q573.6563,592.5781 573.0313,592.5781 Q571.6875,592.5781 571,593.6563 Q570.3125,594.7188 570.3125,596.8125 Q570.3125,598.9063 571,599.9844 Q571.6875,601.0469 573.0313,601.0469 Q573.6563,601.0469 574.25,600.7813 Q574.8438,600.5 575.4688,599.9219 L575.4688,602.6406 Z " fill="#000000"/><text fill="#000000" font-family="sans-serif" font-size="14" lengthAdjust="spacing" textLength="78" x="586.5" y="601.8467">Endpoint_n</text><line style="stroke:#181818;stroke-width:0.5;" x1="558.5" x2="666.5" y1="613" y2="613"/><line style="stroke:#181818;stroke-width:0.5;" x1="558.5" x2="666.5" y1="621" y2="621"/></g><!--MD5=[b3d68285015a2fb18a50ef1efea45b8c]
class Location_n--><g id="elem_Location_n"><rect fill="#F1F1F1" height="48" id="Location_n" rx="2.5" ry="2.5" style="stroke:#181818;stroke-width:0.5;" width="106" x="702.5" y="581"/><ellipse cx="717.5" cy="597" fill="#ADD1B2" rx="11" ry="11" style="stroke:#181818;stroke-width:1.0;"/><path d="M720.4688,602.6406 Q719.8906,602.9375 719.25,603.0781 Q718.6094,603.2344 717.9063,603.2344 Q715.4063,603.2344 714.0781,601.5938 Q712.7656,599.9375 712.7656,596.8125 Q712.7656,593.6875 714.0781,592.0313 Q715.4063,590.375 717.9063,590.375 Q718.6094,590.375 719.25,590.5313 Q719.9063,590.6875 720.4688,590.9844 L720.4688,593.7031 Q719.8438,593.125 719.25,592.8594 Q718.6563,592.5781 718.0313,592.5781 Q716.6875,592.5781 716,593.6563 Q715.3125,594.7188 715.3125,596.8125 Q715.3125,598.9063 716,599.9844 Q716.6875,601.0469 718.0313,601.0469 Q718.6563,601.0469 719.25,600.7813 Q719.8438,600.5 720.4688,599.9219 L720.4688,602.6406 Z " fill="#000000"/><text fill="#000000" font-family="sans-serif" font-size="14" lengthAdjust="spacing" textLength="74" x="731.5" y="601.8467">Location_n</text><line style="stroke:#181818;stroke-width:0.5;" x1="703.5" x2="807.5" y1="613" y2="613"/><line style="stroke:#181818;stroke-width:0.5;" x1="703.5" x2="807.5" y1="621" y2="621"/></g><!--MD5=[96df283e3c8f2122868d8b44a3663a87]
reverse link Practitioner to PractitionerRole--><g id="link_Practitioner_PractitionerRole"><path codeLine="43" d="M446.32,222.68 C437.37,241.03 428.19,259.88 419.55,277.63 " fill="none" id="Practitioner-backto-PractitionerRole" style="stroke:#181818;stroke-width:1.0;"/><polygon fill="#181818" points="448.58,218.02,441.0336,224.3486,446.3839,222.5119,448.2206,227.8623,448.58,218.02" style="stroke:#181818;stroke-width:1.0;"/></g><!--MD5=[ff5e14327730cfabce9a2d887505052b]
link PractitionerRole to Endpoint--><g id="link_PractitionerRole_Endpoint"><path codeLine="44" d="M281.56,456.21 C261.88,474.5 241.09,493.81 221.28,512.22 " fill="none" id="PractitionerRole-to-Endpoint" style="stroke:#181818;stroke-width:1.0;"/><polygon fill="#181818" points="217.33,515.89,226.645,512.6915,220.9919,512.4856,221.1979,506.8324,217.33,515.89" style="stroke:#181818;stroke-width:1.0;"/></g><!--MD5=[a3cfd5b0c60601d32f100b2f268c16f3]
link PractitionerRole to Location--><g id="link_PractitionerRole_Location"><path codeLine="45" d="M380.61,456.21 C382.1,488.14 383.73,523.17 385.03,551.11 " fill="none" id="PractitionerRole-to-Location" style="stroke:#181818;stroke-width:1.0;"/><polygon fill="#181818" points="385.27,556.24,388.8548,547.0667,385.0417,551.2452,380.8632,547.4321,385.27,556.24" style="stroke:#181818;stroke-width:1.0;"/></g><!--MD5=[46800518e4bc086f311e3e8dc388dd03]
reverse link Practitioner to PractitionerRole_n--><g id="link_Practitioner_PractitionerRole_n"><path codeLine="47" d="M552.67,222.64 C574.57,267.6 597.9,315.51 611.29,342.99 " fill="none" id="Practitioner-backto-PractitionerRole_n" style="stroke:#181818;stroke-width:1.0;"/><polygon fill="#181818" points="550.42,218.02,550.7794,227.8623,552.6161,222.5119,557.9664,224.3486,550.42,218.02" style="stroke:#181818;stroke-width:1.0;"/></g><!--MD5=[8fbdc3100012fd78f42edf7f4156fe6c]
link PractitionerRole_n to Endpoint_n--><g id="link_PractitionerRole_n_Endpoint_n"><path codeLine="48" d="M621.52,391.06 C619.68,434.5 615.71,528.35 613.7,575.6 " fill="none" id="PractitionerRole_n-to-Endpoint_n" style="stroke:#181818;stroke-width:1.0;"/><polygon fill="#181818" points="613.48,580.85,617.8617,572.0295,613.6941,575.8546,609.869,571.687,613.48,580.85" style="stroke:#181818;stroke-width:1.0;"/></g><!--MD5=[d53cb2e0b1fe1096b24b3d3e29bc210e]
link PractitionerRole_n to Location_n--><g id="link_PractitionerRole_n_Location_n"><path codeLine="49" d="M635.49,391.06 C660.13,434.77 713.51,529.49 739.98,576.46 " fill="none" id="PractitionerRole_n-to-Location_n" style="stroke:#181818;stroke-width:1.0;"/><polygon fill="#181818" points="742.45,580.85,741.5133,571.0458,739.9939,576.4948,734.5449,574.9755,742.45,580.85" style="stroke:#181818;stroke-width:1.0;"/></g><!--MD5=[c66d2e92a6cde75171fcdb071dddc35f]
@startuml
 
class Practitioner {
  {field} identifier (1..*, MS, LDAP)
  {field} active (1..1, MS, LDAP)
  {field} name (1..*, MS, LDAP)
  {field} telecom (0..*, MS)
  {field} gender (0..*, MS)
  {field} birthDate (0..*, MS)
  {field} photo (0..*, MS)
  {field} qualification (0..*, MS, LDAP)
  {field} communication (0..*, MS)
  {field} meta.tag.origin (1..1, MS, LDAP)
}
 
class PractitionerRole {
  {field} identifier (1..*, MS)
  {field} practitioner (1..1, MS, LDAP)
  {field} location (0..*, MS, LDAP)
  {field} healthcareService (0..*, MS)
  {field} endpoint (0..*, MS)
  {field} meta.tag.origin (1..1, MS, LDAP)
  {field} meta.security.ownerId (1..*, MS)
  {field} meta.security.holder (1..*, MS, LDAP)
}
 
class Endpoint {
  {field} identifier (1..*, MS)
  {field} status (0..*, MS)
  {field} connectionType (0..*, MS)
  {field} name (0..1, MS)
  {field} payloadType (1..*, MS)
  {field} address (1..1, MS)
  {field} meta.tag.origin (1..1, MS)
  {field} meta.security.ownerId (1..*, MS)
}

class Location {
  {field} identifier (1..*, MS, LDAP)
  {field} address (0..1, MS, LDAP)
  {field} meta.tag.origin (1..1, MS, LDAP)
}
 
Practitioner <- - PractitionerRole
PractitionerRole - -> Endpoint
PractitionerRole - -> Location
 
Practitioner <- - PractitionerRole_n
PractitionerRole_n  - -> Endpoint_n
PractitionerRole_n  - -> Location_n
@enduml

PlantUML version 1.2022.13(Sat Nov 19 13:22:17 UTC 2022)
(GPL source distribution)
Java Runtime: OpenJDK Runtime Environment
JVM: OpenJDK 64-Bit Server VM
Default Encoding: UTF-8
Language: en
Country: null
--></g></svg>