<svg xmlns="http://www.w3.org/2000/svg" xmlns:xlink="http://www.w3.org/1999/xlink" contentStyleType="text/css" data-diagram-type="CLASS" height="783px" preserveAspectRatio="none" style="width:928px;height:783px;background:#FFFFFF;" version="1.1" viewBox="0 0 928 783" width="928px" zoomAndPan="magnify"><defs/><g><!--class Organization--><g class="entity" data-entity="Organization" data-source-line="2" data-uid="ent0002" id="entity_Organization"><rect fill="#F1F1F1" height="178.375" rx="2.5" ry="2.5" style="stroke:#181818;stroke-width:0.5;" width="301.5361" x="430.68" y="7"/><ellipse cx="532.3236" cy="23" fill="#ADD1B2" rx="11" ry="11" style="stroke:#181818;stroke-width:1;"/><path d="M535.2923,28.6406 Q534.7142,28.9375 534.0736,29.0781 Q533.4329,29.2344 532.7298,29.2344 Q530.2298,29.2344 528.9017,27.5938 Q527.5892,25.9375 527.5892,22.8125 Q527.5892,19.6875 528.9017,18.0313 Q530.2298,16.375 532.7298,16.375 Q533.4329,16.375 534.0736,16.5313 Q534.7298,16.6875 535.2923,16.9844 L535.2923,19.7031 Q534.6673,19.125 534.0736,18.8594 Q533.4798,18.5781 532.8548,18.5781 Q531.5111,18.5781 530.8236,19.6563 Q530.1361,20.7188 530.1361,22.8125 Q530.1361,24.9063 530.8236,25.9844 Q531.5111,27.0469 532.8548,27.0469 Q533.4798,27.0469 534.0736,26.7813 Q534.6673,26.5 535.2923,25.9219 L535.2923,28.6406 Z " fill="#000000"/><text fill="#000000" font-family="sans-serif" font-size="14" lengthAdjust="spacing" textLength="89.749" x="552.8236" y="27.8467">Organization</text><line style="stroke:#181818;stroke-width:0.5;" x1="431.68" x2="731.2161" y1="39" y2="39"/><text fill="#000000" font-family="sans-serif" font-size="14" lengthAdjust="spacing" textLength="178.377" x="436.68" y="55.9951">identifier (1..*, MS, LDAP)</text><text fill="#000000" font-family="sans-serif" font-size="14" lengthAdjust="spacing" textLength="111.6582" x="436.68" y="72.292">name (1..1, MS)</text><text fill="#000000" font-family="sans-serif" font-size="14" lengthAdjust="spacing" textLength="102.2793" x="436.68" y="88.5889">alias (0..*, MS)</text><text fill="#000000" font-family="sans-serif" font-size="14" lengthAdjust="spacing" textLength="142.3721" x="436.68" y="104.8857">type(0..*, MS, LDAP)</text><text fill="#000000" font-family="sans-serif" font-size="14" lengthAdjust="spacing" textLength="160.0088" x="436.68" y="121.1826">active (1..1, MS, LDAP)</text><text fill="#000000" font-family="sans-serif" font-size="14" lengthAdjust="spacing" textLength="225.4902" x="436.68" y="137.4795">meta.tag.origin (1..1, MS, LDAP)</text><text fill="#000000" font-family="sans-serif" font-size="14" lengthAdjust="spacing" textLength="289.5361" x="436.68" y="153.7764">extension:organizationVisibility (0..*, MS)</text><text fill="#000000" font-family="sans-serif" font-size="14" lengthAdjust="spacing" textLength="258.9521" x="436.68" y="170.0732">extension:ncpehCountryEx (0..*, MS)</text><line style="stroke:#181818;stroke-width:0.5;" x1="431.68" x2="731.2161" y1="177.375" y2="177.375"/></g><!--class HealthcareService--><g class="entity" data-entity="HealthcareService" data-source-line="13" data-uid="ent0003" id="entity_HealthcareService"><rect fill="#F1F1F1" height="292.4531" rx="2.5" ry="2.5" style="stroke:#181818;stroke-width:0.5;" width="463.5" x="172.7" y="245.37"/><ellipse cx="336.0208" cy="261.37" fill="#ADD1B2" rx="11" ry="11" style="stroke:#181818;stroke-width:1;"/><path d="M338.9896,267.0106 Q338.4114,267.3075 337.7708,267.4481 Q337.1302,267.6044 336.4271,267.6044 Q333.9271,267.6044 332.5989,265.9638 Q331.2864,264.3075 331.2864,261.1825 Q331.2864,258.0575 332.5989,256.4013 Q333.9271,254.745 336.4271,254.745 Q337.1302,254.745 337.7708,254.9013 Q338.4271,255.0575 338.9896,255.3544 L338.9896,258.0731 Q338.3646,257.495 337.7708,257.2294 Q337.1771,256.9481 336.5521,256.9481 Q335.2083,256.9481 334.5208,258.0263 Q333.8333,259.0888 333.8333,261.1825 Q333.8333,263.2763 334.5208,264.3544 Q335.2083,265.4169 336.5521,265.4169 Q337.1771,265.4169 337.7708,265.1513 Q338.3646,264.87 338.9896,264.2919 L338.9896,267.0106 Z " fill="#000000"/><text fill="#000000" font-family="sans-serif" font-size="14" lengthAdjust="spacing" textLength="128.3584" x="356.5208" y="266.2167">HealthcareService</text><line style="stroke:#181818;stroke-width:0.5;" x1="173.7" x2="635.2" y1="277.37" y2="277.37"/><text fill="#000000" font-family="sans-serif" font-size="14" lengthAdjust="spacing" textLength="247.543" x="178.7" y="294.3651">providedBy (1..1, MS, LDAP/Owner)</text><text fill="#000000" font-family="sans-serif" font-size="14" lengthAdjust="spacing" textLength="232.4902" x="178.7" y="310.662">speciality (0..*, MS, LDAP/Owner)</text><text fill="#000000" font-family="sans-serif" font-size="14" lengthAdjust="spacing" textLength="131.9199" x="178.7" y="326.9589">category (0..*, MS)</text><text fill="#000000" font-family="sans-serif" font-size="14" lengthAdjust="spacing" textLength="197.251" x="178.7" y="343.2557">type (0..*, MS, LDAP/Owner)</text><text fill="#000000" font-family="sans-serif" font-size="14" lengthAdjust="spacing" textLength="221.5254" x="178.7" y="359.5526">location (0..*, MS, LDAP/Owner)</text><text fill="#000000" font-family="sans-serif" font-size="14" lengthAdjust="spacing" textLength="166.2705" x="178.7" y="375.8495">name (0..1, MS, Owner)</text><text fill="#000000" font-family="sans-serif" font-size="14" lengthAdjust="spacing" textLength="132.125" x="178.7" y="392.1464">endpoint (0..*, MS)</text><text fill="#000000" font-family="sans-serif" font-size="14" lengthAdjust="spacing" textLength="225.4902" x="178.7" y="408.4432">meta.tag.origin (1..1, MS, LDAP)</text><text fill="#000000" font-family="sans-serif" font-size="14" lengthAdjust="spacing" textLength="183.0732" x="178.7" y="424.7401">telecom (0..1, MS, Owner)</text><text fill="#000000" font-family="sans-serif" font-size="14" lengthAdjust="spacing" textLength="451.5" x="178.7" y="441.037">coverageArea.extension:serviceCoverageArea (0..1, MS, Owner)</text><text fill="#000000" font-family="sans-serif" font-size="14" lengthAdjust="spacing" textLength="221.8672" x="178.7" y="457.3339">characteristic (0..1, MS, Owner)</text><text fill="#000000" font-family="sans-serif" font-size="14" lengthAdjust="spacing" textLength="234.835" x="178.7" y="473.6307">communication (0..1, MS, Owner)</text><text fill="#000000" font-family="sans-serif" font-size="14" lengthAdjust="spacing" textLength="279.5967" x="178.7" y="489.9276">appointmentRequired (0..1, MS, Owner)</text><text fill="#000000" font-family="sans-serif" font-size="14" lengthAdjust="spacing" textLength="224.4512" x="178.7" y="506.2245">availableTime (0..1, MS, Owner)</text><text fill="#000000" font-family="sans-serif" font-size="14" lengthAdjust="spacing" textLength="279.1387" x="178.7" y="522.5214">availabilityExceptions (0..1, MS, Owner)</text><line style="stroke:#181818;stroke-width:0.5;" x1="173.7" x2="635.2" y1="529.8231" y2="529.8231"/></g><!--class Endpoint--><g class="entity" data-entity="Endpoint" data-source-line="31" data-uid="ent0004" id="entity_Endpoint"><rect fill="#F1F1F1" height="178.375" rx="2.5" ry="2.5" style="stroke:#181818;stroke-width:0.5;" width="280.9053" x="7" y="597.82"/><ellipse cx="112.0479" cy="613.82" fill="#ADD1B2" rx="11" ry="11" style="stroke:#181818;stroke-width:1;"/><path d="M115.0166,619.4606 Q114.4385,619.7575 113.7979,619.8981 Q113.1572,620.0544 112.4541,620.0544 Q109.9541,620.0544 108.626,618.4138 Q107.3135,616.7575 107.3135,613.6325 Q107.3135,610.5075 108.626,608.8513 Q109.9541,607.195 112.4541,607.195 Q113.1572,607.195 113.7979,607.3513 Q114.4541,607.5075 115.0166,607.8044 L115.0166,610.5231 Q114.3916,609.945 113.7979,609.6794 Q113.2041,609.3981 112.5791,609.3981 Q111.2354,609.3981 110.5479,610.4763 Q109.8604,611.5388 109.8604,613.6325 Q109.8604,615.7263 110.5479,616.8044 Q111.2354,617.8669 112.5791,617.8669 Q113.2041,617.8669 113.7979,617.6013 Q114.3916,617.32 115.0166,616.7419 L115.0166,619.4606 Z " fill="#000000"/><text fill="#000000" font-family="sans-serif" font-size="14" lengthAdjust="spacing" textLength="62.3096" x="132.5479" y="618.6667">Endpoint</text><line style="stroke:#181818;stroke-width:0.5;" x1="8" x2="286.9053" y1="629.82" y2="629.82"/><text fill="#000000" font-family="sans-serif" font-size="14" lengthAdjust="spacing" textLength="183.4287" x="13" y="646.8151">connectionType (1..1, MS)</text><text fill="#000000" font-family="sans-serif" font-size="14" lengthAdjust="spacing" textLength="114.9736" x="13" y="663.112">status (1..1, MS)</text><text fill="#000000" font-family="sans-serif" font-size="14" lengthAdjust="spacing" textLength="111.6582" x="13" y="679.4089">name (1..1, MS)</text><text fill="#000000" font-family="sans-serif" font-size="14" lengthAdjust="spacing" textLength="127.2646" x="13" y="695.7057">address (1..1, MS)</text><text fill="#000000" font-family="sans-serif" font-size="14" lengthAdjust="spacing" textLength="160.0566" x="13" y="712.0026">payloadType (1..*, MS)</text><text fill="#000000" font-family="sans-serif" font-size="14" lengthAdjust="spacing" textLength="179.9902" x="13" y="728.2995">meta.tag.origin (1..1, MS)</text><text fill="#000000" font-family="sans-serif" font-size="14" lengthAdjust="spacing" textLength="264.3184" x="13" y="744.5964">extension:endpointVisibility (0..*, MS)</text><text fill="#000000" font-family="sans-serif" font-size="14" lengthAdjust="spacing" textLength="268.9053" x="13" y="760.8932">extension:ownerTelematikId (0..*, MS)</text><line style="stroke:#181818;stroke-width:0.5;" x1="8" x2="286.9053" y1="768.195" y2="768.195"/></g><!--class Location--><g class="entity" data-entity="Location" data-source-line="41" data-uid="ent0005" id="entity_Location"><rect fill="#F1F1F1" height="96.8906" rx="2.5" ry="2.5" style="stroke:#181818;stroke-width:0.5;" width="237.4902" x="322.71" y="638.57"/><ellipse cx="407.4756" cy="654.57" fill="#ADD1B2" rx="11" ry="11" style="stroke:#181818;stroke-width:1;"/><path d="M410.4444,660.2106 Q409.8663,660.5075 409.2256,660.6481 Q408.585,660.8044 407.8819,660.8044 Q405.3819,660.8044 404.0538,659.1638 Q402.7413,657.5075 402.7413,654.3825 Q402.7413,651.2575 404.0538,649.6013 Q405.3819,647.945 407.8819,647.945 Q408.585,647.945 409.2256,648.1013 Q409.8819,648.2575 410.4444,648.5544 L410.4444,651.2731 Q409.8194,650.695 409.2256,650.4294 Q408.6319,650.1481 408.0069,650.1481 Q406.6631,650.1481 405.9756,651.2263 Q405.2881,652.2888 405.2881,654.3825 Q405.2881,656.4763 405.9756,657.5544 Q406.6631,658.6169 408.0069,658.6169 Q408.6319,658.6169 409.2256,658.3513 Q409.8194,658.07 410.4444,657.4919 L410.4444,660.2106 Z " fill="#000000"/><text fill="#000000" font-family="sans-serif" font-size="14" lengthAdjust="spacing" textLength="59.459" x="427.9756" y="659.4167">Location</text><line style="stroke:#181818;stroke-width:0.5;" x1="323.71" x2="559.2002" y1="670.57" y2="670.57"/><text fill="#000000" font-family="sans-serif" font-size="14" lengthAdjust="spacing" textLength="172.7646" x="328.71" y="687.5651">address (0..1, MS, LDAP)</text><text fill="#000000" font-family="sans-serif" font-size="14" lengthAdjust="spacing" textLength="127.4082" x="328.71" y="703.862">position (0..1, MS)</text><text fill="#000000" font-family="sans-serif" font-size="14" lengthAdjust="spacing" textLength="225.4902" x="328.71" y="720.1589">meta.tag.origin (1..1, MS, LDAP)</text><line style="stroke:#181818;stroke-width:0.5;" x1="323.71" x2="559.2002" y1="727.4606" y2="727.4606"/></g><!--class HealthcareService_n--><g class="entity" data-entity="HealthcareService_n" data-source-line="51" data-uid="ent0009" id="entity_HealthcareService_n"><rect fill="#F1F1F1" height="48" rx="2.5" ry="2.5" style="stroke:#181818;stroke-width:0.5;" width="176.2314" x="671.34" y="367.6"/><ellipse cx="686.34" cy="383.6" fill="#ADD1B2" rx="11" ry="11" style="stroke:#181818;stroke-width:1;"/><path d="M689.3088,389.2406 Q688.7306,389.5375 688.09,389.6781 Q687.4494,389.8344 686.7463,389.8344 Q684.2463,389.8344 682.9181,388.1938 Q681.6056,386.5375 681.6056,383.4125 Q681.6056,380.2875 682.9181,378.6313 Q684.2463,376.975 686.7463,376.975 Q687.4494,376.975 688.09,377.1313 Q688.7463,377.2875 689.3088,377.5844 L689.3088,380.3031 Q688.6838,379.725 688.09,379.4594 Q687.4963,379.1781 686.8713,379.1781 Q685.5275,379.1781 684.84,380.2563 Q684.1525,381.3188 684.1525,383.4125 Q684.1525,385.5063 684.84,386.5844 Q685.5275,387.6469 686.8713,387.6469 Q687.4963,387.6469 688.09,387.3813 Q688.6838,387.1 689.3088,386.5219 L689.3088,389.2406 Z " fill="#000000"/><text fill="#000000" font-family="sans-serif" font-size="14" lengthAdjust="spacing" textLength="144.2314" x="700.34" y="388.4467">HealthcareService_n</text><line style="stroke:#181818;stroke-width:0.5;" x1="672.34" x2="846.5714" y1="399.6" y2="399.6"/><line style="stroke:#181818;stroke-width:0.5;" x1="672.34" x2="846.5714" y1="407.6" y2="407.6"/></g><!--class Endpoint_n--><g class="entity" data-entity="Endpoint_n" data-source-line="52" data-uid="ent0011" id="entity_Endpoint_n"><rect fill="#F1F1F1" height="48" rx="2.5" ry="2.5" style="stroke:#181818;stroke-width:0.5;" width="110.1826" x="668.36" y="663.01"/><ellipse cx="683.36" cy="679.01" fill="#ADD1B2" rx="11" ry="11" style="stroke:#181818;stroke-width:1;"/><path d="M686.3288,684.6506 Q685.7506,684.9475 685.11,685.0881 Q684.4694,685.2444 683.7663,685.2444 Q681.2663,685.2444 679.9381,683.6038 Q678.6256,681.9475 678.6256,678.8225 Q678.6256,675.6975 679.9381,674.0413 Q681.2663,672.385 683.7663,672.385 Q684.4694,672.385 685.11,672.5413 Q685.7663,672.6975 686.3288,672.9944 L686.3288,675.7131 Q685.7038,675.135 685.11,674.8694 Q684.5163,674.5881 683.8913,674.5881 Q682.5475,674.5881 681.86,675.6663 Q681.1725,676.7288 681.1725,678.8225 Q681.1725,680.9163 681.86,681.9944 Q682.5475,683.0569 683.8913,683.0569 Q684.5163,683.0569 685.11,682.7913 Q685.7038,682.51 686.3288,681.9319 L686.3288,684.6506 Z " fill="#000000"/><text fill="#000000" font-family="sans-serif" font-size="14" lengthAdjust="spacing" textLength="78.1826" x="697.36" y="683.8567">Endpoint_n</text><line style="stroke:#181818;stroke-width:0.5;" x1="669.36" x2="777.5426" y1="695.01" y2="695.01"/><line style="stroke:#181818;stroke-width:0.5;" x1="669.36" x2="777.5426" y1="703.01" y2="703.01"/></g><!--class Location_n--><g class="entity" data-entity="Location_n" data-source-line="53" data-uid="ent0013" id="entity_Location_n"><rect fill="#F1F1F1" height="48" rx="2.5" ry="2.5" style="stroke:#181818;stroke-width:0.5;" width="107.332" x="813.79" y="663.01"/><ellipse cx="828.79" cy="679.01" fill="#ADD1B2" rx="11" ry="11" style="stroke:#181818;stroke-width:1;"/><path d="M831.7588,684.6506 Q831.1806,684.9475 830.54,685.0881 Q829.8994,685.2444 829.1963,685.2444 Q826.6963,685.2444 825.3681,683.6038 Q824.0556,681.9475 824.0556,678.8225 Q824.0556,675.6975 825.3681,674.0413 Q826.6963,672.385 829.1963,672.385 Q829.8994,672.385 830.54,672.5413 Q831.1963,672.6975 831.7588,672.9944 L831.7588,675.7131 Q831.1338,675.135 830.54,674.8694 Q829.9463,674.5881 829.3213,674.5881 Q827.9775,674.5881 827.29,675.6663 Q826.6025,676.7288 826.6025,678.8225 Q826.6025,680.9163 827.29,681.9944 Q827.9775,683.0569 829.3213,683.0569 Q829.9463,683.0569 830.54,682.7913 Q831.1338,682.51 831.7588,681.9319 L831.7588,684.6506 Z " fill="#000000"/><text fill="#000000" font-family="sans-serif" font-size="14" lengthAdjust="spacing" textLength="75.332" x="842.79" y="683.8567">Location_n</text><line style="stroke:#181818;stroke-width:0.5;" x1="814.79" x2="920.122" y1="695.01" y2="695.01"/><line style="stroke:#181818;stroke-width:0.5;" x1="814.79" x2="920.122" y1="703.01" y2="703.01"/></g><!--reverse link Organization to HealthcareService--><g class="link" data-entity-1="Organization" data-entity-2="HealthcareService" data-source-line="47" data-uid="lnk6" id="link_Organization_HealthcareService"><path codeLine="47" d="M525.0102,190.7572 C513.6602,209.5672 504.49,224.77 492.23,245.08" fill="none" id="Organization-backto-HealthcareService" style="stroke:#181818;stroke-width:1;"/><polygon fill="#181818" points="528.11,185.62,520.0355,191.2593,525.5268,189.901,526.8851,195.3924,528.11,185.62" style="stroke:#181818;stroke-width:1;"/></g><!--link HealthcareService to Endpoint--><g class="link" data-entity-1="HealthcareService" data-entity-2="Endpoint" data-source-line="48" data-uid="lnk7" id="link_HealthcareService_Endpoint"><path codeLine="48" d="M277.08,538.02 C259.29,558.33 245.4141,574.1772 228.9241,592.9972" fill="none" id="HealthcareService-to-Endpoint" style="stroke:#181818;stroke-width:1;"/><polygon fill="#181818" points="224.97,597.51,233.9096,593.3769,228.2651,593.7493,227.8926,588.1048,224.97,597.51" style="stroke:#181818;stroke-width:1;"/></g><!--link HealthcareService to Location--><g class="link" data-entity-1="HealthcareService" data-entity-2="Location" data-source-line="49" data-uid="lnk8" id="link_HealthcareService_Location"><path codeLine="49" d="M422.79,538.02 C427.37,574.33 431.2078,604.7973 434.6978,632.4173" fill="none" id="HealthcareService-to-Location" style="stroke:#181818;stroke-width:1;"/><polygon fill="#181818" points="435.45,638.37,438.2902,628.9396,434.8232,633.4094,430.3533,629.9424,435.45,638.37" style="stroke:#181818;stroke-width:1;"/></g><!--reverse link Organization to HealthcareService_n--><g class="link" data-entity-1="Organization" data-entity-2="HealthcareService_n" data-source-line="51" data-uid="lnk10" id="link_Organization_HealthcareService_n"><path codeLine="51" d="M638.2119,190.7499 C676.3919,253.6899 721.83,328.58 745.38,367.39" fill="none" id="Organization-backto-HealthcareService_n" style="stroke:#181818;stroke-width:1;"/><polygon fill="#181818" points="635.1,185.62,636.3478,195.3895,637.6932,189.8949,643.1878,191.2403,635.1,185.62" style="stroke:#181818;stroke-width:1;"/></g><!--link HealthcareService_n to Endpoint_n--><g class="link" data-entity-1="HealthcareService_n" data-entity-2="Endpoint_n" data-source-line="52" data-uid="lnk12" id="link_HealthcareService_n_Endpoint_n"><path codeLine="52" d="M756.63,415.62 C749.91,470.34 733.7907,601.7247 727.0407,656.7347" fill="none" id="HealthcareService_n-to-Endpoint_n" style="stroke:#181818;stroke-width:1;"/><polygon fill="#181818" points="726.31,662.69,731.3763,654.2442,726.919,657.7272,723.4359,653.2698,726.31,662.69" style="stroke:#181818;stroke-width:1;"/></g><!--link HealthcareService_n to Location_n--><g class="link" data-entity-1="HealthcareService_n" data-entity-2="Location_n" data-source-line="53" data-uid="lnk14" id="link_HealthcareService_n_Location_n"><path codeLine="53" d="M767.93,415.62 C788.07,470.34 836.5473,602.0494 856.7973,657.0594" fill="none" id="HealthcareService_n-to-Location_n" style="stroke:#181818;stroke-width:1;"/><polygon fill="#181818" points="858.87,662.69,859.5147,652.8623,857.1427,657.9978,852.0072,655.6259,858.87,662.69" style="stroke:#181818;stroke-width:1;"/></g><!--SRC=[bLHDRzim3BtxL-ZO3esRNeTYG3y2T4273clGwy1Ad4DKbZH9yU86-U-rapYLPZbkZpOVHVAzHxACIt2EFTW25Bs29wtOEcDi_OTGYWqZWSfJys7PoKMUVpbZFnxFsFtjrS_J0AMWn6tyees74P04ZfrCzwbXoDS63u7-cy0zLS6hVKI97d8FHQuj5QIEGN7bKRbckAywcFI973sJ95y77JAMp5FSuE96BvMtzMmLupSPs_DuXo3zWeF5HxGLSOp8D5PN3Q7Yklw_r_E7VmfjsB4po0dYteQm73mMsjR3F8-_8JNVgJ-At8azFVI_0yIqAM4qAPzkw1EwUPJ8TPae5uwlAxHGu9L5oDyLSpi5ReBeIDjy0RQn7LfoddWA79SjowMYWBOZO31RGifcctxXtoLP5ACf5P24PubpIXBUXswjF5jnD6rBBbtWtQopJgLrD9LIoDly-TOtgQLs7lpIfMD7Je4G5jr0ce5QQX27cXytJNhDEmScLpnz65g6vetVoaRGb-yYn6_sZDrtIx9EpJKTjB7HZcANnCORtOXMjEX6Nquc_MEJzS_FPFBjeFD0k1lgGoL-gopnBofp1DALQY3i3G00]--></g></svg>