<?xml version="1.0" encoding="UTF-8" standalone="no"?><svg xmlns="http://www.w3.org/2000/svg" xmlns:xlink="http://www.w3.org/1999/xlink" contentStyleType="text/css" height="652px" preserveAspectRatio="none" style="width:818px;height:652px;background:#FFFFFF;" version="1.1" viewBox="0 0 818 652" width="818px" zoomAndPan="magnify"><defs/><g><!--MD5=[86c7c362de55a38b660185a1328fe18d]
class Organization--><g id="elem_Organization"><rect codeLine="2" fill="#F1F1F1" height="162.0781" id="Organization" rx="2.5" ry="2.5" style="stroke:#181818;stroke-width:0.5;" width="228" x="386.5" y="7"/><ellipse cx="452.75" cy="23" fill="#ADD1B2" rx="11" ry="11" style="stroke:#181818;stroke-width:1.0;"/><path d="M455.7188,28.6406 Q455.1406,28.9375 454.5,29.0781 Q453.8594,29.2344 453.1563,29.2344 Q450.6563,29.2344 449.3281,27.5938 Q448.0156,25.9375 448.0156,22.8125 Q448.0156,19.6875 449.3281,18.0313 Q450.6563,16.375 453.1563,16.375 Q453.8594,16.375 454.5,16.5313 Q455.1563,16.6875 455.7188,16.9844 L455.7188,19.7031 Q455.0938,19.125 454.5,18.8594 Q453.9063,18.5781 453.2813,18.5781 Q451.9375,18.5781 451.25,19.6563 Q450.5625,20.7188 450.5625,22.8125 Q450.5625,24.9063 451.25,25.9844 Q451.9375,27.0469 453.2813,27.0469 Q453.9063,27.0469 454.5,26.7813 Q455.0938,26.5 455.7188,25.9219 L455.7188,28.6406 Z " fill="#000000"/><text fill="#000000" font-family="sans-serif" font-size="14" lengthAdjust="spacing" textLength="87" x="473.25" y="27.8467">Organization</text><line style="stroke:#181818;stroke-width:0.5;" x1="387.5" x2="613.5" y1="39" y2="39"/><text fill="#000000" font-family="sans-serif" font-size="14" lengthAdjust="spacing" textLength="170" x="392.5" y="55.9951">identifier (1..*, MS, LDAP)</text><text fill="#000000" font-family="sans-serif" font-size="14" lengthAdjust="spacing" textLength="108" x="392.5" y="72.292">name (1..1, MS)</text><text fill="#000000" font-family="sans-serif" font-size="14" lengthAdjust="spacing" textLength="97" x="392.5" y="88.5889">alias (0..*, MS)</text><text fill="#000000" font-family="sans-serif" font-size="14" lengthAdjust="spacing" textLength="137" x="392.5" y="104.8857">type(1..*, MS, LDAP)</text><text fill="#000000" font-family="sans-serif" font-size="14" lengthAdjust="spacing" textLength="153" x="392.5" y="121.1826">active (1..1, MS, LDAP)</text><text fill="#000000" font-family="sans-serif" font-size="14" lengthAdjust="spacing" textLength="123" x="392.5" y="137.4795">telecom (0..*, MS)</text><text fill="#000000" font-family="sans-serif" font-size="14" lengthAdjust="spacing" textLength="216" x="392.5" y="153.7764">meta.tag.origin (1..1, MS, LDAP)</text><line style="stroke:#181818;stroke-width:0.5;" x1="387.5" x2="613.5" y1="161.0781" y2="161.0781"/></g><!--MD5=[e7f1f8ff98ca4645da414d6b6c370369]
class HealthcareService--><g id="elem_HealthcareService"><rect codeLine="12" fill="#F1F1F1" height="178.375" id="HealthcareService" rx="2.5" ry="2.5" style="stroke:#181818;stroke-width:0.5;" width="264" x="242.5" y="229"/><ellipse cx="308.25" cy="245" fill="#ADD1B2" rx="11" ry="11" style="stroke:#181818;stroke-width:1.0;"/><path d="M311.2188,250.6406 Q310.6406,250.9375 310,251.0781 Q309.3594,251.2344 308.6563,251.2344 Q306.1563,251.2344 304.8281,249.5938 Q303.5156,247.9375 303.5156,244.8125 Q303.5156,241.6875 304.8281,240.0313 Q306.1563,238.375 308.6563,238.375 Q309.3594,238.375 310,238.5313 Q310.6563,238.6875 311.2188,238.9844 L311.2188,241.7031 Q310.5938,241.125 310,240.8594 Q309.4063,240.5781 308.7813,240.5781 Q307.4375,240.5781 306.75,241.6563 Q306.0625,242.7188 306.0625,244.8125 Q306.0625,246.9063 306.75,247.9844 Q307.4375,249.0469 308.7813,249.0469 Q309.4063,249.0469 310,248.7813 Q310.5938,248.5 311.2188,247.9219 L311.2188,250.6406 Z " fill="#000000"/><text fill="#000000" font-family="sans-serif" font-size="14" lengthAdjust="spacing" textLength="124" x="328.75" y="249.8467">HealthcareService</text><line style="stroke:#181818;stroke-width:0.5;" x1="243.5" x2="505.5" y1="261" y2="261"/><text fill="#000000" font-family="sans-serif" font-size="14" lengthAdjust="spacing" textLength="126" x="248.5" y="277.9951">identifier (1..*, MS)</text><text fill="#000000" font-family="sans-serif" font-size="14" lengthAdjust="spacing" textLength="240" x="248.5" y="294.292">providedBy (1..1, MS, LDAP/Owner)</text><text fill="#000000" font-family="sans-serif" font-size="14" lengthAdjust="spacing" textLength="224" x="248.5" y="310.5889">speciality (0..*, MS, LDAP/Owner)</text><text fill="#000000" font-family="sans-serif" font-size="14" lengthAdjust="spacing" textLength="215" x="248.5" y="326.8857">location (0..*, MS, LDAP/Owner)</text><text fill="#000000" font-family="sans-serif" font-size="14" lengthAdjust="spacing" textLength="129" x="248.5" y="343.1826">endpoint (0..*, MS)</text><text fill="#000000" font-family="sans-serif" font-size="14" lengthAdjust="spacing" textLength="216" x="248.5" y="359.4795">meta.tag.origin (1..1, MS, LDAP)</text><text fill="#000000" font-family="sans-serif" font-size="14" lengthAdjust="spacing" textLength="219" x="248.5" y="375.7764">meta.security.ownerId (1..*, MS)</text><text fill="#000000" font-family="sans-serif" font-size="14" lengthAdjust="spacing" textLength="252" x="248.5" y="392.0732">meta.security.holder (1..*, MS, LDAP)</text><line style="stroke:#181818;stroke-width:0.5;" x1="243.5" x2="505.5" y1="399.375" y2="399.375"/></g><!--MD5=[4fd3bb6c1d79f4919f90c95b62a35422]
class Endpoint--><g id="elem_Endpoint"><rect codeLine="23" fill="#F1F1F1" height="178.375" id="Endpoint" rx="2.5" ry="2.5" style="stroke:#181818;stroke-width:0.5;" width="231" x="7" y="467"/><ellipse cx="87.25" cy="483" fill="#ADD1B2" rx="11" ry="11" style="stroke:#181818;stroke-width:1.0;"/><path d="M90.2188,488.6406 Q89.6406,488.9375 89,489.0781 Q88.3594,489.2344 87.6563,489.2344 Q85.1563,489.2344 83.8281,487.5938 Q82.5156,485.9375 82.5156,482.8125 Q82.5156,479.6875 83.8281,478.0313 Q85.1563,476.375 87.6563,476.375 Q88.3594,476.375 89,476.5313 Q89.6563,476.6875 90.2188,476.9844 L90.2188,479.7031 Q89.5938,479.125 89,478.8594 Q88.4063,478.5781 87.7813,478.5781 Q86.4375,478.5781 85.75,479.6563 Q85.0625,480.7188 85.0625,482.8125 Q85.0625,484.9063 85.75,485.9844 Q86.4375,487.0469 87.7813,487.0469 Q88.4063,487.0469 89,486.7813 Q89.5938,486.5 90.2188,485.9219 L90.2188,488.6406 Z " fill="#000000"/><text fill="#000000" font-family="sans-serif" font-size="14" lengthAdjust="spacing" textLength="62" x="107.75" y="487.8467">Endpoint</text><line style="stroke:#181818;stroke-width:0.5;" x1="8" x2="237" y1="499" y2="499"/><text fill="#000000" font-family="sans-serif" font-size="14" lengthAdjust="spacing" textLength="126" x="13" y="515.9951">identifier (1..*, MS)</text><text fill="#000000" font-family="sans-serif" font-size="14" lengthAdjust="spacing" textLength="179" x="13" y="532.292">connectionType (0..*, MS)</text><text fill="#000000" font-family="sans-serif" font-size="14" lengthAdjust="spacing" textLength="110" x="13" y="548.5889">status (0..*, MS)</text><text fill="#000000" font-family="sans-serif" font-size="14" lengthAdjust="spacing" textLength="108" x="13" y="564.8857">name (0..1, MS)</text><text fill="#000000" font-family="sans-serif" font-size="14" lengthAdjust="spacing" textLength="125" x="13" y="581.1826">address (1..1, MS)</text><text fill="#000000" font-family="sans-serif" font-size="14" lengthAdjust="spacing" textLength="154" x="13" y="597.4795">payloadType (1..*, MS)</text><text fill="#000000" font-family="sans-serif" font-size="14" lengthAdjust="spacing" textLength="172" x="13" y="613.7764">meta.tag.origin (1..1, MS)</text><text fill="#000000" font-family="sans-serif" font-size="14" lengthAdjust="spacing" textLength="219" x="13" y="630.0732">meta.security.ownerId (1..*, MS)</text><line style="stroke:#181818;stroke-width:0.5;" x1="8" x2="237" y1="637.375" y2="637.375"/></g><!--MD5=[4f1f3706c1a355a8488e154afcaed5df]
class Location--><g id="elem_Location"><rect codeLine="34" fill="#F1F1F1" height="96.8906" id="Location" rx="2.5" ry="2.5" style="stroke:#181818;stroke-width:0.5;" width="228" x="273.5" y="507.5"/><ellipse cx="354.25" cy="523.5" fill="#ADD1B2" rx="11" ry="11" style="stroke:#181818;stroke-width:1.0;"/><path d="M357.2188,529.1406 Q356.6406,529.4375 356,529.5781 Q355.3594,529.7344 354.6563,529.7344 Q352.1563,529.7344 350.8281,528.0938 Q349.5156,526.4375 349.5156,523.3125 Q349.5156,520.1875 350.8281,518.5313 Q352.1563,516.875 354.6563,516.875 Q355.3594,516.875 356,517.0313 Q356.6563,517.1875 357.2188,517.4844 L357.2188,520.2031 Q356.5938,519.625 356,519.3594 Q355.4063,519.0781 354.7813,519.0781 Q353.4375,519.0781 352.75,520.1563 Q352.0625,521.2188 352.0625,523.3125 Q352.0625,525.4063 352.75,526.4844 Q353.4375,527.5469 354.7813,527.5469 Q355.4063,527.5469 356,527.2813 Q356.5938,527 357.2188,526.4219 L357.2188,529.1406 Z " fill="#000000"/><text fill="#000000" font-family="sans-serif" font-size="14" lengthAdjust="spacing" textLength="58" x="374.75" y="528.3467">Location</text><line style="stroke:#181818;stroke-width:0.5;" x1="274.5" x2="500.5" y1="539.5" y2="539.5"/><text fill="#000000" font-family="sans-serif" font-size="14" lengthAdjust="spacing" textLength="170" x="279.5" y="556.4951">identifier (1..*, MS, LDAP)</text><text fill="#000000" font-family="sans-serif" font-size="14" lengthAdjust="spacing" textLength="169" x="279.5" y="572.792">address (0..1, MS, LDAP)</text><text fill="#000000" font-family="sans-serif" font-size="14" lengthAdjust="spacing" textLength="216" x="279.5" y="589.0889">meta.tag.origin (1..1, MS, LDAP)</text><line style="stroke:#181818;stroke-width:0.5;" x1="274.5" x2="500.5" y1="596.3906" y2="596.3906"/></g><!--MD5=[f51dfa2edbf9d35ed3bfb981ad5148b3]
class HealthcareService_n--><g id="elem_HealthcareService_n"><rect fill="#F1F1F1" height="48" id="HealthcareService_n" rx="2.5" ry="2.5" style="stroke:#181818;stroke-width:0.5;" width="172" x="541.5" y="294"/><ellipse cx="556.5" cy="310" fill="#ADD1B2" rx="11" ry="11" style="stroke:#181818;stroke-width:1.0;"/><path d="M559.4688,315.6406 Q558.8906,315.9375 558.25,316.0781 Q557.6094,316.2344 556.9063,316.2344 Q554.4063,316.2344 553.0781,314.5938 Q551.7656,312.9375 551.7656,309.8125 Q551.7656,306.6875 553.0781,305.0313 Q554.4063,303.375 556.9063,303.375 Q557.6094,303.375 558.25,303.5313 Q558.9063,303.6875 559.4688,303.9844 L559.4688,306.7031 Q558.8438,306.125 558.25,305.8594 Q557.6563,305.5781 557.0313,305.5781 Q555.6875,305.5781 555,306.6563 Q554.3125,307.7188 554.3125,309.8125 Q554.3125,311.9063 555,312.9844 Q555.6875,314.0469 557.0313,314.0469 Q557.6563,314.0469 558.25,313.7813 Q558.8438,313.5 559.4688,312.9219 L559.4688,315.6406 Z " fill="#000000"/><text fill="#000000" font-family="sans-serif" font-size="14" lengthAdjust="spacing" textLength="140" x="570.5" y="314.8467">HealthcareService_n</text><line style="stroke:#181818;stroke-width:0.5;" x1="542.5" x2="712.5" y1="326" y2="326"/><line style="stroke:#181818;stroke-width:0.5;" x1="542.5" x2="712.5" y1="334" y2="334"/></g><!--MD5=[03a2d6c2492f622f1f216e3c97e7fe8e]
class Endpoint_n--><g id="elem_Endpoint_n"><rect fill="#F1F1F1" height="48" id="Endpoint_n" rx="2.5" ry="2.5" style="stroke:#181818;stroke-width:0.5;" width="110" x="560.5" y="532"/><ellipse cx="575.5" cy="548" fill="#ADD1B2" rx="11" ry="11" style="stroke:#181818;stroke-width:1.0;"/><path d="M578.4688,553.6406 Q577.8906,553.9375 577.25,554.0781 Q576.6094,554.2344 575.9063,554.2344 Q573.4063,554.2344 572.0781,552.5938 Q570.7656,550.9375 570.7656,547.8125 Q570.7656,544.6875 572.0781,543.0313 Q573.4063,541.375 575.9063,541.375 Q576.6094,541.375 577.25,541.5313 Q577.9063,541.6875 578.4688,541.9844 L578.4688,544.7031 Q577.8438,544.125 577.25,543.8594 Q576.6563,543.5781 576.0313,543.5781 Q574.6875,543.5781 574,544.6563 Q573.3125,545.7188 573.3125,547.8125 Q573.3125,549.9063 574,550.9844 Q574.6875,552.0469 576.0313,552.0469 Q576.6563,552.0469 577.25,551.7813 Q577.8438,551.5 578.4688,550.9219 L578.4688,553.6406 Z " fill="#000000"/><text fill="#000000" font-family="sans-serif" font-size="14" lengthAdjust="spacing" textLength="78" x="589.5" y="552.8467">Endpoint_n</text><line style="stroke:#181818;stroke-width:0.5;" x1="561.5" x2="669.5" y1="564" y2="564"/><line style="stroke:#181818;stroke-width:0.5;" x1="561.5" x2="669.5" y1="572" y2="572"/></g><!--MD5=[b3d68285015a2fb18a50ef1efea45b8c]
class Location_n--><g id="elem_Location_n"><rect fill="#F1F1F1" height="48" id="Location_n" rx="2.5" ry="2.5" style="stroke:#181818;stroke-width:0.5;" width="106" x="705.5" y="532"/><ellipse cx="720.5" cy="548" fill="#ADD1B2" rx="11" ry="11" style="stroke:#181818;stroke-width:1.0;"/><path d="M723.4688,553.6406 Q722.8906,553.9375 722.25,554.0781 Q721.6094,554.2344 720.9063,554.2344 Q718.4063,554.2344 717.0781,552.5938 Q715.7656,550.9375 715.7656,547.8125 Q715.7656,544.6875 717.0781,543.0313 Q718.4063,541.375 720.9063,541.375 Q721.6094,541.375 722.25,541.5313 Q722.9063,541.6875 723.4688,541.9844 L723.4688,544.7031 Q722.8438,544.125 722.25,543.8594 Q721.6563,543.5781 721.0313,543.5781 Q719.6875,543.5781 719,544.6563 Q718.3125,545.7188 718.3125,547.8125 Q718.3125,549.9063 719,550.9844 Q719.6875,552.0469 721.0313,552.0469 Q721.6563,552.0469 722.25,551.7813 Q722.8438,551.5 723.4688,550.9219 L723.4688,553.6406 Z " fill="#000000"/><text fill="#000000" font-family="sans-serif" font-size="14" lengthAdjust="spacing" textLength="74" x="734.5" y="552.8467">Location_n</text><line style="stroke:#181818;stroke-width:0.5;" x1="706.5" x2="810.5" y1="564" y2="564"/><line style="stroke:#181818;stroke-width:0.5;" x1="706.5" x2="810.5" y1="572" y2="572"/></g><!--MD5=[1e9b04598fc5b5b560d677a7642d17a1]
reverse link Organization to HealthcareService--><g id="link_Organization_HealthcareService"><path codeLine="40" d="M453.73,173.63 C443.75,191.68 433.19,210.79 423.15,228.97 " fill="none" id="Organization-backto-HealthcareService" style="stroke:#181818;stroke-width:1.0;"/><polygon fill="#181818" points="456.25,169.06,448.3908,174.9957,453.8278,173.4341,455.3894,178.8712,456.25,169.06" style="stroke:#181818;stroke-width:1.0;"/></g><!--MD5=[30f9800839f3285e9cb389ad7d1cba42]
link HealthcareService to Endpoint--><g id="link_HealthcareService_Endpoint"><path codeLine="41" d="M280.31,407.21 C260.78,425.5 240.16,444.81 220.5,463.22 " fill="none" id="HealthcareService-to-Endpoint" style="stroke:#181818;stroke-width:1.0;"/><polygon fill="#181818" points="216.58,466.89,225.8753,463.6345,220.221,463.4632,220.3923,457.8089,216.58,466.89" style="stroke:#181818;stroke-width:1.0;"/></g><!--MD5=[a777f1cce0c3c17a5cfdcf055c820cca]
link HealthcareService to Location--><g id="link_HealthcareService_Location"><path codeLine="42" d="M379.36,407.21 C381.12,439.14 383.05,474.17 384.59,502.11 " fill="none" id="HealthcareService-to-Location" style="stroke:#181818;stroke-width:1.0;"/><polygon fill="#181818" points="384.87,507.24,388.3748,498.0359,384.5982,502.2474,380.3867,498.4708,384.87,507.24" style="stroke:#181818;stroke-width:1.0;"/></g><!--MD5=[00794fd62c4d8e586bdd3d7ab4291822]
reverse link Organization to HealthcareService_n--><g id="link_Organization_HealthcareService_n"><path codeLine="44" d="M547.56,173.48 C571.58,216.61 598.97,265.78 614.65,293.93 " fill="none" id="Organization-backto-HealthcareService_n" style="stroke:#181818;stroke-width:1.0;"/><polygon fill="#181818" points="545.1,169.06,545.9742,178.87,547.5282,173.4308,552.9674,174.9848,545.1,169.06" style="stroke:#181818;stroke-width:1.0;"/></g><!--MD5=[3ec10212ac5c5301a0bbd8c8960ae6a4]
link HealthcareService_n to Endpoint_n--><g id="link_HealthcareService_n_Endpoint_n"><path codeLine="45" d="M626.33,342.06 C624.12,385.5 619.35,479.35 616.94,526.6 " fill="none" id="HealthcareService_n-to-Endpoint_n" style="stroke:#181818;stroke-width:1.0;"/><polygon fill="#181818" points="616.68,531.85,621.1119,523.0547,616.9226,526.8559,613.1213,522.6665,616.68,531.85" style="stroke:#181818;stroke-width:1.0;"/></g><!--MD5=[8d14577ddcdba515f06d69c00c947d7c]
link HealthcareService_n to Location_n--><g id="link_HealthcareService_n_Location_n"><path codeLine="46" d="M640.3,342.06 C664.56,385.77 717.14,480.49 743.21,527.46 " fill="none" id="HealthcareService_n-to-Location_n" style="stroke:#181818;stroke-width:1.0;"/><polygon fill="#181818" points="745.65,531.85,744.7758,522.04,743.2218,527.4792,737.7826,525.9252,745.65,531.85" style="stroke:#181818;stroke-width:1.0;"/></g><!--MD5=[6dc736ac7e6db022d4ec8e0dd13940bb]
@startuml
 
class Organization {
  {field} identifier (1..*, MS, LDAP)
  {field} name (1..1, MS)
  {field} alias (0..*, MS)
  {field} type(1..*, MS, LDAP)
  {field} active (1..1, MS, LDAP)
  {field} telecom (0..*, MS)
  {field} meta.tag.origin (1..1, MS, LDAP)
}
 
class HealthcareService {
  {field} identifier (1..*, MS)
  {field} providedBy (1..1, MS, LDAP/Owner)
  {field} speciality (0..*, MS, LDAP/Owner)
  {field} location (0..*, MS, LDAP/Owner)
  {field} endpoint (0..*, MS)
  {field} meta.tag.origin (1..1, MS, LDAP)
  {field} meta.security.ownerId (1..*, MS)
  {field} meta.security.holder (1..*, MS, LDAP)
}
 
class Endpoint {
  {field} identifier (1..*, MS)
  {field} connectionType (0..*, MS)
  {field} status (0..*, MS)
  {field} name (0..1, MS)
  {field} address (1..1, MS)
  {field} payloadType (1..*, MS)
  {field} meta.tag.origin (1..1, MS)
  {field} meta.security.ownerId (1..*, MS)
}
 
class Location {
  {field} identifier (1..*, MS, LDAP)
  {field} address (0..1, MS, LDAP)
  {field} meta.tag.origin (1..1, MS, LDAP)
}
 
Organization <- - HealthcareService
HealthcareService - -> Endpoint
HealthcareService - -> Location
 
Organization <- - HealthcareService_n
HealthcareService_n - -> Endpoint_n
HealthcareService_n - -> Location_n
 
@enduml

PlantUML version 1.2022.13(Sat Nov 19 13:22:17 UTC 2022)
(GPL source distribution)
Java Runtime: OpenJDK Runtime Environment
JVM: OpenJDK 64-Bit Server VM
Default Encoding: UTF-8
Language: en
Country: null
--></g></svg>