<?xml version="1.0" encoding="UTF-8" standalone="no"?><svg xmlns="http://www.w3.org/2000/svg" xmlns:xlink="http://www.w3.org/1999/xlink" contentScriptType="application/ecmascript" contentStyleType="text/css" height="373px" preserveAspectRatio="none" style="width:648px;height:373px;background:#FFFFFF;" version="1.1" viewBox="0 0 648 373" width="648px" zoomAndPan="magnify"><defs><filter height="300%" id="ff3hclljkerwi" width="300%" x="-1" y="-1"><feGaussianBlur result="blurOut" stdDeviation="2.0"/><feColorMatrix in="blurOut" result="blurOut2" type="matrix" values="0 0 0 0 0 0 0 0 0 0 0 0 0 0 0 0 0 0 .4 0"/><feOffset dx="4.0" dy="4.0" in="blurOut2" result="blurOut3"/><feBlend in="SourceGraphic" in2="blurOut3" mode="normal"/></filter></defs><g><!--MD5=[7b9c16a3d4995a55b032296f71ab1184]
class PractitionerRole--><rect codeLine="2" fill="#F8F8F8" filter="url(#ff3hclljkerwi)" height="112.0234" id="PractitionerRole" style="stroke:#383838;stroke-width:1.5;" width="172" x="223" y="7"/><ellipse cx="256" cy="23" fill="#C2C2C2" rx="11" ry="11" style="stroke:#383838;stroke-width:1.0;"/><path d="M258.9688,28.6406 Q258.3906,28.9375 257.75,29.0781 Q257.1094,29.2344 256.4063,29.2344 Q253.9063,29.2344 252.5781,27.5938 Q251.2656,25.9375 251.2656,22.8125 Q251.2656,19.6875 252.5781,18.0313 Q253.9063,16.375 256.4063,16.375 Q257.1094,16.375 257.75,16.5313 Q258.4063,16.6875 258.9688,16.9844 L258.9688,19.7031 Q258.3438,19.125 257.75,18.8594 Q257.1563,18.5781 256.5313,18.5781 Q255.1875,18.5781 254.5,19.6563 Q253.8125,20.7188 253.8125,22.8125 Q253.8125,24.9063 254.5,25.9844 Q255.1875,27.0469 256.5313,27.0469 Q257.1563,27.0469 257.75,26.7813 Q258.3438,26.5 258.9688,25.9219 L258.9688,28.6406 Z " fill="#000000"/><text fill="#000000" font-family="sans-serif" font-size="12" lengthAdjust="spacing" textLength="100" x="274" y="27.1543">PractitionerRole</text><line style="stroke:#383838;stroke-width:1.5;" x1="224" x2="394" y1="39" y2="39"/><text fill="#000000" font-family="sans-serif" font-size="11" lengthAdjust="spacing" textLength="102" x="229" y="53.2104">identifier (0.., MS)</text><text fill="#000000" font-family="sans-serif" font-size="11" lengthAdjust="spacing" textLength="160" x="229" y="66.0151">practitioner (1..1, MS, LDAP)</text><text fill="#000000" font-family="sans-serif" font-size="11" lengthAdjust="spacing" textLength="105" x="229" y="78.8198">speciality (0.., MS)</text><text fill="#000000" font-family="sans-serif" font-size="11" lengthAdjust="spacing" textLength="96" x="229" y="91.6245">location (0.., MS)</text><text fill="#000000" font-family="sans-serif" font-size="11" lengthAdjust="spacing" textLength="101" x="229" y="104.4292">endpoint (0.., MS)</text><line style="stroke:#383838;stroke-width:1.5;" x1="224" x2="394" y1="111.0234" y2="111.0234"/><!--MD5=[2edc31ff762501c9cec4b1b863028f54]
class Practitioner--><rect codeLine="9" fill="#F8F8F8" filter="url(#ff3hclljkerwi)" height="163.2422" id="Practitioner" style="stroke:#383838;stroke-width:1.5;" width="168" x="7" y="196"/><ellipse cx="50.35" cy="212" fill="#C2C2C2" rx="11" ry="11" style="stroke:#383838;stroke-width:1.0;"/><path d="M53.3188,217.6406 Q52.7406,217.9375 52.1,218.0781 Q51.4594,218.2344 50.7563,218.2344 Q48.2563,218.2344 46.9281,216.5938 Q45.6156,214.9375 45.6156,211.8125 Q45.6156,208.6875 46.9281,207.0313 Q48.2563,205.375 50.7563,205.375 Q51.4594,205.375 52.1,205.5313 Q52.7563,205.6875 53.3188,205.9844 L53.3188,208.7031 Q52.6938,208.125 52.1,207.8594 Q51.5063,207.5781 50.8813,207.5781 Q49.5375,207.5781 48.85,208.6563 Q48.1625,209.7188 48.1625,211.8125 Q48.1625,213.9063 48.85,214.9844 Q49.5375,216.0469 50.8813,216.0469 Q51.5063,216.0469 52.1,215.7813 Q52.6938,215.5 53.3188,214.9219 L53.3188,217.6406 Z " fill="#000000"/><text fill="#000000" font-family="sans-serif" font-size="12" lengthAdjust="spacing" textLength="73" x="70.65" y="216.1543">Practitioner</text><line style="stroke:#383838;stroke-width:1.5;" x1="8" x2="174" y1="228" y2="228"/><text fill="#000000" font-family="sans-serif" font-size="11" lengthAdjust="spacing" textLength="138" x="13" y="242.2104">identifier (1.., MS, LDAP)</text><text fill="#000000" font-family="sans-serif" font-size="11" lengthAdjust="spacing" textLength="128" x="13" y="255.0151">active (1..1, MS, LDAP)</text><text fill="#000000" font-family="sans-serif" font-size="11" lengthAdjust="spacing" textLength="127" x="13" y="267.8198">name (1..1, MS, LDAP)</text><text fill="#000000" font-family="sans-serif" font-size="11" lengthAdjust="spacing" textLength="97" x="13" y="280.6245">telecom (0.., MS)</text><text fill="#000000" font-family="sans-serif" font-size="11" lengthAdjust="spacing" textLength="99" x="13" y="293.4292">gender (0..1, MS)</text><text fill="#000000" font-family="sans-serif" font-size="11" lengthAdjust="spacing" textLength="111" x="13" y="306.2339">birthDate (0..1, MS)</text><text fill="#000000" font-family="sans-serif" font-size="11" lengthAdjust="spacing" textLength="84" x="13" y="319.0386">photo (0.., MS)</text><text fill="#000000" font-family="sans-serif" font-size="11" lengthAdjust="spacing" textLength="156" x="13" y="331.8433">qualification (0.., MS, LDAP)</text><text fill="#000000" font-family="sans-serif" font-size="11" lengthAdjust="spacing" textLength="138" x="13" y="344.6479">communication (0.., MS)</text><line style="stroke:#383838;stroke-width:1.5;" x1="8" x2="174" y1="351.2422" y2="351.2422"/><!--MD5=[4fd3bb6c1d79f4919f90c95b62a35422]
class Endpoint--><rect codeLine="20" fill="#F8F8F8" filter="url(#ff3hclljkerwi)" height="137.6328" id="Endpoint" style="stroke:#383838;stroke-width:1.5;" width="198" x="210" y="208.5"/><ellipse cx="276.75" cy="224.5" fill="#C2C2C2" rx="11" ry="11" style="stroke:#383838;stroke-width:1.0;"/><path d="M279.7188,230.1406 Q279.1406,230.4375 278.5,230.5781 Q277.8594,230.7344 277.1563,230.7344 Q274.6563,230.7344 273.3281,229.0938 Q272.0156,227.4375 272.0156,224.3125 Q272.0156,221.1875 273.3281,219.5313 Q274.6563,217.875 277.1563,217.875 Q277.8594,217.875 278.5,218.0313 Q279.1563,218.1875 279.7188,218.4844 L279.7188,221.2031 Q279.0938,220.625 278.5,220.3594 Q277.9063,220.0781 277.2813,220.0781 Q275.9375,220.0781 275.25,221.1563 Q274.5625,222.2188 274.5625,224.3125 Q274.5625,226.4063 275.25,227.4844 Q275.9375,228.5469 277.2813,228.5469 Q277.9063,228.5469 278.5,228.2813 Q279.0938,228 279.7188,227.4219 L279.7188,230.1406 Z " fill="#000000"/><text fill="#000000" font-family="sans-serif" font-size="12" lengthAdjust="spacing" textLength="56" x="297.25" y="228.6543">Endpoint</text><line style="stroke:#383838;stroke-width:1.5;" x1="211" x2="407" y1="240.5" y2="240.5"/><text fill="#000000" font-family="sans-serif" font-size="11" lengthAdjust="spacing" textLength="102" x="216" y="254.7104">identifier (0.., MS)</text><text fill="#000000" font-family="sans-serif" font-size="11" lengthAdjust="spacing" textLength="95" x="216" y="267.5151">status (1..1, MS)</text><text fill="#000000" font-family="sans-serif" font-size="11" lengthAdjust="spacing" textLength="147" x="216" y="280.3198">connectionType (1..1, MS)</text><text fill="#000000" font-family="sans-serif" font-size="11" lengthAdjust="spacing" textLength="91" x="216" y="293.1245">name (1..1, MS)</text><text fill="#000000" font-family="sans-serif" font-size="11" lengthAdjust="spacing" textLength="186" x="216" y="305.9292">managingOrganization (0..1, MS)</text><text fill="#000000" font-family="sans-serif" font-size="11" lengthAdjust="spacing" textLength="123" x="216" y="318.7339">payloadType (1.., MS)</text><text fill="#000000" font-family="sans-serif" font-size="11" lengthAdjust="spacing" textLength="106" x="216" y="331.5386">address (1..1, MS)</text><line style="stroke:#383838;stroke-width:1.5;" x1="211" x2="407" y1="338.1328" y2="338.1328"/><!--MD5=[4f1f3706c1a355a8488e154afcaed5df]
class Location--><rect codeLine="29" fill="#F8F8F8" filter="url(#ff3hclljkerwi)" height="163.2422" id="Location" style="stroke:#383838;stroke-width:1.5;" width="191" x="443.5" y="196"/><ellipse cx="508.25" cy="212" fill="#C2C2C2" rx="11" ry="11" style="stroke:#383838;stroke-width:1.0;"/><path d="M511.2188,217.6406 Q510.6406,217.9375 510,218.0781 Q509.3594,218.2344 508.6563,218.2344 Q506.1563,218.2344 504.8281,216.5938 Q503.5156,214.9375 503.5156,211.8125 Q503.5156,208.6875 504.8281,207.0313 Q506.1563,205.375 508.6563,205.375 Q509.3594,205.375 510,205.5313 Q510.6563,205.6875 511.2188,205.9844 L511.2188,208.7031 Q510.5938,208.125 510,207.8594 Q509.4063,207.5781 508.7813,207.5781 Q507.4375,207.5781 506.75,208.6563 Q506.0625,209.7188 506.0625,211.8125 Q506.0625,213.9063 506.75,214.9844 Q507.4375,216.0469 508.7813,216.0469 Q509.4063,216.0469 510,215.7813 Q510.5938,215.5 511.2188,214.9219 L511.2188,217.6406 Z " fill="#000000"/><text fill="#000000" font-family="sans-serif" font-size="12" lengthAdjust="spacing" textLength="53" x="528.75" y="216.1543">Location</text><line style="stroke:#383838;stroke-width:1.5;" x1="444.5" x2="633.5" y1="228" y2="228"/><text fill="#000000" font-family="sans-serif" font-size="11" lengthAdjust="spacing" textLength="102" x="449.5" y="242.2104">identifier (0.., MS)</text><text fill="#000000" font-family="sans-serif" font-size="11" lengthAdjust="spacing" textLength="88" x="449.5" y="255.0151">status (0.., MS)</text><text fill="#000000" font-family="sans-serif" font-size="11" lengthAdjust="spacing" textLength="91" x="449.5" y="267.8198">name (0..1, MS)</text><text fill="#000000" font-family="sans-serif" font-size="11" lengthAdjust="spacing" textLength="122" x="449.5" y="280.6245">description (0..1, MS)</text><text fill="#000000" font-family="sans-serif" font-size="11" lengthAdjust="spacing" textLength="97" x="449.5" y="293.4292">telecom (0.., MS)</text><text fill="#000000" font-family="sans-serif" font-size="11" lengthAdjust="spacing" textLength="106" x="449.5" y="306.2339">address (0..1, MS)</text><text fill="#000000" font-family="sans-serif" font-size="11" lengthAdjust="spacing" textLength="104" x="449.5" y="319.0386">position (0..1, MS)</text><text fill="#000000" font-family="sans-serif" font-size="11" lengthAdjust="spacing" textLength="154" x="449.5" y="331.8433">hoursOfOperation (0.., MS)</text><text fill="#000000" font-family="sans-serif" font-size="11" lengthAdjust="spacing" textLength="179" x="449.5" y="344.6479">availabilityExceptions (0..1, MS)</text><line style="stroke:#383838;stroke-width:1.5;" x1="444.5" x2="633.5" y1="351.2422" y2="351.2422"/><!--MD5=[8bdbfd47c206126371fe28da16da2c38]
reverse link PractitionerRole to Practitioner--><path codeLine="41" d="M243.1,128.24 C221.31,149.48 196.79,173.38 173.9,195.7 " fill="none" id="PractitionerRole-backto-Practitioner" style="stroke:#383838;stroke-width:1.0;"/><polygon fill="#FFFFFF" points="252.58,119,245.4919,120.3261,243.9898,127.3791,251.0779,126.0529,252.58,119" style="stroke:#383838;stroke-width:1.0;"/><text fill="#000000" font-family="sans-serif" font-size="13" lengthAdjust="spacing" textLength="73" x="221" y="162.0669">practitioner</text><!--MD5=[19650f91da0f4b19284021841804106f]
reverse link PractitionerRole to Endpoint--><path codeLine="42" d="M309,132.19 C309,156.58 309,184.05 309,208.43 " fill="none" id="PractitionerRole-backto-Endpoint" style="stroke:#383838;stroke-width:1.0;"/><polygon fill="#FFFFFF" points="309,119,305,125,309,131,313,125,309,119" style="stroke:#383838;stroke-width:1.0;"/><text fill="#000000" font-family="sans-serif" font-size="13" lengthAdjust="spacing" textLength="56" x="310" y="162.0669">endpoint</text><!--MD5=[8db30d2c8d0b651ef32eee6ae94cb401]
reverse link PractitionerRole to Location--><path codeLine="43" d="M378.22,127.95 C401.28,149.26 427.28,173.28 451.54,195.7 " fill="none" id="PractitionerRole-backto-Location" style="stroke:#383838;stroke-width:1.0;"/><polygon fill="#FFFFFF" points="368.53,119,370.2179,126.0108,377.3385,127.1492,375.6507,120.1384,368.53,119" style="stroke:#383838;stroke-width:1.0;"/><text fill="#000000" font-family="sans-serif" font-size="13" lengthAdjust="spacing" textLength="50" x="419" y="162.0669">location</text><!--MD5=[285d30e2531120ffa616ea0adf3d49e6]
@startuml ClassDiagram.PractitionerRole
skinparam monochrome true
class PractitionerRole {
  {field} identifier (0.., MS)
  {field} practitioner (1..1, MS, LDAP)
  {field} speciality (0.., MS)
  {field} location (0.., MS)
  {field} endpoint (0.., MS)
}
class Practitioner {
  {field} identifier (1.., MS, LDAP)
  {field} active (1..1, MS, LDAP)
  {field} name (1..1, MS, LDAP)
  {field} telecom (0.., MS)
  {field} gender (0..1, MS)
  {field} birthDate (0..1, MS)
  {field} photo (0.., MS)
  {field} qualification (0.., MS, LDAP)
  {field} communication (0.., MS)
}
class Endpoint {
  {field} identifier (0.., MS)
  {field} status (1..1, MS)
  {field} connectionType (1..1, MS)
  {field} name (1..1, MS)
  {field} managingOrganization (0..1, MS)
  {field} payloadType (1.., MS)
  {field} address (1..1, MS)
}
class Location {
  {field} identifier (0.., MS)
  {field} status (0.., MS)
  {field} name (0..1, MS)
  {field} description (0..1, MS)
  {field} telecom (0.., MS)
  {field} address (0..1, MS)
  {field} position (0..1, MS)
  {field} hoursOfOperation (0.., MS)
  {field} availabilityExceptions (0..1, MS)
}

PractitionerRole o- - Practitioner: practitioner
PractitionerRole o- - Endpoint: endpoint
PractitionerRole o- - Location: location
@enduml

PlantUML version 1.2021.16(Wed Dec 08 17:25:22 UTC 2021)
(GPL source distribution)
Java Runtime: OpenJDK Runtime Environment
JVM: OpenJDK 64-Bit Server VM
Default Encoding: UTF-8
Language: en
Country: null
--></g></svg>