<svg xmlns="http://www.w3.org/2000/svg" xmlns:xlink="http://www.w3.org/1999/xlink" contentStyleType="text/css" height="834px" preserveAspectRatio="none" style="width:2108px;height:834px;background:#FFFFFF;" version="1.1" viewBox="0 0 2108 834" width="2108px" zoomAndPan="magnify"><defs/><g><!--cluster LDAP VZD--><g id="cluster_LDAP VZD"><rect fill="#90EE90" height="172" rx="2.5" ry="2.5" style="stroke:#181818;stroke-width:1;" width="918" x="7" y="7"/><path d="M96.1191,7 L96.1191,16.2969 L86.1191,26.2969 L7,26.2969 " fill="none" style="stroke:#181818;stroke-width:1;"/><text fill="#000000" font-family="sans-serif" font-size="14" font-weight="bold" lengthAdjust="spacing" textLength="79.1191" x="10" y="20.9951">LDAP VZD</text></g><!--cluster FHIR VZD--><g id="cluster_FHIR VZD"><rect fill="#FFFFE0" height="616" rx="2.5" ry="2.5" style="stroke:#181818;stroke-width:1;" width="1255" x="189" y="212"/><path d="M273.751,212 L273.751,221.2969 L263.751,231.2969 L189,231.2969 " fill="none" style="stroke:#181818;stroke-width:1;"/><text fill="#000000" font-family="sans-serif" font-size="14" font-weight="bold" lengthAdjust="spacing" textLength="74.751" x="192" y="225.9951">FHIR VZD</text></g><!--cluster ApoVZD--><g id="cluster_ApoVZD"><rect fill="#ADD8E6" height="172" rx="2.5" ry="2.5" style="stroke:#181818;stroke-width:1;" width="581" x="1320" y="7"/><path d="M1393.082,7 L1393.082,16.2969 L1383.082,26.2969 L1320,26.2969 " fill="none" style="stroke:#181818;stroke-width:1;"/><text fill="#000000" font-family="sans-serif" font-size="14" font-weight="bold" lengthAdjust="spacing" textLength="63.082" x="1323" y="20.9951">ApoVZD</text></g><!--class specialization--><g id="elem_specialization"><rect codeLine="4" fill="#F1F1F1" height="113.1875" id="specialization" rx="2.5" ry="2.5" style="stroke:#181818;stroke-width:0.5;" width="304.2842" x="236" y="46"/><ellipse cx="336.1499" cy="62" fill="#ADD1B2" rx="11" ry="11" style="stroke:#181818;stroke-width:1;"/><path d="M339.1187,67.6406 Q338.5405,67.9375 337.8999,68.0781 Q337.2593,68.2344 336.5562,68.2344 Q334.0562,68.2344 332.728,66.5938 Q331.4155,64.9375 331.4155,61.8125 Q331.4155,58.6875 332.728,57.0313 Q334.0562,55.375 336.5562,55.375 Q337.2593,55.375 337.8999,55.5313 Q338.5562,55.6875 339.1187,55.9844 L339.1187,58.7031 Q338.4937,58.125 337.8999,57.8594 Q337.3062,57.5781 336.6812,57.5781 Q335.3374,57.5781 334.6499,58.6563 Q333.9624,59.7188 333.9624,61.8125 Q333.9624,63.9063 334.6499,64.9844 Q335.3374,66.0469 336.6812,66.0469 Q337.3062,66.0469 337.8999,65.7813 Q338.4937,65.5 339.1187,64.9219 L339.1187,67.6406 Z " fill="#000000"/><text fill="#000000" font-family="sans-serif" font-size="14" lengthAdjust="spacing" textLength="95.4844" x="356.6499" y="66.8467">specialization</text><line style="stroke:#181818;stroke-width:0.5;" x1="237" x2="539.2842" y1="78" y2="78"/><ellipse cx="247" cy="91.6484" fill="none" rx="3" ry="3" style="stroke:#038048;stroke-width:1;"/><text fill="#000000" font-family="sans-serif" font-size="14" lengthAdjust="spacing" textLength="143.7666" x="256" y="94.9951">10_Officin_Apotheke</text><ellipse cx="247" cy="107.9453" fill="none" rx="3" ry="3" style="stroke:#038048;stroke-width:1;"/><text fill="#000000" font-family="sans-serif" font-size="14" lengthAdjust="spacing" textLength="278.2842" x="256" y="111.292">20_Krankenhausversorgende_Apotheke</text><ellipse cx="247" cy="124.2422" fill="none" rx="3" ry="3" style="stroke:#038048;stroke-width:1;"/><text fill="#000000" font-family="sans-serif" font-size="14" lengthAdjust="spacing" textLength="223.3506" x="256" y="127.5889">30_Heimversorgende_Apotheke</text><ellipse cx="247" cy="140.5391" fill="none" rx="3" ry="3" style="stroke:#038048;stroke-width:1;"/><text fill="#000000" font-family="sans-serif" font-size="14" lengthAdjust="spacing" textLength="148.1211" x="256" y="143.8857">40_Versandapotheke</text><line style="stroke:#181818;stroke-width:0.5;" x1="237" x2="539.2842" y1="151.1875" y2="151.1875"/></g><g id="elem_GMN4"><path d="M23.47,89.93 L23.47,115.0628 A0,0 0 0 0 23.47,115.0628 L192.5291,115.0628 A0,0 0 0 0 192.5291,115.0628 L192.5291,107.93 L228.23,102.5 L192.5291,99.93 L192.5291,99.93 L182.5291,89.93 L23.47,89.93 A0,0 0 0 0 23.47,89.93 " fill="#FEFFDD" style="stroke:#181818;stroke-width:0.5;"/><path d="M182.5291,89.93 L182.5291,99.93 L192.5291,99.93 L182.5291,89.93 " fill="#FEFFDD" style="stroke:#181818;stroke-width:0.5;"/><text fill="#000000" font-family="sans-serif" font-size="13" lengthAdjust="spacing" textLength="148.0591" x="29.47" y="106.9969">PharmacyTypeLDAPCS</text></g><!--class professionOID--><g id="elem_professionOID"><rect codeLine="15" fill="#F1F1F1" height="96.8906" id="professionOID" rx="2.5" ry="2.5" style="stroke:#181818;stroke-width:0.5;" width="325.7354" x="583.13" y="54.05"/><ellipse cx="692.4503" cy="70.05" fill="#ADD1B2" rx="11" ry="11" style="stroke:#181818;stroke-width:1;"/><path d="M695.4191,75.6906 Q694.8409,75.9875 694.2003,76.1281 Q693.5597,76.2844 692.8566,76.2844 Q690.3566,76.2844 689.0284,74.6437 Q687.7159,72.9875 687.7159,69.8625 Q687.7159,66.7375 689.0284,65.0812 Q690.3566,63.425 692.8566,63.425 Q693.5597,63.425 694.2003,63.5812 Q694.8566,63.7375 695.4191,64.0344 L695.4191,66.7531 Q694.7941,66.175 694.2003,65.9094 Q693.6066,65.6281 692.9816,65.6281 Q691.6378,65.6281 690.9503,66.7062 Q690.2628,67.7687 690.2628,69.8625 Q690.2628,71.9562 690.9503,73.0344 Q691.6378,74.0969 692.9816,74.0969 Q693.6066,74.0969 694.2003,73.8312 Q694.7941,73.55 695.4191,72.9719 L695.4191,75.6906 Z " fill="#000000"/><text fill="#000000" font-family="sans-serif" font-size="14" lengthAdjust="spacing" textLength="98.5947" x="712.9503" y="74.8967">professionOID</text><line style="stroke:#181818;stroke-width:0.5;" x1="584.13" x2="907.8654" y1="86.05" y2="86.05"/><ellipse cx="594.13" cy="99.6984" fill="none" rx="3" ry="3" style="stroke:#038048;stroke-width:1;"/><text fill="#000000" font-family="sans-serif" font-size="14" lengthAdjust="spacing" textLength="124.6807" x="603.13" y="103.0451">1.2.276.0.76.4.54</text><text fill="#000000" font-family="sans-serif" font-size="14" lengthAdjust="spacing" textLength="147.9912" x="745.5363" y="103.0451">&#214;ffentliche Apotheke</text><ellipse cx="594.13" cy="115.9953" fill="none" rx="3" ry="3" style="stroke:#038048;stroke-width:1;"/><text fill="#000000" font-family="sans-serif" font-size="14" lengthAdjust="spacing" textLength="124.6807" x="603.13" y="119.342">1.2.276.0.76.4.55</text><text fill="#000000" font-family="sans-serif" font-size="14" lengthAdjust="spacing" textLength="157.3291" x="745.5363" y="119.342">Krankenhausapotheke</text><ellipse cx="594.13" cy="132.2922" fill="none" rx="3" ry="3" style="stroke:#038048;stroke-width:1;"/><text fill="#000000" font-family="sans-serif" font-size="14" lengthAdjust="spacing" textLength="124.6807" x="603.13" y="135.6389">1.2.276.0.76.4.56</text><text fill="#000000" font-family="sans-serif" font-size="14" lengthAdjust="spacing" textLength="152.5645" x="745.5363" y="135.6389">Bundeswehrapotheke</text><line style="stroke:#181818;stroke-width:0.5;" x1="584.13" x2="907.8654" y1="142.9406" y2="142.9406"/></g><!--class HealthcareService_specialty--><g id="elem_HealthcareService_specialty"><rect codeLine="24" fill="#F1F1F1" height="129.4844" id="HealthcareService_specialty" rx="2.5" ry="2.5" style="stroke:#181818;stroke-width:0.5;" width="229.9824" x="213.5" y="514"/><ellipse cx="228.5" cy="530" fill="#ADD1B2" rx="11" ry="11" style="stroke:#181818;stroke-width:1;"/><path d="M231.4688,535.6406 Q230.8906,535.9375 230.25,536.0781 Q229.6094,536.2344 228.9063,536.2344 Q226.4063,536.2344 225.0781,534.5938 Q223.7656,532.9375 223.7656,529.8125 Q223.7656,526.6875 225.0781,525.0313 Q226.4063,523.375 228.9063,523.375 Q229.6094,523.375 230.25,523.5313 Q230.9063,523.6875 231.4688,523.9844 L231.4688,526.7031 Q230.8438,526.125 230.25,525.8594 Q229.6563,525.5781 229.0313,525.5781 Q227.6875,525.5781 227,526.6563 Q226.3125,527.7188 226.3125,529.8125 Q226.3125,531.9063 227,532.9844 Q227.6875,534.0469 229.0313,534.0469 Q229.6563,534.0469 230.25,533.7813 Q230.8438,533.5 231.4688,532.9219 L231.4688,535.6406 Z " fill="#000000"/><text fill="#000000" font-family="sans-serif" font-size="14" lengthAdjust="spacing" textLength="197.9824" x="242.5" y="534.8467">HealthcareService_specialty</text><line style="stroke:#181818;stroke-width:0.5;" x1="214.5" x2="442.4824" y1="546" y2="546"/><ellipse cx="224.5" cy="559.6484" fill="none" rx="3" ry="3" style="stroke:#038048;stroke-width:1;"/><text fill="#000000" font-family="sans-serif" font-size="14" lengthAdjust="spacing" textLength="114.8232" x="233.5" y="562.9951">10_Handverkauf</text><ellipse cx="224.5" cy="575.9453" fill="none" rx="3" ry="3" style="stroke:#038048;stroke-width:1;"/><text fill="#000000" font-family="sans-serif" font-size="14" lengthAdjust="spacing" textLength="174.1318" x="233.5" y="579.292">20_Nacht_und_Notdienst</text><ellipse cx="224.5" cy="592.2422" fill="none" rx="3" ry="3" style="stroke:#038048;stroke-width:1;"/><text fill="#000000" font-family="sans-serif" font-size="14" lengthAdjust="spacing" textLength="109.0059" x="233.5" y="595.5889">30_Botendienst</text><ellipse cx="224.5" cy="608.5391" fill="none" rx="3" ry="3" style="stroke:#038048;stroke-width:1;"/><text fill="#000000" font-family="sans-serif" font-size="14" lengthAdjust="spacing" textLength="82.3936" x="233.5" y="611.8857">40_Versand</text><ellipse cx="224.5" cy="624.8359" fill="none" rx="3" ry="3" style="stroke:#038048;stroke-width:1;"/><text fill="#000000" font-family="sans-serif" font-size="14" lengthAdjust="spacing" textLength="140.3896" x="233.5" y="628.1826">50_Sterilherstellung</text><line style="stroke:#181818;stroke-width:0.5;" x1="214.5" x2="442.4824" y1="635.4844" y2="635.4844"/></g><g id="elem_GMN10"><path d="M205.21,327.43 L205.21,352.5628 A0,0 0 0 0 205.21,352.5628 L320.2,352.5628 L326.86,510.09 L328.2,352.5628 L442.7857,352.5628 A0,0 0 0 0 442.7857,352.5628 L442.7857,337.43 L432.7857,327.43 L205.21,327.43 A0,0 0 0 0 205.21,327.43 " fill="#FEFFDD" style="stroke:#181818;stroke-width:0.5;"/><path d="M432.7857,327.43 L432.7857,337.43 L442.7857,337.43 L432.7857,327.43 " fill="#FEFFDD" style="stroke:#181818;stroke-width:0.5;"/><text fill="#000000" font-family="sans-serif" font-size="13" lengthAdjust="spacing" textLength="216.5757" x="211.21" y="344.4969">PharmacyHealthcareSpecialityCS</text></g><!--class HealthcareService_type--><g id="elem_HealthcareService_type"><rect codeLine="36" fill="#F1F1F1" height="145.7813" id="HealthcareService_type" rx="2.5" ry="2.5" style="stroke:#181818;stroke-width:0.5;" width="276.9199" x="477.54" y="267.11"/><ellipse cx="528.4336" cy="283.11" fill="#ADD1B2" rx="11" ry="11" style="stroke:#181818;stroke-width:1;"/><path d="M531.4023,288.7506 Q530.8242,289.0475 530.1836,289.1881 Q529.5429,289.3444 528.8398,289.3444 Q526.3398,289.3444 525.0117,287.7038 Q523.6992,286.0475 523.6992,282.9225 Q523.6992,279.7975 525.0117,278.1413 Q526.3398,276.485 528.8398,276.485 Q529.5429,276.485 530.1836,276.6413 Q530.8398,276.7975 531.4023,277.0944 L531.4023,279.8131 Q530.7773,279.235 530.1836,278.9694 Q529.5898,278.6881 528.9648,278.6881 Q527.6211,278.6881 526.9336,279.7663 Q526.2461,280.8288 526.2461,282.9225 Q526.2461,285.0163 526.9336,286.0944 Q527.6211,287.1569 528.9648,287.1569 Q529.5898,287.1569 530.1836,286.8913 Q530.7773,286.61 531.4023,286.0319 L531.4023,288.7506 Z " fill="#000000"/><text fill="#000000" font-family="sans-serif" font-size="14" lengthAdjust="spacing" textLength="166.6328" x="548.9336" y="287.9567">HealthcareService_type</text><line style="stroke:#181818;stroke-width:0.5;" x1="478.54" x2="753.4599" y1="299.11" y2="299.11"/><ellipse cx="488.54" cy="312.7584" fill="none" rx="3" ry="3" style="stroke:#038048;stroke-width:1;"/><text fill="#000000" font-family="sans-serif" font-size="14" lengthAdjust="spacing" textLength="116.6553" x="497.54" y="316.1051">Offizin-Apotheke</text><ellipse cx="488.54" cy="329.0553" fill="none" rx="3" ry="3" style="stroke:#038048;stroke-width:1;"/><text fill="#000000" font-family="sans-serif" font-size="14" lengthAdjust="spacing" textLength="250.9199" x="497.54" y="332.402">Krankenhausversorgende Apotheke</text><ellipse cx="488.54" cy="345.3522" fill="none" rx="3" ry="3" style="stroke:#038048;stroke-width:1;"/><text fill="#000000" font-family="sans-serif" font-size="14" lengthAdjust="spacing" textLength="152.5645" x="497.54" y="348.6989">Bundeswehrapotheke</text><ellipse cx="488.54" cy="361.6491" fill="none" rx="3" ry="3" style="stroke:#038048;stroke-width:1;"/><text fill="#000000" font-family="sans-serif" font-size="14" lengthAdjust="spacing" textLength="195.9863" x="497.54" y="364.9957">Heimversorgende Apotheke</text><ellipse cx="488.54" cy="377.9459" fill="none" rx="3" ry="3" style="stroke:#038048;stroke-width:1;"/><text fill="#000000" font-family="sans-serif" font-size="14" lengthAdjust="spacing" textLength="123.3066" x="497.54" y="381.2926">Versandapotheke</text><ellipse cx="488.54" cy="394.2428" fill="none" rx="3" ry="3" style="stroke:#038048;stroke-width:1;"/><text fill="#000000" font-family="sans-serif" font-size="14" lengthAdjust="spacing" textLength="115.5752" x="497.54" y="397.5895">Sterilherstellung</text><line style="stroke:#181818;stroke-width:0.5;" x1="478.54" x2="753.4599" y1="404.8913" y2="404.8913"/></g><!--class Organization_type--><g id="elem_Organization_type"><rect codeLine="45" fill="#F1F1F1" height="96.8906" id="Organization_type" rx="2.5" ry="2.5" style="stroke:#181818;stroke-width:0.5;" width="325.7354" x="789.13" y="291.55"/><ellipse cx="883.736" cy="307.55" fill="#ADD1B2" rx="11" ry="11" style="stroke:#181818;stroke-width:1;"/><path d="M886.7047,313.1906 Q886.1266,313.4875 885.486,313.6281 Q884.8453,313.7844 884.1422,313.7844 Q881.6422,313.7844 880.3141,312.1437 Q879.0016,310.4875 879.0016,307.3625 Q879.0016,304.2375 880.3141,302.5812 Q881.6422,300.925 884.1422,300.925 Q884.8453,300.925 885.486,301.0812 Q886.1422,301.2375 886.7047,301.5344 L886.7047,304.2531 Q886.0797,303.675 885.486,303.4094 Q884.8922,303.1281 884.2672,303.1281 Q882.9235,303.1281 882.236,304.2062 Q881.5485,305.2687 881.5485,307.3625 Q881.5485,309.4562 882.236,310.5344 Q882.9235,311.5969 884.2672,311.5969 Q884.8922,311.5969 885.486,311.3312 Q886.0797,311.05 886.7047,310.4719 L886.7047,313.1906 Z " fill="#000000"/><text fill="#000000" font-family="sans-serif" font-size="14" lengthAdjust="spacing" textLength="128.0234" x="904.236" y="312.3967">Organization_type</text><line style="stroke:#181818;stroke-width:0.5;" x1="790.13" x2="1113.8654" y1="323.55" y2="323.55"/><ellipse cx="800.13" cy="337.1984" fill="none" rx="3" ry="3" style="stroke:#038048;stroke-width:1;"/><text fill="#000000" font-family="sans-serif" font-size="14" lengthAdjust="spacing" textLength="124.6807" x="809.13" y="340.5451">1.2.276.0.76.4.54</text><text fill="#000000" font-family="sans-serif" font-size="14" lengthAdjust="spacing" textLength="147.9912" x="951.5363" y="340.5451">&#214;ffentliche Apotheke</text><ellipse cx="800.13" cy="353.4953" fill="none" rx="3" ry="3" style="stroke:#038048;stroke-width:1;"/><text fill="#000000" font-family="sans-serif" font-size="14" lengthAdjust="spacing" textLength="124.6807" x="809.13" y="356.842">1.2.276.0.76.4.55</text><text fill="#000000" font-family="sans-serif" font-size="14" lengthAdjust="spacing" textLength="157.3291" x="951.5363" y="356.842">Krankenhausapotheke</text><ellipse cx="800.13" cy="369.7922" fill="none" rx="3" ry="3" style="stroke:#038048;stroke-width:1;"/><text fill="#000000" font-family="sans-serif" font-size="14" lengthAdjust="spacing" textLength="124.6807" x="809.13" y="373.1389">1.2.276.0.76.4.56</text><text fill="#000000" font-family="sans-serif" font-size="14" lengthAdjust="spacing" textLength="152.5645" x="951.5363" y="373.1389">Bundeswehrapotheke</text><line style="stroke:#181818;stroke-width:0.5;" x1="790.13" x2="1113.8654" y1="380.4406" y2="380.4406"/></g><!--class HealthcareService_characteristic--><g id="elem_HealthcareService_characteristic"><rect codeLine="51" fill="#F1F1F1" height="178.375" id="HealthcareService_characteristic" rx="2.5" ry="2.5" style="stroke:#181818;stroke-width:0.5;" width="262.6582" x="1158" y="251"/><ellipse cx="1173" cy="267" fill="#ADD1B2" rx="11" ry="11" style="stroke:#181818;stroke-width:1;"/><path d="M1175.9688,272.6406 Q1175.3906,272.9375 1174.75,273.0781 Q1174.1094,273.2344 1173.4063,273.2344 Q1170.9063,273.2344 1169.5781,271.5938 Q1168.2656,269.9375 1168.2656,266.8125 Q1168.2656,263.6875 1169.5781,262.0313 Q1170.9063,260.375 1173.4063,260.375 Q1174.1094,260.375 1174.75,260.5313 Q1175.4063,260.6875 1175.9688,260.9844 L1175.9688,263.7031 Q1175.3438,263.125 1174.75,262.8594 Q1174.1563,262.5781 1173.5313,262.5781 Q1172.1875,262.5781 1171.5,263.6563 Q1170.8125,264.7188 1170.8125,266.8125 Q1170.8125,268.9063 1171.5,269.9844 Q1172.1875,271.0469 1173.5313,271.0469 Q1174.1563,271.0469 1174.75,270.7813 Q1175.3438,270.5 1175.9688,269.9219 L1175.9688,272.6406 Z " fill="#000000"/><text fill="#000000" font-family="sans-serif" font-size="14" lengthAdjust="spacing" textLength="230.6582" x="1187" y="271.8467">HealthcareService_characteristic</text><line style="stroke:#181818;stroke-width:0.5;" x1="1159" x2="1419.6582" y1="283" y2="283"/><ellipse cx="1169" cy="296.6484" fill="none" rx="3" ry="3" style="stroke:#038048;stroke-width:1;"/><text fill="#000000" font-family="sans-serif" font-size="14" lengthAdjust="spacing" textLength="145.8379" x="1178" y="299.9951">eRX_Token_Receiver</text><ellipse cx="1169" cy="312.9453" fill="none" rx="3" ry="3" style="stroke:#038048;stroke-width:1;"/><text fill="#000000" font-family="sans-serif" font-size="14" lengthAdjust="spacing" textLength="231.1914" x="1178" y="316.292">Apotheke_Verf&#252;gbarkeitsanfrage</text><ellipse cx="1169" cy="329.2422" fill="none" rx="3" ry="3" style="stroke:#038048;stroke-width:1;"/><text fill="#000000" font-family="sans-serif" font-size="14" lengthAdjust="spacing" textLength="195.1592" x="1178" y="332.5889">Apotheken_Ident_Verfahren</text><ellipse cx="1169" cy="345.5391" fill="none" rx="3" ry="3" style="stroke:#038048;stroke-width:1;"/><text fill="#000000" font-family="sans-serif" font-size="14" lengthAdjust="spacing" textLength="110.2842" x="1178" y="348.8857">Terminbuchung</text><rect fill="none" height="6" style="stroke:#C82930;stroke-width:1;" width="6" x="1166" y="358.8359"/><text fill="#000000" font-family="sans-serif" font-size="14" lengthAdjust="spacing" textLength="112.4238" x="1178" y="365.1826">Parkm&#246;glichkeit</text><rect fill="none" height="6" style="stroke:#C82930;stroke-width:1;" width="6" x="1166" y="375.1328"/><text fill="#000000" font-family="sans-serif" font-size="14" lengthAdjust="spacing" textLength="133.0684" x="1178" y="381.4795">&#214;PNV_in_der_N&#228;he</text><rect fill="none" height="6" style="stroke:#C82930;stroke-width:1;" width="6" x="1166" y="391.4297"/><text fill="#000000" font-family="sans-serif" font-size="14" lengthAdjust="spacing" textLength="79.7549" x="1178" y="397.7764">Barrierefrei</text><rect fill="none" height="6" style="stroke:#C82930;stroke-width:1;" width="6" x="1166" y="407.7266"/><text fill="#000000" font-family="sans-serif" font-size="14" lengthAdjust="spacing" textLength="99.0049" x="1178" y="414.0732">Abholautomat</text><line style="stroke:#181818;stroke-width:0.5;" x1="1159" x2="1419.6582" y1="421.375" y2="421.375"/></g><!--class Endpoint--><g id="elem_Endpoint"><rect codeLine="62" fill="#F1F1F1" height="96.8906" id="Endpoint" rx="2.5" ry="2.5" style="stroke:#181818;stroke-width:0.5;" width="137.4736" x="1282.5" y="712"/><ellipse cx="1316.9238" cy="728" fill="#ADD1B2" rx="11" ry="11" style="stroke:#181818;stroke-width:1;"/><path d="M1319.8926,733.6406 Q1319.3145,733.9375 1318.6738,734.0781 Q1318.0332,734.2344 1317.3301,734.2344 Q1314.8301,734.2344 1313.502,732.5938 Q1312.1895,730.9375 1312.1895,727.8125 Q1312.1895,724.6875 1313.502,723.0313 Q1314.8301,721.375 1317.3301,721.375 Q1318.0332,721.375 1318.6738,721.5313 Q1319.3301,721.6875 1319.8926,721.9844 L1319.8926,724.7031 Q1319.2676,724.125 1318.6738,723.8594 Q1318.0801,723.5781 1317.4551,723.5781 Q1316.1113,723.5781 1315.4238,724.6563 Q1314.7363,725.7188 1314.7363,727.8125 Q1314.7363,729.9063 1315.4238,730.9844 Q1316.1113,732.0469 1317.4551,732.0469 Q1318.0801,732.0469 1318.6738,731.7813 Q1319.2676,731.5 1319.8926,730.9219 L1319.8926,733.6406 Z " fill="#000000"/><text fill="#000000" font-family="sans-serif" font-size="14" lengthAdjust="spacing" textLength="62.3096" x="1335.2402" y="732.8467">Endpoint</text><line style="stroke:#181818;stroke-width:0.5;" x1="1283.5" x2="1418.9736" y1="744" y2="744"/><ellipse cx="1293.5" cy="757.6484" fill="none" rx="3" ry="3" style="stroke:#038048;stroke-width:1;"/><text fill="#000000" font-family="sans-serif" font-size="14" lengthAdjust="spacing" textLength="111.4736" x="1302.5" y="760.9951">connectionType</text><ellipse cx="1293.5" cy="773.9453" fill="none" rx="3" ry="3" style="stroke:#038048;stroke-width:1;"/><text fill="#000000" font-family="sans-serif" font-size="14" lengthAdjust="spacing" textLength="90.0088" x="1302.5" y="777.292">payloadType</text><ellipse cx="1293.5" cy="790.2422" fill="none" rx="3" ry="3" style="stroke:#038048;stroke-width:1;"/><text fill="#000000" font-family="sans-serif" font-size="14" lengthAdjust="spacing" textLength="55.3096" x="1302.5" y="793.5889">address</text><line style="stroke:#181818;stroke-width:0.5;" x1="1283.5" x2="1418.9736" y1="800.8906" y2="800.8906"/></g><!--class ApoVZD_Mehrwertdaten--><g id="elem_ApoVZD_Mehrwertdaten"><rect codeLine="72" fill="#F1F1F1" height="113.1875" id="ApoVZD_Mehrwertdaten" rx="2.5" ry="2.5" style="stroke:#181818;stroke-width:0.5;" width="264.834" x="1344" y="46"/><ellipse cx="1386.8033" cy="62" fill="#ADD1B2" rx="11" ry="11" style="stroke:#181818;stroke-width:1;"/><path d="M1389.7721,67.6406 Q1389.1939,67.9375 1388.5533,68.0781 Q1387.9127,68.2344 1387.2096,68.2344 Q1384.7096,68.2344 1383.3814,66.5938 Q1382.0689,64.9375 1382.0689,61.8125 Q1382.0689,58.6875 1383.3814,57.0313 Q1384.7096,55.375 1387.2096,55.375 Q1387.9127,55.375 1388.5533,55.5313 Q1389.2096,55.6875 1389.7721,55.9844 L1389.7721,58.7031 Q1389.1471,58.125 1388.5533,57.8594 Q1387.9596,57.5781 1387.3346,57.5781 Q1385.9908,57.5781 1385.3033,58.6563 Q1384.6158,59.7188 1384.6158,61.8125 Q1384.6158,63.9063 1385.3033,64.9844 Q1385.9908,66.0469 1387.3346,66.0469 Q1387.9596,66.0469 1388.5533,65.7813 Q1389.1471,65.5 1389.7721,64.9219 L1389.7721,67.6406 Z " fill="#000000"/><text fill="#000000" font-family="sans-serif" font-size="14" lengthAdjust="spacing" textLength="171.0488" x="1406.9818" y="66.8467">ApoVZD_Mehrwertdaten</text><line style="stroke:#181818;stroke-width:0.5;" x1="1345" x2="1607.834" y1="78" y2="78"/><ellipse cx="1355" cy="91.6484" fill="none" rx="3" ry="3" style="stroke:#038048;stroke-width:1;"/><text fill="#000000" font-family="sans-serif" font-size="14" lengthAdjust="spacing" textLength="124.0791" x="1364" y="94.9951">Apotheke_PHARM</text><ellipse cx="1355" cy="107.9453" fill="none" rx="3" ry="3" style="stroke:#038048;stroke-width:1;"/><text fill="#000000" font-family="sans-serif" font-size="14" lengthAdjust="spacing" textLength="235.792" x="1364" y="111.292">Apotheke_mit_Offizin_OUTPHARM</text><ellipse cx="1355" cy="124.2422" fill="none" rx="3" ry="3" style="stroke:#038048;stroke-width:1;"/><text fill="#000000" font-family="sans-serif" font-size="14" lengthAdjust="spacing" textLength="170.8096" x="1364" y="127.5889">Versandapotheke_MOBL</text><ellipse cx="1355" cy="140.5391" fill="none" rx="3" ry="3" style="stroke:#038048;stroke-width:1;"/><text fill="#000000" font-family="sans-serif" font-size="14" lengthAdjust="spacing" textLength="238.834" x="1364" y="143.8857">eRX_Token_Receiver_DELEGATOR</text><line style="stroke:#181818;stroke-width:0.5;" x1="1345" x2="1607.834" y1="151.1875" y2="151.1875"/></g><!--class ApoVZD_Location_telecom--><g id="elem_ApoVZD_Location_telecom"><rect codeLine="79" fill="#F1F1F1" height="96.8906" id="ApoVZD_Location_telecom" rx="2.5" ry="2.5" style="stroke:#181818;stroke-width:0.5;" width="218.9424" x="1659" y="54.5"/><ellipse cx="1674" cy="70.5" fill="#ADD1B2" rx="11" ry="11" style="stroke:#181818;stroke-width:1;"/><path d="M1676.9688,76.1406 Q1676.3906,76.4375 1675.75,76.5781 Q1675.1094,76.7344 1674.4063,76.7344 Q1671.9063,76.7344 1670.5781,75.0938 Q1669.2656,73.4375 1669.2656,70.3125 Q1669.2656,67.1875 1670.5781,65.5313 Q1671.9063,63.875 1674.4063,63.875 Q1675.1094,63.875 1675.75,64.0313 Q1676.4063,64.1875 1676.9688,64.4844 L1676.9688,67.2031 Q1676.3438,66.625 1675.75,66.3594 Q1675.1563,66.0781 1674.5313,66.0781 Q1673.1875,66.0781 1672.5,67.1563 Q1671.8125,68.2188 1671.8125,70.3125 Q1671.8125,72.4063 1672.5,73.4844 Q1673.1875,74.5469 1674.5313,74.5469 Q1675.1563,74.5469 1675.75,74.2813 Q1676.3438,74 1676.9688,73.4219 L1676.9688,76.1406 Z " fill="#000000"/><text fill="#000000" font-family="sans-serif" font-size="14" lengthAdjust="spacing" textLength="186.9424" x="1688" y="75.3467">ApoVZD_Location_telecom</text><line style="stroke:#181818;stroke-width:0.5;" x1="1660" x2="1876.9424" y1="86.5" y2="86.5"/><ellipse cx="1670" cy="100.1484" fill="none" rx="3" ry="3" style="stroke:#038048;stroke-width:1;"/><text fill="#000000" font-family="sans-serif" font-size="14" lengthAdjust="spacing" textLength="108.459" x="1679" y="103.4951">onPremise_URL</text><ellipse cx="1670" cy="116.4453" fill="none" rx="3" ry="3" style="stroke:#038048;stroke-width:1;"/><text fill="#000000" font-family="sans-serif" font-size="14" lengthAdjust="spacing" textLength="90.9932" x="1679" y="119.792">delivery_URL</text><ellipse cx="1670" cy="132.7422" fill="none" rx="3" ry="3" style="stroke:#038048;stroke-width:1;"/><text fill="#000000" font-family="sans-serif" font-size="14" lengthAdjust="spacing" textLength="100.9736" x="1679" y="136.0889">shipment_URP</text><line style="stroke:#181818;stroke-width:0.5;" x1="1660" x2="1876.9424" y1="143.3906" y2="143.3906"/></g><!--link specialization to HealthcareService_type--><g id="link_specialization_HealthcareService_type"><path codeLine="88" d="M445.53,162.93 C476.14,194.54 509.8365,229.3394 542.1065,262.6694 " fill="none" id="specialization-to-HealthcareService_type" style="stroke:#FF0000;stroke-width:4;"/><polygon fill="#FF0000" points="546.28,266.98,542.8934,257.7317,542.802,263.3878,537.1459,263.2964,546.28,266.98" style="stroke:#FF0000;stroke-width:4;"/></g><!--link professionOID to Organization_type--><g id="link_professionOID_Organization_type"><path codeLine="89" d="M787.94,151.44 C823.58,192.19 870.5502,245.8835 906.1702,286.6135 " fill="none" id="professionOID-to-Organization_type" style="stroke:#FF0000;stroke-width:4;"/><polygon fill="#FF0000" points="910.12,291.13,907.2062,281.722,906.8285,287.3663,901.1842,286.9885,910.12,291.13" style="stroke:#FF0000;stroke-width:4;"/></g><!--link specialization to HealthcareService_specialty--><g id="link_specialization_HealthcareService_specialty"><path codeLine="90" d="M235,90 C190.48,90 243.86,158.09 210,187 C195.74,199.18 138.61,181.13 126,195 C40.78,288.72 74.52,364.27 126,480 C147.04,527.3 154.73,558 206.5,558 " fill="none" id="specialization-to-HealthcareService_specialty" style="stroke:#008000;stroke-width:1;"/><polygon fill="#008000" points="212.5,558,203.5,554,207.5,558,203.5,562,212.5,558" style="stroke:#008000;stroke-width:1;"/></g><!--link specialization to HealthcareService_specialty--><g id="link_specialization_HealthcareService_specialty"><path codeLine="91" d="M235,138 C210.55,138 225.61,168.18 210,187 C202.11,196.51 193.45,192.91 188,204 C148.55,284.34 117,606 206.5,606 " fill="none" id="specialization-to-HealthcareService_specialty-1" style="stroke:#0000FF;stroke-width:1;"/><polygon fill="#0000FF" points="212.5,606,203.5,602,207.5,606,203.5,610,212.5,606" style="stroke:#0000FF;stroke-width:1;"/></g><!--link ApoVZD_Mehrwertdaten to HealthcareService_specialty--><g id="link_ApoVZD_Mehrwertdaten_HealthcareService_specialty"><path codeLine="94" d="M1609,106 C1634.34,106 1622.48,142.21 1608,163 C1585.65,195.11 1552.99,166.68 1526,195 C1449,275.77 1532.4,362.37 1446,433 C1359.09,504.04 561.75,558 449.5,558 " fill="none" id="ApoVZD_Mehrwertdaten-to-HealthcareService_specialty" style="stroke:#008000;stroke-width:1;"/><polygon fill="#008000" points="443.5,558,452.5,562,448.5,558,452.5,554,443.5,558" style="stroke:#008000;stroke-width:1;"/></g><!--link ApoVZD_Mehrwertdaten to HealthcareService_specialty--><g id="link_ApoVZD_Mehrwertdaten_HealthcareService_specialty"><path codeLine="95" d="M1609,122 C1627.23,122 1611.43,145.1 1608,163 C1607.25,166.93 1510.91,430.26 1508,433 C1349.82,581.65 1644.19,606 449.5,606 " fill="none" id="ApoVZD_Mehrwertdaten-to-HealthcareService_specialty-1" style="stroke:#0000FF;stroke-width:1;"/><polygon fill="#0000FF" points="443.5,606,452.5,610,448.5,606,452.5,602,443.5,606" style="stroke:#0000FF;stroke-width:1;"/></g><!--link ApoVZD_Mehrwertdaten to HealthcareService_characteristic--><g id="link_ApoVZD_Mehrwertdaten_HealthcareService_characteristic"><path codeLine="96" d="M1343,138 C1331.88,138 1339.8,152.71 1344,163 C1363.03,209.61 1401.41,200.21 1420,247 C1427.88,266.83 1448.34,295 1427,295 " fill="none" id="ApoVZD_Mehrwertdaten-to-HealthcareService_characteristic" style="stroke:#A0522D;stroke-width:1;"/><polygon fill="#A0522D" points="1421,295,1430,299,1426,295,1430,291,1421,295" style="stroke:#A0522D;stroke-width:1;"/></g><!--link ApoVZD_Location_telecom to Endpoint--><g id="link_ApoVZD_Location_telecom_Endpoint"><path codeLine="99" d="M1658,98.5 C1633.11,98.5 1656.24,129.76 1659,154.5 C1675.36,301.03 1749.23,334.91 1723,480 C1688.87,668.81 1618.37,788 1426.5,788 " fill="none" id="ApoVZD_Location_telecom-to-Endpoint" style="stroke:#000000;stroke-width:1;"/><polygon fill="#000000" points="1420.5,788,1429.5,792,1425.5,788,1429.5,784,1420.5,788" style="stroke:#000000;stroke-width:1;"/><text fill="#000000" font-family="sans-serif" font-size="13" lengthAdjust="spacing" textLength="25.7905" x="1726.43" y="476.0669">URL</text></g><!--link ApoVZD_Location_telecom to Endpoint--><g id="link_ApoVZD_Location_telecom_Endpoint"><path codeLine="100" d="M1658,98.5 C1653.22,98.5 1578.61,428.5 1577,433 C1523.14,583.15 1586.02,756 1426.5,756 " fill="none" id="ApoVZD_Location_telecom-to-Endpoint-1" style="stroke:#000000;stroke-width:1;"/><polygon fill="#000000" points="1420.5,756,1429.5,760,1425.5,756,1429.5,752,1420.5,756" style="stroke:#000000;stroke-width:1;"/><text fill="#000000" font-family="sans-serif" font-size="13" lengthAdjust="spacing" textLength="97.9824" x="1568.68" y="476.0669">eRP-onPremise</text></g><!--link ApoVZD_Location_telecom to Endpoint--><g id="link_ApoVZD_Location_telecom_Endpoint"><path codeLine="101" d="M1878,98.5 C1923.84,98.5 2101.36,114.82 1720,647 C1656.72,735.3 1537.9,772 1426.5,772 " fill="none" id="ApoVZD_Location_telecom-to-Endpoint-2" style="stroke:#000000;stroke-width:1;"/><polygon fill="#000000" points="1420.5,772,1429.5,776,1425.5,772,1429.5,768,1420.5,772" style="stroke:#000000;stroke-width:1;"/><text fill="#000000" font-family="sans-serif" font-size="13" lengthAdjust="spacing" textLength="92.6504" x="1843.18" y="476.0669">not-applicable</text></g><!--link HealthcareService_type to Endpoint--><!--SRC=[pLN1Jjj043tZhrZ1eGUQAAL09OiY9Gqqg42Y451LX5QRzJXUnTwrrXjGgFWDlg3Vq5Dl-R7EsavY1oUL48TU8cKy-sRUlBUpCUDZDWAoVTvkziZDZ_OsEJewrIo2usEo4ufHO4OQG9AV3WzPaf0a1YvOA1wP4Sg6Tyc71ktwlk12qcQiJ01ZmEXUWtxJJ8v11coIt8DEb1w1zA2OzB51Eo2YDL_t6_G6lp3fiJn8YFFaE8H8PO24u1kY_9MMy2lf1Kn7Z4y7qnWiiIzN64Nqz1oUpwZ4MlcG97YcUzP69dWGoTJtwdkV3kkDElxirm_sjsRFlW_IX887G1RTLIOVR1KeiusfXrkj2T9D7Y3GXSmd9wCOptKvxPprgtMPGXYg1zjtHgS3B3G1PngkGDyB3ZGVZ9ccv5AXEZXCdFQOJVmqX2fTCXuOYitGIsKy0J8nwIVKfeNZaeNGKf3qxq63NXdG8WmmQB2TYHmHXomLCYgs0ctep5cALSZA1JNJad0ucVLS3KgTqxHcV1IoLj1gbrHxSQ7dLffKASakMR4eAG6lE3IDlPXADfIizwuUCPcRTTdsVsAzjVFbg1BZbbTY19-t3FtlTA2mAkq31u53okBpNgrT_DcVqP3fCGY3W_8rshgS9EcPXopJN1PeaDdd0UX8oE641-a02QcH7i94izyZEn2BbqLdpxtB6uhRnmDDBsU_0iZYBQQr00s-1f55ciD0XMnYLCHCoXX_Ci8dqekLa6PEZ2ifWLk9x0x9OZ6RXefvom3pF8qBP8vKlBV83I_jYpix32UmlB5P4hr07Hv06u-PTD6M1jZhDFiNvL0a3CqzJhlNWsN6YXNfHRTrxbJBHDidvoTVcuDklsZDlA5pnNDtGWXSHNbFIlOqH281UjtFS3q8BTXq4KW24KTMo-j-3u59FfLt97rUsfQWi_A2r6vtD7ZlJI3uME8qF-_VrOxNN72dlBAhZxwuNoiLNRVYmR9OwKDNNNonhzB3nIMwYbtrPY6s5VwVq8NrYYFBBLHoXrDb6TVTQ8rNKwkkLMMorp2iHj_aL5lb2XyZoQhhb5TK5POTwn8EJPiuQoplkYMtPmJnRjzfUusn_7nXk6w-1OXh0Ty0hxnw47OR-htQulZs6vGeR3ABZuzhZSKnRbKs3B60lQzigYR6MVFErcu3uNdMKGLOvoy0]--></g></svg>