<svg xmlns="http://www.w3.org/2000/svg" xmlns:xlink="http://www.w3.org/1999/xlink" contentStyleType="text/css" height="652px" preserveAspectRatio="none" style="width:838px;height:652px;background:#FFFFFF;" version="1.1" viewBox="0 0 838 652" width="838px" zoomAndPan="magnify"><defs/><g><!--class Organization--><g id="elem_Organization"><rect codeLine="2" fill="#F1F1F1" height="162.0781" id="Organization" rx="2.5" ry="2.5" style="stroke:#181818;stroke-width:0.5;" width="237.4902" x="397.97" y="7"/><ellipse cx="467.5906" cy="23" fill="#ADD1B2" rx="11" ry="11" style="stroke:#181818;stroke-width:1;"/><path d="M470.5594,28.6406 Q469.9812,28.9375 469.3406,29.0781 Q468.7,29.2344 467.9969,29.2344 Q465.4969,29.2344 464.1687,27.5938 Q462.8562,25.9375 462.8562,22.8125 Q462.8562,19.6875 464.1687,18.0313 Q465.4969,16.375 467.9969,16.375 Q468.7,16.375 469.3406,16.5313 Q469.9969,16.6875 470.5594,16.9844 L470.5594,19.7031 Q469.9344,19.125 469.3406,18.8594 Q468.7469,18.5781 468.1219,18.5781 Q466.7781,18.5781 466.0906,19.6563 Q465.4031,20.7188 465.4031,22.8125 Q465.4031,24.9063 466.0906,25.9844 Q466.7781,27.0469 468.1219,27.0469 Q468.7469,27.0469 469.3406,26.7813 Q469.9344,26.5 470.5594,25.9219 L470.5594,28.6406 Z " fill="#000000"/><text fill="#000000" font-family="sans-serif" font-size="14" lengthAdjust="spacing" textLength="89.749" x="488.0906" y="27.8467">Organization</text><line style="stroke:#181818;stroke-width:0.5;" x1="398.97" x2="634.4602" y1="39" y2="39"/><text fill="#000000" font-family="sans-serif" font-size="14" lengthAdjust="spacing" textLength="178.377" x="403.97" y="55.9951">identifier (1..*, MS, LDAP)</text><text fill="#000000" font-family="sans-serif" font-size="14" lengthAdjust="spacing" textLength="111.6582" x="403.97" y="72.292">name (1..1, MS)</text><text fill="#000000" font-family="sans-serif" font-size="14" lengthAdjust="spacing" textLength="102.2793" x="403.97" y="88.5889">alias (0..*, MS)</text><text fill="#000000" font-family="sans-serif" font-size="14" lengthAdjust="spacing" textLength="142.3721" x="403.97" y="104.8857">type(1..*, MS, LDAP)</text><text fill="#000000" font-family="sans-serif" font-size="14" lengthAdjust="spacing" textLength="160.0088" x="403.97" y="121.1826">active (1..1, MS, LDAP)</text><text fill="#000000" font-family="sans-serif" font-size="14" lengthAdjust="spacing" textLength="126.5537" x="403.97" y="137.4795">telecom (0..*, MS)</text><text fill="#000000" font-family="sans-serif" font-size="14" lengthAdjust="spacing" textLength="225.4902" x="403.97" y="153.7764">meta.tag.origin (1..1, MS, LDAP)</text><line style="stroke:#181818;stroke-width:0.5;" x1="398.97" x2="634.4602" y1="161.0781" y2="161.0781"/></g><!--class HealthcareService--><g id="elem_HealthcareService"><rect codeLine="12" fill="#F1F1F1" height="178.375" id="HealthcareService" rx="2.5" ry="2.5" style="stroke:#181818;stroke-width:0.5;" width="273.249" x="250.09" y="229.08"/><ellipse cx="318.2853" cy="245.08" fill="#ADD1B2" rx="11" ry="11" style="stroke:#181818;stroke-width:1;"/><path d="M321.2541,250.7206 Q320.6759,251.0175 320.0353,251.1581 Q319.3947,251.3144 318.6916,251.3144 Q316.1916,251.3144 314.8634,249.6738 Q313.5509,248.0175 313.5509,244.8925 Q313.5509,241.7675 314.8634,240.1113 Q316.1916,238.455 318.6916,238.455 Q319.3947,238.455 320.0353,238.6113 Q320.6916,238.7675 321.2541,239.0644 L321.2541,241.7831 Q320.6291,241.205 320.0353,240.9394 Q319.4416,240.6581 318.8166,240.6581 Q317.4728,240.6581 316.7853,241.7363 Q316.0978,242.7988 316.0978,244.8925 Q316.0978,246.9863 316.7853,248.0644 Q317.4728,249.1269 318.8166,249.1269 Q319.4416,249.1269 320.0353,248.8613 Q320.6291,248.58 321.2541,248.0019 L321.2541,250.7206 Z " fill="#000000"/><text fill="#000000" font-family="sans-serif" font-size="14" lengthAdjust="spacing" textLength="128.3584" x="338.7853" y="249.9267">HealthcareService</text><line style="stroke:#181818;stroke-width:0.5;" x1="251.09" x2="522.339" y1="261.08" y2="261.08"/><text fill="#000000" font-family="sans-serif" font-size="14" lengthAdjust="spacing" textLength="132.877" x="256.09" y="278.0751">identifier (1..*, MS)</text><text fill="#000000" font-family="sans-serif" font-size="14" lengthAdjust="spacing" textLength="247.543" x="256.09" y="294.372">providedBy (1..1, MS, LDAP/Owner)</text><text fill="#000000" font-family="sans-serif" font-size="14" lengthAdjust="spacing" textLength="232.4902" x="256.09" y="310.6689">speciality (0..*, MS, LDAP/Owner)</text><text fill="#000000" font-family="sans-serif" font-size="14" lengthAdjust="spacing" textLength="221.5254" x="256.09" y="326.9657">location (0..*, MS, LDAP/Owner)</text><text fill="#000000" font-family="sans-serif" font-size="14" lengthAdjust="spacing" textLength="132.125" x="256.09" y="343.2626">endpoint (0..*, MS)</text><text fill="#000000" font-family="sans-serif" font-size="14" lengthAdjust="spacing" textLength="225.4902" x="256.09" y="359.5595">meta.tag.origin (1..1, MS, LDAP)</text><text fill="#000000" font-family="sans-serif" font-size="14" lengthAdjust="spacing" textLength="227.4385" x="256.09" y="375.8564">meta.security.ownerId (1..*, MS)</text><text fill="#000000" font-family="sans-serif" font-size="14" lengthAdjust="spacing" textLength="261.249" x="256.09" y="392.1532">meta.security.holder (1..*, MS, LDAP)</text><line style="stroke:#181818;stroke-width:0.5;" x1="251.09" x2="522.339" y1="399.455" y2="399.455"/></g><!--class Endpoint--><g id="elem_Endpoint"><rect codeLine="23" fill="#F1F1F1" height="178.375" id="Endpoint" rx="2.5" ry="2.5" style="stroke:#181818;stroke-width:0.5;" width="239.4385" x="7" y="467.45"/><ellipse cx="91.3145" cy="483.45" fill="#ADD1B2" rx="11" ry="11" style="stroke:#181818;stroke-width:1;"/><path d="M94.2832,489.0906 Q93.7051,489.3875 93.0645,489.5281 Q92.4238,489.6844 91.7207,489.6844 Q89.2207,489.6844 87.8926,488.0438 Q86.5801,486.3875 86.5801,483.2625 Q86.5801,480.1375 87.8926,478.4813 Q89.2207,476.825 91.7207,476.825 Q92.4238,476.825 93.0645,476.9813 Q93.7207,477.1375 94.2832,477.4344 L94.2832,480.1531 Q93.6582,479.575 93.0645,479.3094 Q92.4707,479.0281 91.8457,479.0281 Q90.502,479.0281 89.8145,480.1063 Q89.127,481.1688 89.127,483.2625 Q89.127,485.3563 89.8145,486.4344 Q90.502,487.4969 91.8457,487.4969 Q92.4707,487.4969 93.0645,487.2313 Q93.6582,486.95 94.2832,486.3719 L94.2832,489.0906 Z " fill="#000000"/><text fill="#000000" font-family="sans-serif" font-size="14" lengthAdjust="spacing" textLength="62.3096" x="111.8145" y="488.2967">Endpoint</text><line style="stroke:#181818;stroke-width:0.5;" x1="8" x2="245.4385" y1="499.45" y2="499.45"/><text fill="#000000" font-family="sans-serif" font-size="14" lengthAdjust="spacing" textLength="132.877" x="13" y="516.4451">identifier (1..*, MS)</text><text fill="#000000" font-family="sans-serif" font-size="14" lengthAdjust="spacing" textLength="181.5215" x="13" y="532.742">connectionType (0..*, MS)</text><text fill="#000000" font-family="sans-serif" font-size="14" lengthAdjust="spacing" textLength="113.0664" x="13" y="549.0389">status (0..*, MS)</text><text fill="#000000" font-family="sans-serif" font-size="14" lengthAdjust="spacing" textLength="111.6582" x="13" y="565.3357">name (0..1, MS)</text><text fill="#000000" font-family="sans-serif" font-size="14" lengthAdjust="spacing" textLength="127.2646" x="13" y="581.6326">address (1..1, MS)</text><text fill="#000000" font-family="sans-serif" font-size="14" lengthAdjust="spacing" textLength="160.0566" x="13" y="597.9295">payloadType (1..*, MS)</text><text fill="#000000" font-family="sans-serif" font-size="14" lengthAdjust="spacing" textLength="179.9902" x="13" y="614.2264">meta.tag.origin (1..1, MS)</text><text fill="#000000" font-family="sans-serif" font-size="14" lengthAdjust="spacing" textLength="227.4385" x="13" y="630.5232">meta.security.ownerId (1..*, MS)</text><line style="stroke:#181818;stroke-width:0.5;" x1="8" x2="245.4385" y1="637.825" y2="637.825"/></g><!--class Location--><g id="elem_Location"><rect codeLine="34" fill="#F1F1F1" height="96.8906" id="Location" rx="2.5" ry="2.5" style="stroke:#181818;stroke-width:0.5;" width="237.4902" x="280.97" y="508.2"/><ellipse cx="365.7356" cy="524.2" fill="#ADD1B2" rx="11" ry="11" style="stroke:#181818;stroke-width:1;"/><path d="M368.7044,529.8406 Q368.1263,530.1375 367.4856,530.2781 Q366.845,530.4344 366.1419,530.4344 Q363.6419,530.4344 362.3138,528.7938 Q361.0013,527.1375 361.0013,524.0125 Q361.0013,520.8875 362.3138,519.2313 Q363.6419,517.575 366.1419,517.575 Q366.845,517.575 367.4856,517.7313 Q368.1419,517.8875 368.7044,518.1844 L368.7044,520.9031 Q368.0794,520.325 367.4856,520.0594 Q366.8919,519.7781 366.2669,519.7781 Q364.9231,519.7781 364.2356,520.8563 Q363.5481,521.9188 363.5481,524.0125 Q363.5481,526.1063 364.2356,527.1844 Q364.9231,528.2469 366.2669,528.2469 Q366.8919,528.2469 367.4856,527.9813 Q368.0794,527.7 368.7044,527.1219 L368.7044,529.8406 Z " fill="#000000"/><text fill="#000000" font-family="sans-serif" font-size="14" lengthAdjust="spacing" textLength="59.459" x="386.2356" y="529.0467">Location</text><line style="stroke:#181818;stroke-width:0.5;" x1="281.97" x2="517.4602" y1="540.2" y2="540.2"/><text fill="#000000" font-family="sans-serif" font-size="14" lengthAdjust="spacing" textLength="178.377" x="286.97" y="557.1951">identifier (1..*, MS, LDAP)</text><text fill="#000000" font-family="sans-serif" font-size="14" lengthAdjust="spacing" textLength="172.7646" x="286.97" y="573.492">address (0..1, MS, LDAP)</text><text fill="#000000" font-family="sans-serif" font-size="14" lengthAdjust="spacing" textLength="225.4902" x="286.97" y="589.7889">meta.tag.origin (1..1, MS, LDAP)</text><line style="stroke:#181818;stroke-width:0.5;" x1="281.97" x2="517.4602" y1="597.0906" y2="597.0906"/></g><!--class HealthcareService_n--><g id="elem_HealthcareService_n"><rect fill="#F1F1F1" height="48" id="HealthcareService_n" rx="2.5" ry="2.5" style="stroke:#181818;stroke-width:0.5;" width="176.2314" x="558.6" y="294.27"/><ellipse cx="573.6" cy="310.27" fill="#ADD1B2" rx="11" ry="11" style="stroke:#181818;stroke-width:1;"/><path d="M576.5688,315.9106 Q575.9906,316.2075 575.35,316.3481 Q574.7094,316.5044 574.0063,316.5044 Q571.5063,316.5044 570.1781,314.8638 Q568.8656,313.2075 568.8656,310.0825 Q568.8656,306.9575 570.1781,305.3013 Q571.5063,303.645 574.0063,303.645 Q574.7094,303.645 575.35,303.8013 Q576.0063,303.9575 576.5688,304.2544 L576.5688,306.9731 Q575.9438,306.395 575.35,306.1294 Q574.7563,305.8481 574.1313,305.8481 Q572.7875,305.8481 572.1,306.9263 Q571.4125,307.9888 571.4125,310.0825 Q571.4125,312.1763 572.1,313.2544 Q572.7875,314.3169 574.1313,314.3169 Q574.7563,314.3169 575.35,314.0513 Q575.9438,313.77 576.5688,313.1919 L576.5688,315.9106 Z " fill="#000000"/><text fill="#000000" font-family="sans-serif" font-size="14" lengthAdjust="spacing" textLength="144.2314" x="587.6" y="315.1167">HealthcareService_n</text><line style="stroke:#181818;stroke-width:0.5;" x1="559.6" x2="733.8314" y1="326.27" y2="326.27"/><line style="stroke:#181818;stroke-width:0.5;" x1="559.6" x2="733.8314" y1="334.27" y2="334.27"/></g><!--class Endpoint_n--><g id="elem_Endpoint_n"><rect fill="#F1F1F1" height="48" id="Endpoint_n" rx="2.5" ry="2.5" style="stroke:#181818;stroke-width:0.5;" width="110.1826" x="578.63" y="532.64"/><ellipse cx="593.63" cy="548.64" fill="#ADD1B2" rx="11" ry="11" style="stroke:#181818;stroke-width:1;"/><path d="M596.5988,554.2806 Q596.0206,554.5775 595.38,554.7181 Q594.7394,554.8744 594.0363,554.8744 Q591.5363,554.8744 590.2081,553.2338 Q588.8956,551.5775 588.8956,548.4525 Q588.8956,545.3275 590.2081,543.6713 Q591.5363,542.015 594.0363,542.015 Q594.7394,542.015 595.38,542.1713 Q596.0363,542.3275 596.5988,542.6244 L596.5988,545.3431 Q595.9738,544.765 595.38,544.4994 Q594.7863,544.2181 594.1613,544.2181 Q592.8175,544.2181 592.13,545.2963 Q591.4425,546.3588 591.4425,548.4525 Q591.4425,550.5463 592.13,551.6244 Q592.8175,552.6869 594.1613,552.6869 Q594.7863,552.6869 595.38,552.4213 Q595.9738,552.14 596.5988,551.5619 L596.5988,554.2806 Z " fill="#000000"/><text fill="#000000" font-family="sans-serif" font-size="14" lengthAdjust="spacing" textLength="78.1826" x="607.63" y="553.4867">Endpoint_n</text><line style="stroke:#181818;stroke-width:0.5;" x1="579.63" x2="687.8126" y1="564.64" y2="564.64"/><line style="stroke:#181818;stroke-width:0.5;" x1="579.63" x2="687.8126" y1="572.64" y2="572.64"/></g><!--class Location_n--><g id="elem_Location_n"><rect fill="#F1F1F1" height="48" id="Location_n" rx="2.5" ry="2.5" style="stroke:#181818;stroke-width:0.5;" width="107.332" x="724.05" y="532.64"/><ellipse cx="739.05" cy="548.64" fill="#ADD1B2" rx="11" ry="11" style="stroke:#181818;stroke-width:1;"/><path d="M742.0188,554.2806 Q741.4406,554.5775 740.8,554.7181 Q740.1594,554.8744 739.4563,554.8744 Q736.9563,554.8744 735.6281,553.2338 Q734.3156,551.5775 734.3156,548.4525 Q734.3156,545.3275 735.6281,543.6713 Q736.9563,542.015 739.4563,542.015 Q740.1594,542.015 740.8,542.1713 Q741.4563,542.3275 742.0188,542.6244 L742.0188,545.3431 Q741.3938,544.765 740.8,544.4994 Q740.2063,544.2181 739.5813,544.2181 Q738.2375,544.2181 737.55,545.2963 Q736.8625,546.3588 736.8625,548.4525 Q736.8625,550.5463 737.55,551.6244 Q738.2375,552.6869 739.5813,552.6869 Q740.2063,552.6869 740.8,552.4213 Q741.3938,552.14 742.0188,551.5619 L742.0188,554.2806 Z " fill="#000000"/><text fill="#000000" font-family="sans-serif" font-size="14" lengthAdjust="spacing" textLength="75.332" x="753.05" y="553.4867">Location_n</text><line style="stroke:#181818;stroke-width:0.5;" x1="725.05" x2="830.382" y1="564.64" y2="564.64"/><line style="stroke:#181818;stroke-width:0.5;" x1="725.05" x2="830.382" y1="572.64" y2="572.64"/></g><!--reverse link Organization to HealthcareService--><g id="link_Organization_HealthcareService"><path codeLine="40" d="M467.9185,174.7225 C457.0185,193.8425 448.31,209.13 437.23,228.6 " fill="none" id="Organization-backto-HealthcareService" style="stroke:#181818;stroke-width:1;"/><polygon fill="#181818" points="470.89,169.51,462.9577,175.3477,468.4137,173.8537,469.9077,179.3097,470.89,169.51" style="stroke:#181818;stroke-width:1;"/></g><!--link HealthcareService to Endpoint--><g id="link_HealthcareService_Endpoint"><path codeLine="41" d="M289.54,407.62 C268.19,427.03 250.0195,443.5438 228.6595,462.9638 " fill="none" id="HealthcareService-to-Endpoint" style="stroke:#181818;stroke-width:1;"/><polygon fill="#181818" points="224.22,467,233.57,463.9053,227.9195,463.6365,228.1883,457.986,224.22,467" style="stroke:#181818;stroke-width:1;"/></g><!--link HealthcareService to Location--><g id="link_HealthcareService_Location"><path codeLine="42" d="M391.58,407.62 C393.45,441.58 395.1808,473.069 396.7608,501.819 " fill="none" id="HealthcareService-to-Location" style="stroke:#181818;stroke-width:1;"/><polygon fill="#181818" points="397.09,507.81,400.5901,498.6041,396.8156,502.8175,392.6022,499.0431,397.09,507.81" style="stroke:#181818;stroke-width:1;"/></g><!--reverse link Organization to HealthcareService_n--><g id="link_Organization_HealthcareService_n"><path codeLine="44" d="M565.5207,174.723 C590.6007,218.733 616.88,264.88 633.46,293.99 " fill="none" id="Organization-backto-HealthcareService_n" style="stroke:#181818;stroke-width:1;"/><polygon fill="#181818" points="562.55,169.51,563.5308,179.3099,565.0256,173.8541,570.4814,175.349,562.55,169.51" style="stroke:#181818;stroke-width:1;"/></g><!--link HealthcareService_n to Endpoint_n--><g id="link_HealthcareService_n_Endpoint_n"><path codeLine="45" d="M645.45,342.36 C642.96,387.55 637.8096,481.1991 635.3196,526.4591 " fill="none" id="HealthcareService_n-to-Endpoint_n" style="stroke:#181818;stroke-width:1;"/><polygon fill="#181818" points="634.99,532.45,639.4784,523.6833,635.2647,527.4575,631.4904,523.2439,634.99,532.45" style="stroke:#181818;stroke-width:1;"/></g><!--link HealthcareService_n to Location_n--><g id="link_HealthcareService_n_Location_n"><path codeLine="46" d="M659.52,342.36 C684.56,387.55 736.871,481.9424 761.961,527.2024 " fill="none" id="HealthcareService_n-to-Location_n" style="stroke:#181818;stroke-width:1;"/><polygon fill="#181818" points="764.87,532.45,764.0049,522.6392,762.4458,528.077,757.008,526.5179,764.87,532.45" style="stroke:#181818;stroke-width:1;"/></g><!--SRC=[dLJ1JeD04Btp5NkifY3SZOb64qrgQbBlPh8xqasMNR9iCTZqtrsab6rPG3p2FERDU_C64b01HK7MEWN9ly5m9Sa-86J_oL6m0-4CfU7sGPD54aNNI_AwMPBLu_tRbOEIaE5lFQdhRWK4Xu8iukEdRibKEOxq16fuwNJj8mmAf2hpTy_GG6GWZPJcAPVzFeU07CK_8mYpfQ1nWxha52STS8bohKgBOG_L9SVD-akYTh55ZfHRIqpL3Js45OeswvX4ecIvujByquWBQ85qf-s4aQfvNfXVzJbqgmJp9QJp-AcTSOwrL4c9j3RXtMR5BwymO7O32MjY6VjYoPX6EvOtipbKGW5hE9CvbiuoipDdrQvw_kMTXCJZMvswXBCVm6qOzeyYw9z96DwT5ZjGRgNzYU931fvtPpGZa9RAGiWF]--></g></svg>