<svg xmlns="http://www.w3.org/2000/svg" xmlns:xlink="http://www.w3.org/1999/xlink" contentStyleType="text/css" height="382px" preserveAspectRatio="none" style="width:733px;height:382px;background:#FFFFFF;" version="1.1" viewBox="0 0 733 382" width="733px" zoomAndPan="magnify"><defs/><g><!--class PractitionerRole--><g id="elem_PractitionerRole"><rect codeLine="2" fill="#F1F1F1" height="96.8906" id="PractitionerRole" rx="2.5" ry="2.5" style="stroke:#181818;stroke-width:0.5;" width="203" x="256" y="7"/><ellipse cx="298.9" cy="23" fill="#C2C2C2" rx="11" ry="11" style="stroke:#181818;stroke-width:1.0;"/><path d="M301.8688,28.6406 Q301.2906,28.9375 300.65,29.0781 Q300.0094,29.2344 299.3063,29.2344 Q296.8063,29.2344 295.4781,27.5938 Q294.1656,25.9375 294.1656,22.8125 Q294.1656,19.6875 295.4781,18.0313 Q296.8063,16.375 299.3063,16.375 Q300.0094,16.375 300.65,16.5313 Q301.3063,16.6875 301.8688,16.9844 L301.8688,19.7031 Q301.2438,19.125 300.65,18.8594 Q300.0563,18.5781 299.4313,18.5781 Q298.0875,18.5781 297.4,19.6563 Q296.7125,20.7188 296.7125,22.8125 Q296.7125,24.9063 297.4,25.9844 Q298.0875,27.0469 299.4313,27.0469 Q300.0563,27.0469 300.65,26.7813 Q301.2438,26.5 301.8688,25.9219 L301.8688,28.6406 Z " fill="#000000"/><text fill="#000000" font-family="sans-serif" font-size="14" lengthAdjust="spacing" textLength="109" x="319.1" y="27.8467">PractitionerRole</text><line style="stroke:#181818;stroke-width:0.5;" x1="257" x2="458" y1="39" y2="39"/><text fill="#000000" font-family="sans-serif" font-size="14" lengthAdjust="spacing" textLength="191" x="262" y="55.9951">practitioner (1..1, MS, LDAP)</text><text fill="#000000" font-family="sans-serif" font-size="14" lengthAdjust="spacing" textLength="114" x="262" y="72.292">location (0.., MS)</text><text fill="#000000" font-family="sans-serif" font-size="14" lengthAdjust="spacing" textLength="122" x="262" y="88.5889">endpoint (0.., MS)</text><line style="stroke:#181818;stroke-width:0.5;" x1="257" x2="458" y1="95.8906" y2="95.8906"/></g><!--class Practitioner--><g id="elem_Practitioner"><rect codeLine="7" fill="#F1F1F1" height="194.6719" id="Practitioner" rx="2.5" ry="2.5" style="stroke:#181818;stroke-width:0.5;" width="197" x="7" y="180.89"/><ellipse cx="62.25" cy="196.89" fill="#C2C2C2" rx="11" ry="11" style="stroke:#181818;stroke-width:1.0;"/><path d="M65.2188,202.5306 Q64.6406,202.8275 64,202.9681 Q63.3594,203.1244 62.6563,203.1244 Q60.1563,203.1244 58.8281,201.4838 Q57.5156,199.8275 57.5156,196.7025 Q57.5156,193.5775 58.8281,191.9213 Q60.1563,190.265 62.6563,190.265 Q63.3594,190.265 64,190.4213 Q64.6563,190.5775 65.2188,190.8744 L65.2188,193.5931 Q64.5938,193.015 64,192.7494 Q63.4063,192.4681 62.7813,192.4681 Q61.4375,192.4681 60.75,193.5463 Q60.0625,194.6088 60.0625,196.7025 Q60.0625,198.7963 60.75,199.8744 Q61.4375,200.9369 62.7813,200.9369 Q63.4063,200.9369 64,200.6713 Q64.5938,200.39 65.2188,199.8119 L65.2188,202.5306 Z " fill="#000000"/><text fill="#000000" font-family="sans-serif" font-size="14" lengthAdjust="spacing" textLength="78" x="82.75" y="201.7367">Practitioner</text><line style="stroke:#181818;stroke-width:0.5;" x1="8" x2="203" y1="212.89" y2="212.89"/><text fill="#000000" font-family="sans-serif" font-size="14" lengthAdjust="spacing" textLength="163" x="13" y="229.8851">identifier (1.., MS, LDAP)</text><text fill="#000000" font-family="sans-serif" font-size="14" lengthAdjust="spacing" textLength="153" x="13" y="246.182">active (1..1, MS, LDAP)</text><text fill="#000000" font-family="sans-serif" font-size="14" lengthAdjust="spacing" textLength="152" x="13" y="262.4789">name (1..1, MS, LDAP)</text><text fill="#000000" font-family="sans-serif" font-size="14" lengthAdjust="spacing" textLength="116" x="13" y="278.7757">telecom (0.., MS)</text><text fill="#000000" font-family="sans-serif" font-size="14" lengthAdjust="spacing" textLength="110" x="13" y="295.0726">gender (..1, MS)</text><text fill="#000000" font-family="sans-serif" font-size="14" lengthAdjust="spacing" textLength="124" x="13" y="311.3695">birthDate (..1, MS)</text><text fill="#000000" font-family="sans-serif" font-size="14" lengthAdjust="spacing" textLength="101" x="13" y="327.6664">photo (0.., MS)</text><text fill="#000000" font-family="sans-serif" font-size="14" lengthAdjust="spacing" textLength="185" x="13" y="343.9632">qualification (0.., MS, LDAP)</text><text fill="#000000" font-family="sans-serif" font-size="14" lengthAdjust="spacing" textLength="166" x="13" y="360.2601">communication (0.., MS)</text><line style="stroke:#181818;stroke-width:0.5;" x1="8" x2="203" y1="367.5619" y2="367.5619"/></g><!--class Endpoint--><g id="elem_Endpoint"><rect codeLine="18" fill="#F1F1F1" height="145.7813" id="Endpoint" rx="2.5" ry="2.5" style="stroke:#181818;stroke-width:0.5;" width="236" x="239.5" y="205.33"/><ellipse cx="322.25" cy="221.33" fill="#C2C2C2" rx="11" ry="11" style="stroke:#181818;stroke-width:1.0;"/><path d="M325.2188,226.9706 Q324.6406,227.2675 324,227.4081 Q323.3594,227.5644 322.6563,227.5644 Q320.1563,227.5644 318.8281,225.9238 Q317.5156,224.2675 317.5156,221.1425 Q317.5156,218.0175 318.8281,216.3613 Q320.1563,214.705 322.6563,214.705 Q323.3594,214.705 324,214.8613 Q324.6563,215.0175 325.2188,215.3144 L325.2188,218.0331 Q324.5938,217.455 324,217.1894 Q323.4063,216.9081 322.7813,216.9081 Q321.4375,216.9081 320.75,217.9863 Q320.0625,219.0488 320.0625,221.1425 Q320.0625,223.2363 320.75,224.3144 Q321.4375,225.3769 322.7813,225.3769 Q323.4063,225.3769 324,225.1113 Q324.5938,224.83 325.2188,224.2519 L325.2188,226.9706 Z " fill="#000000"/><text fill="#000000" font-family="sans-serif" font-size="14" lengthAdjust="spacing" textLength="62" x="342.75" y="226.1767">Endpoint</text><line style="stroke:#181818;stroke-width:0.5;" x1="240.5" x2="474.5" y1="237.33" y2="237.33"/><text fill="#000000" font-family="sans-serif" font-size="14" lengthAdjust="spacing" textLength="112" x="245.5" y="254.3251">status (1..1, MS)</text><text fill="#000000" font-family="sans-serif" font-size="14" lengthAdjust="spacing" textLength="181" x="245.5" y="270.622">connectionType (1..1, MS)</text><text fill="#000000" font-family="sans-serif" font-size="14" lengthAdjust="spacing" textLength="108" x="245.5" y="286.9189">name (1..1, MS)</text><text fill="#000000" font-family="sans-serif" font-size="14" lengthAdjust="spacing" textLength="224" x="245.5" y="303.2157">managingOrganization (0..1, MS)</text><text fill="#000000" font-family="sans-serif" font-size="14" lengthAdjust="spacing" textLength="147" x="245.5" y="319.5126">payloadType (1.., MS)</text><text fill="#000000" font-family="sans-serif" font-size="14" lengthAdjust="spacing" textLength="125" x="245.5" y="335.8095">address (1..1, MS)</text><line style="stroke:#181818;stroke-width:0.5;" x1="240.5" x2="474.5" y1="343.1113" y2="343.1113"/></g><!--class Location--><g id="elem_Location"><rect codeLine="26" fill="#F1F1F1" height="145.7813" id="Location" rx="2.5" ry="2.5" style="stroke:#181818;stroke-width:0.5;" width="215" x="511" y="205.33"/><ellipse cx="585.25" cy="221.33" fill="#C2C2C2" rx="11" ry="11" style="stroke:#181818;stroke-width:1.0;"/><path d="M588.2188,226.9706 Q587.6406,227.2675 587,227.4081 Q586.3594,227.5644 585.6563,227.5644 Q583.1563,227.5644 581.8281,225.9238 Q580.5156,224.2675 580.5156,221.1425 Q580.5156,218.0175 581.8281,216.3613 Q583.1563,214.705 585.6563,214.705 Q586.3594,214.705 587,214.8613 Q587.6563,215.0175 588.2188,215.3144 L588.2188,218.0331 Q587.5938,217.455 587,217.1894 Q586.4063,216.9081 585.7813,216.9081 Q584.4375,216.9081 583.75,217.9863 Q583.0625,219.0488 583.0625,221.1425 Q583.0625,223.2363 583.75,224.3144 Q584.4375,225.3769 585.7813,225.3769 Q586.4063,225.3769 587,225.1113 Q587.5938,224.83 588.2188,224.2519 L588.2188,226.9706 Z " fill="#000000"/><text fill="#000000" font-family="sans-serif" font-size="14" lengthAdjust="spacing" textLength="58" x="605.75" y="226.1767">Location</text><line style="stroke:#181818;stroke-width:0.5;" x1="512" x2="725" y1="237.33" y2="237.33"/><text fill="#000000" font-family="sans-serif" font-size="14" lengthAdjust="spacing" textLength="99" x="517" y="254.3251">name (..1, MS)</text><text fill="#000000" font-family="sans-serif" font-size="14" lengthAdjust="spacing" textLength="137" x="517" y="270.622">description (..1, MS)</text><text fill="#000000" font-family="sans-serif" font-size="14" lengthAdjust="spacing" textLength="116" x="517" y="286.9189">address (..1, MS)</text><text fill="#000000" font-family="sans-serif" font-size="14" lengthAdjust="spacing" textLength="115" x="517" y="303.2157">position (..1, MS)</text><text fill="#000000" font-family="sans-serif" font-size="14" lengthAdjust="spacing" textLength="183" x="517" y="319.5126">hoursOfOperation (0.., MS)</text><text fill="#000000" font-family="sans-serif" font-size="14" lengthAdjust="spacing" textLength="203" x="517" y="335.8095">availabilityExceptions (..1, MS)</text><line style="stroke:#181818;stroke-width:0.5;" x1="512" x2="725" y1="343.1113" y2="343.1113"/></g><!--reverse link PractitionerRole to Practitioner--><g id="link_PractitionerRole_Practitioner"><path codeLine="35" d="M293.7939,112.2576 C264.9839,137.4976 237.79,161.32 204.27,190.69 " fill="none" id="PractitionerRole-backto-Practitioner" style="stroke:#181818;stroke-width:1.0;"/><polygon fill="none" points="302.82,104.35,295.6711,105.2951,293.7939,112.2576,300.9428,111.3125,302.82,104.35" style="stroke:#181818;stroke-width:1.0;"/><text fill="#000000" font-family="sans-serif" font-size="13" lengthAdjust="spacing" textLength="73" x="269.8" y="146.9569">practitioner</text></g><!--reverse link PractitionerRole to Endpoint--><g id="link_PractitionerRole_Endpoint"><path codeLine="36" d="M357.5,116.35 C357.5,145.77 357.5,172.03 357.5,205.07 " fill="none" id="PractitionerRole-backto-Endpoint" style="stroke:#181818;stroke-width:1.0;"/><polygon fill="none" points="357.5,104.35,353.5,110.35,357.5,116.35,361.5,110.35,357.5,104.35" style="stroke:#181818;stroke-width:1.0;"/><text fill="#000000" font-family="sans-serif" font-size="13" lengthAdjust="spacing" textLength="56" x="358.5" y="146.9569">endpoint</text></g><!--reverse link PractitionerRole to Location--><g id="link_PractitionerRole_Location"><path codeLine="37" d="M423.2919,112.0998 C458.0019,141.4598 493.94,171.86 532.94,204.85 " fill="none" id="PractitionerRole-backto-Location" style="stroke:#181818;stroke-width:1.0;"/><polygon fill="none" points="414.13,104.35,416.1277,111.2789,423.2919,112.0998,421.2942,105.1709,414.13,104.35" style="stroke:#181818;stroke-width:1.0;"/><text fill="#000000" font-family="sans-serif" font-size="13" lengthAdjust="spacing" textLength="50" x="465.62" y="146.9569">location</text></g><!--SRC=[VLF1Ri8m3BttAt9a4bJZocqIt9X0stx09AQrbiHTag8nnB-l7Mj9QU0OlMU_vnVRVvAjm84HXYtBqh514LoDcTJWlTWwa842iKNtnXh5AHFYj2VKwYog21IJUPxFf-BrVIhMovVjKyJJBA5bYSbpdhUK64IhAYOR8l2S41y8aq8Rg7bSPDEgRUq17_coO1xY0JLADadRHUExbVylZg4TkL0k8M0IhKeEd6pvLODkXhh9QcohiMHgIwDCkzXMNQ9nP3v0gFrrsc53Qr6stJwE5QOvmwnYn825WconSGLO-hcw6eyEHysWUf5R79How0SckvdMtGgTHfuIGWgzT5HTd2JmNYXbaZtTBIovTdwptrJexcyq780qx4XJEAw-9VxvYCNEMJQwAvxD1lk-65nNcjzzzA8_eZIl2s_HN-8l]--></g></svg>