<svg xmlns="http://www.w3.org/2000/svg" xmlns:xlink="http://www.w3.org/1999/xlink" contentStyleType="text/css" data-diagram-type="CLASS" height="701px" preserveAspectRatio="none" style="width:834px;height:701px;background:#FFFFFF;" version="1.1" viewBox="0 0 834 701" width="834px" zoomAndPan="magnify"><defs/><g><!--class Practitioner--><g class="entity" data-entity="Practitioner" data-source-line="2" data-uid="ent0002" id="entity_Practitioner"><rect fill="#F1F1F1" height="210.9688" rx="2.5" ry="2.5" style="stroke:#181818;stroke-width:0.5;" width="237.4902" x="394.97" y="7"/><ellipse cx="468.9451" cy="23" fill="#ADD1B2" rx="11" ry="11" style="stroke:#181818;stroke-width:1;"/><path d="M471.9138,28.6406 Q471.3357,28.9375 470.6951,29.0781 Q470.0545,29.2344 469.3513,29.2344 Q466.8513,29.2344 465.5232,27.5938 Q464.2107,25.9375 464.2107,22.8125 Q464.2107,19.6875 465.5232,18.0313 Q466.8513,16.375 469.3513,16.375 Q470.0545,16.375 470.6951,16.5313 Q471.3513,16.6875 471.9138,16.9844 L471.9138,19.7031 Q471.2888,19.125 470.6951,18.8594 Q470.1013,18.5781 469.4763,18.5781 Q468.1326,18.5781 467.4451,19.6563 Q466.7576,20.7188 466.7576,22.8125 Q466.7576,24.9063 467.4451,25.9844 Q468.1326,27.0469 469.4763,27.0469 Q470.1013,27.0469 470.6951,26.7813 Q471.2888,26.5 471.9138,25.9219 L471.9138,28.6406 Z " fill="#000000"/><text fill="#000000" font-family="sans-serif" font-size="14" lengthAdjust="spacing" textLength="81.04" x="489.4451" y="27.8467">Practitioner</text><line style="stroke:#181818;stroke-width:0.5;" x1="395.97" x2="631.4602" y1="39" y2="39"/><text fill="#000000" font-family="sans-serif" font-size="14" lengthAdjust="spacing" textLength="178.377" x="400.97" y="55.9951">identifier (1..*, MS, LDAP)</text><text fill="#000000" font-family="sans-serif" font-size="14" lengthAdjust="spacing" textLength="160.0088" x="400.97" y="72.292">active (1..1, MS, LDAP)</text><text fill="#000000" font-family="sans-serif" font-size="14" lengthAdjust="spacing" textLength="155.251" x="400.97" y="88.5889">name (1..*, MS, LDAP)</text><text fill="#000000" font-family="sans-serif" font-size="14" lengthAdjust="spacing" textLength="126.5537" x="400.97" y="104.8857">telecom (0..*, MS)</text><text fill="#000000" font-family="sans-serif" font-size="14" lengthAdjust="spacing" textLength="119.6768" x="400.97" y="121.1826">gender (0..*, MS)</text><text fill="#000000" font-family="sans-serif" font-size="14" lengthAdjust="spacing" textLength="136.4043" x="400.97" y="137.4795">birthDate (0..*, MS)</text><text fill="#000000" font-family="sans-serif" font-size="14" lengthAdjust="spacing" textLength="110.4277" x="400.97" y="153.7764">photo (0..*, MS)</text><text fill="#000000" font-family="sans-serif" font-size="14" lengthAdjust="spacing" textLength="201.5781" x="400.97" y="170.0732">qualification (0..*, MS, LDAP)</text><text fill="#000000" font-family="sans-serif" font-size="14" lengthAdjust="spacing" textLength="178.3154" x="400.97" y="186.3701">communication (0..*, MS)</text><text fill="#000000" font-family="sans-serif" font-size="14" lengthAdjust="spacing" textLength="225.4902" x="400.97" y="202.667">meta.tag.origin (1..1, MS, LDAP)</text><line style="stroke:#181818;stroke-width:0.5;" x1="395.97" x2="631.4602" y1="209.9688" y2="209.9688"/></g><!--class PractitionerRole--><g class="entity" data-entity="PractitionerRole" data-source-line="15" data-uid="ent0003" id="entity_PractitionerRole"><rect fill="#F1F1F1" height="178.375" rx="2.5" ry="2.5" style="stroke:#181818;stroke-width:0.5;" width="273.249" x="252.09" y="277.97"/><ellipse cx="328.5465" cy="293.97" fill="#ADD1B2" rx="11" ry="11" style="stroke:#181818;stroke-width:1;"/><path d="M331.5153,299.6106 Q330.9372,299.9075 330.2965,300.0481 Q329.6559,300.2044 328.9528,300.2044 Q326.4528,300.2044 325.1247,298.5638 Q323.8122,296.9075 323.8122,293.7825 Q323.8122,290.6575 325.1247,289.0013 Q326.4528,287.345 328.9528,287.345 Q329.6559,287.345 330.2965,287.5013 Q330.9528,287.6575 331.5153,287.9544 L331.5153,290.6731 Q330.8903,290.095 330.2965,289.8294 Q329.7028,289.5481 329.0778,289.5481 Q327.734,289.5481 327.0465,290.6263 Q326.359,291.6888 326.359,293.7825 Q326.359,295.8763 327.0465,296.9544 Q327.734,298.0169 329.0778,298.0169 Q329.7028,298.0169 330.2965,297.7513 Q330.8903,297.47 331.5153,296.8919 L331.5153,299.6106 Z " fill="#000000"/><text fill="#000000" font-family="sans-serif" font-size="14" lengthAdjust="spacing" textLength="111.8359" x="349.0465" y="298.8167">PractitionerRole</text><line style="stroke:#181818;stroke-width:0.5;" x1="253.09" x2="524.339" y1="309.97" y2="309.97"/><text fill="#000000" font-family="sans-serif" font-size="14" lengthAdjust="spacing" textLength="132.877" x="258.09" y="326.9651">identifier (1..*, MS)</text><text fill="#000000" font-family="sans-serif" font-size="14" lengthAdjust="spacing" textLength="198.9395" x="258.09" y="343.262">practitioner (1..1, MS, LDAP)</text><text fill="#000000" font-family="sans-serif" font-size="14" lengthAdjust="spacing" textLength="171.0967" x="258.09" y="359.5589">location (0..*, MS, LDAP)</text><text fill="#000000" font-family="sans-serif" font-size="14" lengthAdjust="spacing" textLength="196.752" x="258.09" y="375.8557">healthcareService (0..*, MS)</text><text fill="#000000" font-family="sans-serif" font-size="14" lengthAdjust="spacing" textLength="132.125" x="258.09" y="392.1526">endpoint (0..*, MS)</text><text fill="#000000" font-family="sans-serif" font-size="14" lengthAdjust="spacing" textLength="225.4902" x="258.09" y="408.4495">meta.tag.origin (1..1, MS, LDAP)</text><text fill="#000000" font-family="sans-serif" font-size="14" lengthAdjust="spacing" textLength="227.4385" x="258.09" y="424.7464">meta.security.ownerId (1..*, MS)</text><text fill="#000000" font-family="sans-serif" font-size="14" lengthAdjust="spacing" textLength="261.249" x="258.09" y="441.0432">meta.security.holder (1..*, MS, LDAP)</text><line style="stroke:#181818;stroke-width:0.5;" x1="253.09" x2="524.339" y1="448.345" y2="448.345"/></g><!--class Endpoint--><g class="entity" data-entity="Endpoint" data-source-line="26" data-uid="ent0004" id="entity_Endpoint"><rect fill="#F1F1F1" height="178.375" rx="2.5" ry="2.5" style="stroke:#181818;stroke-width:0.5;" width="239.4385" x="7" y="516.34"/><ellipse cx="91.3145" cy="532.34" fill="#ADD1B2" rx="11" ry="11" style="stroke:#181818;stroke-width:1;"/><path d="M94.2832,537.9806 Q93.7051,538.2775 93.0645,538.4181 Q92.4238,538.5744 91.7207,538.5744 Q89.2207,538.5744 87.8926,536.9338 Q86.5801,535.2775 86.5801,532.1525 Q86.5801,529.0275 87.8926,527.3713 Q89.2207,525.715 91.7207,525.715 Q92.4238,525.715 93.0645,525.8713 Q93.7207,526.0275 94.2832,526.3244 L94.2832,529.0431 Q93.6582,528.465 93.0645,528.1994 Q92.4707,527.9181 91.8457,527.9181 Q90.502,527.9181 89.8145,528.9963 Q89.127,530.0588 89.127,532.1525 Q89.127,534.2463 89.8145,535.3244 Q90.502,536.3869 91.8457,536.3869 Q92.4707,536.3869 93.0645,536.1213 Q93.6582,535.84 94.2832,535.2619 L94.2832,537.9806 Z " fill="#000000"/><text fill="#000000" font-family="sans-serif" font-size="14" lengthAdjust="spacing" textLength="62.3096" x="111.8145" y="537.1867">Endpoint</text><line style="stroke:#181818;stroke-width:0.5;" x1="8" x2="245.4385" y1="548.34" y2="548.34"/><text fill="#000000" font-family="sans-serif" font-size="14" lengthAdjust="spacing" textLength="132.877" x="13" y="565.3351">identifier (1..*, MS)</text><text fill="#000000" font-family="sans-serif" font-size="14" lengthAdjust="spacing" textLength="113.0664" x="13" y="581.632">status (0..*, MS)</text><text fill="#000000" font-family="sans-serif" font-size="14" lengthAdjust="spacing" textLength="181.5215" x="13" y="597.9289">connectionType (0..*, MS)</text><text fill="#000000" font-family="sans-serif" font-size="14" lengthAdjust="spacing" textLength="111.6582" x="13" y="614.2257">name (0..1, MS)</text><text fill="#000000" font-family="sans-serif" font-size="14" lengthAdjust="spacing" textLength="160.0566" x="13" y="630.5226">payloadType (1..*, MS)</text><text fill="#000000" font-family="sans-serif" font-size="14" lengthAdjust="spacing" textLength="127.2646" x="13" y="646.8195">address (1..1, MS)</text><text fill="#000000" font-family="sans-serif" font-size="14" lengthAdjust="spacing" textLength="179.9902" x="13" y="663.1164">meta.tag.origin (1..1, MS)</text><text fill="#000000" font-family="sans-serif" font-size="14" lengthAdjust="spacing" textLength="227.4385" x="13" y="679.4132">meta.security.ownerId (1..*, MS)</text><line style="stroke:#181818;stroke-width:0.5;" x1="8" x2="245.4385" y1="686.715" y2="686.715"/></g><!--class Location--><g class="entity" data-entity="Location" data-source-line="37" data-uid="ent0005" id="entity_Location"><rect fill="#F1F1F1" height="96.8906" rx="2.5" ry="2.5" style="stroke:#181818;stroke-width:0.5;" width="237.4902" x="280.97" y="557.09"/><ellipse cx="365.7356" cy="573.09" fill="#ADD1B2" rx="11" ry="11" style="stroke:#181818;stroke-width:1;"/><path d="M368.7044,578.7306 Q368.1263,579.0275 367.4856,579.1681 Q366.845,579.3244 366.1419,579.3244 Q363.6419,579.3244 362.3138,577.6838 Q361.0013,576.0275 361.0013,572.9025 Q361.0013,569.7775 362.3138,568.1213 Q363.6419,566.465 366.1419,566.465 Q366.845,566.465 367.4856,566.6213 Q368.1419,566.7775 368.7044,567.0744 L368.7044,569.7931 Q368.0794,569.215 367.4856,568.9494 Q366.8919,568.6681 366.2669,568.6681 Q364.9231,568.6681 364.2356,569.7463 Q363.5481,570.8088 363.5481,572.9025 Q363.5481,574.9963 364.2356,576.0744 Q364.9231,577.1369 366.2669,577.1369 Q366.8919,577.1369 367.4856,576.8713 Q368.0794,576.59 368.7044,576.0119 L368.7044,578.7306 Z " fill="#000000"/><text fill="#000000" font-family="sans-serif" font-size="14" lengthAdjust="spacing" textLength="59.459" x="386.2356" y="577.9367">Location</text><line style="stroke:#181818;stroke-width:0.5;" x1="281.97" x2="517.4602" y1="589.09" y2="589.09"/><text fill="#000000" font-family="sans-serif" font-size="14" lengthAdjust="spacing" textLength="178.377" x="286.97" y="606.0851">identifier (1..*, MS, LDAP)</text><text fill="#000000" font-family="sans-serif" font-size="14" lengthAdjust="spacing" textLength="172.7646" x="286.97" y="622.382">address (0..1, MS, LDAP)</text><text fill="#000000" font-family="sans-serif" font-size="14" lengthAdjust="spacing" textLength="225.4902" x="286.97" y="638.6789">meta.tag.origin (1..1, MS, LDAP)</text><line style="stroke:#181818;stroke-width:0.5;" x1="281.97" x2="517.4602" y1="645.9806" y2="645.9806"/></g><!--class PractitionerRole_n--><g class="entity" data-entity="PractitionerRole_n" data-source-line="47" data-uid="ent0009" id="entity_PractitionerRole_n"><rect fill="#F1F1F1" height="48" rx="2.5" ry="2.5" style="stroke:#181818;stroke-width:0.5;" width="159.709" x="559.86" y="343.16"/><ellipse cx="574.86" cy="359.16" fill="#ADD1B2" rx="11" ry="11" style="stroke:#181818;stroke-width:1;"/><path d="M577.8288,364.8006 Q577.2506,365.0975 576.61,365.2381 Q575.9694,365.3944 575.2663,365.3944 Q572.7663,365.3944 571.4381,363.7538 Q570.1256,362.0975 570.1256,358.9725 Q570.1256,355.8475 571.4381,354.1913 Q572.7663,352.535 575.2663,352.535 Q575.9694,352.535 576.61,352.6913 Q577.2663,352.8475 577.8288,353.1444 L577.8288,355.8631 Q577.2038,355.285 576.61,355.0194 Q576.0163,354.7381 575.3913,354.7381 Q574.0475,354.7381 573.36,355.8163 Q572.6725,356.8788 572.6725,358.9725 Q572.6725,361.0663 573.36,362.1444 Q574.0475,363.2069 575.3913,363.2069 Q576.0163,363.2069 576.61,362.9413 Q577.2038,362.66 577.8288,362.0819 L577.8288,364.8006 Z " fill="#000000"/><text fill="#000000" font-family="sans-serif" font-size="14" lengthAdjust="spacing" textLength="127.709" x="588.86" y="364.0067">PractitionerRole_n</text><line style="stroke:#181818;stroke-width:0.5;" x1="560.86" x2="718.569" y1="375.16" y2="375.16"/><line style="stroke:#181818;stroke-width:0.5;" x1="560.86" x2="718.569" y1="383.16" y2="383.16"/></g><!--class Endpoint_n--><g class="entity" data-entity="Endpoint_n" data-source-line="48" data-uid="ent0011" id="entity_Endpoint_n"><rect fill="#F1F1F1" height="48" rx="2.5" ry="2.5" style="stroke:#181818;stroke-width:0.5;" width="110.1826" x="574.63" y="581.53"/><ellipse cx="589.63" cy="597.53" fill="#ADD1B2" rx="11" ry="11" style="stroke:#181818;stroke-width:1;"/><path d="M592.5988,603.1706 Q592.0206,603.4675 591.38,603.6081 Q590.7394,603.7644 590.0363,603.7644 Q587.5363,603.7644 586.2081,602.1238 Q584.8956,600.4675 584.8956,597.3425 Q584.8956,594.2175 586.2081,592.5613 Q587.5363,590.905 590.0363,590.905 Q590.7394,590.905 591.38,591.0613 Q592.0363,591.2175 592.5988,591.5144 L592.5988,594.2331 Q591.9738,593.655 591.38,593.3894 Q590.7863,593.1081 590.1613,593.1081 Q588.8175,593.1081 588.13,594.1863 Q587.4425,595.2488 587.4425,597.3425 Q587.4425,599.4363 588.13,600.5144 Q588.8175,601.5769 590.1613,601.5769 Q590.7863,601.5769 591.38,601.3113 Q591.9738,601.03 592.5988,600.4519 L592.5988,603.1706 Z " fill="#000000"/><text fill="#000000" font-family="sans-serif" font-size="14" lengthAdjust="spacing" textLength="78.1826" x="603.63" y="602.3767">Endpoint_n</text><line style="stroke:#181818;stroke-width:0.5;" x1="575.63" x2="683.8126" y1="613.53" y2="613.53"/><line style="stroke:#181818;stroke-width:0.5;" x1="575.63" x2="683.8126" y1="621.53" y2="621.53"/></g><!--class Location_n--><g class="entity" data-entity="Location_n" data-source-line="49" data-uid="ent0013" id="entity_Location_n"><rect fill="#F1F1F1" height="48" rx="2.5" ry="2.5" style="stroke:#181818;stroke-width:0.5;" width="107.332" x="720.05" y="581.53"/><ellipse cx="735.05" cy="597.53" fill="#ADD1B2" rx="11" ry="11" style="stroke:#181818;stroke-width:1;"/><path d="M738.0188,603.1706 Q737.4406,603.4675 736.8,603.6081 Q736.1594,603.7644 735.4563,603.7644 Q732.9563,603.7644 731.6281,602.1238 Q730.3156,600.4675 730.3156,597.3425 Q730.3156,594.2175 731.6281,592.5613 Q732.9563,590.905 735.4563,590.905 Q736.1594,590.905 736.8,591.0613 Q737.4563,591.2175 738.0188,591.5144 L738.0188,594.2331 Q737.3938,593.655 736.8,593.3894 Q736.2063,593.1081 735.5813,593.1081 Q734.2375,593.1081 733.55,594.1863 Q732.8625,595.2488 732.8625,597.3425 Q732.8625,599.4363 733.55,600.5144 Q734.2375,601.5769 735.5813,601.5769 Q736.2063,601.5769 736.8,601.3113 Q737.3938,601.03 738.0188,600.4519 L738.0188,603.1706 Z " fill="#000000"/><text fill="#000000" font-family="sans-serif" font-size="14" lengthAdjust="spacing" textLength="75.332" x="749.05" y="602.3767">Location_n</text><line style="stroke:#181818;stroke-width:0.5;" x1="721.05" x2="826.382" y1="613.53" y2="613.53"/><line style="stroke:#181818;stroke-width:0.5;" x1="721.05" x2="826.382" y1="621.53" y2="621.53"/></g><!--reverse link Practitioner to PractitionerRole--><g class="link" data-entity-1="Practitioner" data-entity-2="PractitionerRole" data-source-line="43" data-uid="lnk6" id="link_Practitioner_PractitionerRole"><path codeLine="43" d="M459.1308,223.8285 C449.4108,243.4885 441.99,258.48 432.54,277.58" fill="none" id="Practitioner-backto-PractitionerRole" style="stroke:#181818;stroke-width:1;"/><polygon fill="#181818" points="461.79,218.45,454.2155,224.745,459.574,222.9321,461.3869,228.2906,461.79,218.45" style="stroke:#181818;stroke-width:1;"/></g><!--link PractitionerRole to Endpoint--><g class="link" data-entity-1="PractitionerRole" data-entity-2="Endpoint" data-source-line="44" data-uid="lnk7" id="link_PractitionerRole_Endpoint"><path codeLine="44" d="M290.79,456.51 C269.28,475.92 250.9444,492.4503 229.4244,511.8703" fill="none" id="PractitionerRole-to-Endpoint" style="stroke:#181818;stroke-width:1;"/><polygon fill="#181818" points="224.97,515.89,234.3314,512.83,228.682,512.5402,228.9718,506.8908,224.97,515.89" style="stroke:#181818;stroke-width:1;"/></g><!--link PractitionerRole to Location--><g class="link" data-entity-1="PractitionerRole" data-entity-2="Location" data-source-line="45" data-uid="lnk8" id="link_PractitionerRole_Location"><path codeLine="45" d="M392.83,456.51 C394.41,490.47 395.8827,521.9564 397.2127,550.7064" fill="none" id="PractitionerRole-to-Location" style="stroke:#181818;stroke-width:1;"/><polygon fill="#181818" points="397.49,556.7,401.0698,547.5248,397.2589,551.7053,393.0784,547.8945,397.49,556.7" style="stroke:#181818;stroke-width:1;"/></g><!--reverse link Practitioner to PractitionerRole_n--><g class="link" data-entity-1="Practitioner" data-entity-2="PractitionerRole_n" data-source-line="47" data-uid="lnk10" id="link_Practitioner_PractitionerRole_n"><path codeLine="47" d="M568.7377,223.8194 C591.6577,269.7794 613.84,314.26 628.02,342.7" fill="none" id="Practitioner-backto-PractitionerRole_n" style="stroke:#181818;stroke-width:1;"/><polygon fill="#181818" points="566.06,218.45,566.4969,228.2892,568.2914,222.9245,573.6561,224.7189,566.06,218.45" style="stroke:#181818;stroke-width:1;"/></g><!--link PractitionerRole_n to Endpoint_n--><g class="link" data-entity-1="PractitionerRole_n" data-entity-2="Endpoint_n" data-source-line="48" data-uid="lnk12" id="link_PractitionerRole_n_Endpoint_n"><path codeLine="48" d="M638.74,391.25 C636.83,436.44 632.8743,530.0854 630.9543,575.3454" fill="none" id="PractitionerRole_n-to-Endpoint_n" style="stroke:#181818;stroke-width:1;"/><polygon fill="#181818" points="630.7,581.34,635.0779,572.5176,630.9119,576.3445,627.085,572.1786,630.7,581.34" style="stroke:#181818;stroke-width:1;"/></g><!--link PractitionerRole_n to Location_n--><g class="link" data-entity-1="PractitionerRole_n" data-entity-2="Location_n" data-source-line="49" data-uid="lnk14" id="link_PractitionerRole_n_Location_n"><path codeLine="49" d="M652.81,391.25 C678.43,436.44 731.9508,530.8605 757.6108,576.1205" fill="none" id="PractitionerRole_n-to-Location_n" style="stroke:#181818;stroke-width:1;"/><polygon fill="#181818" points="760.57,581.34,759.6109,571.538,758.104,576.9904,752.6516,575.4835,760.57,581.34" style="stroke:#181818;stroke-width:1;"/></g><!--SRC=[dPJ1ReCm38RlF4MEtLGGlK-J9dM7IfrKhRjNNk91f92mO3gXYdSVhD32IA7jaVXFxF-p3VEuWYnZ6mkS94cZqRA3nzZXIw8I9PC2DSdgmxBP8WWUv-njEsVhvSlceQEgB-_nJx5mApGaEFO2eK9k4ZOB6qat6A4MTG6ksAUq52-1q1rEOqF67VhEGLNEEDIspv9XRLLTIQu7mguaGOA080gCbP7KGnAbnnoetut2ITmzEzq-ZU1MPjfMZA0evc1nYtOl-GM25VlKI4rt6lydpP3dLb8Hc9_AmaguRVQbiL72DNzdfgzjZRUmp0WepzoskD4QUKtmeqWlW3cETDZuxNK92cL07A-wKeCG5gkwJxIkGdeJpD9hsApRKRXZhTiom_6cJWr-x-_ovFk37V06I-7xpwUkkgEjhslUtsblUCHwIKOaRQQT_WK0]--></g></svg>