<?xml version="1.0" encoding="UTF-8" standalone="no"?><svg xmlns="http://www.w3.org/2000/svg" xmlns:xlink="http://www.w3.org/1999/xlink" contentStyleType="text/css" height="480px" preserveAspectRatio="none" style="width:701px;height:480px;background:#FFFFFF;" version="1.1" viewBox="0 0 701 480" width="701px" zoomAndPan="magnify"><defs/><g><!--MD5=[e7f1f8ff98ca4645da414d6b6c370369]
class HealthcareService--><g id="elem_HealthcareService"><rect codeLine="2" fill="#F1F1F1" height="227.2656" id="HealthcareService" rx="2.5" ry="2.5" style="stroke:#181818;stroke-width:0.5;" width="223" x="265" y="7"/><ellipse cx="310.25" cy="23" fill="#C2C2C2" rx="11" ry="11" style="stroke:#181818;stroke-width:1.0;"/><path d="M313.2188,28.6406 Q312.6406,28.9375 312,29.0781 Q311.3594,29.2344 310.6563,29.2344 Q308.1563,29.2344 306.8281,27.5938 Q305.5156,25.9375 305.5156,22.8125 Q305.5156,19.6875 306.8281,18.0313 Q308.1563,16.375 310.6563,16.375 Q311.3594,16.375 312,16.5313 Q312.6563,16.6875 313.2188,16.9844 L313.2188,19.7031 Q312.5938,19.125 312,18.8594 Q311.4063,18.5781 310.7813,18.5781 Q309.4375,18.5781 308.75,19.6563 Q308.0625,20.7188 308.0625,22.8125 Q308.0625,24.9063 308.75,25.9844 Q309.4375,27.0469 310.7813,27.0469 Q311.4063,27.0469 312,26.7813 Q312.5938,26.5 313.2188,25.9219 L313.2188,28.6406 Z " fill="#000000"/><text fill="#000000" font-family="sans-serif" font-size="14" lengthAdjust="spacing" textLength="124" x="330.75" y="27.8467">HealthcareService</text><line style="stroke:#181818;stroke-width:0.5;" x1="266" x2="487" y1="39" y2="39"/><text fill="#000000" font-family="sans-serif" font-size="14" lengthAdjust="spacing" textLength="190" x="271" y="55.9951">providedBy (1..1, MS, LDAP)</text><text fill="#000000" font-family="sans-serif" font-size="14" lengthAdjust="spacing" textLength="167" x="271" y="72.292">speciality (0.., MS, LDAP)</text><text fill="#000000" font-family="sans-serif" font-size="14" lengthAdjust="spacing" textLength="158" x="271" y="88.5889">location (0.., MS, LDAP)</text><text fill="#000000" font-family="sans-serif" font-size="14" lengthAdjust="spacing" textLength="99" x="271" y="104.8857">name (..1, MS)</text><text fill="#000000" font-family="sans-serif" font-size="14" lengthAdjust="spacing" textLength="116" x="271" y="121.1826">telecom (0.., MS)</text><text fill="#000000" font-family="sans-serif" font-size="14" lengthAdjust="spacing" textLength="208" x="271" y="137.4795">serviceProvisionCode (0.., MS)</text><text fill="#000000" font-family="sans-serif" font-size="14" lengthAdjust="spacing" textLength="166" x="271" y="153.7764">communication (0.., MS)</text><text fill="#000000" font-family="sans-serif" font-size="14" lengthAdjust="spacing" textLength="211" x="271" y="170.0732">appointmentRequired (..1, MS)</text><text fill="#000000" font-family="sans-serif" font-size="14" lengthAdjust="spacing" textLength="152" x="271" y="186.3701">availableTime (0.., MS)</text><text fill="#000000" font-family="sans-serif" font-size="14" lengthAdjust="spacing" textLength="203" x="271" y="202.667">availabilityExceptions (0.., MS)</text><text fill="#000000" font-family="sans-serif" font-size="14" lengthAdjust="spacing" textLength="122" x="271" y="218.9639">endpoint (0.., MS)</text><line style="stroke:#181818;stroke-width:0.5;" x1="266" x2="487" y1="226.2656" y2="226.2656"/></g><!--MD5=[4fd3bb6c1d79f4919f90c95b62a35422]
class Endpoint--><g id="elem_Endpoint"><rect codeLine="15" fill="#F1F1F1" height="145.7813" id="Endpoint" rx="2.5" ry="2.5" style="stroke:#181818;stroke-width:0.5;" width="227" x="7" y="319"/><ellipse cx="85.25" cy="335" fill="#C2C2C2" rx="11" ry="11" style="stroke:#181818;stroke-width:1.0;"/><path d="M88.2188,340.6406 Q87.6406,340.9375 87,341.0781 Q86.3594,341.2344 85.6563,341.2344 Q83.1563,341.2344 81.8281,339.5938 Q80.5156,337.9375 80.5156,334.8125 Q80.5156,331.6875 81.8281,330.0313 Q83.1563,328.375 85.6563,328.375 Q86.3594,328.375 87,328.5313 Q87.6563,328.6875 88.2188,328.9844 L88.2188,331.7031 Q87.5938,331.125 87,330.8594 Q86.4063,330.5781 85.7813,330.5781 Q84.4375,330.5781 83.75,331.6563 Q83.0625,332.7188 83.0625,334.8125 Q83.0625,336.9063 83.75,337.9844 Q84.4375,339.0469 85.7813,339.0469 Q86.4063,339.0469 87,338.7813 Q87.5938,338.5 88.2188,337.9219 L88.2188,340.6406 Z " fill="#000000"/><text fill="#000000" font-family="sans-serif" font-size="14" lengthAdjust="spacing" textLength="62" x="105.75" y="339.8467">Endpoint</text><line style="stroke:#181818;stroke-width:0.5;" x1="8" x2="233" y1="351" y2="351"/><text fill="#000000" font-family="sans-serif" font-size="14" lengthAdjust="spacing" textLength="112" x="13" y="367.9951">status (1..1, MS)</text><text fill="#000000" font-family="sans-serif" font-size="14" lengthAdjust="spacing" textLength="181" x="13" y="384.292">connectionType (1..1, MS)</text><text fill="#000000" font-family="sans-serif" font-size="14" lengthAdjust="spacing" textLength="108" x="13" y="400.5889">name (1..1, MS)</text><text fill="#000000" font-family="sans-serif" font-size="14" lengthAdjust="spacing" textLength="215" x="13" y="416.8857">managingOrganization (0.., MS)</text><text fill="#000000" font-family="sans-serif" font-size="14" lengthAdjust="spacing" textLength="147" x="13" y="433.1826">payloadType (1.., MS)</text><text fill="#000000" font-family="sans-serif" font-size="14" lengthAdjust="spacing" textLength="125" x="13" y="449.4795">address (1..1, MS)</text><line style="stroke:#181818;stroke-width:0.5;" x1="8" x2="233" y1="456.7813" y2="456.7813"/></g><!--MD5=[4f1f3706c1a355a8488e154afcaed5df]
class Location--><g id="elem_Location"><rect codeLine="23" fill="#F1F1F1" height="145.7813" id="Location" rx="2.5" ry="2.5" style="stroke:#181818;stroke-width:0.5;" width="215" x="269" y="319"/><ellipse cx="343.25" cy="335" fill="#C2C2C2" rx="11" ry="11" style="stroke:#181818;stroke-width:1.0;"/><path d="M346.2188,340.6406 Q345.6406,340.9375 345,341.0781 Q344.3594,341.2344 343.6563,341.2344 Q341.1563,341.2344 339.8281,339.5938 Q338.5156,337.9375 338.5156,334.8125 Q338.5156,331.6875 339.8281,330.0313 Q341.1563,328.375 343.6563,328.375 Q344.3594,328.375 345,328.5313 Q345.6563,328.6875 346.2188,328.9844 L346.2188,331.7031 Q345.5938,331.125 345,330.8594 Q344.4063,330.5781 343.7813,330.5781 Q342.4375,330.5781 341.75,331.6563 Q341.0625,332.7188 341.0625,334.8125 Q341.0625,336.9063 341.75,337.9844 Q342.4375,339.0469 343.7813,339.0469 Q344.4063,339.0469 345,338.7813 Q345.5938,338.5 346.2188,337.9219 L346.2188,340.6406 Z " fill="#000000"/><text fill="#000000" font-family="sans-serif" font-size="14" lengthAdjust="spacing" textLength="58" x="363.75" y="339.8467">Location</text><line style="stroke:#181818;stroke-width:0.5;" x1="270" x2="483" y1="351" y2="351"/><text fill="#000000" font-family="sans-serif" font-size="14" lengthAdjust="spacing" textLength="99" x="275" y="367.9951">name (..1, MS)</text><text fill="#000000" font-family="sans-serif" font-size="14" lengthAdjust="spacing" textLength="146" x="275" y="384.292">description (0..1, MS)</text><text fill="#000000" font-family="sans-serif" font-size="14" lengthAdjust="spacing" textLength="169" x="275" y="400.5889">address (0..1, MS, LDAP)</text><text fill="#000000" font-family="sans-serif" font-size="14" lengthAdjust="spacing" textLength="124" x="275" y="416.8857">position (0..1, MS)</text><text fill="#000000" font-family="sans-serif" font-size="14" lengthAdjust="spacing" textLength="183" x="275" y="433.1826">hoursOfOperation (0.., MS)</text><text fill="#000000" font-family="sans-serif" font-size="14" lengthAdjust="spacing" textLength="203" x="275" y="449.4795">availabilityExceptions (..1, MS)</text><line style="stroke:#181818;stroke-width:0.5;" x1="270" x2="483" y1="456.7813" y2="456.7813"/></g><!--MD5=[86c7c362de55a38b660185a1328fe18d]
class Organization--><g id="elem_Organization"><rect codeLine="31" fill="#F1F1F1" height="162.0781" id="Organization" rx="2.5" ry="2.5" style="stroke:#181818;stroke-width:0.5;" width="175" x="519" y="311"/><ellipse cx="559.2" cy="327" fill="#C2C2C2" rx="11" ry="11" style="stroke:#181818;stroke-width:1.0;"/><path d="M562.1688,332.6406 Q561.5906,332.9375 560.95,333.0781 Q560.3094,333.2344 559.6063,333.2344 Q557.1063,333.2344 555.7781,331.5938 Q554.4656,329.9375 554.4656,326.8125 Q554.4656,323.6875 555.7781,322.0313 Q557.1063,320.375 559.6063,320.375 Q560.3094,320.375 560.95,320.5313 Q561.6063,320.6875 562.1688,320.9844 L562.1688,323.7031 Q561.5438,323.125 560.95,322.8594 Q560.3563,322.5781 559.7313,322.5781 Q558.3875,322.5781 557.7,323.6563 Q557.0125,324.7188 557.0125,326.8125 Q557.0125,328.9063 557.7,329.9844 Q558.3875,331.0469 559.7313,331.0469 Q560.3563,331.0469 560.95,330.7813 Q561.5438,330.5 562.1688,329.9219 L562.1688,332.6406 Z " fill="#000000"/><text fill="#000000" font-family="sans-serif" font-size="14" lengthAdjust="spacing" textLength="87" x="578.8" y="331.8467">Organization</text><line style="stroke:#181818;stroke-width:0.5;" x1="520" x2="693" y1="343" y2="343"/><text fill="#000000" font-family="sans-serif" font-size="14" lengthAdjust="spacing" textLength="163" x="525" y="359.9951">identifier (0.., MS, LDAP)</text><text fill="#000000" font-family="sans-serif" font-size="14" lengthAdjust="spacing" textLength="153" x="525" y="376.292">active (1..1, MS, LDAP)</text><text fill="#000000" font-family="sans-serif" font-size="14" lengthAdjust="spacing" textLength="143" x="525" y="392.5889">type (1..1, MS, LDAP)</text><text fill="#000000" font-family="sans-serif" font-size="14" lengthAdjust="spacing" textLength="152" x="525" y="408.8857">name (1..1, MS, LDAP)</text><text fill="#000000" font-family="sans-serif" font-size="14" lengthAdjust="spacing" textLength="134" x="525" y="425.1826">alias (0.., MS, LDAP)</text><text fill="#000000" font-family="sans-serif" font-size="14" lengthAdjust="spacing" textLength="116" x="525" y="441.4795">telecom (0.., MS)</text><text fill="#000000" font-family="sans-serif" font-size="14" lengthAdjust="spacing" textLength="112" x="525" y="457.7764">contact (0.., MS)</text><line style="stroke:#181818;stroke-width:0.5;" x1="520" x2="693" y1="465.0781" y2="465.0781"/></g><!--MD5=[6f2477b0057d6d863baac3cc01263906]
reverse link HealthcareService to Organization--><g id="link_HealthcareService_Organization"><path codeLine="41" d="M481.22,244.21 C500.47,266.76 520.11,289.77 537.95,310.68 " fill="none" id="HealthcareService-backto-Organization" style="stroke:#181818;stroke-width:1.0;"/><polygon fill="none" points="472.71,234.23,473.5589,241.391,480.4956,243.3615,479.6466,236.2006,472.71,234.23" style="stroke:#181818;stroke-width:1.0;"/><text fill="#000000" font-family="sans-serif" font-size="13" lengthAdjust="spacing" textLength="71" x="512.5" y="277.0669">providedBy</text></g><!--MD5=[3511516a64eecd1a7f097b12e1d19ff7]
reverse link HealthcareService to Endpoint--><g id="link_HealthcareService_Endpoint"><path codeLine="42" d="M260.15,243.98 C235.9,269.52 211.08,295.65 189.22,318.66 " fill="none" id="HealthcareService-backto-Endpoint" style="stroke:#181818;stroke-width:1.0;"/><polygon fill="none" points="269.42,234.23,262.3875,235.825,261.155,242.93,268.1875,241.335,269.42,234.23" style="stroke:#181818;stroke-width:1.0;"/><text fill="#000000" font-family="sans-serif" font-size="13" lengthAdjust="spacing" textLength="56" x="242.5" y="277.0669">endpoint</text></g><!--MD5=[eb80e139a64af3c5d009312d469c3596]
reverse link HealthcareService to Location--><g id="link_HealthcareService_Location"><path codeLine="43" d="M376.5,247.36 C376.5,271.81 376.5,296.66 376.5,318.66 " fill="none" id="HealthcareService-backto-Location" style="stroke:#181818;stroke-width:1.0;"/><polygon fill="none" points="376.5,234.23,372.5,240.23,376.5,246.23,380.5,240.23,376.5,234.23" style="stroke:#181818;stroke-width:1.0;"/><text fill="#000000" font-family="sans-serif" font-size="13" lengthAdjust="spacing" textLength="50" x="377.5" y="277.0669">location</text></g><!--MD5=[0c2c73c4ab9e1ee134dd94c61639f2be]
@startuml ClassDiagram.HealthcareService
skinparam monochrome true
class HealthcareService {
  {field} providedBy (1..1, MS, LDAP)
  {field} speciality (0.., MS, LDAP)
  {field} location (0.., MS, LDAP)
  {field} name (..1, MS)
  {field} telecom (0.., MS)
  {field} serviceProvisionCode (0.., MS)
  {field} communication (0.., MS)
  {field} appointmentRequired (..1, MS)
  {field} availableTime (0.., MS)
  {field} availabilityExceptions (0.., MS)
  {field} endpoint (0.., MS)
}
class Endpoint {
  {field} status (1..1, MS)
  {field} connectionType (1..1, MS)
  {field} name (1..1, MS)
  {field} managingOrganization (0.., MS)
  {field} payloadType (1.., MS)
  {field} address (1..1, MS)
}
class Location {
  {field} name (..1, MS)
  {field} description (0..1, MS)
  {field} address (0..1, MS, LDAP)
  {field} position (0..1, MS)
  {field} hoursOfOperation (0.., MS)
  {field} availabilityExceptions (..1, MS)
}
class Organization {
  {field} identifier (0.., MS, LDAP)
  {field} active (1..1, MS, LDAP)
  {field} type (1..1, MS, LDAP)
  {field} name (1..1, MS, LDAP)
  {field} alias (0.., MS, LDAP)
  {field} telecom (0.., MS)
  {field} contact (0.., MS)
}

HealthcareService o- - Organization: providedBy
HealthcareService o- - Endpoint: endpoint
HealthcareService o- - Location: location

@enduml

PlantUML version 1.2022.13(Sat Nov 19 13:22:17 UTC 2022)
(GPL source distribution)
Java Runtime: OpenJDK Runtime Environment
JVM: OpenJDK 64-Bit Server VM
Default Encoding: UTF-8
Language: en
Country: null
--></g></svg>