<?xml version="1.0" encoding="UTF-8" standalone="no"?><svg xmlns="http://www.w3.org/2000/svg" xmlns:xlink="http://www.w3.org/1999/xlink" contentScriptType="application/ecmascript" contentStyleType="text/css" height="424px" preserveAspectRatio="none" style="width:616px;height:424px;background:#FFFFFF;" version="1.1" viewBox="0 0 616 424" width="616px" zoomAndPan="magnify"><defs><filter height="300%" id="fe6kc5k6h272j" width="300%" x="-1" y="-1"><feGaussianBlur result="blurOut" stdDeviation="2.0"/><feColorMatrix in="blurOut" result="blurOut2" type="matrix" values="0 0 0 0 0 0 0 0 0 0 0 0 0 0 0 0 0 0 .4 0"/><feOffset dx="4.0" dy="4.0" in="blurOut2" result="blurOut3"/><feBlend in="SourceGraphic" in2="blurOut3" mode="normal"/></filter></defs><g><!--MD5=[e7f1f8ff98ca4645da414d6b6c370369]
class HealthcareService--><rect codeLine="2" fill="#F8F8F8" filter="url(#fe6kc5k6h272j)" height="188.8516" id="HealthcareService" style="stroke:#383838;stroke-width:1.5;" width="186" x="232.5" y="7"/><ellipse cx="265.5" cy="23" fill="#C2C2C2" rx="11" ry="11" style="stroke:#383838;stroke-width:1.0;"/><path d="M268.4688,28.6406 Q267.8906,28.9375 267.25,29.0781 Q266.6094,29.2344 265.9063,29.2344 Q263.4063,29.2344 262.0781,27.5938 Q260.7656,25.9375 260.7656,22.8125 Q260.7656,19.6875 262.0781,18.0313 Q263.4063,16.375 265.9063,16.375 Q266.6094,16.375 267.25,16.5313 Q267.9063,16.6875 268.4688,16.9844 L268.4688,19.7031 Q267.8438,19.125 267.25,18.8594 Q266.6563,18.5781 266.0313,18.5781 Q264.6875,18.5781 264,19.6563 Q263.3125,20.7188 263.3125,22.8125 Q263.3125,24.9063 264,25.9844 Q264.6875,27.0469 266.0313,27.0469 Q266.6563,27.0469 267.25,26.7813 Q267.8438,26.5 268.4688,25.9219 L268.4688,28.6406 Z " fill="#000000"/><text fill="#000000" font-family="sans-serif" font-size="12" lengthAdjust="spacing" textLength="114" x="283.5" y="27.1543">HealthcareService</text><line style="stroke:#383838;stroke-width:1.5;" x1="233.5" x2="417.5" y1="39" y2="39"/><text fill="#000000" font-family="sans-serif" font-size="11" lengthAdjust="spacing" textLength="158" x="238.5" y="53.2104">providedBy (1..1, MS, LDAP)</text><text fill="#000000" font-family="sans-serif" font-size="11" lengthAdjust="spacing" textLength="141" x="238.5" y="66.0151">speciality (0.., MS, LDAP)</text><text fill="#000000" font-family="sans-serif" font-size="11" lengthAdjust="spacing" textLength="132" x="238.5" y="78.8198">location (0.., MS, LDAP)</text><text fill="#000000" font-family="sans-serif" font-size="11" lengthAdjust="spacing" textLength="84" x="238.5" y="91.6245">name (..1, MS)</text><text fill="#000000" font-family="sans-serif" font-size="11" lengthAdjust="spacing" textLength="97" x="238.5" y="104.4292">telecom (0.., MS)</text><text fill="#000000" font-family="sans-serif" font-size="11" lengthAdjust="spacing" textLength="174" x="238.5" y="117.2339">serviceProvisionCode (0.., MS)</text><text fill="#000000" font-family="sans-serif" font-size="11" lengthAdjust="spacing" textLength="138" x="238.5" y="130.0386">communication (0.., MS)</text><text fill="#000000" font-family="sans-serif" font-size="11" lengthAdjust="spacing" textLength="173" x="238.5" y="142.8433">appointmentRequired (..1, MS)</text><text fill="#000000" font-family="sans-serif" font-size="11" lengthAdjust="spacing" textLength="130" x="238.5" y="155.6479">availableTime (0.., MS)</text><text fill="#000000" font-family="sans-serif" font-size="11" lengthAdjust="spacing" textLength="172" x="238.5" y="168.4526">availabilityExceptions (0.., MS)</text><text fill="#000000" font-family="sans-serif" font-size="11" lengthAdjust="spacing" textLength="101" x="238.5" y="181.2573">endpoint (0.., MS)</text><line style="stroke:#383838;stroke-width:1.5;" x1="233.5" x2="417.5" y1="187.8516" y2="187.8516"/><!--MD5=[4fd3bb6c1d79f4919f90c95b62a35422]
class Endpoint--><rect codeLine="15" fill="#F8F8F8" filter="url(#fe6kc5k6h272j)" height="124.8281" id="Endpoint" style="stroke:#383838;stroke-width:1.5;" width="191" x="7" y="279.5"/><ellipse cx="70.25" cy="295.5" fill="#C2C2C2" rx="11" ry="11" style="stroke:#383838;stroke-width:1.0;"/><path d="M73.2188,301.1406 Q72.6406,301.4375 72,301.5781 Q71.3594,301.7344 70.6563,301.7344 Q68.1563,301.7344 66.8281,300.0938 Q65.5156,298.4375 65.5156,295.3125 Q65.5156,292.1875 66.8281,290.5313 Q68.1563,288.875 70.6563,288.875 Q71.3594,288.875 72,289.0313 Q72.6563,289.1875 73.2188,289.4844 L73.2188,292.2031 Q72.5938,291.625 72,291.3594 Q71.4063,291.0781 70.7813,291.0781 Q69.4375,291.0781 68.75,292.1563 Q68.0625,293.2188 68.0625,295.3125 Q68.0625,297.4063 68.75,298.4844 Q69.4375,299.5469 70.7813,299.5469 Q71.4063,299.5469 72,299.2813 Q72.5938,299 73.2188,298.4219 L73.2188,301.1406 Z " fill="#000000"/><text fill="#000000" font-family="sans-serif" font-size="12" lengthAdjust="spacing" textLength="56" x="90.75" y="299.6543">Endpoint</text><line style="stroke:#383838;stroke-width:1.5;" x1="8" x2="197" y1="311.5" y2="311.5"/><text fill="#000000" font-family="sans-serif" font-size="11" lengthAdjust="spacing" textLength="95" x="13" y="325.7104">status (1..1, MS)</text><text fill="#000000" font-family="sans-serif" font-size="11" lengthAdjust="spacing" textLength="147" x="13" y="338.5151">connectionType (1..1, MS)</text><text fill="#000000" font-family="sans-serif" font-size="11" lengthAdjust="spacing" textLength="91" x="13" y="351.3198">name (1..1, MS)</text><text fill="#000000" font-family="sans-serif" font-size="11" lengthAdjust="spacing" textLength="179" x="13" y="364.1245">managingOrganization (0.., MS)</text><text fill="#000000" font-family="sans-serif" font-size="11" lengthAdjust="spacing" textLength="123" x="13" y="376.9292">payloadType (1.., MS)</text><text fill="#000000" font-family="sans-serif" font-size="11" lengthAdjust="spacing" textLength="106" x="13" y="389.7339">address (1..1, MS)</text><line style="stroke:#383838;stroke-width:1.5;" x1="8" x2="197" y1="396.3281" y2="396.3281"/><!--MD5=[4f1f3706c1a355a8488e154afcaed5df]
class Location--><rect codeLine="23" fill="#F8F8F8" filter="url(#fe6kc5k6h272j)" height="124.8281" id="Location" style="stroke:#383838;stroke-width:1.5;" width="184" x="233.5" y="279.5"/><ellipse cx="294.75" cy="295.5" fill="#C2C2C2" rx="11" ry="11" style="stroke:#383838;stroke-width:1.0;"/><path d="M297.7188,301.1406 Q297.1406,301.4375 296.5,301.5781 Q295.8594,301.7344 295.1563,301.7344 Q292.6563,301.7344 291.3281,300.0938 Q290.0156,298.4375 290.0156,295.3125 Q290.0156,292.1875 291.3281,290.5313 Q292.6563,288.875 295.1563,288.875 Q295.8594,288.875 296.5,289.0313 Q297.1563,289.1875 297.7188,289.4844 L297.7188,292.2031 Q297.0938,291.625 296.5,291.3594 Q295.9063,291.0781 295.2813,291.0781 Q293.9375,291.0781 293.25,292.1563 Q292.5625,293.2188 292.5625,295.3125 Q292.5625,297.4063 293.25,298.4844 Q293.9375,299.5469 295.2813,299.5469 Q295.9063,299.5469 296.5,299.2813 Q297.0938,299 297.7188,298.4219 L297.7188,301.1406 Z " fill="#000000"/><text fill="#000000" font-family="sans-serif" font-size="12" lengthAdjust="spacing" textLength="53" x="315.25" y="299.6543">Location</text><line style="stroke:#383838;stroke-width:1.5;" x1="234.5" x2="416.5" y1="311.5" y2="311.5"/><text fill="#000000" font-family="sans-serif" font-size="11" lengthAdjust="spacing" textLength="84" x="239.5" y="325.7104">name (..1, MS)</text><text fill="#000000" font-family="sans-serif" font-size="11" lengthAdjust="spacing" textLength="122" x="239.5" y="338.5151">description (0..1, MS)</text><text fill="#000000" font-family="sans-serif" font-size="11" lengthAdjust="spacing" textLength="142" x="239.5" y="351.3198">address (0..1, MS, LDAP)</text><text fill="#000000" font-family="sans-serif" font-size="11" lengthAdjust="spacing" textLength="104" x="239.5" y="364.1245">position (0..1, MS)</text><text fill="#000000" font-family="sans-serif" font-size="11" lengthAdjust="spacing" textLength="154" x="239.5" y="376.9292">hoursOfOperation (0.., MS)</text><text fill="#000000" font-family="sans-serif" font-size="11" lengthAdjust="spacing" textLength="172" x="239.5" y="389.7339">availabilityExceptions (..1, MS)</text><line style="stroke:#383838;stroke-width:1.5;" x1="234.5" x2="416.5" y1="396.3281" y2="396.3281"/><!--MD5=[86c7c362de55a38b660185a1328fe18d]
class Organization--><rect codeLine="31" fill="#F8F8F8" filter="url(#fe6kc5k6h272j)" height="137.6328" id="Organization" style="stroke:#383838;stroke-width:1.5;" width="150" x="452.5" y="273"/><ellipse cx="485.5" cy="289" fill="#C2C2C2" rx="11" ry="11" style="stroke:#383838;stroke-width:1.0;"/><path d="M488.4688,294.6406 Q487.8906,294.9375 487.25,295.0781 Q486.6094,295.2344 485.9063,295.2344 Q483.4063,295.2344 482.0781,293.5938 Q480.7656,291.9375 480.7656,288.8125 Q480.7656,285.6875 482.0781,284.0313 Q483.4063,282.375 485.9063,282.375 Q486.6094,282.375 487.25,282.5313 Q487.9063,282.6875 488.4688,282.9844 L488.4688,285.7031 Q487.8438,285.125 487.25,284.8594 Q486.6563,284.5781 486.0313,284.5781 Q484.6875,284.5781 484,285.6563 Q483.3125,286.7188 483.3125,288.8125 Q483.3125,290.9063 484,291.9844 Q484.6875,293.0469 486.0313,293.0469 Q486.6563,293.0469 487.25,292.7813 Q487.8438,292.5 488.4688,291.9219 L488.4688,294.6406 Z " fill="#000000"/><text fill="#000000" font-family="sans-serif" font-size="12" lengthAdjust="spacing" textLength="78" x="503.5" y="293.1543">Organization</text><line style="stroke:#383838;stroke-width:1.5;" x1="453.5" x2="601.5" y1="305" y2="305"/><text fill="#000000" font-family="sans-serif" font-size="11" lengthAdjust="spacing" textLength="138" x="458.5" y="319.2104">identifier (0.., MS, LDAP)</text><text fill="#000000" font-family="sans-serif" font-size="11" lengthAdjust="spacing" textLength="128" x="458.5" y="332.0151">active (1..1, MS, LDAP)</text><text fill="#000000" font-family="sans-serif" font-size="11" lengthAdjust="spacing" textLength="119" x="458.5" y="344.8198">type (1..1, MS, LDAP)</text><text fill="#000000" font-family="sans-serif" font-size="11" lengthAdjust="spacing" textLength="127" x="458.5" y="357.6245">name (1..1, MS, LDAP)</text><text fill="#000000" font-family="sans-serif" font-size="11" lengthAdjust="spacing" textLength="79" x="458.5" y="370.4292">alias (0.., MS)</text><text fill="#000000" font-family="sans-serif" font-size="11" lengthAdjust="spacing" textLength="97" x="458.5" y="383.2339">telecom (0.., MS)</text><text fill="#000000" font-family="sans-serif" font-size="11" lengthAdjust="spacing" textLength="93" x="458.5" y="396.0386">contact (0.., MS)</text><line style="stroke:#383838;stroke-width:1.5;" x1="453.5" x2="601.5" y1="402.6328" y2="402.6328"/><!--MD5=[6f2477b0057d6d863baac3cc01263906]
reverse link HealthcareService to Organization--><path codeLine="41" d="M413.19,206.04 C432.32,228.62 452.09,251.97 469.7,272.76 " fill="none" id="HealthcareService-backto-Organization" style="stroke:#383838;stroke-width:1.0;"/><polygon fill="#FFFFFF" points="404.76,196.08,405.5867,203.2436,412.5172,205.2356,411.6905,198.0721,404.76,196.08" style="stroke:#383838;stroke-width:1.0;"/><text fill="#000000" font-family="sans-serif" font-size="13" lengthAdjust="spacing" textLength="71" x="439.5" y="239.0669">providedBy</text><!--MD5=[3511516a64eecd1a7f097b12e1d19ff7]
reverse link HealthcareService to Endpoint--><path codeLine="42" d="M229.07,205.63 C205.61,230.72 181.25,256.78 160.24,279.25 " fill="none" id="HealthcareService-backto-Endpoint" style="stroke:#383838;stroke-width:1.0;"/><polygon fill="#FFFFFF" points="238,196.08,230.9814,197.7352,229.8098,204.8505,236.8284,203.1953,238,196.08" style="stroke:#383838;stroke-width:1.0;"/><text fill="#000000" font-family="sans-serif" font-size="13" lengthAdjust="spacing" textLength="56" x="208.5" y="239.0669">endpoint</text><!--MD5=[eb80e139a64af3c5d009312d469c3596]
reverse link HealthcareService to Location--><path codeLine="43" d="M325.5,209.29 C325.5,233.24 325.5,257.86 325.5,279.25 " fill="none" id="HealthcareService-backto-Location" style="stroke:#383838;stroke-width:1.0;"/><polygon fill="#FFFFFF" points="325.5,196.08,321.5,202.08,325.5,208.08,329.5,202.08,325.5,196.08" style="stroke:#383838;stroke-width:1.0;"/><text fill="#000000" font-family="sans-serif" font-size="13" lengthAdjust="spacing" textLength="50" x="326.5" y="239.0669">location</text><!--MD5=[097f620f889619c4dd7f20d5710553ed]
@startuml ClassDiagram.HealthcareService
skinparam monochrome true
class HealthcareService {
  {field} providedBy (1..1, MS, LDAP)
  {field} speciality (0.., MS, LDAP)
  {field} location (0.., MS, LDAP)
  {field} name (..1, MS)
  {field} telecom (0.., MS)
  {field} serviceProvisionCode (0.., MS)
  {field} communication (0.., MS)
  {field} appointmentRequired (..1, MS)
  {field} availableTime (0.., MS)
  {field} availabilityExceptions (0.., MS)
  {field} endpoint (0.., MS)
}
class Endpoint {
  {field} status (1..1, MS)
  {field} connectionType (1..1, MS)
  {field} name (1..1, MS)
  {field} managingOrganization (0.., MS)
  {field} payloadType (1.., MS)
  {field} address (1..1, MS)
}
class Location {
  {field} name (..1, MS)
  {field} description (0..1, MS)
  {field} address (0..1, MS, LDAP)
  {field} position (0..1, MS)
  {field} hoursOfOperation (0.., MS)
  {field} availabilityExceptions (..1, MS)
}
class Organization {
  {field} identifier (0.., MS, LDAP)
  {field} active (1..1, MS, LDAP)
  {field} type (1..1, MS, LDAP)
  {field} name (1..1, MS, LDAP)
  {field} alias (0.., MS)
  {field} telecom (0.., MS)
  {field} contact (0.., MS)
}

HealthcareService o- - Organization: providedBy
HealthcareService o- - Endpoint: endpoint
HealthcareService o- - Location: location

@enduml

PlantUML version 1.2021.16(Wed Dec 08 17:25:22 UTC 2021)
(GPL source distribution)
Java Runtime: OpenJDK Runtime Environment
JVM: OpenJDK 64-Bit Server VM
Default Encoding: UTF-8
Language: en
Country: null
--></g></svg>