<?xml version="1.0" encoding="us-ascii" standalone="no"?><svg xmlns="http://www.w3.org/2000/svg" xmlns:xlink="http://www.w3.org/1999/xlink" contentStyleType="text/css" height="619px" preserveAspectRatio="none" style="width:898px;height:619px;background:#FFFFFF;" version="1.1" viewBox="0 0 898 619" width="898px" zoomAndPan="magnify"><defs/><g><!--class Practitioner--><g id="elem_Practitioner"><rect codeLine="2" fill="#F1F1F1" height="129.4844" id="Practitioner" rx="2.5" ry="2.5" style="stroke:#181818;stroke-width:0.5;" width="228" x="427.5" y="7"/><ellipse cx="498.25" cy="23" fill="#ADD1B2" rx="11" ry="11" style="stroke:#181818;stroke-width:1.0;"/><path d="M501.2188,28.6406 Q500.6406,28.9375 500,29.0781 Q499.3594,29.2344 498.6563,29.2344 Q496.1563,29.2344 494.8281,27.5938 Q493.5156,25.9375 493.5156,22.8125 Q493.5156,19.6875 494.8281,18.0313 Q496.1563,16.375 498.6563,16.375 Q499.3594,16.375 500,16.5313 Q500.6563,16.6875 501.2188,16.9844 L501.2188,19.7031 Q500.5938,19.125 500,18.8594 Q499.4063,18.5781 498.7813,18.5781 Q497.4375,18.5781 496.75,19.6563 Q496.0625,20.7188 496.0625,22.8125 Q496.0625,24.9063 496.75,25.9844 Q497.4375,27.0469 498.7813,27.0469 Q499.4063,27.0469 500,26.7813 Q500.5938,26.5 501.2188,25.9219 L501.2188,28.6406 Z " fill="#000000"/><text fill="#000000" font-family="sans-serif" font-size="14" lengthAdjust="spacing" textLength="78" x="518.75" y="27.8467">Practitioner</text><line style="stroke:#181818;stroke-width:0.5;" x1="428.5" x2="654.5" y1="39" y2="39"/><text fill="#000000" font-family="sans-serif" font-size="14" lengthAdjust="spacing" textLength="170" x="433.5" y="55.9951">identifier (1..*, MS, LDAP)</text><text fill="#000000" font-family="sans-serif" font-size="14" lengthAdjust="spacing" textLength="153" x="433.5" y="72.292">active (1..1, MS, LDAP)</text><text fill="#000000" font-family="sans-serif" font-size="14" lengthAdjust="spacing" textLength="150" x="433.5" y="88.5889">name (1..*, MS, LDAP)</text><text fill="#000000" font-family="sans-serif" font-size="14" lengthAdjust="spacing" textLength="192" x="433.5" y="104.8857">qualification (0..*, MS, LDAP)</text><text fill="#000000" font-family="sans-serif" font-size="14" lengthAdjust="spacing" textLength="216" x="433.5" y="121.1826">meta.tag.origin (1..1, MS, LDAP)</text><line style="stroke:#181818;stroke-width:0.5;" x1="428.5" x2="654.5" y1="128.4844" y2="128.4844"/></g><!--class PractitionerRole--><g id="elem_PractitionerRole"><rect codeLine="10" fill="#F1F1F1" height="178.375" id="PractitionerRole" rx="2.5" ry="2.5" style="stroke:#181818;stroke-width:0.5;" width="597" x="37" y="196"/><ellipse cx="276.75" cy="212" fill="#ADD1B2" rx="11" ry="11" style="stroke:#181818;stroke-width:1.0;"/><path d="M279.7188,217.6406 Q279.1406,217.9375 278.5,218.0781 Q277.8594,218.2344 277.1563,218.2344 Q274.6563,218.2344 273.3281,216.5938 Q272.0156,214.9375 272.0156,211.8125 Q272.0156,208.6875 273.3281,207.0313 Q274.6563,205.375 277.1563,205.375 Q277.8594,205.375 278.5,205.5313 Q279.1563,205.6875 279.7188,205.9844 L279.7188,208.7031 Q279.0938,208.125 278.5,207.8594 Q277.9063,207.5781 277.2813,207.5781 Q275.9375,207.5781 275.25,208.6563 Q274.5625,209.7188 274.5625,211.8125 Q274.5625,213.9063 275.25,214.9844 Q275.9375,216.0469 277.2813,216.0469 Q277.9063,216.0469 278.5,215.7813 Q279.0938,215.5 279.7188,214.9219 L279.7188,217.6406 Z " fill="#000000"/><text fill="#000000" font-family="sans-serif" font-size="14" lengthAdjust="spacing" textLength="109" x="297.25" y="216.8467">PractitionerRole</text><line style="stroke:#181818;stroke-width:0.5;" x1="38" x2="633" y1="228" y2="228"/><text fill="#000000" font-family="sans-serif" font-size="14" lengthAdjust="spacing" textLength="126" x="43" y="244.9951">identifier (1..*, MS)</text><text fill="#000000" font-family="sans-serif" font-size="14" lengthAdjust="spacing" textLength="191" x="43" y="261.292">practitioner (1..1, MS, LDAP)</text><text fill="#000000" font-family="sans-serif" font-size="14" lengthAdjust="spacing" textLength="165" x="43" y="277.5889">location (0..*, MS, LDAP)</text><text fill="#000000" font-family="sans-serif" font-size="14" lengthAdjust="spacing" textLength="129" x="43" y="293.8857">endpoint (0..*, MS)</text><text fill="#000000" font-family="sans-serif" font-size="14" lengthAdjust="spacing" textLength="216" x="43" y="310.1826">meta.tag.origin (1..1, MS, LDAP)</text><text fill="#000000" font-family="sans-serif" font-size="14" lengthAdjust="spacing" textLength="219" x="43" y="326.4795">meta.security.ownerId (1..*, MS)</text><text fill="#000000" font-family="sans-serif" font-size="14" lengthAdjust="spacing" textLength="252" x="43" y="342.7764">meta.security.holder (1..*, MS, LDAP)</text><text fill="#000000" font-family="sans-serif" font-size="14" lengthAdjust="spacing" textLength="585" x="43" y="359.0732">healthcareService (0..*, MS, OWNER) (geplant f&#252;r Verkn&#252;pfung mit HealthcareService)</text><line style="stroke:#181818;stroke-width:0.5;" x1="38" x2="633" y1="366.375" y2="366.375"/></g><!--class Endpoint--><g id="elem_Endpoint"><rect codeLine="21" fill="#F1F1F1" height="178.375" id="Endpoint" rx="2.5" ry="2.5" style="stroke:#181818;stroke-width:0.5;" width="231" x="7" y="434"/><ellipse cx="87.25" cy="450" fill="#ADD1B2" rx="11" ry="11" style="stroke:#181818;stroke-width:1.0;"/><path d="M90.2188,455.6406 Q89.6406,455.9375 89,456.0781 Q88.3594,456.2344 87.6563,456.2344 Q85.1563,456.2344 83.8281,454.5938 Q82.5156,452.9375 82.5156,449.8125 Q82.5156,446.6875 83.8281,445.0313 Q85.1563,443.375 87.6563,443.375 Q88.3594,443.375 89,443.5313 Q89.6563,443.6875 90.2188,443.9844 L90.2188,446.7031 Q89.5938,446.125 89,445.8594 Q88.4063,445.5781 87.7813,445.5781 Q86.4375,445.5781 85.75,446.6563 Q85.0625,447.7188 85.0625,449.8125 Q85.0625,451.9063 85.75,452.9844 Q86.4375,454.0469 87.7813,454.0469 Q88.4063,454.0469 89,453.7813 Q89.5938,453.5 90.2188,452.9219 L90.2188,455.6406 Z " fill="#000000"/><text fill="#000000" font-family="sans-serif" font-size="14" lengthAdjust="spacing" textLength="62" x="107.75" y="454.8467">Endpoint</text><line style="stroke:#181818;stroke-width:0.5;" x1="8" x2="237" y1="466" y2="466"/><text fill="#000000" font-family="sans-serif" font-size="14" lengthAdjust="spacing" textLength="126" x="13" y="482.9951">identifier (1..*, MS)</text><text fill="#000000" font-family="sans-serif" font-size="14" lengthAdjust="spacing" textLength="179" x="13" y="499.292">connectionType (0..*, MS)</text><text fill="#000000" font-family="sans-serif" font-size="14" lengthAdjust="spacing" textLength="112" x="13" y="515.5889">status (1..1, MS)</text><text fill="#000000" font-family="sans-serif" font-size="14" lengthAdjust="spacing" textLength="108" x="13" y="531.8857">name (0..1, MS)</text><text fill="#000000" font-family="sans-serif" font-size="14" lengthAdjust="spacing" textLength="125" x="13" y="548.1826">address (1..1, MS)</text><text fill="#000000" font-family="sans-serif" font-size="14" lengthAdjust="spacing" textLength="154" x="13" y="564.4795">payloadType (1..*, MS)</text><text fill="#000000" font-family="sans-serif" font-size="14" lengthAdjust="spacing" textLength="172" x="13" y="580.7764">meta.tag.origin (1..1, MS)</text><text fill="#000000" font-family="sans-serif" font-size="14" lengthAdjust="spacing" textLength="219" x="13" y="597.0732">meta.security.ownerId (1..*, MS)</text><line style="stroke:#181818;stroke-width:0.5;" x1="8" x2="237" y1="604.375" y2="604.375"/></g><!--class Location--><g id="elem_Location"><rect codeLine="31" fill="#F1F1F1" height="96.8906" id="Location" rx="2.5" ry="2.5" style="stroke:#181818;stroke-width:0.5;" width="228" x="273.5" y="474.5"/><ellipse cx="354.25" cy="490.5" fill="#ADD1B2" rx="11" ry="11" style="stroke:#181818;stroke-width:1.0;"/><path d="M357.2188,496.1406 Q356.6406,496.4375 356,496.5781 Q355.3594,496.7344 354.6563,496.7344 Q352.1563,496.7344 350.8281,495.0938 Q349.5156,493.4375 349.5156,490.3125 Q349.5156,487.1875 350.8281,485.5313 Q352.1563,483.875 354.6563,483.875 Q355.3594,483.875 356,484.0313 Q356.6563,484.1875 357.2188,484.4844 L357.2188,487.2031 Q356.5938,486.625 356,486.3594 Q355.4063,486.0781 354.7813,486.0781 Q353.4375,486.0781 352.75,487.1563 Q352.0625,488.2188 352.0625,490.3125 Q352.0625,492.4063 352.75,493.4844 Q353.4375,494.5469 354.7813,494.5469 Q355.4063,494.5469 356,494.2813 Q356.5938,494 357.2188,493.4219 L357.2188,496.1406 Z " fill="#000000"/><text fill="#000000" font-family="sans-serif" font-size="14" lengthAdjust="spacing" textLength="58" x="374.75" y="495.3467">Location</text><line style="stroke:#181818;stroke-width:0.5;" x1="274.5" x2="500.5" y1="506.5" y2="506.5"/><text fill="#000000" font-family="sans-serif" font-size="14" lengthAdjust="spacing" textLength="170" x="279.5" y="523.4951">identifier (1..*, MS, LDAP)</text><text fill="#000000" font-family="sans-serif" font-size="14" lengthAdjust="spacing" textLength="169" x="279.5" y="539.792">address (0..1, MS, LDAP)</text><text fill="#000000" font-family="sans-serif" font-size="14" lengthAdjust="spacing" textLength="216" x="279.5" y="556.0889">meta.tag.origin (1..1, MS, LDAP)</text><line style="stroke:#181818;stroke-width:0.5;" x1="274.5" x2="500.5" y1="563.3906" y2="563.3906"/></g><!--class PractitionerRole_n--><g id="elem_PractitionerRole_n"><rect fill="#F1F1F1" height="48" id="PractitionerRole_n" rx="2.5" ry="2.5" style="stroke:#181818;stroke-width:0.5;" width="157" x="669" y="261"/><ellipse cx="684" cy="277" fill="#ADD1B2" rx="11" ry="11" style="stroke:#181818;stroke-width:1.0;"/><path d="M686.9688,282.6406 Q686.3906,282.9375 685.75,283.0781 Q685.1094,283.2344 684.4063,283.2344 Q681.9063,283.2344 680.5781,281.5938 Q679.2656,279.9375 679.2656,276.8125 Q679.2656,273.6875 680.5781,272.0313 Q681.9063,270.375 684.4063,270.375 Q685.1094,270.375 685.75,270.5313 Q686.4063,270.6875 686.9688,270.9844 L686.9688,273.7031 Q686.3438,273.125 685.75,272.8594 Q685.1563,272.5781 684.5313,272.5781 Q683.1875,272.5781 682.5,273.6563 Q681.8125,274.7188 681.8125,276.8125 Q681.8125,278.9063 682.5,279.9844 Q683.1875,281.0469 684.5313,281.0469 Q685.1563,281.0469 685.75,280.7813 Q686.3438,280.5 686.9688,279.9219 L686.9688,282.6406 Z " fill="#000000"/><text fill="#000000" font-family="sans-serif" font-size="14" lengthAdjust="spacing" textLength="125" x="698" y="281.8467">PractitionerRole_n</text><line style="stroke:#181818;stroke-width:0.5;" x1="670" x2="825" y1="293" y2="293"/><line style="stroke:#181818;stroke-width:0.5;" x1="670" x2="825" y1="301" y2="301"/></g><!--class Endpoint_n--><g id="elem_Endpoint_n"><rect fill="#F1F1F1" height="48" id="Endpoint_n" rx="2.5" ry="2.5" style="stroke:#181818;stroke-width:0.5;" width="110" x="640.5" y="499"/><ellipse cx="655.5" cy="515" fill="#ADD1B2" rx="11" ry="11" style="stroke:#181818;stroke-width:1.0;"/><path d="M658.4688,520.6406 Q657.8906,520.9375 657.25,521.0781 Q656.6094,521.2344 655.9063,521.2344 Q653.4063,521.2344 652.0781,519.5938 Q650.7656,517.9375 650.7656,514.8125 Q650.7656,511.6875 652.0781,510.0313 Q653.4063,508.375 655.9063,508.375 Q656.6094,508.375 657.25,508.5313 Q657.9063,508.6875 658.4688,508.9844 L658.4688,511.7031 Q657.8438,511.125 657.25,510.8594 Q656.6563,510.5781 656.0313,510.5781 Q654.6875,510.5781 654,511.6563 Q653.3125,512.7188 653.3125,514.8125 Q653.3125,516.9063 654,517.9844 Q654.6875,519.0469 656.0313,519.0469 Q656.6563,519.0469 657.25,518.7813 Q657.8438,518.5 658.4688,517.9219 L658.4688,520.6406 Z " fill="#000000"/><text fill="#000000" font-family="sans-serif" font-size="14" lengthAdjust="spacing" textLength="78" x="669.5" y="519.8467">Endpoint_n</text><line style="stroke:#181818;stroke-width:0.5;" x1="641.5" x2="749.5" y1="531" y2="531"/><line style="stroke:#181818;stroke-width:0.5;" x1="641.5" x2="749.5" y1="539" y2="539"/></g><!--class Location_n--><g id="elem_Location_n"><rect fill="#F1F1F1" height="48" id="Location_n" rx="2.5" ry="2.5" style="stroke:#181818;stroke-width:0.5;" width="106" x="785.5" y="499"/><ellipse cx="800.5" cy="515" fill="#ADD1B2" rx="11" ry="11" style="stroke:#181818;stroke-width:1.0;"/><path d="M803.4688,520.6406 Q802.8906,520.9375 802.25,521.0781 Q801.6094,521.2344 800.9063,521.2344 Q798.4063,521.2344 797.0781,519.5938 Q795.7656,517.9375 795.7656,514.8125 Q795.7656,511.6875 797.0781,510.0313 Q798.4063,508.375 800.9063,508.375 Q801.6094,508.375 802.25,508.5313 Q802.9063,508.6875 803.4688,508.9844 L803.4688,511.7031 Q802.8438,511.125 802.25,510.8594 Q801.6563,510.5781 801.0313,510.5781 Q799.6875,510.5781 799,511.6563 Q798.3125,512.7188 798.3125,514.8125 Q798.3125,516.9063 799,517.9844 Q799.6875,519.0469 801.0313,519.0469 Q801.6563,519.0469 802.25,518.7813 Q802.8438,518.5 803.4688,517.9219 L803.4688,520.6406 Z " fill="#000000"/><text fill="#000000" font-family="sans-serif" font-size="14" lengthAdjust="spacing" textLength="74" x="814.5" y="519.8467">Location_n</text><line style="stroke:#181818;stroke-width:0.5;" x1="786.5" x2="890.5" y1="531" y2="531"/><line style="stroke:#181818;stroke-width:0.5;" x1="786.5" x2="890.5" y1="539" y2="539"/></g><!--reverse link Practitioner to PractitionerRole--><g id="link_Practitioner_PractitionerRole"><path codeLine="37" d="M475.224,140.5385 C456.984,159.2685 440.88,175.81 421.43,195.78 " fill="none" id="Practitioner-backto-PractitionerRole" style="stroke:#181818;stroke-width:1.0;"/><polygon fill="#181818" points="479.41,136.24,470.2653,139.897,475.9216,139.8221,475.9966,145.4784,479.41,136.24" style="stroke:#181818;stroke-width:1.0;"/></g><!--link PractitionerRole to Endpoint--><g id="link_PractitionerRole_Endpoint"><path codeLine="38" d="M255.88,374.21 C238.28,393.72 223.6401,409.9359 206.0401,429.4359 " fill="none" id="PractitionerRole-to-Endpoint" style="stroke:#181818;stroke-width:1.0;"/><polygon fill="#181818" points="202.02,433.89,211.0195,429.8889,205.3701,430.1783,205.0808,424.5288,202.02,433.89" style="stroke:#181818;stroke-width:1.0;"/></g><!--link PractitionerRole to Location--><g id="link_PractitionerRole_Location"><path codeLine="39" d="M354.94,374.21 C362.41,408.12 369.3577,439.6808 375.6877,468.3808 " fill="none" id="PractitionerRole-to-Location" style="stroke:#181818;stroke-width:1.0;"/><polygon fill="#181818" points="376.98,474.24,378.9477,464.5897,375.9031,469.3573,371.1355,466.3128,376.98,474.24" style="stroke:#181818;stroke-width:1.0;"/></g><!--reverse link Practitioner to PractitionerRole_n--><g id="link_Practitioner_PractitionerRole_n"><path codeLine="41" d="M607.7761,140.5384 C648.7661,182.6284 695.89,231.01 724.85,260.75 " fill="none" id="Practitioner-backto-PractitionerRole_n" style="stroke:#181818;stroke-width:1.0;"/><polygon fill="#181818" points="603.59,136.24,607.0035,145.4784,607.0784,139.822,612.7348,139.8969,603.59,136.24" style="stroke:#181818;stroke-width:1.0;"/></g><!--link PractitionerRole_n to Endpoint_n--><g id="link_PractitionerRole_n_Endpoint_n"><path codeLine="42" d="M742.42,309.06 C732.48,354.18 711.8514,447.8006 701.8914,492.9906 " fill="none" id="PractitionerRole_n-to-Endpoint_n" style="stroke:#181818;stroke-width:1.0;"/><polygon fill="#181818" points="700.6,498.85,706.4434,490.9219,701.6762,493.9672,698.6309,489.2,700.6,498.85" style="stroke:#181818;stroke-width:1.0;"/></g><!--link PractitionerRole_n to Location_n--><g id="link_PractitionerRole_n_Location_n"><path codeLine="43" d="M756.39,309.06 C773.79,354.18 809.9919,448.0616 827.4119,493.2516 " fill="none" id="PractitionerRole_n-to-Location_n" style="stroke:#181818;stroke-width:1.0;"/><polygon fill="#181818" points="829.57,498.85,830.0651,489.0136,827.7716,494.1846,822.6005,491.8911,829.57,498.85" style="stroke:#181818;stroke-width:1.0;"/></g></g></svg>