<?xml version="1.0" encoding="us-ascii" standalone="no"?><svg xmlns="http://www.w3.org/2000/svg" xmlns:xlink="http://www.w3.org/1999/xlink" contentStyleType="text/css" height="834px" preserveAspectRatio="none" style="width:2807px;height:834px;background:#FFFFFF;" version="1.1" viewBox="0 0 2807 834" width="2807px" zoomAndPan="magnify"><defs/><g><!--cluster LDAP VZD--><g id="cluster_LDAP VZD"><rect fill="#90EE90" height="172" rx="2.5" ry="2.5" style="stroke:#181818;stroke-width:1.0;" width="901" x="7" y="7"/><path d="M96,7 L96,16.2969 L86,26.2969 L7,26.2969 " fill="none" style="stroke:#181818;stroke-width:1.0;"/><text fill="#000000" font-family="sans-serif" font-size="14" font-weight="bold" lengthAdjust="spacing" textLength="79" x="10" y="20.9951">LDAP VZD</text></g><!--cluster FHIR VZD--><g id="cluster_FHIR VZD"><rect fill="#FFFFE0" height="616" rx="2.5" ry="2.5" style="stroke:#181818;stroke-width:1.0;" width="1718" x="331" y="212"/><path d="M413,212 L413,221.2969 L403,231.2969 L331,231.2969 " fill="none" style="stroke:#181818;stroke-width:1.0;"/><text fill="#000000" font-family="sans-serif" font-size="14" font-weight="bold" lengthAdjust="spacing" textLength="72" x="334" y="225.9951">FHIR VZD</text></g><!--cluster ApoVZD--><g id="cluster_ApoVZD"><rect fill="#ADD8E6" height="172" rx="2.5" ry="2.5" style="stroke:#181818;stroke-width:1.0;" width="581" x="1888" y="7"/><path d="M1962,7 L1962,16.2969 L1952,26.2969 L1888,26.2969 " fill="none" style="stroke:#181818;stroke-width:1.0;"/><text fill="#000000" font-family="sans-serif" font-size="14" font-weight="bold" lengthAdjust="spacing" textLength="64" x="1891" y="20.9951">ApoVZD</text></g><!--class specialization--><g id="elem_specialization"><rect codeLine="3" fill="#F1F1F1" height="113.1875" id="specialization" rx="2.5" ry="2.5" style="stroke:#181818;stroke-width:0.5;" width="304" x="233" y="46"/><ellipse cx="334.25" cy="62" fill="#ADD1B2" rx="11" ry="11" style="stroke:#181818;stroke-width:1.0;"/><path d="M337.2188,67.6406 Q336.6406,67.9375 336,68.0781 Q335.3594,68.2344 334.6563,68.2344 Q332.1563,68.2344 330.8281,66.5938 Q329.5156,64.9375 329.5156,61.8125 Q329.5156,58.6875 330.8281,57.0313 Q332.1563,55.375 334.6563,55.375 Q335.3594,55.375 336,55.5313 Q336.6563,55.6875 337.2188,55.9844 L337.2188,58.7031 Q336.5938,58.125 336,57.8594 Q335.4063,57.5781 334.7813,57.5781 Q333.4375,57.5781 332.75,58.6563 Q332.0625,59.7188 332.0625,61.8125 Q332.0625,63.9063 332.75,64.9844 Q333.4375,66.0469 334.7813,66.0469 Q335.4063,66.0469 336,65.7813 Q336.5938,65.5 337.2188,64.9219 L337.2188,67.6406 Z " fill="#000000"/><text fill="#000000" font-family="sans-serif" font-size="14" lengthAdjust="spacing" textLength="93" x="354.75" y="66.8467">specialization</text><line style="stroke:#181818;stroke-width:0.5;" x1="234" x2="536" y1="78" y2="78"/><ellipse cx="244" cy="91.6484" fill="none" rx="3" ry="3" style="stroke:#038048;stroke-width:1.0;"/><text fill="#000000" font-family="sans-serif" font-size="14" lengthAdjust="spacing" textLength="141" x="253" y="94.9951">10_Officin_Apotheke</text><ellipse cx="244" cy="107.9453" fill="none" rx="3" ry="3" style="stroke:#038048;stroke-width:1.0;"/><text fill="#000000" font-family="sans-serif" font-size="14" lengthAdjust="spacing" textLength="278" x="253" y="111.292">20_Krankenhausversorgende_Apotheke</text><ellipse cx="244" cy="124.2422" fill="none" rx="3" ry="3" style="stroke:#038048;stroke-width:1.0;"/><text fill="#000000" font-family="sans-serif" font-size="14" lengthAdjust="spacing" textLength="222" x="253" y="127.5889">30_Heimversorgende_Apotheke</text><ellipse cx="244" cy="140.5391" fill="none" rx="3" ry="3" style="stroke:#038048;stroke-width:1.0;"/><text fill="#000000" font-family="sans-serif" font-size="14" lengthAdjust="spacing" textLength="148" x="253" y="143.8857">40_Versandapotheke</text><line style="stroke:#181818;stroke-width:0.5;" x1="234" x2="536" y1="151.1875" y2="151.1875"/></g><g id="elem_GMN4"><path d="M22.5,90 L22.5,115.1328 A0,0 0 0 0 22.5,115.1328 L189.5,115.1328 A0,0 0 0 0 189.5,115.1328 L189.5,108 L224.75,102.5 L189.5,100 L189.5,100 L179.5,90 L22.5,90 A0,0 0 0 0 22.5,90 " fill="#FEFFDD" style="stroke:#181818;stroke-width:0.5;"/><path d="M179.5,90 L179.5,100 L189.5,100 L179.5,90 " fill="#FEFFDD" style="stroke:#181818;stroke-width:0.5;"/><text fill="#000000" font-family="sans-serif" font-size="13" lengthAdjust="spacing" textLength="146" x="28.5" y="107.0669">PharmacyTypeLDAPCS</text></g><!--class professionOID--><g id="elem_professionOID"><rect codeLine="14" fill="#F1F1F1" height="96.8906" id="professionOID" rx="2.5" ry="2.5" style="stroke:#181818;stroke-width:0.5;" width="311" x="580.5" y="54"/><ellipse cx="682.75" cy="70" fill="#ADD1B2" rx="11" ry="11" style="stroke:#181818;stroke-width:1.0;"/><path d="M685.7188,75.6406 Q685.1406,75.9375 684.5,76.0781 Q683.8594,76.2344 683.1563,76.2344 Q680.6563,76.2344 679.3281,74.5938 Q678.0156,72.9375 678.0156,69.8125 Q678.0156,66.6875 679.3281,65.0313 Q680.6563,63.375 683.1563,63.375 Q683.8594,63.375 684.5,63.5313 Q685.1563,63.6875 685.7188,63.9844 L685.7188,66.7031 Q685.0938,66.125 684.5,65.8594 Q683.9063,65.5781 683.2813,65.5781 Q681.9375,65.5781 681.25,66.6563 Q680.5625,67.7188 680.5625,69.8125 Q680.5625,71.9063 681.25,72.9844 Q681.9375,74.0469 683.2813,74.0469 Q683.9063,74.0469 684.5,73.7813 Q685.0938,73.5 685.7188,72.9219 L685.7188,75.6406 Z " fill="#000000"/><text fill="#000000" font-family="sans-serif" font-size="14" lengthAdjust="spacing" textLength="98" x="703.25" y="74.8467">professionOID</text><line style="stroke:#181818;stroke-width:0.5;" x1="581.5" x2="890.5" y1="86" y2="86"/><ellipse cx="591.5" cy="99.6484" fill="none" rx="3" ry="3" style="stroke:#038048;stroke-width:1.0;"/><text fill="#000000" font-family="sans-serif" font-size="14" lengthAdjust="spacing" textLength="123" x="600.5" y="102.9951">1.2.276.0.76.4.54</text><text fill="#000000" font-family="sans-serif" font-size="14" lengthAdjust="spacing" textLength="145" x="728.5" y="102.9951">&#214;ffentliche Apotheke</text><ellipse cx="591.5" cy="115.9453" fill="none" rx="3" ry="3" style="stroke:#038048;stroke-width:1.0;"/><text fill="#000000" font-family="sans-serif" font-size="14" lengthAdjust="spacing" textLength="123" x="600.5" y="119.292">1.2.276.0.76.4.55</text><text fill="#000000" font-family="sans-serif" font-size="14" lengthAdjust="spacing" textLength="157" x="728.5" y="119.292">Krankenhausapotheke</text><ellipse cx="591.5" cy="132.2422" fill="none" rx="3" ry="3" style="stroke:#038048;stroke-width:1.0;"/><text fill="#000000" font-family="sans-serif" font-size="14" lengthAdjust="spacing" textLength="123" x="600.5" y="135.5889">1.2.276.0.76.4.56</text><text fill="#000000" font-family="sans-serif" font-size="14" lengthAdjust="spacing" textLength="154" x="728.5" y="135.5889">Bundeswehrapotheke</text><line style="stroke:#181818;stroke-width:0.5;" x1="581.5" x2="890.5" y1="142.8906" y2="142.8906"/></g><!--class HealthcareService_specialty--><g id="elem_HealthcareService_specialty"><rect codeLine="23" fill="#F1F1F1" height="129.4844" id="HealthcareService_specialty" rx="2.5" ry="2.5" style="stroke:#181818;stroke-width:0.5;" width="223" x="1802.5" y="514"/><ellipse cx="1817.5" cy="530" fill="#ADD1B2" rx="11" ry="11" style="stroke:#181818;stroke-width:1.0;"/><path d="M1820.4688,535.6406 Q1819.8906,535.9375 1819.25,536.0781 Q1818.6094,536.2344 1817.9063,536.2344 Q1815.4063,536.2344 1814.0781,534.5938 Q1812.7656,532.9375 1812.7656,529.8125 Q1812.7656,526.6875 1814.0781,525.0313 Q1815.4063,523.375 1817.9063,523.375 Q1818.6094,523.375 1819.25,523.5313 Q1819.9063,523.6875 1820.4688,523.9844 L1820.4688,526.7031 Q1819.8438,526.125 1819.25,525.8594 Q1818.6563,525.5781 1818.0313,525.5781 Q1816.6875,525.5781 1816,526.6563 Q1815.3125,527.7188 1815.3125,529.8125 Q1815.3125,531.9063 1816,532.9844 Q1816.6875,534.0469 1818.0313,534.0469 Q1818.6563,534.0469 1819.25,533.7813 Q1819.8438,533.5 1820.4688,532.9219 L1820.4688,535.6406 Z " fill="#000000"/><text fill="#000000" font-family="sans-serif" font-size="14" lengthAdjust="spacing" textLength="191" x="1831.5" y="534.8467">HealthcareService_specialty</text><line style="stroke:#181818;stroke-width:0.5;" x1="1803.5" x2="2024.5" y1="546" y2="546"/><ellipse cx="1813.5" cy="559.6484" fill="none" rx="3" ry="3" style="stroke:#038048;stroke-width:1.0;"/><text fill="#000000" font-family="sans-serif" font-size="14" lengthAdjust="spacing" textLength="111" x="1822.5" y="562.9951">10_Handverkauf</text><ellipse cx="1813.5" cy="575.9453" fill="none" rx="3" ry="3" style="stroke:#038048;stroke-width:1.0;"/><text fill="#000000" font-family="sans-serif" font-size="14" lengthAdjust="spacing" textLength="173" x="1822.5" y="579.292">20_Nacht_und_Notdienst</text><ellipse cx="1813.5" cy="592.2422" fill="none" rx="3" ry="3" style="stroke:#038048;stroke-width:1.0;"/><text fill="#000000" font-family="sans-serif" font-size="14" lengthAdjust="spacing" textLength="110" x="1822.5" y="595.5889">30_Botendienst</text><ellipse cx="1813.5" cy="608.5391" fill="none" rx="3" ry="3" style="stroke:#038048;stroke-width:1.0;"/><text fill="#000000" font-family="sans-serif" font-size="14" lengthAdjust="spacing" textLength="82" x="1822.5" y="611.8857">40_Versand</text><ellipse cx="1813.5" cy="624.8359" fill="none" rx="3" ry="3" style="stroke:#038048;stroke-width:1.0;"/><text fill="#000000" font-family="sans-serif" font-size="14" lengthAdjust="spacing" textLength="137" x="1822.5" y="628.1826">50_Sterilherstellung</text><line style="stroke:#181818;stroke-width:0.5;" x1="1803.5" x2="2024.5" y1="635.4844" y2="635.4844"/></g><g id="elem_GMN10"><path d="M1799,327.5 L1799,352.6328 A0,0 0 0 0 1799,352.6328 L1911.9,352.6328 L1914.57,509.83 L1919.9,352.6328 L2033,352.6328 A0,0 0 0 0 2033,352.6328 L2033,337.5 L2023,327.5 L1799,327.5 A0,0 0 0 0 1799,327.5 " fill="#FEFFDD" style="stroke:#181818;stroke-width:0.5;"/><path d="M2023,327.5 L2023,337.5 L2033,337.5 L2023,327.5 " fill="#FEFFDD" style="stroke:#181818;stroke-width:0.5;"/><text fill="#000000" font-family="sans-serif" font-size="13" lengthAdjust="spacing" textLength="213" x="1805" y="344.5669">PharmacyHealthcareSpecialityCS</text></g><!--class HealthcareService_type--><g id="elem_HealthcareService_type"><rect codeLine="35" fill="#F1F1F1" height="145.7813" id="HealthcareService_type" rx="2.5" ry="2.5" style="stroke:#181818;stroke-width:0.5;" width="533" x="347.5" y="267"/><ellipse cx="529.25" cy="283" fill="#ADD1B2" rx="11" ry="11" style="stroke:#181818;stroke-width:1.0;"/><path d="M532.2188,288.6406 Q531.6406,288.9375 531,289.0781 Q530.3594,289.2344 529.6563,289.2344 Q527.1563,289.2344 525.8281,287.5938 Q524.5156,285.9375 524.5156,282.8125 Q524.5156,279.6875 525.8281,278.0313 Q527.1563,276.375 529.6563,276.375 Q530.3594,276.375 531,276.5313 Q531.6563,276.6875 532.2188,276.9844 L532.2188,279.7031 Q531.5938,279.125 531,278.8594 Q530.4063,278.5781 529.7813,278.5781 Q528.4375,278.5781 527.75,279.6563 Q527.0625,280.7188 527.0625,282.8125 Q527.0625,284.9063 527.75,285.9844 Q528.4375,287.0469 529.7813,287.0469 Q530.4063,287.0469 531,286.7813 Q531.5938,286.5 532.2188,285.9219 L532.2188,288.6406 Z " fill="#000000"/><text fill="#000000" font-family="sans-serif" font-size="14" lengthAdjust="spacing" textLength="161" x="549.75" y="287.8467">HealthcareService_type</text><line style="stroke:#181818;stroke-width:0.5;" x1="348.5" x2="879.5" y1="299" y2="299"/><ellipse cx="358.5" cy="312.6484" fill="none" rx="3" ry="3" style="stroke:#038048;stroke-width:1.0;"/><text fill="#000000" font-family="sans-serif" font-size="14" lengthAdjust="spacing" textLength="353" x="367.5" y="315.9951">offizin-apotheke                                Offizin-Apotheke</text><ellipse cx="358.5" cy="328.9453" fill="none" rx="3" ry="3" style="stroke:#038048;stroke-width:1.0;"/><text fill="#000000" font-family="sans-serif" font-size="14" lengthAdjust="spacing" textLength="507" x="367.5" y="332.292">krankenhausversorgende-apotheke  Krankenhausversorgende Apotheke</text><ellipse cx="358.5" cy="345.2422" fill="none" rx="3" ry="3" style="stroke:#038048;stroke-width:1.0;"/><text fill="#000000" font-family="sans-serif" font-size="14" lengthAdjust="spacing" textLength="403" x="367.5" y="348.5889">bundeswehrapotheke                        Bundeswehrapotheke</text><ellipse cx="358.5" cy="361.5391" fill="none" rx="3" ry="3" style="stroke:#038048;stroke-width:1.0;"/><text fill="#000000" font-family="sans-serif" font-size="14" lengthAdjust="spacing" textLength="443" x="367.5" y="364.8857">heimversorgende-apotheke              Heimversorgende Apotheke</text><ellipse cx="358.5" cy="377.8359" fill="none" rx="3" ry="3" style="stroke:#038048;stroke-width:1.0;"/><text fill="#000000" font-family="sans-serif" font-size="14" lengthAdjust="spacing" textLength="364" x="367.5" y="381.1826">versandapotheke                              Versandapotheke</text><ellipse cx="358.5" cy="394.1328" fill="none" rx="3" ry="3" style="stroke:#038048;stroke-width:1.0;"/><text fill="#000000" font-family="sans-serif" font-size="14" lengthAdjust="spacing" textLength="347" x="367.5" y="397.4795">sterilherstellung                               Sterilherstellung</text><line style="stroke:#181818;stroke-width:0.5;" x1="348.5" x2="879.5" y1="404.7813" y2="404.7813"/></g><!--class Organization_type--><g id="elem_Organization_type"><rect codeLine="44" fill="#F1F1F1" height="96.8906" id="Organization_type" rx="2.5" ry="2.5" style="stroke:#181818;stroke-width:0.5;" width="311" x="915.5" y="291.5"/><ellipse cx="1004.75" cy="307.5" fill="#ADD1B2" rx="11" ry="11" style="stroke:#181818;stroke-width:1.0;"/><path d="M1007.7188,313.1406 Q1007.1406,313.4375 1006.5,313.5781 Q1005.8594,313.7344 1005.1563,313.7344 Q1002.6563,313.7344 1001.3281,312.0938 Q1000.0156,310.4375 1000.0156,307.3125 Q1000.0156,304.1875 1001.3281,302.5313 Q1002.6563,300.875 1005.1563,300.875 Q1005.8594,300.875 1006.5,301.0313 Q1007.1563,301.1875 1007.7188,301.4844 L1007.7188,304.2031 Q1007.0938,303.625 1006.5,303.3594 Q1005.9063,303.0781 1005.2813,303.0781 Q1003.9375,303.0781 1003.25,304.1563 Q1002.5625,305.2188 1002.5625,307.3125 Q1002.5625,309.4063 1003.25,310.4844 Q1003.9375,311.5469 1005.2813,311.5469 Q1005.9063,311.5469 1006.5,311.2813 Q1007.0938,311 1007.7188,310.4219 L1007.7188,313.1406 Z " fill="#000000"/><text fill="#000000" font-family="sans-serif" font-size="14" lengthAdjust="spacing" textLength="124" x="1025.25" y="312.3467">Organization_type</text><line style="stroke:#181818;stroke-width:0.5;" x1="916.5" x2="1225.5" y1="323.5" y2="323.5"/><ellipse cx="926.5" cy="337.1484" fill="none" rx="3" ry="3" style="stroke:#038048;stroke-width:1.0;"/><text fill="#000000" font-family="sans-serif" font-size="14" lengthAdjust="spacing" textLength="123" x="935.5" y="340.4951">1.2.276.0.76.4.54</text><text fill="#000000" font-family="sans-serif" font-size="14" lengthAdjust="spacing" textLength="145" x="1063.5" y="340.4951">&#214;ffentliche Apotheke</text><ellipse cx="926.5" cy="353.4453" fill="none" rx="3" ry="3" style="stroke:#038048;stroke-width:1.0;"/><text fill="#000000" font-family="sans-serif" font-size="14" lengthAdjust="spacing" textLength="123" x="935.5" y="356.792">1.2.276.0.76.4.55</text><text fill="#000000" font-family="sans-serif" font-size="14" lengthAdjust="spacing" textLength="157" x="1063.5" y="356.792">Krankenhausapotheke</text><ellipse cx="926.5" cy="369.7422" fill="none" rx="3" ry="3" style="stroke:#038048;stroke-width:1.0;"/><text fill="#000000" font-family="sans-serif" font-size="14" lengthAdjust="spacing" textLength="123" x="935.5" y="373.0889">1.2.276.0.76.4.56</text><text fill="#000000" font-family="sans-serif" font-size="14" lengthAdjust="spacing" textLength="154" x="1063.5" y="373.0889">Bundeswehrapotheke</text><line style="stroke:#181818;stroke-width:0.5;" x1="916.5" x2="1225.5" y1="380.3906" y2="380.3906"/></g><!--class HealthcareService_characteristic--><g id="elem_HealthcareService_characteristic"><rect codeLine="50" fill="#F1F1F1" height="178.375" id="HealthcareService_characteristic" rx="2.5" ry="2.5" style="stroke:#181818;stroke-width:0.5;" width="486" x="1270" y="251"/><ellipse cx="1397.25" cy="267" fill="#ADD1B2" rx="11" ry="11" style="stroke:#181818;stroke-width:1.0;"/><path d="M1400.2188,272.6406 Q1399.6406,272.9375 1399,273.0781 Q1398.3594,273.2344 1397.6563,273.2344 Q1395.1563,273.2344 1393.8281,271.5938 Q1392.5156,269.9375 1392.5156,266.8125 Q1392.5156,263.6875 1393.8281,262.0313 Q1395.1563,260.375 1397.6563,260.375 Q1398.3594,260.375 1399,260.5313 Q1399.6563,260.6875 1400.2188,260.9844 L1400.2188,263.7031 Q1399.5938,263.125 1399,262.8594 Q1398.4063,262.5781 1397.7813,262.5781 Q1396.4375,262.5781 1395.75,263.6563 Q1395.0625,264.7188 1395.0625,266.8125 Q1395.0625,268.9063 1395.75,269.9844 Q1396.4375,271.0469 1397.7813,271.0469 Q1398.4063,271.0469 1399,270.7813 Q1399.5938,270.5 1400.2188,269.9219 L1400.2188,272.6406 Z " fill="#000000"/><text fill="#000000" font-family="sans-serif" font-size="14" lengthAdjust="spacing" textLength="223" x="1417.75" y="271.8467">HealthcareService_characteristic</text><line style="stroke:#181818;stroke-width:0.5;" x1="1271" x2="1755" y1="283" y2="283"/><ellipse cx="1281" cy="296.6484" fill="none" rx="3" ry="3" style="stroke:#038048;stroke-width:1.0;"/><text fill="#000000" font-family="sans-serif" font-size="14" lengthAdjust="spacing" textLength="368" x="1290" y="299.9951">erx-token-receiver                        eRX_Token_Receiver</text><ellipse cx="1281" cy="312.9453" fill="none" rx="3" ry="3" style="stroke:#038048;stroke-width:1.0;"/><text fill="#000000" font-family="sans-serif" font-size="14" lengthAdjust="spacing" textLength="460" x="1290" y="316.292">apotheke-verfuegbarkeitsanfrage Apotheke_Verf&#252;gbarkeitsanfrage</text><ellipse cx="1281" cy="329.2422" fill="none" rx="3" ry="3" style="stroke:#038048;stroke-width:1.0;"/><text fill="#000000" font-family="sans-serif" font-size="14" lengthAdjust="spacing" textLength="421" x="1290" y="332.5889">apotheken-ident-verfahren           Apotheken_Ident_Verfahren</text><ellipse cx="1281" cy="345.5391" fill="none" rx="3" ry="3" style="stroke:#038048;stroke-width:1.0;"/><text fill="#000000" font-family="sans-serif" font-size="14" lengthAdjust="spacing" textLength="332" x="1290" y="348.8857">terminbuchung                             Terminbuchung</text><rect fill="none" height="6" style="stroke:#C82930;stroke-width:1.0;" width="6" x="1278" y="358.8359"/><text fill="#000000" font-family="sans-serif" font-size="14" lengthAdjust="spacing" textLength="331" x="1290" y="365.1826">parkmoeglichkeit                          Parkm&#246;glichkeit</text><rect fill="none" height="6" style="stroke:#C82930;stroke-width:1.0;" width="6" x="1278" y="375.1328"/><text fill="#000000" font-family="sans-serif" font-size="14" lengthAdjust="spacing" textLength="346" x="1290" y="381.4795">oepnv                                           &#214;PNV_in_der_N&#228;he</text><rect fill="none" height="6" style="stroke:#C82930;stroke-width:1.0;" width="6" x="1278" y="391.4297"/><text fill="#000000" font-family="sans-serif" font-size="14" lengthAdjust="spacing" textLength="289" x="1290" y="397.7764">barrierefrei                                   Barrierefrei</text><rect fill="none" height="6" style="stroke:#C82930;stroke-width:1.0;" width="6" x="1278" y="407.7266"/><text fill="#000000" font-family="sans-serif" font-size="14" lengthAdjust="spacing" textLength="311" x="1290" y="414.0732">abholautomat                              Abholautomat</text><line style="stroke:#181818;stroke-width:0.5;" x1="1271" x2="1755" y1="421.375" y2="421.375"/></g><!--class Endpoint--><g id="elem_Endpoint"><rect codeLine="61" fill="#F1F1F1" height="96.8906" id="Endpoint" rx="2.5" ry="2.5" style="stroke:#181818;stroke-width:0.5;" width="138" x="1887" y="712"/><ellipse cx="1921.8" cy="728" fill="#ADD1B2" rx="11" ry="11" style="stroke:#181818;stroke-width:1.0;"/><path d="M1924.7688,733.6406 Q1924.1906,733.9375 1923.55,734.0781 Q1922.9094,734.2344 1922.2063,734.2344 Q1919.7063,734.2344 1918.3781,732.5938 Q1917.0656,730.9375 1917.0656,727.8125 Q1917.0656,724.6875 1918.3781,723.0313 Q1919.7063,721.375 1922.2063,721.375 Q1922.9094,721.375 1923.55,721.5313 Q1924.2063,721.6875 1924.7688,721.9844 L1924.7688,724.7031 Q1924.1438,724.125 1923.55,723.8594 Q1922.9563,723.5781 1922.3313,723.5781 Q1920.9875,723.5781 1920.3,724.6563 Q1919.6125,725.7188 1919.6125,727.8125 Q1919.6125,729.9063 1920.3,730.9844 Q1920.9875,732.0469 1922.3313,732.0469 Q1922.9563,732.0469 1923.55,731.7813 Q1924.1438,731.5 1924.7688,730.9219 L1924.7688,733.6406 Z " fill="#000000"/><text fill="#000000" font-family="sans-serif" font-size="14" lengthAdjust="spacing" textLength="62" x="1940.2" y="732.8467">Endpoint</text><line style="stroke:#181818;stroke-width:0.5;" x1="1888" x2="2024" y1="744" y2="744"/><ellipse cx="1898" cy="757.6484" fill="none" rx="3" ry="3" style="stroke:#038048;stroke-width:1.0;"/><text fill="#000000" font-family="sans-serif" font-size="14" lengthAdjust="spacing" textLength="112" x="1907" y="760.9951">connectionType</text><ellipse cx="1898" cy="773.9453" fill="none" rx="3" ry="3" style="stroke:#038048;stroke-width:1.0;"/><text fill="#000000" font-family="sans-serif" font-size="14" lengthAdjust="spacing" textLength="87" x="1907" y="777.292">payloadType</text><ellipse cx="1898" cy="790.2422" fill="none" rx="3" ry="3" style="stroke:#038048;stroke-width:1.0;"/><text fill="#000000" font-family="sans-serif" font-size="14" lengthAdjust="spacing" textLength="56" x="1907" y="793.5889">address</text><line style="stroke:#181818;stroke-width:0.5;" x1="1888" x2="2024" y1="800.8906" y2="800.8906"/></g><!--class ApoVZD_Mehrwertdaten--><g id="elem_ApoVZD_Mehrwertdaten"><rect codeLine="71" fill="#F1F1F1" height="113.1875" id="ApoVZD_Mehrwertdaten" rx="2.5" ry="2.5" style="stroke:#181818;stroke-width:0.5;" width="265" x="1912.5" y="46"/><ellipse cx="1956.3" cy="62" fill="#ADD1B2" rx="11" ry="11" style="stroke:#181818;stroke-width:1.0;"/><path d="M1959.2688,67.6406 Q1958.6906,67.9375 1958.05,68.0781 Q1957.4094,68.2344 1956.7063,68.2344 Q1954.2063,68.2344 1952.8781,66.5938 Q1951.5656,64.9375 1951.5656,61.8125 Q1951.5656,58.6875 1952.8781,57.0313 Q1954.2063,55.375 1956.7063,55.375 Q1957.4094,55.375 1958.05,55.5313 Q1958.7063,55.6875 1959.2688,55.9844 L1959.2688,58.7031 Q1958.6438,58.125 1958.05,57.8594 Q1957.4563,57.5781 1956.8313,57.5781 Q1955.4875,57.5781 1954.8,58.6563 Q1954.1125,59.7188 1954.1125,61.8125 Q1954.1125,63.9063 1954.8,64.9844 Q1955.4875,66.0469 1956.8313,66.0469 Q1957.4563,66.0469 1958.05,65.7813 Q1958.6438,65.5 1959.2688,64.9219 L1959.2688,67.6406 Z " fill="#000000"/><text fill="#000000" font-family="sans-serif" font-size="14" lengthAdjust="spacing" textLength="169" x="1976.7" y="66.8467">ApoVZD_Mehrwertdaten</text><line style="stroke:#181818;stroke-width:0.5;" x1="1913.5" x2="2176.5" y1="78" y2="78"/><ellipse cx="1923.5" cy="91.6484" fill="none" rx="3" ry="3" style="stroke:#038048;stroke-width:1.0;"/><text fill="#000000" font-family="sans-serif" font-size="14" lengthAdjust="spacing" textLength="124" x="1932.5" y="94.9951">Apotheke_PHARM</text><ellipse cx="1923.5" cy="107.9453" fill="none" rx="3" ry="3" style="stroke:#038048;stroke-width:1.0;"/><text fill="#000000" font-family="sans-serif" font-size="14" lengthAdjust="spacing" textLength="231" x="1932.5" y="111.292">Apotheke_mit_Offizin_OUTPHARM</text><ellipse cx="1923.5" cy="124.2422" fill="none" rx="3" ry="3" style="stroke:#038048;stroke-width:1.0;"/><text fill="#000000" font-family="sans-serif" font-size="14" lengthAdjust="spacing" textLength="170" x="1932.5" y="127.5889">Versandapotheke_MOBL</text><ellipse cx="1923.5" cy="140.5391" fill="none" rx="3" ry="3" style="stroke:#038048;stroke-width:1.0;"/><text fill="#000000" font-family="sans-serif" font-size="14" lengthAdjust="spacing" textLength="239" x="1932.5" y="143.8857">eRX_Token_Receiver_DELEGATOR</text><line style="stroke:#181818;stroke-width:0.5;" x1="1913.5" x2="2176.5" y1="151.1875" y2="151.1875"/></g><!--class ApoVZD_Location_telecom--><g id="elem_ApoVZD_Location_telecom"><rect codeLine="78" fill="#F1F1F1" height="96.8906" id="ApoVZD_Location_telecom" rx="2.5" ry="2.5" style="stroke:#181818;stroke-width:0.5;" width="217" x="2228.5" y="54.5"/><ellipse cx="2243.5" cy="70.5" fill="#ADD1B2" rx="11" ry="11" style="stroke:#181818;stroke-width:1.0;"/><path d="M2246.4688,76.1406 Q2245.8906,76.4375 2245.25,76.5781 Q2244.6094,76.7344 2243.9063,76.7344 Q2241.4063,76.7344 2240.0781,75.0938 Q2238.7656,73.4375 2238.7656,70.3125 Q2238.7656,67.1875 2240.0781,65.5313 Q2241.4063,63.875 2243.9063,63.875 Q2244.6094,63.875 2245.25,64.0313 Q2245.9063,64.1875 2246.4688,64.4844 L2246.4688,67.2031 Q2245.8438,66.625 2245.25,66.3594 Q2244.6563,66.0781 2244.0313,66.0781 Q2242.6875,66.0781 2242,67.1563 Q2241.3125,68.2188 2241.3125,70.3125 Q2241.3125,72.4063 2242,73.4844 Q2242.6875,74.5469 2244.0313,74.5469 Q2244.6563,74.5469 2245.25,74.2813 Q2245.8438,74 2246.4688,73.4219 L2246.4688,76.1406 Z " fill="#000000"/><text fill="#000000" font-family="sans-serif" font-size="14" lengthAdjust="spacing" textLength="185" x="2257.5" y="75.3467">ApoVZD_Location_telecom</text><line style="stroke:#181818;stroke-width:0.5;" x1="2229.5" x2="2444.5" y1="86.5" y2="86.5"/><ellipse cx="2239.5" cy="100.1484" fill="none" rx="3" ry="3" style="stroke:#038048;stroke-width:1.0;"/><text fill="#000000" font-family="sans-serif" font-size="14" lengthAdjust="spacing" textLength="108" x="2248.5" y="103.4951">onPremise_URL</text><ellipse cx="2239.5" cy="116.4453" fill="none" rx="3" ry="3" style="stroke:#038048;stroke-width:1.0;"/><text fill="#000000" font-family="sans-serif" font-size="14" lengthAdjust="spacing" textLength="86" x="2248.5" y="119.792">delivery_URL</text><ellipse cx="2239.5" cy="132.7422" fill="none" rx="3" ry="3" style="stroke:#038048;stroke-width:1.0;"/><text fill="#000000" font-family="sans-serif" font-size="14" lengthAdjust="spacing" textLength="101" x="2248.5" y="136.0889">shipment_URP</text><line style="stroke:#181818;stroke-width:0.5;" x1="2229.5" x2="2444.5" y1="143.3906" y2="143.3906"/></g><!--link specialization to HealthcareService_type--><g id="link_specialization_HealthcareService_type"><path codeLine="87" d="M443.08,163.23 C473.69,194.71 507.2874,229.2581 539.5374,262.4281 " fill="none" id="specialization-to-HealthcareService_type" style="stroke:#FF0000;stroke-width:4.0;"/><polygon fill="#FF0000" points="543.72,266.73,540.3141,257.4888,540.2345,263.1451,534.5782,263.0656,543.72,266.73" style="stroke:#FF0000;stroke-width:4.0;"/></g><!--link professionOID to Organization_type--><g id="link_professionOID_Organization_type"><path codeLine="88" d="M816.61,151.16 C842.95,167.34 872.07,185.92 898,204 C937.53,231.57 975.5657,261.0882 1008.6557,287.7182 " fill="none" id="professionOID-to-Organization_type" style="stroke:#FF0000;stroke-width:4.0;"/><polygon fill="#FF0000" points="1013.33,291.48,1008.8264,282.7212,1009.4347,288.3452,1003.8107,288.9536,1013.33,291.48" style="stroke:#FF0000;stroke-width:4.0;"/></g><!--link specialization to HealthcareService_specialty--><g id="link_specialization_HealthcareService_specialty"><path codeLine="89" d="M232,90.5 C213.08,90.5 189.26,405.76 268,480 C330.09,538.54 1710.67,558.5 1796,558.5 " fill="none" id="specialization-to-HealthcareService_specialty" style="stroke:#008000;stroke-width:1.0;"/><polygon fill="#008000" points="1802,558.5,1793,554.5,1797,558.5,1793,562.5,1802,558.5" style="stroke:#008000;stroke-width:1.0;"/></g><!--link specialization to HealthcareService_specialty--><g id="link_specialization_HealthcareService_specialty"><path codeLine="90" d="M232,138.5 C209.77,138.5 239.06,170 253,204 C293.73,303.35 246.63,365.33 330,433 C457.86,536.79 1631.31,606.5 1796,606.5 " fill="none" id="specialization-to-HealthcareService_specialty-1" style="stroke:#0000FF;stroke-width:1.0;"/><polygon fill="#0000FF" points="1802,606.5,1793,602.5,1797,606.5,1793,610.5,1802,606.5" style="stroke:#0000FF;stroke-width:1.0;"/></g><!--link ApoVZD_Mehrwertdaten to HealthcareService_specialty--><g id="link_ApoVZD_Mehrwertdaten_HealthcareService_specialty"><path codeLine="93" d="M2179,106.5 C2204.12,106.5 2180.79,138.04 2178,163 C2157.07,349.99 2221.15,558.5 2033,558.5 " fill="none" id="ApoVZD_Mehrwertdaten-to-HealthcareService_specialty" style="stroke:#008000;stroke-width:1.0;"/><polygon fill="#008000" points="2027,558.5,2036,562.5,2032,558.5,2036,554.5,2027,558.5" style="stroke:#008000;stroke-width:1.0;"/></g><!--link ApoVZD_Mehrwertdaten to HealthcareService_specialty--><g id="link_ApoVZD_Mehrwertdaten_HealthcareService_specialty"><path codeLine="94" d="M2179,122.5 C2214.1,122.5 2162.79,190.02 2157,204 C2085.03,377.67 2220.99,606.5 2033,606.5 " fill="none" id="ApoVZD_Mehrwertdaten-to-HealthcareService_specialty-1" style="stroke:#0000FF;stroke-width:1.0;"/><polygon fill="#0000FF" points="2027,606.5,2036,610.5,2032,606.5,2036,602.5,2027,606.5" style="stroke:#0000FF;stroke-width:1.0;"/></g><!--link ApoVZD_Mehrwertdaten to HealthcareService_characteristic--><g id="link_ApoVZD_Mehrwertdaten_HealthcareService_characteristic"><path codeLine="95" d="M1912,138.5 C1847.3,138.5 1822.99,153.94 1782,204 C1755.43,236.45 1804.94,295 1763,295 " fill="none" id="ApoVZD_Mehrwertdaten-to-HealthcareService_characteristic" style="stroke:#A0522D;stroke-width:1.0;"/><polygon fill="#A0522D" points="1757,295,1766,299,1762,295,1766,291,1757,295" style="stroke:#A0522D;stroke-width:1.0;"/></g><!--link ApoVZD_Location_telecom to Endpoint--><g id="link_ApoVZD_Location_telecom_Endpoint"><path codeLine="98" d="M2228,98.5 C2190.65,98.5 2202.2,396.35 2195,433 C2165.86,581.36 2049.52,788 2032,788 " fill="none" id="ApoVZD_Location_telecom-to-Endpoint" style="stroke:#000000;stroke-width:1.0;"/><polygon fill="#000000" points="2026,788,2035,792,2031,788,2035,784,2026,788" style="stroke:#000000;stroke-width:1.0;"/><text fill="#000000" font-family="sans-serif" font-size="13" lengthAdjust="spacing" textLength="25" x="2189" y="476.0669">URL</text></g><!--link ApoVZD_Location_telecom to Endpoint--><g id="link_ApoVZD_Location_telecom_Endpoint"><path codeLine="99" d="M2228,98.5 C2184.67,98.5 2228.37,152.67 2228,196 C2226.93,322.24 2243.65,355.46 2223,480 C2198.35,628.68 2182.71,756 2032,756 " fill="none" id="ApoVZD_Location_telecom-to-Endpoint-1" style="stroke:#000000;stroke-width:1.0;"/><polygon fill="#000000" points="2026,756,2035,760,2031,756,2035,752,2026,756" style="stroke:#000000;stroke-width:1.0;"/><text fill="#000000" font-family="sans-serif" font-size="13" lengthAdjust="spacing" textLength="97" x="2226" y="476.0669">eRP-onPremise</text></g><!--link ApoVZD_Location_telecom to Endpoint--><g id="link_ApoVZD_Location_telecom_Endpoint"><path codeLine="100" d="M2447,98.5 C2800,98.5 2385,772 2032,772 " fill="none" id="ApoVZD_Location_telecom-to-Endpoint-2" style="stroke:#000000;stroke-width:1.0;"/><polygon fill="#000000" points="2026,772,2035,776,2031,772,2035,768,2026,772" style="stroke:#000000;stroke-width:1.0;"/><text fill="#000000" font-family="sans-serif" font-size="13" lengthAdjust="spacing" textLength="90" x="2483" y="476.0669">not-applicable</text></g><!--link HealthcareService_type to Endpoint--></g></svg>