<svg xmlns="http://www.w3.org/2000/svg" xmlns:xlink="http://www.w3.org/1999/xlink" contentStyleType="text/css" data-diagram-type="CLASS" height="571px" preserveAspectRatio="none" style="width:962px;height:571px;background:#FFFFFF;" version="1.1" viewBox="0 0 962 571" width="962px" zoomAndPan="magnify"><defs/><g><!--class Practitioner--><g class="entity" data-entity="Practitioner" data-source-line="2" data-uid="ent0002" id="entity_Practitioner"><rect fill="#F1F1F1" height="129.4844" rx="2.5" ry="2.5" style="stroke:#181818;stroke-width:0.5;" width="237.4902" x="480.71" y="7"/><ellipse cx="554.6851" cy="23" fill="#ADD1B2" rx="11" ry="11" style="stroke:#181818;stroke-width:1;"/><path d="M557.6538,28.6406 Q557.0757,28.9375 556.4351,29.0781 Q555.7945,29.2344 555.0913,29.2344 Q552.5913,29.2344 551.2632,27.5938 Q549.9507,25.9375 549.9507,22.8125 Q549.9507,19.6875 551.2632,18.0313 Q552.5913,16.375 555.0913,16.375 Q555.7945,16.375 556.4351,16.5313 Q557.0913,16.6875 557.6538,16.9844 L557.6538,19.7031 Q557.0288,19.125 556.4351,18.8594 Q555.8413,18.5781 555.2163,18.5781 Q553.8726,18.5781 553.1851,19.6563 Q552.4976,20.7188 552.4976,22.8125 Q552.4976,24.9063 553.1851,25.9844 Q553.8726,27.0469 555.2163,27.0469 Q555.8413,27.0469 556.4351,26.7813 Q557.0288,26.5 557.6538,25.9219 L557.6538,28.6406 Z " fill="#000000"/><text fill="#000000" font-family="sans-serif" font-size="14" lengthAdjust="spacing" textLength="81.04" x="575.1851" y="27.8467">Practitioner</text><line style="stroke:#181818;stroke-width:0.5;" x1="481.71" x2="717.2002" y1="39" y2="39"/><text fill="#000000" font-family="sans-serif" font-size="14" lengthAdjust="spacing" textLength="178.377" x="486.71" y="55.9951">identifier (1..*, MS, LDAP)</text><text fill="#000000" font-family="sans-serif" font-size="14" lengthAdjust="spacing" textLength="160.0088" x="486.71" y="72.292">active (1..1, MS, LDAP)</text><text fill="#000000" font-family="sans-serif" font-size="14" lengthAdjust="spacing" textLength="157.1582" x="486.71" y="88.5889">name (1..1, MS, LDAP)</text><text fill="#000000" font-family="sans-serif" font-size="14" lengthAdjust="spacing" textLength="201.5781" x="486.71" y="104.8857">qualification (0..*, MS, LDAP)</text><text fill="#000000" font-family="sans-serif" font-size="14" lengthAdjust="spacing" textLength="225.4902" x="486.71" y="121.1826">meta.tag.origin (1..1, MS, LDAP)</text><line style="stroke:#181818;stroke-width:0.5;" x1="481.71" x2="717.2002" y1="128.4844" y2="128.4844"/></g><!--class PractitionerRole--><g class="entity" data-entity="PractitionerRole" data-source-line="10" data-uid="ent0003" id="entity_PractitionerRole"><rect fill="#F1F1F1" height="129.4844" rx="2.5" ry="2.5" style="stroke:#181818;stroke-width:0.5;" width="619.1338" x="77.89" y="196.48"/><ellipse cx="327.2889" cy="212.48" fill="#ADD1B2" rx="11" ry="11" style="stroke:#181818;stroke-width:1;"/><path d="M330.2577,218.1206 Q329.6796,218.4175 329.0389,218.5581 Q328.3983,218.7144 327.6952,218.7144 Q325.1952,218.7144 323.8671,217.0738 Q322.5546,215.4175 322.5546,212.2925 Q322.5546,209.1675 323.8671,207.5113 Q325.1952,205.855 327.6952,205.855 Q328.3983,205.855 329.0389,206.0113 Q329.6952,206.1675 330.2577,206.4644 L330.2577,209.1831 Q329.6327,208.605 329.0389,208.3394 Q328.4452,208.0581 327.8202,208.0581 Q326.4764,208.0581 325.7889,209.1363 Q325.1014,210.1988 325.1014,212.2925 Q325.1014,214.3863 325.7889,215.4644 Q326.4764,216.5269 327.8202,216.5269 Q328.4452,216.5269 329.0389,216.2613 Q329.6327,215.98 330.2577,215.4019 L330.2577,218.1206 Z " fill="#000000"/><text fill="#000000" font-family="sans-serif" font-size="14" lengthAdjust="spacing" textLength="111.8359" x="347.7889" y="217.3267">PractitionerRole</text><line style="stroke:#181818;stroke-width:0.5;" x1="78.89" x2="696.0238" y1="228.48" y2="228.48"/><text fill="#000000" font-family="sans-serif" font-size="14" lengthAdjust="spacing" textLength="198.9395" x="83.89" y="245.4751">practitioner (1..1, MS, LDAP)</text><text fill="#000000" font-family="sans-serif" font-size="14" lengthAdjust="spacing" textLength="171.0967" x="83.89" y="261.772">location (0..*, MS, LDAP)</text><text fill="#000000" font-family="sans-serif" font-size="14" lengthAdjust="spacing" textLength="132.125" x="83.89" y="278.0689">endpoint (0..*, MS)</text><text fill="#000000" font-family="sans-serif" font-size="14" lengthAdjust="spacing" textLength="225.4902" x="83.89" y="294.3657">meta.tag.origin (1..1, MS, LDAP)</text><text fill="#000000" font-family="sans-serif" font-size="14" lengthAdjust="spacing" textLength="607.1338" x="83.89" y="310.6626">healthcareService (0..*, MS, OWNER) (geplant f&#252;r Verkn&#252;pfung mit HealthcareService)</text><line style="stroke:#181818;stroke-width:0.5;" x1="78.89" x2="696.0238" y1="317.9644" y2="317.9644"/></g><!--class Endpoint--><g class="entity" data-entity="Endpoint" data-source-line="18" data-uid="ent0004" id="entity_Endpoint"><rect fill="#F1F1F1" height="178.375" rx="2.5" ry="2.5" style="stroke:#181818;stroke-width:0.5;" width="280.9053" x="7" y="385.96"/><ellipse cx="112.0479" cy="401.96" fill="#ADD1B2" rx="11" ry="11" style="stroke:#181818;stroke-width:1;"/><path d="M115.0166,407.6006 Q114.4385,407.8975 113.7979,408.0381 Q113.1572,408.1944 112.4541,408.1944 Q109.9541,408.1944 108.626,406.5538 Q107.3135,404.8975 107.3135,401.7725 Q107.3135,398.6475 108.626,396.9913 Q109.9541,395.335 112.4541,395.335 Q113.1572,395.335 113.7979,395.4913 Q114.4541,395.6475 115.0166,395.9444 L115.0166,398.6631 Q114.3916,398.085 113.7979,397.8194 Q113.2041,397.5381 112.5791,397.5381 Q111.2354,397.5381 110.5479,398.6163 Q109.8604,399.6788 109.8604,401.7725 Q109.8604,403.8663 110.5479,404.9444 Q111.2354,406.0069 112.5791,406.0069 Q113.2041,406.0069 113.7979,405.7413 Q114.3916,405.46 115.0166,404.8819 L115.0166,407.6006 Z " fill="#000000"/><text fill="#000000" font-family="sans-serif" font-size="14" lengthAdjust="spacing" textLength="62.3096" x="132.5479" y="406.8067">Endpoint</text><line style="stroke:#181818;stroke-width:0.5;" x1="8" x2="286.9053" y1="417.96" y2="417.96"/><text fill="#000000" font-family="sans-serif" font-size="14" lengthAdjust="spacing" textLength="183.4287" x="13" y="434.9551">connectionType (1..1, MS)</text><text fill="#000000" font-family="sans-serif" font-size="14" lengthAdjust="spacing" textLength="114.9736" x="13" y="451.252">status (1..1, MS)</text><text fill="#000000" font-family="sans-serif" font-size="14" lengthAdjust="spacing" textLength="111.6582" x="13" y="467.5489">name (1..1, MS)</text><text fill="#000000" font-family="sans-serif" font-size="14" lengthAdjust="spacing" textLength="127.2646" x="13" y="483.8457">address (1..1, MS)</text><text fill="#000000" font-family="sans-serif" font-size="14" lengthAdjust="spacing" textLength="160.0566" x="13" y="500.1426">payloadType (1..*, MS)</text><text fill="#000000" font-family="sans-serif" font-size="14" lengthAdjust="spacing" textLength="179.9902" x="13" y="516.4395">meta.tag.origin (1..1, MS)</text><text fill="#000000" font-family="sans-serif" font-size="14" lengthAdjust="spacing" textLength="264.3184" x="13" y="532.7364">extension:endpointVisibility (0..*, MS)</text><text fill="#000000" font-family="sans-serif" font-size="14" lengthAdjust="spacing" textLength="268.9053" x="13" y="549.0332">extension:ownerTelematikId (0..*, MS)</text><line style="stroke:#181818;stroke-width:0.5;" x1="8" x2="286.9053" y1="556.335" y2="556.335"/></g><!--class Location--><g class="entity" data-entity="Location" data-source-line="28" data-uid="ent0005" id="entity_Location"><rect fill="#F1F1F1" height="96.8906" rx="2.5" ry="2.5" style="stroke:#181818;stroke-width:0.5;" width="237.4902" x="322.71" y="426.71"/><ellipse cx="407.4756" cy="442.71" fill="#ADD1B2" rx="11" ry="11" style="stroke:#181818;stroke-width:1;"/><path d="M410.4444,448.3506 Q409.8663,448.6475 409.2256,448.7881 Q408.585,448.9444 407.8819,448.9444 Q405.3819,448.9444 404.0538,447.3038 Q402.7413,445.6475 402.7413,442.5225 Q402.7413,439.3975 404.0538,437.7413 Q405.3819,436.085 407.8819,436.085 Q408.585,436.085 409.2256,436.2413 Q409.8819,436.3975 410.4444,436.6944 L410.4444,439.4131 Q409.8194,438.835 409.2256,438.5694 Q408.6319,438.2881 408.0069,438.2881 Q406.6631,438.2881 405.9756,439.3663 Q405.2881,440.4288 405.2881,442.5225 Q405.2881,444.6163 405.9756,445.6944 Q406.6631,446.7569 408.0069,446.7569 Q408.6319,446.7569 409.2256,446.4913 Q409.8194,446.21 410.4444,445.6319 L410.4444,448.3506 Z " fill="#000000"/><text fill="#000000" font-family="sans-serif" font-size="14" lengthAdjust="spacing" textLength="59.459" x="427.9756" y="447.5567">Location</text><line style="stroke:#181818;stroke-width:0.5;" x1="323.71" x2="559.2002" y1="458.71" y2="458.71"/><text fill="#000000" font-family="sans-serif" font-size="14" lengthAdjust="spacing" textLength="172.7646" x="328.71" y="475.7051">address (0..1, MS, LDAP)</text><text fill="#000000" font-family="sans-serif" font-size="14" lengthAdjust="spacing" textLength="127.4082" x="328.71" y="492.002">position (0..1, MS)</text><text fill="#000000" font-family="sans-serif" font-size="14" lengthAdjust="spacing" textLength="225.4902" x="328.71" y="508.2989">meta.tag.origin (1..1, MS, LDAP)</text><line style="stroke:#181818;stroke-width:0.5;" x1="323.71" x2="559.2002" y1="515.6006" y2="515.6006"/></g><!--class PractitionerRole_n--><g class="entity" data-entity="PractitionerRole_n" data-source-line="38" data-uid="ent0009" id="entity_PractitionerRole_n"><rect fill="#F1F1F1" height="48" rx="2.5" ry="2.5" style="stroke:#181818;stroke-width:0.5;" width="159.709" x="731.6" y="237.22"/><ellipse cx="746.6" cy="253.22" fill="#ADD1B2" rx="11" ry="11" style="stroke:#181818;stroke-width:1;"/><path d="M749.5688,258.8606 Q748.9906,259.1575 748.35,259.2981 Q747.7094,259.4544 747.0063,259.4544 Q744.5063,259.4544 743.1781,257.8138 Q741.8656,256.1575 741.8656,253.0325 Q741.8656,249.9075 743.1781,248.2513 Q744.5063,246.595 747.0063,246.595 Q747.7094,246.595 748.35,246.7513 Q749.0063,246.9075 749.5688,247.2044 L749.5688,249.9231 Q748.9438,249.345 748.35,249.0794 Q747.7563,248.7981 747.1313,248.7981 Q745.7875,248.7981 745.1,249.8763 Q744.4125,250.9388 744.4125,253.0325 Q744.4125,255.1263 745.1,256.2044 Q745.7875,257.2669 747.1313,257.2669 Q747.7563,257.2669 748.35,257.0013 Q748.9438,256.72 749.5688,256.1419 L749.5688,258.8606 Z " fill="#000000"/><text fill="#000000" font-family="sans-serif" font-size="14" lengthAdjust="spacing" textLength="127.709" x="760.6" y="258.0667">PractitionerRole_n</text><line style="stroke:#181818;stroke-width:0.5;" x1="732.6" x2="890.309" y1="269.22" y2="269.22"/><line style="stroke:#181818;stroke-width:0.5;" x1="732.6" x2="890.309" y1="277.22" y2="277.22"/></g><!--class Endpoint_n--><g class="entity" data-entity="Endpoint_n" data-source-line="39" data-uid="ent0011" id="entity_Endpoint_n"><rect fill="#F1F1F1" height="48" rx="2.5" ry="2.5" style="stroke:#181818;stroke-width:0.5;" width="110.1826" x="702.36" y="451.15"/><ellipse cx="717.36" cy="467.15" fill="#ADD1B2" rx="11" ry="11" style="stroke:#181818;stroke-width:1;"/><path d="M720.3288,472.7906 Q719.7506,473.0875 719.11,473.2281 Q718.4694,473.3844 717.7663,473.3844 Q715.2663,473.3844 713.9381,471.7438 Q712.6256,470.0875 712.6256,466.9625 Q712.6256,463.8375 713.9381,462.1813 Q715.2663,460.525 717.7663,460.525 Q718.4694,460.525 719.11,460.6813 Q719.7663,460.8375 720.3288,461.1344 L720.3288,463.8531 Q719.7038,463.275 719.11,463.0094 Q718.5163,462.7281 717.8913,462.7281 Q716.5475,462.7281 715.86,463.8063 Q715.1725,464.8688 715.1725,466.9625 Q715.1725,469.0563 715.86,470.1344 Q716.5475,471.1969 717.8913,471.1969 Q718.5163,471.1969 719.11,470.9313 Q719.7038,470.65 720.3288,470.0719 L720.3288,472.7906 Z " fill="#000000"/><text fill="#000000" font-family="sans-serif" font-size="14" lengthAdjust="spacing" textLength="78.1826" x="731.36" y="471.9967">Endpoint_n</text><line style="stroke:#181818;stroke-width:0.5;" x1="703.36" x2="811.5426" y1="483.15" y2="483.15"/><line style="stroke:#181818;stroke-width:0.5;" x1="703.36" x2="811.5426" y1="491.15" y2="491.15"/></g><!--class Location_n--><g class="entity" data-entity="Location_n" data-source-line="40" data-uid="ent0013" id="entity_Location_n"><rect fill="#F1F1F1" height="48" rx="2.5" ry="2.5" style="stroke:#181818;stroke-width:0.5;" width="107.332" x="847.79" y="451.15"/><ellipse cx="862.79" cy="467.15" fill="#ADD1B2" rx="11" ry="11" style="stroke:#181818;stroke-width:1;"/><path d="M865.7588,472.7906 Q865.1806,473.0875 864.54,473.2281 Q863.8994,473.3844 863.1963,473.3844 Q860.6963,473.3844 859.3681,471.7438 Q858.0556,470.0875 858.0556,466.9625 Q858.0556,463.8375 859.3681,462.1813 Q860.6963,460.525 863.1963,460.525 Q863.8994,460.525 864.54,460.6813 Q865.1963,460.8375 865.7588,461.1344 L865.7588,463.8531 Q865.1338,463.275 864.54,463.0094 Q863.9463,462.7281 863.3213,462.7281 Q861.9775,462.7281 861.29,463.8063 Q860.6025,464.8688 860.6025,466.9625 Q860.6025,469.0563 861.29,470.1344 Q861.9775,471.1969 863.3213,471.1969 Q863.9463,471.1969 864.54,470.9313 Q865.1338,470.65 865.7588,470.0719 L865.7588,472.7906 Z " fill="#000000"/><text fill="#000000" font-family="sans-serif" font-size="14" lengthAdjust="spacing" textLength="75.332" x="876.79" y="471.9967">Location_n</text><line style="stroke:#181818;stroke-width:0.5;" x1="848.79" x2="954.122" y1="483.15" y2="483.15"/><line style="stroke:#181818;stroke-width:0.5;" x1="848.79" x2="954.122" y1="491.15" y2="491.15"/></g><!--reverse link Practitioner to PractitionerRole--><g class="link" data-entity-1="Practitioner" data-entity-2="PractitionerRole" data-source-line="34" data-uid="lnk6" id="link_Practitioner_PractitionerRole"><path codeLine="34" d="M522.5955,140.7149 C500.8855,159.9149 481.56,176.99 459.85,196.2" fill="none" id="Practitioner-backto-PractitionerRole" style="stroke:#181818;stroke-width:1;"/><polygon fill="#181818" points="527.09,136.74,517.6984,139.706,523.3446,140.0524,522.9982,145.6986,527.09,136.74" style="stroke:#181818;stroke-width:1;"/></g><!--link PractitionerRole to Endpoint--><g class="link" data-entity-1="PractitionerRole" data-entity-2="Endpoint" data-source-line="35" data-uid="lnk7" id="link_PractitionerRole_Endpoint"><path codeLine="35" d="M314.79,326.38 C293.68,345.02 274.7475,361.7485 252.2575,381.6085" fill="none" id="PractitionerRole-to-Endpoint" style="stroke:#181818;stroke-width:1;"/><polygon fill="#181818" points="247.76,385.58,257.1539,382.621,251.5079,382.2704,251.8585,376.6244,247.76,385.58" style="stroke:#181818;stroke-width:1;"/></g><!--link PractitionerRole to Location--><g class="link" data-entity-1="PractitionerRole" data-entity-2="Location" data-source-line="36" data-uid="lnk8" id="link_PractitionerRole_Location"><path codeLine="36" d="M403.8,326.38 C412,358.55 420.2679,391.0159 427.7979,420.5559" fill="none" id="PractitionerRole-to-Location" style="stroke:#181818;stroke-width:1;"/><polygon fill="#181818" points="429.28,426.37,430.933,416.6608,428.045,421.5249,423.1809,418.6369,429.28,426.37" style="stroke:#181818;stroke-width:1;"/></g><!--reverse link Practitioner to PractitionerRole_n--><g class="link" data-entity-1="Practitioner" data-entity-2="PractitionerRole_n" data-source-line="38" data-uid="lnk10" id="link_Practitioner_PractitionerRole_n"><path codeLine="38" d="M676.3145,140.7149 C715.4145,175.2949 756.84,211.92 785.04,236.86" fill="none" id="Practitioner-backto-PractitionerRole_n" style="stroke:#181818;stroke-width:1;"/><polygon fill="#181818" points="671.82,136.74,675.9118,145.6987,675.5654,140.0524,681.2116,139.706,671.82,136.74" style="stroke:#181818;stroke-width:1;"/></g><!--link PractitionerRole_n to Endpoint_n--><g class="link" data-entity-1="PractitionerRole_n" data-entity-2="Endpoint_n" data-source-line="39" data-uid="lnk12" id="link_PractitionerRole_n_Endpoint_n"><path codeLine="39" d="M805.47,285.71 C795.06,326.56 775.2318,404.3758 764.8618,445.0658" fill="none" id="PractitionerRole_n-to-Endpoint_n" style="stroke:#181818;stroke-width:1;"/><polygon fill="#181818" points="763.38,450.88,769.4787,443.1466,764.6148,446.0349,761.7265,441.1709,763.38,450.88" style="stroke:#181818;stroke-width:1;"/></g><!--link PractitionerRole_n to Location_n--><g class="link" data-entity-1="PractitionerRole_n" data-entity-2="Location_n" data-source-line="40" data-uid="lnk14" id="link_PractitionerRole_n_Location_n"><path codeLine="40" d="M821.43,285.71 C838.77,326.56 871.9447,404.6674 889.2247,445.3574" fill="none" id="PractitionerRole_n-to-Location_n" style="stroke:#181818;stroke-width:1;"/><polygon fill="#181818" points="891.57,450.88,891.7338,441.0325,889.6156,446.2778,884.3703,444.1596,891.57,450.88" style="stroke:#181818;stroke-width:1;"/></g><!--SRC=[bLF1Ji904BttA-O8XZPmDSR4H19DK0aGF99rToWJjhjrTq49uS-uyMCMjMLh2yAnEs_clJTl2W6Np5he6yOTET8A3Qm3WFMKK8eDa43bAFimqEX4qLKBdeOjwDtVzPiUQj-yn6z4fnwXM7Ao_hvWCgFXRAy16ksZL0aw5ZaMHzfGJAewSnD0ZQc1bbWoblgEJmYJ-dzDg4IgIRa3vYB51-WCcNGppWmEqIo9ey_wylhS7JIX4MCgMKOstMqDZD7CrMwRJXSgXeGSFFmTuM-acmlrDy6rKiZt7aUhr0l95sOTSmjRNoj7MpeB8GpQ8sqfMqdDHC5v_jvAg_zqg6oc_JeFOKoMtaYIMzN7SUZG7rds8vIOP0dF7uMFt_nkh9V7lwxprJwQPAej5MVpenhWqZCk_PKtOLYvwA1ouc5uMwHSNyqTdJD_eeBg4vH8Ja1ofedw0W00]--></g></svg>