<?xml version="1.0" encoding="UTF-8" standalone="no"?><svg xmlns="http://www.w3.org/2000/svg" xmlns:xlink="http://www.w3.org/1999/xlink" contentScriptType="application/ecmascript" contentStyleType="text/css" height="463px" preserveAspectRatio="none" style="width:623px;height:463px;background:#FFFFFF;" version="1.1" viewBox="0 0 623 463" width="623px" zoomAndPan="magnify"><defs><filter height="300%" id="f1gx62ndr4cje5" width="300%" x="-1" y="-1"><feGaussianBlur result="blurOut" stdDeviation="2.0"/><feColorMatrix in="blurOut" result="blurOut2" type="matrix" values="0 0 0 0 0 0 0 0 0 0 0 0 0 0 0 0 0 0 .4 0"/><feOffset dx="4.0" dy="4.0" in="blurOut2" result="blurOut3"/><feBlend in="SourceGraphic" in2="blurOut3" mode="normal"/></filter></defs><g><!--MD5=[e7f1f8ff98ca4645da414d6b6c370369]
class HealthcareService--><rect codeLine="2" fill="#F8F8F8" filter="url(#f1gx62ndr4cje5)" height="201.6563" id="HealthcareService" style="stroke:#383838;stroke-width:1.5;" width="192" x="232.5" y="7"/><ellipse cx="268.2" cy="23" fill="#C2C2C2" rx="11" ry="11" style="stroke:#383838;stroke-width:1.0;"/><path d="M271.1688,28.6406 Q270.5906,28.9375 269.95,29.0781 Q269.3094,29.2344 268.6063,29.2344 Q266.1063,29.2344 264.7781,27.5938 Q263.4656,25.9375 263.4656,22.8125 Q263.4656,19.6875 264.7781,18.0313 Q266.1063,16.375 268.6063,16.375 Q269.3094,16.375 269.95,16.5313 Q270.6063,16.6875 271.1688,16.9844 L271.1688,19.7031 Q270.5438,19.125 269.95,18.8594 Q269.3563,18.5781 268.7313,18.5781 Q267.3875,18.5781 266.7,19.6563 Q266.0125,20.7188 266.0125,22.8125 Q266.0125,24.9063 266.7,25.9844 Q267.3875,27.0469 268.7313,27.0469 Q269.3563,27.0469 269.95,26.7813 Q270.5438,26.5 271.1688,25.9219 L271.1688,28.6406 Z " fill="#000000"/><text fill="#000000" font-family="sans-serif" font-size="12" lengthAdjust="spacing" textLength="114" x="286.8" y="27.1543">HealthcareService</text><line style="stroke:#383838;stroke-width:1.5;" x1="233.5" x2="423.5" y1="39" y2="39"/><text fill="#000000" font-family="sans-serif" font-size="11" lengthAdjust="spacing" textLength="102" x="238.5" y="53.2104">identifier (0.., MS)</text><text fill="#000000" font-family="sans-serif" font-size="11" lengthAdjust="spacing" textLength="158" x="238.5" y="66.0151">providedBy (1..1, MS, LDAP)</text><text fill="#000000" font-family="sans-serif" font-size="11" lengthAdjust="spacing" textLength="141" x="238.5" y="78.8198">speciality (0.., MS, LDAP)</text><text fill="#000000" font-family="sans-serif" font-size="11" lengthAdjust="spacing" textLength="132" x="238.5" y="91.6245">location (0.., MS, LDAP)</text><text fill="#000000" font-family="sans-serif" font-size="11" lengthAdjust="spacing" textLength="91" x="238.5" y="104.4292">name (0..1, MS)</text><text fill="#000000" font-family="sans-serif" font-size="11" lengthAdjust="spacing" textLength="97" x="238.5" y="117.2339">telecom (0.., MS)</text><text fill="#000000" font-family="sans-serif" font-size="11" lengthAdjust="spacing" textLength="174" x="238.5" y="130.0386">serviceProvisionCode (0.., MS)</text><text fill="#000000" font-family="sans-serif" font-size="11" lengthAdjust="spacing" textLength="138" x="238.5" y="142.8433">communication (0.., MS)</text><text fill="#000000" font-family="sans-serif" font-size="11" lengthAdjust="spacing" textLength="180" x="238.5" y="155.6479">appointmentRequired (0..1, MS)</text><text fill="#000000" font-family="sans-serif" font-size="11" lengthAdjust="spacing" textLength="130" x="238.5" y="168.4526">availableTime (0.., MS)</text><text fill="#000000" font-family="sans-serif" font-size="11" lengthAdjust="spacing" textLength="172" x="238.5" y="181.2573">availabilityExceptions (0.., MS)</text><text fill="#000000" font-family="sans-serif" font-size="11" lengthAdjust="spacing" textLength="101" x="238.5" y="194.062">endpoint (0.., MS)</text><line style="stroke:#383838;stroke-width:1.5;" x1="233.5" x2="423.5" y1="200.6563" y2="200.6563"/><!--MD5=[4fd3bb6c1d79f4919f90c95b62a35422]
class Endpoint--><rect codeLine="16" fill="#F8F8F8" filter="url(#f1gx62ndr4cje5)" height="137.6328" id="Endpoint" style="stroke:#383838;stroke-width:1.5;" width="191" x="7" y="298.5"/><ellipse cx="70.25" cy="314.5" fill="#C2C2C2" rx="11" ry="11" style="stroke:#383838;stroke-width:1.0;"/><path d="M73.2188,320.1406 Q72.6406,320.4375 72,320.5781 Q71.3594,320.7344 70.6563,320.7344 Q68.1563,320.7344 66.8281,319.0938 Q65.5156,317.4375 65.5156,314.3125 Q65.5156,311.1875 66.8281,309.5313 Q68.1563,307.875 70.6563,307.875 Q71.3594,307.875 72,308.0313 Q72.6563,308.1875 73.2188,308.4844 L73.2188,311.2031 Q72.5938,310.625 72,310.3594 Q71.4063,310.0781 70.7813,310.0781 Q69.4375,310.0781 68.75,311.1563 Q68.0625,312.2188 68.0625,314.3125 Q68.0625,316.4063 68.75,317.4844 Q69.4375,318.5469 70.7813,318.5469 Q71.4063,318.5469 72,318.2813 Q72.5938,318 73.2188,317.4219 L73.2188,320.1406 Z " fill="#000000"/><text fill="#000000" font-family="sans-serif" font-size="12" lengthAdjust="spacing" textLength="56" x="90.75" y="318.6543">Endpoint</text><line style="stroke:#383838;stroke-width:1.5;" x1="8" x2="197" y1="330.5" y2="330.5"/><text fill="#000000" font-family="sans-serif" font-size="11" lengthAdjust="spacing" textLength="102" x="13" y="344.7104">identifier (0.., MS)</text><text fill="#000000" font-family="sans-serif" font-size="11" lengthAdjust="spacing" textLength="95" x="13" y="357.5151">status (1..1, MS)</text><text fill="#000000" font-family="sans-serif" font-size="11" lengthAdjust="spacing" textLength="147" x="13" y="370.3198">connectionType (1..1, MS)</text><text fill="#000000" font-family="sans-serif" font-size="11" lengthAdjust="spacing" textLength="91" x="13" y="383.1245">name (1..1, MS)</text><text fill="#000000" font-family="sans-serif" font-size="11" lengthAdjust="spacing" textLength="179" x="13" y="395.9292">managingOrganization (0.., MS)</text><text fill="#000000" font-family="sans-serif" font-size="11" lengthAdjust="spacing" textLength="123" x="13" y="408.7339">payloadType (1.., MS)</text><text fill="#000000" font-family="sans-serif" font-size="11" lengthAdjust="spacing" textLength="106" x="13" y="421.5386">address (1..1, MS)</text><line style="stroke:#383838;stroke-width:1.5;" x1="8" x2="197" y1="428.1328" y2="428.1328"/><!--MD5=[4f1f3706c1a355a8488e154afcaed5df]
class Location--><rect codeLine="25" fill="#F8F8F8" filter="url(#f1gx62ndr4cje5)" height="163.2422" id="Location" style="stroke:#383838;stroke-width:1.5;" width="191" x="233" y="286"/><ellipse cx="297.75" cy="302" fill="#C2C2C2" rx="11" ry="11" style="stroke:#383838;stroke-width:1.0;"/><path d="M300.7188,307.6406 Q300.1406,307.9375 299.5,308.0781 Q298.8594,308.2344 298.1563,308.2344 Q295.6563,308.2344 294.3281,306.5938 Q293.0156,304.9375 293.0156,301.8125 Q293.0156,298.6875 294.3281,297.0313 Q295.6563,295.375 298.1563,295.375 Q298.8594,295.375 299.5,295.5313 Q300.1563,295.6875 300.7188,295.9844 L300.7188,298.7031 Q300.0938,298.125 299.5,297.8594 Q298.9063,297.5781 298.2813,297.5781 Q296.9375,297.5781 296.25,298.6563 Q295.5625,299.7188 295.5625,301.8125 Q295.5625,303.9063 296.25,304.9844 Q296.9375,306.0469 298.2813,306.0469 Q298.9063,306.0469 299.5,305.7813 Q300.0938,305.5 300.7188,304.9219 L300.7188,307.6406 Z " fill="#000000"/><text fill="#000000" font-family="sans-serif" font-size="12" lengthAdjust="spacing" textLength="53" x="318.25" y="306.1543">Location</text><line style="stroke:#383838;stroke-width:1.5;" x1="234" x2="423" y1="318" y2="318"/><text fill="#000000" font-family="sans-serif" font-size="11" lengthAdjust="spacing" textLength="102" x="239" y="332.2104">identifier (0.., MS)</text><text fill="#000000" font-family="sans-serif" font-size="11" lengthAdjust="spacing" textLength="88" x="239" y="345.0151">status (0.., MS)</text><text fill="#000000" font-family="sans-serif" font-size="11" lengthAdjust="spacing" textLength="91" x="239" y="357.8198">name (0..1, MS)</text><text fill="#000000" font-family="sans-serif" font-size="11" lengthAdjust="spacing" textLength="122" x="239" y="370.6245">description (0..1, MS)</text><text fill="#000000" font-family="sans-serif" font-size="11" lengthAdjust="spacing" textLength="97" x="239" y="383.4292">telecom (0.., MS)</text><text fill="#000000" font-family="sans-serif" font-size="11" lengthAdjust="spacing" textLength="142" x="239" y="396.2339">address (0..1, MS, LDAP)</text><text fill="#000000" font-family="sans-serif" font-size="11" lengthAdjust="spacing" textLength="104" x="239" y="409.0386">position (0..1, MS)</text><text fill="#000000" font-family="sans-serif" font-size="11" lengthAdjust="spacing" textLength="154" x="239" y="421.8433">hoursOfOperation (0.., MS)</text><text fill="#000000" font-family="sans-serif" font-size="11" lengthAdjust="spacing" textLength="179" x="239" y="434.6479">availabilityExceptions (0..1, MS)</text><line style="stroke:#383838;stroke-width:1.5;" x1="234" x2="423" y1="441.2422" y2="441.2422"/><!--MD5=[86c7c362de55a38b660185a1328fe18d]
class Organization--><rect codeLine="36" fill="#F8F8F8" filter="url(#f1gx62ndr4cje5)" height="137.6328" id="Organization" style="stroke:#383838;stroke-width:1.5;" width="150" x="459.5" y="298.5"/><ellipse cx="492.5" cy="314.5" fill="#C2C2C2" rx="11" ry="11" style="stroke:#383838;stroke-width:1.0;"/><path d="M495.4688,320.1406 Q494.8906,320.4375 494.25,320.5781 Q493.6094,320.7344 492.9063,320.7344 Q490.4063,320.7344 489.0781,319.0938 Q487.7656,317.4375 487.7656,314.3125 Q487.7656,311.1875 489.0781,309.5313 Q490.4063,307.875 492.9063,307.875 Q493.6094,307.875 494.25,308.0313 Q494.9063,308.1875 495.4688,308.4844 L495.4688,311.2031 Q494.8438,310.625 494.25,310.3594 Q493.6563,310.0781 493.0313,310.0781 Q491.6875,310.0781 491,311.1563 Q490.3125,312.2188 490.3125,314.3125 Q490.3125,316.4063 491,317.4844 Q491.6875,318.5469 493.0313,318.5469 Q493.6563,318.5469 494.25,318.2813 Q494.8438,318 495.4688,317.4219 L495.4688,320.1406 Z " fill="#000000"/><text fill="#000000" font-family="sans-serif" font-size="12" lengthAdjust="spacing" textLength="78" x="510.5" y="318.6543">Organization</text><line style="stroke:#383838;stroke-width:1.5;" x1="460.5" x2="608.5" y1="330.5" y2="330.5"/><text fill="#000000" font-family="sans-serif" font-size="11" lengthAdjust="spacing" textLength="138" x="465.5" y="344.7104">identifier (0.., MS, LDAP)</text><text fill="#000000" font-family="sans-serif" font-size="11" lengthAdjust="spacing" textLength="128" x="465.5" y="357.5151">active (1..1, MS, LDAP)</text><text fill="#000000" font-family="sans-serif" font-size="11" lengthAdjust="spacing" textLength="119" x="465.5" y="370.3198">type (1..1, MS, LDAP)</text><text fill="#000000" font-family="sans-serif" font-size="11" lengthAdjust="spacing" textLength="127" x="465.5" y="383.1245">name (1..1, MS, LDAP)</text><text fill="#000000" font-family="sans-serif" font-size="11" lengthAdjust="spacing" textLength="79" x="465.5" y="395.9292">alias (0.., MS)</text><text fill="#000000" font-family="sans-serif" font-size="11" lengthAdjust="spacing" textLength="97" x="465.5" y="408.7339">telecom (0.., MS)</text><text fill="#000000" font-family="sans-serif" font-size="11" lengthAdjust="spacing" textLength="93" x="465.5" y="421.5386">contact (0.., MS)</text><line style="stroke:#383838;stroke-width:1.5;" x1="460.5" x2="608.5" y1="428.1328" y2="428.1328"/><!--MD5=[6f2477b0057d6d863baac3cc01263906]
reverse link HealthcareService to Organization--><path codeLine="46" d="M416.89,219.49 C438.31,246.27 460.59,274.11 479.92,298.28 " fill="none" id="HealthcareService-backto-Organization" style="stroke:#383838;stroke-width:1.0;"/><polygon fill="#FFFFFF" points="408.73,209.29,409.3559,216.4739,416.2279,218.6591,415.602,211.4753,408.73,209.29" style="stroke:#383838;stroke-width:1.0;"/><text fill="#000000" font-family="sans-serif" font-size="13" lengthAdjust="spacing" textLength="71" x="444.5" y="252.0669">providedBy</text><!--MD5=[3511516a64eecd1a7f097b12e1d19ff7]
reverse link HealthcareService to Endpoint--><path codeLine="47" d="M231.83,219.14 C208.24,246.02 183.68,274.01 162.38,298.28 " fill="none" id="HealthcareService-backto-Endpoint" style="stroke:#383838;stroke-width:1.0;"/><polygon fill="#FFFFFF" points="240.48,209.29,233.5148,211.1571,232.5593,218.3046,239.5245,216.4375,240.48,209.29" style="stroke:#383838;stroke-width:1.0;"/><text fill="#000000" font-family="sans-serif" font-size="13" lengthAdjust="spacing" textLength="56" x="210.5" y="252.0669">endpoint</text><!--MD5=[eb80e139a64af3c5d009312d469c3596]
reverse link HealthcareService to Location--><path codeLine="48" d="M328.5,222.52 C328.5,243.91 328.5,265.86 328.5,285.99 " fill="none" id="HealthcareService-backto-Location" style="stroke:#383838;stroke-width:1.0;"/><polygon fill="#FFFFFF" points="328.5,209.29,324.5,215.29,328.5,221.29,332.5,215.29,328.5,209.29" style="stroke:#383838;stroke-width:1.0;"/><text fill="#000000" font-family="sans-serif" font-size="13" lengthAdjust="spacing" textLength="50" x="329.5" y="252.0669">location</text><!--MD5=[600eea4b0cdfd7a181e5ea6ca52ef56e]
@startuml ClassDiagram.HealthcareService
skinparam monochrome true
class HealthcareService {
  {field} identifier (0.., MS)
  {field} providedBy (1..1, MS, LDAP)
  {field} speciality (0.., MS, LDAP)
  {field} location (0.., MS, LDAP)
  {field} name (0..1, MS)
  {field} telecom (0.., MS)
  {field} serviceProvisionCode (0.., MS)
  {field} communication (0.., MS)
  {field} appointmentRequired (0..1, MS)
  {field} availableTime (0.., MS)
  {field} availabilityExceptions (0.., MS)
  {field} endpoint (0.., MS)
}
class Endpoint {
  {field} identifier (0.., MS)
  {field} status (1..1, MS)
  {field} connectionType (1..1, MS)
  {field} name (1..1, MS)
  {field} managingOrganization (0.., MS)
  {field} payloadType (1.., MS)
  {field} address (1..1, MS)
}
class Location {
  {field} identifier (0.., MS)
  {field} status (0.., MS)
  {field} name (0..1, MS)
  {field} description (0..1, MS)
  {field} telecom (0.., MS)
  {field} address (0..1, MS, LDAP)
  {field} position (0..1, MS)
  {field} hoursOfOperation (0.., MS)
  {field} availabilityExceptions (0..1, MS)
}
class Organization {
  {field} identifier (0.., MS, LDAP)
  {field} active (1..1, MS, LDAP)
  {field} type (1..1, MS, LDAP)
  {field} name (1..1, MS, LDAP)
  {field} alias (0.., MS)
  {field} telecom (0.., MS)
  {field} contact (0.., MS)
}

HealthcareService o- - Organization: providedBy
HealthcareService o- - Endpoint: endpoint
HealthcareService o- - Location: location

@enduml

PlantUML version 1.2021.16(Wed Dec 08 17:25:22 UTC 2021)
(GPL source distribution)
Java Runtime: OpenJDK Runtime Environment
JVM: OpenJDK 64-Bit Server VM
Default Encoding: UTF-8
Language: en
Country: null
--></g></svg>