<svg xmlns="http://www.w3.org/2000/svg" xmlns:xlink="http://www.w3.org/1999/xlink" contentStyleType="text/css" data-diagram-type="CLASS" height="620px" preserveAspectRatio="none" style="width:920px;height:620px;background:#FFFFFF;" version="1.1" viewBox="0 0 920 620" width="920px" zoomAndPan="magnify"><defs/><g><!--class Practitioner--><g id="elem_Practitioner"><rect codeLine="2" fill="#F1F1F1" height="129.4844" id="Practitioner" rx="2.5" ry="2.5" style="stroke:#181818;stroke-width:0.5;" width="237.4902" x="438.97" y="7"/><ellipse cx="512.9451" cy="23" fill="#ADD1B2" rx="11" ry="11" style="stroke:#181818;stroke-width:1;"/><path d="M515.9138,28.6406 Q515.3357,28.9375 514.6951,29.0781 Q514.0545,29.2344 513.3513,29.2344 Q510.8513,29.2344 509.5232,27.5938 Q508.2107,25.9375 508.2107,22.8125 Q508.2107,19.6875 509.5232,18.0313 Q510.8513,16.375 513.3513,16.375 Q514.0545,16.375 514.6951,16.5313 Q515.3513,16.6875 515.9138,16.9844 L515.9138,19.7031 Q515.2888,19.125 514.6951,18.8594 Q514.1013,18.5781 513.4763,18.5781 Q512.1326,18.5781 511.4451,19.6563 Q510.7576,20.7188 510.7576,22.8125 Q510.7576,24.9063 511.4451,25.9844 Q512.1326,27.0469 513.4763,27.0469 Q514.1013,27.0469 514.6951,26.7813 Q515.2888,26.5 515.9138,25.9219 L515.9138,28.6406 Z " fill="#000000"/><text fill="#000000" font-family="sans-serif" font-size="14" lengthAdjust="spacing" textLength="81.04" x="533.4451" y="27.8467">Practitioner</text><line style="stroke:#181818;stroke-width:0.5;" x1="439.97" x2="675.4602" y1="39" y2="39"/><text fill="#000000" font-family="sans-serif" font-size="14" lengthAdjust="spacing" textLength="178.377" x="444.97" y="55.9951">identifier (1..*, MS, LDAP)</text><text fill="#000000" font-family="sans-serif" font-size="14" lengthAdjust="spacing" textLength="160.0088" x="444.97" y="72.292">active (1..1, MS, LDAP)</text><text fill="#000000" font-family="sans-serif" font-size="14" lengthAdjust="spacing" textLength="155.251" x="444.97" y="88.5889">name (1..*, MS, LDAP)</text><text fill="#000000" font-family="sans-serif" font-size="14" lengthAdjust="spacing" textLength="201.5781" x="444.97" y="104.8857">qualification (0..*, MS, LDAP)</text><text fill="#000000" font-family="sans-serif" font-size="14" lengthAdjust="spacing" textLength="225.4902" x="444.97" y="121.1826">meta.tag.origin (1..1, MS, LDAP)</text><line style="stroke:#181818;stroke-width:0.5;" x1="439.97" x2="675.4602" y1="128.4844" y2="128.4844"/></g><!--class PractitionerRole--><g id="elem_PractitionerRole"><rect codeLine="10" fill="#F1F1F1" height="178.375" id="PractitionerRole" rx="2.5" ry="2.5" style="stroke:#181818;stroke-width:0.5;" width="619.1338" x="36.15" y="196.48"/><ellipse cx="285.5489" cy="212.48" fill="#ADD1B2" rx="11" ry="11" style="stroke:#181818;stroke-width:1;"/><path d="M288.5177,218.1206 Q287.9396,218.4175 287.2989,218.5581 Q286.6583,218.7144 285.9552,218.7144 Q283.4552,218.7144 282.1271,217.0738 Q280.8146,215.4175 280.8146,212.2925 Q280.8146,209.1675 282.1271,207.5113 Q283.4552,205.855 285.9552,205.855 Q286.6583,205.855 287.2989,206.0113 Q287.9552,206.1675 288.5177,206.4644 L288.5177,209.1831 Q287.8927,208.605 287.2989,208.3394 Q286.7052,208.0581 286.0802,208.0581 Q284.7364,208.0581 284.0489,209.1363 Q283.3614,210.1988 283.3614,212.2925 Q283.3614,214.3863 284.0489,215.4644 Q284.7364,216.5269 286.0802,216.5269 Q286.7052,216.5269 287.2989,216.2613 Q287.8927,215.98 288.5177,215.4019 L288.5177,218.1206 Z " fill="#000000"/><text fill="#000000" font-family="sans-serif" font-size="14" lengthAdjust="spacing" textLength="111.8359" x="306.0489" y="217.3267">PractitionerRole</text><line style="stroke:#181818;stroke-width:0.5;" x1="37.15" x2="654.2838" y1="228.48" y2="228.48"/><text fill="#000000" font-family="sans-serif" font-size="14" lengthAdjust="spacing" textLength="132.877" x="42.15" y="245.4751">identifier (1..*, MS)</text><text fill="#000000" font-family="sans-serif" font-size="14" lengthAdjust="spacing" textLength="198.9395" x="42.15" y="261.772">practitioner (1..1, MS, LDAP)</text><text fill="#000000" font-family="sans-serif" font-size="14" lengthAdjust="spacing" textLength="171.0967" x="42.15" y="278.0689">location (0..*, MS, LDAP)</text><text fill="#000000" font-family="sans-serif" font-size="14" lengthAdjust="spacing" textLength="132.125" x="42.15" y="294.3657">endpoint (0..*, MS)</text><text fill="#000000" font-family="sans-serif" font-size="14" lengthAdjust="spacing" textLength="225.4902" x="42.15" y="310.6626">meta.tag.origin (1..1, MS, LDAP)</text><text fill="#000000" font-family="sans-serif" font-size="14" lengthAdjust="spacing" textLength="227.4385" x="42.15" y="326.9595">meta.security.ownerId (1..*, MS)</text><text fill="#000000" font-family="sans-serif" font-size="14" lengthAdjust="spacing" textLength="261.249" x="42.15" y="343.2564">meta.security.holder (1..*, MS, LDAP)</text><text fill="#000000" font-family="sans-serif" font-size="14" lengthAdjust="spacing" textLength="607.1338" x="42.15" y="359.5532">healthcareService (0..*, MS, OWNER) (geplant f&#252;r Verkn&#252;pfung mit HealthcareService)</text><line style="stroke:#181818;stroke-width:0.5;" x1="37.15" x2="654.2838" y1="366.855" y2="366.855"/></g><!--class Endpoint--><g id="elem_Endpoint"><rect codeLine="21" fill="#F1F1F1" height="178.375" id="Endpoint" rx="2.5" ry="2.5" style="stroke:#181818;stroke-width:0.5;" width="239.4385" x="7" y="434.85"/><ellipse cx="91.3145" cy="450.85" fill="#ADD1B2" rx="11" ry="11" style="stroke:#181818;stroke-width:1;"/><path d="M94.2832,456.4906 Q93.7051,456.7875 93.0645,456.9281 Q92.4238,457.0844 91.7207,457.0844 Q89.2207,457.0844 87.8926,455.4438 Q86.5801,453.7875 86.5801,450.6625 Q86.5801,447.5375 87.8926,445.8813 Q89.2207,444.225 91.7207,444.225 Q92.4238,444.225 93.0645,444.3813 Q93.7207,444.5375 94.2832,444.8344 L94.2832,447.5531 Q93.6582,446.975 93.0645,446.7094 Q92.4707,446.4281 91.8457,446.4281 Q90.502,446.4281 89.8145,447.5063 Q89.127,448.5688 89.127,450.6625 Q89.127,452.7563 89.8145,453.8344 Q90.502,454.8969 91.8457,454.8969 Q92.4707,454.8969 93.0645,454.6313 Q93.6582,454.35 94.2832,453.7719 L94.2832,456.4906 Z " fill="#000000"/><text fill="#000000" font-family="sans-serif" font-size="14" lengthAdjust="spacing" textLength="62.3096" x="111.8145" y="455.6967">Endpoint</text><line style="stroke:#181818;stroke-width:0.5;" x1="8" x2="245.4385" y1="466.85" y2="466.85"/><text fill="#000000" font-family="sans-serif" font-size="14" lengthAdjust="spacing" textLength="132.877" x="13" y="483.8451">identifier (1..*, MS)</text><text fill="#000000" font-family="sans-serif" font-size="14" lengthAdjust="spacing" textLength="181.5215" x="13" y="500.142">connectionType (0..*, MS)</text><text fill="#000000" font-family="sans-serif" font-size="14" lengthAdjust="spacing" textLength="114.9736" x="13" y="516.4389">status (1..1, MS)</text><text fill="#000000" font-family="sans-serif" font-size="14" lengthAdjust="spacing" textLength="111.6582" x="13" y="532.7357">name (0..1, MS)</text><text fill="#000000" font-family="sans-serif" font-size="14" lengthAdjust="spacing" textLength="127.2646" x="13" y="549.0326">address (1..1, MS)</text><text fill="#000000" font-family="sans-serif" font-size="14" lengthAdjust="spacing" textLength="160.0566" x="13" y="565.3295">payloadType (1..*, MS)</text><text fill="#000000" font-family="sans-serif" font-size="14" lengthAdjust="spacing" textLength="179.9902" x="13" y="581.6264">meta.tag.origin (1..1, MS)</text><text fill="#000000" font-family="sans-serif" font-size="14" lengthAdjust="spacing" textLength="227.4385" x="13" y="597.9232">meta.security.ownerId (1..*, MS)</text><line style="stroke:#181818;stroke-width:0.5;" x1="8" x2="245.4385" y1="605.225" y2="605.225"/></g><!--class Location--><g id="elem_Location"><rect codeLine="31" fill="#F1F1F1" height="96.8906" id="Location" rx="2.5" ry="2.5" style="stroke:#181818;stroke-width:0.5;" width="237.4902" x="280.97" y="475.6"/><ellipse cx="365.7356" cy="491.6" fill="#ADD1B2" rx="11" ry="11" style="stroke:#181818;stroke-width:1;"/><path d="M368.7044,497.2406 Q368.1263,497.5375 367.4856,497.6781 Q366.845,497.8344 366.1419,497.8344 Q363.6419,497.8344 362.3138,496.1938 Q361.0013,494.5375 361.0013,491.4125 Q361.0013,488.2875 362.3138,486.6313 Q363.6419,484.975 366.1419,484.975 Q366.845,484.975 367.4856,485.1313 Q368.1419,485.2875 368.7044,485.5844 L368.7044,488.3031 Q368.0794,487.725 367.4856,487.4594 Q366.8919,487.1781 366.2669,487.1781 Q364.9231,487.1781 364.2356,488.2563 Q363.5481,489.3188 363.5481,491.4125 Q363.5481,493.5063 364.2356,494.5844 Q364.9231,495.6469 366.2669,495.6469 Q366.8919,495.6469 367.4856,495.3813 Q368.0794,495.1 368.7044,494.5219 L368.7044,497.2406 Z " fill="#000000"/><text fill="#000000" font-family="sans-serif" font-size="14" lengthAdjust="spacing" textLength="59.459" x="386.2356" y="496.4467">Location</text><line style="stroke:#181818;stroke-width:0.5;" x1="281.97" x2="517.4602" y1="507.6" y2="507.6"/><text fill="#000000" font-family="sans-serif" font-size="14" lengthAdjust="spacing" textLength="178.377" x="286.97" y="524.5951">identifier (1..*, MS, LDAP)</text><text fill="#000000" font-family="sans-serif" font-size="14" lengthAdjust="spacing" textLength="172.7646" x="286.97" y="540.892">address (0..1, MS, LDAP)</text><text fill="#000000" font-family="sans-serif" font-size="14" lengthAdjust="spacing" textLength="225.4902" x="286.97" y="557.1889">meta.tag.origin (1..1, MS, LDAP)</text><line style="stroke:#181818;stroke-width:0.5;" x1="281.97" x2="517.4602" y1="564.4906" y2="564.4906"/></g><!--class PractitionerRole_n--><g id="elem_PractitionerRole_n"><rect fill="#F1F1F1" height="48" id="PractitionerRole_n" rx="2.5" ry="2.5" style="stroke:#181818;stroke-width:0.5;" width="159.709" x="689.86" y="261.67"/><ellipse cx="704.86" cy="277.67" fill="#ADD1B2" rx="11" ry="11" style="stroke:#181818;stroke-width:1;"/><path d="M707.8288,283.3106 Q707.2506,283.6075 706.61,283.7481 Q705.9694,283.9044 705.2663,283.9044 Q702.7663,283.9044 701.4381,282.2638 Q700.1256,280.6075 700.1256,277.4825 Q700.1256,274.3575 701.4381,272.7013 Q702.7663,271.045 705.2663,271.045 Q705.9694,271.045 706.61,271.2013 Q707.2663,271.3575 707.8288,271.6544 L707.8288,274.3731 Q707.2038,273.795 706.61,273.5294 Q706.0163,273.2481 705.3913,273.2481 Q704.0475,273.2481 703.36,274.3263 Q702.6725,275.3888 702.6725,277.4825 Q702.6725,279.5763 703.36,280.6544 Q704.0475,281.7169 705.3913,281.7169 Q706.0163,281.7169 706.61,281.4513 Q707.2038,281.17 707.8288,280.5919 L707.8288,283.3106 Z " fill="#000000"/><text fill="#000000" font-family="sans-serif" font-size="14" lengthAdjust="spacing" textLength="127.709" x="718.86" y="282.5167">PractitionerRole_n</text><line style="stroke:#181818;stroke-width:0.5;" x1="690.86" x2="848.569" y1="293.67" y2="293.67"/><line style="stroke:#181818;stroke-width:0.5;" x1="690.86" x2="848.569" y1="301.67" y2="301.67"/></g><!--class Endpoint_n--><g id="elem_Endpoint_n"><rect fill="#F1F1F1" height="48" id="Endpoint_n" rx="2.5" ry="2.5" style="stroke:#181818;stroke-width:0.5;" width="110.1826" x="660.63" y="500.04"/><ellipse cx="675.63" cy="516.04" fill="#ADD1B2" rx="11" ry="11" style="stroke:#181818;stroke-width:1;"/><path d="M678.5988,521.6806 Q678.0206,521.9775 677.38,522.1181 Q676.7394,522.2744 676.0363,522.2744 Q673.5363,522.2744 672.2081,520.6338 Q670.8956,518.9775 670.8956,515.8525 Q670.8956,512.7275 672.2081,511.0712 Q673.5363,509.415 676.0363,509.415 Q676.7394,509.415 677.38,509.5712 Q678.0363,509.7275 678.5988,510.0244 L678.5988,512.7431 Q677.9738,512.165 677.38,511.8994 Q676.7863,511.6181 676.1613,511.6181 Q674.8175,511.6181 674.13,512.6963 Q673.4425,513.7588 673.4425,515.8525 Q673.4425,517.9463 674.13,519.0244 Q674.8175,520.0869 676.1613,520.0869 Q676.7863,520.0869 677.38,519.8213 Q677.9738,519.54 678.5988,518.9619 L678.5988,521.6806 Z " fill="#000000"/><text fill="#000000" font-family="sans-serif" font-size="14" lengthAdjust="spacing" textLength="78.1826" x="689.63" y="520.8867">Endpoint_n</text><line style="stroke:#181818;stroke-width:0.5;" x1="661.63" x2="769.8126" y1="532.04" y2="532.04"/><line style="stroke:#181818;stroke-width:0.5;" x1="661.63" x2="769.8126" y1="540.04" y2="540.04"/></g><!--class Location_n--><g id="elem_Location_n"><rect fill="#F1F1F1" height="48" id="Location_n" rx="2.5" ry="2.5" style="stroke:#181818;stroke-width:0.5;" width="107.332" x="806.05" y="500.04"/><ellipse cx="821.05" cy="516.04" fill="#ADD1B2" rx="11" ry="11" style="stroke:#181818;stroke-width:1;"/><path d="M824.0188,521.6806 Q823.4406,521.9775 822.8,522.1181 Q822.1594,522.2744 821.4563,522.2744 Q818.9563,522.2744 817.6281,520.6338 Q816.3156,518.9775 816.3156,515.8525 Q816.3156,512.7275 817.6281,511.0712 Q818.9563,509.415 821.4563,509.415 Q822.1594,509.415 822.8,509.5712 Q823.4563,509.7275 824.0188,510.0244 L824.0188,512.7431 Q823.3938,512.165 822.8,511.8994 Q822.2063,511.6181 821.5813,511.6181 Q820.2375,511.6181 819.55,512.6963 Q818.8625,513.7588 818.8625,515.8525 Q818.8625,517.9463 819.55,519.0244 Q820.2375,520.0869 821.5813,520.0869 Q822.2063,520.0869 822.8,519.8213 Q823.3938,519.54 824.0188,518.9619 L824.0188,521.6806 Z " fill="#000000"/><text fill="#000000" font-family="sans-serif" font-size="14" lengthAdjust="spacing" textLength="75.332" x="835.05" y="520.8867">Location_n</text><line style="stroke:#181818;stroke-width:0.5;" x1="807.05" x2="912.382" y1="532.04" y2="532.04"/><line style="stroke:#181818;stroke-width:0.5;" x1="807.05" x2="912.382" y1="540.04" y2="540.04"/></g><!--reverse link Practitioner to PractitionerRole--><g id="link_Practitioner_PractitionerRole"><path codeLine="37" d="M489.2962,141.1415 C470.6462,159.7815 454.19,176.23 434.32,196.09 " fill="transparent" id="Practitioner-backto-PractitionerRole" style="stroke:#181818;stroke-width:1;"/><polygon fill="#181818" points="493.54,136.9,484.3467,140.4331,490.0035,140.4346,490.002,146.0914,493.54,136.9" style="stroke:#181818;stroke-width:1;"/></g><!--link PractitionerRole to Endpoint--><g id="link_PractitionerRole_Endpoint"><path codeLine="38" d="M263.86,375.02 C245.88,394.43 230.9075,410.5784 212.9175,429.9984 " fill="transparent" id="PractitionerRole-to-Endpoint" style="stroke:#181818;stroke-width:1;"/><polygon fill="#181818" points="208.84,434.4,217.8906,430.5159,212.2379,430.732,212.0218,425.0793,208.84,434.4" style="stroke:#181818;stroke-width:1;"/></g><!--link PractitionerRole to Location--><g id="link_PractitionerRole_Location"><path codeLine="39" d="M365.9,375.02 C373.66,408.98 380.8833,440.6108 387.4533,469.3608 " fill="transparent" id="PractitionerRole-to-Location" style="stroke:#181818;stroke-width:1;"/><polygon fill="#181818" points="388.79,475.21,390.6845,465.5451,387.6761,470.3357,382.8855,467.3273,388.79,475.21" style="stroke:#181818;stroke-width:1;"/></g><!--reverse link Practitioner to PractitionerRole_n--><g id="link_Practitioner_PractitionerRole_n"><path codeLine="41" d="M626.1436,141.1416 C668.1936,183.1716 716.45,231.41 746.22,261.18 " fill="transparent" id="Practitioner-backto-PractitionerRole_n" style="stroke:#181818;stroke-width:1;"/><polygon fill="#181818" points="621.9,136.9,625.4377,146.0915,625.4364,140.4347,631.0932,140.4333,621.9,136.9" style="stroke:#181818;stroke-width:1;"/></g><!--link PractitionerRole_n to Endpoint_n--><g id="link_PractitionerRole_n_Endpoint_n"><path codeLine="42" d="M764.44,309.76 C754.12,354.95 732.6963,448.7407 722.3563,494.0007 " fill="transparent" id="PractitionerRole_n-to-Endpoint_n" style="stroke:#181818;stroke-width:1;"/><polygon fill="#181818" points="721.02,499.85,726.924,491.9669,722.1336,494.9756,719.1249,490.1852,721.02,499.85" style="stroke:#181818;stroke-width:1;"/></g><!--link PractitionerRole_n to Location_n--><g id="link_PractitionerRole_n_Location_n"><path codeLine="43" d="M778.51,309.76 C795.72,354.95 831.5253,448.9826 848.7553,494.2426 " fill="transparent" id="PractitionerRole_n-to-Location_n" style="stroke:#181818;stroke-width:1;"/><polygon fill="#181818" points="850.89,499.85,851.4263,490.0158,849.1111,495.1772,843.9497,492.862,850.89,499.85" style="stroke:#181818;stroke-width:1;"/></g><!--SRC=[dLF1Ji904BttA-O8XZRjtPYOI889AW6ZHpBP7TgDosxTRZ64zC-uyMEsQgMbfLYFk_jsthptPi1X4fC4PWQP5LPeHGPs3i1k9KZo30GdPKL-C308FEzg10-B4KplRcV32ghulA4lHD2EKBYchWhlASgSXc7H0mpyiy0rMVGiXfus8XIgoPavq29ghYLT55RbYQkET0YJ-dBFf7YiXR97J2z59z24M6g4tNhw8-_jdhVtNuT6MlBk22D2QIE6XXPaDe9HLT3Jw-DuFeH1IB74NCVgi3VmGkPD7VRnAbKXh8M5oMc9QXZZqeC-8J2j5B72tkTjJEts9HPjcXnTQqwTt_A2d1jApdoBSIiryc_Ee4zalSBAVgoPbYFqZyKhPVZTCtDfOMhxV-swZTrn6ilakZU_eRQ_bhh-Kd-fdEOLr4Ww82NJKdq2]--></g></svg>