<svg xmlns="http://www.w3.org/2000/svg" xmlns:xlink="http://www.w3.org/1999/xlink" contentStyleType="text/css" height="480px" preserveAspectRatio="none" style="width:729px;height:480px;background:#FFFFFF;" version="1.1" viewBox="0 0 729 480" width="729px" zoomAndPan="magnify"><defs/><g><!--class HealthcareService--><g id="elem_HealthcareService"><rect codeLine="2" fill="#F1F1F1" height="227.2656" id="HealthcareService" rx="2.5" ry="2.5" style="stroke:#181818;stroke-width:0.5;" width="228.0771" x="276.46" y="7"/><ellipse cx="322.0694" cy="23" fill="#C2C2C2" rx="11" ry="11" style="stroke:#181818;stroke-width:1;"/><path d="M325.0381,28.6406 Q324.46,28.9375 323.8194,29.0781 Q323.1788,29.2344 322.4756,29.2344 Q319.9756,29.2344 318.6475,27.5938 Q317.335,25.9375 317.335,22.8125 Q317.335,19.6875 318.6475,18.0313 Q319.9756,16.375 322.4756,16.375 Q323.1788,16.375 323.8194,16.5313 Q324.4756,16.6875 325.0381,16.9844 L325.0381,19.7031 Q324.4131,19.125 323.8194,18.8594 Q323.2256,18.5781 322.6006,18.5781 Q321.2569,18.5781 320.5694,19.6563 Q319.8819,20.7188 319.8819,22.8125 Q319.8819,24.9063 320.5694,25.9844 Q321.2569,27.0469 322.6006,27.0469 Q323.2256,27.0469 323.8194,26.7813 Q324.4131,26.5 325.0381,25.9219 L325.0381,28.6406 Z " fill="#000000"/><text fill="#000000" font-family="sans-serif" font-size="14" lengthAdjust="spacing" textLength="128.3584" x="342.5694" y="27.8467">HealthcareService</text><line style="stroke:#181818;stroke-width:0.5;" x1="277.46" x2="503.5371" y1="39" y2="39"/><text fill="#000000" font-family="sans-serif" font-size="14" lengthAdjust="spacing" textLength="197.1143" x="282.46" y="55.9951">providedBy (1..1, MS, LDAP)</text><text fill="#000000" font-family="sans-serif" font-size="14" lengthAdjust="spacing" textLength="175.0615" x="282.46" y="72.292">speciality (0.., MS, LDAP)</text><text fill="#000000" font-family="sans-serif" font-size="14" lengthAdjust="spacing" textLength="164.0967" x="282.46" y="88.5889">location (0.., MS, LDAP)</text><text fill="#000000" font-family="sans-serif" font-size="14" lengthAdjust="spacing" textLength="102.751" x="282.46" y="104.8857">name (..1, MS)</text><text fill="#000000" font-family="sans-serif" font-size="14" lengthAdjust="spacing" textLength="119.5537" x="282.46" y="121.1826">telecom (0.., MS)</text><text fill="#000000" font-family="sans-serif" font-size="14" lengthAdjust="spacing" textLength="212.5977" x="282.46" y="137.4795">serviceProvisionCode (0.., MS)</text><text fill="#000000" font-family="sans-serif" font-size="14" lengthAdjust="spacing" textLength="171.3154" x="282.46" y="153.7764">communication (0.., MS)</text><text fill="#000000" font-family="sans-serif" font-size="14" lengthAdjust="spacing" textLength="216.0771" x="282.46" y="170.0732">appointmentRequired (..1, MS)</text><text fill="#000000" font-family="sans-serif" font-size="14" lengthAdjust="spacing" textLength="160.9316" x="282.46" y="186.3701">availableTime (0.., MS)</text><text fill="#000000" font-family="sans-serif" font-size="14" lengthAdjust="spacing" textLength="215.6191" x="282.46" y="202.667">availabilityExceptions (0.., MS)</text><text fill="#000000" font-family="sans-serif" font-size="14" lengthAdjust="spacing" textLength="125.125" x="282.46" y="218.9639">endpoint (0.., MS)</text><line style="stroke:#181818;stroke-width:0.5;" x1="277.46" x2="503.5371" y1="226.2656" y2="226.2656"/></g><!--class Endpoint--><g id="elem_Endpoint"><rect codeLine="15" fill="#F1F1F1" height="145.7813" id="Endpoint" rx="2.5" ry="2.5" style="stroke:#181818;stroke-width:0.5;" width="235.002" x="7" y="319.41"/><ellipse cx="89.0962" cy="335.41" fill="#C2C2C2" rx="11" ry="11" style="stroke:#181818;stroke-width:1;"/><path d="M92.0649,341.0506 Q91.4868,341.3475 90.8462,341.4881 Q90.2056,341.6444 89.5024,341.6444 Q87.0024,341.6444 85.6743,340.0037 Q84.3618,338.3475 84.3618,335.2225 Q84.3618,332.0975 85.6743,330.4412 Q87.0024,328.785 89.5024,328.785 Q90.2056,328.785 90.8462,328.9412 Q91.5024,329.0975 92.0649,329.3944 L92.0649,332.1131 Q91.4399,331.535 90.8462,331.2694 Q90.2524,330.9881 89.6274,330.9881 Q88.2837,330.9881 87.5962,332.0662 Q86.9087,333.1287 86.9087,335.2225 Q86.9087,337.3162 87.5962,338.3944 Q88.2837,339.4569 89.6274,339.4569 Q90.2524,339.4569 90.8462,339.1912 Q91.4399,338.91 92.0649,338.3319 L92.0649,341.0506 Z " fill="#000000"/><text fill="#000000" font-family="sans-serif" font-size="14" lengthAdjust="spacing" textLength="62.3096" x="109.5962" y="340.2567">Endpoint</text><line style="stroke:#181818;stroke-width:0.5;" x1="8" x2="241.002" y1="351.41" y2="351.41"/><text fill="#000000" font-family="sans-serif" font-size="14" lengthAdjust="spacing" textLength="114.9736" x="13" y="368.4051">status (1..1, MS)</text><text fill="#000000" font-family="sans-serif" font-size="14" lengthAdjust="spacing" textLength="183.4287" x="13" y="384.702">connectionType (1..1, MS)</text><text fill="#000000" font-family="sans-serif" font-size="14" lengthAdjust="spacing" textLength="111.6582" x="13" y="400.9989">name (1..1, MS)</text><text fill="#000000" font-family="sans-serif" font-size="14" lengthAdjust="spacing" textLength="223.002" x="13" y="417.2957">managingOrganization (0.., MS)</text><text fill="#000000" font-family="sans-serif" font-size="14" lengthAdjust="spacing" textLength="153.0566" x="13" y="433.5926">payloadType (1.., MS)</text><text fill="#000000" font-family="sans-serif" font-size="14" lengthAdjust="spacing" textLength="127.2646" x="13" y="449.8895">address (1..1, MS)</text><line style="stroke:#181818;stroke-width:0.5;" x1="8" x2="241.002" y1="457.1912" y2="457.1912"/></g><!--class Location--><g id="elem_Location"><rect codeLine="23" fill="#F1F1F1" height="145.7813" id="Location" rx="2.5" ry="2.5" style="stroke:#181818;stroke-width:0.5;" width="227.6191" x="276.69" y="319.41"/><ellipse cx="356.5201" cy="335.41" fill="#C2C2C2" rx="11" ry="11" style="stroke:#181818;stroke-width:1;"/><path d="M359.4888,341.0506 Q358.9107,341.3475 358.2701,341.4881 Q357.6295,341.6444 356.9263,341.6444 Q354.4263,341.6444 353.0982,340.0037 Q351.7857,338.3475 351.7857,335.2225 Q351.7857,332.0975 353.0982,330.4412 Q354.4263,328.785 356.9263,328.785 Q357.6295,328.785 358.2701,328.9412 Q358.9263,329.0975 359.4888,329.3944 L359.4888,332.1131 Q358.8638,331.535 358.2701,331.2694 Q357.6763,330.9881 357.0513,330.9881 Q355.7076,330.9881 355.0201,332.0662 Q354.3326,333.1287 354.3326,335.2225 Q354.3326,337.3162 355.0201,338.3944 Q355.7076,339.4569 357.0513,339.4569 Q357.6763,339.4569 358.2701,339.1912 Q358.8638,338.91 359.4888,338.3319 L359.4888,341.0506 Z " fill="#000000"/><text fill="#000000" font-family="sans-serif" font-size="14" lengthAdjust="spacing" textLength="59.459" x="377.0201" y="340.2567">Location</text><line style="stroke:#181818;stroke-width:0.5;" x1="277.69" x2="503.3091" y1="351.41" y2="351.41"/><text fill="#000000" font-family="sans-serif" font-size="14" lengthAdjust="spacing" textLength="102.751" x="282.69" y="368.4051">name (..1, MS)</text><text fill="#000000" font-family="sans-serif" font-size="14" lengthAdjust="spacing" textLength="149.7959" x="282.69" y="384.702">description (0..1, MS)</text><text fill="#000000" font-family="sans-serif" font-size="14" lengthAdjust="spacing" textLength="172.7646" x="282.69" y="400.9989">address (0..1, MS, LDAP)</text><text fill="#000000" font-family="sans-serif" font-size="14" lengthAdjust="spacing" textLength="127.4082" x="282.69" y="417.2957">position (0..1, MS)</text><text fill="#000000" font-family="sans-serif" font-size="14" lengthAdjust="spacing" textLength="188.0293" x="282.69" y="433.5926">hoursOfOperation (0.., MS)</text><text fill="#000000" font-family="sans-serif" font-size="14" lengthAdjust="spacing" textLength="215.6191" x="282.69" y="449.8895">availabilityExceptions (..1, MS)</text><line style="stroke:#181818;stroke-width:0.5;" x1="277.69" x2="503.3091" y1="457.1912" y2="457.1912"/></g><!--class Organization--><g id="elem_Organization"><rect codeLine="31" fill="#F1F1F1" height="162.0781" id="Organization" rx="2.5" ry="2.5" style="stroke:#181818;stroke-width:0.5;" width="183.377" x="538.81" y="311.26"/><ellipse cx="581.5426" cy="327.26" fill="#C2C2C2" rx="11" ry="11" style="stroke:#181818;stroke-width:1;"/><path d="M584.5113,332.9006 Q583.9332,333.1975 583.2926,333.3381 Q582.6519,333.4944 581.9488,333.4944 Q579.4488,333.4944 578.1207,331.8537 Q576.8082,330.1975 576.8082,327.0725 Q576.8082,323.9475 578.1207,322.2912 Q579.4488,320.635 581.9488,320.635 Q582.6519,320.635 583.2926,320.7912 Q583.9488,320.9475 584.5113,321.2444 L584.5113,323.9631 Q583.8863,323.385 583.2926,323.1194 Q582.6988,322.8381 582.0738,322.8381 Q580.7301,322.8381 580.0426,323.9162 Q579.3551,324.9787 579.3551,327.0725 Q579.3551,329.1662 580.0426,330.2444 Q580.7301,331.3069 582.0738,331.3069 Q582.6988,331.3069 583.2926,331.0412 Q583.8863,330.76 584.5113,330.1819 L584.5113,332.9006 Z " fill="#000000"/><text fill="#000000" font-family="sans-serif" font-size="14" lengthAdjust="spacing" textLength="89.749" x="601.7054" y="332.1067">Organization</text><line style="stroke:#181818;stroke-width:0.5;" x1="539.81" x2="721.187" y1="343.26" y2="343.26"/><text fill="#000000" font-family="sans-serif" font-size="14" lengthAdjust="spacing" textLength="171.377" x="544.81" y="360.2551">identifier (0.., MS, LDAP)</text><text fill="#000000" font-family="sans-serif" font-size="14" lengthAdjust="spacing" textLength="160.0088" x="544.81" y="376.552">active (1..1, MS, LDAP)</text><text fill="#000000" font-family="sans-serif" font-size="14" lengthAdjust="spacing" textLength="148.7295" x="544.81" y="392.8489">type (1..1, MS, LDAP)</text><text fill="#000000" font-family="sans-serif" font-size="14" lengthAdjust="spacing" textLength="157.1582" x="544.81" y="409.1457">name (1..1, MS, LDAP)</text><text fill="#000000" font-family="sans-serif" font-size="14" lengthAdjust="spacing" textLength="140.7793" x="544.81" y="425.4426">alias (0.., MS, LDAP)</text><text fill="#000000" font-family="sans-serif" font-size="14" lengthAdjust="spacing" textLength="119.5537" x="544.81" y="441.7395">telecom (0.., MS)</text><text fill="#000000" font-family="sans-serif" font-size="14" lengthAdjust="spacing" textLength="115.4385" x="544.81" y="458.0364">contact (0.., MS)</text><line style="stroke:#181818;stroke-width:0.5;" x1="539.81" x2="721.187" y1="465.3381" y2="465.3381"/></g><!--reverse link HealthcareService to Organization--><g id="link_HealthcareService_Organization"><path codeLine="41" d="M498.8691,243.3929 C521.7391,269.0829 537.6,286.91 558.97,310.93 " fill="none" id="HealthcareService-backto-Organization" style="stroke:#181818;stroke-width:1;"/><polygon fill="none" points="490.89,234.43,491.8919,241.5712,498.8691,243.3929,497.8672,236.2518,490.89,234.43" style="stroke:#181818;stroke-width:1;"/><text fill="#000000" font-family="sans-serif" font-size="13" lengthAdjust="spacing" textLength="73.9692" x="533" y="277.3269">providedBy</text></g><!--reverse link HealthcareService to Endpoint--><g id="link_HealthcareService_Endpoint"><path codeLine="42" d="M270.8047,242.9749 C242.6247,271.5549 221.52,292.94 195.9,318.91 " fill="none" id="HealthcareService-backto-Endpoint" style="stroke:#181818;stroke-width:1;"/><polygon fill="none" points="279.23,234.43,272.1691,235.894,270.8047,242.9749,277.8657,241.5109,279.23,234.43" style="stroke:#181818;stroke-width:1;"/><text fill="#000000" font-family="sans-serif" font-size="13" lengthAdjust="spacing" textLength="57.6431" x="250.53" y="277.3269">endpoint</text></g><!--reverse link HealthcareService to Location--><g id="link_HealthcareService_Location"><path codeLine="43" d="M390.5,246.43 C390.5,275.01 390.5,292.94 390.5,318.91 " fill="none" id="HealthcareService-backto-Location" style="stroke:#181818;stroke-width:1;"/><polygon fill="none" points="390.5,234.43,386.5,240.43,390.5,246.43,394.5,240.43,390.5,234.43" style="stroke:#181818;stroke-width:1;"/><text fill="#000000" font-family="sans-serif" font-size="13" lengthAdjust="spacing" textLength="51.5811" x="391.5" y="277.3269">location</text></g><!--SRC=[ZLJBRi8m4BpdAtoa4aHmvTO7KWzKeC8FREq5LlMhjXEL8lwzJY5fKkAensWdExCxi_Rlf2quK4mPRVZ16OKik08pBi5xzemWmu63mmswaZYoKyROQKSenPbPPqeIA1wER3JByzcOlMp6RFbqlxvheRn5JY0fHDGqp_j1qd08PFG0H4FKDhhIj0i19NAZcbyxv1VPwqgfZ_qVZS1UO6oW2ar_LBGHOAqX7HJgy8eV1JaKlNAW19Bm9d5Bgf_hYg1g9ujFZhRYzBrGrEA7jLKyNxrPrAMs9Jv0AFol7TqHjKPUSMsF5linboNtLHHes9FUhzmUD7sbzsJXA0s8XkDcUY4S-ex6UgHbdOBJVtmNwBaZsmYP9PccoN1QuodTu60AvrUxbKKta8k4cpVJTJRNdZ3Ua0uKFzn0_24wL-BGeOMEgwa3IjVZZO8VK31qPp5R8Ihin3IxVJtCPD9PmxprXYJWTSpdpIqaW7LuvirZadq3]--></g></svg>