<?plantuml 1.2026.0?><svg xmlns="http://www.w3.org/2000/svg" xmlns:xlink="http://www.w3.org/1999/xlink" contentStyleType="text/css" data-diagram-type="CLASS" height="294px" preserveAspectRatio="none" style="width:462px;height:294px;background:#FFFFFF;" version="1.1" viewBox="0 0 462 294" width="462px" zoomAndPan="magnify"><defs/><g><!--class Organization--><g class="entity" data-qualified-name="Organization" data-source-line="2" id="ent0002"><rect fill="#F1F1F1" height="48" rx="2.5" ry="2.5" style="stroke:#181818;stroke-width:0.5;" width="121.749" x="189.28" y="7"/><ellipse cx="204.28" cy="23" fill="#ADD1B2" rx="11" ry="11" style="stroke:#181818;stroke-width:1;"/><path d="M207.2488,28.6406 Q206.6706,28.9375 206.03,29.0781 Q205.3894,29.2344 204.6863,29.2344 Q202.1863,29.2344 200.8581,27.5938 Q199.5456,25.9375 199.5456,22.8125 Q199.5456,19.6875 200.8581,18.0313 Q202.1863,16.375 204.6863,16.375 Q205.3894,16.375 206.03,16.5313 Q206.6863,16.6875 207.2488,16.9844 L207.2488,19.7031 Q206.6238,19.125 206.03,18.8594 Q205.4363,18.5781 204.8113,18.5781 Q203.4675,18.5781 202.78,19.6563 Q202.0925,20.7188 202.0925,22.8125 Q202.0925,24.9063 202.78,25.9844 Q203.4675,27.0469 204.8113,27.0469 Q205.4363,27.0469 206.03,26.7813 Q206.6238,26.5 207.2488,25.9219 L207.2488,28.6406 Z " fill="#000000"/><text fill="#000000" font-family="sans-serif" font-size="14" lengthAdjust="spacing" textLength="89.749" x="218.28" y="27.8467">Organization</text><line style="stroke:#181818;stroke-width:0.5;" x1="190.28" x2="310.029" y1="39" y2="39"/><line style="stroke:#181818;stroke-width:0.5;" x1="190.28" x2="310.029" y1="47" y2="47"/></g><!--class HealthcareService--><g class="entity" data-qualified-name="HealthcareService" data-source-line="6" id="ent0003"><rect fill="#F1F1F1" height="64.2969" rx="2.5" ry="2.5" style="stroke:#181818;stroke-width:0.5;" width="178.5303" x="50.89" y="115"/><ellipse cx="74.0673" cy="131" fill="#ADD1B2" rx="11" ry="11" style="stroke:#181818;stroke-width:1;"/><path d="M77.0361,136.6406 Q76.458,136.9375 75.8173,137.0781 Q75.1767,137.2344 74.4736,137.2344 Q71.9736,137.2344 70.6455,135.5938 Q69.333,133.9375 69.333,130.8125 Q69.333,127.6875 70.6455,126.0313 Q71.9736,124.375 74.4736,124.375 Q75.1767,124.375 75.8173,124.5313 Q76.4736,124.6875 77.0361,124.9844 L77.0361,127.7031 Q76.4111,127.125 75.8173,126.8594 Q75.2236,126.5781 74.5986,126.5781 Q73.2548,126.5781 72.5673,127.6563 Q71.8798,128.7188 71.8798,130.8125 Q71.8798,132.9063 72.5673,133.9844 Q73.2548,135.0469 74.5986,135.0469 Q75.2236,135.0469 75.8173,134.7813 Q76.4111,134.5 77.0361,133.9219 L77.0361,136.6406 Z " fill="#000000"/><text fill="#000000" font-family="sans-serif" font-size="14" lengthAdjust="spacing" textLength="128.3584" x="89.8845" y="135.8467">HealthcareService</text><line style="stroke:#181818;stroke-width:0.5;" x1="51.89" x2="228.4203" y1="147" y2="147"/><text fill="#000000" font-family="sans-serif" font-size="14" lengthAdjust="spacing" textLength="166.5303" x="56.89" y="163.9951">meta.tag.origin ("ldap")</text><line style="stroke:#181818;stroke-width:0.5;" x1="51.89" x2="228.4203" y1="171.2969" y2="171.2969"/></g><!--class HealthcareService_n--><g class="entity" data-qualified-name="HealthcareService_n" data-source-line="10" id="ent0004"><rect fill="#F1F1F1" height="64.2969" rx="2.5" ry="2.5" style="stroke:#181818;stroke-width:0.5;" width="191.5459" x="264.38" y="115"/><ellipse cx="286.2715" cy="131" fill="#ADD1B2" rx="11" ry="11" style="stroke:#181818;stroke-width:1;"/><path d="M289.2403,136.6406 Q288.6621,136.9375 288.0215,137.0781 Q287.3809,137.2344 286.6778,137.2344 Q284.1778,137.2344 282.8496,135.5938 Q281.5371,133.9375 281.5371,130.8125 Q281.5371,127.6875 282.8496,126.0313 Q284.1778,124.375 286.6778,124.375 Q287.3809,124.375 288.0215,124.5313 Q288.6778,124.6875 289.2403,124.9844 L289.2403,127.7031 Q288.6153,127.125 288.0215,126.8594 Q287.4278,126.5781 286.8028,126.5781 Q285.459,126.5781 284.7715,127.6563 Q284.084,128.7188 284.084,130.8125 Q284.084,132.9063 284.7715,133.9844 Q285.459,135.0469 286.8028,135.0469 Q287.4278,135.0469 288.0215,134.7813 Q288.6153,134.5 289.2403,133.9219 L289.2403,136.6406 Z " fill="#000000"/><text fill="#000000" font-family="sans-serif" font-size="14" lengthAdjust="spacing" textLength="144.2314" x="301.8029" y="135.8467">HealthcareService_n</text><line style="stroke:#181818;stroke-width:0.5;" x1="265.38" x2="454.9259" y1="147" y2="147"/><text fill="#000000" font-family="sans-serif" font-size="14" lengthAdjust="spacing" textLength="179.5459" x="270.38" y="163.9951">meta.tag.origin ("owner")</text><line style="stroke:#181818;stroke-width:0.5;" x1="265.38" x2="454.9259" y1="171.2969" y2="171.2969"/></g><!--class Endpoint--><g class="entity" data-qualified-name="Endpoint" data-source-line="14" id="ent0005"><rect fill="#F1F1F1" height="48" rx="2.5" ry="2.5" style="stroke:#181818;stroke-width:0.5;" width="94.3096" x="7" y="239.3"/><ellipse cx="22" cy="255.3" fill="#ADD1B2" rx="11" ry="11" style="stroke:#181818;stroke-width:1;"/><path d="M24.9688,260.9406 Q24.3906,261.2375 23.75,261.3781 Q23.1094,261.5344 22.4063,261.5344 Q19.9063,261.5344 18.5781,259.8938 Q17.2656,258.2375 17.2656,255.1125 Q17.2656,251.9875 18.5781,250.3313 Q19.9063,248.675 22.4063,248.675 Q23.1094,248.675 23.75,248.8313 Q24.4063,248.9875 24.9688,249.2844 L24.9688,252.0031 Q24.3438,251.425 23.75,251.1594 Q23.1563,250.8781 22.5313,250.8781 Q21.1875,250.8781 20.5,251.9563 Q19.8125,253.0188 19.8125,255.1125 Q19.8125,257.2063 20.5,258.2844 Q21.1875,259.3469 22.5313,259.3469 Q23.1563,259.3469 23.75,259.0813 Q24.3438,258.8 24.9688,258.2219 L24.9688,260.9406 Z " fill="#000000"/><text fill="#000000" font-family="sans-serif" font-size="14" lengthAdjust="spacing" textLength="62.3096" x="36" y="260.1467">Endpoint</text><line style="stroke:#181818;stroke-width:0.5;" x1="8" x2="100.3096" y1="271.3" y2="271.3"/><line style="stroke:#181818;stroke-width:0.5;" x1="8" x2="100.3096" y1="279.3" y2="279.3"/></g><!--class Location--><g class="entity" data-qualified-name="Location" data-source-line="17" id="ent0006"><rect fill="#F1F1F1" height="48" rx="2.5" ry="2.5" style="stroke:#181818;stroke-width:0.5;" width="91.459" x="136.43" y="239.3"/><ellipse cx="151.43" cy="255.3" fill="#ADD1B2" rx="11" ry="11" style="stroke:#181818;stroke-width:1;"/><path d="M154.3988,260.9406 Q153.8206,261.2375 153.18,261.3781 Q152.5394,261.5344 151.8363,261.5344 Q149.3363,261.5344 148.0081,259.8938 Q146.6956,258.2375 146.6956,255.1125 Q146.6956,251.9875 148.0081,250.3313 Q149.3363,248.675 151.8363,248.675 Q152.5394,248.675 153.18,248.8313 Q153.8363,248.9875 154.3988,249.2844 L154.3988,252.0031 Q153.7738,251.425 153.18,251.1594 Q152.5863,250.8781 151.9613,250.8781 Q150.6175,250.8781 149.93,251.9563 Q149.2425,253.0188 149.2425,255.1125 Q149.2425,257.2063 149.93,258.2844 Q150.6175,259.3469 151.9613,259.3469 Q152.5863,259.3469 153.18,259.0813 Q153.7738,258.8 154.3988,258.2219 L154.3988,260.9406 Z " fill="#000000"/><text fill="#000000" font-family="sans-serif" font-size="14" lengthAdjust="spacing" textLength="59.459" x="165.43" y="260.1467">Location</text><line style="stroke:#181818;stroke-width:0.5;" x1="137.43" x2="226.889" y1="271.3" y2="271.3"/><line style="stroke:#181818;stroke-width:0.5;" x1="137.43" x2="226.889" y1="279.3" y2="279.3"/></g><!--class Endpoint_n--><g class="entity" data-qualified-name="Endpoint_n" data-source-line="25" id="ent0011"><rect fill="#F1F1F1" height="48" rx="2.5" ry="2.5" style="stroke:#181818;stroke-width:0.5;" width="110.1826" x="305.06" y="239.3"/><ellipse cx="320.06" cy="255.3" fill="#ADD1B2" rx="11" ry="11" style="stroke:#181818;stroke-width:1;"/><path d="M323.0288,260.9406 Q322.4506,261.2375 321.81,261.3781 Q321.1694,261.5344 320.4663,261.5344 Q317.9663,261.5344 316.6381,259.8938 Q315.3256,258.2375 315.3256,255.1125 Q315.3256,251.9875 316.6381,250.3313 Q317.9663,248.675 320.4663,248.675 Q321.1694,248.675 321.81,248.8313 Q322.4663,248.9875 323.0288,249.2844 L323.0288,252.0031 Q322.4038,251.425 321.81,251.1594 Q321.2163,250.8781 320.5913,250.8781 Q319.2475,250.8781 318.56,251.9563 Q317.8725,253.0188 317.8725,255.1125 Q317.8725,257.2063 318.56,258.2844 Q319.2475,259.3469 320.5913,259.3469 Q321.2163,259.3469 321.81,259.0813 Q322.4038,258.8 323.0288,258.2219 L323.0288,260.9406 Z " fill="#000000"/><text fill="#000000" font-family="sans-serif" font-size="14" lengthAdjust="spacing" textLength="78.1826" x="334.06" y="260.1467">Endpoint_n</text><line style="stroke:#181818;stroke-width:0.5;" x1="306.06" x2="414.2426" y1="271.3" y2="271.3"/><line style="stroke:#181818;stroke-width:0.5;" x1="306.06" x2="414.2426" y1="279.3" y2="279.3"/></g><!--reverse link Organization to HealthcareService--><g class="link" data-entity-1="ent0002" data-entity-2="ent0003" data-link-type="dependency" data-source-line="20" id="lnk7"><path codeLine="20" d="M223.4664,59.7003 C206.9964,76.7903 188.64,95.84 170.58,114.58" fill="none" id="Organization-backto-HealthcareService" style="stroke:#181818;stroke-width:1;"/><polygon fill="#181818" points="227.63,55.38,218.5045,59.0847,224.1604,58.9802,224.2649,64.6361,227.63,55.38" style="stroke:#181818;stroke-width:1;"/></g><!--link HealthcareService to Endpoint--><g class="link" data-entity-1="ent0003" data-entity-2="ent0005" data-link-type="dependency" data-source-line="21" id="lnk8"><path codeLine="21" d="M116.43,179.65 C102.31,198.39 88.3003,216.9777 75.4103,234.0877" fill="none" id="HealthcareService-to-Endpoint" style="stroke:#181818;stroke-width:1;"/><polygon fill="#181818" points="71.8,238.88,80.4103,234.0985,74.8086,234.8865,74.0206,229.2847,71.8,238.88" style="stroke:#181818;stroke-width:1;"/></g><!--link HealthcareService to Location--><g class="link" data-entity-1="ent0003" data-entity-2="ent0006" data-link-type="dependency" data-source-line="22" id="lnk9"><path codeLine="22" d="M151.74,179.65 C158.64,198.39 165.1668,216.1395 171.4668,233.2495" fill="none" id="HealthcareService-to-Location" style="stroke:#181818;stroke-width:1;"/><polygon fill="#181818" points="173.54,238.88,174.1839,229.0522,171.8124,234.188,166.6766,231.8164,173.54,238.88" style="stroke:#181818;stroke-width:1;"/></g><!--reverse link Organization to HealthcareService_n--><g class="link" data-entity-1="ent0002" data-entity-2="ent0004" data-link-type="dependency" data-source-line="24" id="lnk10"><path codeLine="24" d="M276.8436,59.7003 C293.3136,76.7903 311.67,95.84 329.73,114.58" fill="none" id="Organization-backto-HealthcareService_n" style="stroke:#181818;stroke-width:1;"/><polygon fill="#181818" points="272.68,55.38,276.0451,64.6361,276.1496,58.9802,281.8055,59.0847,272.68,55.38" style="stroke:#181818;stroke-width:1;"/></g><!--link HealthcareService_n to Endpoint_n--><g class="link" data-entity-1="ent0004" data-entity-2="ent0011" data-link-type="dependency" data-source-line="25" id="lnk12"><path codeLine="25" d="M360.15,179.65 C360.15,198.39 360.15,215.77 360.15,232.88" fill="none" id="HealthcareService_n-to-Endpoint_n" style="stroke:#181818;stroke-width:1;"/><polygon fill="#181818" points="360.15,238.88,364.15,229.88,360.15,233.88,356.15,229.88,360.15,238.88" style="stroke:#181818;stroke-width:1;"/></g><?plantuml-src ZO_D2i9038JlUOhGanwsJo3U10-21n-WX6rS0sksR1S5Iz_TLQm_rABNJEQR6GJhgMrn6nsfN2X9KEm0Ui27icRowM0fyexZIInd6R7R2_kwnoCdAXEvCaHneZWhV4rDCS-0AN-bFmZXh1plYA73IkicYAPiV1qtmGvrRyUF1GjZni4mdcBCyWcVa8UOlo8gXMzxtsFo2-0L?></g></svg>