<svg xmlns="http://www.w3.org/2000/svg" xmlns:xlink="http://www.w3.org/1999/xlink" contentStyleType="text/css" data-diagram-type="CLASS" height="685px" preserveAspectRatio="none" style="width:838px;height:685px;background:#FFFFFF;" version="1.1" viewBox="0 0 838 685" width="838px" zoomAndPan="magnify"><defs/><g><!--class Organization--><g class="entity" data-entity="Organization" data-source-line="2" data-uid="ent0002" id="entity_Organization"><rect fill="#F1F1F1" height="178.375" rx="2.5" ry="2.5" style="stroke:#181818;stroke-width:0.5;" width="237.4902" x="397.97" y="7"/><ellipse cx="467.5906" cy="23" fill="#ADD1B2" rx="11" ry="11" style="stroke:#181818;stroke-width:1;"/><path d="M470.5594,28.6406 Q469.9812,28.9375 469.3406,29.0781 Q468.7,29.2344 467.9969,29.2344 Q465.4969,29.2344 464.1687,27.5938 Q462.8562,25.9375 462.8562,22.8125 Q462.8562,19.6875 464.1687,18.0313 Q465.4969,16.375 467.9969,16.375 Q468.7,16.375 469.3406,16.5313 Q469.9969,16.6875 470.5594,16.9844 L470.5594,19.7031 Q469.9344,19.125 469.3406,18.8594 Q468.7469,18.5781 468.1219,18.5781 Q466.7781,18.5781 466.0906,19.6563 Q465.4031,20.7188 465.4031,22.8125 Q465.4031,24.9063 466.0906,25.9844 Q466.7781,27.0469 468.1219,27.0469 Q468.7469,27.0469 469.3406,26.7813 Q469.9344,26.5 470.5594,25.9219 L470.5594,28.6406 Z " fill="#000000"/><text fill="#000000" font-family="sans-serif" font-size="14" lengthAdjust="spacing" textLength="89.749" x="488.0906" y="27.8467">Organization</text><line style="stroke:#181818;stroke-width:0.5;" x1="398.97" x2="634.4602" y1="39" y2="39"/><text fill="#000000" font-family="sans-serif" font-size="14" lengthAdjust="spacing" textLength="178.377" x="403.97" y="55.9951">identifier (1..*, MS, LDAP)</text><text fill="#000000" font-family="sans-serif" font-size="14" lengthAdjust="spacing" textLength="160.0088" x="403.97" y="72.292">active (1..1, MS, LDAP)</text><text fill="#000000" font-family="sans-serif" font-size="14" lengthAdjust="spacing" textLength="142.3721" x="403.97" y="88.5889">type(1..*, MS, LDAP)</text><text fill="#000000" font-family="sans-serif" font-size="14" lengthAdjust="spacing" textLength="157.1582" x="403.97" y="104.8857">name (1..1, MS, LDAP)</text><text fill="#000000" font-family="sans-serif" font-size="14" lengthAdjust="spacing" textLength="102.2793" x="403.97" y="121.1826">alias (0..*, MS)</text><text fill="#000000" font-family="sans-serif" font-size="14" lengthAdjust="spacing" textLength="126.5537" x="403.97" y="137.4795">telecom (0..*, MS)</text><text fill="#000000" font-family="sans-serif" font-size="14" lengthAdjust="spacing" textLength="115.4385" x="403.97" y="153.7764">contact (0.., MS)</text><text fill="#000000" font-family="sans-serif" font-size="14" lengthAdjust="spacing" textLength="225.4902" x="403.97" y="170.0732">meta.tag.origin (1..1, MS, LDAP)</text><line style="stroke:#181818;stroke-width:0.5;" x1="398.97" x2="634.4602" y1="177.375" y2="177.375"/></g><!--class HealthcareService--><g class="entity" data-entity="HealthcareService" data-source-line="13" data-uid="ent0003" id="entity_HealthcareService"><rect fill="#F1F1F1" height="194.6719" rx="2.5" ry="2.5" style="stroke:#181818;stroke-width:0.5;" width="273.249" x="250.09" y="245.37"/><ellipse cx="318.2853" cy="261.37" fill="#ADD1B2" rx="11" ry="11" style="stroke:#181818;stroke-width:1;"/><path d="M321.2541,267.0106 Q320.6759,267.3075 320.0353,267.4481 Q319.3947,267.6044 318.6916,267.6044 Q316.1916,267.6044 314.8634,265.9637 Q313.5509,264.3075 313.5509,261.1825 Q313.5509,258.0575 314.8634,256.4012 Q316.1916,254.745 318.6916,254.745 Q319.3947,254.745 320.0353,254.9012 Q320.6916,255.0575 321.2541,255.3544 L321.2541,258.0731 Q320.6291,257.495 320.0353,257.2294 Q319.4416,256.9481 318.8166,256.9481 Q317.4728,256.9481 316.7853,258.0262 Q316.0978,259.0887 316.0978,261.1825 Q316.0978,263.2762 316.7853,264.3544 Q317.4728,265.4169 318.8166,265.4169 Q319.4416,265.4169 320.0353,265.1512 Q320.6291,264.87 321.2541,264.2919 L321.2541,267.0106 Z " fill="#000000"/><text fill="#000000" font-family="sans-serif" font-size="14" lengthAdjust="spacing" textLength="128.3584" x="338.7853" y="266.2167">HealthcareService</text><line style="stroke:#181818;stroke-width:0.5;" x1="251.09" x2="522.339" y1="277.37" y2="277.37"/><text fill="#000000" font-family="sans-serif" font-size="14" lengthAdjust="spacing" textLength="132.877" x="256.09" y="294.3651">identifier (1..*, MS)</text><text fill="#000000" font-family="sans-serif" font-size="14" lengthAdjust="spacing" textLength="247.543" x="256.09" y="310.662">providedBy (1..1, MS, LDAP/Owner)</text><text fill="#000000" font-family="sans-serif" font-size="14" lengthAdjust="spacing" textLength="232.4902" x="256.09" y="326.9589">speciality (0..*, MS, LDAP/Owner)</text><text fill="#000000" font-family="sans-serif" font-size="14" lengthAdjust="spacing" textLength="221.5254" x="256.09" y="343.2557">location (0..*, MS, LDAP/Owner)</text><text fill="#000000" font-family="sans-serif" font-size="14" lengthAdjust="spacing" textLength="111.6582" x="256.09" y="359.5526">name (0..1, MS)</text><text fill="#000000" font-family="sans-serif" font-size="14" lengthAdjust="spacing" textLength="132.125" x="256.09" y="375.8495">endpoint (0..*, MS)</text><text fill="#000000" font-family="sans-serif" font-size="14" lengthAdjust="spacing" textLength="225.4902" x="256.09" y="392.1464">meta.tag.origin (1..1, MS, LDAP)</text><text fill="#000000" font-family="sans-serif" font-size="14" lengthAdjust="spacing" textLength="227.4385" x="256.09" y="408.4432">meta.security.ownerId (1..*, MS)</text><text fill="#000000" font-family="sans-serif" font-size="14" lengthAdjust="spacing" textLength="261.249" x="256.09" y="424.7401">meta.security.holder (1..*, MS, LDAP)</text><line style="stroke:#181818;stroke-width:0.5;" x1="251.09" x2="522.339" y1="432.0419" y2="432.0419"/></g><!--class Endpoint--><g class="entity" data-entity="Endpoint" data-source-line="25" data-uid="ent0004" id="entity_Endpoint"><rect fill="#F1F1F1" height="178.375" rx="2.5" ry="2.5" style="stroke:#181818;stroke-width:0.5;" width="239.4385" x="7" y="500.04"/><ellipse cx="91.3145" cy="516.04" fill="#ADD1B2" rx="11" ry="11" style="stroke:#181818;stroke-width:1;"/><path d="M94.2832,521.6806 Q93.7051,521.9775 93.0645,522.1181 Q92.4238,522.2744 91.7207,522.2744 Q89.2207,522.2744 87.8926,520.6338 Q86.5801,518.9775 86.5801,515.8525 Q86.5801,512.7275 87.8926,511.0712 Q89.2207,509.415 91.7207,509.415 Q92.4238,509.415 93.0645,509.5712 Q93.7207,509.7275 94.2832,510.0244 L94.2832,512.7431 Q93.6582,512.165 93.0645,511.8994 Q92.4707,511.6181 91.8457,511.6181 Q90.502,511.6181 89.8145,512.6963 Q89.127,513.7588 89.127,515.8525 Q89.127,517.9463 89.8145,519.0244 Q90.502,520.0869 91.8457,520.0869 Q92.4707,520.0869 93.0645,519.8213 Q93.6582,519.54 94.2832,518.9619 L94.2832,521.6806 Z " fill="#000000"/><text fill="#000000" font-family="sans-serif" font-size="14" lengthAdjust="spacing" textLength="62.3096" x="111.8145" y="520.8867">Endpoint</text><line style="stroke:#181818;stroke-width:0.5;" x1="8" x2="245.4385" y1="532.04" y2="532.04"/><text fill="#000000" font-family="sans-serif" font-size="14" lengthAdjust="spacing" textLength="132.877" x="13" y="549.0351">identifier (1..*, MS)</text><text fill="#000000" font-family="sans-serif" font-size="14" lengthAdjust="spacing" textLength="113.0664" x="13" y="565.332">status (0..*, MS)</text><text fill="#000000" font-family="sans-serif" font-size="14" lengthAdjust="spacing" textLength="181.5215" x="13" y="581.6289">connectionType (0..*, MS)</text><text fill="#000000" font-family="sans-serif" font-size="14" lengthAdjust="spacing" textLength="111.6582" x="13" y="597.9257">name (0..1, MS)</text><text fill="#000000" font-family="sans-serif" font-size="14" lengthAdjust="spacing" textLength="160.0566" x="13" y="614.2226">payloadType (1..*, MS)</text><text fill="#000000" font-family="sans-serif" font-size="14" lengthAdjust="spacing" textLength="127.2646" x="13" y="630.5195">address (1..1, MS)</text><text fill="#000000" font-family="sans-serif" font-size="14" lengthAdjust="spacing" textLength="179.9902" x="13" y="646.8164">meta.tag.origin (1..1, MS)</text><text fill="#000000" font-family="sans-serif" font-size="14" lengthAdjust="spacing" textLength="227.4385" x="13" y="663.1132">meta.security.ownerId (1..*, MS)</text><line style="stroke:#181818;stroke-width:0.5;" x1="8" x2="245.4385" y1="670.415" y2="670.415"/></g><!--class Location--><g class="entity" data-entity="Location" data-source-line="36" data-uid="ent0005" id="entity_Location"><rect fill="#F1F1F1" height="96.8906" rx="2.5" ry="2.5" style="stroke:#181818;stroke-width:0.5;" width="237.4902" x="280.97" y="540.79"/><ellipse cx="365.7356" cy="556.79" fill="#ADD1B2" rx="11" ry="11" style="stroke:#181818;stroke-width:1;"/><path d="M368.7044,562.4306 Q368.1263,562.7275 367.4856,562.8681 Q366.845,563.0244 366.1419,563.0244 Q363.6419,563.0244 362.3138,561.3838 Q361.0013,559.7275 361.0013,556.6025 Q361.0013,553.4775 362.3138,551.8213 Q363.6419,550.165 366.1419,550.165 Q366.845,550.165 367.4856,550.3213 Q368.1419,550.4775 368.7044,550.7744 L368.7044,553.4931 Q368.0794,552.915 367.4856,552.6494 Q366.8919,552.3681 366.2669,552.3681 Q364.9231,552.3681 364.2356,553.4463 Q363.5481,554.5088 363.5481,556.6025 Q363.5481,558.6963 364.2356,559.7744 Q364.9231,560.8369 366.2669,560.8369 Q366.8919,560.8369 367.4856,560.5713 Q368.0794,560.29 368.7044,559.7119 L368.7044,562.4306 Z " fill="#000000"/><text fill="#000000" font-family="sans-serif" font-size="14" lengthAdjust="spacing" textLength="59.459" x="386.2356" y="561.6367">Location</text><line style="stroke:#181818;stroke-width:0.5;" x1="281.97" x2="517.4602" y1="572.79" y2="572.79"/><text fill="#000000" font-family="sans-serif" font-size="14" lengthAdjust="spacing" textLength="178.377" x="286.97" y="589.7851">identifier (1..*, MS, LDAP)</text><text fill="#000000" font-family="sans-serif" font-size="14" lengthAdjust="spacing" textLength="172.7646" x="286.97" y="606.082">address (0..1, MS, LDAP)</text><text fill="#000000" font-family="sans-serif" font-size="14" lengthAdjust="spacing" textLength="225.4902" x="286.97" y="622.3789">meta.tag.origin (1..1, MS, LDAP)</text><line style="stroke:#181818;stroke-width:0.5;" x1="281.97" x2="517.4602" y1="629.6806" y2="629.6806"/></g><!--class HealthcareService_n--><g class="entity" data-entity="HealthcareService_n" data-source-line="46" data-uid="ent0009" id="entity_HealthcareService_n"><rect fill="#F1F1F1" height="48" rx="2.5" ry="2.5" style="stroke:#181818;stroke-width:0.5;" width="176.2314" x="558.6" y="318.71"/><ellipse cx="573.6" cy="334.71" fill="#ADD1B2" rx="11" ry="11" style="stroke:#181818;stroke-width:1;"/><path d="M576.5688,340.3506 Q575.9906,340.6475 575.35,340.7881 Q574.7094,340.9444 574.0063,340.9444 Q571.5063,340.9444 570.1781,339.3038 Q568.8656,337.6475 568.8656,334.5225 Q568.8656,331.3975 570.1781,329.7413 Q571.5063,328.085 574.0063,328.085 Q574.7094,328.085 575.35,328.2413 Q576.0063,328.3975 576.5688,328.6944 L576.5688,331.4131 Q575.9438,330.835 575.35,330.5694 Q574.7563,330.2881 574.1313,330.2881 Q572.7875,330.2881 572.1,331.3663 Q571.4125,332.4288 571.4125,334.5225 Q571.4125,336.6163 572.1,337.6944 Q572.7875,338.7569 574.1313,338.7569 Q574.7563,338.7569 575.35,338.4913 Q575.9438,338.21 576.5688,337.6319 L576.5688,340.3506 Z " fill="#000000"/><text fill="#000000" font-family="sans-serif" font-size="14" lengthAdjust="spacing" textLength="144.2314" x="587.6" y="339.5567">HealthcareService_n</text><line style="stroke:#181818;stroke-width:0.5;" x1="559.6" x2="733.8314" y1="350.71" y2="350.71"/><line style="stroke:#181818;stroke-width:0.5;" x1="559.6" x2="733.8314" y1="358.71" y2="358.71"/></g><!--class Endpoint_n--><g class="entity" data-entity="Endpoint_n" data-source-line="47" data-uid="ent0011" id="entity_Endpoint_n"><rect fill="#F1F1F1" height="48" rx="2.5" ry="2.5" style="stroke:#181818;stroke-width:0.5;" width="110.1826" x="578.63" y="565.23"/><ellipse cx="593.63" cy="581.23" fill="#ADD1B2" rx="11" ry="11" style="stroke:#181818;stroke-width:1;"/><path d="M596.5988,586.8706 Q596.0206,587.1675 595.38,587.3081 Q594.7394,587.4644 594.0363,587.4644 Q591.5363,587.4644 590.2081,585.8237 Q588.8956,584.1675 588.8956,581.0425 Q588.8956,577.9175 590.2081,576.2612 Q591.5363,574.605 594.0363,574.605 Q594.7394,574.605 595.38,574.7612 Q596.0363,574.9175 596.5988,575.2144 L596.5988,577.9331 Q595.9738,577.355 595.38,577.0894 Q594.7863,576.8081 594.1613,576.8081 Q592.8175,576.8081 592.13,577.8862 Q591.4425,578.9487 591.4425,581.0425 Q591.4425,583.1362 592.13,584.2144 Q592.8175,585.2769 594.1613,585.2769 Q594.7863,585.2769 595.38,585.0112 Q595.9738,584.73 596.5988,584.1519 L596.5988,586.8706 Z " fill="#000000"/><text fill="#000000" font-family="sans-serif" font-size="14" lengthAdjust="spacing" textLength="78.1826" x="607.63" y="586.0767">Endpoint_n</text><line style="stroke:#181818;stroke-width:0.5;" x1="579.63" x2="687.8126" y1="597.23" y2="597.23"/><line style="stroke:#181818;stroke-width:0.5;" x1="579.63" x2="687.8126" y1="605.23" y2="605.23"/></g><!--class Location_n--><g class="entity" data-entity="Location_n" data-source-line="48" data-uid="ent0013" id="entity_Location_n"><rect fill="#F1F1F1" height="48" rx="2.5" ry="2.5" style="stroke:#181818;stroke-width:0.5;" width="107.332" x="724.05" y="565.23"/><ellipse cx="739.05" cy="581.23" fill="#ADD1B2" rx="11" ry="11" style="stroke:#181818;stroke-width:1;"/><path d="M742.0188,586.8706 Q741.4406,587.1675 740.8,587.3081 Q740.1594,587.4644 739.4563,587.4644 Q736.9563,587.4644 735.6281,585.8237 Q734.3156,584.1675 734.3156,581.0425 Q734.3156,577.9175 735.6281,576.2612 Q736.9563,574.605 739.4563,574.605 Q740.1594,574.605 740.8,574.7612 Q741.4563,574.9175 742.0188,575.2144 L742.0188,577.9331 Q741.3938,577.355 740.8,577.0894 Q740.2063,576.8081 739.5813,576.8081 Q738.2375,576.8081 737.55,577.8862 Q736.8625,578.9487 736.8625,581.0425 Q736.8625,583.1362 737.55,584.2144 Q738.2375,585.2769 739.5813,585.2769 Q740.2063,585.2769 740.8,585.0112 Q741.3938,584.73 742.0188,584.1519 L742.0188,586.8706 Z " fill="#000000"/><text fill="#000000" font-family="sans-serif" font-size="14" lengthAdjust="spacing" textLength="75.332" x="753.05" y="586.0767">Location_n</text><line style="stroke:#181818;stroke-width:0.5;" x1="725.05" x2="830.382" y1="597.23" y2="597.23"/><line style="stroke:#181818;stroke-width:0.5;" x1="725.05" x2="830.382" y1="605.23" y2="605.23"/></g><!--reverse link Organization to HealthcareService--><g class="link" data-entity-1="Organization" data-entity-2="HealthcareService" data-source-line="42" data-uid="lnk6" id="link_Organization_HealthcareService"><path codeLine="42" d="M466.7845,191.1084 C456.5445,210.3784 448.47,225.56 438.07,245.12" fill="none" id="Organization-backto-HealthcareService" style="stroke:#181818;stroke-width:1;"/><polygon fill="#181818" points="469.6,185.81,461.8444,191.8805,467.2537,190.2253,468.9089,195.6346,469.6,185.81" style="stroke:#181818;stroke-width:1;"/></g><!--link HealthcareService to Endpoint--><g class="link" data-entity-1="HealthcareService" data-entity-2="Endpoint" data-source-line="43" data-uid="lnk7" id="link_HealthcareService_Endpoint"><path codeLine="43" d="M283.96,440.35 C263.09,459.97 245.6204,476.4091 225.0804,495.7291" fill="none" id="HealthcareService-to-Endpoint" style="stroke:#181818;stroke-width:1;"/><polygon fill="#181818" points="220.71,499.84,230.0062,496.5873,224.352,496.4143,224.5251,490.7601,220.71,499.84" style="stroke:#181818;stroke-width:1;"/></g><!--link HealthcareService to Location--><g class="link" data-entity-1="HealthcareService" data-entity-2="Location" data-source-line="44" data-uid="lnk8" id="link_HealthcareService_Location"><path codeLine="44" d="M391.86,440.35 C393.69,474.79 395.3507,506.0785 396.8707,534.5985" fill="none" id="HealthcareService-to-Location" style="stroke:#181818;stroke-width:1;"/><polygon fill="#181818" points="397.19,540.59,400.7053,531.3899,396.9239,535.5971,392.7167,531.8156,397.19,540.59" style="stroke:#181818;stroke-width:1;"/></g><!--reverse link Organization to HealthcareService_n--><g class="link" data-entity-1="Organization" data-entity-2="HealthcareService_n" data-source-line="46" data-uid="lnk10" id="link_Organization_HealthcareService_n"><path codeLine="46" d="M566.656,191.1081 C591.866,238.5381 618.16,287.99 634.3,318.35" fill="none" id="Organization-backto-HealthcareService_n" style="stroke:#181818;stroke-width:1;"/><polygon fill="#181818" points="563.84,185.81,564.532,195.6345,566.1867,190.2251,571.5961,191.8798,563.84,185.81" style="stroke:#181818;stroke-width:1;"/></g><!--link HealthcareService_n to Endpoint_n--><g class="link" data-entity-1="HealthcareService_n" data-entity-2="Endpoint_n" data-source-line="47" data-uid="lnk12" id="link_HealthcareService_n_Endpoint_n"><path codeLine="47" d="M645.47,367.15 C642.99,413.89 637.7583,512.1884 635.2783,558.8684" fill="none" id="HealthcareService_n-to-Endpoint_n" style="stroke:#181818;stroke-width:1;"/><polygon fill="#181818" points="634.96,564.86,639.4318,556.0849,635.2253,559.867,631.4431,555.6605,634.96,564.86" style="stroke:#181818;stroke-width:1;"/></g><!--link HealthcareService_n to Location_n--><g class="link" data-entity-1="HealthcareService_n" data-entity-2="Location_n" data-source-line="48" data-uid="lnk14" id="link_HealthcareService_n_Location_n"><path codeLine="48" d="M659.28,367.15 C684.32,413.89 737.3564,512.8913 762.3664,559.5713" fill="none" id="HealthcareService_n-to-Location_n" style="stroke:#181818;stroke-width:1;"/><polygon fill="#181818" points="765.2,564.86,764.4755,555.0378,762.8387,560.4527,757.4238,558.8159,765.2,564.86" style="stroke:#181818;stroke-width:1;"/></g><!--SRC=[dPHDJyCm38Rl_HKv3hIMxewGG221D3IaSKTMOhf8QL8bML6Pzj_9rdRzMDfk71k_oMi_jai2Ai0Oij89IFuBbYj9TW4Xks-EWkq9PoWjTn-Qp1PHT3idx-ivMJu_VjoqL40jp_6eMFWLjiXmv049wUXr41mCcSNL0vsNKI1LgJz8bRGkkMEm7qlHGcGXYPJc2PVdzlk0L7XU4OJTKD2uHfrpYfECsaQPLhdJiAUYxt6t-f6esrgJ8UMkMbiq1GrfXQ9bmoQL9Twuycv7KB9CSMdz-2OHzQG6wLQxt2DroE2D-NbqfHibc6-w6lelTOxNG3SMxDOCJeL4Ua3twSRIhnb6ba4X5B3ogiyQ6DFeyZxHkWZfLJ0RECjw2FwnjNMUyNXNftQay_Eu3yFpTGdE5oWC7qwD7GZNfLrayIK3prd7PaHIMpa9-GC0]--></g></svg>