<?xml version="1.0" encoding="us-ascii" standalone="no"?><svg xmlns="http://www.w3.org/2000/svg" xmlns:xlink="http://www.w3.org/1999/xlink" contentStyleType="text/css" height="480px" preserveAspectRatio="none" style="width:701px;height:480px;background:#FFFFFF;" version="1.1" viewBox="0 0 701 480" width="701px" zoomAndPan="magnify"><defs/><g><!--class HealthcareService--><g id="elem_HealthcareService"><rect codeLine="2" fill="#F1F1F1" height="227.2656" id="HealthcareService" rx="2.5" ry="2.5" style="stroke:#181818;stroke-width:0.5;" width="223" x="265" y="7"/><ellipse cx="310.25" cy="23" fill="#C2C2C2" rx="11" ry="11" style="stroke:#181818;stroke-width:1.0;"/><path d="M313.2188,28.6406 Q312.6406,28.9375 312,29.0781 Q311.3594,29.2344 310.6563,29.2344 Q308.1563,29.2344 306.8281,27.5938 Q305.5156,25.9375 305.5156,22.8125 Q305.5156,19.6875 306.8281,18.0313 Q308.1563,16.375 310.6563,16.375 Q311.3594,16.375 312,16.5313 Q312.6563,16.6875 313.2188,16.9844 L313.2188,19.7031 Q312.5938,19.125 312,18.8594 Q311.4063,18.5781 310.7813,18.5781 Q309.4375,18.5781 308.75,19.6563 Q308.0625,20.7188 308.0625,22.8125 Q308.0625,24.9063 308.75,25.9844 Q309.4375,27.0469 310.7813,27.0469 Q311.4063,27.0469 312,26.7813 Q312.5938,26.5 313.2188,25.9219 L313.2188,28.6406 Z " fill="#000000"/><text fill="#000000" font-family="sans-serif" font-size="14" lengthAdjust="spacing" textLength="124" x="330.75" y="27.8467">HealthcareService</text><line style="stroke:#181818;stroke-width:0.5;" x1="266" x2="487" y1="39" y2="39"/><text fill="#000000" font-family="sans-serif" font-size="14" lengthAdjust="spacing" textLength="190" x="271" y="55.9951">providedBy (1..1, MS, LDAP)</text><text fill="#000000" font-family="sans-serif" font-size="14" lengthAdjust="spacing" textLength="167" x="271" y="72.292">speciality (0.., MS, LDAP)</text><text fill="#000000" font-family="sans-serif" font-size="14" lengthAdjust="spacing" textLength="158" x="271" y="88.5889">location (0.., MS, LDAP)</text><text fill="#000000" font-family="sans-serif" font-size="14" lengthAdjust="spacing" textLength="99" x="271" y="104.8857">name (..1, MS)</text><text fill="#000000" font-family="sans-serif" font-size="14" lengthAdjust="spacing" textLength="116" x="271" y="121.1826">telecom (0.., MS)</text><text fill="#000000" font-family="sans-serif" font-size="14" lengthAdjust="spacing" textLength="208" x="271" y="137.4795">serviceProvisionCode (0.., MS)</text><text fill="#000000" font-family="sans-serif" font-size="14" lengthAdjust="spacing" textLength="166" x="271" y="153.7764">communication (0.., MS)</text><text fill="#000000" font-family="sans-serif" font-size="14" lengthAdjust="spacing" textLength="211" x="271" y="170.0732">appointmentRequired (..1, MS)</text><text fill="#000000" font-family="sans-serif" font-size="14" lengthAdjust="spacing" textLength="152" x="271" y="186.3701">availableTime (0.., MS)</text><text fill="#000000" font-family="sans-serif" font-size="14" lengthAdjust="spacing" textLength="203" x="271" y="202.667">availabilityExceptions (0.., MS)</text><text fill="#000000" font-family="sans-serif" font-size="14" lengthAdjust="spacing" textLength="122" x="271" y="218.9639">endpoint (0.., MS)</text><line style="stroke:#181818;stroke-width:0.5;" x1="266" x2="487" y1="226.2656" y2="226.2656"/></g><!--class Endpoint--><g id="elem_Endpoint"><rect codeLine="15" fill="#F1F1F1" height="145.7813" id="Endpoint" rx="2.5" ry="2.5" style="stroke:#181818;stroke-width:0.5;" width="227" x="7" y="319.41"/><ellipse cx="85.25" cy="335.41" fill="#C2C2C2" rx="11" ry="11" style="stroke:#181818;stroke-width:1.0;"/><path d="M88.2188,341.0506 Q87.6406,341.3475 87,341.4881 Q86.3594,341.6444 85.6563,341.6444 Q83.1563,341.6444 81.8281,340.0037 Q80.5156,338.3475 80.5156,335.2225 Q80.5156,332.0975 81.8281,330.4412 Q83.1563,328.785 85.6563,328.785 Q86.3594,328.785 87,328.9412 Q87.6563,329.0975 88.2188,329.3944 L88.2188,332.1131 Q87.5938,331.535 87,331.2694 Q86.4063,330.9881 85.7813,330.9881 Q84.4375,330.9881 83.75,332.0662 Q83.0625,333.1287 83.0625,335.2225 Q83.0625,337.3162 83.75,338.3944 Q84.4375,339.4569 85.7813,339.4569 Q86.4063,339.4569 87,339.1912 Q87.5938,338.91 88.2188,338.3319 L88.2188,341.0506 Z " fill="#000000"/><text fill="#000000" font-family="sans-serif" font-size="14" lengthAdjust="spacing" textLength="62" x="105.75" y="340.2567">Endpoint</text><line style="stroke:#181818;stroke-width:0.5;" x1="8" x2="233" y1="351.41" y2="351.41"/><text fill="#000000" font-family="sans-serif" font-size="14" lengthAdjust="spacing" textLength="112" x="13" y="368.4051">status (1..1, MS)</text><text fill="#000000" font-family="sans-serif" font-size="14" lengthAdjust="spacing" textLength="181" x="13" y="384.702">connectionType (1..1, MS)</text><text fill="#000000" font-family="sans-serif" font-size="14" lengthAdjust="spacing" textLength="108" x="13" y="400.9989">name (1..1, MS)</text><text fill="#000000" font-family="sans-serif" font-size="14" lengthAdjust="spacing" textLength="215" x="13" y="417.2957">managingOrganization (0.., MS)</text><text fill="#000000" font-family="sans-serif" font-size="14" lengthAdjust="spacing" textLength="147" x="13" y="433.5926">payloadType (1.., MS)</text><text fill="#000000" font-family="sans-serif" font-size="14" lengthAdjust="spacing" textLength="125" x="13" y="449.8895">address (1..1, MS)</text><line style="stroke:#181818;stroke-width:0.5;" x1="8" x2="233" y1="457.1912" y2="457.1912"/></g><!--class Location--><g id="elem_Location"><rect codeLine="23" fill="#F1F1F1" height="145.7813" id="Location" rx="2.5" ry="2.5" style="stroke:#181818;stroke-width:0.5;" width="215" x="269" y="319.41"/><ellipse cx="343.25" cy="335.41" fill="#C2C2C2" rx="11" ry="11" style="stroke:#181818;stroke-width:1.0;"/><path d="M346.2188,341.0506 Q345.6406,341.3475 345,341.4881 Q344.3594,341.6444 343.6563,341.6444 Q341.1563,341.6444 339.8281,340.0037 Q338.5156,338.3475 338.5156,335.2225 Q338.5156,332.0975 339.8281,330.4412 Q341.1563,328.785 343.6563,328.785 Q344.3594,328.785 345,328.9412 Q345.6563,329.0975 346.2188,329.3944 L346.2188,332.1131 Q345.5938,331.535 345,331.2694 Q344.4063,330.9881 343.7813,330.9881 Q342.4375,330.9881 341.75,332.0662 Q341.0625,333.1287 341.0625,335.2225 Q341.0625,337.3162 341.75,338.3944 Q342.4375,339.4569 343.7813,339.4569 Q344.4063,339.4569 345,339.1912 Q345.5938,338.91 346.2188,338.3319 L346.2188,341.0506 Z " fill="#000000"/><text fill="#000000" font-family="sans-serif" font-size="14" lengthAdjust="spacing" textLength="58" x="363.75" y="340.2567">Location</text><line style="stroke:#181818;stroke-width:0.5;" x1="270" x2="483" y1="351.41" y2="351.41"/><text fill="#000000" font-family="sans-serif" font-size="14" lengthAdjust="spacing" textLength="99" x="275" y="368.4051">name (..1, MS)</text><text fill="#000000" font-family="sans-serif" font-size="14" lengthAdjust="spacing" textLength="146" x="275" y="384.702">description (0..1, MS)</text><text fill="#000000" font-family="sans-serif" font-size="14" lengthAdjust="spacing" textLength="169" x="275" y="400.9989">address (0..1, MS, LDAP)</text><text fill="#000000" font-family="sans-serif" font-size="14" lengthAdjust="spacing" textLength="124" x="275" y="417.2957">position (0..1, MS)</text><text fill="#000000" font-family="sans-serif" font-size="14" lengthAdjust="spacing" textLength="183" x="275" y="433.5926">hoursOfOperation (0.., MS)</text><text fill="#000000" font-family="sans-serif" font-size="14" lengthAdjust="spacing" textLength="203" x="275" y="449.8895">availabilityExceptions (..1, MS)</text><line style="stroke:#181818;stroke-width:0.5;" x1="270" x2="483" y1="457.1912" y2="457.1912"/></g><!--class Organization--><g id="elem_Organization"><rect codeLine="31" fill="#F1F1F1" height="162.0781" id="Organization" rx="2.5" ry="2.5" style="stroke:#181818;stroke-width:0.5;" width="175" x="519" y="311.26"/><ellipse cx="559.2" cy="327.26" fill="#C2C2C2" rx="11" ry="11" style="stroke:#181818;stroke-width:1.0;"/><path d="M562.1688,332.9006 Q561.5906,333.1975 560.95,333.3381 Q560.3094,333.4944 559.6063,333.4944 Q557.1063,333.4944 555.7781,331.8537 Q554.4656,330.1975 554.4656,327.0725 Q554.4656,323.9475 555.7781,322.2912 Q557.1063,320.635 559.6063,320.635 Q560.3094,320.635 560.95,320.7912 Q561.6063,320.9475 562.1688,321.2444 L562.1688,323.9631 Q561.5438,323.385 560.95,323.1194 Q560.3563,322.8381 559.7313,322.8381 Q558.3875,322.8381 557.7,323.9162 Q557.0125,324.9787 557.0125,327.0725 Q557.0125,329.1662 557.7,330.2444 Q558.3875,331.3069 559.7313,331.3069 Q560.3563,331.3069 560.95,331.0412 Q561.5438,330.76 562.1688,330.1819 L562.1688,332.9006 Z " fill="#000000"/><text fill="#000000" font-family="sans-serif" font-size="14" lengthAdjust="spacing" textLength="87" x="578.8" y="332.1067">Organization</text><line style="stroke:#181818;stroke-width:0.5;" x1="520" x2="693" y1="343.26" y2="343.26"/><text fill="#000000" font-family="sans-serif" font-size="14" lengthAdjust="spacing" textLength="163" x="525" y="360.2551">identifier (0.., MS, LDAP)</text><text fill="#000000" font-family="sans-serif" font-size="14" lengthAdjust="spacing" textLength="153" x="525" y="376.552">active (1..1, MS, LDAP)</text><text fill="#000000" font-family="sans-serif" font-size="14" lengthAdjust="spacing" textLength="143" x="525" y="392.8489">type (1..1, MS, LDAP)</text><text fill="#000000" font-family="sans-serif" font-size="14" lengthAdjust="spacing" textLength="152" x="525" y="409.1457">name (1..1, MS, LDAP)</text><text fill="#000000" font-family="sans-serif" font-size="14" lengthAdjust="spacing" textLength="134" x="525" y="425.4426">alias (0.., MS, LDAP)</text><text fill="#000000" font-family="sans-serif" font-size="14" lengthAdjust="spacing" textLength="116" x="525" y="441.7395">telecom (0.., MS)</text><text fill="#000000" font-family="sans-serif" font-size="14" lengthAdjust="spacing" textLength="112" x="525" y="458.0364">contact (0.., MS)</text><line style="stroke:#181818;stroke-width:0.5;" x1="520" x2="693" y1="465.3381" y2="465.3381"/></g><!--reverse link HealthcareService to Organization--><g id="link_HealthcareService_Organization"><path codeLine="41" d="M480.4969,243.5604 C502.4069,269.2504 517.47,286.91 537.95,310.93 " fill="none" id="HealthcareService-backto-Organization" style="stroke:#181818;stroke-width:1.0;"/><polygon fill="none" points="472.71,234.43,473.56,241.5908,480.4969,243.5604,479.6469,236.3995,472.71,234.43" style="stroke:#181818;stroke-width:1.0;"/><text fill="#000000" font-family="sans-serif" font-size="13" lengthAdjust="spacing" textLength="71" x="512.5" y="277.3269">providedBy</text></g><!--reverse link HealthcareService to Endpoint--><g id="link_HealthcareService_Endpoint"><path codeLine="42" d="M261.1584,243.1332 C234.0284,271.7132 213.87,292.94 189.22,318.91 " fill="none" id="HealthcareService-backto-Endpoint" style="stroke:#181818;stroke-width:1.0;"/><polygon fill="none" points="269.42,234.43,262.3881,236.0277,261.1584,243.1332,268.1902,241.5355,269.42,234.43" style="stroke:#181818;stroke-width:1.0;"/><text fill="#000000" font-family="sans-serif" font-size="13" lengthAdjust="spacing" textLength="56" x="242.5" y="277.3269">endpoint</text></g><!--reverse link HealthcareService to Location--><g id="link_HealthcareService_Location"><path codeLine="43" d="M376.5,246.43 C376.5,275.01 376.5,292.94 376.5,318.91 " fill="none" id="HealthcareService-backto-Location" style="stroke:#181818;stroke-width:1.0;"/><polygon fill="none" points="376.5,234.43,372.5,240.43,376.5,246.43,380.5,240.43,376.5,234.43" style="stroke:#181818;stroke-width:1.0;"/><text fill="#000000" font-family="sans-serif" font-size="13" lengthAdjust="spacing" textLength="50" x="377.5" y="277.3269">location</text></g><!--SRC=[ZLJBRi8m4BpdAtoa4aHmvTO7KWzKeC8FREq5LlMhjXEL8lwzJY5fKkAensWdExCxi_Rlf2quK4mPRVZ16OKik08pBi5xzemWmu63mmswaZYoKyROQKSenPbPPqeIA1wER3JByzcOlMp6RFbqlxvheRn5JY0fHDGqp_j1qd08PFG0H4FKDhhIj0i19NAZcbyxv1VPwqgfZ_qVZS1UO6oW2ar_LBGHOAqX7HJgy8eV1JaKlNAW19Bm9d5Bgf_hYg1g9ujFZhRYzBrGrEA7jLKyNxrPrAMs9Jv0AFol7TqHjKPUSMsF5linboNtLHHes9FUhzmUD7sbzsJXA0s8XkDcUY4S-ex6UgHbdOBJVtmNwBaZsmYP9PccoN1QuodTu60AvrUxbKKta8k4cpVJTJRNdZ3Ua0uKFzn0_24wL-BGeOMEgwa3IjVZZO8VK31qPp5R8Ihin3IxVJtCPD9PmxprXYJWTSpdpIqaW7LuvirZadq3]--></g></svg>