<?xml version="1.0" encoding="UTF-8" standalone="no"?><svg xmlns="http://www.w3.org/2000/svg" xmlns:xlink="http://www.w3.org/1999/xlink" contentStyleType="text/css" height="382px" preserveAspectRatio="none" style="width:733px;height:382px;background:#FFFFFF;" version="1.1" viewBox="0 0 733 382" width="733px" zoomAndPan="magnify"><defs/><g><!--MD5=[7b9c16a3d4995a55b032296f71ab1184]
class PractitionerRole--><g id="elem_PractitionerRole"><rect codeLine="2" fill="#F1F1F1" height="96.8906" id="PractitionerRole" rx="2.5" ry="2.5" style="stroke:#181818;stroke-width:0.5;" width="203" x="256" y="7"/><ellipse cx="298.9" cy="23" fill="#C2C2C2" rx="11" ry="11" style="stroke:#181818;stroke-width:1.0;"/><path d="M301.8688,28.6406 Q301.2906,28.9375 300.65,29.0781 Q300.0094,29.2344 299.3063,29.2344 Q296.8063,29.2344 295.4781,27.5938 Q294.1656,25.9375 294.1656,22.8125 Q294.1656,19.6875 295.4781,18.0313 Q296.8063,16.375 299.3063,16.375 Q300.0094,16.375 300.65,16.5313 Q301.3063,16.6875 301.8688,16.9844 L301.8688,19.7031 Q301.2438,19.125 300.65,18.8594 Q300.0563,18.5781 299.4313,18.5781 Q298.0875,18.5781 297.4,19.6563 Q296.7125,20.7188 296.7125,22.8125 Q296.7125,24.9063 297.4,25.9844 Q298.0875,27.0469 299.4313,27.0469 Q300.0563,27.0469 300.65,26.7813 Q301.2438,26.5 301.8688,25.9219 L301.8688,28.6406 Z " fill="#000000"/><text fill="#000000" font-family="sans-serif" font-size="14" lengthAdjust="spacing" textLength="109" x="319.1" y="27.8467">PractitionerRole</text><line style="stroke:#181818;stroke-width:0.5;" x1="257" x2="458" y1="39" y2="39"/><text fill="#000000" font-family="sans-serif" font-size="14" lengthAdjust="spacing" textLength="191" x="262" y="55.9951">practitioner (1..1, MS, LDAP)</text><text fill="#000000" font-family="sans-serif" font-size="14" lengthAdjust="spacing" textLength="114" x="262" y="72.292">location (0.., MS)</text><text fill="#000000" font-family="sans-serif" font-size="14" lengthAdjust="spacing" textLength="122" x="262" y="88.5889">endpoint (0.., MS)</text><line style="stroke:#181818;stroke-width:0.5;" x1="257" x2="458" y1="95.8906" y2="95.8906"/></g><!--MD5=[2edc31ff762501c9cec4b1b863028f54]
class Practitioner--><g id="elem_Practitioner"><rect codeLine="7" fill="#F1F1F1" height="194.6719" id="Practitioner" rx="2.5" ry="2.5" style="stroke:#181818;stroke-width:0.5;" width="197" x="7" y="181"/><ellipse cx="62.25" cy="197" fill="#C2C2C2" rx="11" ry="11" style="stroke:#181818;stroke-width:1.0;"/><path d="M65.2188,202.6406 Q64.6406,202.9375 64,203.0781 Q63.3594,203.2344 62.6563,203.2344 Q60.1563,203.2344 58.8281,201.5938 Q57.5156,199.9375 57.5156,196.8125 Q57.5156,193.6875 58.8281,192.0313 Q60.1563,190.375 62.6563,190.375 Q63.3594,190.375 64,190.5313 Q64.6563,190.6875 65.2188,190.9844 L65.2188,193.7031 Q64.5938,193.125 64,192.8594 Q63.4063,192.5781 62.7813,192.5781 Q61.4375,192.5781 60.75,193.6563 Q60.0625,194.7188 60.0625,196.8125 Q60.0625,198.9063 60.75,199.9844 Q61.4375,201.0469 62.7813,201.0469 Q63.4063,201.0469 64,200.7813 Q64.5938,200.5 65.2188,199.9219 L65.2188,202.6406 Z " fill="#000000"/><text fill="#000000" font-family="sans-serif" font-size="14" lengthAdjust="spacing" textLength="78" x="82.75" y="201.8467">Practitioner</text><line style="stroke:#181818;stroke-width:0.5;" x1="8" x2="203" y1="213" y2="213"/><text fill="#000000" font-family="sans-serif" font-size="14" lengthAdjust="spacing" textLength="163" x="13" y="229.9951">identifier (1.., MS, LDAP)</text><text fill="#000000" font-family="sans-serif" font-size="14" lengthAdjust="spacing" textLength="153" x="13" y="246.292">active (1..1, MS, LDAP)</text><text fill="#000000" font-family="sans-serif" font-size="14" lengthAdjust="spacing" textLength="152" x="13" y="262.5889">name (1..1, MS, LDAP)</text><text fill="#000000" font-family="sans-serif" font-size="14" lengthAdjust="spacing" textLength="116" x="13" y="278.8857">telecom (0.., MS)</text><text fill="#000000" font-family="sans-serif" font-size="14" lengthAdjust="spacing" textLength="110" x="13" y="295.1826">gender (..1, MS)</text><text fill="#000000" font-family="sans-serif" font-size="14" lengthAdjust="spacing" textLength="124" x="13" y="311.4795">birthDate (..1, MS)</text><text fill="#000000" font-family="sans-serif" font-size="14" lengthAdjust="spacing" textLength="101" x="13" y="327.7764">photo (0.., MS)</text><text fill="#000000" font-family="sans-serif" font-size="14" lengthAdjust="spacing" textLength="185" x="13" y="344.0732">qualification (0.., MS, LDAP)</text><text fill="#000000" font-family="sans-serif" font-size="14" lengthAdjust="spacing" textLength="166" x="13" y="360.3701">communication (0.., MS)</text><line style="stroke:#181818;stroke-width:0.5;" x1="8" x2="203" y1="367.6719" y2="367.6719"/></g><!--MD5=[4fd3bb6c1d79f4919f90c95b62a35422]
class Endpoint--><g id="elem_Endpoint"><rect codeLine="18" fill="#F1F1F1" height="145.7813" id="Endpoint" rx="2.5" ry="2.5" style="stroke:#181818;stroke-width:0.5;" width="236" x="239.5" y="205.5"/><ellipse cx="322.25" cy="221.5" fill="#C2C2C2" rx="11" ry="11" style="stroke:#181818;stroke-width:1.0;"/><path d="M325.2188,227.1406 Q324.6406,227.4375 324,227.5781 Q323.3594,227.7344 322.6563,227.7344 Q320.1563,227.7344 318.8281,226.0938 Q317.5156,224.4375 317.5156,221.3125 Q317.5156,218.1875 318.8281,216.5313 Q320.1563,214.875 322.6563,214.875 Q323.3594,214.875 324,215.0313 Q324.6563,215.1875 325.2188,215.4844 L325.2188,218.2031 Q324.5938,217.625 324,217.3594 Q323.4063,217.0781 322.7813,217.0781 Q321.4375,217.0781 320.75,218.1563 Q320.0625,219.2188 320.0625,221.3125 Q320.0625,223.4063 320.75,224.4844 Q321.4375,225.5469 322.7813,225.5469 Q323.4063,225.5469 324,225.2813 Q324.5938,225 325.2188,224.4219 L325.2188,227.1406 Z " fill="#000000"/><text fill="#000000" font-family="sans-serif" font-size="14" lengthAdjust="spacing" textLength="62" x="342.75" y="226.3467">Endpoint</text><line style="stroke:#181818;stroke-width:0.5;" x1="240.5" x2="474.5" y1="237.5" y2="237.5"/><text fill="#000000" font-family="sans-serif" font-size="14" lengthAdjust="spacing" textLength="112" x="245.5" y="254.4951">status (1..1, MS)</text><text fill="#000000" font-family="sans-serif" font-size="14" lengthAdjust="spacing" textLength="181" x="245.5" y="270.792">connectionType (1..1, MS)</text><text fill="#000000" font-family="sans-serif" font-size="14" lengthAdjust="spacing" textLength="108" x="245.5" y="287.0889">name (1..1, MS)</text><text fill="#000000" font-family="sans-serif" font-size="14" lengthAdjust="spacing" textLength="224" x="245.5" y="303.3857">managingOrganization (0..1, MS)</text><text fill="#000000" font-family="sans-serif" font-size="14" lengthAdjust="spacing" textLength="147" x="245.5" y="319.6826">payloadType (1.., MS)</text><text fill="#000000" font-family="sans-serif" font-size="14" lengthAdjust="spacing" textLength="125" x="245.5" y="335.9795">address (1..1, MS)</text><line style="stroke:#181818;stroke-width:0.5;" x1="240.5" x2="474.5" y1="343.2813" y2="343.2813"/></g><!--MD5=[4f1f3706c1a355a8488e154afcaed5df]
class Location--><g id="elem_Location"><rect codeLine="26" fill="#F1F1F1" height="145.7813" id="Location" rx="2.5" ry="2.5" style="stroke:#181818;stroke-width:0.5;" width="215" x="511" y="205.5"/><ellipse cx="585.25" cy="221.5" fill="#C2C2C2" rx="11" ry="11" style="stroke:#181818;stroke-width:1.0;"/><path d="M588.2188,227.1406 Q587.6406,227.4375 587,227.5781 Q586.3594,227.7344 585.6563,227.7344 Q583.1563,227.7344 581.8281,226.0938 Q580.5156,224.4375 580.5156,221.3125 Q580.5156,218.1875 581.8281,216.5313 Q583.1563,214.875 585.6563,214.875 Q586.3594,214.875 587,215.0313 Q587.6563,215.1875 588.2188,215.4844 L588.2188,218.2031 Q587.5938,217.625 587,217.3594 Q586.4063,217.0781 585.7813,217.0781 Q584.4375,217.0781 583.75,218.1563 Q583.0625,219.2188 583.0625,221.3125 Q583.0625,223.4063 583.75,224.4844 Q584.4375,225.5469 585.7813,225.5469 Q586.4063,225.5469 587,225.2813 Q587.5938,225 588.2188,224.4219 L588.2188,227.1406 Z " fill="#000000"/><text fill="#000000" font-family="sans-serif" font-size="14" lengthAdjust="spacing" textLength="58" x="605.75" y="226.3467">Location</text><line style="stroke:#181818;stroke-width:0.5;" x1="512" x2="725" y1="237.5" y2="237.5"/><text fill="#000000" font-family="sans-serif" font-size="14" lengthAdjust="spacing" textLength="99" x="517" y="254.4951">name (..1, MS)</text><text fill="#000000" font-family="sans-serif" font-size="14" lengthAdjust="spacing" textLength="137" x="517" y="270.792">description (..1, MS)</text><text fill="#000000" font-family="sans-serif" font-size="14" lengthAdjust="spacing" textLength="116" x="517" y="287.0889">address (..1, MS)</text><text fill="#000000" font-family="sans-serif" font-size="14" lengthAdjust="spacing" textLength="115" x="517" y="303.3857">position (..1, MS)</text><text fill="#000000" font-family="sans-serif" font-size="14" lengthAdjust="spacing" textLength="183" x="517" y="319.6826">hoursOfOperation (0.., MS)</text><text fill="#000000" font-family="sans-serif" font-size="14" lengthAdjust="spacing" textLength="203" x="517" y="335.9795">availabilityExceptions (..1, MS)</text><line style="stroke:#181818;stroke-width:0.5;" x1="512" x2="725" y1="343.2813" y2="343.2813"/></g><!--MD5=[8bdbfd47c206126371fe28da16da2c38]
reverse link PractitionerRole to Practitioner--><g id="link_PractitionerRole_Practitioner"><path codeLine="35" d="M293.05,113.03 C266.06,136.69 234.08,164.74 204.24,190.91 " fill="none" id="PractitionerRole-backto-Practitioner" style="stroke:#181818;stroke-width:1.0;"/><polygon fill="none" points="303.13,104.18,295.9817,105.1296,294.1089,112.0933,301.2572,111.1437,303.13,104.18" style="stroke:#181818;stroke-width:1.0;"/><text fill="#000000" font-family="sans-serif" font-size="13" lengthAdjust="spacing" textLength="73" x="270.5" y="147.0669">practitioner</text></g><!--MD5=[19650f91da0f4b19284021841804106f]
reverse link PractitionerRole to Endpoint--><g id="link_PractitionerRole_Endpoint"><path codeLine="36" d="M357.5,117.46 C357.5,144.6 357.5,176.76 357.5,205.1 " fill="none" id="PractitionerRole-backto-Endpoint" style="stroke:#181818;stroke-width:1.0;"/><polygon fill="none" points="357.5,104.18,353.5,110.18,357.5,116.18,361.5,110.18,357.5,104.18" style="stroke:#181818;stroke-width:1.0;"/><text fill="#000000" font-family="sans-serif" font-size="13" lengthAdjust="spacing" textLength="56" x="358.5" y="147.0669">endpoint</text></g><!--MD5=[8db30d2c8d0b651ef32eee6ae94cb401]
reverse link PractitionerRole to Location--><g id="link_PractitionerRole_Location"><path codeLine="37" d="M423.88,112.7 C457.11,140.85 497.73,175.24 533.25,205.32 " fill="none" id="PractitionerRole-backto-Location" style="stroke:#181818;stroke-width:1.0;"/><polygon fill="none" points="413.81,104.18,415.8021,111.1105,422.9656,111.9372,420.9736,105.0067,413.81,104.18" style="stroke:#181818;stroke-width:1.0;"/><text fill="#000000" font-family="sans-serif" font-size="13" lengthAdjust="spacing" textLength="50" x="466.5" y="147.0669">location</text></g><!--MD5=[181178ac6c282cb6012eb3d5730e4e80]
@startuml ClassDiagram.PractitionerRole
skinparam monochrome true
class PractitionerRole {
  {field} practitioner (1..1, MS, LDAP)
  {field} location (0.., MS)
  {field} endpoint (0.., MS)
}
class Practitioner {
  {field} identifier (1.., MS, LDAP)
  {field} active (1..1, MS, LDAP)
  {field} name (1..1, MS, LDAP)
  {field} telecom (0.., MS)
  {field} gender (..1, MS)
  {field} birthDate (..1, MS)
  {field} photo (0.., MS)
  {field} qualification (0.., MS, LDAP)
  {field} communication (0.., MS)
}
class Endpoint {
  {field} status (1..1, MS)
  {field} connectionType (1..1, MS)
  {field} name (1..1, MS)
  {field} managingOrganization (0..1, MS)
  {field} payloadType (1.., MS)
  {field} address (1..1, MS)
}
class Location {
  {field} name (..1, MS)
  {field} description (..1, MS)
  {field} address (..1, MS)
  {field} position (..1, MS)
  {field} hoursOfOperation (0.., MS)
  {field} availabilityExceptions (..1, MS)
}

PractitionerRole o- - Practitioner: practitioner
PractitionerRole o- - Endpoint: endpoint
PractitionerRole o- - Location: location
@enduml

PlantUML version 1.2022.5(Sat Apr 30 10:55:52 UTC 2022)
(GPL source distribution)
Java Runtime: OpenJDK Runtime Environment
JVM: OpenJDK 64-Bit Server VM
Default Encoding: UTF-8
Language: en
Country: null
--></g></svg>