<svg xmlns="http://www.w3.org/2000/svg" xmlns:xlink="http://www.w3.org/1999/xlink" contentStyleType="text/css" height="652px" preserveAspectRatio="none" style="width:818px;height:652px;background:#FFFFFF;" version="1.1" viewBox="0 0 818 652" width="818px" zoomAndPan="magnify"><defs/><g><!--class Organization--><g id="elem_Organization"><rect codeLine="2" fill="#F1F1F1" height="162.0781" id="Organization" rx="2.5" ry="2.5" style="stroke:#181818;stroke-width:0.5;" width="228" x="386.5" y="7"/><ellipse cx="452.75" cy="23" fill="#ADD1B2" rx="11" ry="11" style="stroke:#181818;stroke-width:1.0;"/><path d="M455.7188,28.6406 Q455.1406,28.9375 454.5,29.0781 Q453.8594,29.2344 453.1563,29.2344 Q450.6563,29.2344 449.3281,27.5938 Q448.0156,25.9375 448.0156,22.8125 Q448.0156,19.6875 449.3281,18.0313 Q450.6563,16.375 453.1563,16.375 Q453.8594,16.375 454.5,16.5313 Q455.1563,16.6875 455.7188,16.9844 L455.7188,19.7031 Q455.0938,19.125 454.5,18.8594 Q453.9063,18.5781 453.2813,18.5781 Q451.9375,18.5781 451.25,19.6563 Q450.5625,20.7188 450.5625,22.8125 Q450.5625,24.9063 451.25,25.9844 Q451.9375,27.0469 453.2813,27.0469 Q453.9063,27.0469 454.5,26.7813 Q455.0938,26.5 455.7188,25.9219 L455.7188,28.6406 Z " fill="#000000"/><text fill="#000000" font-family="sans-serif" font-size="14" lengthAdjust="spacing" textLength="87" x="473.25" y="27.8467">Organization</text><line style="stroke:#181818;stroke-width:0.5;" x1="387.5" x2="613.5" y1="39" y2="39"/><text fill="#000000" font-family="sans-serif" font-size="14" lengthAdjust="spacing" textLength="170" x="392.5" y="55.9951">identifier (1..*, MS, LDAP)</text><text fill="#000000" font-family="sans-serif" font-size="14" lengthAdjust="spacing" textLength="108" x="392.5" y="72.292">name (1..1, MS)</text><text fill="#000000" font-family="sans-serif" font-size="14" lengthAdjust="spacing" textLength="97" x="392.5" y="88.5889">alias (0..*, MS)</text><text fill="#000000" font-family="sans-serif" font-size="14" lengthAdjust="spacing" textLength="137" x="392.5" y="104.8857">type(1..*, MS, LDAP)</text><text fill="#000000" font-family="sans-serif" font-size="14" lengthAdjust="spacing" textLength="153" x="392.5" y="121.1826">active (1..1, MS, LDAP)</text><text fill="#000000" font-family="sans-serif" font-size="14" lengthAdjust="spacing" textLength="123" x="392.5" y="137.4795">telecom (0..*, MS)</text><text fill="#000000" font-family="sans-serif" font-size="14" lengthAdjust="spacing" textLength="216" x="392.5" y="153.7764">meta.tag.origin (1..1, MS, LDAP)</text><line style="stroke:#181818;stroke-width:0.5;" x1="387.5" x2="613.5" y1="161.0781" y2="161.0781"/></g><!--class HealthcareService--><g id="elem_HealthcareService"><rect codeLine="12" fill="#F1F1F1" height="178.375" id="HealthcareService" rx="2.5" ry="2.5" style="stroke:#181818;stroke-width:0.5;" width="264" x="242.5" y="229.08"/><ellipse cx="308.25" cy="245.08" fill="#ADD1B2" rx="11" ry="11" style="stroke:#181818;stroke-width:1.0;"/><path d="M311.2188,250.7206 Q310.6406,251.0175 310,251.1581 Q309.3594,251.3144 308.6563,251.3144 Q306.1563,251.3144 304.8281,249.6738 Q303.5156,248.0175 303.5156,244.8925 Q303.5156,241.7675 304.8281,240.1113 Q306.1563,238.455 308.6563,238.455 Q309.3594,238.455 310,238.6113 Q310.6563,238.7675 311.2188,239.0644 L311.2188,241.7831 Q310.5938,241.205 310,240.9394 Q309.4063,240.6581 308.7813,240.6581 Q307.4375,240.6581 306.75,241.7363 Q306.0625,242.7988 306.0625,244.8925 Q306.0625,246.9863 306.75,248.0644 Q307.4375,249.1269 308.7813,249.1269 Q309.4063,249.1269 310,248.8613 Q310.5938,248.58 311.2188,248.0019 L311.2188,250.7206 Z " fill="#000000"/><text fill="#000000" font-family="sans-serif" font-size="14" lengthAdjust="spacing" textLength="124" x="328.75" y="249.9267">HealthcareService</text><line style="stroke:#181818;stroke-width:0.5;" x1="243.5" x2="505.5" y1="261.08" y2="261.08"/><text fill="#000000" font-family="sans-serif" font-size="14" lengthAdjust="spacing" textLength="126" x="248.5" y="278.0751">identifier (1..*, MS)</text><text fill="#000000" font-family="sans-serif" font-size="14" lengthAdjust="spacing" textLength="240" x="248.5" y="294.372">providedBy (1..1, MS, LDAP/Owner)</text><text fill="#000000" font-family="sans-serif" font-size="14" lengthAdjust="spacing" textLength="224" x="248.5" y="310.6689">speciality (0..*, MS, LDAP/Owner)</text><text fill="#000000" font-family="sans-serif" font-size="14" lengthAdjust="spacing" textLength="215" x="248.5" y="326.9657">location (0..*, MS, LDAP/Owner)</text><text fill="#000000" font-family="sans-serif" font-size="14" lengthAdjust="spacing" textLength="129" x="248.5" y="343.2626">endpoint (0..*, MS)</text><text fill="#000000" font-family="sans-serif" font-size="14" lengthAdjust="spacing" textLength="216" x="248.5" y="359.5595">meta.tag.origin (1..1, MS, LDAP)</text><text fill="#000000" font-family="sans-serif" font-size="14" lengthAdjust="spacing" textLength="219" x="248.5" y="375.8564">meta.security.ownerId (1..*, MS)</text><text fill="#000000" font-family="sans-serif" font-size="14" lengthAdjust="spacing" textLength="252" x="248.5" y="392.1532">meta.security.holder (1..*, MS, LDAP)</text><line style="stroke:#181818;stroke-width:0.5;" x1="243.5" x2="505.5" y1="399.455" y2="399.455"/></g><!--class Endpoint--><g id="elem_Endpoint"><rect codeLine="23" fill="#F1F1F1" height="178.375" id="Endpoint" rx="2.5" ry="2.5" style="stroke:#181818;stroke-width:0.5;" width="231" x="7" y="467.45"/><ellipse cx="87.25" cy="483.45" fill="#ADD1B2" rx="11" ry="11" style="stroke:#181818;stroke-width:1.0;"/><path d="M90.2188,489.0906 Q89.6406,489.3875 89,489.5281 Q88.3594,489.6844 87.6563,489.6844 Q85.1563,489.6844 83.8281,488.0438 Q82.5156,486.3875 82.5156,483.2625 Q82.5156,480.1375 83.8281,478.4813 Q85.1563,476.825 87.6563,476.825 Q88.3594,476.825 89,476.9813 Q89.6563,477.1375 90.2188,477.4344 L90.2188,480.1531 Q89.5938,479.575 89,479.3094 Q88.4063,479.0281 87.7813,479.0281 Q86.4375,479.0281 85.75,480.1063 Q85.0625,481.1688 85.0625,483.2625 Q85.0625,485.3563 85.75,486.4344 Q86.4375,487.4969 87.7813,487.4969 Q88.4063,487.4969 89,487.2313 Q89.5938,486.95 90.2188,486.3719 L90.2188,489.0906 Z " fill="#000000"/><text fill="#000000" font-family="sans-serif" font-size="14" lengthAdjust="spacing" textLength="62" x="107.75" y="488.2967">Endpoint</text><line style="stroke:#181818;stroke-width:0.5;" x1="8" x2="237" y1="499.45" y2="499.45"/><text fill="#000000" font-family="sans-serif" font-size="14" lengthAdjust="spacing" textLength="126" x="13" y="516.4451">identifier (1..*, MS)</text><text fill="#000000" font-family="sans-serif" font-size="14" lengthAdjust="spacing" textLength="179" x="13" y="532.742">connectionType (0..*, MS)</text><text fill="#000000" font-family="sans-serif" font-size="14" lengthAdjust="spacing" textLength="110" x="13" y="549.0389">status (0..*, MS)</text><text fill="#000000" font-family="sans-serif" font-size="14" lengthAdjust="spacing" textLength="108" x="13" y="565.3357">name (0..1, MS)</text><text fill="#000000" font-family="sans-serif" font-size="14" lengthAdjust="spacing" textLength="125" x="13" y="581.6326">address (1..1, MS)</text><text fill="#000000" font-family="sans-serif" font-size="14" lengthAdjust="spacing" textLength="154" x="13" y="597.9295">payloadType (1..*, MS)</text><text fill="#000000" font-family="sans-serif" font-size="14" lengthAdjust="spacing" textLength="172" x="13" y="614.2264">meta.tag.origin (1..1, MS)</text><text fill="#000000" font-family="sans-serif" font-size="14" lengthAdjust="spacing" textLength="219" x="13" y="630.5232">meta.security.ownerId (1..*, MS)</text><line style="stroke:#181818;stroke-width:0.5;" x1="8" x2="237" y1="637.825" y2="637.825"/></g><!--class Location--><g id="elem_Location"><rect codeLine="34" fill="#F1F1F1" height="96.8906" id="Location" rx="2.5" ry="2.5" style="stroke:#181818;stroke-width:0.5;" width="228" x="273.5" y="508.2"/><ellipse cx="354.25" cy="524.2" fill="#ADD1B2" rx="11" ry="11" style="stroke:#181818;stroke-width:1.0;"/><path d="M357.2188,529.8406 Q356.6406,530.1375 356,530.2781 Q355.3594,530.4344 354.6563,530.4344 Q352.1563,530.4344 350.8281,528.7938 Q349.5156,527.1375 349.5156,524.0125 Q349.5156,520.8875 350.8281,519.2313 Q352.1563,517.575 354.6563,517.575 Q355.3594,517.575 356,517.7313 Q356.6563,517.8875 357.2188,518.1844 L357.2188,520.9031 Q356.5938,520.325 356,520.0594 Q355.4063,519.7781 354.7813,519.7781 Q353.4375,519.7781 352.75,520.8563 Q352.0625,521.9188 352.0625,524.0125 Q352.0625,526.1063 352.75,527.1844 Q353.4375,528.2469 354.7813,528.2469 Q355.4063,528.2469 356,527.9813 Q356.5938,527.7 357.2188,527.1219 L357.2188,529.8406 Z " fill="#000000"/><text fill="#000000" font-family="sans-serif" font-size="14" lengthAdjust="spacing" textLength="58" x="374.75" y="529.0467">Location</text><line style="stroke:#181818;stroke-width:0.5;" x1="274.5" x2="500.5" y1="540.2" y2="540.2"/><text fill="#000000" font-family="sans-serif" font-size="14" lengthAdjust="spacing" textLength="170" x="279.5" y="557.1951">identifier (1..*, MS, LDAP)</text><text fill="#000000" font-family="sans-serif" font-size="14" lengthAdjust="spacing" textLength="169" x="279.5" y="573.492">address (0..1, MS, LDAP)</text><text fill="#000000" font-family="sans-serif" font-size="14" lengthAdjust="spacing" textLength="216" x="279.5" y="589.7889">meta.tag.origin (1..1, MS, LDAP)</text><line style="stroke:#181818;stroke-width:0.5;" x1="274.5" x2="500.5" y1="597.0906" y2="597.0906"/></g><!--class HealthcareService_n--><g id="elem_HealthcareService_n"><rect fill="#F1F1F1" height="48" id="HealthcareService_n" rx="2.5" ry="2.5" style="stroke:#181818;stroke-width:0.5;" width="172" x="541.5" y="294.27"/><ellipse cx="556.5" cy="310.27" fill="#ADD1B2" rx="11" ry="11" style="stroke:#181818;stroke-width:1.0;"/><path d="M559.4688,315.9106 Q558.8906,316.2075 558.25,316.3481 Q557.6094,316.5044 556.9063,316.5044 Q554.4063,316.5044 553.0781,314.8638 Q551.7656,313.2075 551.7656,310.0825 Q551.7656,306.9575 553.0781,305.3013 Q554.4063,303.645 556.9063,303.645 Q557.6094,303.645 558.25,303.8013 Q558.9063,303.9575 559.4688,304.2544 L559.4688,306.9731 Q558.8438,306.395 558.25,306.1294 Q557.6563,305.8481 557.0313,305.8481 Q555.6875,305.8481 555,306.9263 Q554.3125,307.9888 554.3125,310.0825 Q554.3125,312.1763 555,313.2544 Q555.6875,314.3169 557.0313,314.3169 Q557.6563,314.3169 558.25,314.0513 Q558.8438,313.77 559.4688,313.1919 L559.4688,315.9106 Z " fill="#000000"/><text fill="#000000" font-family="sans-serif" font-size="14" lengthAdjust="spacing" textLength="140" x="570.5" y="315.1167">HealthcareService_n</text><line style="stroke:#181818;stroke-width:0.5;" x1="542.5" x2="712.5" y1="326.27" y2="326.27"/><line style="stroke:#181818;stroke-width:0.5;" x1="542.5" x2="712.5" y1="334.27" y2="334.27"/></g><!--class Endpoint_n--><g id="elem_Endpoint_n"><rect fill="#F1F1F1" height="48" id="Endpoint_n" rx="2.5" ry="2.5" style="stroke:#181818;stroke-width:0.5;" width="110" x="560.5" y="532.64"/><ellipse cx="575.5" cy="548.64" fill="#ADD1B2" rx="11" ry="11" style="stroke:#181818;stroke-width:1.0;"/><path d="M578.4688,554.2806 Q577.8906,554.5775 577.25,554.7181 Q576.6094,554.8744 575.9063,554.8744 Q573.4063,554.8744 572.0781,553.2338 Q570.7656,551.5775 570.7656,548.4525 Q570.7656,545.3275 572.0781,543.6713 Q573.4063,542.015 575.9063,542.015 Q576.6094,542.015 577.25,542.1713 Q577.9063,542.3275 578.4688,542.6244 L578.4688,545.3431 Q577.8438,544.765 577.25,544.4994 Q576.6563,544.2181 576.0313,544.2181 Q574.6875,544.2181 574,545.2963 Q573.3125,546.3588 573.3125,548.4525 Q573.3125,550.5463 574,551.6244 Q574.6875,552.6869 576.0313,552.6869 Q576.6563,552.6869 577.25,552.4213 Q577.8438,552.14 578.4688,551.5619 L578.4688,554.2806 Z " fill="#000000"/><text fill="#000000" font-family="sans-serif" font-size="14" lengthAdjust="spacing" textLength="78" x="589.5" y="553.4867">Endpoint_n</text><line style="stroke:#181818;stroke-width:0.5;" x1="561.5" x2="669.5" y1="564.64" y2="564.64"/><line style="stroke:#181818;stroke-width:0.5;" x1="561.5" x2="669.5" y1="572.64" y2="572.64"/></g><!--class Location_n--><g id="elem_Location_n"><rect fill="#F1F1F1" height="48" id="Location_n" rx="2.5" ry="2.5" style="stroke:#181818;stroke-width:0.5;" width="106" x="705.5" y="532.64"/><ellipse cx="720.5" cy="548.64" fill="#ADD1B2" rx="11" ry="11" style="stroke:#181818;stroke-width:1.0;"/><path d="M723.4688,554.2806 Q722.8906,554.5775 722.25,554.7181 Q721.6094,554.8744 720.9063,554.8744 Q718.4063,554.8744 717.0781,553.2338 Q715.7656,551.5775 715.7656,548.4525 Q715.7656,545.3275 717.0781,543.6713 Q718.4063,542.015 720.9063,542.015 Q721.6094,542.015 722.25,542.1713 Q722.9063,542.3275 723.4688,542.6244 L723.4688,545.3431 Q722.8438,544.765 722.25,544.4994 Q721.6563,544.2181 721.0313,544.2181 Q719.6875,544.2181 719,545.2963 Q718.3125,546.3588 718.3125,548.4525 Q718.3125,550.5463 719,551.6244 Q719.6875,552.6869 721.0313,552.6869 Q721.6563,552.6869 722.25,552.4213 Q722.8438,552.14 723.4688,551.5619 L723.4688,554.2806 Z " fill="#000000"/><text fill="#000000" font-family="sans-serif" font-size="14" lengthAdjust="spacing" textLength="74" x="734.5" y="553.4867">Location_n</text><line style="stroke:#181818;stroke-width:0.5;" x1="706.5" x2="810.5" y1="564.64" y2="564.64"/><line style="stroke:#181818;stroke-width:0.5;" x1="706.5" x2="810.5" y1="572.64" y2="572.64"/></g><!--reverse link Organization to HealthcareService--><g id="link_Organization_HealthcareService"><path codeLine="40" d="M453.1792,174.7622 C442.6192,193.8822 434.2,209.13 423.45,228.6 " fill="none" id="Organization-backto-HealthcareService" style="stroke:#181818;stroke-width:1.0;"/><polygon fill="#181818" points="456.08,169.51,448.2274,175.4544,453.6627,173.8868,455.2303,179.3221,456.08,169.51" style="stroke:#181818;stroke-width:1.0;"/></g><!--link HealthcareService to Endpoint--><g id="link_HealthcareService_Endpoint"><path codeLine="41" d="M280.31,407.62 C259.62,427.03 242.0758,443.4748 221.3758,462.8948 " fill="none" id="HealthcareService-to-Endpoint" style="stroke:#181818;stroke-width:1.0;"/><polygon fill="#181818" points="217,467,226.3005,463.7594,220.6465,463.579,220.8269,457.925,217,467" style="stroke:#181818;stroke-width:1.0;"/></g><!--link HealthcareService to Location--><g id="link_HealthcareService_Location"><path codeLine="42" d="M379.36,407.62 C381.23,441.58 382.9608,473.069 384.5408,501.819 " fill="none" id="HealthcareService-to-Location" style="stroke:#181818;stroke-width:1.0;"/><polygon fill="#181818" points="384.87,507.81,388.3701,498.6041,384.5956,502.8175,380.3822,499.0431,384.87,507.81" style="stroke:#181818;stroke-width:1.0;"/></g><!--reverse link Organization to HealthcareService_n--><g id="link_Organization_HealthcareService_n"><path codeLine="44" d="M548.1975,174.7529 C572.6875,218.7629 598.35,264.88 614.54,293.99 " fill="none" id="Organization-backto-HealthcareService_n" style="stroke:#181818;stroke-width:1.0;"/><polygon fill="#181818" points="545.28,169.51,546.161,179.3194,547.7112,173.8791,553.1515,175.4294,545.28,169.51" style="stroke:#181818;stroke-width:1.0;"/></g><!--link HealthcareService_n to Endpoint_n--><g id="link_HealthcareService_n_Endpoint_n"><path codeLine="45" d="M626.33,342.36 C624.03,387.55 619.2845,481.1977 616.9845,526.4577 " fill="none" id="HealthcareService_n-to-Endpoint_n" style="stroke:#181818;stroke-width:1.0;"/><polygon fill="#181818" points="616.68,532.45,621.1316,523.6646,616.9338,527.4564,613.1419,523.2586,616.68,532.45" style="stroke:#181818;stroke-width:1.0;"/></g><!--link HealthcareService_n to Location_n--><g id="link_HealthcareService_n_Location_n"><path codeLine="46" d="M640.3,342.36 C665.34,387.55 717.651,481.9424 742.741,527.2024 " fill="none" id="HealthcareService_n-to-Location_n" style="stroke:#181818;stroke-width:1.0;"/><polygon fill="#181818" points="745.65,532.45,744.7849,522.6392,743.2258,528.077,737.788,526.5179,745.65,532.45" style="stroke:#181818;stroke-width:1.0;"/></g><!--SRC=[dLJ1JeD04Btp5NkifY3SZOb64qrgQbBlPh8xqasMNR9iCTZqtrsab6rPG3p2FERDU_C64b01HK7MEWN9ly5m9Sa-86J_oL6m0-4CfU7sGPD54aNNI_AwMPBLu_tRbOEIaE5lFQdhRWK4Xu8iukEdRibKEOxq16fuwNJj8mmAf2hpTy_GG6GWZPJcAPVzFeU07CK_8mYpfQ1nWxha52STS8bohKgBOG_L9SVD-akYTh55ZfHRIqpL3Js45OeswvX4ecIvujByquWBQ85qf-s4aQfvNfXVzJbqgmJp9QJp-AcTSOwrL4c9j3RXtMR5BwymO7O32MjY6VjYoPX6EvOtipbKGW5hE9CvbiuoipDdrQvw_kMTXCJZMvswXBCVm6qOzeyYw9z96DwT5ZjGRgNzYU931fvtPpGZa9RAGiWF]--></g></svg>