<?xml version="1.0" encoding="UTF-8" standalone="no"?><svg xmlns="http://www.w3.org/2000/svg" xmlns:xlink="http://www.w3.org/1999/xlink" contentScriptType="application/ecmascript" contentStyleType="text/css" height="463px" preserveAspectRatio="none" style="width:635px;height:463px;background:#FFFFFF;" version="1.1" viewBox="0 0 635 463" width="635px" zoomAndPan="magnify"><defs><filter height="300%" id="fgdc8t5at12i3" width="300%" x="-1" y="-1"><feGaussianBlur result="blurOut" stdDeviation="2.0"/><feColorMatrix in="blurOut" result="blurOut2" type="matrix" values="0 0 0 0 0 0 0 0 0 0 0 0 0 0 0 0 0 0 .4 0"/><feOffset dx="4.0" dy="4.0" in="blurOut2" result="blurOut3"/><feBlend in="SourceGraphic" in2="blurOut3" mode="normal"/></filter></defs><g><!--MD5=[e7f1f8ff98ca4645da414d6b6c370369]
class HealthcareService--><rect codeLine="2" fill="#F8F8F8" filter="url(#fgdc8t5at12i3)" height="201.6563" id="HealthcareService" style="stroke:#383838;stroke-width:1.5;" width="192" x="238.5" y="7"/><ellipse cx="274.2" cy="23" fill="#C2C2C2" rx="11" ry="11" style="stroke:#383838;stroke-width:1.0;"/><path d="M277.1688,28.6406 Q276.5906,28.9375 275.95,29.0781 Q275.3094,29.2344 274.6063,29.2344 Q272.1063,29.2344 270.7781,27.5938 Q269.4656,25.9375 269.4656,22.8125 Q269.4656,19.6875 270.7781,18.0313 Q272.1063,16.375 274.6063,16.375 Q275.3094,16.375 275.95,16.5313 Q276.6063,16.6875 277.1688,16.9844 L277.1688,19.7031 Q276.5438,19.125 275.95,18.8594 Q275.3563,18.5781 274.7313,18.5781 Q273.3875,18.5781 272.7,19.6563 Q272.0125,20.7188 272.0125,22.8125 Q272.0125,24.9063 272.7,25.9844 Q273.3875,27.0469 274.7313,27.0469 Q275.3563,27.0469 275.95,26.7813 Q276.5438,26.5 277.1688,25.9219 L277.1688,28.6406 Z " fill="#000000"/><text fill="#000000" font-family="sans-serif" font-size="12" lengthAdjust="spacing" textLength="114" x="292.8" y="27.1543">HealthcareService</text><line style="stroke:#383838;stroke-width:1.5;" x1="239.5" x2="429.5" y1="39" y2="39"/><text fill="#000000" font-family="sans-serif" font-size="11" lengthAdjust="spacing" textLength="108" x="244.5" y="53.2104">identifier (0..*, MS)</text><text fill="#000000" font-family="sans-serif" font-size="11" lengthAdjust="spacing" textLength="158" x="244.5" y="66.0151">providedBy (1..1, MS, LDAP)</text><text fill="#000000" font-family="sans-serif" font-size="11" lengthAdjust="spacing" textLength="147" x="244.5" y="78.8198">speciality (0..*, MS, LDAP)</text><text fill="#000000" font-family="sans-serif" font-size="11" lengthAdjust="spacing" textLength="138" x="244.5" y="91.6245">location (0..*, MS, LDAP)</text><text fill="#000000" font-family="sans-serif" font-size="11" lengthAdjust="spacing" textLength="91" x="244.5" y="104.4292">name (0..1, MS)</text><text fill="#000000" font-family="sans-serif" font-size="11" lengthAdjust="spacing" textLength="103" x="244.5" y="117.2339">telecom (0..*, MS)</text><text fill="#000000" font-family="sans-serif" font-size="11" lengthAdjust="spacing" textLength="180" x="244.5" y="130.0386">serviceProvisionCode (0..*, MS)</text><text fill="#000000" font-family="sans-serif" font-size="11" lengthAdjust="spacing" textLength="144" x="244.5" y="142.8433">communication (0..*, MS)</text><text fill="#000000" font-family="sans-serif" font-size="11" lengthAdjust="spacing" textLength="180" x="244.5" y="155.6479">appointmentRequired (0..1, MS)</text><text fill="#000000" font-family="sans-serif" font-size="11" lengthAdjust="spacing" textLength="136" x="244.5" y="168.4526">availableTime (0..*, MS)</text><text fill="#000000" font-family="sans-serif" font-size="11" lengthAdjust="spacing" textLength="178" x="244.5" y="181.2573">availabilityExceptions (0..*, MS)</text><text fill="#000000" font-family="sans-serif" font-size="11" lengthAdjust="spacing" textLength="107" x="244.5" y="194.062">endpoint (0..*, MS)</text><line style="stroke:#383838;stroke-width:1.5;" x1="239.5" x2="429.5" y1="200.6563" y2="200.6563"/><!--MD5=[4fd3bb6c1d79f4919f90c95b62a35422]
class Endpoint--><rect codeLine="16" fill="#F8F8F8" filter="url(#fgdc8t5at12i3)" height="137.6328" id="Endpoint" style="stroke:#383838;stroke-width:1.5;" width="197" x="7" y="298.5"/><ellipse cx="73.25" cy="314.5" fill="#C2C2C2" rx="11" ry="11" style="stroke:#383838;stroke-width:1.0;"/><path d="M76.2188,320.1406 Q75.6406,320.4375 75,320.5781 Q74.3594,320.7344 73.6563,320.7344 Q71.1563,320.7344 69.8281,319.0938 Q68.5156,317.4375 68.5156,314.3125 Q68.5156,311.1875 69.8281,309.5313 Q71.1563,307.875 73.6563,307.875 Q74.3594,307.875 75,308.0313 Q75.6563,308.1875 76.2188,308.4844 L76.2188,311.2031 Q75.5938,310.625 75,310.3594 Q74.4063,310.0781 73.7813,310.0781 Q72.4375,310.0781 71.75,311.1563 Q71.0625,312.2188 71.0625,314.3125 Q71.0625,316.4063 71.75,317.4844 Q72.4375,318.5469 73.7813,318.5469 Q74.4063,318.5469 75,318.2813 Q75.5938,318 76.2188,317.4219 L76.2188,320.1406 Z " fill="#000000"/><text fill="#000000" font-family="sans-serif" font-size="12" lengthAdjust="spacing" textLength="56" x="93.75" y="318.6543">Endpoint</text><line style="stroke:#383838;stroke-width:1.5;" x1="8" x2="203" y1="330.5" y2="330.5"/><text fill="#000000" font-family="sans-serif" font-size="11" lengthAdjust="spacing" textLength="108" x="13" y="344.7104">identifier (0..*, MS)</text><text fill="#000000" font-family="sans-serif" font-size="11" lengthAdjust="spacing" textLength="94" x="13" y="357.5151">status (0..*, MS)</text><text fill="#000000" font-family="sans-serif" font-size="11" lengthAdjust="spacing" textLength="147" x="13" y="370.3198">connectionType (1..1, MS)</text><text fill="#000000" font-family="sans-serif" font-size="11" lengthAdjust="spacing" textLength="91" x="13" y="383.1245">name (0..1, MS)</text><text fill="#000000" font-family="sans-serif" font-size="11" lengthAdjust="spacing" textLength="185" x="13" y="395.9292">managingOrganization (0..*, MS)</text><text fill="#000000" font-family="sans-serif" font-size="11" lengthAdjust="spacing" textLength="129" x="13" y="408.7339">payloadType (1..*, MS)</text><text fill="#000000" font-family="sans-serif" font-size="11" lengthAdjust="spacing" textLength="106" x="13" y="421.5386">address (1..1, MS)</text><line style="stroke:#383838;stroke-width:1.5;" x1="8" x2="203" y1="428.1328" y2="428.1328"/><!--MD5=[4f1f3706c1a355a8488e154afcaed5df]
class Location--><rect codeLine="25" fill="#F8F8F8" filter="url(#fgdc8t5at12i3)" height="163.2422" id="Location" style="stroke:#383838;stroke-width:1.5;" width="191" x="239" y="286"/><ellipse cx="303.75" cy="302" fill="#C2C2C2" rx="11" ry="11" style="stroke:#383838;stroke-width:1.0;"/><path d="M306.7188,307.6406 Q306.1406,307.9375 305.5,308.0781 Q304.8594,308.2344 304.1563,308.2344 Q301.6563,308.2344 300.3281,306.5938 Q299.0156,304.9375 299.0156,301.8125 Q299.0156,298.6875 300.3281,297.0313 Q301.6563,295.375 304.1563,295.375 Q304.8594,295.375 305.5,295.5313 Q306.1563,295.6875 306.7188,295.9844 L306.7188,298.7031 Q306.0938,298.125 305.5,297.8594 Q304.9063,297.5781 304.2813,297.5781 Q302.9375,297.5781 302.25,298.6563 Q301.5625,299.7188 301.5625,301.8125 Q301.5625,303.9063 302.25,304.9844 Q302.9375,306.0469 304.2813,306.0469 Q304.9063,306.0469 305.5,305.7813 Q306.0938,305.5 306.7188,304.9219 L306.7188,307.6406 Z " fill="#000000"/><text fill="#000000" font-family="sans-serif" font-size="12" lengthAdjust="spacing" textLength="53" x="324.25" y="306.1543">Location</text><line style="stroke:#383838;stroke-width:1.5;" x1="240" x2="429" y1="318" y2="318"/><text fill="#000000" font-family="sans-serif" font-size="11" lengthAdjust="spacing" textLength="108" x="245" y="332.2104">identifier (0..*, MS)</text><text fill="#000000" font-family="sans-serif" font-size="11" lengthAdjust="spacing" textLength="94" x="245" y="345.0151">status (0..*, MS)</text><text fill="#000000" font-family="sans-serif" font-size="11" lengthAdjust="spacing" textLength="91" x="245" y="357.8198">name (0..1, MS)</text><text fill="#000000" font-family="sans-serif" font-size="11" lengthAdjust="spacing" textLength="122" x="245" y="370.6245">description (0..1, MS)</text><text fill="#000000" font-family="sans-serif" font-size="11" lengthAdjust="spacing" textLength="103" x="245" y="383.4292">telecom (0..*, MS)</text><text fill="#000000" font-family="sans-serif" font-size="11" lengthAdjust="spacing" textLength="142" x="245" y="396.2339">address (0..1, MS, LDAP)</text><text fill="#000000" font-family="sans-serif" font-size="11" lengthAdjust="spacing" textLength="104" x="245" y="409.0386">position (0..1, MS)</text><text fill="#000000" font-family="sans-serif" font-size="11" lengthAdjust="spacing" textLength="160" x="245" y="421.8433">hoursOfOperation (0..*, MS)</text><text fill="#000000" font-family="sans-serif" font-size="11" lengthAdjust="spacing" textLength="179" x="245" y="434.6479">availabilityExceptions (0..1, MS)</text><line style="stroke:#383838;stroke-width:1.5;" x1="240" x2="429" y1="441.2422" y2="441.2422"/><!--MD5=[86c7c362de55a38b660185a1328fe18d]
class Organization--><rect codeLine="36" fill="#F8F8F8" filter="url(#fgdc8t5at12i3)" height="137.6328" id="Organization" style="stroke:#383838;stroke-width:1.5;" width="156" x="465.5" y="298.5"/><ellipse cx="501.2" cy="314.5" fill="#C2C2C2" rx="11" ry="11" style="stroke:#383838;stroke-width:1.0;"/><path d="M504.1688,320.1406 Q503.5906,320.4375 502.95,320.5781 Q502.3094,320.7344 501.6063,320.7344 Q499.1063,320.7344 497.7781,319.0938 Q496.4656,317.4375 496.4656,314.3125 Q496.4656,311.1875 497.7781,309.5313 Q499.1063,307.875 501.6063,307.875 Q502.3094,307.875 502.95,308.0313 Q503.6063,308.1875 504.1688,308.4844 L504.1688,311.2031 Q503.5438,310.625 502.95,310.3594 Q502.3563,310.0781 501.7313,310.0781 Q500.3875,310.0781 499.7,311.1563 Q499.0125,312.2188 499.0125,314.3125 Q499.0125,316.4063 499.7,317.4844 Q500.3875,318.5469 501.7313,318.5469 Q502.3563,318.5469 502.95,318.2813 Q503.5438,318 504.1688,317.4219 L504.1688,320.1406 Z " fill="#000000"/><text fill="#000000" font-family="sans-serif" font-size="12" lengthAdjust="spacing" textLength="78" x="519.8" y="318.6543">Organization</text><line style="stroke:#383838;stroke-width:1.5;" x1="466.5" x2="620.5" y1="330.5" y2="330.5"/><text fill="#000000" font-family="sans-serif" font-size="11" lengthAdjust="spacing" textLength="144" x="471.5" y="344.7104">identifier (1..*, MS, LDAP)</text><text fill="#000000" font-family="sans-serif" font-size="11" lengthAdjust="spacing" textLength="128" x="471.5" y="357.5151">active (1..1, MS, LDAP)</text><text fill="#000000" font-family="sans-serif" font-size="11" lengthAdjust="spacing" textLength="119" x="471.5" y="370.3198">type (1..1, MS, LDAP)</text><text fill="#000000" font-family="sans-serif" font-size="11" lengthAdjust="spacing" textLength="127" x="471.5" y="383.1245">name (1..1, MS, LDAP)</text><text fill="#000000" font-family="sans-serif" font-size="11" lengthAdjust="spacing" textLength="85" x="471.5" y="395.9292">alias (0..*, MS)</text><text fill="#000000" font-family="sans-serif" font-size="11" lengthAdjust="spacing" textLength="103" x="471.5" y="408.7339">telecom (0..*, MS)</text><text fill="#000000" font-family="sans-serif" font-size="11" lengthAdjust="spacing" textLength="99" x="471.5" y="421.5386">contact (0..*, MS)</text><line style="stroke:#383838;stroke-width:1.5;" x1="466.5" x2="620.5" y1="428.1328" y2="428.1328"/><!--MD5=[6f2477b0057d6d863baac3cc01263906]
reverse link HealthcareService to Organization--><path codeLine="46" d="M424.18,219.49 C445.91,246.27 468.51,274.11 488.13,298.28 " fill="none" id="HealthcareService-backto-Organization" style="stroke:#383838;stroke-width:1.0;"/><polygon fill="#FFFFFF" points="415.9,209.29,416.5703,216.4699,423.4557,218.6126,422.7854,211.4328,415.9,209.29" style="stroke:#383838;stroke-width:1.0;"/><text fill="#000000" font-family="sans-serif" font-size="13" lengthAdjust="spacing" textLength="71" x="452.5" y="252.0669">providedBy</text><!--MD5=[3511516a64eecd1a7f097b12e1d19ff7]
reverse link HealthcareService to Endpoint--><path codeLine="47" d="M236.55,219.14 C212.65,246.02 187.76,274.01 166.17,298.28 " fill="none" id="HealthcareService-backto-Endpoint" style="stroke:#383838;stroke-width:1.0;"/><polygon fill="#FFFFFF" points="245.31,209.29,238.3333,211.1138,237.3335,218.2553,244.3102,216.4315,245.31,209.29" style="stroke:#383838;stroke-width:1.0;"/><text fill="#000000" font-family="sans-serif" font-size="13" lengthAdjust="spacing" textLength="56" x="214.5" y="252.0669">endpoint</text><!--MD5=[eb80e139a64af3c5d009312d469c3596]
reverse link HealthcareService to Location--><path codeLine="48" d="M334.5,222.52 C334.5,243.91 334.5,265.86 334.5,285.99 " fill="none" id="HealthcareService-backto-Location" style="stroke:#383838;stroke-width:1.0;"/><polygon fill="#FFFFFF" points="334.5,209.29,330.5,215.29,334.5,221.29,338.5,215.29,334.5,209.29" style="stroke:#383838;stroke-width:1.0;"/><text fill="#000000" font-family="sans-serif" font-size="13" lengthAdjust="spacing" textLength="50" x="335.5" y="252.0669">location</text><!--MD5=[df48c7361f09e799527dc58a69b2673c]
@startuml ClassDiagram.HealthcareService
skinparam monochrome true
class HealthcareService {
  {field} identifier (0..*, MS)
  {field} providedBy (1..1, MS, LDAP)
  {field} speciality (0..*, MS, LDAP)
  {field} location (0..*, MS, LDAP)
  {field} name (0..1, MS)
  {field} telecom (0..*, MS)
  {field} serviceProvisionCode (0..*, MS)
  {field} communication (0..*, MS)
  {field} appointmentRequired (0..1, MS)
  {field} availableTime (0..*, MS)
  {field} availabilityExceptions (0..*, MS)
  {field} endpoint (0..*, MS)
}
class Endpoint {
  {field} identifier (0..*, MS)
  {field} status (0..*, MS)
  {field} connectionType (1..1, MS)
  {field} name (0..1, MS)
  {field} managingOrganization (0..*, MS)
  {field} payloadType (1..*, MS)
  {field} address (1..1, MS)
}
class Location {
  {field} identifier (0..*, MS)
  {field} status (0..*, MS)
  {field} name (0..1, MS)
  {field} description (0..1, MS)
  {field} telecom (0..*, MS)
  {field} address (0..1, MS, LDAP)
  {field} position (0..1, MS)
  {field} hoursOfOperation (0..*, MS)
  {field} availabilityExceptions (0..1, MS)
}
class Organization {
  {field} identifier (1..*, MS, LDAP)
  {field} active (1..1, MS, LDAP)
  {field} type (1..1, MS, LDAP)
  {field} name (1..1, MS, LDAP)
  {field} alias (0..*, MS)
  {field} telecom (0..*, MS)
  {field} contact (0..*, MS)
}

HealthcareService o- - Organization: providedBy
HealthcareService o- - Endpoint: endpoint
HealthcareService o- - Location: location

@enduml

PlantUML version 1.2021.16(Wed Dec 08 17:25:22 UTC 2021)
(GPL source distribution)
Java Runtime: OpenJDK Runtime Environment
JVM: OpenJDK 64-Bit Server VM
Default Encoding: UTF-8
Language: en
Country: null
--></g></svg>