<svg xmlns="http://www.w3.org/2000/svg" xmlns:xlink="http://www.w3.org/1999/xlink" contentStyleType="text/css" height="834px" preserveAspectRatio="none" style="width:2079px;height:834px;background:#FFFFFF;" version="1.1" viewBox="0 0 2079 834" width="2079px" zoomAndPan="magnify"><defs/><g><!--cluster LDAP VZD--><g id="cluster_LDAP VZD"><rect fill="#90EE90" height="172" rx="2.5" ry="2.5" style="stroke:#181818;stroke-width:1.0;" width="898" x="7" y="7"/><path d="M96,7 L96,16.2969 L86,26.2969 L7,26.2969 " fill="none" style="stroke:#181818;stroke-width:1.0;"/><text fill="#000000" font-family="sans-serif" font-size="14" font-weight="bold" lengthAdjust="spacing" textLength="79" x="10" y="20.9951">LDAP VZD</text></g><!--cluster FHIR VZD--><g id="cluster_FHIR VZD"><rect fill="#FFFFE0" height="616" rx="2.5" ry="2.5" style="stroke:#181818;stroke-width:1.0;" width="1229" x="187" y="212"/><path d="M269,212 L269,221.2969 L259,231.2969 L187,231.2969 " fill="none" style="stroke:#181818;stroke-width:1.0;"/><text fill="#000000" font-family="sans-serif" font-size="14" font-weight="bold" lengthAdjust="spacing" textLength="72" x="190" y="225.9951">FHIR VZD</text></g><!--cluster ApoVZD--><g id="cluster_ApoVZD"><rect fill="#ADD8E6" height="172" rx="2.5" ry="2.5" style="stroke:#181818;stroke-width:1.0;" width="582" x="1291" y="7"/><path d="M1365,7 L1365,16.2969 L1355,26.2969 L1291,26.2969 " fill="none" style="stroke:#181818;stroke-width:1.0;"/><text fill="#000000" font-family="sans-serif" font-size="14" font-weight="bold" lengthAdjust="spacing" textLength="64" x="1294" y="20.9951">ApoVZD</text></g><!--class specialization--><g id="elem_specialization"><rect codeLine="4" fill="#F1F1F1" height="113.1875" id="specialization" rx="2.5" ry="2.5" style="stroke:#181818;stroke-width:0.5;" width="304" x="232" y="46"/><ellipse cx="333.25" cy="62" fill="#ADD1B2" rx="11" ry="11" style="stroke:#181818;stroke-width:1.0;"/><path d="M336.2188,67.6406 Q335.6406,67.9375 335,68.0781 Q334.3594,68.2344 333.6563,68.2344 Q331.1563,68.2344 329.8281,66.5938 Q328.5156,64.9375 328.5156,61.8125 Q328.5156,58.6875 329.8281,57.0313 Q331.1563,55.375 333.6563,55.375 Q334.3594,55.375 335,55.5313 Q335.6563,55.6875 336.2188,55.9844 L336.2188,58.7031 Q335.5938,58.125 335,57.8594 Q334.4063,57.5781 333.7813,57.5781 Q332.4375,57.5781 331.75,58.6563 Q331.0625,59.7188 331.0625,61.8125 Q331.0625,63.9063 331.75,64.9844 Q332.4375,66.0469 333.7813,66.0469 Q334.4063,66.0469 335,65.7813 Q335.5938,65.5 336.2188,64.9219 L336.2188,67.6406 Z " fill="#000000"/><text fill="#000000" font-family="sans-serif" font-size="14" lengthAdjust="spacing" textLength="93" x="353.75" y="66.8467">specialization</text><line style="stroke:#181818;stroke-width:0.5;" x1="233" x2="535" y1="78" y2="78"/><ellipse cx="243" cy="91.6484" fill="none" rx="3" ry="3" style="stroke:#038048;stroke-width:1.0;"/><text fill="#000000" font-family="sans-serif" font-size="14" lengthAdjust="spacing" textLength="141" x="252" y="94.9951">10_Officin_Apotheke</text><ellipse cx="243" cy="107.9453" fill="none" rx="3" ry="3" style="stroke:#038048;stroke-width:1.0;"/><text fill="#000000" font-family="sans-serif" font-size="14" lengthAdjust="spacing" textLength="278" x="252" y="111.292">20_Krankenhausversorgende_Apotheke</text><ellipse cx="243" cy="124.2422" fill="none" rx="3" ry="3" style="stroke:#038048;stroke-width:1.0;"/><text fill="#000000" font-family="sans-serif" font-size="14" lengthAdjust="spacing" textLength="222" x="252" y="127.5889">30_Heimversorgende_Apotheke</text><ellipse cx="243" cy="140.5391" fill="none" rx="3" ry="3" style="stroke:#038048;stroke-width:1.0;"/><text fill="#000000" font-family="sans-serif" font-size="14" lengthAdjust="spacing" textLength="148" x="252" y="143.8857">40_Versandapotheke</text><line style="stroke:#181818;stroke-width:0.5;" x1="233" x2="535" y1="151.1875" y2="151.1875"/></g><g id="elem_GMN4"><path d="M22.5,89.93 L22.5,115.0628 A0,0 0 0 0 22.5,115.0628 L189.5,115.0628 A0,0 0 0 0 189.5,115.0628 L189.5,107.93 L224.01,102.5 L189.5,99.93 L189.5,99.93 L179.5,89.93 L22.5,89.93 A0,0 0 0 0 22.5,89.93 " fill="#FEFFDD" style="stroke:#181818;stroke-width:0.5;"/><path d="M179.5,89.93 L179.5,99.93 L189.5,99.93 L179.5,89.93 " fill="#FEFFDD" style="stroke:#181818;stroke-width:0.5;"/><text fill="#000000" font-family="sans-serif" font-size="13" lengthAdjust="spacing" textLength="146" x="28.5" y="106.9969">PharmacyTypeLDAPCS</text></g><!--class professionOID--><g id="elem_professionOID"><rect codeLine="15" fill="#F1F1F1" height="96.8906" id="professionOID" rx="2.5" ry="2.5" style="stroke:#181818;stroke-width:0.5;" width="311" x="578.5" y="54.05"/><ellipse cx="680.75" cy="70.05" fill="#ADD1B2" rx="11" ry="11" style="stroke:#181818;stroke-width:1.0;"/><path d="M683.7188,75.6906 Q683.1406,75.9875 682.5,76.1281 Q681.8594,76.2844 681.1563,76.2844 Q678.6563,76.2844 677.3281,74.6437 Q676.0156,72.9875 676.0156,69.8625 Q676.0156,66.7375 677.3281,65.0812 Q678.6563,63.425 681.1563,63.425 Q681.8594,63.425 682.5,63.5812 Q683.1563,63.7375 683.7188,64.0344 L683.7188,66.7531 Q683.0938,66.175 682.5,65.9094 Q681.9063,65.6281 681.2813,65.6281 Q679.9375,65.6281 679.25,66.7062 Q678.5625,67.7687 678.5625,69.8625 Q678.5625,71.9562 679.25,73.0344 Q679.9375,74.0969 681.2813,74.0969 Q681.9063,74.0969 682.5,73.8312 Q683.0938,73.55 683.7188,72.9719 L683.7188,75.6906 Z " fill="#000000"/><text fill="#000000" font-family="sans-serif" font-size="14" lengthAdjust="spacing" textLength="98" x="701.25" y="74.8967">professionOID</text><line style="stroke:#181818;stroke-width:0.5;" x1="579.5" x2="888.5" y1="86.05" y2="86.05"/><ellipse cx="589.5" cy="99.6984" fill="none" rx="3" ry="3" style="stroke:#038048;stroke-width:1.0;"/><text fill="#000000" font-family="sans-serif" font-size="14" lengthAdjust="spacing" textLength="123" x="598.5" y="103.0451">1.2.276.0.76.4.54</text><text fill="#000000" font-family="sans-serif" font-size="14" lengthAdjust="spacing" textLength="145" x="726.5" y="103.0451">&#214;ffentliche Apotheke</text><ellipse cx="589.5" cy="115.9953" fill="none" rx="3" ry="3" style="stroke:#038048;stroke-width:1.0;"/><text fill="#000000" font-family="sans-serif" font-size="14" lengthAdjust="spacing" textLength="123" x="598.5" y="119.342">1.2.276.0.76.4.55</text><text fill="#000000" font-family="sans-serif" font-size="14" lengthAdjust="spacing" textLength="157" x="726.5" y="119.342">Krankenhausapotheke</text><ellipse cx="589.5" cy="132.2922" fill="none" rx="3" ry="3" style="stroke:#038048;stroke-width:1.0;"/><text fill="#000000" font-family="sans-serif" font-size="14" lengthAdjust="spacing" textLength="123" x="598.5" y="135.6389">1.2.276.0.76.4.56</text><text fill="#000000" font-family="sans-serif" font-size="14" lengthAdjust="spacing" textLength="154" x="726.5" y="135.6389">Bundeswehrapotheke</text><line style="stroke:#181818;stroke-width:0.5;" x1="579.5" x2="888.5" y1="142.9406" y2="142.9406"/></g><!--class HealthcareService_specialty--><g id="elem_HealthcareService_specialty"><rect codeLine="24" fill="#F1F1F1" height="129.4844" id="HealthcareService_specialty" rx="2.5" ry="2.5" style="stroke:#181818;stroke-width:0.5;" width="223" x="211.5" y="514"/><ellipse cx="226.5" cy="530" fill="#ADD1B2" rx="11" ry="11" style="stroke:#181818;stroke-width:1.0;"/><path d="M229.4688,535.6406 Q228.8906,535.9375 228.25,536.0781 Q227.6094,536.2344 226.9063,536.2344 Q224.4063,536.2344 223.0781,534.5938 Q221.7656,532.9375 221.7656,529.8125 Q221.7656,526.6875 223.0781,525.0313 Q224.4063,523.375 226.9063,523.375 Q227.6094,523.375 228.25,523.5313 Q228.9063,523.6875 229.4688,523.9844 L229.4688,526.7031 Q228.8438,526.125 228.25,525.8594 Q227.6563,525.5781 227.0313,525.5781 Q225.6875,525.5781 225,526.6563 Q224.3125,527.7188 224.3125,529.8125 Q224.3125,531.9063 225,532.9844 Q225.6875,534.0469 227.0313,534.0469 Q227.6563,534.0469 228.25,533.7813 Q228.8438,533.5 229.4688,532.9219 L229.4688,535.6406 Z " fill="#000000"/><text fill="#000000" font-family="sans-serif" font-size="14" lengthAdjust="spacing" textLength="191" x="240.5" y="534.8467">HealthcareService_specialty</text><line style="stroke:#181818;stroke-width:0.5;" x1="212.5" x2="433.5" y1="546" y2="546"/><ellipse cx="222.5" cy="559.6484" fill="none" rx="3" ry="3" style="stroke:#038048;stroke-width:1.0;"/><text fill="#000000" font-family="sans-serif" font-size="14" lengthAdjust="spacing" textLength="111" x="231.5" y="562.9951">10_Handverkauf</text><ellipse cx="222.5" cy="575.9453" fill="none" rx="3" ry="3" style="stroke:#038048;stroke-width:1.0;"/><text fill="#000000" font-family="sans-serif" font-size="14" lengthAdjust="spacing" textLength="173" x="231.5" y="579.292">20_Nacht_und_Notdienst</text><ellipse cx="222.5" cy="592.2422" fill="none" rx="3" ry="3" style="stroke:#038048;stroke-width:1.0;"/><text fill="#000000" font-family="sans-serif" font-size="14" lengthAdjust="spacing" textLength="110" x="231.5" y="595.5889">30_Botendienst</text><ellipse cx="222.5" cy="608.5391" fill="none" rx="3" ry="3" style="stroke:#038048;stroke-width:1.0;"/><text fill="#000000" font-family="sans-serif" font-size="14" lengthAdjust="spacing" textLength="82" x="231.5" y="611.8857">40_Versand</text><ellipse cx="222.5" cy="624.8359" fill="none" rx="3" ry="3" style="stroke:#038048;stroke-width:1.0;"/><text fill="#000000" font-family="sans-serif" font-size="14" lengthAdjust="spacing" textLength="137" x="231.5" y="628.1826">50_Sterilherstellung</text><line style="stroke:#181818;stroke-width:0.5;" x1="212.5" x2="433.5" y1="635.4844" y2="635.4844"/></g><g id="elem_GMN10"><path d="M203,327.43 L203,352.5628 A0,0 0 0 0 203,352.5628 L316.15,352.5628 L322.14,510.09 L324.15,352.5628 L437,352.5628 A0,0 0 0 0 437,352.5628 L437,337.43 L427,327.43 L203,327.43 A0,0 0 0 0 203,327.43 " fill="#FEFFDD" style="stroke:#181818;stroke-width:0.5;"/><path d="M427,327.43 L427,337.43 L437,337.43 L427,327.43 " fill="#FEFFDD" style="stroke:#181818;stroke-width:0.5;"/><text fill="#000000" font-family="sans-serif" font-size="13" lengthAdjust="spacing" textLength="213" x="209" y="344.4969">PharmacyHealthcareSpecialityCS</text></g><!--class HealthcareService_type--><g id="elem_HealthcareService_type"><rect codeLine="36" fill="#F1F1F1" height="145.7813" id="HealthcareService_type" rx="2.5" ry="2.5" style="stroke:#181818;stroke-width:0.5;" width="276" x="472" y="267.11"/><ellipse cx="525.25" cy="283.11" fill="#ADD1B2" rx="11" ry="11" style="stroke:#181818;stroke-width:1.0;"/><path d="M528.2188,288.7506 Q527.6406,289.0475 527,289.1881 Q526.3594,289.3444 525.6563,289.3444 Q523.1563,289.3444 521.8281,287.7038 Q520.5156,286.0475 520.5156,282.9225 Q520.5156,279.7975 521.8281,278.1413 Q523.1563,276.485 525.6563,276.485 Q526.3594,276.485 527,276.6413 Q527.6563,276.7975 528.2188,277.0944 L528.2188,279.8131 Q527.5938,279.235 527,278.9694 Q526.4063,278.6881 525.7813,278.6881 Q524.4375,278.6881 523.75,279.7663 Q523.0625,280.8288 523.0625,282.9225 Q523.0625,285.0163 523.75,286.0944 Q524.4375,287.1569 525.7813,287.1569 Q526.4063,287.1569 527,286.8913 Q527.5938,286.61 528.2188,286.0319 L528.2188,288.7506 Z " fill="#000000"/><text fill="#000000" font-family="sans-serif" font-size="14" lengthAdjust="spacing" textLength="161" x="545.75" y="287.9567">HealthcareService_type</text><line style="stroke:#181818;stroke-width:0.5;" x1="473" x2="747" y1="299.11" y2="299.11"/><ellipse cx="483" cy="312.7584" fill="none" rx="3" ry="3" style="stroke:#038048;stroke-width:1.0;"/><text fill="#000000" font-family="sans-serif" font-size="14" lengthAdjust="spacing" textLength="114" x="492" y="316.1051">Offizin-Apotheke</text><ellipse cx="483" cy="329.0553" fill="none" rx="3" ry="3" style="stroke:#038048;stroke-width:1.0;"/><text fill="#000000" font-family="sans-serif" font-size="14" lengthAdjust="spacing" textLength="250" x="492" y="332.402">Krankenhausversorgende Apotheke</text><ellipse cx="483" cy="345.3522" fill="none" rx="3" ry="3" style="stroke:#038048;stroke-width:1.0;"/><text fill="#000000" font-family="sans-serif" font-size="14" lengthAdjust="spacing" textLength="154" x="492" y="348.6989">Bundeswehrapotheke</text><ellipse cx="483" cy="361.6491" fill="none" rx="3" ry="3" style="stroke:#038048;stroke-width:1.0;"/><text fill="#000000" font-family="sans-serif" font-size="14" lengthAdjust="spacing" textLength="194" x="492" y="364.9957">Heimversorgende Apotheke</text><ellipse cx="483" cy="377.9459" fill="none" rx="3" ry="3" style="stroke:#038048;stroke-width:1.0;"/><text fill="#000000" font-family="sans-serif" font-size="14" lengthAdjust="spacing" textLength="123" x="492" y="381.2926">Versandapotheke</text><ellipse cx="483" cy="394.2428" fill="none" rx="3" ry="3" style="stroke:#038048;stroke-width:1.0;"/><text fill="#000000" font-family="sans-serif" font-size="14" lengthAdjust="spacing" textLength="112" x="492" y="397.5895">Sterilherstellung</text><line style="stroke:#181818;stroke-width:0.5;" x1="473" x2="747" y1="404.8913" y2="404.8913"/></g><!--class Organization_type--><g id="elem_Organization_type"><rect codeLine="45" fill="#F1F1F1" height="96.8906" id="Organization_type" rx="2.5" ry="2.5" style="stroke:#181818;stroke-width:0.5;" width="311" x="782.5" y="291.55"/><ellipse cx="871.75" cy="307.55" fill="#ADD1B2" rx="11" ry="11" style="stroke:#181818;stroke-width:1.0;"/><path d="M874.7188,313.1906 Q874.1406,313.4875 873.5,313.6281 Q872.8594,313.7844 872.1563,313.7844 Q869.6563,313.7844 868.3281,312.1437 Q867.0156,310.4875 867.0156,307.3625 Q867.0156,304.2375 868.3281,302.5812 Q869.6563,300.925 872.1563,300.925 Q872.8594,300.925 873.5,301.0812 Q874.1563,301.2375 874.7188,301.5344 L874.7188,304.2531 Q874.0938,303.675 873.5,303.4094 Q872.9063,303.1281 872.2813,303.1281 Q870.9375,303.1281 870.25,304.2062 Q869.5625,305.2687 869.5625,307.3625 Q869.5625,309.4562 870.25,310.5344 Q870.9375,311.5969 872.2813,311.5969 Q872.9063,311.5969 873.5,311.3312 Q874.0938,311.05 874.7188,310.4719 L874.7188,313.1906 Z " fill="#000000"/><text fill="#000000" font-family="sans-serif" font-size="14" lengthAdjust="spacing" textLength="124" x="892.25" y="312.3967">Organization_type</text><line style="stroke:#181818;stroke-width:0.5;" x1="783.5" x2="1092.5" y1="323.55" y2="323.55"/><ellipse cx="793.5" cy="337.1984" fill="none" rx="3" ry="3" style="stroke:#038048;stroke-width:1.0;"/><text fill="#000000" font-family="sans-serif" font-size="14" lengthAdjust="spacing" textLength="123" x="802.5" y="340.5451">1.2.276.0.76.4.54</text><text fill="#000000" font-family="sans-serif" font-size="14" lengthAdjust="spacing" textLength="145" x="930.5" y="340.5451">&#214;ffentliche Apotheke</text><ellipse cx="793.5" cy="353.4953" fill="none" rx="3" ry="3" style="stroke:#038048;stroke-width:1.0;"/><text fill="#000000" font-family="sans-serif" font-size="14" lengthAdjust="spacing" textLength="123" x="802.5" y="356.842">1.2.276.0.76.4.55</text><text fill="#000000" font-family="sans-serif" font-size="14" lengthAdjust="spacing" textLength="157" x="930.5" y="356.842">Krankenhausapotheke</text><ellipse cx="793.5" cy="369.7922" fill="none" rx="3" ry="3" style="stroke:#038048;stroke-width:1.0;"/><text fill="#000000" font-family="sans-serif" font-size="14" lengthAdjust="spacing" textLength="123" x="802.5" y="373.1389">1.2.276.0.76.4.56</text><text fill="#000000" font-family="sans-serif" font-size="14" lengthAdjust="spacing" textLength="154" x="930.5" y="373.1389">Bundeswehrapotheke</text><line style="stroke:#181818;stroke-width:0.5;" x1="783.5" x2="1092.5" y1="380.4406" y2="380.4406"/></g><!--class HealthcareService_characteristic--><g id="elem_HealthcareService_characteristic"><rect codeLine="51" fill="#F1F1F1" height="178.375" id="HealthcareService_characteristic" rx="2.5" ry="2.5" style="stroke:#181818;stroke-width:0.5;" width="255" x="1136.5" y="251"/><ellipse cx="1151.5" cy="267" fill="#ADD1B2" rx="11" ry="11" style="stroke:#181818;stroke-width:1.0;"/><path d="M1154.4688,272.6406 Q1153.8906,272.9375 1153.25,273.0781 Q1152.6094,273.2344 1151.9063,273.2344 Q1149.4063,273.2344 1148.0781,271.5938 Q1146.7656,269.9375 1146.7656,266.8125 Q1146.7656,263.6875 1148.0781,262.0313 Q1149.4063,260.375 1151.9063,260.375 Q1152.6094,260.375 1153.25,260.5313 Q1153.9063,260.6875 1154.4688,260.9844 L1154.4688,263.7031 Q1153.8438,263.125 1153.25,262.8594 Q1152.6563,262.5781 1152.0313,262.5781 Q1150.6875,262.5781 1150,263.6563 Q1149.3125,264.7188 1149.3125,266.8125 Q1149.3125,268.9063 1150,269.9844 Q1150.6875,271.0469 1152.0313,271.0469 Q1152.6563,271.0469 1153.25,270.7813 Q1153.8438,270.5 1154.4688,269.9219 L1154.4688,272.6406 Z " fill="#000000"/><text fill="#000000" font-family="sans-serif" font-size="14" lengthAdjust="spacing" textLength="223" x="1165.5" y="271.8467">HealthcareService_characteristic</text><line style="stroke:#181818;stroke-width:0.5;" x1="1137.5" x2="1390.5" y1="283" y2="283"/><ellipse cx="1147.5" cy="296.6484" fill="none" rx="3" ry="3" style="stroke:#038048;stroke-width:1.0;"/><text fill="#000000" font-family="sans-serif" font-size="14" lengthAdjust="spacing" textLength="146" x="1156.5" y="299.9951">eRX_Token_Receiver</text><ellipse cx="1147.5" cy="312.9453" fill="none" rx="3" ry="3" style="stroke:#038048;stroke-width:1.0;"/><text fill="#000000" font-family="sans-serif" font-size="14" lengthAdjust="spacing" textLength="226" x="1156.5" y="316.292">Apotheke_Verf&#252;gbarkeitsanfrage</text><ellipse cx="1147.5" cy="329.2422" fill="none" rx="3" ry="3" style="stroke:#038048;stroke-width:1.0;"/><text fill="#000000" font-family="sans-serif" font-size="14" lengthAdjust="spacing" textLength="192" x="1156.5" y="332.5889">Apotheken_Ident_Verfahren</text><ellipse cx="1147.5" cy="345.5391" fill="none" rx="3" ry="3" style="stroke:#038048;stroke-width:1.0;"/><text fill="#000000" font-family="sans-serif" font-size="14" lengthAdjust="spacing" textLength="110" x="1156.5" y="348.8857">Terminbuchung</text><rect fill="none" height="6" style="stroke:#C82930;stroke-width:1.0;" width="6" x="1144.5" y="358.8359"/><text fill="#000000" font-family="sans-serif" font-size="14" lengthAdjust="spacing" textLength="109" x="1156.5" y="365.1826">Parkm&#246;glichkeit</text><rect fill="none" height="6" style="stroke:#C82930;stroke-width:1.0;" width="6" x="1144.5" y="375.1328"/><text fill="#000000" font-family="sans-serif" font-size="14" lengthAdjust="spacing" textLength="131" x="1156.5" y="381.4795">&#214;PNV_in_der_N&#228;he</text><rect fill="none" height="6" style="stroke:#C82930;stroke-width:1.0;" width="6" x="1144.5" y="391.4297"/><text fill="#000000" font-family="sans-serif" font-size="14" lengthAdjust="spacing" textLength="75" x="1156.5" y="397.7764">Barrierefrei</text><rect fill="none" height="6" style="stroke:#C82930;stroke-width:1.0;" width="6" x="1144.5" y="407.7266"/><text fill="#000000" font-family="sans-serif" font-size="14" lengthAdjust="spacing" textLength="96" x="1156.5" y="414.0732">Abholautomat</text><line style="stroke:#181818;stroke-width:0.5;" x1="1137.5" x2="1390.5" y1="421.375" y2="421.375"/></g><!--class Endpoint--><g id="elem_Endpoint"><rect codeLine="62" fill="#F1F1F1" height="96.8906" id="Endpoint" rx="2.5" ry="2.5" style="stroke:#181818;stroke-width:0.5;" width="138" x="1254" y="712"/><ellipse cx="1288.8" cy="728" fill="#ADD1B2" rx="11" ry="11" style="stroke:#181818;stroke-width:1.0;"/><path d="M1291.7688,733.6406 Q1291.1906,733.9375 1290.55,734.0781 Q1289.9094,734.2344 1289.2063,734.2344 Q1286.7063,734.2344 1285.3781,732.5938 Q1284.0656,730.9375 1284.0656,727.8125 Q1284.0656,724.6875 1285.3781,723.0313 Q1286.7063,721.375 1289.2063,721.375 Q1289.9094,721.375 1290.55,721.5313 Q1291.2063,721.6875 1291.7688,721.9844 L1291.7688,724.7031 Q1291.1438,724.125 1290.55,723.8594 Q1289.9563,723.5781 1289.3313,723.5781 Q1287.9875,723.5781 1287.3,724.6563 Q1286.6125,725.7188 1286.6125,727.8125 Q1286.6125,729.9063 1287.3,730.9844 Q1287.9875,732.0469 1289.3313,732.0469 Q1289.9563,732.0469 1290.55,731.7813 Q1291.1438,731.5 1291.7688,730.9219 L1291.7688,733.6406 Z " fill="#000000"/><text fill="#000000" font-family="sans-serif" font-size="14" lengthAdjust="spacing" textLength="62" x="1307.2" y="732.8467">Endpoint</text><line style="stroke:#181818;stroke-width:0.5;" x1="1255" x2="1391" y1="744" y2="744"/><ellipse cx="1265" cy="757.6484" fill="none" rx="3" ry="3" style="stroke:#038048;stroke-width:1.0;"/><text fill="#000000" font-family="sans-serif" font-size="14" lengthAdjust="spacing" textLength="112" x="1274" y="760.9951">connectionType</text><ellipse cx="1265" cy="773.9453" fill="none" rx="3" ry="3" style="stroke:#038048;stroke-width:1.0;"/><text fill="#000000" font-family="sans-serif" font-size="14" lengthAdjust="spacing" textLength="87" x="1274" y="777.292">payloadType</text><ellipse cx="1265" cy="790.2422" fill="none" rx="3" ry="3" style="stroke:#038048;stroke-width:1.0;"/><text fill="#000000" font-family="sans-serif" font-size="14" lengthAdjust="spacing" textLength="56" x="1274" y="793.5889">address</text><line style="stroke:#181818;stroke-width:0.5;" x1="1255" x2="1391" y1="800.8906" y2="800.8906"/></g><!--class ApoVZD_Mehrwertdaten--><g id="elem_ApoVZD_Mehrwertdaten"><rect codeLine="72" fill="#F1F1F1" height="113.1875" id="ApoVZD_Mehrwertdaten" rx="2.5" ry="2.5" style="stroke:#181818;stroke-width:0.5;" width="265" x="1315.5" y="46"/><ellipse cx="1359.3" cy="62" fill="#ADD1B2" rx="11" ry="11" style="stroke:#181818;stroke-width:1.0;"/><path d="M1362.2688,67.6406 Q1361.6906,67.9375 1361.05,68.0781 Q1360.4094,68.2344 1359.7063,68.2344 Q1357.2063,68.2344 1355.8781,66.5938 Q1354.5656,64.9375 1354.5656,61.8125 Q1354.5656,58.6875 1355.8781,57.0313 Q1357.2063,55.375 1359.7063,55.375 Q1360.4094,55.375 1361.05,55.5313 Q1361.7063,55.6875 1362.2688,55.9844 L1362.2688,58.7031 Q1361.6438,58.125 1361.05,57.8594 Q1360.4563,57.5781 1359.8313,57.5781 Q1358.4875,57.5781 1357.8,58.6563 Q1357.1125,59.7188 1357.1125,61.8125 Q1357.1125,63.9063 1357.8,64.9844 Q1358.4875,66.0469 1359.8313,66.0469 Q1360.4563,66.0469 1361.05,65.7813 Q1361.6438,65.5 1362.2688,64.9219 L1362.2688,67.6406 Z " fill="#000000"/><text fill="#000000" font-family="sans-serif" font-size="14" lengthAdjust="spacing" textLength="169" x="1379.7" y="66.8467">ApoVZD_Mehrwertdaten</text><line style="stroke:#181818;stroke-width:0.5;" x1="1316.5" x2="1579.5" y1="78" y2="78"/><ellipse cx="1326.5" cy="91.6484" fill="none" rx="3" ry="3" style="stroke:#038048;stroke-width:1.0;"/><text fill="#000000" font-family="sans-serif" font-size="14" lengthAdjust="spacing" textLength="124" x="1335.5" y="94.9951">Apotheke_PHARM</text><ellipse cx="1326.5" cy="107.9453" fill="none" rx="3" ry="3" style="stroke:#038048;stroke-width:1.0;"/><text fill="#000000" font-family="sans-serif" font-size="14" lengthAdjust="spacing" textLength="231" x="1335.5" y="111.292">Apotheke_mit_Offizin_OUTPHARM</text><ellipse cx="1326.5" cy="124.2422" fill="none" rx="3" ry="3" style="stroke:#038048;stroke-width:1.0;"/><text fill="#000000" font-family="sans-serif" font-size="14" lengthAdjust="spacing" textLength="170" x="1335.5" y="127.5889">Versandapotheke_MOBL</text><ellipse cx="1326.5" cy="140.5391" fill="none" rx="3" ry="3" style="stroke:#038048;stroke-width:1.0;"/><text fill="#000000" font-family="sans-serif" font-size="14" lengthAdjust="spacing" textLength="239" x="1335.5" y="143.8857">eRX_Token_Receiver_DELEGATOR</text><line style="stroke:#181818;stroke-width:0.5;" x1="1316.5" x2="1579.5" y1="151.1875" y2="151.1875"/></g><!--class ApoVZD_Location_telecom--><g id="elem_ApoVZD_Location_telecom"><rect codeLine="79" fill="#F1F1F1" height="96.8906" id="ApoVZD_Location_telecom" rx="2.5" ry="2.5" style="stroke:#181818;stroke-width:0.5;" width="217" x="1631.5" y="54.5"/><ellipse cx="1646.5" cy="70.5" fill="#ADD1B2" rx="11" ry="11" style="stroke:#181818;stroke-width:1.0;"/><path d="M1649.4688,76.1406 Q1648.8906,76.4375 1648.25,76.5781 Q1647.6094,76.7344 1646.9063,76.7344 Q1644.4063,76.7344 1643.0781,75.0938 Q1641.7656,73.4375 1641.7656,70.3125 Q1641.7656,67.1875 1643.0781,65.5313 Q1644.4063,63.875 1646.9063,63.875 Q1647.6094,63.875 1648.25,64.0313 Q1648.9063,64.1875 1649.4688,64.4844 L1649.4688,67.2031 Q1648.8438,66.625 1648.25,66.3594 Q1647.6563,66.0781 1647.0313,66.0781 Q1645.6875,66.0781 1645,67.1563 Q1644.3125,68.2188 1644.3125,70.3125 Q1644.3125,72.4063 1645,73.4844 Q1645.6875,74.5469 1647.0313,74.5469 Q1647.6563,74.5469 1648.25,74.2813 Q1648.8438,74 1649.4688,73.4219 L1649.4688,76.1406 Z " fill="#000000"/><text fill="#000000" font-family="sans-serif" font-size="14" lengthAdjust="spacing" textLength="185" x="1660.5" y="75.3467">ApoVZD_Location_telecom</text><line style="stroke:#181818;stroke-width:0.5;" x1="1632.5" x2="1847.5" y1="86.5" y2="86.5"/><ellipse cx="1642.5" cy="100.1484" fill="none" rx="3" ry="3" style="stroke:#038048;stroke-width:1.0;"/><text fill="#000000" font-family="sans-serif" font-size="14" lengthAdjust="spacing" textLength="108" x="1651.5" y="103.4951">onPremise_URL</text><ellipse cx="1642.5" cy="116.4453" fill="none" rx="3" ry="3" style="stroke:#038048;stroke-width:1.0;"/><text fill="#000000" font-family="sans-serif" font-size="14" lengthAdjust="spacing" textLength="86" x="1651.5" y="119.792">delivery_URL</text><ellipse cx="1642.5" cy="132.7422" fill="none" rx="3" ry="3" style="stroke:#038048;stroke-width:1.0;"/><text fill="#000000" font-family="sans-serif" font-size="14" lengthAdjust="spacing" textLength="101" x="1651.5" y="136.0889">shipment_URP</text><line style="stroke:#181818;stroke-width:0.5;" x1="1632.5" x2="1847.5" y1="143.3906" y2="143.3906"/></g><!--link specialization to HealthcareService_type--><g id="link_specialization_HealthcareService_type"><path codeLine="88" d="M441.03,162.93 C471.37,194.54 504.7453,229.3212 536.7353,262.6512 " fill="none" id="specialization-to-HealthcareService_type" style="stroke:#FF0000;stroke-width:4.0;"/><polygon fill="#FF0000" points="540.89,266.98,537.5437,257.717,537.4277,263.3727,531.7721,263.2567,540.89,266.98" style="stroke:#FF0000;stroke-width:4.0;"/></g><!--link professionOID to Organization_type--><g id="link_professionOID_Organization_type"><path codeLine="89" d="M775.53,151.44 C810.83,192.19 857.3216,245.8648 892.6016,286.5948 " fill="none" id="professionOID-to-Organization_type" style="stroke:#FF0000;stroke-width:4.0;"/><polygon fill="#FF0000" points="896.53,291.13,893.6609,281.7083,893.2564,287.3507,887.614,286.9461,896.53,291.13" style="stroke:#FF0000;stroke-width:4.0;"/></g><!--link specialization to HealthcareService_specialty--><g id="link_specialization_HealthcareService_specialty"><path codeLine="90" d="M231,90 C186.59,90 240.62,157.98 207,187 C192.97,199.11 136.46,181.28 124,195 C38.84,288.77 72.52,364.27 124,480 C145.04,527.3 152.73,558 204.5,558 " fill="none" id="specialization-to-HealthcareService_specialty" style="stroke:#008000;stroke-width:1.0;"/><polygon fill="#008000" points="210.5,558,201.5,554,205.5,558,201.5,562,210.5,558" style="stroke:#008000;stroke-width:1.0;"/></g><!--link specialization to HealthcareService_specialty--><g id="link_specialization_HealthcareService_specialty"><path codeLine="91" d="M231,138 C206.75,138 222.33,168.21 207,187 C199.19,196.58 190.45,192.91 185,204 C145.55,284.35 114.99,606 204.5,606 " fill="none" id="specialization-to-HealthcareService_specialty-1" style="stroke:#0000FF;stroke-width:1.0;"/><polygon fill="#0000FF" points="210.5,606,201.5,602,205.5,606,201.5,610,210.5,606" style="stroke:#0000FF;stroke-width:1.0;"/></g><!--link ApoVZD_Mehrwertdaten to HealthcareService_specialty--><g id="link_ApoVZD_Mehrwertdaten_HealthcareService_specialty"><path codeLine="94" d="M1581.5,106 C1606.84,106 1595,142.22 1580.5,163 C1558,195.25 1525.22,166.61 1498,195 C1420.67,275.65 1503.55,362.33 1417,433 C1331.84,502.53 551.44,558 441.5,558 " fill="none" id="ApoVZD_Mehrwertdaten-to-HealthcareService_specialty" style="stroke:#008000;stroke-width:1.0;"/><polygon fill="#008000" points="435.5,558,444.5,562,440.5,558,444.5,554,435.5,558" style="stroke:#008000;stroke-width:1.0;"/></g><!--link ApoVZD_Mehrwertdaten to HealthcareService_specialty--><g id="link_ApoVZD_Mehrwertdaten_HealthcareService_specialty"><path codeLine="95" d="M1581.5,122 C1599.73,122 1583.98,145.11 1580.5,163 C1579.74,166.93 1481.92,430.26 1479,433 C1321.2,581.37 1590.4,606 441.5,606 " fill="none" id="ApoVZD_Mehrwertdaten-to-HealthcareService_specialty-1" style="stroke:#0000FF;stroke-width:1.0;"/><polygon fill="#0000FF" points="435.5,606,444.5,610,440.5,606,444.5,602,435.5,606" style="stroke:#0000FF;stroke-width:1.0;"/></g><!--link ApoVZD_Mehrwertdaten to HealthcareService_characteristic--><g id="link_ApoVZD_Mehrwertdaten_HealthcareService_characteristic"><path codeLine="96" d="M1314.5,138 C1303.38,138 1311.3,152.71 1315.5,163 C1334.53,209.61 1372.91,200.21 1391.5,247 C1399.38,266.83 1419.84,295 1398.5,295 " fill="none" id="ApoVZD_Mehrwertdaten-to-HealthcareService_characteristic" style="stroke:#A0522D;stroke-width:1.0;"/><polygon fill="#A0522D" points="1392.5,295,1401.5,299,1397.5,295,1401.5,291,1392.5,295" style="stroke:#A0522D;stroke-width:1.0;"/></g><!--link ApoVZD_Location_telecom to Endpoint--><g id="link_ApoVZD_Location_telecom_Endpoint"><path codeLine="99" d="M1630.5,98.5 C1605.61,98.5 1628.76,129.76 1631.5,154.5 C1647.74,301 1721.22,334.96 1695,480 C1660.9,668.66 1590.71,788 1399,788 " fill="none" id="ApoVZD_Location_telecom-to-Endpoint" style="stroke:#000000;stroke-width:1.0;"/><polygon fill="#000000" points="1393,788,1402,792,1398,788,1402,784,1393,788" style="stroke:#000000;stroke-width:1.0;"/><text fill="#000000" font-family="sans-serif" font-size="13" lengthAdjust="spacing" textLength="25" x="1698.43" y="476.0669">URL</text></g><!--link ApoVZD_Location_telecom to Endpoint--><g id="link_ApoVZD_Location_telecom_Endpoint"><path codeLine="100" d="M1630.5,98.5 C1625.71,98.5 1549.62,428.5 1548,433 C1494.21,582.87 1558.23,756 1399,756 " fill="none" id="ApoVZD_Location_telecom-to-Endpoint-1" style="stroke:#000000;stroke-width:1.0;"/><polygon fill="#000000" points="1393,756,1402,760,1398,756,1402,752,1393,756" style="stroke:#000000;stroke-width:1.0;"/><text fill="#000000" font-family="sans-serif" font-size="13" lengthAdjust="spacing" textLength="97" x="1539.49" y="476.0669">eRP-onPremise</text></g><!--link ApoVZD_Location_telecom to Endpoint--><g id="link_ApoVZD_Location_telecom_Endpoint"><path codeLine="101" d="M1849.5,98.5 C1895.26,98.5 2072.73,115.18 1692,647 C1628.91,735.13 1510.34,772 1399,772 " fill="none" id="ApoVZD_Location_telecom-to-Endpoint-2" style="stroke:#000000;stroke-width:1.0;"/><polygon fill="#000000" points="1393,772,1402,776,1398,772,1402,768,1393,772" style="stroke:#000000;stroke-width:1.0;"/><text fill="#000000" font-family="sans-serif" font-size="13" lengthAdjust="spacing" textLength="90" x="1814.96" y="476.0669">not-applicable</text></g><!--link HealthcareService_type to Endpoint--><!--SRC=[pLN1Jjj043tZhrZ1eGUQAAL09OiY9Gqqg42Y451LX5QRzJXUnTwrrXjGgFWDlg3Vq5Dl-R7EsavY1oUL48TU8cKy-sRUlBUpCUDZDWAoVTvkziZDZ_OsEJewrIo2usEo4ufHO4OQG9AV3WzPaf0a1YvOA1wP4Sg6Tyc71ktwlk12qcQiJ01ZmEXUWtxJJ8v11coIt8DEb1w1zA2OzB51Eo2YDL_t6_G6lp3fiJn8YFFaE8H8PO24u1kY_9MMy2lf1Kn7Z4y7qnWiiIzN64Nqz1oUpwZ4MlcG97YcUzP69dWGoTJtwdkV3kkDElxirm_sjsRFlW_IX887G1RTLIOVR1KeiusfXrkj2T9D7Y3GXSmd9wCOptKvxPprgtMPGXYg1zjtHgS3B3G1PngkGDyB3ZGVZ9ccv5AXEZXCdFQOJVmqX2fTCXuOYitGIsKy0J8nwIVKfeNZaeNGKf3qxq63NXdG8WmmQB2TYHmHXomLCYgs0ctep5cALSZA1JNJad0ucVLS3KgTqxHcV1IoLj1gbrHxSQ7dLffKASakMR4eAG6lE3IDlPXADfIizwuUCPcRTTdsVsAzjVFbg1BZbbTY19-t3FtlTA2mAkq31u53okBpNgrT_DcVqP3fCGY3W_8rshgS9EcPXopJN1PeaDdd0UX8oE641-a02QcH7i94izyZEn2BbqLdpxtB6uhRnmDDBsU_0iZYBQQr00s-1f55ciD0XMnYLCHCoXX_Ci8dqekLa6PEZ2ifWLk9x0x9OZ6RXefvom3pF8qBP8vKlBV83I_jYpix32UmlB5P4hr07Hv06u-PTD6M1jZhDFiNvL0a3CqzJhlNWsN6YXNfHRTrxbJBHDidvoTVcuDklsZDlA5pnNDtGWXSHNbFIlOqH281UjtFS3q8BTXq4KW24KTMo-j-3u59FfLt97rUsfQWi_A2r6vtD7ZlJI3uME8qF-_VrOxNN72dlBAhZxwuNoiLNRVYmR9OwKDNNNonhzB3nIMwYbtrPY6s5VwVq8NrYYFBBLHoXrDb6TVTQ8rNKwkkLMMorp2iHj_aL5lb2XyZoQhhb5TK5POTwn8EJPiuQoplkYMtPmJnRjzfUusn_7nXk6w-1OXh0Ty0hxnw47OR-htQulZs6vGeR3ABZuzhZSKnRbKs3B60lQzigYR6MVFErcu3uNdMKGLOvoy0]--></g></svg>