<?xml version="1.0" encoding="UTF-8" standalone="no"?><svg xmlns="http://www.w3.org/2000/svg" xmlns:xlink="http://www.w3.org/1999/xlink" contentScriptType="application/ecmascript" contentStyleType="text/css" height="347px" preserveAspectRatio="none" style="width:641px;height:347px;background:#FFFFFF;" version="1.1" viewBox="0 0 641 347" width="641px" zoomAndPan="magnify"><defs><filter height="300%" id="f1a9q2f0ivb12v" width="300%" x="-1" y="-1"><feGaussianBlur result="blurOut" stdDeviation="2.0"/><feColorMatrix in="blurOut" result="blurOut2" type="matrix" values="0 0 0 0 0 0 0 0 0 0 0 0 0 0 0 0 0 0 .4 0"/><feOffset dx="4.0" dy="4.0" in="blurOut2" result="blurOut3"/><feBlend in="SourceGraphic" in2="blurOut3" mode="normal"/></filter></defs><g><!--MD5=[7b9c16a3d4995a55b032296f71ab1184]
class PractitionerRole--><rect codeLine="2" fill="#F8F8F8" filter="url(#f1a9q2f0ivb12v)" height="86.4141" id="PractitionerRole" style="stroke:#383838;stroke-width:1.5;" width="172" x="223" y="7"/><ellipse cx="256" cy="23" fill="#C2C2C2" rx="11" ry="11" style="stroke:#383838;stroke-width:1.0;"/><path d="M258.9688,28.6406 Q258.3906,28.9375 257.75,29.0781 Q257.1094,29.2344 256.4063,29.2344 Q253.9063,29.2344 252.5781,27.5938 Q251.2656,25.9375 251.2656,22.8125 Q251.2656,19.6875 252.5781,18.0313 Q253.9063,16.375 256.4063,16.375 Q257.1094,16.375 257.75,16.5313 Q258.4063,16.6875 258.9688,16.9844 L258.9688,19.7031 Q258.3438,19.125 257.75,18.8594 Q257.1563,18.5781 256.5313,18.5781 Q255.1875,18.5781 254.5,19.6563 Q253.8125,20.7188 253.8125,22.8125 Q253.8125,24.9063 254.5,25.9844 Q255.1875,27.0469 256.5313,27.0469 Q257.1563,27.0469 257.75,26.7813 Q258.3438,26.5 258.9688,25.9219 L258.9688,28.6406 Z " fill="#000000"/><text fill="#000000" font-family="sans-serif" font-size="12" lengthAdjust="spacing" textLength="100" x="274" y="27.1543">PractitionerRole</text><line style="stroke:#383838;stroke-width:1.5;" x1="224" x2="394" y1="39" y2="39"/><text fill="#000000" font-family="sans-serif" font-size="11" lengthAdjust="spacing" textLength="160" x="229" y="53.2104">practitioner (1..1, MS, LDAP)</text><text fill="#000000" font-family="sans-serif" font-size="11" lengthAdjust="spacing" textLength="96" x="229" y="66.0151">location (0.., MS)</text><text fill="#000000" font-family="sans-serif" font-size="11" lengthAdjust="spacing" textLength="101" x="229" y="78.8198">endpoint (0.., MS)</text><line style="stroke:#383838;stroke-width:1.5;" x1="224" x2="394" y1="85.4141" y2="85.4141"/><!--MD5=[2edc31ff762501c9cec4b1b863028f54]
class Practitioner--><rect codeLine="7" fill="#F8F8F8" filter="url(#f1a9q2f0ivb12v)" height="163.2422" id="Practitioner" style="stroke:#383838;stroke-width:1.5;" width="168" x="7" y="170"/><ellipse cx="50.35" cy="186" fill="#C2C2C2" rx="11" ry="11" style="stroke:#383838;stroke-width:1.0;"/><path d="M53.3188,191.6406 Q52.7406,191.9375 52.1,192.0781 Q51.4594,192.2344 50.7563,192.2344 Q48.2563,192.2344 46.9281,190.5938 Q45.6156,188.9375 45.6156,185.8125 Q45.6156,182.6875 46.9281,181.0313 Q48.2563,179.375 50.7563,179.375 Q51.4594,179.375 52.1,179.5313 Q52.7563,179.6875 53.3188,179.9844 L53.3188,182.7031 Q52.6938,182.125 52.1,181.8594 Q51.5063,181.5781 50.8813,181.5781 Q49.5375,181.5781 48.85,182.6563 Q48.1625,183.7188 48.1625,185.8125 Q48.1625,187.9063 48.85,188.9844 Q49.5375,190.0469 50.8813,190.0469 Q51.5063,190.0469 52.1,189.7813 Q52.6938,189.5 53.3188,188.9219 L53.3188,191.6406 Z " fill="#000000"/><text fill="#000000" font-family="sans-serif" font-size="12" lengthAdjust="spacing" textLength="73" x="70.65" y="190.1543">Practitioner</text><line style="stroke:#383838;stroke-width:1.5;" x1="8" x2="174" y1="202" y2="202"/><text fill="#000000" font-family="sans-serif" font-size="11" lengthAdjust="spacing" textLength="138" x="13" y="216.2104">identifier (1.., MS, LDAP)</text><text fill="#000000" font-family="sans-serif" font-size="11" lengthAdjust="spacing" textLength="128" x="13" y="229.0151">active (1..1, MS, LDAP)</text><text fill="#000000" font-family="sans-serif" font-size="11" lengthAdjust="spacing" textLength="127" x="13" y="241.8198">name (1..1, MS, LDAP)</text><text fill="#000000" font-family="sans-serif" font-size="11" lengthAdjust="spacing" textLength="97" x="13" y="254.6245">telecom (0.., MS)</text><text fill="#000000" font-family="sans-serif" font-size="11" lengthAdjust="spacing" textLength="92" x="13" y="267.4292">gender (..1, MS)</text><text fill="#000000" font-family="sans-serif" font-size="11" lengthAdjust="spacing" textLength="104" x="13" y="280.2339">birthDate (..1, MS)</text><text fill="#000000" font-family="sans-serif" font-size="11" lengthAdjust="spacing" textLength="84" x="13" y="293.0386">photo (0.., MS)</text><text fill="#000000" font-family="sans-serif" font-size="11" lengthAdjust="spacing" textLength="156" x="13" y="305.8433">qualification (0.., MS, LDAP)</text><text fill="#000000" font-family="sans-serif" font-size="11" lengthAdjust="spacing" textLength="138" x="13" y="318.6479">communication (0.., MS)</text><line style="stroke:#383838;stroke-width:1.5;" x1="8" x2="174" y1="325.2422" y2="325.2422"/><!--MD5=[4fd3bb6c1d79f4919f90c95b62a35422]
class Endpoint--><rect codeLine="18" fill="#F8F8F8" filter="url(#f1a9q2f0ivb12v)" height="124.8281" id="Endpoint" style="stroke:#383838;stroke-width:1.5;" width="198" x="210" y="189"/><ellipse cx="276.75" cy="205" fill="#C2C2C2" rx="11" ry="11" style="stroke:#383838;stroke-width:1.0;"/><path d="M279.7188,210.6406 Q279.1406,210.9375 278.5,211.0781 Q277.8594,211.2344 277.1563,211.2344 Q274.6563,211.2344 273.3281,209.5938 Q272.0156,207.9375 272.0156,204.8125 Q272.0156,201.6875 273.3281,200.0313 Q274.6563,198.375 277.1563,198.375 Q277.8594,198.375 278.5,198.5313 Q279.1563,198.6875 279.7188,198.9844 L279.7188,201.7031 Q279.0938,201.125 278.5,200.8594 Q277.9063,200.5781 277.2813,200.5781 Q275.9375,200.5781 275.25,201.6563 Q274.5625,202.7188 274.5625,204.8125 Q274.5625,206.9063 275.25,207.9844 Q275.9375,209.0469 277.2813,209.0469 Q277.9063,209.0469 278.5,208.7813 Q279.0938,208.5 279.7188,207.9219 L279.7188,210.6406 Z " fill="#000000"/><text fill="#000000" font-family="sans-serif" font-size="12" lengthAdjust="spacing" textLength="56" x="297.25" y="209.1543">Endpoint</text><line style="stroke:#383838;stroke-width:1.5;" x1="211" x2="407" y1="221" y2="221"/><text fill="#000000" font-family="sans-serif" font-size="11" lengthAdjust="spacing" textLength="95" x="216" y="235.2104">status (1..1, MS)</text><text fill="#000000" font-family="sans-serif" font-size="11" lengthAdjust="spacing" textLength="147" x="216" y="248.0151">connectionType (1..1, MS)</text><text fill="#000000" font-family="sans-serif" font-size="11" lengthAdjust="spacing" textLength="91" x="216" y="260.8198">name (1..1, MS)</text><text fill="#000000" font-family="sans-serif" font-size="11" lengthAdjust="spacing" textLength="186" x="216" y="273.6245">managingOrganization (0..1, MS)</text><text fill="#000000" font-family="sans-serif" font-size="11" lengthAdjust="spacing" textLength="123" x="216" y="286.4292">payloadType (1.., MS)</text><text fill="#000000" font-family="sans-serif" font-size="11" lengthAdjust="spacing" textLength="106" x="216" y="299.2339">address (1..1, MS)</text><line style="stroke:#383838;stroke-width:1.5;" x1="211" x2="407" y1="305.8281" y2="305.8281"/><!--MD5=[4f1f3706c1a355a8488e154afcaed5df]
class Location--><rect codeLine="26" fill="#F8F8F8" filter="url(#f1a9q2f0ivb12v)" height="124.8281" id="Location" style="stroke:#383838;stroke-width:1.5;" width="184" x="443" y="189"/><ellipse cx="504.25" cy="205" fill="#C2C2C2" rx="11" ry="11" style="stroke:#383838;stroke-width:1.0;"/><path d="M507.2188,210.6406 Q506.6406,210.9375 506,211.0781 Q505.3594,211.2344 504.6563,211.2344 Q502.1563,211.2344 500.8281,209.5938 Q499.5156,207.9375 499.5156,204.8125 Q499.5156,201.6875 500.8281,200.0313 Q502.1563,198.375 504.6563,198.375 Q505.3594,198.375 506,198.5313 Q506.6563,198.6875 507.2188,198.9844 L507.2188,201.7031 Q506.5938,201.125 506,200.8594 Q505.4063,200.5781 504.7813,200.5781 Q503.4375,200.5781 502.75,201.6563 Q502.0625,202.7188 502.0625,204.8125 Q502.0625,206.9063 502.75,207.9844 Q503.4375,209.0469 504.7813,209.0469 Q505.4063,209.0469 506,208.7813 Q506.5938,208.5 507.2188,207.9219 L507.2188,210.6406 Z " fill="#000000"/><text fill="#000000" font-family="sans-serif" font-size="12" lengthAdjust="spacing" textLength="53" x="524.75" y="209.1543">Location</text><line style="stroke:#383838;stroke-width:1.5;" x1="444" x2="626" y1="221" y2="221"/><text fill="#000000" font-family="sans-serif" font-size="11" lengthAdjust="spacing" textLength="84" x="449" y="235.2104">name (..1, MS)</text><text fill="#000000" font-family="sans-serif" font-size="11" lengthAdjust="spacing" textLength="115" x="449" y="248.0151">description (..1, MS)</text><text fill="#000000" font-family="sans-serif" font-size="11" lengthAdjust="spacing" textLength="99" x="449" y="260.8198">address (..1, MS)</text><text fill="#000000" font-family="sans-serif" font-size="11" lengthAdjust="spacing" textLength="97" x="449" y="273.6245">position (..1, MS)</text><text fill="#000000" font-family="sans-serif" font-size="11" lengthAdjust="spacing" textLength="154" x="449" y="286.4292">hoursOfOperation (0.., MS)</text><text fill="#000000" font-family="sans-serif" font-size="11" lengthAdjust="spacing" textLength="172" x="449" y="299.2339">availabilityExceptions (..1, MS)</text><line style="stroke:#383838;stroke-width:1.5;" x1="444" x2="626" y1="305.8281" y2="305.8281"/><!--MD5=[8bdbfd47c206126371fe28da16da2c38]
reverse link PractitionerRole to Practitioner--><path codeLine="35" d="M249.53,102.05 C241.58,109.04 233.56,116.16 226,123 C209.39,138.04 191.85,154.31 175.1,170.03 " fill="none" id="PractitionerRole-backto-Practitioner" style="stroke:#383838;stroke-width:1.0;"/><polygon fill="#FFFFFF" points="259.54,93.3,252.3902,94.2385,250.5066,101.1993,257.6564,100.2608,259.54,93.3" style="stroke:#383838;stroke-width:1.0;"/><text fill="#000000" font-family="sans-serif" font-size="13" lengthAdjust="spacing" textLength="73" x="227" y="136.0669">practitioner</text><!--MD5=[19650f91da0f4b19284021841804106f]
reverse link PractitionerRole to Endpoint--><path codeLine="36" d="M309,106.59 C309,132.19 309,162.65 309,188.94 " fill="none" id="PractitionerRole-backto-Endpoint" style="stroke:#383838;stroke-width:1.0;"/><polygon fill="#FFFFFF" points="309,93.31,305,99.31,309,105.31,313,99.31,309,93.31" style="stroke:#383838;stroke-width:1.0;"/><text fill="#000000" font-family="sans-serif" font-size="13" lengthAdjust="spacing" textLength="56" x="310" y="136.0669">endpoint</text><!--MD5=[8db30d2c8d0b651ef32eee6ae94cb401]
reverse link PractitionerRole to Location--><path codeLine="37" d="M366.54,101.79 C396.54,128.27 433.47,160.87 465.1,188.8 " fill="none" id="PractitionerRole-backto-Location" style="stroke:#383838;stroke-width:1.0;"/><polygon fill="#FFFFFF" points="356.65,93.07,358.5012,100.0394,365.6465,101.0112,363.7953,94.0418,356.65,93.07" style="stroke:#383838;stroke-width:1.0;"/><text fill="#000000" font-family="sans-serif" font-size="13" lengthAdjust="spacing" textLength="50" x="409" y="136.0669">location</text><!--MD5=[84709b62713bb71089fe3d3a7bda74cf]
@startuml ClassDiagram.PractitionerRole
skinparam monochrome true
class PractitionerRole {
  {field} practitioner (1..1, MS, LDAP)
  {field} location (0.., MS)
  {field} endpoint (0.., MS)
}
class Practitioner {
  {field} identifier (1.., MS, LDAP)
  {field} active (1..1, MS, LDAP)
  {field} name (1..1, MS, LDAP)
  {field} telecom (0.., MS)
  {field} gender (..1, MS)
  {field} birthDate (..1, MS)
  {field} photo (0.., MS)
  {field} qualification (0.., MS, LDAP)
  {field} communication (0.., MS)
}
class Endpoint {
  {field} status (1..1, MS)
  {field} connectionType (1..1, MS)
  {field} name (1..1, MS)
  {field} managingOrganization (0..1, MS)
  {field} payloadType (1.., MS)
  {field} address (1..1, MS)
}
class Location {
  {field} name (..1, MS)
  {field} description (..1, MS)
  {field} address (..1, MS)
  {field} position (..1, MS)
  {field} hoursOfOperation (0.., MS)
  {field} availabilityExceptions (..1, MS)
}

PractitionerRole o- - Practitioner: practitioner
PractitionerRole o- - Endpoint: endpoint
PractitionerRole o- - Location: location
@enduml

PlantUML version 1.2021.16(Wed Dec 08 17:25:22 UTC 2021)
(GPL source distribution)
Java Runtime: OpenJDK Runtime Environment
JVM: OpenJDK 64-Bit Server VM
Default Encoding: UTF-8
Language: en
Country: null
--></g></svg>