<svg xmlns="http://www.w3.org/2000/svg" xmlns:xlink="http://www.w3.org/1999/xlink" contentStyleType="text/css" height="703px" preserveAspectRatio="none" style="width:1378px;height:703px;background:#FFFFFF;" version="1.1" viewBox="0 0 1378 703" width="1378px" zoomAndPan="magnify"><defs/><g><!--class HealthcareServiceBerlin--><g id="elem_HealthcareServiceBerlin"><rect codeLine="2" fill="#F1F1F1" height="227.2656" id="HealthcareServiceBerlin" rx="2.5" ry="2.5" style="stroke:#181818;stroke-width:0.5;" width="358" x="299" y="246.08"/><ellipse cx="392.25" cy="262.08" fill="#C2C2C2" rx="11" ry="11" style="stroke:#181818;stroke-width:1.0;"/><path d="M395.2188,267.7206 Q394.6406,268.0175 394,268.1581 Q393.3594,268.3144 392.6563,268.3144 Q390.1563,268.3144 388.8281,266.6738 Q387.5156,265.0175 387.5156,261.8925 Q387.5156,258.7675 388.8281,257.1113 Q390.1563,255.455 392.6563,255.455 Q393.3594,255.455 394,255.6112 Q394.6563,255.7675 395.2188,256.0644 L395.2188,258.7831 Q394.5938,258.205 394,257.9394 Q393.4063,257.6581 392.7813,257.6581 Q391.4375,257.6581 390.75,258.7363 Q390.0625,259.7988 390.0625,261.8925 Q390.0625,263.9863 390.75,265.0644 Q391.4375,266.1269 392.7813,266.1269 Q393.4063,266.1269 394,265.8613 Q394.5938,265.58 395.2188,265.0019 L395.2188,267.7206 Z " fill="#000000"/><text fill="#000000" font-family="sans-serif" font-size="14" lengthAdjust="spacing" textLength="163" x="412.75" y="266.9267">HealthcareServiceBerlin</text><line style="stroke:#181818;stroke-width:0.5;" x1="300" x2="656" y1="278.08" y2="278.08"/><text fill="#000000" font-family="sans-serif" font-size="14" lengthAdjust="spacing" textLength="214" x="305" y="295.0751">providedBy "5-2-26-11000040"</text><text fill="#000000" font-family="sans-serif" font-size="14" lengthAdjust="spacing" textLength="166" x="305" y="311.372">speciality Fachrichtung1</text><text fill="#000000" font-family="sans-serif" font-size="14" lengthAdjust="spacing" textLength="191" x="305" y="327.6689">location "5-2-26-11000044"</text><text fill="#000000" font-family="sans-serif" font-size="14" lengthAdjust="spacing" textLength="155" x="305" y="343.9657">name "Standort Berlin"</text><text fill="#000000" font-family="sans-serif" font-size="14" lengthAdjust="spacing" textLength="220" x="305" y="360.2626">telecom berlin@deutschland.de</text><text fill="#000000" font-family="sans-serif" font-size="14" lengthAdjust="spacing" textLength="183" x="305" y="376.5595">serviceProvisionCode Free</text><text fill="#000000" font-family="sans-serif" font-size="14" lengthAdjust="spacing" textLength="243" x="305" y="392.8564">communication "German", "English"</text><text fill="#000000" font-family="sans-serif" font-size="14" lengthAdjust="spacing" textLength="183" x="305" y="409.1532">appointmentRequired true</text><text fill="#000000" font-family="sans-serif" font-size="14" lengthAdjust="spacing" textLength="217" x="305" y="425.4501">availableTime Mo-Fr 8:00-18:00</text><text fill="#000000" font-family="sans-serif" font-size="14" lengthAdjust="spacing" textLength="346" x="305" y="441.747">availabilityExceptions "An Feiertagen geschlossen"</text><text fill="#000000" font-family="sans-serif" font-size="14" lengthAdjust="spacing" textLength="167" x="305" y="458.0439">endpoint EndpointBerlin</text><line style="stroke:#181818;stroke-width:0.5;" x1="300" x2="656" y1="465.3456" y2="465.3456"/></g><!--class HealthcareServiceM?nchen--><g id="elem_HealthcareServiceM&#252;nchen"><rect codeLine="15" fill="#F1F1F1" height="227.2656" id="HealthcareServiceM&#252;nchen" rx="2.5" ry="2.5" style="stroke:#181818;stroke-width:0.5;" width="358" x="692" y="246.08"/><ellipse cx="772.25" cy="262.08" fill="#C2C2C2" rx="11" ry="11" style="stroke:#181818;stroke-width:1.0;"/><path d="M775.2188,267.7206 Q774.6406,268.0175 774,268.1581 Q773.3594,268.3144 772.6563,268.3144 Q770.1563,268.3144 768.8281,266.6738 Q767.5156,265.0175 767.5156,261.8925 Q767.5156,258.7675 768.8281,257.1113 Q770.1563,255.455 772.6563,255.455 Q773.3594,255.455 774,255.6112 Q774.6563,255.7675 775.2188,256.0644 L775.2188,258.7831 Q774.5938,258.205 774,257.9394 Q773.4063,257.6581 772.7813,257.6581 Q771.4375,257.6581 770.75,258.7363 Q770.0625,259.7988 770.0625,261.8925 Q770.0625,263.9863 770.75,265.0644 Q771.4375,266.1269 772.7813,266.1269 Q773.4063,266.1269 774,265.8613 Q774.5938,265.58 775.2188,265.0019 L775.2188,267.7206 Z " fill="#000000"/><text fill="#000000" font-family="sans-serif" font-size="14" lengthAdjust="spacing" textLength="189" x="792.75" y="266.9267">HealthcareServiceM&#252;nchen</text><line style="stroke:#181818;stroke-width:0.5;" x1="693" x2="1049" y1="278.08" y2="278.08"/><text fill="#000000" font-family="sans-serif" font-size="14" lengthAdjust="spacing" textLength="214" x="698" y="295.0751">providedBy "5-2-26-11000040"</text><text fill="#000000" font-family="sans-serif" font-size="14" lengthAdjust="spacing" textLength="166" x="698" y="311.372">speciality Fachrichtung2</text><text fill="#000000" font-family="sans-serif" font-size="14" lengthAdjust="spacing" textLength="191" x="698" y="327.6689">location "5-2-26-09000040"</text><text fill="#000000" font-family="sans-serif" font-size="14" lengthAdjust="spacing" textLength="181" x="698" y="343.9657">name "Standort M&#252;nchen"</text><text fill="#000000" font-family="sans-serif" font-size="14" lengthAdjust="spacing" textLength="257" x="698" y="360.2626">telecom muenchen@deutschland.de</text><text fill="#000000" font-family="sans-serif" font-size="14" lengthAdjust="spacing" textLength="183" x="698" y="376.5595">serviceProvisionCode Free</text><text fill="#000000" font-family="sans-serif" font-size="14" lengthAdjust="spacing" textLength="243" x="698" y="392.8564">communication "German", "English"</text><text fill="#000000" font-family="sans-serif" font-size="14" lengthAdjust="spacing" textLength="183" x="698" y="409.1532">appointmentRequired true</text><text fill="#000000" font-family="sans-serif" font-size="14" lengthAdjust="spacing" textLength="217" x="698" y="425.4501">availableTime Mo-Fr 8:00-18:00</text><text fill="#000000" font-family="sans-serif" font-size="14" lengthAdjust="spacing" textLength="346" x="698" y="441.747">availabilityExceptions "An Feiertagen geschlossen"</text><text fill="#000000" font-family="sans-serif" font-size="14" lengthAdjust="spacing" textLength="193" x="698" y="458.0439">endpoint EndpointM&#252;nchen</text><line style="stroke:#181818;stroke-width:0.5;" x1="693" x2="1049" y1="465.3456" y2="465.3456"/></g><!--class EndpointBerlin--><g id="elem_EndpointBerlin"><rect codeLine="28" fill="#F1F1F1" height="145.7813" id="EndpointBerlin" rx="2.5" ry="2.5" style="stroke:#181818;stroke-width:0.5;" width="304" x="7" y="550.35"/><ellipse cx="104.25" cy="566.35" fill="#C2C2C2" rx="11" ry="11" style="stroke:#181818;stroke-width:1.0;"/><path d="M107.2188,571.9906 Q106.6406,572.2875 106,572.4281 Q105.3594,572.5844 104.6563,572.5844 Q102.1563,572.5844 100.8281,570.9438 Q99.5156,569.2875 99.5156,566.1625 Q99.5156,563.0375 100.8281,561.3813 Q102.1563,559.725 104.6563,559.725 Q105.3594,559.725 106,559.8813 Q106.6563,560.0375 107.2188,560.3344 L107.2188,563.0531 Q106.5938,562.475 106,562.2094 Q105.4063,561.9281 104.7813,561.9281 Q103.4375,561.9281 102.75,563.0063 Q102.0625,564.0688 102.0625,566.1625 Q102.0625,568.2563 102.75,569.3344 Q103.4375,570.3969 104.7813,570.3969 Q105.4063,570.3969 106,570.1313 Q106.5938,569.85 107.2188,569.2719 L107.2188,571.9906 Z " fill="#000000"/><text fill="#000000" font-family="sans-serif" font-size="14" lengthAdjust="spacing" textLength="101" x="124.75" y="571.1967">EndpointBerlin</text><line style="stroke:#181818;stroke-width:0.5;" x1="8" x2="310" y1="582.35" y2="582.35"/><text fill="#000000" font-family="sans-serif" font-size="14" lengthAdjust="spacing" textLength="98" x="13" y="599.3451">status "Active"</text><text fill="#000000" font-family="sans-serif" font-size="14" lengthAdjust="spacing" textLength="287" x="13" y="615.642">connectionType "TI-Messenger Endpoint"</text><text fill="#000000" font-family="sans-serif" font-size="14" lengthAdjust="spacing" textLength="220" x="13" y="631.9389">name "Empfang Standort Berlin"</text><text fill="#000000" font-family="sans-serif" font-size="14" lengthAdjust="spacing" textLength="292" x="13" y="648.2357">managingOrganization "5-2-26-11000040"</text><text fill="#000000" font-family="sans-serif" font-size="14" lengthAdjust="spacing" textLength="230" x="13" y="664.5326">payloadType "TI-Messenger chat"</text><text fill="#000000" font-family="sans-serif" font-size="14" lengthAdjust="spacing" textLength="270" x="13" y="680.8295">address "matrix:u/74..43f:e-domain.de"</text><line style="stroke:#181818;stroke-width:0.5;" x1="8" x2="310" y1="688.1313" y2="688.1313"/></g><!--class EndpointM?nchen--><g id="elem_EndpointM&#252;nchen"><rect codeLine="36" fill="#F1F1F1" height="145.7813" id="EndpointM&#252;nchen" rx="2.5" ry="2.5" style="stroke:#181818;stroke-width:0.5;" width="304" x="704" y="550.35"/><ellipse cx="788.25" cy="566.35" fill="#C2C2C2" rx="11" ry="11" style="stroke:#181818;stroke-width:1.0;"/><path d="M791.2188,571.9906 Q790.6406,572.2875 790,572.4281 Q789.3594,572.5844 788.6563,572.5844 Q786.1563,572.5844 784.8281,570.9438 Q783.5156,569.2875 783.5156,566.1625 Q783.5156,563.0375 784.8281,561.3813 Q786.1563,559.725 788.6563,559.725 Q789.3594,559.725 790,559.8813 Q790.6563,560.0375 791.2188,560.3344 L791.2188,563.0531 Q790.5938,562.475 790,562.2094 Q789.4063,561.9281 788.7813,561.9281 Q787.4375,561.9281 786.75,563.0063 Q786.0625,564.0688 786.0625,566.1625 Q786.0625,568.2563 786.75,569.3344 Q787.4375,570.3969 788.7813,570.3969 Q789.4063,570.3969 790,570.1313 Q790.5938,569.85 791.2188,569.2719 L791.2188,571.9906 Z " fill="#000000"/><text fill="#000000" font-family="sans-serif" font-size="14" lengthAdjust="spacing" textLength="127" x="808.75" y="571.1967">EndpointM&#252;nchen</text><line style="stroke:#181818;stroke-width:0.5;" x1="705" x2="1007" y1="582.35" y2="582.35"/><text fill="#000000" font-family="sans-serif" font-size="14" lengthAdjust="spacing" textLength="98" x="710" y="599.3451">status "Active"</text><text fill="#000000" font-family="sans-serif" font-size="14" lengthAdjust="spacing" textLength="287" x="710" y="615.642">connectionType "TI-Messenger Endpoint"</text><text fill="#000000" font-family="sans-serif" font-size="14" lengthAdjust="spacing" textLength="246" x="710" y="631.9389">name "Empfang Standort M&#252;nchen"</text><text fill="#000000" font-family="sans-serif" font-size="14" lengthAdjust="spacing" textLength="292" x="710" y="648.2357">managingOrganization "5-2-26-11000040"</text><text fill="#000000" font-family="sans-serif" font-size="14" lengthAdjust="spacing" textLength="230" x="710" y="664.5326">payloadType "TI-Messenger chat"</text><text fill="#000000" font-family="sans-serif" font-size="14" lengthAdjust="spacing" textLength="264" x="710" y="680.8295">address "matrix:u/08..by:e-domain.de"</text><line style="stroke:#181818;stroke-width:0.5;" x1="705" x2="1007" y1="688.1313" y2="688.1313"/></g><!--class LocationBerlin--><g id="elem_LocationBerlin"><rect codeLine="44" fill="#F1F1F1" height="145.7813" id="LocationBerlin" rx="2.5" ry="2.5" style="stroke:#181818;stroke-width:0.5;" width="294" x="346" y="550.35"/><ellipse cx="440.25" cy="566.35" fill="#C2C2C2" rx="11" ry="11" style="stroke:#181818;stroke-width:1.0;"/><path d="M443.2188,571.9906 Q442.6406,572.2875 442,572.4281 Q441.3594,572.5844 440.6563,572.5844 Q438.1563,572.5844 436.8281,570.9438 Q435.5156,569.2875 435.5156,566.1625 Q435.5156,563.0375 436.8281,561.3813 Q438.1563,559.725 440.6563,559.725 Q441.3594,559.725 442,559.8813 Q442.6563,560.0375 443.2188,560.3344 L443.2188,563.0531 Q442.5938,562.475 442,562.2094 Q441.4063,561.9281 440.7813,561.9281 Q439.4375,561.9281 438.75,563.0063 Q438.0625,564.0688 438.0625,566.1625 Q438.0625,568.2563 438.75,569.3344 Q439.4375,570.3969 440.7813,570.3969 Q441.4063,570.3969 442,570.1313 Q442.5938,569.85 443.2188,569.2719 L443.2188,571.9906 Z " fill="#000000"/><text fill="#000000" font-family="sans-serif" font-size="14" lengthAdjust="spacing" textLength="97" x="460.75" y="571.1967">LocationBerlin</text><line style="stroke:#181818;stroke-width:0.5;" x1="347" x2="639" y1="582.35" y2="582.35"/><text fill="#000000" font-family="sans-serif" font-size="14" lengthAdjust="spacing" textLength="82" x="352" y="599.3451">name Berlin</text><text fill="#000000" font-family="sans-serif" font-size="14" lengthAdjust="spacing" textLength="193" x="352" y="615.642">description "Standort Berlin"</text><text fill="#000000" font-family="sans-serif" font-size="14" lengthAdjust="spacing" textLength="282" x="352" y="631.9389">address "Friedrichstra&#223;e 1, 10117 Berlin"</text><text fill="#000000" font-family="sans-serif" font-size="14" lengthAdjust="spacing" textLength="226" x="352" y="648.2357">position "52.516181;13.376935"</text><text fill="#000000" font-family="sans-serif" font-size="14" lengthAdjust="spacing" textLength="258" x="352" y="664.5326">hoursOfOperation "Mo-Fr 8:00-18:00"</text><text fill="#000000" font-family="sans-serif" font-size="14" lengthAdjust="spacing" textLength="157" x="352" y="680.8295">availabilityExceptions ""</text><line style="stroke:#181818;stroke-width:0.5;" x1="347" x2="639" y1="688.1313" y2="688.1313"/></g><!--class LocationM?nchen--><g id="elem_LocationM&#252;nchen"><rect codeLine="52" fill="#F1F1F1" height="145.7813" id="LocationM&#252;nchen" rx="2.5" ry="2.5" style="stroke:#181818;stroke-width:0.5;" width="329" x="1042.5" y="550.35"/><ellipse cx="1141.25" cy="566.35" fill="#C2C2C2" rx="11" ry="11" style="stroke:#181818;stroke-width:1.0;"/><path d="M1144.2188,571.9906 Q1143.6406,572.2875 1143,572.4281 Q1142.3594,572.5844 1141.6563,572.5844 Q1139.1563,572.5844 1137.8281,570.9438 Q1136.5156,569.2875 1136.5156,566.1625 Q1136.5156,563.0375 1137.8281,561.3813 Q1139.1563,559.725 1141.6563,559.725 Q1142.3594,559.725 1143,559.8813 Q1143.6563,560.0375 1144.2188,560.3344 L1144.2188,563.0531 Q1143.5938,562.475 1143,562.2094 Q1142.4063,561.9281 1141.7813,561.9281 Q1140.4375,561.9281 1139.75,563.0063 Q1139.0625,564.0688 1139.0625,566.1625 Q1139.0625,568.2563 1139.75,569.3344 Q1140.4375,570.3969 1141.7813,570.3969 Q1142.4063,570.3969 1143,570.1313 Q1143.5938,569.85 1144.2188,569.2719 L1144.2188,571.9906 Z " fill="#000000"/><text fill="#000000" font-family="sans-serif" font-size="14" lengthAdjust="spacing" textLength="123" x="1161.75" y="571.1967">LocationM&#252;nchen</text><line style="stroke:#181818;stroke-width:0.5;" x1="1043.5" x2="1370.5" y1="582.35" y2="582.35"/><text fill="#000000" font-family="sans-serif" font-size="14" lengthAdjust="spacing" textLength="108" x="1048.5" y="599.3451">name M&#252;nchen</text><text fill="#000000" font-family="sans-serif" font-size="14" lengthAdjust="spacing" textLength="219" x="1048.5" y="615.642">description "Standort M&#252;nchen"</text><text fill="#000000" font-family="sans-serif" font-size="14" lengthAdjust="spacing" textLength="317" x="1048.5" y="631.9389">address "Ismaninger Str. 22, 81675 M&#252;nchen"</text><text fill="#000000" font-family="sans-serif" font-size="14" lengthAdjust="spacing" textLength="235" x="1048.5" y="648.2357">position "48.137524;11.5984587"</text><text fill="#000000" font-family="sans-serif" font-size="14" lengthAdjust="spacing" textLength="263" x="1048.5" y="664.5326">hoursOfOperation "Mo-So 0:00-23:59"</text><text fill="#000000" font-family="sans-serif" font-size="14" lengthAdjust="spacing" textLength="157" x="1048.5" y="680.8295">availabilityExceptions ""</text><line style="stroke:#181818;stroke-width:0.5;" x1="1043.5" x2="1370.5" y1="688.1313" y2="688.1313"/></g><!--class Organization--><g id="elem_Organization"><rect codeLine="60" fill="#F1F1F1" height="162.0781" id="Organization" rx="2.5" ry="2.5" style="stroke:#181818;stroke-width:0.5;" width="277" x="535.5" y="7"/><ellipse cx="626.25" cy="23" fill="#C2C2C2" rx="11" ry="11" style="stroke:#181818;stroke-width:1.0;"/><path d="M629.2188,28.6406 Q628.6406,28.9375 628,29.0781 Q627.3594,29.2344 626.6563,29.2344 Q624.1563,29.2344 622.8281,27.5938 Q621.5156,25.9375 621.5156,22.8125 Q621.5156,19.6875 622.8281,18.0313 Q624.1563,16.375 626.6563,16.375 Q627.3594,16.375 628,16.5313 Q628.6563,16.6875 629.2188,16.9844 L629.2188,19.7031 Q628.5938,19.125 628,18.8594 Q627.4063,18.5781 626.7813,18.5781 Q625.4375,18.5781 624.75,19.6563 Q624.0625,20.7188 624.0625,22.8125 Q624.0625,24.9063 624.75,25.9844 Q625.4375,27.0469 626.7813,27.0469 Q627.4063,27.0469 628,26.7813 Q628.5938,26.5 629.2188,25.9219 L629.2188,28.6406 Z " fill="#000000"/><text fill="#000000" font-family="sans-serif" font-size="14" lengthAdjust="spacing" textLength="87" x="646.75" y="27.8467">Organization</text><line style="stroke:#181818;stroke-width:0.5;" x1="536.5" x2="811.5" y1="39" y2="39"/><text fill="#000000" font-family="sans-serif" font-size="14" lengthAdjust="spacing" textLength="196" x="541.5" y="55.9951">identifier "5-2-26-11000040"</text><text fill="#000000" font-family="sans-serif" font-size="14" lengthAdjust="spacing" textLength="72" x="541.5" y="72.292">active true</text><text fill="#000000" font-family="sans-serif" font-size="14" lengthAdjust="spacing" textLength="135" x="541.5" y="88.5889">type "Krankenhaus"</text><text fill="#000000" font-family="sans-serif" font-size="14" lengthAdjust="spacing" textLength="131" x="541.5" y="104.8857">name Deutschland</text><text fill="#000000" font-family="sans-serif" font-size="14" lengthAdjust="spacing" textLength="193" x="541.5" y="121.1826">alias "Sonnen Krankenhaus"</text><text fill="#000000" font-family="sans-serif" font-size="14" lengthAdjust="spacing" textLength="265" x="541.5" y="137.4795">telecom sonnen-kkh@deutschland.de</text><text fill="#000000" font-family="sans-serif" font-size="14" lengthAdjust="spacing" textLength="160" x="541.5" y="153.7764">contact "030 1234567"</text><line style="stroke:#181818;stroke-width:0.5;" x1="536.5" x2="811.5" y1="161.0781" y2="161.0781"/></g><!--link Organization to HealthcareServiceBerlin--><g id="link_Organization_HealthcareServiceBerlin"><path codeLine="70" d="M615.72,169.22 C598.23,193.29 585.7645,210.4426 567.0445,236.2026 " fill="none" id="Organization-to-HealthcareServiceBerlin" style="stroke:#181818;stroke-width:1.0;"/><polygon fill="none" points="559.99,245.91,566.7531,243.4078,567.0445,236.2026,560.2814,238.7048,559.99,245.91" style="stroke:#181818;stroke-width:1.0;"/><text fill="#000000" font-family="sans-serif" font-size="13" lengthAdjust="spacing" textLength="71" x="594.56" y="212.1469">providedBy</text></g><!--link Organization to HealthcareServiceM?nchen--><g id="link_Organization_HealthcareServiceM&#252;nchen"><path codeLine="71" d="M732.57,169.22 C750.15,193.29 762.7034,210.4587 781.5134,236.2187 " fill="none" id="Organization-to-HealthcareServiceM&#252;nchen" style="stroke:#181818;stroke-width:1.0;"/><polygon fill="none" points="788.59,245.91,788.2821,238.7055,781.5134,236.2187,781.8213,243.4232,788.59,245.91" style="stroke:#181818;stroke-width:1.0;"/><text fill="#000000" font-family="sans-serif" font-size="13" lengthAdjust="spacing" textLength="71" x="767.59" y="212.1469">providedBy</text></g><!--reverse link HealthcareServiceBerlin to EndpointBerlin--><g id="link_HealthcareServiceBerlin_EndpointBerlin"><path codeLine="72" d="M331.1202,481.1283 C299.4202,507.1183 275.82,526.47 246.9,550.17 " fill="none" id="HealthcareServiceBerlin-backto-EndpointBerlin" style="stroke:#181818;stroke-width:1.0;"/><polygon fill="none" points="340.4,473.52,333.224,474.2309,331.1202,481.1283,338.2962,480.4174,340.4,473.52" style="stroke:#181818;stroke-width:1.0;"/><text fill="#000000" font-family="sans-serif" font-size="13" lengthAdjust="spacing" textLength="56" x="300.4" y="516.4169">endpoint</text></g><!--reverse link HealthcareServiceM?nchen to EndpointM?nchen--><g id="link_HealthcareServiceM&#252;nchen_EndpointM&#252;nchen"><path codeLine="73" d="M863.8432,485.5003 C862.3532,511.4903 861.49,526.47 860.13,550.17 " fill="none" id="HealthcareServiceM&#252;nchen-backto-EndpointM&#252;nchen" style="stroke:#181818;stroke-width:1.0;"/><polygon fill="none" points="864.53,473.52,860.1931,479.2812,863.8432,485.5003,868.18,479.7391,864.53,473.52" style="stroke:#181818;stroke-width:1.0;"/><text fill="#000000" font-family="sans-serif" font-size="13" lengthAdjust="spacing" textLength="56" x="863.6" y="516.4169">endpoint</text></g><!--reverse link HealthcareServiceBerlin to LocationBerlin--><g id="link_HealthcareServiceBerlin_LocationBerlin"><path codeLine="74" d="M485.1568,485.5003 C486.6468,511.4903 487.51,526.47 488.87,550.17 " fill="none" id="HealthcareServiceBerlin-backto-LocationBerlin" style="stroke:#181818;stroke-width:1.0;"/><polygon fill="none" points="484.47,473.52,480.82,479.7391,485.1568,485.5003,488.8069,479.2812,484.47,473.52" style="stroke:#181818;stroke-width:1.0;"/><text fill="#000000" font-family="sans-serif" font-size="13" lengthAdjust="spacing" textLength="50" x="487.84" y="516.4169">location</text></g><!--reverse link HealthcareServiceM?nchen to LocationM?nchen--><g id="link_HealthcareServiceM&#252;nchen_LocationM&#252;nchen"><path codeLine="75" d="M1025.3995,480.8908 C1058.7895,506.8808 1083.95,526.47 1114.41,550.17 " fill="none" id="HealthcareServiceM&#252;nchen-backto-LocationM&#252;nchen" style="stroke:#181818;stroke-width:1.0;"/><polygon fill="none" points="1015.93,473.52,1018.2078,480.3619,1025.3995,480.8908,1023.1217,474.0489,1015.93,473.52" style="stroke:#181818;stroke-width:1.0;"/><text fill="#000000" font-family="sans-serif" font-size="13" lengthAdjust="spacing" textLength="50" x="1070.09" y="516.4169">location</text></g><!--SRC=[xLRBSjCm5DtdApHUryRo8wzke9101pfbI7z0jMviJMp9I7AceSEty2Fi-cF8pajEdBJC02koo3ZnVHoTSnzI2yPB8ac12i55aabH0DAoWbwI4wNG1o2vpX8YOGPooHAu0fapZXvx23tE6UJqEogbM38Az6g5dDWDtA3lOkoRJ-Gxbfag8M4aPtg5fiHaOaccAvvYooGN2T5CyCCuaHs74mFHcMd2gP0QhG7P1XfoI4I1xfithobKMYLPRkmz2ZQWzOa-r_2LoVfMK41J2RQDYLDKd6rXlGTP4EvS86V2qvofpCvBob8mhWlW-WjyhPW4sb29R9ibOJcvp-6EcLFS27SgqN3i-owkluyDMStNv261iWQWaFE6eoama9gam54AzSc4Kj1Y03XjeA39vc5DKk_xALLlddxo98C_gMjmJbT_T1pdGDSjf2vbYmgQT_-rDGzRedRgjaLlIQeqqLMTAT5i2KwB3CuXgO7ShKgZmzsrUmDrxXJaBkAnN9EYd1EUeZFjQ4WbAUFfhKm9Pzyw6xnL22LPvOBG3Xn9HbeO2ANIl4HEGRHa3-FgrI3ol2YSZy6beY2CcwfmZeZfhFQ_JqrNHVzJSloXvzslkhdvj6dHZg9fZhEP8Fj_gIbFoSeru3Foxs1C9GDQJmUb9Ndw0GXV8EnZFEXmAeLY6oe2ByPzFCINEFJ2GNyKnhPX9YgfRkUt9SWDTuTzvxoWyOvfw2oHXeXTkpr7HPVSEpAkbL6UDRhDjFHG45oW8UuFuawtFHtHqCFX80wYIuozU3ICuk7WMJvc0lar7q4uZaU_nqUhBcqkp6BWcfaVycovagQRrZSAQuutrVjH4hu0df5A7NNFk_rWjwFbZ1XuixeXEJhXlrqIgh5o5uliz9emhQqDHEJueOzm44PnVr0VljSwj-kAKnUXiRKbN-2q5RVbTkgE9LptO9QFTzE_Ttg5ssxxVASThMpj8J3UxUrdiXqsZUNu2m00]--></g></svg>