<?plantuml 1.2026.0?><svg xmlns="http://www.w3.org/2000/svg" xmlns:xlink="http://www.w3.org/1999/xlink" contentStyleType="text/css" data-diagram-type="CLASS" height="703px" preserveAspectRatio="none" style="width:1412px;height:703px;background:#FFFFFF;" version="1.1" viewBox="0 0 1412 703" width="1412px" zoomAndPan="magnify"><defs/><g><!--class HealthcareServiceBerlin--><g class="entity" data-qualified-name="HealthcareServiceBerlin" data-source-line="2" id="ent0002"><rect fill="#F1F1F1" height="227.2656" rx="2.5" ry="2.5" style="stroke:#181818;stroke-width:0.5;" width="370.5107" x="303.41" y="246.08"/><ellipse cx="399.9232" cy="262.08" fill="#C2C2C2" rx="11" ry="11" style="stroke:#181818;stroke-width:1;"/><path d="M402.8919,267.7206 Q402.3138,268.0175 401.6732,268.1581 Q401.0326,268.3144 400.3294,268.3144 Q397.8294,268.3144 396.5013,266.6738 Q395.1888,265.0175 395.1888,261.8925 Q395.1888,258.7675 396.5013,257.1113 Q397.8294,255.455 400.3294,255.455 Q401.0326,255.455 401.6732,255.6112 Q402.3294,255.7675 402.8919,256.0644 L402.8919,258.7831 Q402.2669,258.205 401.6732,257.9394 Q401.0794,257.6581 400.4544,257.6581 Q399.1107,257.6581 398.4232,258.7363 Q397.7357,259.7988 397.7357,261.8925 Q397.7357,263.9863 398.4232,265.0644 Q399.1107,266.1269 400.4544,266.1269 Q401.0794,266.1269 401.6732,265.8613 Q402.2669,265.58 402.8919,265.0019 L402.8919,267.7206 Z " fill="#000000"/><text fill="#000000" font-family="sans-serif" font-size="14" lengthAdjust="spacing" textLength="168.9844" x="420.4232" y="266.9267">HealthcareServiceBerlin</text><line style="stroke:#181818;stroke-width:0.5;" x1="304.41" x2="672.9207" y1="278.08" y2="278.08"/><text fill="#000000" font-family="sans-serif" font-size="14" lengthAdjust="spacing" textLength="219.0303" x="309.41" y="295.0751">providedBy "5-2-26-11000040"</text><text fill="#000000" font-family="sans-serif" font-size="14" lengthAdjust="spacing" textLength="171.4111" x="309.41" y="311.372">speciality Fachrichtung1</text><text fill="#000000" font-family="sans-serif" font-size="14" lengthAdjust="spacing" textLength="194.9199" x="309.41" y="327.6689">location "5-2-26-11000044"</text><text fill="#000000" font-family="sans-serif" font-size="14" lengthAdjust="spacing" textLength="162.6338" x="309.41" y="343.9657">name "Standort Berlin"</text><text fill="#000000" font-family="sans-serif" font-size="14" lengthAdjust="spacing" textLength="222.7695" x="309.41" y="360.2626">telecom berlin@deutschland.de</text><text fill="#000000" font-family="sans-serif" font-size="14" lengthAdjust="spacing" textLength="185.0352" x="309.41" y="376.5595">serviceProvisionCode Free</text><text fill="#000000" font-family="sans-serif" font-size="14" lengthAdjust="spacing" textLength="254.2354" x="309.41" y="392.8564">communication "German", "English"</text><text fill="#000000" font-family="sans-serif" font-size="14" lengthAdjust="spacing" textLength="186.2109" x="309.41" y="409.1532">appointmentRequired true</text><text fill="#000000" font-family="sans-serif" font-size="14" lengthAdjust="spacing" textLength="223.125" x="309.41" y="425.4501">availableTime Mo-Fr 8:00-18:00</text><text fill="#000000" font-family="sans-serif" font-size="14" lengthAdjust="spacing" textLength="358.5107" x="309.41" y="441.747">availabilityExceptions "An Feiertagen geschlossen"</text><text fill="#000000" font-family="sans-serif" font-size="14" lengthAdjust="spacing" textLength="169.4629" x="309.41" y="458.0439">endpoint EndpointBerlin</text><line style="stroke:#181818;stroke-width:0.5;" x1="304.41" x2="672.9207" y1="465.3456" y2="465.3456"/></g><!--class HealthcareServiceM?nchen--><g class="entity" data-qualified-name="HealthcareServiceM.nchen" data-source-line="15" id="ent0003"><rect fill="#F1F1F1" height="227.2656" rx="2.5" ry="2.5" style="stroke:#181818;stroke-width:0.5;" width="370.5107" x="709.41" y="246.08"/><ellipse cx="794.2953" cy="262.08" fill="#C2C2C2" rx="11" ry="11" style="stroke:#181818;stroke-width:1;"/><path d="M797.264,267.7206 Q796.6859,268.0175 796.0453,268.1581 Q795.4046,268.3144 794.7015,268.3144 Q792.2015,268.3144 790.8734,266.6738 Q789.5609,265.0175 789.5609,261.8925 Q789.5609,258.7675 790.8734,257.1113 Q792.2015,255.455 794.7015,255.455 Q795.4046,255.455 796.0453,255.6112 Q796.7015,255.7675 797.264,256.0644 L797.264,258.7831 Q796.639,258.205 796.0453,257.9394 Q795.4515,257.6581 794.8265,257.6581 Q793.4828,257.6581 792.7953,258.7363 Q792.1078,259.7988 792.1078,261.8925 Q792.1078,263.9863 792.7953,265.0644 Q793.4828,266.1269 794.8265,266.1269 Q795.4515,266.1269 796.0453,265.8613 Q796.639,265.58 797.264,265.0019 L797.264,267.7206 Z " fill="#000000"/><text fill="#000000" font-family="sans-serif" font-size="14" lengthAdjust="spacing" textLength="192.2402" x="814.7953" y="266.9267">HealthcareServiceM&#252;nchen</text><line style="stroke:#181818;stroke-width:0.5;" x1="710.41" x2="1078.9207" y1="278.08" y2="278.08"/><text fill="#000000" font-family="sans-serif" font-size="14" lengthAdjust="spacing" textLength="219.0303" x="715.41" y="295.0751">providedBy "5-2-26-11000040"</text><text fill="#000000" font-family="sans-serif" font-size="14" lengthAdjust="spacing" textLength="171.4111" x="715.41" y="311.372">speciality Fachrichtung2</text><text fill="#000000" font-family="sans-serif" font-size="14" lengthAdjust="spacing" textLength="194.9199" x="715.41" y="327.6689">location "5-2-26-09000040"</text><text fill="#000000" font-family="sans-serif" font-size="14" lengthAdjust="spacing" textLength="185.8896" x="715.41" y="343.9657">name "Standort M&#252;nchen"</text><text fill="#000000" font-family="sans-serif" font-size="14" lengthAdjust="spacing" textLength="256.915" x="715.41" y="360.2626">telecom muenchen@deutschland.de</text><text fill="#000000" font-family="sans-serif" font-size="14" lengthAdjust="spacing" textLength="185.0352" x="715.41" y="376.5595">serviceProvisionCode Free</text><text fill="#000000" font-family="sans-serif" font-size="14" lengthAdjust="spacing" textLength="254.2354" x="715.41" y="392.8564">communication "German", "English"</text><text fill="#000000" font-family="sans-serif" font-size="14" lengthAdjust="spacing" textLength="186.2109" x="715.41" y="409.1532">appointmentRequired true</text><text fill="#000000" font-family="sans-serif" font-size="14" lengthAdjust="spacing" textLength="223.125" x="715.41" y="425.4501">availableTime Mo-Fr 8:00-18:00</text><text fill="#000000" font-family="sans-serif" font-size="14" lengthAdjust="spacing" textLength="358.5107" x="715.41" y="441.747">availabilityExceptions "An Feiertagen geschlossen"</text><text fill="#000000" font-family="sans-serif" font-size="14" lengthAdjust="spacing" textLength="192.7188" x="715.41" y="458.0439">endpoint EndpointM&#252;nchen</text><line style="stroke:#181818;stroke-width:0.5;" x1="710.41" x2="1078.9207" y1="465.3456" y2="465.3456"/></g><!--class EndpointBerlin--><g class="entity" data-qualified-name="EndpointBerlin" data-source-line="28" id="ent0004"><rect fill="#F1F1F1" height="145.7813" rx="2.5" ry="2.5" style="stroke:#181818;stroke-width:0.5;" width="311.3252" x="7" y="550.35"/><ellipse cx="106.9448" cy="566.35" fill="#C2C2C2" rx="11" ry="11" style="stroke:#181818;stroke-width:1;"/><path d="M109.9136,571.9906 Q109.3354,572.2875 108.6948,572.4281 Q108.0542,572.5844 107.3511,572.5844 Q104.8511,572.5844 103.5229,570.9438 Q102.2104,569.2875 102.2104,566.1625 Q102.2104,563.0375 103.5229,561.3813 Q104.8511,559.725 107.3511,559.725 Q108.0542,559.725 108.6948,559.8813 Q109.3511,560.0375 109.9136,560.3344 L109.9136,563.0531 Q109.2886,562.475 108.6948,562.2094 Q108.1011,561.9281 107.4761,561.9281 Q106.1323,561.9281 105.4448,563.0063 Q104.7573,564.0688 104.7573,566.1625 Q104.7573,568.2563 105.4448,569.3344 Q106.1323,570.3969 107.4761,570.3969 Q108.1011,570.3969 108.6948,570.1313 Q109.2886,569.85 109.9136,569.2719 L109.9136,571.9906 Z " fill="#000000"/><text fill="#000000" font-family="sans-serif" font-size="14" lengthAdjust="spacing" textLength="102.9355" x="127.4448" y="571.1967">EndpointBerlin</text><line style="stroke:#181818;stroke-width:0.5;" x1="8" x2="317.3252" y1="582.35" y2="582.35"/><text fill="#000000" font-family="sans-serif" font-size="14" lengthAdjust="spacing" textLength="103.8994" x="13" y="599.3451">status "Active"</text><text fill="#000000" font-family="sans-serif" font-size="14" lengthAdjust="spacing" textLength="289.3174" x="13" y="615.642">connectionType "TI-Messenger Endpoint"</text><text fill="#000000" font-family="sans-serif" font-size="14" lengthAdjust="spacing" textLength="229.7217" x="13" y="631.9389">name "Empfang Standort Berlin"</text><text fill="#000000" font-family="sans-serif" font-size="14" lengthAdjust="spacing" textLength="299.3252" x="13" y="648.2357">managingOrganization "5-2-26-11000040"</text><text fill="#000000" font-family="sans-serif" font-size="14" lengthAdjust="spacing" textLength="236.1816" x="13" y="664.5326">payloadType "TI-Messenger chat"</text><text fill="#000000" font-family="sans-serif" font-size="14" lengthAdjust="spacing" textLength="278.8037" x="13" y="680.8295">address "matrix:u/74..43f:e-domain.de"</text><line style="stroke:#181818;stroke-width:0.5;" x1="8" x2="317.3252" y1="688.1313" y2="688.1313"/></g><!--class EndpointM?nchen--><g class="entity" data-qualified-name="EndpointM.nchen" data-source-line="36" id="ent0005"><rect fill="#F1F1F1" height="145.7813" rx="2.5" ry="2.5" style="stroke:#181818;stroke-width:0.5;" width="311.3252" x="723" y="550.35"/><ellipse cx="811.3169" cy="566.35" fill="#C2C2C2" rx="11" ry="11" style="stroke:#181818;stroke-width:1;"/><path d="M814.2856,571.9906 Q813.7075,572.2875 813.0669,572.4281 Q812.4263,572.5844 811.7231,572.5844 Q809.2231,572.5844 807.895,570.9438 Q806.5825,569.2875 806.5825,566.1625 Q806.5825,563.0375 807.895,561.3813 Q809.2231,559.725 811.7231,559.725 Q812.4263,559.725 813.0669,559.8813 Q813.7231,560.0375 814.2856,560.3344 L814.2856,563.0531 Q813.6606,562.475 813.0669,562.2094 Q812.4731,561.9281 811.8481,561.9281 Q810.5044,561.9281 809.8169,563.0063 Q809.1294,564.0688 809.1294,566.1625 Q809.1294,568.2563 809.8169,569.3344 Q810.5044,570.3969 811.8481,570.3969 Q812.4731,570.3969 813.0669,570.1313 Q813.6606,569.85 814.2856,569.2719 L814.2856,571.9906 Z " fill="#000000"/><text fill="#000000" font-family="sans-serif" font-size="14" lengthAdjust="spacing" textLength="126.1914" x="831.8169" y="571.1967">EndpointM&#252;nchen</text><line style="stroke:#181818;stroke-width:0.5;" x1="724" x2="1033.3252" y1="582.35" y2="582.35"/><text fill="#000000" font-family="sans-serif" font-size="14" lengthAdjust="spacing" textLength="103.8994" x="729" y="599.3451">status "Active"</text><text fill="#000000" font-family="sans-serif" font-size="14" lengthAdjust="spacing" textLength="289.3174" x="729" y="615.642">connectionType "TI-Messenger Endpoint"</text><text fill="#000000" font-family="sans-serif" font-size="14" lengthAdjust="spacing" textLength="252.9775" x="729" y="631.9389">name "Empfang Standort M&#252;nchen"</text><text fill="#000000" font-family="sans-serif" font-size="14" lengthAdjust="spacing" textLength="299.3252" x="729" y="648.2357">managingOrganization "5-2-26-11000040"</text><text fill="#000000" font-family="sans-serif" font-size="14" lengthAdjust="spacing" textLength="236.1816" x="729" y="664.5326">payloadType "TI-Messenger chat"</text><text fill="#000000" font-family="sans-serif" font-size="14" lengthAdjust="spacing" textLength="273.2324" x="729" y="680.8295">address "matrix:u/08..by:e-domain.de"</text><line style="stroke:#181818;stroke-width:0.5;" x1="724" x2="1033.3252" y1="688.1313" y2="688.1313"/></g><!--class LocationBerlin--><g class="entity" data-qualified-name="LocationBerlin" data-source-line="44" id="ent0006"><rect fill="#F1F1F1" height="145.7813" rx="2.5" ry="2.5" style="stroke:#181818;stroke-width:0.5;" width="302.4727" x="353.43" y="550.35"/><ellipse cx="450.3738" cy="566.35" fill="#C2C2C2" rx="11" ry="11" style="stroke:#181818;stroke-width:1;"/><path d="M453.3426,571.9906 Q452.7645,572.2875 452.1238,572.4281 Q451.4832,572.5844 450.7801,572.5844 Q448.2801,572.5844 446.952,570.9438 Q445.6395,569.2875 445.6395,566.1625 Q445.6395,563.0375 446.952,561.3813 Q448.2801,559.725 450.7801,559.725 Q451.4832,559.725 452.1238,559.8813 Q452.7801,560.0375 453.3426,560.3344 L453.3426,563.0531 Q452.7176,562.475 452.1238,562.2094 Q451.5301,561.9281 450.9051,561.9281 Q449.5613,561.9281 448.8738,563.0063 Q448.1863,564.0688 448.1863,566.1625 Q448.1863,568.2563 448.8738,569.3344 Q449.5613,570.3969 450.9051,570.3969 Q451.5301,570.3969 452.1238,570.1313 Q452.7176,569.85 453.3426,569.2719 L453.3426,571.9906 Z " fill="#000000"/><text fill="#000000" font-family="sans-serif" font-size="14" lengthAdjust="spacing" textLength="100.085" x="470.8738" y="571.1967">LocationBerlin</text><line style="stroke:#181818;stroke-width:0.5;" x1="354.43" x2="654.9027" y1="582.35" y2="582.35"/><text fill="#000000" font-family="sans-serif" font-size="14" lengthAdjust="spacing" textLength="84.7793" x="359.43" y="599.3451">name Berlin</text><text fill="#000000" font-family="sans-serif" font-size="14" lengthAdjust="spacing" textLength="200.7715" x="359.43" y="615.642">description "Standort Berlin"</text><text fill="#000000" font-family="sans-serif" font-size="14" lengthAdjust="spacing" textLength="290.4727" x="359.43" y="631.9389">address "Friedrichstra&#223;e 1, 10117 Berlin"</text><text fill="#000000" font-family="sans-serif" font-size="14" lengthAdjust="spacing" textLength="228.915" x="359.43" y="648.2357">position "52.516181;13.376935"</text><text fill="#000000" font-family="sans-serif" font-size="14" lengthAdjust="spacing" textLength="263.1016" x="359.43" y="664.5326">hoursOfOperation "Mo-Fr 8:00-18:00"</text><text fill="#000000" font-family="sans-serif" font-size="14" lengthAdjust="spacing" textLength="169.9004" x="359.43" y="680.8295">availabilityExceptions ""</text><line style="stroke:#181818;stroke-width:0.5;" x1="354.43" x2="654.9027" y1="688.1313" y2="688.1313"/></g><!--class LocationM?nchen--><g class="entity" data-qualified-name="LocationM.nchen" data-source-line="52" id="ent0007"><rect fill="#F1F1F1" height="145.7813" rx="2.5" ry="2.5" style="stroke:#181818;stroke-width:0.5;" width="336.2354" x="1069.54" y="550.35"/><ellipse cx="1171.7373" cy="566.35" fill="#C2C2C2" rx="11" ry="11" style="stroke:#181818;stroke-width:1;"/><path d="M1174.706,571.9906 Q1174.1279,572.2875 1173.4873,572.4281 Q1172.8466,572.5844 1172.1435,572.5844 Q1169.6435,572.5844 1168.3154,570.9438 Q1167.0029,569.2875 1167.0029,566.1625 Q1167.0029,563.0375 1168.3154,561.3813 Q1169.6435,559.725 1172.1435,559.725 Q1172.8466,559.725 1173.4873,559.8813 Q1174.1435,560.0375 1174.706,560.3344 L1174.706,563.0531 Q1174.081,562.475 1173.4873,562.2094 Q1172.8935,561.9281 1172.2685,561.9281 Q1170.9248,561.9281 1170.2373,563.0063 Q1169.5498,564.0688 1169.5498,566.1625 Q1169.5498,568.2563 1170.2373,569.3344 Q1170.9248,570.3969 1172.2685,570.3969 Q1172.8935,570.3969 1173.4873,570.1313 Q1174.081,569.85 1174.706,569.2719 L1174.706,571.9906 Z " fill="#000000"/><text fill="#000000" font-family="sans-serif" font-size="14" lengthAdjust="spacing" textLength="123.3408" x="1192.2373" y="571.1967">LocationM&#252;nchen</text><line style="stroke:#181818;stroke-width:0.5;" x1="1070.54" x2="1404.7754" y1="582.35" y2="582.35"/><text fill="#000000" font-family="sans-serif" font-size="14" lengthAdjust="spacing" textLength="108.0352" x="1075.54" y="599.3451">name M&#252;nchen</text><text fill="#000000" font-family="sans-serif" font-size="14" lengthAdjust="spacing" textLength="224.0273" x="1075.54" y="615.642">description "Standort M&#252;nchen"</text><text fill="#000000" font-family="sans-serif" font-size="14" lengthAdjust="spacing" textLength="324.2354" x="1075.54" y="631.9389">address "Ismaninger Str. 22, 81675 M&#252;nchen"</text><text fill="#000000" font-family="sans-serif" font-size="14" lengthAdjust="spacing" textLength="237.8223" x="1075.54" y="648.2357">position "48.137524;11.5984587"</text><text fill="#000000" font-family="sans-serif" font-size="14" lengthAdjust="spacing" textLength="266.7451" x="1075.54" y="664.5326">hoursOfOperation "Mo-So 0:00-23:59"</text><text fill="#000000" font-family="sans-serif" font-size="14" lengthAdjust="spacing" textLength="169.9004" x="1075.54" y="680.8295">availabilityExceptions ""</text><line style="stroke:#181818;stroke-width:0.5;" x1="1070.54" x2="1404.7754" y1="688.1313" y2="688.1313"/></g><!--class Organization--><g class="entity" data-qualified-name="Organization" data-source-line="60" id="ent0008"><rect fill="#F1F1F1" height="162.0781" rx="2.5" ry="2.5" style="stroke:#181818;stroke-width:0.5;" width="276.0928" x="552.62" y="7"/><ellipse cx="641.5419" cy="23" fill="#C2C2C2" rx="11" ry="11" style="stroke:#181818;stroke-width:1;"/><path d="M644.5106,28.6406 Q643.9325,28.9375 643.2919,29.0781 Q642.6513,29.2344 641.9481,29.2344 Q639.4481,29.2344 638.12,27.5938 Q636.8075,25.9375 636.8075,22.8125 Q636.8075,19.6875 638.12,18.0313 Q639.4481,16.375 641.9481,16.375 Q642.6513,16.375 643.2919,16.5313 Q643.9481,16.6875 644.5106,16.9844 L644.5106,19.7031 Q643.8856,19.125 643.2919,18.8594 Q642.6981,18.5781 642.0731,18.5781 Q640.7294,18.5781 640.0419,19.6563 Q639.3544,20.7188 639.3544,22.8125 Q639.3544,24.9063 640.0419,25.9844 Q640.7294,27.0469 642.0731,27.0469 Q642.6981,27.0469 643.2919,26.7813 Q643.8856,26.5 644.5106,25.9219 L644.5106,28.6406 Z " fill="#000000"/><text fill="#000000" font-family="sans-serif" font-size="14" lengthAdjust="spacing" textLength="89.749" x="662.0419" y="27.8467">Organization</text><line style="stroke:#181818;stroke-width:0.5;" x1="553.62" x2="827.7128" y1="39" y2="39"/><text fill="#000000" font-family="sans-serif" font-size="14" lengthAdjust="spacing" textLength="202.2002" x="558.62" y="55.9951">identifier "5-2-26-11000040"</text><text fill="#000000" font-family="sans-serif" font-size="14" lengthAdjust="spacing" textLength="75.7354" x="558.62" y="72.292">active true</text><text fill="#000000" font-family="sans-serif" font-size="14" lengthAdjust="spacing" textLength="140.2051" x="558.62" y="88.5889">type "Krankenhaus"</text><text fill="#000000" font-family="sans-serif" font-size="14" lengthAdjust="spacing" textLength="132.002" x="558.62" y="104.8857">name Deutschland</text><text fill="#000000" font-family="sans-serif" font-size="14" lengthAdjust="spacing" textLength="198.2969" x="558.62" y="121.1826">alias "Sonnen Krankenhaus"</text><text fill="#000000" font-family="sans-serif" font-size="14" lengthAdjust="spacing" textLength="264.0928" x="558.62" y="137.4795">telecom sonnen-kkh@deutschland.de</text><text fill="#000000" font-family="sans-serif" font-size="14" lengthAdjust="spacing" textLength="163.2422" x="558.62" y="153.7764">contact "030 1234567"</text><line style="stroke:#181818;stroke-width:0.5;" x1="553.62" x2="827.7128" y1="161.0781" y2="161.0781"/></g><!--link Organization to HealthcareServiceBerlin--><g class="link" data-entity-1="ent0008" data-entity-2="ent0002" data-link-type="aggregation" data-source-line="70" id="lnk9"><path codeLine="70" d="M630.6,169.22 C612.58,193.29 599.6552,210.5464 580.3552,236.3064" fill="none" id="Organization-to-HealthcareServiceBerlin" style="stroke:#181818;stroke-width:1;"/><polygon fill="none" points="573.16,245.91,579.9588,243.5066,580.3552,236.3064,573.5564,238.7098,573.16,245.91" style="stroke:#181818;stroke-width:1;"/><text fill="#000000" font-family="sans-serif" font-size="13" lengthAdjust="spacing" textLength="73.9692" x="608.76" y="212.1469">providedBy</text></g><!--link Organization to HealthcareServiceM?nchen--><g class="link" data-entity-1="ent0008" data-entity-2="ent0003" data-link-type="aggregation" data-source-line="71" id="lnk10"><path codeLine="71" d="M751.32,169.22 C769.52,193.29 782.5996,210.5804 802.0896,236.3404" fill="none" id="Organization-to-HealthcareServiceM&#252;nchen" style="stroke:#181818;stroke-width:1;"/><polygon fill="none" points="809.33,245.91,808.8997,238.7117,802.0896,236.3404,802.52,243.5387,809.33,245.91" style="stroke:#181818;stroke-width:1;"/><text fill="#000000" font-family="sans-serif" font-size="13" lengthAdjust="spacing" textLength="73.9692" x="787.55" y="212.1469">providedBy</text></g><!--reverse link HealthcareServiceBerlin to EndpointBerlin--><g class="link" data-entity-1="ent0002" data-entity-2="ent0004" data-link-type="aggregation" data-source-line="72" id="lnk11"><path codeLine="72" d="M338.6806,481.0301 C306.2906,507.0201 282.05,526.47 252.5,550.17" fill="none" id="HealthcareServiceBerlin-backto-EndpointBerlin" style="stroke:#181818;stroke-width:1;"/><polygon fill="none" points="348.04,473.52,340.8569,474.1552,338.6806,481.0301,345.8636,480.3948,348.04,473.52" style="stroke:#181818;stroke-width:1;"/><text fill="#000000" font-family="sans-serif" font-size="13" lengthAdjust="spacing" textLength="57.6431" x="307.14" y="516.4169">endpoint</text></g><!--reverse link HealthcareServiceM?nchen to EndpointM?nchen--><g class="link" data-entity-1="ent0003" data-entity-2="ent0005" data-link-type="aggregation" data-source-line="73" id="lnk12"><path codeLine="73" d="M887.0272,485.4976 C885.4372,511.4876 884.52,526.47 883.07,550.17" fill="none" id="HealthcareServiceM&#252;nchen-backto-EndpointM&#252;nchen" style="stroke:#181818;stroke-width:1;"/><polygon fill="none" points="887.76,473.52,883.4011,479.2646,887.0272,485.4976,891.3862,479.7531,887.76,473.52" style="stroke:#181818;stroke-width:1;"/><text fill="#000000" font-family="sans-serif" font-size="13" lengthAdjust="spacing" textLength="57.6431" x="886.7" y="516.4169">endpoint</text></g><!--reverse link HealthcareServiceBerlin to LocationBerlin--><g class="link" data-entity-1="ent0002" data-entity-2="ent0006" data-link-type="aggregation" data-source-line="74" id="lnk13"><path codeLine="74" d="M496.2928,485.4976 C497.8828,511.4876 498.8,526.47 500.25,550.17" fill="none" id="HealthcareServiceBerlin-backto-LocationBerlin" style="stroke:#181818;stroke-width:1;"/><polygon fill="none" points="495.56,473.52,491.9338,479.7531,496.2928,485.4976,499.9189,479.2646,495.56,473.52" style="stroke:#181818;stroke-width:1;"/><text fill="#000000" font-family="sans-serif" font-size="13" lengthAdjust="spacing" textLength="51.5811" x="499.1" y="516.4169">location</text></g><!--reverse link HealthcareServiceM?nchen to LocationM?nchen--><g class="link" data-entity-1="ent0003" data-entity-2="ent0007" data-link-type="aggregation" data-source-line="75" id="lnk14"><path codeLine="75" d="M1052.1529,480.7955 C1086.2429,506.7855 1112.05,526.47 1143.15,550.17" fill="none" id="HealthcareServiceM&#252;nchen-backto-LocationM&#252;nchen" style="stroke:#181818;stroke-width:1;"/><polygon fill="none" points="1042.61,473.52,1044.9563,480.3387,1052.1529,480.7955,1049.8066,473.9768,1042.61,473.52" style="stroke:#181818;stroke-width:1;"/><text fill="#000000" font-family="sans-serif" font-size="13" lengthAdjust="spacing" textLength="51.5811" x="1097.88" y="516.4169">location</text></g><?plantuml-src xLRBSjCm5DtdApHUryRo8wzke9101pfbI7z0jMviJMp9I7AceSEty2Fi-cF8pajEdBJC02koo3ZnVHoTSnzI2yPB8ac12i55aabH0DAoWbwI4wNG1o2vpX8YOGPooHAu0fapZXvx23tE6UJqEogbM38Az6g5dDWDtA3lOkoRJ-Gxbfag8M4aPtg5fiHaOaccAvvYooGN2T5CyCCuaHs74mFHcMd2gP0QhG7P1XfoI4I1xfithobKMYLPRkmz2ZQWzOa-r_2LoVfMK41J2RQDYLDKd6rXlGTP4EvS86V2qvofpCvBob8mhWlW-WjyhPW4sb29R9ibOJcvp-6EcLFS27SgqN3i-owkluyDMStNv261iWQWaFE6eoama9gam54AzSc4Kj1Y03XjeA39vc5DKk_xALLlddxo98C_gMjmJbT_T1pdGDSjf2vbYmgQT_-rDGzRedRgjaLlIQeqqLMTAT5i2KwB3CuXgO7ShKgZmzsrUmDrxXJaBkAnN9EYd1EUeZFjQ4WbAUFfhKm9Pzyw6xnL22LPvOBG3Xn9HbeO2ANIl4HEGRHa3-FgrI3ol2YSZy6beY2CcwfmZeZfhFQ_JqrNHVzJSloXvzslkhdvj6dHZg9fZhEP8Fj_gIbFoSeru3Foxs1C9GDQJmUb9Ndw0GXV8EnZFEXmAeLY6oe2ByPzFCINEFJ2GNyKnhPX9YgfRkUt9SWDTuTzvxoWyOvfw2oHXeXTkpr7HPVSEpAkbL6UDRhDjFHG45oW8UuFuawtFHtHqCFX80wYIuozU3ICuk7WMJvc0lar7q4uZaU_nqUhBcqkp6BWcfaVycovagQRrZSAQuutrVjH4hu0df5A7NNFk_rWjwFbZ1XuixeXEJhXlrqIgh5o5uliz9emhQqDHEJueOzm44PnVr0VljSwj-kAKnUXiRKbN-2q5RVbTkgE9LptO9QFTzE_Ttg5ssxxVASThMpj8J3UxUrdiXqsZUNu2m00?></g></svg>