<?xml version="1.0" encoding="UTF-8" standalone="no"?><svg xmlns="http://www.w3.org/2000/svg" xmlns:xlink="http://www.w3.org/1999/xlink" contentStyleType="text/css" height="702px" preserveAspectRatio="none" style="width:1379px;height:702px;background:#FFFFFF;" version="1.1" viewBox="0 0 1379 702" width="1379px" zoomAndPan="magnify"><defs/><g><!--MD5=[6f7503ed5a907bd290d24b2025d52883]
class HealthcareServiceBerlin--><g id="elem_HealthcareServiceBerlin"><rect codeLine="2" fill="#F1F1F1" height="227.2656" id="HealthcareServiceBerlin" rx="2.5" ry="2.5" style="stroke:#181818;stroke-width:0.5;" width="358" x="299" y="246"/><ellipse cx="392.25" cy="262" fill="#C2C2C2" rx="11" ry="11" style="stroke:#181818;stroke-width:1.0;"/><path d="M395.2188,267.6406 Q394.6406,267.9375 394,268.0781 Q393.3594,268.2344 392.6563,268.2344 Q390.1563,268.2344 388.8281,266.5938 Q387.5156,264.9375 387.5156,261.8125 Q387.5156,258.6875 388.8281,257.0313 Q390.1563,255.375 392.6563,255.375 Q393.3594,255.375 394,255.5313 Q394.6563,255.6875 395.2188,255.9844 L395.2188,258.7031 Q394.5938,258.125 394,257.8594 Q393.4063,257.5781 392.7813,257.5781 Q391.4375,257.5781 390.75,258.6563 Q390.0625,259.7188 390.0625,261.8125 Q390.0625,263.9063 390.75,264.9844 Q391.4375,266.0469 392.7813,266.0469 Q393.4063,266.0469 394,265.7813 Q394.5938,265.5 395.2188,264.9219 L395.2188,267.6406 Z " fill="#000000"/><text fill="#000000" font-family="sans-serif" font-size="14" lengthAdjust="spacing" textLength="163" x="412.75" y="266.8467">HealthcareServiceBerlin</text><line style="stroke:#181818;stroke-width:0.5;" x1="300" x2="656" y1="278" y2="278"/><text fill="#000000" font-family="sans-serif" font-size="14" lengthAdjust="spacing" textLength="214" x="305" y="294.9951">providedBy "5-2-26-11000040"</text><text fill="#000000" font-family="sans-serif" font-size="14" lengthAdjust="spacing" textLength="166" x="305" y="311.292">speciality Fachrichtung1</text><text fill="#000000" font-family="sans-serif" font-size="14" lengthAdjust="spacing" textLength="191" x="305" y="327.5889">location "5-2-26-11000044"</text><text fill="#000000" font-family="sans-serif" font-size="14" lengthAdjust="spacing" textLength="155" x="305" y="343.8857">name "Standort Berlin"</text><text fill="#000000" font-family="sans-serif" font-size="14" lengthAdjust="spacing" textLength="220" x="305" y="360.1826">telecom berlin@deutschland.de</text><text fill="#000000" font-family="sans-serif" font-size="14" lengthAdjust="spacing" textLength="183" x="305" y="376.4795">serviceProvisionCode Free</text><text fill="#000000" font-family="sans-serif" font-size="14" lengthAdjust="spacing" textLength="243" x="305" y="392.7764">communication "German", "English"</text><text fill="#000000" font-family="sans-serif" font-size="14" lengthAdjust="spacing" textLength="183" x="305" y="409.0732">appointmentRequired true</text><text fill="#000000" font-family="sans-serif" font-size="14" lengthAdjust="spacing" textLength="217" x="305" y="425.3701">availableTime Mo-Fr 8:00-18:00</text><text fill="#000000" font-family="sans-serif" font-size="14" lengthAdjust="spacing" textLength="346" x="305" y="441.667">availabilityExceptions "An Feiertagen geschlossen"</text><text fill="#000000" font-family="sans-serif" font-size="14" lengthAdjust="spacing" textLength="167" x="305" y="457.9639">endpoint EndpointBerlin</text><line style="stroke:#181818;stroke-width:0.5;" x1="300" x2="656" y1="465.2656" y2="465.2656"/></g><!--MD5=[3e9010112bb3621b69180ee6eafb4949]
class HealthcareServiceMünchen--><g id="elem_HealthcareServiceMünchen"><rect codeLine="15" fill="#F1F1F1" height="227.2656" id="HealthcareServiceMünchen" rx="2.5" ry="2.5" style="stroke:#181818;stroke-width:0.5;" width="358" x="692" y="246"/><ellipse cx="772.25" cy="262" fill="#C2C2C2" rx="11" ry="11" style="stroke:#181818;stroke-width:1.0;"/><path d="M775.2188,267.6406 Q774.6406,267.9375 774,268.0781 Q773.3594,268.2344 772.6563,268.2344 Q770.1563,268.2344 768.8281,266.5938 Q767.5156,264.9375 767.5156,261.8125 Q767.5156,258.6875 768.8281,257.0313 Q770.1563,255.375 772.6563,255.375 Q773.3594,255.375 774,255.5313 Q774.6563,255.6875 775.2188,255.9844 L775.2188,258.7031 Q774.5938,258.125 774,257.8594 Q773.4063,257.5781 772.7813,257.5781 Q771.4375,257.5781 770.75,258.6563 Q770.0625,259.7188 770.0625,261.8125 Q770.0625,263.9063 770.75,264.9844 Q771.4375,266.0469 772.7813,266.0469 Q773.4063,266.0469 774,265.7813 Q774.5938,265.5 775.2188,264.9219 L775.2188,267.6406 Z " fill="#000000"/><text fill="#000000" font-family="sans-serif" font-size="14" lengthAdjust="spacing" textLength="189" x="792.75" y="266.8467">HealthcareServiceMünchen</text><line style="stroke:#181818;stroke-width:0.5;" x1="693" x2="1049" y1="278" y2="278"/><text fill="#000000" font-family="sans-serif" font-size="14" lengthAdjust="spacing" textLength="214" x="698" y="294.9951">providedBy "5-2-26-11000040"</text><text fill="#000000" font-family="sans-serif" font-size="14" lengthAdjust="spacing" textLength="166" x="698" y="311.292">speciality Fachrichtung2</text><text fill="#000000" font-family="sans-serif" font-size="14" lengthAdjust="spacing" textLength="191" x="698" y="327.5889">location "5-2-26-09000040"</text><text fill="#000000" font-family="sans-serif" font-size="14" lengthAdjust="spacing" textLength="181" x="698" y="343.8857">name "Standort München"</text><text fill="#000000" font-family="sans-serif" font-size="14" lengthAdjust="spacing" textLength="257" x="698" y="360.1826">telecom muenchen@deutschland.de</text><text fill="#000000" font-family="sans-serif" font-size="14" lengthAdjust="spacing" textLength="183" x="698" y="376.4795">serviceProvisionCode Free</text><text fill="#000000" font-family="sans-serif" font-size="14" lengthAdjust="spacing" textLength="243" x="698" y="392.7764">communication "German", "English"</text><text fill="#000000" font-family="sans-serif" font-size="14" lengthAdjust="spacing" textLength="183" x="698" y="409.0732">appointmentRequired true</text><text fill="#000000" font-family="sans-serif" font-size="14" lengthAdjust="spacing" textLength="217" x="698" y="425.3701">availableTime Mo-Fr 8:00-18:00</text><text fill="#000000" font-family="sans-serif" font-size="14" lengthAdjust="spacing" textLength="346" x="698" y="441.667">availabilityExceptions "An Feiertagen geschlossen"</text><text fill="#000000" font-family="sans-serif" font-size="14" lengthAdjust="spacing" textLength="193" x="698" y="457.9639">endpoint EndpointMünchen</text><line style="stroke:#181818;stroke-width:0.5;" x1="693" x2="1049" y1="465.2656" y2="465.2656"/></g><!--MD5=[668c9b939c59322536055527ef30a83e]
class EndpointBerlin--><g id="elem_EndpointBerlin"><rect codeLine="28" fill="#F1F1F1" height="145.7813" id="EndpointBerlin" rx="2.5" ry="2.5" style="stroke:#181818;stroke-width:0.5;" width="304" x="7" y="550"/><ellipse cx="104.25" cy="566" fill="#C2C2C2" rx="11" ry="11" style="stroke:#181818;stroke-width:1.0;"/><path d="M107.2188,571.6406 Q106.6406,571.9375 106,572.0781 Q105.3594,572.2344 104.6563,572.2344 Q102.1563,572.2344 100.8281,570.5938 Q99.5156,568.9375 99.5156,565.8125 Q99.5156,562.6875 100.8281,561.0313 Q102.1563,559.375 104.6563,559.375 Q105.3594,559.375 106,559.5313 Q106.6563,559.6875 107.2188,559.9844 L107.2188,562.7031 Q106.5938,562.125 106,561.8594 Q105.4063,561.5781 104.7813,561.5781 Q103.4375,561.5781 102.75,562.6563 Q102.0625,563.7188 102.0625,565.8125 Q102.0625,567.9063 102.75,568.9844 Q103.4375,570.0469 104.7813,570.0469 Q105.4063,570.0469 106,569.7813 Q106.5938,569.5 107.2188,568.9219 L107.2188,571.6406 Z " fill="#000000"/><text fill="#000000" font-family="sans-serif" font-size="14" lengthAdjust="spacing" textLength="101" x="124.75" y="570.8467">EndpointBerlin</text><line style="stroke:#181818;stroke-width:0.5;" x1="8" x2="310" y1="582" y2="582"/><text fill="#000000" font-family="sans-serif" font-size="14" lengthAdjust="spacing" textLength="98" x="13" y="598.9951">status "Active"</text><text fill="#000000" font-family="sans-serif" font-size="14" lengthAdjust="spacing" textLength="287" x="13" y="615.292">connectionType "TI-Messenger Endpoint"</text><text fill="#000000" font-family="sans-serif" font-size="14" lengthAdjust="spacing" textLength="220" x="13" y="631.5889">name "Empfang Standort Berlin"</text><text fill="#000000" font-family="sans-serif" font-size="14" lengthAdjust="spacing" textLength="292" x="13" y="647.8857">managingOrganization "5-2-26-11000040"</text><text fill="#000000" font-family="sans-serif" font-size="14" lengthAdjust="spacing" textLength="230" x="13" y="664.1826">payloadType "TI-Messenger chat"</text><text fill="#000000" font-family="sans-serif" font-size="14" lengthAdjust="spacing" textLength="270" x="13" y="680.4795">address "matrix:u/74..43f:e-domain.de"</text><line style="stroke:#181818;stroke-width:0.5;" x1="8" x2="310" y1="687.7813" y2="687.7813"/></g><!--MD5=[b93b1b746136fb66ce0438eb3607125f]
class EndpointMünchen--><g id="elem_EndpointMünchen"><rect codeLine="36" fill="#F1F1F1" height="145.7813" id="EndpointMünchen" rx="2.5" ry="2.5" style="stroke:#181818;stroke-width:0.5;" width="304" x="704" y="550"/><ellipse cx="788.25" cy="566" fill="#C2C2C2" rx="11" ry="11" style="stroke:#181818;stroke-width:1.0;"/><path d="M791.2188,571.6406 Q790.6406,571.9375 790,572.0781 Q789.3594,572.2344 788.6563,572.2344 Q786.1563,572.2344 784.8281,570.5938 Q783.5156,568.9375 783.5156,565.8125 Q783.5156,562.6875 784.8281,561.0313 Q786.1563,559.375 788.6563,559.375 Q789.3594,559.375 790,559.5313 Q790.6563,559.6875 791.2188,559.9844 L791.2188,562.7031 Q790.5938,562.125 790,561.8594 Q789.4063,561.5781 788.7813,561.5781 Q787.4375,561.5781 786.75,562.6563 Q786.0625,563.7188 786.0625,565.8125 Q786.0625,567.9063 786.75,568.9844 Q787.4375,570.0469 788.7813,570.0469 Q789.4063,570.0469 790,569.7813 Q790.5938,569.5 791.2188,568.9219 L791.2188,571.6406 Z " fill="#000000"/><text fill="#000000" font-family="sans-serif" font-size="14" lengthAdjust="spacing" textLength="127" x="808.75" y="570.8467">EndpointMünchen</text><line style="stroke:#181818;stroke-width:0.5;" x1="705" x2="1007" y1="582" y2="582"/><text fill="#000000" font-family="sans-serif" font-size="14" lengthAdjust="spacing" textLength="98" x="710" y="598.9951">status "Active"</text><text fill="#000000" font-family="sans-serif" font-size="14" lengthAdjust="spacing" textLength="287" x="710" y="615.292">connectionType "TI-Messenger Endpoint"</text><text fill="#000000" font-family="sans-serif" font-size="14" lengthAdjust="spacing" textLength="246" x="710" y="631.5889">name "Empfang Standort München"</text><text fill="#000000" font-family="sans-serif" font-size="14" lengthAdjust="spacing" textLength="292" x="710" y="647.8857">managingOrganization "5-2-26-11000040"</text><text fill="#000000" font-family="sans-serif" font-size="14" lengthAdjust="spacing" textLength="230" x="710" y="664.1826">payloadType "TI-Messenger chat"</text><text fill="#000000" font-family="sans-serif" font-size="14" lengthAdjust="spacing" textLength="264" x="710" y="680.4795">address "matrix:u/08..by:e-domain.de"</text><line style="stroke:#181818;stroke-width:0.5;" x1="705" x2="1007" y1="687.7813" y2="687.7813"/></g><!--MD5=[25feb473b8bce5483f2b04532141f222]
class LocationBerlin--><g id="elem_LocationBerlin"><rect codeLine="44" fill="#F1F1F1" height="145.7813" id="LocationBerlin" rx="2.5" ry="2.5" style="stroke:#181818;stroke-width:0.5;" width="294" x="346" y="550"/><ellipse cx="440.25" cy="566" fill="#C2C2C2" rx="11" ry="11" style="stroke:#181818;stroke-width:1.0;"/><path d="M443.2188,571.6406 Q442.6406,571.9375 442,572.0781 Q441.3594,572.2344 440.6563,572.2344 Q438.1563,572.2344 436.8281,570.5938 Q435.5156,568.9375 435.5156,565.8125 Q435.5156,562.6875 436.8281,561.0313 Q438.1563,559.375 440.6563,559.375 Q441.3594,559.375 442,559.5313 Q442.6563,559.6875 443.2188,559.9844 L443.2188,562.7031 Q442.5938,562.125 442,561.8594 Q441.4063,561.5781 440.7813,561.5781 Q439.4375,561.5781 438.75,562.6563 Q438.0625,563.7188 438.0625,565.8125 Q438.0625,567.9063 438.75,568.9844 Q439.4375,570.0469 440.7813,570.0469 Q441.4063,570.0469 442,569.7813 Q442.5938,569.5 443.2188,568.9219 L443.2188,571.6406 Z " fill="#000000"/><text fill="#000000" font-family="sans-serif" font-size="14" lengthAdjust="spacing" textLength="97" x="460.75" y="570.8467">LocationBerlin</text><line style="stroke:#181818;stroke-width:0.5;" x1="347" x2="639" y1="582" y2="582"/><text fill="#000000" font-family="sans-serif" font-size="14" lengthAdjust="spacing" textLength="82" x="352" y="598.9951">name Berlin</text><text fill="#000000" font-family="sans-serif" font-size="14" lengthAdjust="spacing" textLength="193" x="352" y="615.292">description "Standort Berlin"</text><text fill="#000000" font-family="sans-serif" font-size="14" lengthAdjust="spacing" textLength="282" x="352" y="631.5889">address "Friedrichstraße 1, 10117 Berlin"</text><text fill="#000000" font-family="sans-serif" font-size="14" lengthAdjust="spacing" textLength="226" x="352" y="647.8857">position "52.516181;13.376935"</text><text fill="#000000" font-family="sans-serif" font-size="14" lengthAdjust="spacing" textLength="258" x="352" y="664.1826">hoursOfOperation "Mo-Fr 8:00-18:00"</text><text fill="#000000" font-family="sans-serif" font-size="14" lengthAdjust="spacing" textLength="157" x="352" y="680.4795">availabilityExceptions ""</text><line style="stroke:#181818;stroke-width:0.5;" x1="347" x2="639" y1="687.7813" y2="687.7813"/></g><!--MD5=[50ed342fc0d4af22e8f1593d448b58ae]
class LocationMünchen--><g id="elem_LocationMünchen"><rect codeLine="52" fill="#F1F1F1" height="145.7813" id="LocationMünchen" rx="2.5" ry="2.5" style="stroke:#181818;stroke-width:0.5;" width="329" x="1043.5" y="550"/><ellipse cx="1142.25" cy="566" fill="#C2C2C2" rx="11" ry="11" style="stroke:#181818;stroke-width:1.0;"/><path d="M1145.2188,571.6406 Q1144.6406,571.9375 1144,572.0781 Q1143.3594,572.2344 1142.6563,572.2344 Q1140.1563,572.2344 1138.8281,570.5938 Q1137.5156,568.9375 1137.5156,565.8125 Q1137.5156,562.6875 1138.8281,561.0313 Q1140.1563,559.375 1142.6563,559.375 Q1143.3594,559.375 1144,559.5313 Q1144.6563,559.6875 1145.2188,559.9844 L1145.2188,562.7031 Q1144.5938,562.125 1144,561.8594 Q1143.4063,561.5781 1142.7813,561.5781 Q1141.4375,561.5781 1140.75,562.6563 Q1140.0625,563.7188 1140.0625,565.8125 Q1140.0625,567.9063 1140.75,568.9844 Q1141.4375,570.0469 1142.7813,570.0469 Q1143.4063,570.0469 1144,569.7813 Q1144.5938,569.5 1145.2188,568.9219 L1145.2188,571.6406 Z " fill="#000000"/><text fill="#000000" font-family="sans-serif" font-size="14" lengthAdjust="spacing" textLength="123" x="1162.75" y="570.8467">LocationMünchen</text><line style="stroke:#181818;stroke-width:0.5;" x1="1044.5" x2="1371.5" y1="582" y2="582"/><text fill="#000000" font-family="sans-serif" font-size="14" lengthAdjust="spacing" textLength="108" x="1049.5" y="598.9951">name München</text><text fill="#000000" font-family="sans-serif" font-size="14" lengthAdjust="spacing" textLength="219" x="1049.5" y="615.292">description "Standort München"</text><text fill="#000000" font-family="sans-serif" font-size="14" lengthAdjust="spacing" textLength="317" x="1049.5" y="631.5889">address "Ismaninger Str. 22, 81675 München"</text><text fill="#000000" font-family="sans-serif" font-size="14" lengthAdjust="spacing" textLength="235" x="1049.5" y="647.8857">position "48.137524;11.5984587"</text><text fill="#000000" font-family="sans-serif" font-size="14" lengthAdjust="spacing" textLength="263" x="1049.5" y="664.1826">hoursOfOperation "Mo-So 0:00-23:59"</text><text fill="#000000" font-family="sans-serif" font-size="14" lengthAdjust="spacing" textLength="157" x="1049.5" y="680.4795">availabilityExceptions ""</text><line style="stroke:#181818;stroke-width:0.5;" x1="1044.5" x2="1371.5" y1="687.7813" y2="687.7813"/></g><!--MD5=[86c7c362de55a38b660185a1328fe18d]
class Organization--><g id="elem_Organization"><rect codeLine="60" fill="#F1F1F1" height="162.0781" id="Organization" rx="2.5" ry="2.5" style="stroke:#181818;stroke-width:0.5;" width="277" x="535.5" y="7"/><ellipse cx="626.25" cy="23" fill="#C2C2C2" rx="11" ry="11" style="stroke:#181818;stroke-width:1.0;"/><path d="M629.2188,28.6406 Q628.6406,28.9375 628,29.0781 Q627.3594,29.2344 626.6563,29.2344 Q624.1563,29.2344 622.8281,27.5938 Q621.5156,25.9375 621.5156,22.8125 Q621.5156,19.6875 622.8281,18.0313 Q624.1563,16.375 626.6563,16.375 Q627.3594,16.375 628,16.5313 Q628.6563,16.6875 629.2188,16.9844 L629.2188,19.7031 Q628.5938,19.125 628,18.8594 Q627.4063,18.5781 626.7813,18.5781 Q625.4375,18.5781 624.75,19.6563 Q624.0625,20.7188 624.0625,22.8125 Q624.0625,24.9063 624.75,25.9844 Q625.4375,27.0469 626.7813,27.0469 Q627.4063,27.0469 628,26.7813 Q628.5938,26.5 629.2188,25.9219 L629.2188,28.6406 Z " fill="#000000"/><text fill="#000000" font-family="sans-serif" font-size="14" lengthAdjust="spacing" textLength="87" x="646.75" y="27.8467">Organization</text><line style="stroke:#181818;stroke-width:0.5;" x1="536.5" x2="811.5" y1="39" y2="39"/><text fill="#000000" font-family="sans-serif" font-size="14" lengthAdjust="spacing" textLength="196" x="541.5" y="55.9951">identifier "5-2-26-11000040"</text><text fill="#000000" font-family="sans-serif" font-size="14" lengthAdjust="spacing" textLength="72" x="541.5" y="72.292">active true</text><text fill="#000000" font-family="sans-serif" font-size="14" lengthAdjust="spacing" textLength="135" x="541.5" y="88.5889">type "Krankenhaus"</text><text fill="#000000" font-family="sans-serif" font-size="14" lengthAdjust="spacing" textLength="131" x="541.5" y="104.8857">name Deutschland</text><text fill="#000000" font-family="sans-serif" font-size="14" lengthAdjust="spacing" textLength="193" x="541.5" y="121.1826">alias "Sonnen Krankenhaus"</text><text fill="#000000" font-family="sans-serif" font-size="14" lengthAdjust="spacing" textLength="265" x="541.5" y="137.4795">telecom sonnen-kkh@deutschland.de</text><text fill="#000000" font-family="sans-serif" font-size="14" lengthAdjust="spacing" textLength="160" x="541.5" y="153.7764">contact "030 1234567"</text><line style="stroke:#181818;stroke-width:0.5;" x1="536.5" x2="811.5" y1="161.0781" y2="161.0781"/></g><!--MD5=[d7e5a634d844e5de772fb7b2fe1488ce]
link Organization to HealthcareServiceBerlin--><g id="link_Organization_HealthcareServiceBerlin"><path codeLine="70" d="M615.72,169.13 C600.62,189.89 584.01,212.73 567.71,235.15 " fill="none" id="Organization-to-HealthcareServiceBerlin" style="stroke:#181818;stroke-width:1.0;"/><polygon fill="none" points="559.99,245.76,566.7556,243.2646,567.0543,236.0597,560.2887,238.5551,559.99,245.76" style="stroke:#181818;stroke-width:1.0;"/><text fill="#000000" font-family="sans-serif" font-size="13" lengthAdjust="spacing" textLength="71" x="595" y="212.0669">providedBy</text></g><!--MD5=[c80e4d9a1e411c46a9bf6e2975eb4533]
link Organization to HealthcareServiceMünchen--><g id="link_Organization_HealthcareServiceMünchen"><path codeLine="71" d="M732.57,169.13 C747.75,189.89 764.45,212.73 780.84,235.15 " fill="none" id="Organization-to-HealthcareServiceMünchen" style="stroke:#181818;stroke-width:1.0;"/><polygon fill="none" points="788.59,245.76,788.2755,238.5558,781.5045,236.0752,781.819,243.2794,788.59,245.76" style="stroke:#181818;stroke-width:1.0;"/><text fill="#000000" font-family="sans-serif" font-size="13" lengthAdjust="spacing" textLength="71" x="768" y="212.0669">providedBy</text></g><!--MD5=[9981a558c37469bbe091a5e6b7bde80f]
reverse link HealthcareServiceBerlin to EndpointBerlin--><g id="link_HealthcareServiceBerlin_EndpointBerlin"><path codeLine="72" d="M330.34,481.55 C301.81,504.93 272.77,528.74 246.9,549.94 " fill="none" id="HealthcareServiceBerlin-backto-EndpointBerlin" style="stroke:#181818;stroke-width:1.0;"/><polygon fill="none" points="340.4,473.3,333.2239,474.0097,331.119,480.9067,338.2951,480.197,340.4,473.3" style="stroke:#181818;stroke-width:1.0;"/><text fill="#000000" font-family="sans-serif" font-size="13" lengthAdjust="spacing" textLength="56" x="301" y="516.0669">endpoint</text></g><!--MD5=[322eea315986bcd45ce3c94ae3b7fd4d]
reverse link HealthcareServiceMünchen to EndpointMünchen--><g id="link_HealthcareServiceMünchen_EndpointMünchen"><path codeLine="73" d="M863.78,486.45 C862.53,508.25 861.26,530.22 860.13,549.94 " fill="none" id="HealthcareServiceMünchen-backto-EndpointMünchen" style="stroke:#181818;stroke-width:1.0;"/><polygon fill="none" points="864.53,473.3,860.1875,479.057,863.8315,485.2797,868.174,479.5227,864.53,473.3" style="stroke:#181818;stroke-width:1.0;"/><text fill="#000000" font-family="sans-serif" font-size="13" lengthAdjust="spacing" textLength="56" x="864" y="516.0669">endpoint</text></g><!--MD5=[14f4b65be1526a4af58447beb0ee8081]
reverse link HealthcareServiceBerlin to LocationBerlin--><g id="link_HealthcareServiceBerlin_LocationBerlin"><path codeLine="74" d="M485.22,486.45 C486.47,508.25 487.74,530.22 488.87,549.94 " fill="none" id="HealthcareServiceBerlin-backto-LocationBerlin" style="stroke:#181818;stroke-width:1.0;"/><polygon fill="none" points="484.47,473.3,480.826,479.5227,485.1685,485.2797,488.8125,479.057,484.47,473.3" style="stroke:#181818;stroke-width:1.0;"/><text fill="#000000" font-family="sans-serif" font-size="13" lengthAdjust="spacing" textLength="50" x="488" y="516.0669">location</text></g><!--MD5=[232f9734047bfcb4da1fd9ebab706965]
reverse link HealthcareServiceMünchen to LocationMünchen--><g id="link_HealthcareServiceMünchen_LocationMünchen"><path codeLine="75" d="M1027,481.55 C1057.13,504.93 1087.81,528.74 1115.14,549.94 " fill="none" id="HealthcareServiceMünchen-backto-LocationMünchen" style="stroke:#181818;stroke-width:1.0;"/><polygon fill="none" points="1016.36,473.3,1018.6476,480.1386,1025.84,480.6572,1023.5524,473.8186,1016.36,473.3" style="stroke:#181818;stroke-width:1.0;"/><text fill="#000000" font-family="sans-serif" font-size="13" lengthAdjust="spacing" textLength="50" x="1071" y="516.0669">location</text></g><!--MD5=[3fb0da71e61a4c7587c89468ea519f6d]
@startuml ClassDiagram.HealthcareService
skinparam monochrome true
class HealthcareServiceBerlin {
  {field} providedBy "5-2-26-11000040"
  {field} speciality Fachrichtung1
  {field} location "5-2-26-11000044"
  {field} name "Standort Berlin"
  {field} telecom berlin@deutschland.de
  {field} serviceProvisionCode Free
  {field} communication "German", "English"
  {field} appointmentRequired true 
  {field} availableTime Mo-Fr 8:00-18:00
  {field} availabilityExceptions "An Feiertagen geschlossen"
  {field} endpoint EndpointBerlin
}
class HealthcareServiceMünchen {
  {field} providedBy "5-2-26-11000040"
  {field} speciality Fachrichtung2
  {field} location "5-2-26-09000040"
  {field} name "Standort München"
  {field} telecom muenchen@deutschland.de
  {field} serviceProvisionCode Free
  {field} communication "German", "English"
  {field} appointmentRequired true 
  {field} availableTime Mo-Fr 8:00-18:00
  {field} availabilityExceptions "An Feiertagen geschlossen"
  {field} endpoint EndpointMünchen
}
class EndpointBerlin {
  {field} status "Active"
  {field} connectionType "TI-Messenger Endpoint"
  {field} name "Empfang Standort Berlin"
  {field} managingOrganization "5-2-26-11000040"
  {field} payloadType "TI-Messenger chat"
  {field} address "matrix:u/74..43f:e-domain.de"
}
class EndpointMünchen {
  {field} status "Active"
  {field} connectionType "TI-Messenger Endpoint"
  {field} name "Empfang Standort München"
  {field} managingOrganization "5-2-26-11000040"
  {field} payloadType "TI-Messenger chat"
  {field} address "matrix:u/08..by:e-domain.de"
}
class LocationBerlin {
  {field} name Berlin
  {field} description "Standort Berlin"
  {field} address "Friedrichstraße 1, 10117 Berlin"
  {field} position "52.516181;13.376935"
  {field} hoursOfOperation "Mo-Fr 8:00-18:00"
  {field} availabilityExceptions ""
}
class LocationMünchen {
  {field} name München
  {field} description "Standort München"
  {field} address "Ismaninger Str. 22, 81675 München"
  {field} position "48.137524;11.5984587"
  {field} hoursOfOperation "Mo-So 0:00-23:59"
  {field} availabilityExceptions ""
}
class Organization {
  {field} identifier "5-2-26-11000040"
  {field} active true
  {field} type "Krankenhaus"
  {field} name Deutschland
  {field} alias "Sonnen Krankenhaus"
  {field} telecom sonnen-kkh@deutschland.de
  {field} contact "030 1234567"
}

Organization - -o HealthcareServiceBerlin: providedBy
Organization - -o HealthcareServiceMünchen: providedBy
HealthcareServiceBerlin o- - EndpointBerlin: endpoint
HealthcareServiceMünchen o- - EndpointMünchen: endpoint
HealthcareServiceBerlin o- - LocationBerlin: location
HealthcareServiceMünchen o- - LocationMünchen: location

@enduml

PlantUML version 1.2022.5(Sat Apr 30 10:55:52 UTC 2022)
(GPL source distribution)
Java Runtime: OpenJDK Runtime Environment
JVM: OpenJDK 64-Bit Server VM
Default Encoding: UTF-8
Language: en
Country: null
--></g></svg>