<svg xmlns="http://www.w3.org/2000/svg" xmlns:xlink="http://www.w3.org/1999/xlink" contentStyleType="text/css" data-diagram-type="CLASS" height="145px" preserveAspectRatio="none" style="width:622px;height:145px;background:#FFFFFF;" version="1.1" viewBox="0 0 622 145" width="622px" zoomAndPan="magnify"><defs/><g><g id="elem_hs1"><rect fill="#F1F1F1" height="36.2969" rx="2.5" ry="2.5" style="stroke:#181818;stroke-width:0.5;" width="155.7158" x="95.55" y="7"/><text fill="#000000" font-family="sans-serif" font-size="14" lengthAdjust="spacing" textLength="141.7158" x="102.55" y="21.9951">HealthcareService 1</text><line style="stroke:#181818;stroke-width:0.5;" x1="96.55" x2="250.2658" y1="27.2969" y2="27.2969"/></g><g id="elem_hs2"><rect fill="#F1F1F1" height="36.2969" rx="2.5" ry="2.5" style="stroke:#181818;stroke-width:0.5;" width="155.7158" x="370.55" y="7"/><text fill="#000000" font-family="sans-serif" font-size="14" lengthAdjust="spacing" textLength="141.7158" x="377.55" y="21.9951">HealthcareService 2</text><line style="stroke:#181818;stroke-width:0.5;" x1="371.55" x2="525.2658" y1="27.2969" y2="27.2969"/></g><g id="elem_o1"><rect fill="#F1F1F1" height="36.2969" rx="2.5" ry="2.5" style="stroke:#181818;stroke-width:0.5;" width="117.1064" x="252.85" y="103.29"/><text fill="#000000" font-family="sans-serif" font-size="14" lengthAdjust="spacing" textLength="103.1064" x="259.85" y="118.2851">Organization 1</text><line style="stroke:#181818;stroke-width:0.5;" x1="253.85" x2="368.9564" y1="123.5869" y2="123.5869"/></g><g id="elem_l1"><rect fill="#F1F1F1" height="36.2969" rx="2.5" ry="2.5" style="stroke:#181818;stroke-width:0.5;" width="86.8164" x="7" y="103.29"/><text fill="#000000" font-family="sans-serif" font-size="14" lengthAdjust="spacing" textLength="72.8164" x="14" y="118.2851">Location 1</text><line style="stroke:#181818;stroke-width:0.5;" x1="8" x2="92.8164" y1="123.5869" y2="123.5869"/></g><g id="elem_l2"><rect fill="#F1F1F1" height="36.2969" rx="2.5" ry="2.5" style="stroke:#181818;stroke-width:0.5;" width="86.8164" x="405" y="103.29"/><text fill="#000000" font-family="sans-serif" font-size="14" lengthAdjust="spacing" textLength="72.8164" x="412" y="118.2851">Location 2</text><line style="stroke:#181818;stroke-width:0.5;" x1="406" x2="490.8164" y1="123.5869" y2="123.5869"/></g><g id="elem_e1"><rect fill="#F1F1F1" height="36.2969" rx="2.5" ry="2.5" style="stroke:#181818;stroke-width:0.5;" width="89.667" x="128.57" y="103.29"/><text fill="#000000" font-family="sans-serif" font-size="14" lengthAdjust="spacing" textLength="75.667" x="135.57" y="118.2851">Endpoint 1</text><line style="stroke:#181818;stroke-width:0.5;" x1="129.57" x2="217.237" y1="123.5869" y2="123.5869"/></g><g id="elem_e2"><rect fill="#F1F1F1" height="36.2969" rx="2.5" ry="2.5" style="stroke:#181818;stroke-width:0.5;" width="89.667" x="526.57" y="103.29"/><text fill="#000000" font-family="sans-serif" font-size="14" lengthAdjust="spacing" textLength="75.667" x="533.57" y="118.2851">Endpoint 2</text><line style="stroke:#181818;stroke-width:0.5;" x1="527.57" x2="615.237" y1="123.5869" y2="123.5869"/></g><!--reverse link hs1 to o1--><g id="link_hs1_o1"><path codeLine="10" d="M208.9477,50.4303 C233.7377,67.3703 261.17,86.11 285.91,103.02 " fill="transparent" id="hs1-backto-o1" style="stroke:#181818;stroke-width:1;"/><polygon fill="transparent" points="199.04,43.66,201.7371,50.3477,208.9477,50.4303,206.2506,43.7426,199.04,43.66" style="stroke:#181818;stroke-width:1;"/></g><!--reverse link hs1 to l1--><g id="link_hs1_l1"><path codeLine="11" d="M141.0376,50.9624 C118.9476,67.9024 95.18,86.11 73.13,103.02 " fill="transparent" id="hs1-backto-l1" style="stroke:#181818;stroke-width:1;"/><polygon fill="transparent" points="150.56,43.66,143.3647,44.1371,141.0376,50.9624,148.2329,50.4853,150.56,43.66" style="stroke:#181818;stroke-width:1;"/></g><!--reverse link hs1 to e1--><g id="link_hs1_e1"><path codeLine="12" d="M173.41,55.44 C173.41,72.35 173.41,85.96 173.41,102.94 " fill="transparent" id="hs1-backto-e1" style="stroke:#181818;stroke-width:1;"/><polygon fill="transparent" points="173.41,43.44,169.41,49.44,173.41,55.44,177.41,49.44,173.41,43.44" style="stroke:#181818;stroke-width:1;"/></g><!--reverse link hs2 to o1--><g id="link_hs2_o1"><path codeLine="13" d="M413.0754,50.464 C388.4654,67.404 361.28,86.11 336.72,103.02 " fill="transparent" id="hs2-backto-o1" style="stroke:#181818;stroke-width:1;"/><polygon fill="transparent" points="422.96,43.66,415.7497,43.7671,413.0754,50.464,420.2857,50.3569,422.96,43.66" style="stroke:#181818;stroke-width:1;"/></g><!--reverse link hs2 to l2--><g id="link_hs2_l2"><path codeLine="14" d="M448.41,55.44 C448.41,72.35 448.41,85.96 448.41,102.94 " fill="transparent" id="hs2-backto-l2" style="stroke:#181818;stroke-width:1;"/><polygon fill="transparent" points="448.41,43.44,444.41,49.44,448.41,55.44,452.41,49.44,448.41,43.44" style="stroke:#181818;stroke-width:1;"/></g><!--reverse link hs2 to e2--><g id="link_hs2_e2"><path codeLine="15" d="M480.7824,50.9624 C502.8724,67.9024 526.63,86.11 548.68,103.02 " fill="transparent" id="hs2-backto-e2" style="stroke:#181818;stroke-width:1;"/><polygon fill="transparent" points="471.26,43.66,473.5871,50.4853,480.7824,50.9624,478.4553,44.1371,471.26,43.66" style="stroke:#181818;stroke-width:1;"/></g><!--SRC=[VOun3i8m34NtdiBgtY6v0n834WCdCC4YWSIkai3GqvCgAK42iJtf___iT7SyOyG0GLYCZH88SdpG8ESRcGpZdj1dQp3IYUBJ6G8r0YQmIVtfwDRHxyunNf7TWja9DuLqmq7CP-9_95Nfkt77braSvxOXzPtK3UbXAE-2JDDwSqFVaLRKlL2ntDgmA5u0]--></g></svg>