<?xml version="1.0" encoding="us-ascii" standalone="no"?><svg xmlns="http://www.w3.org/2000/svg" xmlns:xlink="http://www.w3.org/1999/xlink" contentStyleType="text/css" height="145px" preserveAspectRatio="none" style="width:616px;height:145px;background:#FFFFFF;" version="1.1" viewBox="0 0 616 145" width="616px" zoomAndPan="magnify"><defs/><g><g id="elem_hs1"><rect fill="#F1F1F1" height="36.2969" style="stroke:#181818;stroke-width:0.5;" width="151" x="96" y="7"/><text fill="#000000" font-family="sans-serif" font-size="14" lengthAdjust="spacing" textLength="137" x="103" y="21.9951">HealthcareService 1</text><line style="stroke:#181818;stroke-width:0.5;" x1="97" x2="246" y1="27.2969" y2="27.2969"/></g><g id="elem_hs2"><rect fill="#F1F1F1" height="36.2969" style="stroke:#181818;stroke-width:0.5;" width="151" x="368" y="7"/><text fill="#000000" font-family="sans-serif" font-size="14" lengthAdjust="spacing" textLength="137" x="375" y="21.9951">HealthcareService 2</text><line style="stroke:#181818;stroke-width:0.5;" x1="369" x2="518" y1="27.2969" y2="27.2969"/></g><g id="elem_o1"><rect fill="#F1F1F1" height="36.2969" style="stroke:#181818;stroke-width:0.5;" width="114" x="251.5" y="103"/><text fill="#000000" font-family="sans-serif" font-size="14" lengthAdjust="spacing" textLength="100" x="258.5" y="117.9951">Organization 1</text><line style="stroke:#181818;stroke-width:0.5;" x1="252.5" x2="364.5" y1="123.2969" y2="123.2969"/></g><g id="elem_l1"><rect fill="#F1F1F1" height="36.2969" style="stroke:#181818;stroke-width:0.5;" width="85" x="7" y="103"/><text fill="#000000" font-family="sans-serif" font-size="14" lengthAdjust="spacing" textLength="71" x="14" y="117.9951">Location 1</text><line style="stroke:#181818;stroke-width:0.5;" x1="8" x2="91" y1="123.2969" y2="123.2969"/></g><g id="elem_l2"><rect fill="#F1F1F1" height="36.2969" style="stroke:#181818;stroke-width:0.5;" width="85" x="401" y="103"/><text fill="#000000" font-family="sans-serif" font-size="14" lengthAdjust="spacing" textLength="71" x="408" y="117.9951">Location 2</text><line style="stroke:#181818;stroke-width:0.5;" x1="402" x2="485" y1="123.2969" y2="123.2969"/></g><g id="elem_e1"><rect fill="#F1F1F1" height="36.2969" style="stroke:#181818;stroke-width:0.5;" width="89" x="127" y="103"/><text fill="#000000" font-family="sans-serif" font-size="14" lengthAdjust="spacing" textLength="75" x="134" y="117.9951">Endpoint 1</text><line style="stroke:#181818;stroke-width:0.5;" x1="128" x2="215" y1="123.2969" y2="123.2969"/></g><g id="elem_e2"><rect fill="#F1F1F1" height="36.2969" style="stroke:#181818;stroke-width:0.5;" width="89" x="521" y="103"/><text fill="#000000" font-family="sans-serif" font-size="14" lengthAdjust="spacing" textLength="75" x="528" y="117.9951">Endpoint 2</text><line style="stroke:#181818;stroke-width:0.5;" x1="522" x2="609" y1="123.2969" y2="123.2969"/></g><!--reverse link hs1 to o1--><g id="link_hs1_o1"><path codeLine="10" d="M206.2042,49.81 C230.8742,66.74 258.64,85.79 283.41,102.79 " fill="none" id="hs1-backto-o1" style="stroke:#181818;stroke-width:1.0;"/><polygon fill="none" points="196.31,43.02,198.9938,49.7131,206.2042,49.81,203.5205,43.1169,196.31,43.02" style="stroke:#181818;stroke-width:1.0;"/></g><!--reverse link hs1 to l1--><g id="link_hs1_l1"><path codeLine="11" d="M139.9032,50.3426 C117.9232,67.2726 93.9,85.79 71.84,102.79 " fill="none" id="hs1-backto-l1" style="stroke:#181818;stroke-width:1.0;"/><polygon fill="none" points="149.41,43.02,142.2157,43.5124,139.9032,50.3426,147.0975,49.8502,149.41,43.02" style="stroke:#181818;stroke-width:1.0;"/></g><!--reverse link hs1 to e1--><g id="link_hs1_e1"><path codeLine="12" d="M171.5,55.24 C171.5,72.2 171.5,85.95 171.5,102.87 " fill="none" id="hs1-backto-e1" style="stroke:#181818;stroke-width:1.0;"/><polygon fill="none" points="171.5,43.24,167.5,49.24,171.5,55.24,175.5,49.24,171.5,43.24" style="stroke:#181818;stroke-width:1.0;"/></g><!--reverse link hs2 to o1--><g id="link_hs2_o1"><path codeLine="13" d="M409.2027,49.8779 C384.8927,66.8079 357.63,85.79 333.22,102.79 " fill="none" id="hs2-backto-o1" style="stroke:#181818;stroke-width:1.0;"/><polygon fill="none" points="419.05,43.02,411.8404,43.1665,409.2027,49.8779,416.4123,49.7314,419.05,43.02" style="stroke:#181818;stroke-width:1.0;"/></g><!--reverse link hs2 to l2--><g id="link_hs2_l2"><path codeLine="14" d="M443.5,55.24 C443.5,72.2 443.5,85.95 443.5,102.87 " fill="none" id="hs2-backto-l2" style="stroke:#181818;stroke-width:1.0;"/><polygon fill="none" points="443.5,43.24,439.5,49.24,443.5,55.24,447.5,49.24,443.5,43.24" style="stroke:#181818;stroke-width:1.0;"/></g><!--reverse link hs2 to e2--><g id="link_hs2_e2"><path codeLine="15" d="M475.0968,50.3426 C497.0768,67.2726 521.1,85.79 543.16,102.79 " fill="none" id="hs2-backto-e2" style="stroke:#181818;stroke-width:1.0;"/><polygon fill="none" points="465.59,43.02,467.9025,49.8502,475.0968,50.3426,472.7843,43.5124,465.59,43.02" style="stroke:#181818;stroke-width:1.0;"/></g></g></svg>