<svg xmlns="http://www.w3.org/2000/svg" xmlns:xlink="http://www.w3.org/1999/xlink" contentStyleType="text/css" height="145px" preserveAspectRatio="none" style="width:614px;height:145px;background:#FFFFFF;" version="1.1" viewBox="0 0 614 145" width="614px" zoomAndPan="magnify"><defs/><g><g id="elem_pr1"><rect fill="#F1F1F1" height="36.2969" style="stroke:#181818;stroke-width:0.5;" width="139.1934" x="103.81" y="7"/><text fill="#000000" font-family="sans-serif" font-size="14" lengthAdjust="spacing" textLength="125.1934" x="110.81" y="21.9951">PractitionerRole 1</text><line style="stroke:#181818;stroke-width:0.5;" x1="104.81" x2="242.0034" y1="27.2969" y2="27.2969"/></g><g id="elem_pr2"><rect fill="#F1F1F1" height="36.2969" style="stroke:#181818;stroke-width:0.5;" width="139.1934" x="370.81" y="7"/><text fill="#000000" font-family="sans-serif" font-size="14" lengthAdjust="spacing" textLength="125.1934" x="377.81" y="21.9951">PractitionerRole 2</text><line style="stroke:#181818;stroke-width:0.5;" x1="371.81" x2="509.0034" y1="27.2969" y2="27.2969"/></g><g id="elem_p1"><rect fill="#F1F1F1" height="36.2969" style="stroke:#181818;stroke-width:0.5;" width="108.3975" x="253.21" y="103.29"/><text fill="#000000" font-family="sans-serif" font-size="14" lengthAdjust="spacing" textLength="94.3975" x="260.21" y="118.2851">Practitioner 1</text><line style="stroke:#181818;stroke-width:0.5;" x1="254.21" x2="360.6075" y1="123.5869" y2="123.5869"/></g><g id="elem_l1"><rect fill="#F1F1F1" height="36.2969" style="stroke:#181818;stroke-width:0.5;" width="86.8164" x="7" y="103.29"/><text fill="#000000" font-family="sans-serif" font-size="14" lengthAdjust="spacing" textLength="72.8164" x="14" y="118.2851">Location 1</text><line style="stroke:#181818;stroke-width:0.5;" x1="8" x2="92.8164" y1="123.5869" y2="123.5869"/></g><g id="elem_l2"><rect fill="#F1F1F1" height="36.2969" style="stroke:#181818;stroke-width:0.5;" width="86.8164" x="397" y="103.29"/><text fill="#000000" font-family="sans-serif" font-size="14" lengthAdjust="spacing" textLength="72.8164" x="404" y="118.2851">Location 2</text><line style="stroke:#181818;stroke-width:0.5;" x1="398" x2="482.8164" y1="123.5869" y2="123.5869"/></g><g id="elem_e1"><rect fill="#F1F1F1" height="36.2969" style="stroke:#181818;stroke-width:0.5;" width="89.667" x="128.57" y="103.29"/><text fill="#000000" font-family="sans-serif" font-size="14" lengthAdjust="spacing" textLength="75.667" x="135.57" y="118.2851">Endpoint 1</text><line style="stroke:#181818;stroke-width:0.5;" x1="129.57" x2="217.237" y1="123.5869" y2="123.5869"/></g><g id="elem_e2"><rect fill="#F1F1F1" height="36.2969" style="stroke:#181818;stroke-width:0.5;" width="89.667" x="518.57" y="103.29"/><text fill="#000000" font-family="sans-serif" font-size="14" lengthAdjust="spacing" textLength="75.667" x="525.57" y="118.2851">Endpoint 2</text><line style="stroke:#181818;stroke-width:0.5;" x1="519.57" x2="607.237" y1="123.5869" y2="123.5869"/></g><!--reverse link pr1 to p1--><g id="link_pr1_p1"><path codeLine="10" d="M208.1133,50.5664 C232.1833,67.5064 258.63,86.11 282.65,103.02 " fill="none" id="pr1-backto-p1" style="stroke:#181818;stroke-width:1.0;"/><polygon fill="none" points="198.3,43.66,200.9045,50.3843,208.1133,50.5664,205.5088,43.8421,198.3,43.66" style="stroke:#181818;stroke-width:1.0;"/></g><!--reverse link pr1 to l1--><g id="link_pr1_l1"><path codeLine="11" d="M141.0376,50.9624 C118.9476,67.9024 95.18,86.11 73.13,103.02 " fill="none" id="pr1-backto-l1" style="stroke:#181818;stroke-width:1.0;"/><polygon fill="none" points="150.56,43.66,143.3647,44.1371,141.0376,50.9624,148.2329,50.4853,150.56,43.66" style="stroke:#181818;stroke-width:1.0;"/></g><!--reverse link pr1 to e1--><g id="link_pr1_e1"><path codeLine="12" d="M173.41,55.44 C173.41,72.35 173.41,85.96 173.41,102.94 " fill="none" id="pr1-backto-e1" style="stroke:#181818;stroke-width:1.0;"/><polygon fill="none" points="173.41,43.44,169.41,49.44,173.41,55.44,177.41,49.44,173.41,43.44" style="stroke:#181818;stroke-width:1.0;"/></g><!--reverse link pr2 to p1--><g id="link_pr2_p1"><path codeLine="13" d="M405.9112,50.6011 C382.0212,67.5411 355.82,86.11 331.98,103.02 " fill="none" id="pr2-backto-p1" style="stroke:#181818;stroke-width:1.0;"/><polygon fill="none" points="415.7,43.66,408.4919,43.8676,405.9112,50.6011,413.1193,50.3935,415.7,43.66" style="stroke:#181818;stroke-width:1.0;"/></g><!--reverse link pr2 to l2--><g id="link_pr2_l2"><path codeLine="14" d="M440.41,55.44 C440.41,72.35 440.41,85.96 440.41,102.94 " fill="none" id="pr2-backto-l2" style="stroke:#181818;stroke-width:1.0;"/><polygon fill="none" points="440.41,43.44,436.41,49.44,440.41,55.44,444.41,49.44,440.41,43.44" style="stroke:#181818;stroke-width:1.0;"/></g><!--reverse link pr2 to e2--><g id="link_pr2_e2"><path codeLine="15" d="M472.7824,50.9624 C494.8724,67.9024 518.63,86.11 540.68,103.02 " fill="none" id="pr2-backto-e2" style="stroke:#181818;stroke-width:1.0;"/><polygon fill="none" points="463.26,43.66,465.5871,50.4853,472.7824,50.9624,470.4553,44.1371,463.26,43.66" style="stroke:#181818;stroke-width:1.0;"/></g><!--SRC=[TOun3iCW34LtJc5bpm1twDQXwWrSQYaqW953xryG88OcsvF-_yy-TXSJ2WO87Dbkme4WovSKlpvaComFGPjTTXn9dkm9z09uG19zNJ6zOauhmp05TxPOivxuawGf_JJUuZknYxblIFydRKD6gV8jyBhMcmFzHAfePg5XkJMmA7u0]--></g></svg>