<?xml version="1.0" encoding="UTF-8" standalone="no"?><svg xmlns="http://www.w3.org/2000/svg" xmlns:xlink="http://www.w3.org/1999/xlink" contentStyleType="text/css" height="145px" preserveAspectRatio="none" style="width:606px;height:145px;background:#FFFFFF;" version="1.1" viewBox="0 0 606 145" width="606px" zoomAndPan="magnify"><defs/><g><g id="elem_pr1"><rect fill="#F1F1F1" height="36.2969" style="stroke:#181818;stroke-width:0.5;" width="136" x="103.5" y="7"/><text fill="#000000" font-family="sans-serif" font-size="14" lengthAdjust="spacing" textLength="122" x="110.5" y="21.9951">PractitionerRole 1</text><line style="stroke:#181818;stroke-width:0.5;" x1="104.5" x2="238.5" y1="27.2969" y2="27.2969"/></g><g id="elem_pr2"><rect fill="#F1F1F1" height="36.2969" style="stroke:#181818;stroke-width:0.5;" width="136" x="365.5" y="7"/><text fill="#000000" font-family="sans-serif" font-size="14" lengthAdjust="spacing" textLength="122" x="372.5" y="21.9951">PractitionerRole 2</text><line style="stroke:#181818;stroke-width:0.5;" x1="366.5" x2="500.5" y1="27.2969" y2="27.2969"/></g><g id="elem_p1"><rect fill="#F1F1F1" height="36.2969" style="stroke:#181818;stroke-width:0.5;" width="105" x="251" y="103"/><text fill="#000000" font-family="sans-serif" font-size="14" lengthAdjust="spacing" textLength="91" x="258" y="117.9951">Practitioner 1</text><line style="stroke:#181818;stroke-width:0.5;" x1="252" x2="355" y1="123.2969" y2="123.2969"/></g><g id="elem_l1"><rect fill="#F1F1F1" height="36.2969" style="stroke:#181818;stroke-width:0.5;" width="85" x="7" y="103"/><text fill="#000000" font-family="sans-serif" font-size="14" lengthAdjust="spacing" textLength="71" x="14" y="117.9951">Location 1</text><line style="stroke:#181818;stroke-width:0.5;" x1="8" x2="91" y1="123.2969" y2="123.2969"/></g><g id="elem_l2"><rect fill="#F1F1F1" height="36.2969" style="stroke:#181818;stroke-width:0.5;" width="85" x="391" y="103"/><text fill="#000000" font-family="sans-serif" font-size="14" lengthAdjust="spacing" textLength="71" x="398" y="117.9951">Location 2</text><line style="stroke:#181818;stroke-width:0.5;" x1="392" x2="475" y1="123.2969" y2="123.2969"/></g><g id="elem_e1"><rect fill="#F1F1F1" height="36.2969" style="stroke:#181818;stroke-width:0.5;" width="89" x="127" y="103"/><text fill="#000000" font-family="sans-serif" font-size="14" lengthAdjust="spacing" textLength="75" x="134" y="117.9951">Endpoint 1</text><line style="stroke:#181818;stroke-width:0.5;" x1="128" x2="215" y1="123.2969" y2="123.2969"/></g><g id="elem_e2"><rect fill="#F1F1F1" height="36.2969" style="stroke:#181818;stroke-width:0.5;" width="89" x="511" y="103"/><text fill="#000000" font-family="sans-serif" font-size="14" lengthAdjust="spacing" textLength="75" x="518" y="117.9951">Endpoint 2</text><line style="stroke:#181818;stroke-width:0.5;" x1="512" x2="599" y1="123.2969" y2="123.2969"/></g><!--MD5=[0fb1e0c7ab30456332cb0526259fa6f6]
reverse link pr1 to p1--><g id="link_pr1_p1"><path codeLine="10" d="M206.11,50.64 C229.14,67.04 258.82,88.18 279.33,102.79 " fill="none" id="pr1-backto-p1" style="stroke:#181818;stroke-width:1.0;"/><polygon fill="none" points="195.4,43.02,197.9652,49.7594,205.1728,49.9836,202.6076,43.2442,195.4,43.02" style="stroke:#181818;stroke-width:1.0;"/></g><!--MD5=[0b876e82722816cf4c8e4fa63890e7ee]
reverse link pr1 to l1--><g id="link_pr1_l1"><path codeLine="11" d="M138.93,51.09 C117.73,67.43 90.63,88.31 71.84,102.79 " fill="none" id="pr1-backto-l1" style="stroke:#181818;stroke-width:1.0;"/><polygon fill="none" points="149.41,43.02,142.216,43.5164,139.9073,50.348,147.1013,49.8515,149.41,43.02" style="stroke:#181818;stroke-width:1.0;"/></g><!--MD5=[452109bb5980ef0f5df5bfed4c91d3cc]
reverse link pr1 to e1--><g id="link_pr1_e1"><path codeLine="12" d="M171.5,56.39 C171.5,71.78 171.5,89.91 171.5,102.87 " fill="none" id="pr1-backto-e1" style="stroke:#181818;stroke-width:1.0;"/><polygon fill="none" points="171.5,43.24,167.5,49.24,171.5,55.24,175.5,49.24,171.5,43.24" style="stroke:#181818;stroke-width:1.0;"/></g><!--MD5=[53c05ff1d9575e6f59b48ed4c62bebb0]
reverse link pr2 to p1--><g id="link_pr2_p1"><path codeLine="13" d="M399.42,50.64 C376.74,67.04 347.51,88.18 327.31,102.79 " fill="none" id="pr2-backto-p1" style="stroke:#181818;stroke-width:1.0;"/><polygon fill="none" points="409.96,43.02,402.754,43.2902,400.2318,50.0459,407.4379,49.7757,409.96,43.02" style="stroke:#181818;stroke-width:1.0;"/></g><!--MD5=[f7312579e7dc4c05630e95ed0bcbbb51]
reverse link pr2 to l2--><g id="link_pr2_l2"><path codeLine="14" d="M433.5,56.39 C433.5,71.78 433.5,89.91 433.5,102.87 " fill="none" id="pr2-backto-l2" style="stroke:#181818;stroke-width:1.0;"/><polygon fill="none" points="433.5,43.24,429.5,49.24,433.5,55.24,437.5,49.24,433.5,43.24" style="stroke:#181818;stroke-width:1.0;"/></g><!--MD5=[e16c3c8a5801420fa98a89b02814061c]
reverse link pr2 to e2--><g id="link_pr2_e2"><path codeLine="15" d="M466.07,51.09 C487.27,67.43 514.37,88.31 533.16,102.79 " fill="none" id="pr2-backto-e2" style="stroke:#181818;stroke-width:1.0;"/><polygon fill="none" points="455.59,43.02,457.8987,49.8515,465.0927,50.348,462.784,43.5164,455.59,43.02" style="stroke:#181818;stroke-width:1.0;"/></g><!--MD5=[7811b541f8ba0a6adbb3425410ee560a]
@startuml ObjectDiagram.PractitionerRole
skinparam monochrome true
object "PractitionerRole 1" as pr1
object "PractitionerRole 2" as pr2
object "Practitioner 1" as p1
object "Location 1" as l1
object "Location 2" as l2
object "Endpoint 1" as e1
object "Endpoint 2" as e2

pr1 o- - p1
pr1 o- - l1
pr1 o- - e1
pr2 o- - p1
pr2 o- - l2
pr2 o- - e2

@enduml

PlantUML version 1.2022.5(Sat Apr 30 10:55:52 UTC 2022)
(GPL source distribution)
Java Runtime: OpenJDK Runtime Environment
JVM: OpenJDK 64-Bit Server VM
Default Encoding: UTF-8
Language: en
Country: null
--></g></svg>