<svg xmlns="http://www.w3.org/2000/svg" xmlns:xlink="http://www.w3.org/1999/xlink" contentStyleType="text/css" height="145px" preserveAspectRatio="none" style="width:606px;height:145px;background:#FFFFFF;" version="1.1" viewBox="0 0 606 145" width="606px" zoomAndPan="magnify"><defs/><g><g id="elem_pr1"><rect fill="#F1F1F1" height="36.2969" style="stroke:#181818;stroke-width:0.5;" width="136" x="103.5" y="7"/><text fill="#000000" font-family="sans-serif" font-size="14" lengthAdjust="spacing" textLength="122" x="110.5" y="21.9951">PractitionerRole 1</text><line style="stroke:#181818;stroke-width:0.5;" x1="104.5" x2="238.5" y1="27.2969" y2="27.2969"/></g><g id="elem_pr2"><rect fill="#F1F1F1" height="36.2969" style="stroke:#181818;stroke-width:0.5;" width="136" x="365.5" y="7"/><text fill="#000000" font-family="sans-serif" font-size="14" lengthAdjust="spacing" textLength="122" x="372.5" y="21.9951">PractitionerRole 2</text><line style="stroke:#181818;stroke-width:0.5;" x1="366.5" x2="500.5" y1="27.2969" y2="27.2969"/></g><g id="elem_p1"><rect fill="#F1F1F1" height="36.2969" style="stroke:#181818;stroke-width:0.5;" width="105" x="251" y="103.29"/><text fill="#000000" font-family="sans-serif" font-size="14" lengthAdjust="spacing" textLength="91" x="258" y="118.2851">Practitioner 1</text><line style="stroke:#181818;stroke-width:0.5;" x1="252" x2="355" y1="123.5869" y2="123.5869"/></g><g id="elem_l1"><rect fill="#F1F1F1" height="36.2969" style="stroke:#181818;stroke-width:0.5;" width="85" x="7" y="103.29"/><text fill="#000000" font-family="sans-serif" font-size="14" lengthAdjust="spacing" textLength="71" x="14" y="118.2851">Location 1</text><line style="stroke:#181818;stroke-width:0.5;" x1="8" x2="91" y1="123.5869" y2="123.5869"/></g><g id="elem_l2"><rect fill="#F1F1F1" height="36.2969" style="stroke:#181818;stroke-width:0.5;" width="85" x="391" y="103.29"/><text fill="#000000" font-family="sans-serif" font-size="14" lengthAdjust="spacing" textLength="71" x="398" y="118.2851">Location 2</text><line style="stroke:#181818;stroke-width:0.5;" x1="392" x2="475" y1="123.5869" y2="123.5869"/></g><g id="elem_e1"><rect fill="#F1F1F1" height="36.2969" style="stroke:#181818;stroke-width:0.5;" width="89" x="127" y="103.29"/><text fill="#000000" font-family="sans-serif" font-size="14" lengthAdjust="spacing" textLength="75" x="134" y="118.2851">Endpoint 1</text><line style="stroke:#181818;stroke-width:0.5;" x1="128" x2="215" y1="123.5869" y2="123.5869"/></g><g id="elem_e2"><rect fill="#F1F1F1" height="36.2969" style="stroke:#181818;stroke-width:0.5;" width="89" x="511" y="103.29"/><text fill="#000000" font-family="sans-serif" font-size="14" lengthAdjust="spacing" textLength="75" x="518" y="118.2851">Endpoint 2</text><line style="stroke:#181818;stroke-width:0.5;" x1="512" x2="599" y1="123.5869" y2="123.5869"/></g><!--reverse link pr1 to p1--><g id="link_pr1_p1"><path codeLine="10" d="M205.784,50.636 C229.494,67.576 255.45,86.11 279.11,103.02 " fill="none" id="pr1-backto-p1" style="stroke:#181818;stroke-width:1.0;"/><polygon fill="none" points="196.02,43.66,198.5766,50.4027,205.784,50.636,203.2273,43.8934,196.02,43.66" style="stroke:#181818;stroke-width:1.0;"/></g><!--reverse link pr1 to l1--><g id="link_pr1_l1"><path codeLine="11" d="M139.3466,51 C117.4366,67.94 93.91,86.11 72.04,103.02 " fill="none" id="pr1-backto-l1" style="stroke:#181818;stroke-width:1.0;"/><polygon fill="none" points="148.84,43.66,141.6466,44.1655,139.3466,51,146.5399,50.4945,148.84,43.66" style="stroke:#181818;stroke-width:1.0;"/></g><!--reverse link pr1 to e1--><g id="link_pr1_e1"><path codeLine="12" d="M171.5,55.44 C171.5,72.35 171.5,85.96 171.5,102.94 " fill="none" id="pr1-backto-e1" style="stroke:#181818;stroke-width:1.0;"/><polygon fill="none" points="171.5,43.44,167.5,49.44,171.5,55.44,175.5,49.44,171.5,43.44" style="stroke:#181818;stroke-width:1.0;"/></g><!--reverse link pr2 to p1--><g id="link_pr2_p1"><path codeLine="13" d="M399.6369,50.7067 C376.2869,67.6467 350.82,86.11 327.52,103.02 " fill="none" id="pr2-backto-p1" style="stroke:#181818;stroke-width:1.0;"/><polygon fill="none" points="409.35,43.66,402.1446,43.9456,399.6369,50.7067,406.8423,50.421,409.35,43.66" style="stroke:#181818;stroke-width:1.0;"/></g><!--reverse link pr2 to l2--><g id="link_pr2_l2"><path codeLine="14" d="M433.5,55.44 C433.5,72.35 433.5,85.96 433.5,102.94 " fill="none" id="pr2-backto-l2" style="stroke:#181818;stroke-width:1.0;"/><polygon fill="none" points="433.5,43.44,429.5,49.44,433.5,55.44,437.5,49.44,433.5,43.44" style="stroke:#181818;stroke-width:1.0;"/></g><!--reverse link pr2 to e2--><g id="link_pr2_e2"><path codeLine="15" d="M465.6534,51 C487.5634,67.94 511.09,86.11 532.96,103.02 " fill="none" id="pr2-backto-e2" style="stroke:#181818;stroke-width:1.0;"/><polygon fill="none" points="456.16,43.66,458.4601,50.4945,465.6534,51,463.3534,44.1655,456.16,43.66" style="stroke:#181818;stroke-width:1.0;"/></g><!--SRC=[TOun3iCW34LtJc5bpm1twDQXwWrSQYaqW953xryG88OcsvF-_yy-TXSJ2WO87Dbkme4WovSKlpvaComFGPjTTXn9dkm9z09uG19zNJ6zOauhmp05TxPOivxuawGf_JJUuZknYxblIFydRKD6gV8jyBhMcmFzHAfePg5XkJMmA7u0]--></g></svg>