<?xml version="1.0" encoding="UTF-8" standalone="no"?><svg xmlns="http://www.w3.org/2000/svg" xmlns:xlink="http://www.w3.org/1999/xlink" contentStyleType="text/css" height="145px" preserveAspectRatio="none" style="width:616px;height:145px;background:#FFFFFF;" version="1.1" viewBox="0 0 616 145" width="616px" zoomAndPan="magnify"><defs/><g><g id="elem_hs1"><rect fill="#F1F1F1" height="36.2969" style="stroke:#181818;stroke-width:0.5;" width="151" x="96" y="7"/><text fill="#000000" font-family="sans-serif" font-size="14" lengthAdjust="spacing" textLength="137" x="103" y="21.9951">HealthcareService 1</text><line style="stroke:#181818;stroke-width:0.5;" x1="97" x2="246" y1="27.2969" y2="27.2969"/></g><g id="elem_hs2"><rect fill="#F1F1F1" height="36.2969" style="stroke:#181818;stroke-width:0.5;" width="151" x="368" y="7"/><text fill="#000000" font-family="sans-serif" font-size="14" lengthAdjust="spacing" textLength="137" x="375" y="21.9951">HealthcareService 2</text><line style="stroke:#181818;stroke-width:0.5;" x1="369" x2="518" y1="27.2969" y2="27.2969"/></g><g id="elem_o1"><rect fill="#F1F1F1" height="36.2969" style="stroke:#181818;stroke-width:0.5;" width="114" x="251.5" y="103"/><text fill="#000000" font-family="sans-serif" font-size="14" lengthAdjust="spacing" textLength="100" x="258.5" y="117.9951">Organization 1</text><line style="stroke:#181818;stroke-width:0.5;" x1="252.5" x2="364.5" y1="123.2969" y2="123.2969"/></g><g id="elem_l1"><rect fill="#F1F1F1" height="36.2969" style="stroke:#181818;stroke-width:0.5;" width="85" x="7" y="103"/><text fill="#000000" font-family="sans-serif" font-size="14" lengthAdjust="spacing" textLength="71" x="14" y="117.9951">Location 1</text><line style="stroke:#181818;stroke-width:0.5;" x1="8" x2="91" y1="123.2969" y2="123.2969"/></g><g id="elem_l2"><rect fill="#F1F1F1" height="36.2969" style="stroke:#181818;stroke-width:0.5;" width="85" x="401" y="103"/><text fill="#000000" font-family="sans-serif" font-size="14" lengthAdjust="spacing" textLength="71" x="408" y="117.9951">Location 2</text><line style="stroke:#181818;stroke-width:0.5;" x1="402" x2="485" y1="123.2969" y2="123.2969"/></g><g id="elem_e1"><rect fill="#F1F1F1" height="36.2969" style="stroke:#181818;stroke-width:0.5;" width="89" x="127" y="103"/><text fill="#000000" font-family="sans-serif" font-size="14" lengthAdjust="spacing" textLength="75" x="134" y="117.9951">Endpoint 1</text><line style="stroke:#181818;stroke-width:0.5;" x1="128" x2="215" y1="123.2969" y2="123.2969"/></g><g id="elem_e2"><rect fill="#F1F1F1" height="36.2969" style="stroke:#181818;stroke-width:0.5;" width="89" x="521" y="103"/><text fill="#000000" font-family="sans-serif" font-size="14" lengthAdjust="spacing" textLength="75" x="528" y="117.9951">Endpoint 2</text><line style="stroke:#181818;stroke-width:0.5;" x1="522" x2="609" y1="123.2969" y2="123.2969"/></g><!--MD5=[5937da5babd7ec9a26249619f3bae6a1]
reverse link hs1 to o1--><g id="link_hs1_o1"><path codeLine="10" d="M207.09,50.42 C231.04,66.85 262.03,88.11 283.41,102.79 " fill="none" id="hs1-backto-o1" style="stroke:#181818;stroke-width:1.0;"/><polygon fill="none" points="196.31,43.02,198.9919,49.7138,206.2023,49.8127,203.5204,43.1189,196.31,43.02" style="stroke:#181818;stroke-width:1.0;"/></g><!--MD5=[586bd36b0521ce49ba1c4676e8bb3519]
reverse link hs1 to l1--><g id="link_hs1_l1"><path codeLine="11" d="M138.93,51.09 C117.73,67.43 90.63,88.31 71.84,102.79 " fill="none" id="hs1-backto-l1" style="stroke:#181818;stroke-width:1.0;"/><polygon fill="none" points="149.41,43.02,142.216,43.5164,139.9073,50.348,147.1013,49.8515,149.41,43.02" style="stroke:#181818;stroke-width:1.0;"/></g><!--MD5=[7b553e166dab221e0d7961ead9476de2]
reverse link hs1 to e1--><g id="link_hs1_e1"><path codeLine="12" d="M171.5,56.39 C171.5,71.78 171.5,89.91 171.5,102.87 " fill="none" id="hs1-backto-e1" style="stroke:#181818;stroke-width:1.0;"/><polygon fill="none" points="171.5,43.24,167.5,49.24,171.5,55.24,175.5,49.24,171.5,43.24" style="stroke:#181818;stroke-width:1.0;"/></g><!--MD5=[efa9b71d66255ff164a401775df77538]
reverse link hs2 to o1--><g id="link_hs2_o1"><path codeLine="13" d="M408.11,50.64 C384.55,67.04 354.2,88.18 333.22,102.79 " fill="none" id="hs2-backto-o1" style="stroke:#181818;stroke-width:1.0;"/><polygon fill="none" points="419.05,43.02,411.8404,43.165,409.2013,49.8759,416.4109,49.7308,419.05,43.02" style="stroke:#181818;stroke-width:1.0;"/></g><!--MD5=[56412f4bf2ca764b2a468698095b441d]
reverse link hs2 to l2--><g id="link_hs2_l2"><path codeLine="14" d="M443.5,56.39 C443.5,71.78 443.5,89.91 443.5,102.87 " fill="none" id="hs2-backto-l2" style="stroke:#181818;stroke-width:1.0;"/><polygon fill="none" points="443.5,43.24,439.5,49.24,443.5,55.24,447.5,49.24,443.5,43.24" style="stroke:#181818;stroke-width:1.0;"/></g><!--MD5=[fe36076cd34b4d6169ce9a607d4f54a7]
reverse link hs2 to e2--><g id="link_hs2_e2"><path codeLine="15" d="M476.07,51.09 C497.27,67.43 524.37,88.31 543.16,102.79 " fill="none" id="hs2-backto-e2" style="stroke:#181818;stroke-width:1.0;"/><polygon fill="none" points="465.59,43.02,467.8987,49.8515,475.0927,50.348,472.784,43.5164,465.59,43.02" style="stroke:#181818;stroke-width:1.0;"/></g><!--MD5=[d02e57b43e9379046b89ac253f0dab0a]
@startuml ObjectDiagram.HealthcareService
skinparam monochrome true
object "HealthcareService 1" as hs1
object "HealthcareService 2" as hs2
object "Organization 1" as o1
object "Location 1" as l1
object "Location 2" as l2
object "Endpoint 1" as e1
object "Endpoint 2" as e2

hs1 o- - o1
hs1 o- - l1
hs1 o- - e1
hs2 o- - o1
hs2 o- - l2
hs2 o- - e2

@enduml

PlantUML version 1.2022.5(Sat Apr 30 10:55:52 UTC 2022)
(GPL source distribution)
Java Runtime: OpenJDK Runtime Environment
JVM: OpenJDK 64-Bit Server VM
Default Encoding: UTF-8
Language: en
Country: null
--></g></svg>