<svg xmlns="http://www.w3.org/2000/svg" xmlns:xlink="http://www.w3.org/1999/xlink" contentStyleType="text/css" height="145px" preserveAspectRatio="none" style="width:615px;height:145px;background:#FFFFFF;" version="1.1" viewBox="0 0 615 145" width="615px" zoomAndPan="magnify"><defs/><g><g id="elem_hs1"><rect fill="#F1F1F1" height="36.2969" style="stroke:#181818;stroke-width:0.5;" width="151" x="96" y="7"/><text fill="#000000" font-family="sans-serif" font-size="14" lengthAdjust="spacing" textLength="137" x="103" y="21.9951">HealthcareService 1</text><line style="stroke:#181818;stroke-width:0.5;" x1="97" x2="246" y1="27.2969" y2="27.2969"/></g><g id="elem_hs2"><rect fill="#F1F1F1" height="36.2969" style="stroke:#181818;stroke-width:0.5;" width="151" x="367" y="7"/><text fill="#000000" font-family="sans-serif" font-size="14" lengthAdjust="spacing" textLength="137" x="374" y="21.9951">HealthcareService 2</text><line style="stroke:#181818;stroke-width:0.5;" x1="368" x2="517" y1="27.2969" y2="27.2969"/></g><g id="elem_o1"><rect fill="#F1F1F1" height="36.2969" style="stroke:#181818;stroke-width:0.5;" width="114" x="250.5" y="103.29"/><text fill="#000000" font-family="sans-serif" font-size="14" lengthAdjust="spacing" textLength="100" x="257.5" y="118.2851">Organization 1</text><line style="stroke:#181818;stroke-width:0.5;" x1="251.5" x2="363.5" y1="123.5869" y2="123.5869"/></g><g id="elem_l1"><rect fill="#F1F1F1" height="36.2969" style="stroke:#181818;stroke-width:0.5;" width="85" x="7" y="103.29"/><text fill="#000000" font-family="sans-serif" font-size="14" lengthAdjust="spacing" textLength="71" x="14" y="118.2851">Location 1</text><line style="stroke:#181818;stroke-width:0.5;" x1="8" x2="91" y1="123.5869" y2="123.5869"/></g><g id="elem_l2"><rect fill="#F1F1F1" height="36.2969" style="stroke:#181818;stroke-width:0.5;" width="85" x="400" y="103.29"/><text fill="#000000" font-family="sans-serif" font-size="14" lengthAdjust="spacing" textLength="71" x="407" y="118.2851">Location 2</text><line style="stroke:#181818;stroke-width:0.5;" x1="401" x2="484" y1="123.5869" y2="123.5869"/></g><g id="elem_e1"><rect fill="#F1F1F1" height="36.2969" style="stroke:#181818;stroke-width:0.5;" width="89" x="127" y="103.29"/><text fill="#000000" font-family="sans-serif" font-size="14" lengthAdjust="spacing" textLength="75" x="134" y="118.2851">Endpoint 1</text><line style="stroke:#181818;stroke-width:0.5;" x1="128" x2="215" y1="123.5869" y2="123.5869"/></g><g id="elem_e2"><rect fill="#F1F1F1" height="36.2969" style="stroke:#181818;stroke-width:0.5;" width="89" x="520" y="103.29"/><text fill="#000000" font-family="sans-serif" font-size="14" lengthAdjust="spacing" textLength="75" x="527" y="118.2851">Endpoint 2</text><line style="stroke:#181818;stroke-width:0.5;" x1="521" x2="608" y1="123.5869" y2="123.5869"/></g><!--reverse link hs1 to o1--><g id="link_hs1_o1"><path codeLine="10" d="M206.6212,50.4979 C231.0512,67.4379 257.99,86.11 282.37,103.02 " fill="none" id="hs1-backto-o1" style="stroke:#181818;stroke-width:1.0;"/><polygon fill="none" points="196.76,43.66,199.4113,50.366,206.6212,50.4979,203.9699,43.7919,196.76,43.66" style="stroke:#181818;stroke-width:1.0;"/></g><!--reverse link hs1 to l1--><g id="link_hs1_l1"><path codeLine="11" d="M139.3466,51 C117.4366,67.94 93.91,86.11 72.04,103.02 " fill="none" id="hs1-backto-l1" style="stroke:#181818;stroke-width:1.0;"/><polygon fill="none" points="148.84,43.66,141.6466,44.1655,139.3466,51,146.5399,50.4945,148.84,43.66" style="stroke:#181818;stroke-width:1.0;"/></g><!--reverse link hs1 to e1--><g id="link_hs1_e1"><path codeLine="12" d="M171.5,55.44 C171.5,72.35 171.5,85.96 171.5,102.94 " fill="none" id="hs1-backto-e1" style="stroke:#181818;stroke-width:1.0;"/><polygon fill="none" points="171.5,43.44,167.5,49.44,171.5,55.44,175.5,49.44,171.5,43.44" style="stroke:#181818;stroke-width:1.0;"/></g><!--reverse link hs2 to o1--><g id="link_hs2_o1"><path codeLine="13" d="M407.5839,50.5339 C383.3439,67.4739 356.64,86.11 332.44,103.02 " fill="none" id="hs2-backto-o1" style="stroke:#181818;stroke-width:1.0;"/><polygon fill="none" points="417.42,43.66,410.2106,43.8183,407.5839,50.5339,414.7932,50.3757,417.42,43.66" style="stroke:#181818;stroke-width:1.0;"/></g><!--reverse link hs2 to l2--><g id="link_hs2_l2"><path codeLine="14" d="M442.5,55.44 C442.5,72.35 442.5,85.96 442.5,102.94 " fill="none" id="hs2-backto-l2" style="stroke:#181818;stroke-width:1.0;"/><polygon fill="none" points="442.5,43.44,438.5,49.44,442.5,55.44,446.5,49.44,442.5,43.44" style="stroke:#181818;stroke-width:1.0;"/></g><!--reverse link hs2 to e2--><g id="link_hs2_e2"><path codeLine="15" d="M474.6534,51 C496.5634,67.94 520.09,86.11 541.96,103.02 " fill="none" id="hs2-backto-e2" style="stroke:#181818;stroke-width:1.0;"/><polygon fill="none" points="465.16,43.66,467.4601,50.4945,474.6534,51,472.3534,44.1655,465.16,43.66" style="stroke:#181818;stroke-width:1.0;"/></g><!--SRC=[VOun3i8m34NtdiBgtY6v0n834WCdCC4YWSIkai3GqvCgAK42iJtf___iT7SyOyG0GLYCZH88SdpG8ESRcGpZdj1dQp3IYUBJ6G8r0YQmIVtfwDRHxyunNf7TWja9DuLqmq7CP-9_95Nfkt77braSvxOXzPtK3UbXAE-2JDDwSqFVaLRKlL2ntDgmA5u0]--></g></svg>