<svg xmlns="http://www.w3.org/2000/svg" xmlns:xlink="http://www.w3.org/1999/xlink" version="1.1" data-diagram-type="SEQUENCE" style="width:1780px;height:1603px;background:#FFFFFF;" width="1780px" height="1603px" viewBox="0 0 1780 1603" zoomAndPan="magnify" preserveAspectRatio="none" contentStyleType="text/css"><?plantuml 1.2026.8?><defs/><g font-family="sans-serif" lengthAdjust="spacing"><g class="title" data-source-line="2"><text x="709.59" y="27.995" fill="#000" font-size="14" textLength="359.68" font-weight="700">FHIR-VZD Authentisierung mit GesundheitsID</text></g><rect x="625.938" y="48.297" width="756.115" height="1540.375" fill="#F5F5F5" style="stroke:#181818;stroke-width:0.5;"/><text x="929.789" y="60.364" fill="#000" font-size="13" textLength="143.889" font-weight="700">VZD-FHIR-Directory</text><rect x="23.454" y="213.258" width="1737.406" height="774.188" fill="none" style="stroke:#000;stroke-width:1.5;"/><rect x="665.741" y="244.391" width="1050.119" height="143.664" fill="none" style="stroke:#000;stroke-width:1.5;"/><rect x="660.741" y="435.188" width="1055.119" height="143.664" fill="none" style="stroke:#000;stroke-width:1.5;"/><rect x="42.454" y="655.117" width="1693.406" height="188.797" fill="none" style="stroke:#000;stroke-width:1.5;"/><rect x="61.454" y="715.383" width="1649.406" height="85.398" fill="none" style="stroke:#000;stroke-width:1.5;"/><rect x="66.454" y="1164.109" width="1274.439" height="177.602" fill="none" style="stroke:#000;stroke-width:1.5;"/><g><title>Client Versicherter</title><rect x="78.954" y="98.727" width="8" height="1452.648" fill="#000" fill-opacity="0"/><line x1="82.454" y1="98.727" x2="82.454" y2="1551.375" style="stroke:#181818;stroke-width:0.5;stroke-dasharray:5,5;"/></g><g><title></title><rect x="77.454" y="763.648" width="10" height="29.133" fill="#FFF" style="stroke:#181818;stroke-width:1;"/></g><g><title></title><rect x="77.454" y="835.914" width="10" height="43.133" fill="#FFF" style="stroke:#181818;stroke-width:1;"/></g><g><title>Auth-Service</title><rect x="678.241" y="98.727" width="8" height="1452.648" fill="#000" fill-opacity="0"/><line x1="681.741" y1="98.727" x2="681.741" y2="1551.375" style="stroke:#181818;stroke-width:0.5;stroke-dasharray:5,5;"/></g><g><title></title><rect x="676.741" y="201.258" width="10" height="821.32" fill="#FFF" style="stroke:#181818;stroke-width:1;"/></g><g><title></title><rect x="676.741" y="1419.977" width="10" height="113.398" fill="#FFF" style="stroke:#181818;stroke-width:1;"/></g><g><title></title><rect x="681.741" y="483.453" width="10" height="29.133" fill="#FFF" style="stroke:#181818;stroke-width:1;"/></g><g><title></title><rect x="681.741" y="613.984" width="10" height="29.133" fill="#FFF" style="stroke:#181818;stroke-width:1;"/></g><g><title></title><rect x="681.741" y="879.047" width="10" height="143.531" fill="#FFF" style="stroke:#181818;stroke-width:1;"/></g><g><title>FHIR-Proxy</title><rect x="1073.815" y="98.727" width="8" height="1452.648" fill="#000" fill-opacity="0"/><line x1="1077.315" y1="98.727" x2="1077.315" y2="1551.375" style="stroke:#181818;stroke-width:0.5;stroke-dasharray:5,5;"/></g><g><title></title><rect x="1072.315" y="1109.977" width="10" height="223.734" fill="#FFF" style="stroke:#181818;stroke-width:1;"/></g><g><title>FHIR-Directory</title><rect x="1316.393" y="98.727" width="8" height="1452.648" fill="#000" fill-opacity="0"/><line x1="1319.893" y1="98.727" x2="1319.893" y2="1551.375" style="stroke:#181818;stroke-width:0.5;stroke-dasharray:5,5;"/></g><g><title></title><rect x="1314.893" y="1212.375" width="10" height="44.266" fill="#FFF" style="stroke:#181818;stroke-width:1;"/></g><g><title>sektoraler IDP</title><rect x="1450.786" y="98.727" width="8" height="1452.648" fill="#000" fill-opacity="0"/><line x1="1454.286" y1="98.727" x2="1454.286" y2="1551.375" style="stroke:#181818;stroke-width:0.5;stroke-dasharray:5,5;"/></g><g><title></title><rect x="1449.286" y="292.656" width="10" height="29.133" fill="#FFF" style="stroke:#181818;stroke-width:1;"/></g><g><title></title><rect x="1449.286" y="423.188" width="10" height="190.797" fill="#FFF" style="stroke:#181818;stroke-width:1;"/></g><g><title></title><rect x="1449.286" y="703.383" width="10" height="132.531" fill="#FFF" style="stroke:#181818;stroke-width:1;"/></g><g><title></title><rect x="1449.286" y="908.18" width="10" height="29.133" fill="#FFF" style="stroke:#181818;stroke-width:1;"/></g><g><title>Federation Master</title><rect x="1691.36" y="98.727" width="8" height="1452.648" fill="#000" fill-opacity="0"/><line x1="1694.86" y1="98.727" x2="1694.86" y2="1551.375" style="stroke:#181818;stroke-width:0.5;stroke-dasharray:5,5;"/></g><g><title></title><rect x="1689.86" y="127.859" width="10" height="29.133" fill="#FFF" style="stroke:#181818;stroke-width:1;"/></g><g><title></title><rect x="1689.86" y="350.922" width="10" height="29.133" fill="#FFF" style="stroke:#181818;stroke-width:1;"/></g><g><title></title><rect x="1689.86" y="541.719" width="10" height="29.133" fill="#FFF" style="stroke:#181818;stroke-width:1;"/></g><rect x="10" y="67.43" width="144.908" height="30.297" fill="#E2E2F0" style="stroke:#181818;stroke-width:0.5;" rx="2.5" ry="2.5"/><text x="17" y="87.425" fill="#000" font-size="14" textLength="130.908">Client Versicherter</text><rect x="629.938" y="67.43" width="103.605" height="30.297" fill="#E2E2F0" style="stroke:#181818;stroke-width:0.5;" rx="2.5" ry="2.5"/><text x="636.938" y="87.425" fill="#000" font-size="14" textLength="89.605">Auth-Service</text><rect x="1031.904" y="67.43" width="90.822" height="30.297" fill="#E2E2F0" style="stroke:#181818;stroke-width:0.5;" rx="2.5" ry="2.5"/><text x="1038.904" y="87.425" fill="#000" font-size="14" textLength="76.822">FHIR-Proxy</text><rect x="1261.733" y="67.43" width="116.32" height="30.297" fill="#E2E2F0" style="stroke:#181818;stroke-width:0.5;" rx="2.5" ry="2.5"/><text x="1268.733" y="87.425" fill="#000" font-size="14" textLength="102.32">FHIR-Directory</text><rect x="1398.053" y="67.43" width="112.465" height="30.297" fill="#E2E2F0" style="stroke:#181818;stroke-width:0.5;" rx="2.5" ry="2.5"/><text x="1405.053" y="87.425" fill="#000" font-size="14" textLength="98.465">sektoraler IDP</text><rect x="1624.071" y="67.43" width="141.579" height="30.297" fill="#E2E2F0" style="stroke:#181818;stroke-width:0.5;" rx="2.5" ry="2.5"/><text x="1631.071" y="87.425" fill="#000" font-size="14" textLength="127.579">Federation Master</text><rect x="10" y="1551.375" width="144.908" height="30.297" fill="#E2E2F0" style="stroke:#181818;stroke-width:0.5;" rx="2.5" ry="2.5"/><text x="17" y="1571.37" fill="#000" font-size="14" textLength="130.908">Client Versicherter</text><rect x="629.938" y="1551.375" width="103.605" height="30.297" fill="#E2E2F0" style="stroke:#181818;stroke-width:0.5;" rx="2.5" ry="2.5"/><text x="636.938" y="1571.37" fill="#000" font-size="14" textLength="89.605">Auth-Service</text><rect x="1031.904" y="1551.375" width="90.822" height="30.297" fill="#E2E2F0" style="stroke:#181818;stroke-width:0.5;" rx="2.5" ry="2.5"/><text x="1038.904" y="1571.37" fill="#000" font-size="14" textLength="76.822">FHIR-Proxy</text><rect x="1261.733" y="1551.375" width="116.32" height="30.297" fill="#E2E2F0" style="stroke:#181818;stroke-width:0.5;" rx="2.5" ry="2.5"/><text x="1268.733" y="1571.37" fill="#000" font-size="14" textLength="102.32">FHIR-Directory</text><rect x="1398.053" y="1551.375" width="112.465" height="30.297" fill="#E2E2F0" style="stroke:#181818;stroke-width:0.5;" rx="2.5" ry="2.5"/><text x="1405.053" y="1571.37" fill="#000" font-size="14" textLength="98.465">sektoraler IDP</text><rect x="1624.071" y="1551.375" width="141.579" height="30.297" fill="#E2E2F0" style="stroke:#181818;stroke-width:0.5;" rx="2.5" ry="2.5"/><text x="1631.071" y="1571.37" fill="#000" font-size="14" textLength="127.579">Federation Master</text><polygon points="1677.86,123.859,1687.86,127.859,1677.86,131.859,1681.86,127.859" fill="#181818" style="stroke:#181818;stroke-width:1;stroke-linejoin:miter;stroke-miterlimit:10;"/><line x1="681.741" y1="127.859" x2="1683.86" y2="127.859" style="stroke:#181818;stroke-width:1;"/><text x="688.741" y="122.793" fill="#000" font-size="13" textLength="29.974" font-weight="700">[01]</text><text x="722.715" y="122.793" fill="#000" font-size="13" textLength="127.708">getEntityStatement</text><polygon points="692.741,152.992,682.741,156.992,692.741,160.992,688.741,156.992" fill="#181818" style="stroke:#181818;stroke-width:1;stroke-linejoin:miter;stroke-miterlimit:10;"/><line x1="686.741" y1="156.992" x2="1688.86" y2="156.992" style="stroke:#181818;stroke-width:1;stroke-dasharray:2,2;"/><text x="698.741" y="151.926" fill="#000" font-size="13" textLength="29.974" font-weight="700">[02]</text><text x="732.715" y="151.926" fill="#000" font-size="13" textLength="234.99">Response EntityStatement sekt. IDP</text><polygon points="664.741,197.258,674.741,201.258,664.741,205.258,668.741,201.258" fill="#181818" style="stroke:#181818;stroke-width:1;stroke-linejoin:miter;stroke-miterlimit:10;"/><line x1="82.454" y1="201.258" x2="670.741" y2="201.258" style="stroke:#181818;stroke-width:1;"/><text x="89.454" y="188.625" fill="#000" font-size="13" textLength="29.974" font-weight="700">[03]</text><text x="123.428" y="181.059" fill="#000" font-size="13" textLength="174.288">AUTHORIZATION REQUEST</text><text x="127.56" y="196.192" fill="#000" font-size="13" textLength="153.537">iss= URL sektoraler IDP</text><path d="M23.454,213.258 L92.943,213.258 L92.943,220.391 L82.943,230.391 L23.454,230.391 L23.454,213.258" style="stroke:#000;stroke-width:1.5;" fill="#EEE"/><rect x="23.454" y="213.258" width="1737.406" height="774.188" fill="none" style="stroke:#000;stroke-width:1.5;"/><text x="38.454" y="226.325" fill="#000" font-size="13" textLength="24.489" font-weight="700">par</text><text x="107.943" y="225.468" fill="#000" font-size="11" textLength="100.719" font-weight="700">[GesundheitsID]</text><path d="M665.741,244.391 L730.184,244.391 L730.184,251.523 L720.184,261.523 L665.741,261.523 L665.741,244.391" style="stroke:#000;stroke-width:1.5;" fill="#EEE"/><rect x="665.741" y="244.391" width="1050.119" height="143.664" fill="none" style="stroke:#000;stroke-width:1.5;"/><text x="680.741" y="257.458" fill="#000" font-size="13" textLength="19.443" font-weight="700">alt</text><text x="745.184" y="256.601" fill="#000" font-size="11" textLength="61.096" font-weight="700">[optional]</text><polygon points="1437.286,288.656,1447.286,292.656,1437.286,296.656,1441.286,292.656" fill="#181818" style="stroke:#181818;stroke-width:1;stroke-linejoin:miter;stroke-miterlimit:10;"/><line x1="686.741" y1="292.656" x2="1443.286" y2="292.656" style="stroke:#181818;stroke-width:1;"/><text x="693.741" y="287.59" fill="#000" font-size="13" textLength="29.974" font-weight="700">[04]</text><text x="727.715" y="287.59" fill="#000" font-size="13" textLength="163.668">getEntityStatement (IDP)</text><polygon points="697.741,317.789,687.741,321.789,697.741,325.789,693.741,321.789" fill="#181818" style="stroke:#181818;stroke-width:1;stroke-linejoin:miter;stroke-miterlimit:10;"/><line x1="691.741" y1="321.789" x2="1448.286" y2="321.789" style="stroke:#181818;stroke-width:1;stroke-dasharray:2,2;"/><text x="703.741" y="316.723" fill="#000" font-size="13" textLength="29.974" font-weight="700">[05]</text><text x="737.715" y="316.723" fill="#000" font-size="13" textLength="106.361">EntityStatement</text><polygon points="1677.86,346.922,1687.86,350.922,1677.86,354.922,1681.86,350.922" fill="#181818" style="stroke:#181818;stroke-width:1;stroke-linejoin:miter;stroke-miterlimit:10;"/><line x1="686.741" y1="350.922" x2="1683.86" y2="350.922" style="stroke:#181818;stroke-width:1;"/><text x="693.741" y="345.856" fill="#000" font-size="13" textLength="29.974" font-weight="700">[06]</text><text x="727.715" y="345.856" fill="#000" font-size="13" textLength="182.413">Fetch EntityStatement (IDP)</text><polygon points="697.741,376.055,687.741,380.055,697.741,384.055,693.741,380.055" fill="#181818" style="stroke:#181818;stroke-width:1;stroke-linejoin:miter;stroke-miterlimit:10;"/><line x1="691.741" y1="380.055" x2="1688.86" y2="380.055" style="stroke:#181818;stroke-width:1;stroke-dasharray:2,2;"/><text x="703.741" y="374.989" fill="#000" font-size="13" textLength="29.974" font-weight="700">[07]</text><text x="737.715" y="374.989" fill="#000" font-size="13" textLength="106.361">EntityStatement</text><polygon points="1437.286,419.188,1447.286,423.188,1437.286,427.188,1441.286,423.188" fill="#181818" style="stroke:#181818;stroke-width:1;stroke-linejoin:miter;stroke-miterlimit:10;"/><line x1="686.741" y1="423.188" x2="1443.286" y2="423.188" style="stroke:#181818;stroke-width:1;"/><text x="693.741" y="418.122" fill="#000" font-size="13" textLength="29.974" font-weight="700">[08]</text><text x="727.715" y="418.122" fill="#000" font-size="13" textLength="214.329">AUTHORIZATION REQUEST (PAR)</text><path d="M660.741,435.188 L725.184,435.188 L725.184,442.32 L715.184,452.32 L660.741,452.32 L660.741,435.188" style="stroke:#000;stroke-width:1.5;" fill="#EEE"/><rect x="660.741" y="435.188" width="1055.119" height="143.664" fill="none" style="stroke:#000;stroke-width:1.5;"/><text x="675.741" y="448.254" fill="#000" font-size="13" textLength="19.443" font-weight="700">alt</text><text x="740.184" y="447.398" fill="#000" font-size="11" textLength="61.096" font-weight="700">[optional]</text><polygon points="702.741,479.453,692.741,483.453,702.741,487.453,698.741,483.453" fill="#181818" style="stroke:#181818;stroke-width:1;stroke-linejoin:miter;stroke-miterlimit:10;"/><line x1="696.741" y1="483.453" x2="1448.286" y2="483.453" style="stroke:#181818;stroke-width:1;"/><text x="708.741" y="478.387" fill="#000" font-size="13" textLength="29.974" font-weight="700">[09]</text><text x="742.715" y="478.387" fill="#000" font-size="13" textLength="158.856">getEntityStatement (RP)</text><polygon points="1437.286,508.586,1447.286,512.586,1437.286,516.586,1441.286,512.586" fill="#181818" style="stroke:#181818;stroke-width:1;stroke-linejoin:miter;stroke-miterlimit:10;"/><line x1="691.741" y1="512.586" x2="1443.286" y2="512.586" style="stroke:#181818;stroke-width:1;stroke-dasharray:2,2;"/><text x="698.741" y="507.52" fill="#000" font-size="13" textLength="29.974" font-weight="700">[10]</text><text x="732.715" y="507.52" fill="#000" font-size="13" textLength="106.361">EntityStatement</text><polygon points="1677.86,537.719,1687.86,541.719,1677.86,545.719,1681.86,541.719" fill="#181818" style="stroke:#181818;stroke-width:1;stroke-linejoin:miter;stroke-miterlimit:10;"/><line x1="1459.286" y1="541.719" x2="1683.86" y2="541.719" style="stroke:#181818;stroke-width:1;"/><text x="1466.286" y="536.653" fill="#000" font-size="13" textLength="29.974" font-weight="700">[11]</text><text x="1500.259" y="536.653" fill="#000" font-size="13" textLength="177.601">Fetch EntityStatement (RP)</text><polygon points="1470.286,566.852,1460.286,570.852,1470.286,574.852,1466.286,570.852" fill="#181818" style="stroke:#181818;stroke-width:1;stroke-linejoin:miter;stroke-miterlimit:10;"/><line x1="1464.286" y1="570.852" x2="1688.86" y2="570.852" style="stroke:#181818;stroke-width:1;stroke-dasharray:2,2;"/><text x="1476.286" y="565.786" fill="#000" font-size="13" textLength="29.974" font-weight="700">[12]</text><text x="1510.259" y="565.786" fill="#000" font-size="13" textLength="106.361">EntityStatement</text><polygon points="702.741,609.984,692.741,613.984,702.741,617.984,698.741,613.984" fill="#181818" style="stroke:#181818;stroke-width:1;stroke-linejoin:miter;stroke-miterlimit:10;"/><line x1="696.741" y1="613.984" x2="1448.286" y2="613.984" style="stroke:#181818;stroke-width:1;stroke-dasharray:2,2;"/><text x="708.741" y="608.918" fill="#000" font-size="13" textLength="29.974" font-weight="700">[13]</text><text x="742.715" y="608.918" fill="#000" font-size="13" textLength="52.838">URI-PAR</text><polygon points="93.454,639.117,83.454,643.117,93.454,647.117,89.454,643.117" fill="#181818" style="stroke:#181818;stroke-width:1;stroke-linejoin:miter;stroke-miterlimit:10;"/><line x1="87.454" y1="643.117" x2="680.741" y2="643.117" style="stroke:#181818;stroke-width:1;stroke-dasharray:2,2;"/><text x="99.454" y="638.051" fill="#000" font-size="13" textLength="29.974" font-weight="700">[14]</text><text x="133.428" y="638.051" fill="#000" font-size="13" textLength="241.401">AUTHORIZATION REQUEST (URI-PAR)</text><path d="M42.454,655.117 L106.897,655.117 L106.897,662.25 L96.897,672.25 L42.454,672.25 L42.454,655.117" style="stroke:#000;stroke-width:1.5;" fill="#EEE"/><rect x="42.454" y="655.117" width="1693.406" height="188.797" fill="none" style="stroke:#000;stroke-width:1.5;"/><text x="57.454" y="668.184" fill="#000" font-size="13" textLength="19.443" font-weight="700">alt</text><text x="121.897" y="667.328" fill="#000" font-size="11" textLength="184.975" font-weight="700">[Implementierungsspezifisch]</text><polygon points="1437.286,699.383,1447.286,703.383,1437.286,707.383,1441.286,703.383" fill="#181818" style="stroke:#181818;stroke-width:1;stroke-linejoin:miter;stroke-miterlimit:10;"/><line x1="82.454" y1="703.383" x2="1443.286" y2="703.383" style="stroke:#181818;stroke-width:1;"/><text x="89.454" y="698.317" fill="#000" font-size="13" textLength="29.974" font-weight="700">[15]</text><text x="123.428" y="698.317" fill="#000" font-size="13" textLength="241.401">AUTHORIZATION REQUEST (URI-PAR)</text><path d="M61.454,715.383 L125.897,715.383 L125.897,722.516 L115.897,732.516 L61.454,732.516 L61.454,715.383" style="stroke:#000;stroke-width:1.5;" fill="#EEE"/><rect x="61.454" y="715.383" width="1649.406" height="85.398" fill="none" style="stroke:#000;stroke-width:1.5;"/><text x="76.454" y="728.45" fill="#000" font-size="13" textLength="19.443" font-weight="700">alt</text><text x="140.897" y="727.593" fill="#000" font-size="11" textLength="61.096" font-weight="700">[optional]</text><polygon points="98.454,759.648,88.454,763.648,98.454,767.648,94.454,763.648" fill="#181818" style="stroke:#181818;stroke-width:1;stroke-linejoin:miter;stroke-miterlimit:10;"/><line x1="92.454" y1="763.648" x2="1448.286" y2="763.648" style="stroke:#181818;stroke-width:1;stroke-dasharray:2,2;"/><text x="104.454" y="758.583" fill="#000" font-size="13" textLength="29.974" font-weight="700">[16]</text><text x="138.428" y="758.583" fill="#000" font-size="13" textLength="127.499">Login, user consent</text><polygon points="1437.286,788.781,1447.286,792.781,1437.286,796.781,1441.286,792.781" fill="#181818" style="stroke:#181818;stroke-width:1;stroke-linejoin:miter;stroke-miterlimit:10;"/><line x1="87.454" y1="792.781" x2="1443.286" y2="792.781" style="stroke:#181818;stroke-width:1;"/><text x="94.454" y="787.715" fill="#000" font-size="13" textLength="29.974" font-weight="700">[17]</text><text x="128.428" y="787.715" fill="#000" font-size="13" textLength="133.682">credentials, Consent</text><polygon points="98.454,831.914,88.454,835.914,98.454,839.914,94.454,835.914" fill="#181818" style="stroke:#181818;stroke-width:1;stroke-linejoin:miter;stroke-miterlimit:10;"/><line x1="92.454" y1="835.914" x2="1448.286" y2="835.914" style="stroke:#181818;stroke-width:1;stroke-dasharray:2,2;"/><text x="104.454" y="830.848" fill="#000" font-size="13" textLength="29.974" font-weight="700">[18]</text><text x="138.428" y="830.848" fill="#000" font-size="13" textLength="244.937">Redirect to redirect URL, AUTH_CODE</text><polygon points="669.741,875.047,679.741,879.047,669.741,883.047,673.741,879.047" fill="#181818" style="stroke:#181818;stroke-width:1;stroke-linejoin:miter;stroke-miterlimit:10;"/><line x1="87.454" y1="879.047" x2="675.741" y2="879.047" style="stroke:#181818;stroke-width:1;"/><text x="94.454" y="873.981" fill="#000" font-size="13" textLength="29.974" font-weight="700">[19]</text><text x="128.428" y="873.981" fill="#000" font-size="13" textLength="80.158">AUTH_CODE</text><polygon points="1437.286,904.18,1447.286,908.18,1437.286,912.18,1441.286,908.18" fill="#181818" style="stroke:#181818;stroke-width:1;stroke-linejoin:miter;stroke-miterlimit:10;"/><line x1="691.741" y1="908.18" x2="1443.286" y2="908.18" style="stroke:#181818;stroke-width:1;"/><text x="698.741" y="903.114" fill="#000" font-size="13" textLength="29.974" font-weight="700">[20]</text><text x="732.715" y="903.114" fill="#000" font-size="13" textLength="80.158">AUTH_CODE</text><polygon points="702.741,933.313,692.741,937.313,702.741,941.313,698.741,937.313" fill="#181818" style="stroke:#181818;stroke-width:1;stroke-linejoin:miter;stroke-miterlimit:10;"/><line x1="696.741" y1="937.313" x2="1448.286" y2="937.313" style="stroke:#181818;stroke-width:1;stroke-dasharray:2,2;"/><text x="708.741" y="932.247" fill="#000" font-size="13" textLength="29.974" font-weight="700">[21]</text><text x="742.715" y="932.247" fill="#000" font-size="13" textLength="186.291">ID_TOKEN, (ACCESS_TOKEN)</text><line x1="691.741" y1="966.445" x2="733.741" y2="966.445" style="stroke:#181818;stroke-width:1;"/><line x1="733.741" y1="966.445" x2="733.741" y2="979.445" style="stroke:#181818;stroke-width:1;"/><line x1="692.741" y1="979.445" x2="733.741" y2="979.445" style="stroke:#181818;stroke-width:1;"/><polygon points="702.741,975.445,692.741,979.445,702.741,983.445,698.741,979.445" fill="#181818" style="stroke:#181818;stroke-width:1;stroke-linejoin:miter;stroke-miterlimit:10;"/><text x="698.741" y="961.379" fill="#000" font-size="13" textLength="29.974" font-weight="700">[22]</text><text x="732.715" y="961.379" fill="#000" font-size="13" textLength="337.6">Erzeuge search-ACCESS_TOKEN &amp; REFRESH_TOKEN</text><polygon points="93.454,1018.578,83.454,1022.578,93.454,1026.578,89.454,1022.578" fill="#181818" style="stroke:#181818;stroke-width:1;stroke-linejoin:miter;stroke-miterlimit:10;"/><line x1="87.454" y1="1022.578" x2="680.741" y2="1022.578" style="stroke:#181818;stroke-width:1;stroke-dasharray:2,2;"/><text x="99.454" y="1017.512" fill="#000" font-size="13" textLength="29.974" font-weight="700">[23]</text><text x="133.428" y="1017.512" fill="#000" font-size="13" textLength="536.313">Response AUTHORIZATION REQUEST (search-ACCESS_TOKEN &amp; REFRESH_TOKEN)</text><rect x="10" y="1051.145" width="1759.86" height="3" fill="#EEE" style="stroke:#EEE;stroke-width:1;"/><line x1="10" y1="1051.145" x2="1769.86" y2="1051.145" style="stroke:#000;stroke-width:1;"/><line x1="10" y1="1054.145" x2="1769.86" y2="1054.145" style="stroke:#000;stroke-width:1;"/><rect x="811.817" y="1040.578" width="156.226" height="23.133" fill="#EEE" style="stroke:#000;stroke-width:2;"/><text x="817.817" y="1056.645" fill="#000" font-size="13" textLength="137.7" font-weight="700">...fachlicher flow...</text><polygon points="1060.315,1105.977,1070.315,1109.977,1060.315,1113.977,1064.315,1109.977" fill="#181818" style="stroke:#181818;stroke-width:1;stroke-linejoin:miter;stroke-miterlimit:10;"/><line x1="82.454" y1="1109.977" x2="1066.315" y2="1109.977" style="stroke:#181818;stroke-width:1;"/><text x="89.454" y="1097.344" fill="#000" font-size="13" textLength="29.974" font-weight="700">[24]</text><text x="123.428" y="1089.778" fill="#000" font-size="13" textLength="222.403">GET /psearch?... (Auth Header mit</text><text x="123.428" y="1104.911" fill="#000" font-size="13" textLength="156.133">search-ACCESS_TOKEN)</text><line x1="1082.315" y1="1139.109" x2="1124.315" y2="1139.109" style="stroke:#181818;stroke-width:1;"/><line x1="1124.315" y1="1139.109" x2="1124.315" y2="1152.109" style="stroke:#181818;stroke-width:1;"/><line x1="1083.315" y1="1152.109" x2="1124.315" y2="1152.109" style="stroke:#181818;stroke-width:1;"/><polygon points="1093.315,1148.109,1083.315,1152.109,1093.315,1156.109,1089.315,1152.109" fill="#181818" style="stroke:#181818;stroke-width:1;stroke-linejoin:miter;stroke-miterlimit:10;"/><text x="1089.315" y="1134.043" fill="#000" font-size="13" textLength="29.974" font-weight="700">[25]</text><text x="1123.289" y="1134.043" fill="#000" font-size="13" textLength="189.604">prüfe search-ACCESS_TOKEN</text><path d="M66.454,1164.109 L130.897,1164.109 L130.897,1171.242 L120.897,1181.242 L66.454,1181.242 L66.454,1164.109" style="stroke:#000;stroke-width:1.5;" fill="#EEE"/><rect x="66.454" y="1164.109" width="1274.439" height="177.602" fill="none" style="stroke:#000;stroke-width:1.5;"/><text x="81.454" y="1177.176" fill="#000" font-size="13" textLength="19.443" font-weight="700">alt</text><text x="145.897" y="1176.32" fill="#000" font-size="11" textLength="199.429" font-weight="700">[search-ACCESS_TOKEN is valid]</text><polygon points="1302.893,1208.375,1312.893,1212.375,1302.893,1216.375,1306.893,1212.375" fill="#181818" style="stroke:#181818;stroke-width:1;stroke-linejoin:miter;stroke-miterlimit:10;"/><line x1="1082.315" y1="1212.375" x2="1308.893" y2="1212.375" style="stroke:#181818;stroke-width:1;"/><text x="1089.315" y="1207.309" fill="#000" font-size="13" textLength="29.974" font-weight="700">[26]</text><text x="1123.289" y="1207.309" fill="#000" font-size="13" textLength="54.038">GET /?...</text><polygon points="1093.315,1252.641,1083.315,1256.641,1093.315,1260.641,1089.315,1256.641" fill="#181818" style="stroke:#181818;stroke-width:1;stroke-linejoin:miter;stroke-miterlimit:10;"/><line x1="1087.315" y1="1256.641" x2="1313.893" y2="1256.641" style="stroke:#181818;stroke-width:1;stroke-dasharray:2,2;"/><text x="1099.315" y="1244.008" fill="#000" font-size="13" textLength="29.974" font-weight="700">[27]</text><text x="1133.289" y="1236.442" fill="#000" font-size="13" textLength="85.332">HTTP 200 OK</text><text x="1133.289" y="1251.575" fill="#000" font-size="13" textLength="118.555">(Result Body json)</text><polygon points="93.454,1281.773,83.454,1285.773,93.454,1289.773,89.454,1285.773" fill="#181818" style="stroke:#181818;stroke-width:1;stroke-linejoin:miter;stroke-miterlimit:10;"/><line x1="87.454" y1="1285.773" x2="1071.315" y2="1285.773" style="stroke:#181818;stroke-width:1;stroke-dasharray:2,2;"/><text x="99.454" y="1280.708" fill="#000" font-size="13" textLength="29.974" font-weight="700">[28]</text><text x="133.428" y="1280.708" fill="#000" font-size="13" textLength="208.019">HTTP 200 OK (Result Body json)</text><line x1="66.454" y1="1294.773" x2="1340.893" y2="1294.773" style="stroke:#000;stroke-width:1;stroke-dasharray:2,2;"/><text x="71.454" y="1306.984" fill="#000" font-size="11" textLength="211.03" font-weight="700">[search-ACCESS_TOKEN is invalid]</text><polygon points="93.454,1329.711,83.454,1333.711,93.454,1337.711,89.454,1333.711" fill="#181818" style="stroke:#181818;stroke-width:1;stroke-linejoin:miter;stroke-miterlimit:10;"/><line x1="87.454" y1="1333.711" x2="1071.315" y2="1333.711" style="stroke:#181818;stroke-width:1;stroke-dasharray:2,2;"/><text x="99.454" y="1328.645" fill="#000" font-size="13" textLength="29.974" font-weight="700">[29]</text><text x="133.428" y="1328.645" fill="#000" font-size="13" textLength="62.442">HTTP 401</text><rect x="10" y="1376.277" width="1759.86" height="3" fill="#EEE" style="stroke:#EEE;stroke-width:1;"/><line x1="10" y1="1376.277" x2="1769.86" y2="1376.277" style="stroke:#000;stroke-width:1;"/><line x1="10" y1="1379.277" x2="1769.86" y2="1379.277" style="stroke:#000;stroke-width:1;"/><rect x="738.835" y="1365.711" width="302.19" height="23.133" fill="#EEE" style="stroke:#000;stroke-width:2;"/><text x="744.835" y="1381.778" fill="#000" font-size="13" textLength="283.664" font-weight="700">...search-ACCESS_TOKEN abgelaufen...</text><polygon points="664.741,1415.977,674.741,1419.977,664.741,1423.977,668.741,1419.977" fill="#181818" style="stroke:#181818;stroke-width:1;stroke-linejoin:miter;stroke-miterlimit:10;"/><line x1="82.454" y1="1419.977" x2="670.741" y2="1419.977" style="stroke:#181818;stroke-width:1;"/><text x="89.454" y="1414.911" fill="#000" font-size="13" textLength="29.974" font-weight="700">[30]</text><text x="123.428" y="1414.911" fill="#000" font-size="13" textLength="111.135">REFRESH_TOKEN</text><line x1="686.741" y1="1449.109" x2="728.741" y2="1449.109" style="stroke:#181818;stroke-width:1;"/><line x1="728.741" y1="1449.109" x2="728.741" y2="1462.109" style="stroke:#181818;stroke-width:1;"/><line x1="687.741" y1="1462.109" x2="728.741" y2="1462.109" style="stroke:#181818;stroke-width:1;"/><polygon points="697.741,1458.109,687.741,1462.109,697.741,1466.109,693.741,1462.109" fill="#181818" style="stroke:#181818;stroke-width:1;stroke-linejoin:miter;stroke-miterlimit:10;"/><text x="693.741" y="1444.043" fill="#000" font-size="13" textLength="29.974" font-weight="700">[31]</text><text x="727.715" y="1444.043" fill="#000" font-size="13" textLength="149.265">Prüfe REFRESH_TOKEN</text><line x1="686.741" y1="1491.242" x2="728.741" y2="1491.242" style="stroke:#181818;stroke-width:1;"/><line x1="728.741" y1="1491.242" x2="728.741" y2="1504.242" style="stroke:#181818;stroke-width:1;"/><line x1="687.741" y1="1504.242" x2="728.741" y2="1504.242" style="stroke:#181818;stroke-width:1;"/><polygon points="697.741,1500.242,687.741,1504.242,697.741,1508.242,693.741,1504.242" fill="#181818" style="stroke:#181818;stroke-width:1;stroke-linejoin:miter;stroke-miterlimit:10;"/><text x="693.741" y="1486.176" fill="#000" font-size="13" textLength="29.974" font-weight="700">[32]</text><text x="727.715" y="1486.176" fill="#000" font-size="13" textLength="337.6">Erzeuge search-ACCESS_TOKEN &amp; REFRESH_TOKEN</text><polygon points="93.454,1529.375,83.454,1533.375,93.454,1537.375,89.454,1533.375" fill="#181818" style="stroke:#181818;stroke-width:1;stroke-linejoin:miter;stroke-miterlimit:10;"/><line x1="87.454" y1="1533.375" x2="675.741" y2="1533.375" style="stroke:#181818;stroke-width:1;stroke-dasharray:2,2;"/><text x="99.454" y="1528.309" fill="#000" font-size="13" textLength="29.974" font-weight="700">[33]</text><text x="133.428" y="1528.309" fill="#000" font-size="13" textLength="357.894">Response (search-ACCESS_TOKEN &amp; REFRESH_TOKEN)</text><?plantuml-src hLNRRjf047tVhnYvKWKAfgJg4ofKb4j0IGCrbqffgcYn1zZ6s9PtdOPyMz_wOzsr3RPX8LGglDYxi-VCd3dZfP7mlMWznn0kvT_uE6z-hzL-64GmuI8OlVx0CcTt7MX5OeMUO9nX67bBM3C1LyWZpraX4tpGCGW9Q2YOpGBg2PYrNIRZWN8mqiSPXfpPAmm5XZ9wxZ-3H3PZYWuBqHP-k84ttrPCu7ZjFo81-Sk36YeBSupX4xFHKDYp5qUj7KGkWfWvnXw5_lF6E0nnif0TlK7GSq2cLYY6u-EWCuh3vQECewuKJ2uPK8WpUkXWI0NpFVX2kQfJ7LgWaxmHGjA4pUPkyUAY3aiKNIcks8m55RYMQf7TlcasqqDri907liSHzg9LXgAgCY8EKbkm9xcHvqtRiODIfAtff3-q1dUjoM1u2rRtwxGxdi2z1upp1aoj6oWM6pUus7H2g2l03rJ5rCsAImJJLmObkLKcIKY-k7q5SfKamKV4ww6mLw1dqQfuWYYJJFg0w0hIgrOQjQpodXffXNd9TMfOCiqjpvReP8vRps_npn73sjFY39ezAVRxfSYcri2KXMiwbQiejTvHvLAGigx4MD31Ed3Zx99F3-S1lh05u_OgitNMdrTfj4tQfQaWRlmbyoeGSUbxMusR56QFgGvsA6TTvaHTNe5s6fKl8Jb0pf8quxRGYRz587m8jyzo5YjnNG_jOQUhapjnwv4XFpYrpUs8lPFumm4TT1ucm-lkRGLAhNQxEnudh-LJaveDNVY2qL85qD1UcNa0U2lRrBEwutxoJeh3bxFGxljtfCbdW6jzfhDUem7LQdL1xPKRtrgmSFrVSWKQZPtKO3RbLLE7g-u4tWK9-oSLKr8Oq4SgxmDrLzvxcjJA97D6GEILbQ85uP_V2wrIYNbrLJ8EJzHbpXR6IPDIsUHevBu3PihJdqn6yBvMW-7rlLUIsaOI_BFlRE0dzxs2K8i4M1xSzI9t6ZI7qULuB5FcPRaUG7weNHQOWyGDIJjqW7I-H9T62_JskbCOXAB33lqvIaH_BUoVR7pAmV_Jgty1?></g></svg>