<svg xmlns="http://www.w3.org/2000/svg" xmlns:xlink="http://www.w3.org/1999/xlink" contentStyleType="text/css" height="658.3333px" preserveAspectRatio="none" style="width:1208px;height:658px;background:#FFFFFF;" version="1.1" viewBox="0 0 1208 658" width="1208.3333px" zoomAndPan="magnify"><defs/><g><rect fill="#FFFFFF" height="404.7852" style="stroke:#181818;stroke-width:1.0416666666666667;" width="10.4167" x="296.3542" y="134.0902"/><rect fill="#FFFFFF" height="344.0918" style="stroke:#181818;stroke-width:1.0416666666666667;" width="10.4167" x="493.2292" y="164.4368"/><rect fill="#FFFFFF" height="74.235" style="stroke:#181818;stroke-width:1.0416666666666667;" width="10.4167" x="721.3542" y="194.7835"/><rect fill="#FFFFFF" height="134.9284" style="stroke:#181818;stroke-width:1.0416666666666667;" width="10.4167" x="886.9792" y="343.2536"/><rect fill="#FFFFFF" height="30.3467" style="stroke:#181818;stroke-width:1.0416666666666667;" width="10.4167" x="1139.0625" y="417.4886"/><line style="stroke:#181818;stroke-width:0.5208333333333334;stroke-dasharray:5.0,5.0;" x1="45.8333" x2="45.8333" y1="101.6602" y2="557.6253"/><line style="stroke:#181818;stroke-width:0.5208333333333334;stroke-dasharray:5.0,5.0;" x1="301.5625" x2="301.5625" y1="101.6602" y2="557.6253"/><line style="stroke:#181818;stroke-width:0.5208333333333334;stroke-dasharray:5.0,5.0;" x1="498.4375" x2="498.4375" y1="101.6602" y2="557.6253"/><line style="stroke:#181818;stroke-width:0.5208333333333334;stroke-dasharray:5.0,5.0;" x1="726.0417" x2="726.0417" y1="101.6602" y2="557.6253"/><line style="stroke:#181818;stroke-width:0.5208333333333334;stroke-dasharray:5.0,5.0;" x1="891.6667" x2="891.6667" y1="101.6602" y2="557.6253"/><line style="stroke:#181818;stroke-width:0.5208333333333334;stroke-dasharray:5.0,5.0;" x1="1144.2708" x2="1144.2708" y1="101.6602" y2="557.6253"/><text fill="#000000" font-family="sans-serif" font-size="14.5833" lengthAdjust="spacing" textLength="76.0417" x="5.2083" y="81.2449">Org-Admin</text><text fill="#000000" font-family="sans-serif" font-size="14.5833" lengthAdjust="spacing" textLength="54.1667" x="16.1458" y="98.2208">oder LE</text><ellipse cx="46.3542" cy="14.0625" fill="#E3E3E3" rx="8.3333" ry="8.3333" style="stroke:#181818;stroke-width:0.5208333333333334;"/><path d="M46.3542,22.3958 L46.3542,50.5208 M32.8125,30.7292 L59.8958,30.7292 M46.3542,50.5208 L32.8125,66.1458 M46.3542,50.5208 L59.8958,66.1458 " fill="none" style="stroke:#181818;stroke-width:0.5208333333333334;"/><text fill="#000000" font-family="sans-serif" font-size="14.5833" lengthAdjust="spacing" textLength="76.0417" x="5.2083" y="570.1202">Org-Admin</text><text fill="#000000" font-family="sans-serif" font-size="14.5833" lengthAdjust="spacing" textLength="54.1667" x="16.1458" y="587.0962">oder LE</text><ellipse cx="46.3542" cy="599.3896" fill="#E3E3E3" rx="8.3333" ry="8.3333" style="stroke:#181818;stroke-width:0.5208333333333334;"/><path d="M46.3542,607.723 L46.3542,635.848 M32.8125,616.0563 L59.8958,616.0563 M46.3542,635.848 L32.8125,651.473 M46.3542,635.848 L59.8958,651.473 " fill="none" style="stroke:#181818;stroke-width:0.5208333333333334;"/><rect fill="#E3E3E3" height="48.5352" rx="2.6042" ry="2.6042" style="stroke:#181818;stroke-width:0.5208333333333334;" width="112.5" x="245.3125" y="52.0833"/><text fill="#000000" font-family="sans-serif" font-size="14.5833" lengthAdjust="spacing" textLength="59.375" x="271.875" y="72.9116">Browser</text><text fill="#000000" font-family="sans-serif" font-size="14.5833" lengthAdjust="spacing" textLength="97.9167" x="252.6042" y="89.8875">SSP Frontend</text><rect fill="#E3E3E3" height="48.5352" rx="2.6042" ry="2.6042" style="stroke:#181818;stroke-width:0.5208333333333334;" width="112.5" x="245.3125" y="556.5837"/><text fill="#000000" font-family="sans-serif" font-size="14.5833" lengthAdjust="spacing" textLength="59.375" x="271.875" y="577.4119">Browser</text><text fill="#000000" font-family="sans-serif" font-size="14.5833" lengthAdjust="spacing" textLength="97.9167" x="252.6042" y="594.3878">SSP Frontend</text><rect fill="#E3E3E3" height="31.5592" rx="2.6042" ry="2.6042" style="stroke:#181818;stroke-width:0.5208333333333334;" width="110.4167" x="443.2292" y="69.0592"/><text fill="#000000" font-family="sans-serif" font-size="14.5833" lengthAdjust="spacing" textLength="95.8333" x="450.5208" y="89.8875">SSP Backend</text><rect fill="#E3E3E3" height="31.5592" rx="2.6042" ry="2.6042" style="stroke:#181818;stroke-width:0.5208333333333334;" width="110.4167" x="443.2292" y="556.5837"/><text fill="#000000" font-family="sans-serif" font-size="14.5833" lengthAdjust="spacing" textLength="95.8333" x="450.5208" y="577.4119">SSP Backend</text><rect fill="#E3E3E3" height="31.5592" rx="2.6042" ry="2.6042" style="stroke:#181818;stroke-width:0.5208333333333334;" width="105.2083" x="673.9583" y="69.0592"/><text fill="#000000" font-family="sans-serif" font-size="14.5833" lengthAdjust="spacing" textLength="90.625" x="681.25" y="89.8875">Auth-Service</text><rect fill="#E3E3E3" height="31.5592" rx="2.6042" ry="2.6042" style="stroke:#181818;stroke-width:0.5208333333333334;" width="105.2083" x="673.9583" y="556.5837"/><text fill="#000000" font-family="sans-serif" font-size="14.5833" lengthAdjust="spacing" textLength="90.625" x="681.25" y="577.4119">Auth-Service</text><rect fill="#E3E3E3" height="31.5592" rx="2.6042" ry="2.6042" style="stroke:#181818;stroke-width:0.5208333333333334;" width="90.625" x="846.875" y="69.0592"/><text fill="#000000" font-family="sans-serif" font-size="14.5833" lengthAdjust="spacing" textLength="76.0417" x="854.1667" y="89.8875">FHIR-Proxy</text><rect fill="#E3E3E3" height="31.5592" rx="2.6042" ry="2.6042" style="stroke:#181818;stroke-width:0.5208333333333334;" width="90.625" x="846.875" y="556.5837"/><text fill="#000000" font-family="sans-serif" font-size="14.5833" lengthAdjust="spacing" textLength="76.0417" x="854.1667" y="577.4119">FHIR-Proxy</text><rect fill="#E3E3E3" height="31.5592" rx="2.6042" ry="2.6042" style="stroke:#181818;stroke-width:0.5208333333333334;" width="116.6667" x="1085.9375" y="69.0592"/><text fill="#000000" font-family="sans-serif" font-size="14.5833" lengthAdjust="spacing" textLength="102.0833" x="1093.2292" y="89.8875">FHIR-Directory</text><rect fill="#E3E3E3" height="31.5592" rx="2.6042" ry="2.6042" style="stroke:#181818;stroke-width:0.5208333333333334;" width="116.6667" x="1085.9375" y="556.5837"/><text fill="#000000" font-family="sans-serif" font-size="14.5833" lengthAdjust="spacing" textLength="102.0833" x="1093.2292" y="577.4119">FHIR-Directory</text><rect fill="#FFFFFF" height="404.7852" style="stroke:#181818;stroke-width:1.0416666666666667;" width="10.4167" x="296.3542" y="134.0902"/><rect fill="#FFFFFF" height="344.0918" style="stroke:#181818;stroke-width:1.0416666666666667;" width="10.4167" x="493.2292" y="164.4368"/><rect fill="#FFFFFF" height="74.235" style="stroke:#181818;stroke-width:1.0416666666666667;" width="10.4167" x="721.3542" y="194.7835"/><rect fill="#FFFFFF" height="134.9284" style="stroke:#181818;stroke-width:1.0416666666666667;" width="10.4167" x="886.9792" y="343.2536"/><rect fill="#FFFFFF" height="30.3467" style="stroke:#181818;stroke-width:1.0416666666666667;" width="10.4167" x="1139.0625" y="417.4886"/><polygon fill="#181818" points="283.8542,129.9235,294.2708,134.0902,283.8542,138.2568,288.0208,134.0902" style="stroke:#181818;stroke-width:1.0416666666666667;"/><line style="stroke:#181818;stroke-width:1.0416666666666667;" x1="46.3542" x2="290.1042" y1="134.0902" y2="134.0902"/><text fill="#000000" font-family="sans-serif" font-size="13.5417" lengthAdjust="spacing" textLength="230.2083" x="53.6458" y="128.8132">[1] Suchanfrage zusammenstellen</text><polygon fill="#181818" points="480.7292,160.2702,491.1458,164.4368,480.7292,168.6035,484.8958,164.4368" style="stroke:#181818;stroke-width:1.0416666666666667;"/><line style="stroke:#181818;stroke-width:1.0416666666666667;" x1="306.7708" x2="486.9792" y1="164.4368" y2="164.4368"/><text fill="#000000" font-family="sans-serif" font-size="13.5417" lengthAdjust="spacing" textLength="166.6667" x="314.0625" y="159.1599">[2] Suchanfrage &amp; Token</text><polygon fill="#181818" points="708.8542,190.6169,719.2708,194.7835,708.8542,198.9502,713.0208,194.7835" style="stroke:#181818;stroke-width:1.0416666666666667;"/><line style="stroke:#181818;stroke-width:1.0416666666666667;" x1="503.6458" x2="715.1042" y1="194.7835" y2="194.7835"/><text fill="#000000" font-family="sans-serif" font-size="13.5417" lengthAdjust="spacing" textLength="132.2917" x="510.9375" y="189.5065">[3] Token Validieren</text><line style="stroke:#181818;stroke-width:1.0416666666666667;" x1="731.7708" x2="775.5208" y1="225.1302" y2="225.1302"/><line style="stroke:#181818;stroke-width:1.0416666666666667;" x1="775.5208" x2="775.5208" y1="225.1302" y2="238.6719"/><line style="stroke:#181818;stroke-width:1.0416666666666667;" x1="732.8125" x2="775.5208" y1="238.6719" y2="238.6719"/><polygon fill="#181818" points="743.2292,234.5052,732.8125,238.6719,743.2292,242.8385,739.0625,238.6719" style="stroke:#181818;stroke-width:1.0416666666666667;"/><text fill="#000000" font-family="sans-serif" font-size="13.5417" lengthAdjust="spacing" textLength="130.2083" x="739.0625" y="219.8532">[4] Token validieren</text><polygon fill="#181818" points="515.1042,264.8519,504.6875,269.0186,515.1042,273.1852,510.9375,269.0186" style="stroke:#181818;stroke-width:1.0416666666666667;"/><line style="stroke:#181818;stroke-width:1.0416666666666667;" x1="508.8542" x2="725.5208" y1="269.0186" y2="269.0186"/><text fill="#000000" font-family="sans-serif" font-size="13.5417" lengthAdjust="spacing" textLength="161.4583" x="521.3542" y="263.7416">[5] Validierungsergebnis</text><line style="stroke:#181818;stroke-width:1.0416666666666667;" x1="503.6458" x2="547.3958" y1="299.3652" y2="299.3652"/><line style="stroke:#181818;stroke-width:1.0416666666666667;" x1="547.3958" x2="547.3958" y1="299.3652" y2="312.9069"/><line style="stroke:#181818;stroke-width:1.0416666666666667;" x1="504.6875" x2="547.3958" y1="312.9069" y2="312.9069"/><polygon fill="#181818" points="515.1042,308.7402,504.6875,312.9069,515.1042,317.0736,510.9375,312.9069" style="stroke:#181818;stroke-width:1.0416666666666667;"/><text fill="#000000" font-family="sans-serif" font-size="13.5417" lengthAdjust="spacing" textLength="192.7083" x="510.9375" y="294.0882">[6] Berechtigungen ermitteln</text><polygon fill="#181818" points="874.4792,339.0869,884.8958,343.2536,874.4792,347.4202,878.6458,343.2536" style="stroke:#181818;stroke-width:1.0416666666666667;"/><line style="stroke:#181818;stroke-width:1.0416666666666667;" x1="503.6458" x2="880.7292" y1="343.2536" y2="343.2536"/><text fill="#000000" font-family="sans-serif" font-size="13.5417" lengthAdjust="spacing" textLength="259.375" x="510.9375" y="337.9766">[7] Suchanfrage &amp; SSP Backend Token</text><line style="stroke:#181818;stroke-width:1.0416666666666667;" x1="897.3958" x2="941.1458" y1="373.6003" y2="373.6003"/><line style="stroke:#181818;stroke-width:1.0416666666666667;" x1="941.1458" x2="941.1458" y1="373.6003" y2="387.1419"/><line style="stroke:#181818;stroke-width:1.0416666666666667;" x1="898.4375" x2="941.1458" y1="387.1419" y2="387.1419"/><polygon fill="#181818" points="908.8542,382.9753,898.4375,387.1419,908.8542,391.3086,904.6875,387.1419" style="stroke:#181818;stroke-width:1.0416666666666667;"/><text fill="#000000" font-family="sans-serif" font-size="13.5417" lengthAdjust="spacing" textLength="216.6667" x="904.6875" y="368.3233">[8] Validiere SSP Backend Token</text><polygon fill="#181818" points="1126.5625,413.3219,1136.9792,417.4886,1126.5625,421.6553,1130.7292,417.4886" style="stroke:#181818;stroke-width:1.0416666666666667;"/><line style="stroke:#181818;stroke-width:1.0416666666666667;" x1="897.3958" x2="1132.8125" y1="417.4886" y2="417.4886"/><text fill="#000000" font-family="sans-serif" font-size="13.5417" lengthAdjust="spacing" textLength="107.2917" x="904.6875" y="412.2116">[9] Suchanfrage</text><polygon fill="#181818" points="908.8542,443.6686,898.4375,447.8353,908.8542,452.002,904.6875,447.8353" style="stroke:#181818;stroke-width:1.0416666666666667;"/><line style="stroke:#181818;stroke-width:1.0416666666666667;" x1="902.6042" x2="1143.2292" y1="447.8353" y2="447.8353"/><text fill="#000000" font-family="sans-serif" font-size="13.5417" lengthAdjust="spacing" textLength="121.875" x="915.1042" y="442.5583">[10] Suchergebnis</text><polygon fill="#181818" points="515.1042,474.0153,504.6875,478.182,515.1042,482.3486,510.9375,478.182" style="stroke:#181818;stroke-width:1.0416666666666667;"/><line style="stroke:#181818;stroke-width:1.0416666666666667;" x1="508.8542" x2="891.1458" y1="478.182" y2="478.182"/><text fill="#000000" font-family="sans-serif" font-size="13.5417" lengthAdjust="spacing" textLength="121.875" x="521.3542" y="472.905">[10] Suchergebnis</text><polygon fill="#181818" points="318.2292,504.362,307.8125,508.5286,318.2292,512.6953,314.0625,508.5286" style="stroke:#181818;stroke-width:1.0416666666666667;"/><line style="stroke:#181818;stroke-width:1.0416666666666667;" x1="311.9792" x2="497.3958" y1="508.5286" y2="508.5286"/><text fill="#000000" font-family="sans-serif" font-size="13.5417" lengthAdjust="spacing" textLength="121.875" x="324.4792" y="503.2516">[10] Suchergebnis</text><polygon fill="#181818" points="57.8125,534.7087,47.3958,538.8753,57.8125,543.042,53.6458,538.8753" style="stroke:#181818;stroke-width:1.0416666666666667;"/><line style="stroke:#181818;stroke-width:1.0416666666666667;" x1="51.5625" x2="300.5208" y1="538.8753" y2="538.8753"/><text fill="#000000" font-family="sans-serif" font-size="13.5417" lengthAdjust="spacing" textLength="179.1667" x="64.0625" y="533.5983">[11] Anzeige Suchergebnis</text><!--SRC=[VP9FRzim3CNl-XI43zjb0P9kwzOU2YJOYXKeq60kraERWo8njX1RyYWfNVFfHzb9QgT_hkBlFVAHycjZ6qco1jqOc8p7mXzUxaWsTqQ74au6xxMpJfNaQeH04ONu64oe4BBBNrU_HpyCeGgEdZv1ZdyZsgqsiaYwF9_3D8OIRJ1A1eJQ19XBxnyTXKp8f087qaDsGyLegcjZ7wpJI73zCnFSd7McaJQ0gbfiHkxH8ptOP7r9pWQqUaWkiIKJC9Dg_Q8kOrjFSurof8rHE0HMJGkqsURa_ZqTbVLp-H0z4q8u65tmdETmFrb07bKfxOfaWR2DNjOrMX-mgj2ct6QJrg4gmRbOjKHMdGnL7-3MhVlqaXVFuHYNaV7FYmw0Fx8osY3rMHa5vzoZN_RefeV6G-ElYuD7j0Mljy2bDLvexFljUhUAqmNCs4MLmHGiOMSalYtdipjirJ3sxJXHxoZ7wLQDuCNlbT-VHy9NL3jICtaswD7pqqBmgVQ6at77lHQEqSwmpVOksUpYTMT-Xqp7wcxh4ia_OcgtQ7WBRoduC_m7]--></g></svg>