<?xml version="1.0" encoding="us-ascii" standalone="no"?><svg xmlns="http://www.w3.org/2000/svg" xmlns:xlink="http://www.w3.org/1999/xlink" contentStyleType="text/css" height="1218px" preserveAspectRatio="none" style="width:1829px;height:1218px;background:#FFFFFF;" version="1.1" viewBox="0 0 1829 1218" width="1829px" zoomAndPan="magnify"><defs/><g><text fill="#000000" font-family="sans-serif" font-size="14" font-weight="bold" lengthAdjust="spacing" textLength="331" x="745.25" y="27.9951">FHIR-VZD Authentisierung f&#252;r Versicherte</text><rect fill="#F5F5F5" height="1169.4141" style="stroke:#181818;stroke-width:0.5;" width="468.5" x="16" y="43.2969"/><text fill="#000000" font-family="sans-serif" font-size="13" font-weight="bold" lengthAdjust="spacing" textLength="121" x="187.25" y="55.3638">Fachanwendung</text><rect fill="#F5F5F5" height="1169.4141" style="stroke:#181818;stroke-width:0.5;" width="998" x="669.5" y="43.2969"/><text fill="#000000" font-family="sans-serif" font-size="13" font-weight="bold" lengthAdjust="spacing" textLength="142" x="1095" y="55.3638">VZD-FHIR-Directory</text><rect fill="#FFFFFF" height="71.2656" style="stroke:#181818;stroke-width:1.0;" width="10" x="721.5" y="259.5234"/><rect fill="#FFFFFF" height="158.7969" style="stroke:#181818;stroke-width:1.0;" width="10" x="964.5" y="375.0547"/><rect fill="#FFFFFF" height="200.9297" style="stroke:#181818;stroke-width:1.0;" width="10" x="964.5" y="592.9219"/><rect fill="#FFFFFF" height="212.7344" style="stroke:#181818;stroke-width:1.0;" width="10" x="1356.5" y="924.3828"/><rect fill="#FFFFFF" height="44.2656" style="stroke:#181818;stroke-width:1.0;" width="10" x="1602.5" y="1019.7813"/><rect fill="none" height="669.9922" style="stroke:#000000;stroke-width:1.5;" width="1361.5" x="10" y="167.9922"/><rect fill="none" height="580.5938" style="stroke:#000000;stroke-width:1.5;" width="981" x="380.5" y="221.2578"/><rect fill="none" height="163.6016" style="stroke:#000000;stroke-width:1.5;" width="1663.5" x="10" y="981.5156"/><line style="stroke:#181818;stroke-width:0.5;stroke-dasharray:5.0,5.0;" x1="90" x2="90" y1="93.7266" y2="1162.1172"/><line style="stroke:#181818;stroke-width:0.5;stroke-dasharray:5.0,5.0;" x1="435.5" x2="435.5" y1="93.7266" y2="1162.1172"/><line style="stroke:#181818;stroke-width:0.5;stroke-dasharray:5.0,5.0;" x1="726.5" x2="726.5" y1="93.7266" y2="1162.1172"/><line style="stroke:#181818;stroke-width:0.5;stroke-dasharray:5.0,5.0;" x1="969" x2="969" y1="93.7266" y2="1162.1172"/><line style="stroke:#181818;stroke-width:0.5;stroke-dasharray:5.0,5.0;" x1="1361" x2="1361" y1="93.7266" y2="1162.1172"/><line style="stroke:#181818;stroke-width:0.5;stroke-dasharray:5.0,5.0;" x1="1607.5" x2="1607.5" y1="93.7266" y2="1162.1172"/><line style="stroke:#181818;stroke-width:0.5;stroke-dasharray:5.0,5.0;" x1="1745.5" x2="1745.5" y1="93.7266" y2="1162.1172"/><rect fill="#E2E2F0" height="30.2969" rx="2.5" ry="2.5" style="stroke:#181818;stroke-width:0.5;" width="141" x="20" y="62.4297"/><text fill="#000000" font-family="sans-serif" font-size="14" lengthAdjust="spacing" textLength="127" x="27" y="82.4248">Client Versicherter</text><rect fill="#E2E2F0" height="30.2969" rx="2.5" ry="2.5" style="stroke:#181818;stroke-width:0.5;" width="141" x="20" y="1161.1172"/><text fill="#000000" font-family="sans-serif" font-size="14" lengthAdjust="spacing" textLength="127" x="27" y="1181.1123">Client Versicherter</text><rect fill="#E2E2F0" height="30.2969" rx="2.5" ry="2.5" style="stroke:#181818;stroke-width:0.5;" width="90" x="390.5" y="62.4297"/><text fill="#000000" font-family="sans-serif" font-size="14" lengthAdjust="spacing" textLength="76" x="397.5" y="82.4248">Fachdienst</text><rect fill="#E2E2F0" height="30.2969" rx="2.5" ry="2.5" style="stroke:#181818;stroke-width:0.5;" width="90" x="390.5" y="1161.1172"/><text fill="#000000" font-family="sans-serif" font-size="14" lengthAdjust="spacing" textLength="76" x="397.5" y="1181.1123">Fachdienst</text><rect fill="#E2E2F0" height="30.2969" rx="2.5" ry="2.5" style="stroke:#181818;stroke-width:0.5;" width="106" x="673.5" y="62.4297"/><text fill="#000000" font-family="sans-serif" font-size="14" lengthAdjust="spacing" textLength="92" x="680.5" y="82.4248">OAuth-Server</text><rect fill="#E2E2F0" height="30.2969" rx="2.5" ry="2.5" style="stroke:#181818;stroke-width:0.5;" width="106" x="673.5" y="1161.1172"/><text fill="#000000" font-family="sans-serif" font-size="14" lengthAdjust="spacing" textLength="92" x="680.5" y="1181.1123">OAuth-Server</text><rect fill="#E2E2F0" height="30.2969" rx="2.5" ry="2.5" style="stroke:#181818;stroke-width:0.5;" width="101" x="919" y="62.4297"/><text fill="#000000" font-family="sans-serif" font-size="14" lengthAdjust="spacing" textLength="87" x="926" y="82.4248">Auth-Service</text><rect fill="#E2E2F0" height="30.2969" rx="2.5" ry="2.5" style="stroke:#181818;stroke-width:0.5;" width="101" x="919" y="1161.1172"/><text fill="#000000" font-family="sans-serif" font-size="14" lengthAdjust="spacing" textLength="87" x="926" y="1181.1123">Auth-Service</text><rect fill="#E2E2F0" height="30.2969" rx="2.5" ry="2.5" style="stroke:#181818;stroke-width:0.5;" width="87" x="1318" y="62.4297"/><text fill="#000000" font-family="sans-serif" font-size="14" lengthAdjust="spacing" textLength="73" x="1325" y="82.4248">FHIR-Proxy</text><rect fill="#E2E2F0" height="30.2969" rx="2.5" ry="2.5" style="stroke:#181818;stroke-width:0.5;" width="87" x="1318" y="1161.1172"/><text fill="#000000" font-family="sans-serif" font-size="14" lengthAdjust="spacing" textLength="73" x="1325" y="1181.1123">FHIR-Proxy</text><rect fill="#E2E2F0" height="30.2969" rx="2.5" ry="2.5" style="stroke:#181818;stroke-width:0.5;" width="112" x="1551.5" y="62.4297"/><text fill="#000000" font-family="sans-serif" font-size="14" lengthAdjust="spacing" textLength="98" x="1558.5" y="82.4248">FHIR-Directory</text><rect fill="#E2E2F0" height="30.2969" rx="2.5" ry="2.5" style="stroke:#181818;stroke-width:0.5;" width="112" x="1551.5" y="1161.1172"/><text fill="#000000" font-family="sans-serif" font-size="14" lengthAdjust="spacing" textLength="98" x="1558.5" y="1181.1123">FHIR-Directory</text><rect fill="#E2E2F0" height="46.5938" rx="2.5" ry="2.5" style="stroke:#181818;stroke-width:0.5;" width="144" x="1673.5" y="46.1328"/><text fill="#000000" font-family="sans-serif" font-size="14" lengthAdjust="spacing" textLength="129" x="1681" y="66.1279">Matrix-Homeserver</text><text fill="#000000" font-family="sans-serif" font-size="14" lengthAdjust="spacing" textLength="130" x="1680.5" y="82.4248">(Messenger-Proxy)</text><rect fill="#E2E2F0" height="46.5938" rx="2.5" ry="2.5" style="stroke:#181818;stroke-width:0.5;" width="144" x="1673.5" y="1161.1172"/><text fill="#000000" font-family="sans-serif" font-size="14" lengthAdjust="spacing" textLength="129" x="1681" y="1181.1123">Matrix-Homeserver</text><text fill="#000000" font-family="sans-serif" font-size="14" lengthAdjust="spacing" textLength="130" x="1680.5" y="1197.4092">(Messenger-Proxy)</text><rect fill="#FFFFFF" height="71.2656" style="stroke:#181818;stroke-width:1.0;" width="10" x="721.5" y="259.5234"/><rect fill="#FFFFFF" height="158.7969" style="stroke:#181818;stroke-width:1.0;" width="10" x="964.5" y="375.0547"/><rect fill="#FFFFFF" height="200.9297" style="stroke:#181818;stroke-width:1.0;" width="10" x="964.5" y="592.9219"/><rect fill="#FFFFFF" height="212.7344" style="stroke:#181818;stroke-width:1.0;" width="10" x="1356.5" y="924.3828"/><rect fill="#FFFFFF" height="44.2656" style="stroke:#181818;stroke-width:1.0;" width="10" x="1602.5" y="1019.7813"/><line style="stroke:#181818;stroke-width:1.0;" x1="90.5" x2="132.5" y1="139.9922" y2="139.9922"/><line style="stroke:#181818;stroke-width:1.0;" x1="132.5" x2="132.5" y1="139.9922" y2="152.9922"/><line style="stroke:#181818;stroke-width:1.0;" x1="91.5" x2="132.5" y1="152.9922" y2="152.9922"/><polygon fill="#181818" points="101.5,148.9922,91.5,152.9922,101.5,156.9922,97.5,152.9922" style="stroke:#181818;stroke-width:1.0;"/><text fill="#000000" font-family="sans-serif" font-size="13" font-weight="bold" lengthAdjust="spacing" textLength="30" x="97.5" y="127.3599">[01]</text><text fill="#000000" font-family="sans-serif" font-size="13" lengthAdjust="spacing" textLength="297" x="131.5" y="119.7935">pr&#252;fe ob noch g&#252;ltiges search-ACCESS_TOKEN</text><text fill="#000000" font-family="sans-serif" font-size="13" lengthAdjust="spacing" textLength="260" x="131.5" y="134.9263">vom FHIR-Directory Auth-Service vorliegt</text><path d="M10,167.9922 L74,167.9922 L74,175.125 L64,185.125 L10,185.125 L10,167.9922 " fill="#EEEEEE" style="stroke:#000000;stroke-width:1.5;"/><rect fill="none" height="669.9922" style="stroke:#000000;stroke-width:1.5;" width="1361.5" x="10" y="167.9922"/><text fill="#000000" font-family="sans-serif" font-size="13" font-weight="bold" lengthAdjust="spacing" textLength="19" x="25" y="181.0591">alt</text><text fill="#000000" font-family="sans-serif" font-size="11" font-weight="bold" lengthAdjust="spacing" textLength="317" x="89" y="180.2026">[kein g&#252;ltiges search-ACCESS_TOKEN vorhanden]</text><polygon fill="#181818" points="423.5,202.2578,433.5,206.2578,423.5,210.2578,427.5,206.2578" style="stroke:#181818;stroke-width:1.0;"/><line style="stroke:#181818;stroke-width:1.0;" x1="90.5" x2="429.5" y1="206.2578" y2="206.2578"/><text fill="#000000" font-family="sans-serif" font-size="13" font-weight="bold" lengthAdjust="spacing" textLength="30" x="97.5" y="201.1919">[02]</text><text fill="#000000" font-family="sans-serif" font-size="13" lengthAdjust="spacing" textLength="205" x="131.5" y="201.1919">Anfrage search-ACCESS_TOKEN</text><path d="M380.5,221.2578 L444.5,221.2578 L444.5,228.3906 L434.5,238.3906 L380.5,238.3906 L380.5,221.2578 " fill="#EEEEEE" style="stroke:#000000;stroke-width:1.5;"/><rect fill="none" height="580.5938" style="stroke:#000000;stroke-width:1.5;" width="981" x="380.5" y="221.2578"/><text fill="#000000" font-family="sans-serif" font-size="13" font-weight="bold" lengthAdjust="spacing" textLength="19" x="395.5" y="234.3247">alt</text><text fill="#000000" font-family="sans-serif" font-size="11" font-weight="bold" lengthAdjust="spacing" textLength="276" x="459.5" y="233.4683">[kein g&#252;ltiges REFRESH_TOKEN vorhanden]</text><polygon fill="#181818" points="709.5,255.5234,719.5,259.5234,709.5,263.5234,713.5,259.5234" style="stroke:#181818;stroke-width:1.0;"/><line style="stroke:#181818;stroke-width:1.0;" x1="435.5" x2="715.5" y1="259.5234" y2="259.5234"/><text fill="#000000" font-family="sans-serif" font-size="13" font-weight="bold" lengthAdjust="spacing" textLength="30" x="442.5" y="254.4575">[03]</text><text fill="#000000" font-family="sans-serif" font-size="13" lengthAdjust="spacing" textLength="233" x="476.5" y="254.4575">POST /token (client_id, client_secret)</text><line style="stroke:#181818;stroke-width:1.0;" x1="731.5" x2="773.5" y1="288.6563" y2="288.6563"/><line style="stroke:#181818;stroke-width:1.0;" x1="773.5" x2="773.5" y1="288.6563" y2="301.6563"/><line style="stroke:#181818;stroke-width:1.0;" x1="732.5" x2="773.5" y1="301.6563" y2="301.6563"/><polygon fill="#181818" points="742.5,297.6563,732.5,301.6563,742.5,305.6563,738.5,301.6563" style="stroke:#181818;stroke-width:1.0;"/><text fill="#000000" font-family="sans-serif" font-size="13" font-weight="bold" lengthAdjust="spacing" textLength="30" x="738.5" y="283.5903">[04]</text><text fill="#000000" font-family="sans-serif" font-size="13" lengthAdjust="spacing" textLength="178" x="772.5" y="283.5903">pr&#252;fe client_id, client_secret</text><polygon fill="#181818" points="446.5,326.7891,436.5,330.7891,446.5,334.7891,442.5,330.7891" style="stroke:#181818;stroke-width:1.0;"/><line style="stroke:#181818;stroke-width:1.0;stroke-dasharray:2.0,2.0;" x1="440.5" x2="725.5" y1="330.7891" y2="330.7891"/><text fill="#000000" font-family="sans-serif" font-size="13" font-weight="bold" lengthAdjust="spacing" textLength="30" x="452.5" y="325.7231">[05]</text><text fill="#000000" font-family="sans-serif" font-size="13" lengthAdjust="spacing" textLength="130" x="486.5" y="325.7231">patient-accesstoken</text><polygon fill="#181818" points="952.5,371.0547,962.5,375.0547,952.5,379.0547,956.5,375.0547" style="stroke:#181818;stroke-width:1.0;"/><line style="stroke:#181818;stroke-width:1.0;" x1="435.5" x2="958.5" y1="375.0547" y2="375.0547"/><text fill="#000000" font-family="sans-serif" font-size="13" font-weight="bold" lengthAdjust="spacing" textLength="30" x="442.5" y="362.4224">[06]</text><text fill="#000000" font-family="sans-serif" font-size="13" lengthAdjust="spacing" textLength="164" x="476.5" y="354.856">GET /patient-authenticate</text><text fill="#000000" font-family="sans-serif" font-size="13" lengthAdjust="spacing" textLength="370" x="476.5" y="369.9888">(Authorization: "grant_type=Bearer patient-accesstoken")</text><line style="stroke:#181818;stroke-width:1.0;" x1="974.5" x2="1016.5" y1="404.1875" y2="404.1875"/><line style="stroke:#181818;stroke-width:1.0;" x1="1016.5" x2="1016.5" y1="404.1875" y2="417.1875"/><line style="stroke:#181818;stroke-width:1.0;" x1="975.5" x2="1016.5" y1="417.1875" y2="417.1875"/><polygon fill="#181818" points="985.5,413.1875,975.5,417.1875,985.5,421.1875,981.5,417.1875" style="stroke:#181818;stroke-width:1.0;"/><text fill="#000000" font-family="sans-serif" font-size="13" font-weight="bold" lengthAdjust="spacing" textLength="30" x="981.5" y="399.1216">[07]</text><text fill="#000000" font-family="sans-serif" font-size="13" lengthAdjust="spacing" textLength="167" x="1015.5" y="399.1216">Pr&#252;fe patient-accesstoken</text><line style="stroke:#181818;stroke-width:1.0;" x1="974.5" x2="1016.5" y1="446.3203" y2="446.3203"/><line style="stroke:#181818;stroke-width:1.0;" x1="1016.5" x2="1016.5" y1="446.3203" y2="459.3203"/><line style="stroke:#181818;stroke-width:1.0;" x1="975.5" x2="1016.5" y1="459.3203" y2="459.3203"/><polygon fill="#181818" points="985.5,455.3203,975.5,459.3203,985.5,463.3203,981.5,459.3203" style="stroke:#181818;stroke-width:1.0;"/><text fill="#000000" font-family="sans-serif" font-size="13" font-weight="bold" lengthAdjust="spacing" textLength="30" x="981.5" y="441.2544">[08]</text><text fill="#000000" font-family="sans-serif" font-size="13" lengthAdjust="spacing" textLength="334" x="1015.5" y="441.2544">Erzeuge search-ACCESS_TOKEN &amp; REFRESH_TOKEN</text><polygon fill="#181818" points="446.5,529.8516,436.5,533.8516,446.5,537.8516,442.5,533.8516" style="stroke:#181818;stroke-width:1.0;"/><line style="stroke:#181818;stroke-width:1.0;stroke-dasharray:2.0,2.0;" x1="440.5" x2="968.5" y1="533.8516" y2="533.8516"/><text fill="#000000" font-family="sans-serif" font-size="13" font-weight="bold" lengthAdjust="spacing" textLength="30" x="452.5" y="506.0864">[09]</text><text fill="#000000" font-family="sans-serif" font-size="13" lengthAdjust="spacing" textLength="471" x="486.5" y="483.3872">HTTP 200 OK, Result body mit search-ACCESS_TOKEN &amp; REFRESH_TOKEN</text><text fill="#000000" font-family="sans-serif" font-size="13" lengthAdjust="spacing" textLength="426" x="486.5" y="498.52">{"access_token"="search-ACCESS_TOKEN", "token_type":"bearer",</text><text fill="#000000" font-family="sans-serif" font-size="13" lengthAdjust="spacing" textLength="118" x="486.5" y="513.6528">"expires_in":86400</text><text fill="#000000" font-family="sans-serif" font-size="13" lengthAdjust="spacing" textLength="426" x="486.5" y="528.7856">"refresh_token"="REFRESH_TOKEN", "token_type":"refresh_token"}</text><line style="stroke:#000000;stroke-width:1.0;stroke-dasharray:2.0,2.0;" x1="380.5" x2="1361.5" y1="542.8516" y2="542.8516"/><text fill="#000000" font-family="sans-serif" font-size="11" font-weight="bold" lengthAdjust="spacing" textLength="245" x="385.5" y="553.062">[g&#252;ltiges REFRESH_TOKEN vorhanden]</text><polygon fill="#181818" points="952.5,588.9219,962.5,592.9219,952.5,596.9219,956.5,592.9219" style="stroke:#181818;stroke-width:1.0;"/><line style="stroke:#181818;stroke-width:1.0;" x1="435.5" x2="958.5" y1="592.9219" y2="592.9219"/><text fill="#000000" font-family="sans-serif" font-size="13" font-weight="bold" lengthAdjust="spacing" textLength="30" x="442.5" y="580.2896">[10]</text><text fill="#000000" font-family="sans-serif" font-size="13" lengthAdjust="spacing" textLength="164" x="476.5" y="572.7231">GET /patient-authenticate</text><text fill="#000000" font-family="sans-serif" font-size="13" lengthAdjust="spacing" textLength="393" x="476.5" y="587.856">(Authorization: "grant_type=refresh_token REFRESH_TOKEN")</text><line style="stroke:#181818;stroke-width:1.0;" x1="974.5" x2="1016.5" y1="622.0547" y2="622.0547"/><line style="stroke:#181818;stroke-width:1.0;" x1="1016.5" x2="1016.5" y1="622.0547" y2="635.0547"/><line style="stroke:#181818;stroke-width:1.0;" x1="975.5" x2="1016.5" y1="635.0547" y2="635.0547"/><polygon fill="#181818" points="985.5,631.0547,975.5,635.0547,985.5,639.0547,981.5,635.0547" style="stroke:#181818;stroke-width:1.0;"/><text fill="#000000" font-family="sans-serif" font-size="13" font-weight="bold" lengthAdjust="spacing" textLength="30" x="981.5" y="616.9888">[11]</text><text fill="#000000" font-family="sans-serif" font-size="13" lengthAdjust="spacing" textLength="145" x="1015.5" y="616.9888">Pr&#252;fe REFRESH_TOKEN</text><line style="stroke:#181818;stroke-width:1.0;" x1="974.5" x2="1016.5" y1="664.1875" y2="664.1875"/><line style="stroke:#181818;stroke-width:1.0;" x1="1016.5" x2="1016.5" y1="664.1875" y2="677.1875"/><line style="stroke:#181818;stroke-width:1.0;" x1="975.5" x2="1016.5" y1="677.1875" y2="677.1875"/><polygon fill="#181818" points="985.5,673.1875,975.5,677.1875,985.5,681.1875,981.5,677.1875" style="stroke:#181818;stroke-width:1.0;"/><text fill="#000000" font-family="sans-serif" font-size="13" font-weight="bold" lengthAdjust="spacing" textLength="30" x="981.5" y="659.1216">[12]</text><text fill="#000000" font-family="sans-serif" font-size="13" lengthAdjust="spacing" textLength="334" x="1015.5" y="659.1216">Erzeuge search-ACCESS_TOKEN &amp; REFRESH_TOKEN</text><line style="stroke:#181818;stroke-width:1.0;" x1="974.5" x2="1016.5" y1="706.3203" y2="706.3203"/><line style="stroke:#181818;stroke-width:1.0;" x1="1016.5" x2="1016.5" y1="706.3203" y2="719.3203"/><line style="stroke:#181818;stroke-width:1.0;" x1="975.5" x2="1016.5" y1="719.3203" y2="719.3203"/><polygon fill="#181818" points="985.5,715.3203,975.5,719.3203,985.5,723.3203,981.5,719.3203" style="stroke:#181818;stroke-width:1.0;"/><text fill="#000000" font-family="sans-serif" font-size="13" font-weight="bold" lengthAdjust="spacing" textLength="30" x="981.5" y="701.2544">[13]</text><text fill="#000000" font-family="sans-serif" font-size="13" lengthAdjust="spacing" textLength="219" x="1015.5" y="701.2544">Deaktiviere altes REFRESH_TOKEN</text><polygon fill="#181818" points="446.5,789.8516,436.5,793.8516,446.5,797.8516,442.5,793.8516" style="stroke:#181818;stroke-width:1.0;"/><line style="stroke:#181818;stroke-width:1.0;stroke-dasharray:2.0,2.0;" x1="440.5" x2="968.5" y1="793.8516" y2="793.8516"/><text fill="#000000" font-family="sans-serif" font-size="13" font-weight="bold" lengthAdjust="spacing" textLength="30" x="452.5" y="766.0864">[14]</text><text fill="#000000" font-family="sans-serif" font-size="13" lengthAdjust="spacing" textLength="471" x="486.5" y="743.3872">HTTP 200 OK, Result body mit search-ACCESS_TOKEN &amp; REFRESH_TOKEN</text><text fill="#000000" font-family="sans-serif" font-size="13" lengthAdjust="spacing" textLength="426" x="486.5" y="758.52">{"access_token"="search-ACCESS_TOKEN", "token_type":"bearer",</text><text fill="#000000" font-family="sans-serif" font-size="13" lengthAdjust="spacing" textLength="118" x="486.5" y="773.6528">"expires_in":86400</text><text fill="#000000" font-family="sans-serif" font-size="13" lengthAdjust="spacing" textLength="426" x="486.5" y="788.7856">"refresh_token"="REFRESH_TOKEN", "token_type":"refresh_token"}</text><polygon fill="#181818" points="101.5,825.9844,91.5,829.9844,101.5,833.9844,97.5,829.9844" style="stroke:#181818;stroke-width:1.0;"/><line style="stroke:#181818;stroke-width:1.0;stroke-dasharray:2.0,2.0;" x1="95.5" x2="434.5" y1="829.9844" y2="829.9844"/><text fill="#000000" font-family="sans-serif" font-size="13" font-weight="bold" lengthAdjust="spacing" textLength="30" x="107.5" y="824.9185">[15]</text><text fill="#000000" font-family="sans-serif" font-size="13" lengthAdjust="spacing" textLength="151" x="141.5" y="824.9185">search-ACCESS_TOKEN</text><rect fill="#EEEEEE" height="3" style="stroke:#EEEEEE;stroke-width:1.0;" width="1822.5" x="0" y="865.5508"/><line style="stroke:#000000;stroke-width:1.0;" x1="0" x2="1822.5" y1="865.5508" y2="865.5508"/><line style="stroke:#000000;stroke-width:1.0;" x1="0" x2="1822.5" y1="868.5508" y2="868.5508"/><rect fill="#EEEEEE" height="23.1328" style="stroke:#000000;stroke-width:2.0;" width="327" x="747.75" y="854.9844"/><text fill="#000000" font-family="sans-serif" font-size="13" font-weight="bold" lengthAdjust="spacing" textLength="308" x="753.75" y="871.0513">...Suche durch Versicherte im FHIR VZD...</text><polygon fill="#181818" points="1344.5,920.3828,1354.5,924.3828,1344.5,928.3828,1348.5,924.3828" style="stroke:#181818;stroke-width:1.0;"/><line style="stroke:#181818;stroke-width:1.0;" x1="90.5" x2="1350.5" y1="924.3828" y2="924.3828"/><text fill="#000000" font-family="sans-serif" font-size="13" font-weight="bold" lengthAdjust="spacing" textLength="30" x="97.5" y="911.7505">[16]</text><text fill="#000000" font-family="sans-serif" font-size="13" lengthAdjust="spacing" textLength="210" x="131.5" y="904.1841">GET /search?... (Auth Header mit</text><text fill="#000000" font-family="sans-serif" font-size="13" lengthAdjust="spacing" textLength="156" x="131.5" y="919.3169">search-ACCESS_TOKEN)</text><line style="stroke:#181818;stroke-width:1.0;" x1="1366.5" x2="1408.5" y1="953.5156" y2="953.5156"/><line style="stroke:#181818;stroke-width:1.0;" x1="1408.5" x2="1408.5" y1="953.5156" y2="966.5156"/><line style="stroke:#181818;stroke-width:1.0;" x1="1367.5" x2="1408.5" y1="966.5156" y2="966.5156"/><polygon fill="#181818" points="1377.5,962.5156,1367.5,966.5156,1377.5,970.5156,1373.5,966.5156" style="stroke:#181818;stroke-width:1.0;"/><text fill="#000000" font-family="sans-serif" font-size="13" font-weight="bold" lengthAdjust="spacing" textLength="30" x="1373.5" y="948.4497">[17]</text><text fill="#000000" font-family="sans-serif" font-size="13" lengthAdjust="spacing" textLength="188" x="1407.5" y="948.4497">pr&#252;fe search-ACCESS_TOKEN</text><path d="M10,981.5156 L74,981.5156 L74,988.6484 L64,998.6484 L10,998.6484 L10,981.5156 " fill="#EEEEEE" style="stroke:#000000;stroke-width:1.5;"/><rect fill="none" height="163.6016" style="stroke:#000000;stroke-width:1.5;" width="1663.5" x="10" y="981.5156"/><text fill="#000000" font-family="sans-serif" font-size="13" font-weight="bold" lengthAdjust="spacing" textLength="19" x="25" y="994.5825">alt</text><text fill="#000000" font-family="sans-serif" font-size="11" font-weight="bold" lengthAdjust="spacing" textLength="208" x="89" y="993.7261">[search-ACCESS_TOKEN is valid]</text><polygon fill="#181818" points="1590.5,1015.7813,1600.5,1019.7813,1590.5,1023.7813,1594.5,1019.7813" style="stroke:#181818;stroke-width:1.0;"/><line style="stroke:#181818;stroke-width:1.0;" x1="1366.5" x2="1596.5" y1="1019.7813" y2="1019.7813"/><text fill="#000000" font-family="sans-serif" font-size="13" font-weight="bold" lengthAdjust="spacing" textLength="30" x="1373.5" y="1014.7153">[18]</text><text fill="#000000" font-family="sans-serif" font-size="13" lengthAdjust="spacing" textLength="52" x="1407.5" y="1014.7153">GET /?...</text><polygon fill="#181818" points="1377.5,1060.0469,1367.5,1064.0469,1377.5,1068.0469,1373.5,1064.0469" style="stroke:#181818;stroke-width:1.0;"/><line style="stroke:#181818;stroke-width:1.0;stroke-dasharray:2.0,2.0;" x1="1371.5" x2="1606.5" y1="1064.0469" y2="1064.0469"/><text fill="#000000" font-family="sans-serif" font-size="13" font-weight="bold" lengthAdjust="spacing" textLength="30" x="1383.5" y="1051.4146">[19]</text><text fill="#000000" font-family="sans-serif" font-size="13" lengthAdjust="spacing" textLength="82" x="1417.5" y="1043.8481">HTTP 200 OK</text><text fill="#000000" font-family="sans-serif" font-size="13" lengthAdjust="spacing" textLength="115" x="1417.5" y="1058.981">(Result Body json)</text><polygon fill="#181818" points="101.5,1089.1797,91.5,1093.1797,101.5,1097.1797,97.5,1093.1797" style="stroke:#181818;stroke-width:1.0;"/><line style="stroke:#181818;stroke-width:1.0;stroke-dasharray:2.0,2.0;" x1="95.5" x2="1355.5" y1="1093.1797" y2="1093.1797"/><text fill="#000000" font-family="sans-serif" font-size="13" font-weight="bold" lengthAdjust="spacing" textLength="30" x="107.5" y="1088.1138">[20]</text><text fill="#000000" font-family="sans-serif" font-size="13" lengthAdjust="spacing" textLength="201" x="141.5" y="1088.1138">HTTP 200 OK (Result Body json)</text><line style="stroke:#000000;stroke-width:1.0;stroke-dasharray:2.0,2.0;" x1="10" x2="1673.5" y1="1102.1797" y2="1102.1797"/><text fill="#000000" font-family="sans-serif" font-size="11" font-weight="bold" lengthAdjust="spacing" textLength="200" x="15" y="1112.3901">[search-accesstoken is invalid]</text><polygon fill="#181818" points="101.5,1133.1172,91.5,1137.1172,101.5,1141.1172,97.5,1137.1172" style="stroke:#181818;stroke-width:1.0;"/><line style="stroke:#181818;stroke-width:1.0;stroke-dasharray:2.0,2.0;" x1="95.5" x2="1360.5" y1="1137.1172" y2="1137.1172"/><text fill="#000000" font-family="sans-serif" font-size="13" font-weight="bold" lengthAdjust="spacing" textLength="30" x="107.5" y="1132.0513">[21]</text><text fill="#000000" font-family="sans-serif" font-size="13" lengthAdjust="spacing" textLength="60" x="141.5" y="1132.0513">HTTP 401</text><!--SRC=[vLLDRzf04BtxLuosKXKKdD8ggYfKg980fOfI8a1KQgdGOe_nDh2srciAgVhFSiiVw_ZR3awKGsw52zXlvhsPDplBG-t9SBD41M_fopukkpzQhP_Cq4Al4TXW-6Liphxtu2pKBaej0e4gb2jmxkyKp505md9HQMI6OIoz7GouvNBv6wKTeLvzSuN6oSQxGGFeutEbXILyBZNCBjQ2CW8FWAK_I_aKEmWOz0WK904HZHt_PGPn0L4d_AJLZ4NtX49BUsh_f0WsYWep9wYsH1cbdjtQyRD3Q8uK5cRGMgJZ9neZ6TVAs-qFQt7i0f8hBPLInhf1ZBtYMecTEVGs6CHov_Be2eC0vGfLmjCW5zAscjsimMtmrVsTW-0jGNgM2wlxkxKMAmmWGAuirpoxkEXF9elfwBB_TIwttWOUTB1SEMmzHNbNsZ3uMiCD2lbqnYY0Hi96MTAMUjc6C-aeliAwm5g2SNymxa-61wcpuJ2xcO77nssu7ascy4QJynAEh9Xy8Umcf3y3j1JgXf655C5vqnuBAcBCRbwCptLS7xSiCYQcDMpabXPRhh4OhKnjp9Tf_TmdgNc6zBXPKHmP7O4y9MxfjIVRm5QA9cEXzpvspgbpT7nhk5d3C5A2d8bwaXHMfxK6tLUt6DRx0w-hRkJHfOuCfzDhUDTgmUYo2MCCGd9qwTbxs0Zzd9np-OSb2XT9IHrM4yMQmEBNSKTOcotZdh3cN3BS-JJ7mK98rlxm_hJLecSA7NhavYahb0V9gkY_3nnDDW2k0tp-bBw8xnLPLSOdZQzwzaAM5z4zv3VK7Rec4EZyFcp6VpmajDoBaqyTozPptUgBiPqEd9oSJ4Aw4S4E2LE-844aQpgwyGW5dKw- -sa9qXsKJbQI_LC4YQS9XiXjsXVKsxcieMuOkN37D-WgIvEb-_3HFLtdamXWozV2pjBOgQP8JOc6tjjWfZobOQ3vJwVXF9g6Nu4d6-N6EadYugg3IZZKHCVdD9LQsdoHKY4BhOSfJrjlAzH-RD4_]--></g></svg>