<?xml version="1.0" encoding="us-ascii" standalone="no"?><svg xmlns="http://www.w3.org/2000/svg" xmlns:xlink="http://www.w3.org/1999/xlink" contentStyleType="text/css" height="1694.7917px" preserveAspectRatio="none" style="width:1708px;height:1694px;background:#FFFFFF;" version="1.1" viewBox="0 0 1708 1694" width="1708.3333px" zoomAndPan="magnify"><defs/><g><rect fill="#F5F5F5" height="1682.6986" style="stroke:#181818;stroke-width:0.5208333333333334;" width="540.1042" x="947.3958" y="6.25"/><text fill="#000000" font-family="sans-serif" font-size="16.6667" font-weight="bold" lengthAdjust="spacing" textLength="135.4167" x="1147.1354" y="21.7204">FHIR-Directory</text><text fill="#000000" font-family="sans-serif" font-size="13.5417" font-weight="bold" lengthAdjust="spacing" textLength="5.2083" x="1282.5521" y="22.4574">&#160;</text><rect fill="#FFFFFF" height="1454.7201" style="stroke:#181818;stroke-width:1.0416666666666667;" width="10.4167" x="423.9583" y="132.8776"/><rect fill="#FFFFFF" height="221.5983" style="stroke:#181818;stroke-width:1.0416666666666667;" width="10.4167" x="991.6667" y="204.126"/><rect fill="#FFFFFF" height="221.5983" style="stroke:#181818;stroke-width:1.0416666666666667;" width="10.4167" x="991.6667" y="511.556"/><rect fill="#FFFFFF" height="46.11" style="stroke:#181818;stroke-width:1.0416666666666667;" width="10.4167" x="1218.75" y="303.4993"/><rect fill="#FFFFFF" height="46.11" style="stroke:#181818;stroke-width:1.0416666666666667;" width="10.4167" x="1218.75" y="610.9294"/><rect fill="#FFFFFF" height="204.7933" style="stroke:#181818;stroke-width:1.0416666666666667;" width="10.4167" x="1382.8125" y="803.2227"/><rect fill="#FFFFFF" height="296.9482" style="stroke:#181818;stroke-width:1.0416666666666667;" width="10.4167" x="1382.8125" y="1245.7194"/><rect fill="none" height="292.8467" style="stroke:#000000;stroke-width:1.5625;" width="959.375" x="343.75" y="148.5026"/><rect fill="none" height="170.4183" style="stroke:#000000;stroke-width:1.5625;" width="938.5417" x="354.1667" y="263.6393"/><rect fill="none" height="292.8467" style="stroke:#000000;stroke-width:1.5625;" width="959.375" x="343.75" y="455.9326"/><rect fill="none" height="170.4183" style="stroke:#000000;stroke-width:1.5625;" width="938.5417" x="354.1667" y="571.0693"/><rect fill="none" height="260.2783" style="stroke:#000000;stroke-width:1.5625;" width="1300.5208" x="343.75" y="763.3626"/><rect fill="none" height="153.6133" style="stroke:#000000;stroke-width:1.5625;" width="1279.6875" x="354.1667" y="862.736"/><rect fill="none" height="352.4333" style="stroke:#000000;stroke-width:1.5625;" width="1358.8542" x="343.75" y="1205.8594"/><rect fill="none" height="166.9515" style="stroke:#000000;stroke-width:1.5625;" width="1325.5208" x="354.1667" y="1384.0495"/><line style="stroke:#181818;stroke-width:0.5208333333333334;stroke-dasharray:5.0,5.0;" x1="32.2917" x2="32.2917" y1="84.6842" y2="1606.3477"/><line style="stroke:#181818;stroke-width:0.5208333333333334;stroke-dasharray:5.0,5.0;" x1="429.1667" x2="429.1667" y1="84.6842" y2="1606.3477"/><line style="stroke:#181818;stroke-width:0.5208333333333334;stroke-dasharray:5.0,5.0;" x1="996.3542" x2="996.3542" y1="84.6842" y2="1606.3477"/><line style="stroke:#181818;stroke-width:0.5208333333333334;stroke-dasharray:5.0,5.0;" x1="1223.9583" x2="1223.9583" y1="84.6842" y2="1606.3477"/><line style="stroke:#181818;stroke-width:0.5208333333333334;stroke-dasharray:5.0,5.0;" x1="1387.5" x2="1387.5" y1="84.6842" y2="1606.3477"/><text fill="#000000" font-family="sans-serif" font-size="14.5833" lengthAdjust="spacing" textLength="47.9167" x="5.2083" y="81.2449">Nutzer</text><ellipse cx="32.2917" cy="14.0625" fill="#E3E3E3" rx="8.3333" ry="8.3333" style="stroke:#181818;stroke-width:0.5208333333333334;"/><path d="M32.2917,22.3958 L32.2917,50.5208 M18.75,30.7292 L45.8333,30.7292 M32.2917,50.5208 L18.75,66.1458 M32.2917,50.5208 L45.8333,66.1458 " fill="none" style="stroke:#181818;stroke-width:0.5208333333333334;"/><text fill="#000000" font-family="sans-serif" font-size="14.5833" lengthAdjust="spacing" textLength="47.9167" x="5.2083" y="1618.8426">Nutzer</text><ellipse cx="32.2917" cy="1631.1361" fill="#E3E3E3" rx="8.3333" ry="8.3333" style="stroke:#181818;stroke-width:0.5208333333333334;"/><path d="M32.2917,1639.4694 L32.2917,1667.5944 M18.75,1647.8027 L45.8333,1647.8027 M32.2917,1667.5944 L18.75,1683.2194 M32.2917,1667.5944 L45.8333,1683.2194 " fill="none" style="stroke:#181818;stroke-width:0.5208333333333334;"/><rect fill="#E3E3E3" height="31.5592" rx="2.6042" ry="2.6042" style="stroke:#181818;stroke-width:0.5208333333333334;" width="129.1667" x="364.5833" y="52.0833"/><text fill="#000000" font-family="sans-serif" font-size="14.5833" lengthAdjust="spacing" textLength="114.5833" x="371.875" y="72.9116">FHIR-VZD-Client</text><rect fill="#E3E3E3" height="31.5592" rx="2.6042" ry="2.6042" style="stroke:#181818;stroke-width:0.5208333333333334;" width="129.1667" x="364.5833" y="1605.306"/><text fill="#000000" font-family="sans-serif" font-size="14.5833" lengthAdjust="spacing" textLength="114.5833" x="371.875" y="1626.1342">FHIR-VZD-Client</text><rect fill="#E3E3E3" height="31.5592" rx="2.6042" ry="2.6042" style="stroke:#181818;stroke-width:0.5208333333333334;" width="90.625" x="951.5625" y="52.0833"/><text fill="#000000" font-family="sans-serif" font-size="14.5833" lengthAdjust="spacing" textLength="76.0417" x="958.8542" y="72.9116">FHIR-Proxy</text><rect fill="#E3E3E3" height="31.5592" rx="2.6042" ry="2.6042" style="stroke:#181818;stroke-width:0.5208333333333334;" width="90.625" x="951.5625" y="1605.306"/><text fill="#000000" font-family="sans-serif" font-size="14.5833" lengthAdjust="spacing" textLength="76.0417" x="958.8542" y="1626.1342">FHIR-Proxy</text><rect fill="#E3E3E3" height="31.5592" rx="2.6042" ry="2.6042" style="stroke:#181818;stroke-width:0.5208333333333334;" width="116.6667" x="1165.625" y="52.0833"/><text fill="#000000" font-family="sans-serif" font-size="14.5833" lengthAdjust="spacing" textLength="102.0833" x="1172.9167" y="72.9116">FHIR-Directory</text><rect fill="#E3E3E3" height="31.5592" rx="2.6042" ry="2.6042" style="stroke:#181818;stroke-width:0.5208333333333334;" width="116.6667" x="1165.625" y="1605.306"/><text fill="#000000" font-family="sans-serif" font-size="14.5833" lengthAdjust="spacing" textLength="102.0833" x="1172.9167" y="1626.1342">FHIR-Directory</text><rect fill="#E3E3E3" height="31.5592" rx="2.6042" ry="2.6042" style="stroke:#181818;stroke-width:0.5208333333333334;" width="190.625" x="1292.7083" y="52.0833"/><text fill="#000000" font-family="sans-serif" font-size="14.5833" lengthAdjust="spacing" textLength="176.0417" x="1300" y="72.9116">FHIR-VZD-Administration</text><rect fill="#E3E3E3" height="31.5592" rx="2.6042" ry="2.6042" style="stroke:#181818;stroke-width:0.5208333333333334;" width="190.625" x="1292.7083" y="1605.306"/><text fill="#000000" font-family="sans-serif" font-size="14.5833" lengthAdjust="spacing" textLength="176.0417" x="1300" y="1626.1342">FHIR-VZD-Administration</text><rect fill="#FFFFFF" height="1454.7201" style="stroke:#181818;stroke-width:1.0416666666666667;" width="10.4167" x="423.9583" y="132.8776"/><rect fill="#FFFFFF" height="221.5983" style="stroke:#181818;stroke-width:1.0416666666666667;" width="10.4167" x="991.6667" y="204.126"/><rect fill="#FFFFFF" height="221.5983" style="stroke:#181818;stroke-width:1.0416666666666667;" width="10.4167" x="991.6667" y="511.556"/><rect fill="#FFFFFF" height="46.11" style="stroke:#181818;stroke-width:1.0416666666666667;" width="10.4167" x="1218.75" y="303.4993"/><rect fill="#FFFFFF" height="46.11" style="stroke:#181818;stroke-width:1.0416666666666667;" width="10.4167" x="1218.75" y="610.9294"/><rect fill="#FFFFFF" height="204.7933" style="stroke:#181818;stroke-width:1.0416666666666667;" width="10.4167" x="1382.8125" y="803.2227"/><rect fill="#FFFFFF" height="296.9482" style="stroke:#181818;stroke-width:1.0416666666666667;" width="10.4167" x="1382.8125" y="1245.7194"/><polygon fill="#181818" points="411.4583,128.7109,421.875,132.8776,411.4583,137.0443,415.625,132.8776" style="stroke:#181818;stroke-width:1.0416666666666667;"/><line style="stroke:#181818;stroke-width:1.0416666666666667;" x1="32.2917" x2="417.7083" y1="132.8776" y2="132.8776"/><text fill="#000000" font-family="sans-serif" font-size="13.5417" font-weight="bold" lengthAdjust="spacing" textLength="31.25" x="39.5833" y="119.7189">[01]</text><text fill="#000000" font-family="sans-serif" font-size="13.5417" lengthAdjust="spacing" textLength="165.625" x="75" y="111.8373">Start Verlinkungsanfrage</text><text fill="#000000" font-family="sans-serif" font-size="13.5417" lengthAdjust="spacing" textLength="319.7917" x="75" y="127.6006">mit Suche nach der zu verlinkenden Ressourcen</text><path d="M343.75,148.5026 L856.25,148.5026 L856.25,155.9326 L845.8333,166.3493 L343.75,166.3493 L343.75,148.5026 " fill="#EEEEEE" style="stroke:#000000;stroke-width:1.5625;"/><rect fill="none" height="292.8467" style="stroke:#000000;stroke-width:1.5625;" width="959.375" x="343.75" y="148.5026"/><text fill="#000000" font-family="sans-serif" font-size="13.5417" font-weight="bold" lengthAdjust="spacing" textLength="465.625" x="359.375" y="162.114">Suche aller eigenen Ressourcen, die verlinkt werden k&#246;nnen</text><polygon fill="#181818" points="979.1667,199.9593,989.5833,204.126,979.1667,208.2926,983.3333,204.126" style="stroke:#181818;stroke-width:1.0416666666666667;"/><line style="stroke:#181818;stroke-width:1.0416666666666667;" x1="434.375" x2="985.4167" y1="204.126" y2="204.126"/><text fill="#000000" font-family="sans-serif" font-size="13.5417" font-weight="bold" lengthAdjust="spacing" textLength="31.25" x="441.6667" y="190.9673">[02]</text><text fill="#000000" font-family="sans-serif" font-size="13.5417" lengthAdjust="spacing" textLength="497.9167" x="477.0833" y="183.0856">GET /owner?... (Suche alle eigenen HealthcareService oder PractitionerRole</text><text fill="#000000" font-family="sans-serif" font-size="13.5417" lengthAdjust="spacing" textLength="257.2917" x="477.0833" y="198.849">mit telematikID aus dem accesstoken)</text><line style="stroke:#181818;stroke-width:1.0416666666666667;" x1="1002.0833" x2="1045.8333" y1="234.4727" y2="234.4727"/><line style="stroke:#181818;stroke-width:1.0416666666666667;" x1="1045.8333" x2="1045.8333" y1="234.4727" y2="248.0143"/><line style="stroke:#181818;stroke-width:1.0416666666666667;" x1="1003.125" x2="1045.8333" y1="248.0143" y2="248.0143"/><polygon fill="#181818" points="1013.5417,243.8477,1003.125,248.0143,1013.5417,252.181,1009.375,248.0143" style="stroke:#181818;stroke-width:1.0416666666666667;"/><text fill="#000000" font-family="sans-serif" font-size="13.5417" font-weight="bold" lengthAdjust="spacing" textLength="31.25" x="1009.375" y="229.1957">[03]</text><text fill="#000000" font-family="sans-serif" font-size="13.5417" lengthAdjust="spacing" textLength="166.6667" x="1044.7917" y="229.1957">pr&#252;fe owner-accesstoken</text><path d="M354.1667,263.6393 L420.8333,263.6393 L420.8333,271.0693 L410.4167,281.486 L354.1667,281.486 L354.1667,263.6393 " fill="#EEEEEE" style="stroke:#000000;stroke-width:1.5625;"/><rect fill="none" height="170.4183" style="stroke:#000000;stroke-width:1.5625;" width="938.5417" x="354.1667" y="263.6393"/><text fill="#000000" font-family="sans-serif" font-size="13.5417" font-weight="bold" lengthAdjust="spacing" textLength="19.7917" x="369.7917" y="277.2507">alt</text><text fill="#000000" font-family="sans-serif" font-size="11.4583" font-weight="bold" lengthAdjust="spacing" textLength="145.8333" x="436.4583" y="276.3585">[accesstoken is valid]</text><polygon fill="#181818" points="1206.25,299.3327,1216.6667,303.4993,1206.25,307.666,1210.4167,303.4993" style="stroke:#181818;stroke-width:1.0416666666666667;"/><line style="stroke:#181818;stroke-width:1.0416666666666667;" x1="1002.0833" x2="1212.5" y1="303.4993" y2="303.4993"/><text fill="#000000" font-family="sans-serif" font-size="13.5417" font-weight="bold" lengthAdjust="spacing" textLength="31.25" x="1009.375" y="298.2224">[04]</text><text fill="#000000" font-family="sans-serif" font-size="13.5417" lengthAdjust="spacing" textLength="54.1667" x="1044.7917" y="298.2224">GET /?...</text><polygon fill="#181818" points="1013.5417,345.4427,1003.125,349.6094,1013.5417,353.776,1009.375,349.6094" style="stroke:#181818;stroke-width:1.0416666666666667;"/><line style="stroke:#181818;stroke-width:1.0416666666666667;stroke-dasharray:2.0,2.0;" x1="1007.2917" x2="1222.9167" y1="349.6094" y2="349.6094"/><text fill="#000000" font-family="sans-serif" font-size="13.5417" font-weight="bold" lengthAdjust="spacing" textLength="31.25" x="1019.7917" y="336.4507">[05]</text><text fill="#000000" font-family="sans-serif" font-size="13.5417" lengthAdjust="spacing" textLength="85.4167" x="1055.2083" y="328.569">HTTP 200 OK</text><text fill="#000000" font-family="sans-serif" font-size="13.5417" lengthAdjust="spacing" textLength="119.7917" x="1055.2083" y="344.3324">(Result Body json)</text><polygon fill="#181818" points="445.8333,375.7894,435.4167,379.9561,445.8333,384.1227,441.6667,379.9561" style="stroke:#181818;stroke-width:1.0416666666666667;"/><line style="stroke:#181818;stroke-width:1.0416666666666667;stroke-dasharray:2.0,2.0;" x1="439.5833" x2="990.625" y1="379.9561" y2="379.9561"/><text fill="#000000" font-family="sans-serif" font-size="13.5417" font-weight="bold" lengthAdjust="spacing" textLength="31.25" x="452.0833" y="374.6791">[06]</text><text fill="#000000" font-family="sans-serif" font-size="13.5417" lengthAdjust="spacing" textLength="209.375" x="487.5" y="374.6791">HTTP 200 OK (Result Body json)</text><line style="stroke:#000000;stroke-width:1.0416666666666667;stroke-dasharray:2.0,2.0;" x1="354.1667" x2="1292.7083" y1="389.3311" y2="389.3311"/><text fill="#000000" font-family="sans-serif" font-size="11.4583" font-weight="bold" lengthAdjust="spacing" textLength="208.3333" x="359.375" y="399.9669">[search-accesstoken is invalid]</text><polygon fill="#181818" points="445.8333,421.5576,435.4167,425.7243,445.8333,429.891,441.6667,425.7243" style="stroke:#181818;stroke-width:1.0416666666666667;"/><line style="stroke:#181818;stroke-width:1.0416666666666667;stroke-dasharray:2.0,2.0;" x1="439.5833" x2="995.8333" y1="425.7243" y2="425.7243"/><text fill="#000000" font-family="sans-serif" font-size="13.5417" font-weight="bold" lengthAdjust="spacing" textLength="31.25" x="452.0833" y="420.4473">[07]</text><text fill="#000000" font-family="sans-serif" font-size="13.5417" lengthAdjust="spacing" textLength="62.5" x="487.5" y="420.4473">HTTP 401</text><path d="M343.75,455.9326 L919.7917,455.9326 L919.7917,463.3626 L909.375,473.7793 L343.75,473.7793 L343.75,455.9326 " fill="#EEEEEE" style="stroke:#000000;stroke-width:1.5625;"/><rect fill="none" height="292.8467" style="stroke:#000000;stroke-width:1.5625;" width="959.375" x="343.75" y="455.9326"/><text fill="#000000" font-family="sans-serif" font-size="13.5417" font-weight="bold" lengthAdjust="spacing" textLength="529.1667" x="359.375" y="469.544">Suche der Ressourcen, mit denen die Verlinkung erstellt werden soll</text><polygon fill="#181818" points="979.1667,507.3893,989.5833,511.556,979.1667,515.7227,983.3333,511.556" style="stroke:#181818;stroke-width:1.0416666666666667;"/><line style="stroke:#181818;stroke-width:1.0416666666666667;" x1="434.375" x2="985.4167" y1="511.556" y2="511.556"/><text fill="#000000" font-family="sans-serif" font-size="13.5417" font-weight="bold" lengthAdjust="spacing" textLength="31.25" x="441.6667" y="498.3973">[08]</text><text fill="#000000" font-family="sans-serif" font-size="13.5417" lengthAdjust="spacing" textLength="268.75" x="477.0833" y="490.5156">GET /owner?... (Mit Nutzer Suchstring f&#252;r</text><text fill="#000000" font-family="sans-serif" font-size="13.5417" lengthAdjust="spacing" textLength="269.7917" x="477.0833" y="506.279">HealthcareService oder PractitionerRole)</text><line style="stroke:#181818;stroke-width:1.0416666666666667;" x1="1002.0833" x2="1045.8333" y1="541.9027" y2="541.9027"/><line style="stroke:#181818;stroke-width:1.0416666666666667;" x1="1045.8333" x2="1045.8333" y1="541.9027" y2="555.4443"/><line style="stroke:#181818;stroke-width:1.0416666666666667;" x1="1003.125" x2="1045.8333" y1="555.4443" y2="555.4443"/><polygon fill="#181818" points="1013.5417,551.2777,1003.125,555.4443,1013.5417,559.611,1009.375,555.4443" style="stroke:#181818;stroke-width:1.0416666666666667;"/><text fill="#000000" font-family="sans-serif" font-size="13.5417" font-weight="bold" lengthAdjust="spacing" textLength="31.25" x="1009.375" y="536.6257">[09]</text><text fill="#000000" font-family="sans-serif" font-size="13.5417" lengthAdjust="spacing" textLength="166.6667" x="1044.7917" y="536.6257">pr&#252;fe owner-accesstoken</text><path d="M354.1667,571.0693 L420.8333,571.0693 L420.8333,578.4993 L410.4167,588.916 L354.1667,588.916 L354.1667,571.0693 " fill="#EEEEEE" style="stroke:#000000;stroke-width:1.5625;"/><rect fill="none" height="170.4183" style="stroke:#000000;stroke-width:1.5625;" width="938.5417" x="354.1667" y="571.0693"/><text fill="#000000" font-family="sans-serif" font-size="13.5417" font-weight="bold" lengthAdjust="spacing" textLength="19.7917" x="369.7917" y="584.6807">alt</text><text fill="#000000" font-family="sans-serif" font-size="11.4583" font-weight="bold" lengthAdjust="spacing" textLength="145.8333" x="436.4583" y="583.7886">[accesstoken is valid]</text><polygon fill="#181818" points="1206.25,606.7627,1216.6667,610.9294,1206.25,615.096,1210.4167,610.9294" style="stroke:#181818;stroke-width:1.0416666666666667;"/><line style="stroke:#181818;stroke-width:1.0416666666666667;" x1="1002.0833" x2="1212.5" y1="610.9294" y2="610.9294"/><text fill="#000000" font-family="sans-serif" font-size="13.5417" font-weight="bold" lengthAdjust="spacing" textLength="31.25" x="1009.375" y="605.6524">[10]</text><text fill="#000000" font-family="sans-serif" font-size="13.5417" lengthAdjust="spacing" textLength="54.1667" x="1044.7917" y="605.6524">GET /?...</text><polygon fill="#181818" points="1013.5417,652.8727,1003.125,657.0394,1013.5417,661.2061,1009.375,657.0394" style="stroke:#181818;stroke-width:1.0416666666666667;"/><line style="stroke:#181818;stroke-width:1.0416666666666667;stroke-dasharray:2.0,2.0;" x1="1007.2917" x2="1222.9167" y1="657.0394" y2="657.0394"/><text fill="#000000" font-family="sans-serif" font-size="13.5417" font-weight="bold" lengthAdjust="spacing" textLength="31.25" x="1019.7917" y="643.8807">[11]</text><text fill="#000000" font-family="sans-serif" font-size="13.5417" lengthAdjust="spacing" textLength="85.4167" x="1055.2083" y="635.999">HTTP 200 OK</text><text fill="#000000" font-family="sans-serif" font-size="13.5417" lengthAdjust="spacing" textLength="119.7917" x="1055.2083" y="651.7624">(Result Body json)</text><polygon fill="#181818" points="445.8333,683.2194,435.4167,687.3861,445.8333,691.5527,441.6667,687.3861" style="stroke:#181818;stroke-width:1.0416666666666667;"/><line style="stroke:#181818;stroke-width:1.0416666666666667;stroke-dasharray:2.0,2.0;" x1="439.5833" x2="990.625" y1="687.3861" y2="687.3861"/><text fill="#000000" font-family="sans-serif" font-size="13.5417" font-weight="bold" lengthAdjust="spacing" textLength="31.25" x="452.0833" y="682.1091">[12]</text><text fill="#000000" font-family="sans-serif" font-size="13.5417" lengthAdjust="spacing" textLength="209.375" x="487.5" y="682.1091">HTTP 200 OK (Result Body json)</text><line style="stroke:#000000;stroke-width:1.0416666666666667;stroke-dasharray:2.0,2.0;" x1="354.1667" x2="1292.7083" y1="696.7611" y2="696.7611"/><text fill="#000000" font-family="sans-serif" font-size="11.4583" font-weight="bold" lengthAdjust="spacing" textLength="208.3333" x="359.375" y="707.397">[search-accesstoken is invalid]</text><polygon fill="#181818" points="445.8333,728.9876,435.4167,733.1543,445.8333,737.321,441.6667,733.1543" style="stroke:#181818;stroke-width:1.0416666666666667;"/><line style="stroke:#181818;stroke-width:1.0416666666666667;stroke-dasharray:2.0,2.0;" x1="439.5833" x2="995.8333" y1="733.1543" y2="733.1543"/><text fill="#000000" font-family="sans-serif" font-size="13.5417" font-weight="bold" lengthAdjust="spacing" textLength="31.25" x="452.0833" y="727.8773">[13]</text><text fill="#000000" font-family="sans-serif" font-size="13.5417" lengthAdjust="spacing" textLength="62.5" x="487.5" y="727.8773">HTTP 401</text><path d="M343.75,763.3626 L704.1667,763.3626 L704.1667,770.7926 L693.75,781.2093 L343.75,781.2093 L343.75,763.3626 " fill="#EEEEEE" style="stroke:#000000;stroke-width:1.5625;"/><rect fill="none" height="260.2783" style="stroke:#000000;stroke-width:1.5625;" width="1300.5208" x="343.75" y="763.3626"/><text fill="#000000" font-family="sans-serif" font-size="13.5417" font-weight="bold" lengthAdjust="spacing" textLength="313.5417" x="359.375" y="776.974">Lese alle vorhandenen Verlinkungsdaten</text><polygon fill="#181818" points="1370.3125,799.056,1380.7292,803.2227,1370.3125,807.3893,1374.4792,803.2227" style="stroke:#181818;stroke-width:1.0416666666666667;"/><line style="stroke:#181818;stroke-width:1.0416666666666667;" x1="434.375" x2="1376.5625" y1="803.2227" y2="803.2227"/><text fill="#000000" font-family="sans-serif" font-size="13.5417" font-weight="bold" lengthAdjust="spacing" textLength="31.25" x="441.6667" y="797.9457">[14]</text><text fill="#000000" font-family="sans-serif" font-size="13.5417" lengthAdjust="spacing" textLength="187.5" x="477.0833" y="797.9457">getPersonInstitutionLinks {}</text><line style="stroke:#181818;stroke-width:1.0416666666666667;" x1="1393.2292" x2="1436.9792" y1="833.5693" y2="833.5693"/><line style="stroke:#181818;stroke-width:1.0416666666666667;" x1="1436.9792" x2="1436.9792" y1="833.5693" y2="847.111"/><line style="stroke:#181818;stroke-width:1.0416666666666667;" x1="1394.2708" x2="1436.9792" y1="847.111" y2="847.111"/><polygon fill="#181818" points="1404.6875,842.9443,1394.2708,847.111,1404.6875,851.2777,1400.5208,847.111" style="stroke:#181818;stroke-width:1.0416666666666667;"/><text fill="#000000" font-family="sans-serif" font-size="13.5417" font-weight="bold" lengthAdjust="spacing" textLength="31.25" x="1400.5208" y="828.2923">[15]</text><text fill="#000000" font-family="sans-serif" font-size="13.5417" lengthAdjust="spacing" textLength="166.6667" x="1435.9375" y="828.2923">pr&#252;fe owner-accesstoken</text><path d="M354.1667,862.736 L420.8333,862.736 L420.8333,870.166 L410.4167,880.5827 L354.1667,880.5827 L354.1667,862.736 " fill="#EEEEEE" style="stroke:#000000;stroke-width:1.5625;"/><rect fill="none" height="153.6133" style="stroke:#000000;stroke-width:1.5625;" width="1279.6875" x="354.1667" y="862.736"/><text fill="#000000" font-family="sans-serif" font-size="13.5417" font-weight="bold" lengthAdjust="spacing" textLength="19.7917" x="369.7917" y="876.3474">alt</text><text fill="#000000" font-family="sans-serif" font-size="11.4583" font-weight="bold" lengthAdjust="spacing" textLength="145.8333" x="436.4583" y="875.4552">[accesstoken is valid]</text><line style="stroke:#181818;stroke-width:1.0416666666666667;" x1="1393.2292" x2="1436.9792" y1="902.596" y2="902.596"/><line style="stroke:#181818;stroke-width:1.0416666666666667;" x1="1436.9792" x2="1436.9792" y1="902.596" y2="916.1377"/><line style="stroke:#181818;stroke-width:1.0416666666666667;" x1="1394.2708" x2="1436.9792" y1="916.1377" y2="916.1377"/><polygon fill="#181818" points="1404.6875,911.971,1394.2708,916.1377,1404.6875,920.3044,1400.5208,916.1377" style="stroke:#181818;stroke-width:1.0416666666666667;"/><text fill="#000000" font-family="sans-serif" font-size="13.5417" font-weight="bold" lengthAdjust="spacing" textLength="31.25" x="1400.5208" y="897.319">[16]</text><text fill="#000000" font-family="sans-serif" font-size="13.5417" lengthAdjust="spacing" textLength="185.4167" x="1435.9375" y="897.319">Lesen der Verlinkungsdaten</text><polygon fill="#181818" points="445.8333,958.0811,435.4167,962.2477,445.8333,966.4144,441.6667,962.2477" style="stroke:#181818;stroke-width:1.0416666666666667;"/><line style="stroke:#181818;stroke-width:1.0416666666666667;stroke-dasharray:2.0,2.0;" x1="439.5833" x2="1381.7708" y1="962.2477" y2="962.2477"/><text fill="#000000" font-family="sans-serif" font-size="13.5417" font-weight="bold" lengthAdjust="spacing" textLength="31.25" x="452.0833" y="949.0891">[17]</text><text fill="#000000" font-family="sans-serif" font-size="13.5417" lengthAdjust="spacing" textLength="85.4167" x="487.5" y="941.2074">HTTP 200 OK</text><text fill="#000000" font-family="sans-serif" font-size="13.5417" lengthAdjust="spacing" textLength="119.7917" x="487.5" y="956.9707">(Result Body json)</text><line style="stroke:#000000;stroke-width:1.0416666666666667;stroke-dasharray:2.0,2.0;" x1="354.1667" x2="1633.8542" y1="971.6227" y2="971.6227"/><text fill="#000000" font-family="sans-serif" font-size="11.4583" font-weight="bold" lengthAdjust="spacing" textLength="205.2083" x="359.375" y="982.2586">[owner-accesstoken is invalid]</text><polygon fill="#181818" points="445.8333,1003.8493,435.4167,1008.016,445.8333,1012.1826,441.6667,1008.016" style="stroke:#181818;stroke-width:1.0416666666666667;"/><line style="stroke:#181818;stroke-width:1.0416666666666667;stroke-dasharray:2.0,2.0;" x1="439.5833" x2="1386.9792" y1="1008.016" y2="1008.016"/><text fill="#000000" font-family="sans-serif" font-size="13.5417" font-weight="bold" lengthAdjust="spacing" textLength="31.25" x="452.0833" y="1002.739">[18]</text><text fill="#000000" font-family="sans-serif" font-size="13.5417" lengthAdjust="spacing" textLength="62.5" x="487.5" y="1002.739">HTTP 401</text><polygon fill="#181818" points="43.75,1080.306,33.3333,1084.4727,43.75,1088.6393,39.5833,1084.4727" style="stroke:#181818;stroke-width:1.0416666666666667;"/><line style="stroke:#181818;stroke-width:1.0416666666666667;stroke-dasharray:2.0,2.0;" x1="37.5" x2="422.9167" y1="1084.4727" y2="1084.4727"/><text fill="#000000" font-family="sans-serif" font-size="13.5417" font-weight="bold" lengthAdjust="spacing" textLength="31.25" x="50" y="1063.4323">[19]</text><text fill="#000000" font-family="sans-serif" font-size="13.5417" lengthAdjust="spacing" textLength="327.0833" x="85.4167" y="1047.669">Anzeige aller eigenen und gesuchten Ressourcen</text><text fill="#000000" font-family="sans-serif" font-size="13.5417" lengthAdjust="spacing" textLength="269.7917" x="85.4167" y="1063.4323">(HealthcareService und PractitionerRole)</text><text fill="#000000" font-family="sans-serif" font-size="13.5417" lengthAdjust="spacing" textLength="239.5833" x="85.4167" y="1079.1957">sowie vorhandene Verlinkungsdaten</text><line style="stroke:#181818;stroke-width:1.0416666666666667;" x1="32.2917" x2="76.0417" y1="1114.8193" y2="1114.8193"/><line style="stroke:#181818;stroke-width:1.0416666666666667;" x1="76.0417" x2="76.0417" y1="1114.8193" y2="1128.361"/><line style="stroke:#181818;stroke-width:1.0416666666666667;" x1="33.3333" x2="76.0417" y1="1128.361" y2="1128.361"/><polygon fill="#181818" points="43.75,1124.1943,33.3333,1128.361,43.75,1132.5277,39.5833,1128.361" style="stroke:#181818;stroke-width:1.0416666666666667;"/><text fill="#000000" font-family="sans-serif" font-size="13.5417" font-weight="bold" lengthAdjust="spacing" textLength="31.25" x="39.5833" y="1109.5423">[20]</text><text fill="#000000" font-family="sans-serif" font-size="13.5417" lengthAdjust="spacing" textLength="289.5833" x="75" y="1109.5423">Auswahl der zu zu verlinkenden Ressourcen</text><polygon fill="#181818" points="411.4583,1186.0677,421.875,1190.2344,411.4583,1194.401,415.625,1190.2344" style="stroke:#181818;stroke-width:1.0416666666666667;"/><line style="stroke:#181818;stroke-width:1.0416666666666667;" x1="32.2917" x2="417.7083" y1="1190.2344" y2="1190.2344"/><text fill="#000000" font-family="sans-serif" font-size="13.5417" font-weight="bold" lengthAdjust="spacing" textLength="31.25" x="39.5833" y="1169.194">[21]</text><text fill="#000000" font-family="sans-serif" font-size="13.5417" lengthAdjust="spacing" textLength="128.125" x="75" y="1153.4307">Verlinkungsanfrage</text><text fill="#000000" font-family="sans-serif" font-size="13.5417" lengthAdjust="spacing" textLength="198.9583" x="75" y="1169.194">mit ausgew&#228;hlten Ressourcen</text><text fill="#000000" font-family="sans-serif" font-size="13.5417" lengthAdjust="spacing" textLength="251.0417" x="75" y="1184.9574">{HealthcareService, PractitionerRole}</text><path d="M343.75,1205.8594 L544.7917,1205.8594 L544.7917,1213.2894 L534.375,1223.7061 L343.75,1223.7061 L343.75,1205.8594 " fill="#EEEEEE" style="stroke:#000000;stroke-width:1.5625;"/><rect fill="none" height="352.4333" style="stroke:#000000;stroke-width:1.5625;" width="1358.8542" x="343.75" y="1205.8594"/><text fill="#000000" font-family="sans-serif" font-size="13.5417" font-weight="bold" lengthAdjust="spacing" textLength="154.1667" x="359.375" y="1219.4707">VerlinkungsRequest</text><polygon fill="#181818" points="1370.3125,1241.5527,1380.7292,1245.7194,1370.3125,1249.8861,1374.4792,1245.7194" style="stroke:#181818;stroke-width:1.0416666666666667;"/><line style="stroke:#181818;stroke-width:1.0416666666666667;" x1="434.375" x2="1376.5625" y1="1245.7194" y2="1245.7194"/><text fill="#000000" font-family="sans-serif" font-size="13.5417" font-weight="bold" lengthAdjust="spacing" textLength="31.25" x="441.6667" y="1240.4424">[22]</text><text fill="#000000" font-family="sans-serif" font-size="13.5417" lengthAdjust="spacing" textLength="445.8333" x="477.0833" y="1240.4424">suggestPersonInstitutionLink {HealthcareService, PractitionerRole}</text><line style="stroke:#181818;stroke-width:1.0416666666666667;" x1="1393.2292" x2="1436.9792" y1="1354.8828" y2="1354.8828"/><line style="stroke:#181818;stroke-width:1.0416666666666667;" x1="1436.9792" x2="1436.9792" y1="1354.8828" y2="1368.4245"/><line style="stroke:#181818;stroke-width:1.0416666666666667;" x1="1394.2708" x2="1436.9792" y1="1368.4245" y2="1368.4245"/><polygon fill="#181818" points="1404.6875,1364.2578,1394.2708,1368.4245,1404.6875,1372.5911,1400.5208,1368.4245" style="stroke:#181818;stroke-width:1.0416666666666667;"/><text fill="#000000" font-family="sans-serif" font-size="13.5417" font-weight="bold" lengthAdjust="spacing" textLength="31.25" x="1400.5208" y="1310.1974">[23]</text><text fill="#000000" font-family="sans-serif" font-size="13.5417" lengthAdjust="spacing" textLength="166.6667" x="1435.9375" y="1270.7891">pr&#252;fe owner-accesstoken</text><text fill="#000000" font-family="sans-serif" font-size="13.5417" lengthAdjust="spacing" textLength="229.1667" x="1435.9375" y="1286.5524">&amp; Pr&#252;fe, dass eine der Ressourcen</text><text fill="#000000" font-family="sans-serif" font-size="13.5417" lengthAdjust="spacing" textLength="169.7917" x="1435.9375" y="1302.3158">eine eigene Ressource ist</text><text fill="#000000" font-family="sans-serif" font-size="13.5417" lengthAdjust="spacing" textLength="229.1667" x="1435.9375" y="1318.0791">&amp; Pr&#252;fe, dass eine der Ressourcen</text><text fill="#000000" font-family="sans-serif" font-size="13.5417" lengthAdjust="spacing" textLength="250" x="1440.1042" y="1333.8425">ein HealthcareService und die andere</text><text fill="#000000" font-family="sans-serif" font-size="13.5417" lengthAdjust="spacing" textLength="233.3333" x="1440.1042" y="1349.6058">Ressource eine PractitionerRole ist.</text><path d="M354.1667,1384.0495 L420.8333,1384.0495 L420.8333,1391.4795 L410.4167,1401.8962 L354.1667,1401.8962 L354.1667,1384.0495 " fill="#EEEEEE" style="stroke:#000000;stroke-width:1.5625;"/><rect fill="none" height="166.9515" style="stroke:#000000;stroke-width:1.5625;" width="1325.5208" x="354.1667" y="1384.0495"/><text fill="#000000" font-family="sans-serif" font-size="13.5417" font-weight="bold" lengthAdjust="spacing" textLength="19.7917" x="369.7917" y="1397.6608">alt</text><text fill="#000000" font-family="sans-serif" font-size="11.4583" font-weight="bold" lengthAdjust="spacing" textLength="145.8333" x="436.4583" y="1396.7687">[accesstoken is valid]</text><line style="stroke:#181818;stroke-width:1.0416666666666667;" x1="1393.2292" x2="1436.9792" y1="1423.9095" y2="1423.9095"/><line style="stroke:#181818;stroke-width:1.0416666666666667;" x1="1436.9792" x2="1436.9792" y1="1423.9095" y2="1437.4512"/><line style="stroke:#181818;stroke-width:1.0416666666666667;" x1="1394.2708" x2="1436.9792" y1="1437.4512" y2="1437.4512"/><polygon fill="#181818" points="1404.6875,1433.2845,1394.2708,1437.4512,1404.6875,1441.6178,1400.5208,1437.4512" style="stroke:#181818;stroke-width:1.0416666666666667;"/><text fill="#000000" font-family="sans-serif" font-size="13.5417" font-weight="bold" lengthAdjust="spacing" textLength="31.25" x="1400.5208" y="1418.6325">[24]</text><text fill="#000000" font-family="sans-serif" font-size="13.5417" lengthAdjust="spacing" textLength="231.25" x="1435.9375" y="1418.6325">Eintragen des Verlinkungsrequests</text><polygon fill="#181818" points="445.8333,1479.3945,435.4167,1483.5612,445.8333,1487.7279,441.6667,1483.5612" style="stroke:#181818;stroke-width:1.0416666666666667;"/><line style="stroke:#181818;stroke-width:1.0416666666666667;stroke-dasharray:2.0,2.0;" x1="439.5833" x2="1381.7708" y1="1483.5612" y2="1483.5612"/><text fill="#000000" font-family="sans-serif" font-size="13.5417" font-weight="bold" lengthAdjust="spacing" textLength="31.25" x="452.0833" y="1470.4025">[25]</text><text fill="#000000" font-family="sans-serif" font-size="13.5417" lengthAdjust="spacing" textLength="85.4167" x="487.5" y="1462.5209">HTTP 200 OK</text><text fill="#000000" font-family="sans-serif" font-size="13.5417" lengthAdjust="spacing" textLength="119.7917" x="487.5" y="1478.2842">(Result Body json)</text><line style="stroke:#000000;stroke-width:1.0416666666666667;stroke-dasharray:2.0,2.0;" x1="354.1667" x2="1679.6875" y1="1492.9362" y2="1492.9362"/><text fill="#000000" font-family="sans-serif" font-size="11.4583" font-weight="bold" lengthAdjust="spacing" textLength="200" x="359.375" y="1503.5721">[owner-accesstoken is invalid</text><text fill="#000000" font-family="sans-serif" font-size="11.4583" font-weight="bold" lengthAdjust="spacing" textLength="281.25" x="359.375" y="1516.9103">oder keine eigene Ressource ausgew&#228;hlt]</text><polygon fill="#181818" points="445.8333,1538.501,435.4167,1542.6676,445.8333,1546.8343,441.6667,1542.6676" style="stroke:#181818;stroke-width:1.0416666666666667;"/><line style="stroke:#181818;stroke-width:1.0416666666666667;stroke-dasharray:2.0,2.0;" x1="439.5833" x2="1386.9792" y1="1542.6676" y2="1542.6676"/><text fill="#000000" font-family="sans-serif" font-size="13.5417" font-weight="bold" lengthAdjust="spacing" textLength="31.25" x="452.0833" y="1537.3906">[26]</text><text fill="#000000" font-family="sans-serif" font-size="13.5417" lengthAdjust="spacing" textLength="62.5" x="487.5" y="1537.3906">HTTP 401</text><polygon fill="#181818" points="43.75,1583.431,33.3333,1587.5977,43.75,1591.7643,39.5833,1587.5977" style="stroke:#181818;stroke-width:1.0416666666666667;"/><line style="stroke:#181818;stroke-width:1.0416666666666667;" x1="37.5" x2="428.125" y1="1587.5977" y2="1587.5977"/><text fill="#000000" font-family="sans-serif" font-size="13.5417" font-weight="bold" lengthAdjust="spacing" textLength="31.25" x="50" y="1582.3207">[27]</text><text fill="#000000" font-family="sans-serif" font-size="13.5417" lengthAdjust="spacing" textLength="189.5833" x="85.4167" y="1582.3207">Ergebnis Verlinkungsanfrage</text></g></svg>