<svg xmlns="http://www.w3.org/2000/svg" xmlns:xlink="http://www.w3.org/1999/xlink" version="1.1" data-diagram-type="SEQUENCE" style="width:1167px;height:1365px;background:#FFFFFF;" width="1167.708px" height="1365.625px" viewBox="0 0 1167 1365" zoomAndPan="magnify" preserveAspectRatio="none" contentStyleType="text/css"><?plantuml 1.2026.8?><defs/><g font-family="sans-serif" lengthAdjust="spacing"><rect x="440.118" y="11.458" width="710.097" height="1338.721" fill="#F5F5F5" style="stroke:#181818;stroke-width:0.521;"/><text x="700.573" y="26.929" fill="#000" font-size="16.667" textLength="184.473" font-weight="700">VZD-FHIR-Directory</text><text x="885.046" y="27.666" fill="#000" font-size="13.542" font-weight="700"> </text><rect x="72.424" y="369.32" width="1056.673" height="900.033" fill="#FFE4E1" style="stroke:#FFE4E1;stroke-width:1.042;"/><rect x="72.424" y="369.32" width="1056.673" height="900.033" fill="none" style="stroke:#000;stroke-width:1.563;"/><rect x="92.216" y="405.526" width="1010.839" height="476.196" fill="none" style="stroke:#000;stroke-width:1.563;"/><rect x="532.041" y="593.229" width="544.973" height="122.038" fill="#FFE4E1" style="stroke:#FFE4E1;stroke-width:1.042;"/><rect x="532.041" y="593.229" width="544.973" height="122.038" fill="none" style="stroke:#000;stroke-width:1.563;"/><rect x="92.216" y="900.472" width="478.367" height="152.01" fill="none" style="stroke:#000;stroke-width:1.563;"/><rect x="92.216" y="1071.232" width="478.367" height="183.537" fill="none" style="stroke:#000;stroke-width:1.563;"/><g><title>TI-Messenger-Fachdienst</title><rect x="105.237" y="84.603" width="8.333" height="1209.749" fill="#000" fill-opacity="0"/><line x1="108.883" y1="84.603" x2="108.883" y2="1294.352" style="stroke:#181818;stroke-width:0.521;stroke-dasharray:5.208,5.208;"/></g><g><title></title><rect x="103.674" y="130.713" width="10.417" height="1163.639" fill="#FFF" style="stroke:#181818;stroke-width:1.042;"/></g><g><title>TI-Provider</title><rect x="335.587" y="84.603" width="8.333" height="1209.749" fill="#000" fill-opacity="0"/><line x1="339.233" y1="84.603" x2="339.233" y2="1294.352" style="stroke:#181818;stroke-width:0.521;stroke-dasharray:5.208,5.208;"/></g><g><title></title><rect x="334.025" y="130.713" width="10.417" height="89.998" fill="#FFF" style="stroke:#181818;stroke-width:1.042;"/></g><g><title>VZD FHIR TIM-Provider-API</title><rect x="545.062" y="84.603" width="8.333" height="1209.749" fill="#000" fill-opacity="0"/><line x1="548.708" y1="84.603" x2="548.708" y2="1294.352" style="stroke:#181818;stroke-width:0.521;stroke-dasharray:5.208,5.208;"/></g><g><title></title><rect x="543.499" y="534.619" width="10.417" height="338.77" fill="#FFF" style="stroke:#181818;stroke-width:1.042;"/></g><g><title></title><rect x="543.499" y="998.039" width="10.417" height="46.11" fill="#FFF" style="stroke:#181818;stroke-width:1.042;"/></g><g><title></title><rect x="543.499" y="1184.562" width="10.417" height="61.873" fill="#FFF" style="stroke:#181818;stroke-width:1.042;"/></g><g><title>Auth-Service</title><rect x="801.827" y="84.603" width="8.333" height="1209.749" fill="#000" fill-opacity="0"/><line x1="805.473" y1="84.603" x2="805.473" y2="1294.352" style="stroke:#181818;stroke-width:0.521;stroke-dasharray:5.208,5.208;"/></g><g><title></title><rect x="800.264" y="282.585" width="10.417" height="74.235" fill="#FFF" style="stroke:#181818;stroke-width:1.042;"/></g><g><title>TI-Messenger-Service</title><rect x="1056.701" y="84.603" width="8.333" height="1209.749" fill="#000" fill-opacity="0"/><line x1="1060.347" y1="84.603" x2="1060.347" y2="1294.352" style="stroke:#181818;stroke-width:0.521;stroke-dasharray:5.208,5.208;"/></g><g><title></title><rect x="1055.139" y="580.729" width="10.417" height="202.661" fill="#FFF" style="stroke:#181818;stroke-width:1.042;"/></g><rect x="10.417" y="35.026" width="196.932" height="48.535" fill="#E2E2F0" style="stroke:#181818;stroke-width:0.521;" rx="2.604" ry="2.604"/><text x="17.708" y="55.854" fill="#000" font-size="14.583" textLength="182.349">TI-Messenger-Fachdienst</text><text x="33.42" y="72.83" fill="#000" font-size="14.583" textLength="150.925">Registrierungsdienst</text><rect x="282.569" y="35.026" width="113.327" height="48.535" fill="#E2E2F0" style="stroke:#181818;stroke-width:0.521;" rx="2.604" ry="2.604"/><text x="299.688" y="55.854" fill="#000" font-size="14.583" textLength="79.09">TI-Provider</text><text x="289.861" y="72.83" fill="#000" font-size="14.583" textLength="98.744">OAuth-Server</text><rect x="444.285" y="52.002" width="208.845" height="31.559" fill="#E2E2F0" style="stroke:#181818;stroke-width:0.521;" rx="2.604" ry="2.604"/><text x="451.577" y="72.83" fill="#000" font-size="14.583" textLength="194.262">VZD FHIR TIM-Provider-API</text><rect x="751.512" y="52.002" width="107.922" height="31.559" fill="#E2E2F0" style="stroke:#181818;stroke-width:0.521;" rx="2.604" ry="2.604"/><text x="758.803" y="72.83" fill="#000" font-size="14.583" textLength="93.339">Auth-Service</text><rect x="974.645" y="35.026" width="171.404" height="48.535" fill="#E2E2F0" style="stroke:#181818;stroke-width:0.521;" rx="2.604" ry="2.604"/><text x="981.937" y="55.854" fill="#000" font-size="14.583" textLength="156.821">TI-Messenger-Service</text><text x="997.948" y="72.83" fill="#000" font-size="14.583" textLength="124.799">Messenger Proxy</text><rect x="10.417" y="1294.352" width="196.932" height="48.535" fill="#E2E2F0" style="stroke:#181818;stroke-width:0.521;" rx="2.604" ry="2.604"/><text x="17.708" y="1315.18" fill="#000" font-size="14.583" textLength="182.349">TI-Messenger-Fachdienst</text><text x="33.42" y="1332.156" fill="#000" font-size="14.583" textLength="150.925">Registrierungsdienst</text><rect x="282.569" y="1294.352" width="113.327" height="48.535" fill="#E2E2F0" style="stroke:#181818;stroke-width:0.521;" rx="2.604" ry="2.604"/><text x="299.688" y="1315.18" fill="#000" font-size="14.583" textLength="79.09">TI-Provider</text><text x="289.861" y="1332.156" fill="#000" font-size="14.583" textLength="98.744">OAuth-Server</text><rect x="444.285" y="1294.352" width="208.845" height="31.559" fill="#E2E2F0" style="stroke:#181818;stroke-width:0.521;" rx="2.604" ry="2.604"/><text x="451.577" y="1315.18" fill="#000" font-size="14.583" textLength="194.262">VZD FHIR TIM-Provider-API</text><rect x="751.512" y="1294.352" width="107.922" height="31.559" fill="#E2E2F0" style="stroke:#181818;stroke-width:0.521;" rx="2.604" ry="2.604"/><text x="758.803" y="1315.18" fill="#000" font-size="14.583" textLength="93.339">Auth-Service</text><rect x="974.645" y="1294.352" width="171.404" height="48.535" fill="#E2E2F0" style="stroke:#181818;stroke-width:0.521;" rx="2.604" ry="2.604"/><text x="981.937" y="1315.18" fill="#000" font-size="14.583" textLength="156.821">TI-Messenger-Service</text><text x="997.948" y="1332.156" fill="#000" font-size="14.583" textLength="124.799">Messenger Proxy</text><polygon points="321.525,126.546,331.941,130.713,321.525,134.88,325.691,130.713" fill="#181818" style="stroke:#181818;stroke-width:1.042;stroke-linejoin:miter;stroke-miterlimit:10;"/><line x1="114.091" y1="130.713" x2="327.775" y2="130.713" style="stroke:#181818;stroke-width:1.042;"/><text x="121.383" y="117.554" fill="#000" font-size="13.542" textLength="31.223" font-weight="700">[01]</text><text x="156.772" y="109.673" fill="#000" font-size="13.542" textLength="35.692">POST</text><text x="192.464" y="109.673" fill="#000" font-size="13.542"> </text><text x="196.769" y="109.673" fill="#000" font-size="13.542" textLength="42.913">/token</text><text x="239.681" y="109.673" fill="#000" font-size="13.542"> </text><text x="243.986" y="109.673" fill="#000" font-size="13.542" textLength="65.91">(client_id,</text><text x="156.772" y="125.436" fill="#000" font-size="13.542" textLength="91.287">client_secret)</text><line x1="344.441" y1="176.823" x2="388.191" y2="176.823" style="stroke:#181818;stroke-width:1.042;"/><line x1="388.191" y1="176.823" x2="388.191" y2="190.365" style="stroke:#181818;stroke-width:1.042;"/><line x1="345.483" y1="190.365" x2="388.191" y2="190.365" style="stroke:#181818;stroke-width:1.042;"/><polygon points="355.9,186.198,345.483,190.365,355.9,194.531,351.733,190.365" fill="#181818" style="stroke:#181818;stroke-width:1.042;stroke-linejoin:miter;stroke-miterlimit:10;"/><text x="351.733" y="163.664" fill="#000" font-size="13.542" textLength="31.223" font-weight="700">[02]</text><text x="387.122" y="155.783" fill="#000" font-size="13.542" textLength="35.844">prüfe</text><text x="422.967" y="155.783" fill="#000" font-size="13.542"> </text><text x="427.271" y="155.783" fill="#000" font-size="13.542" textLength="56.322">client_id</text><text x="483.593" y="155.783" fill="#000" font-size="13.542"> </text><text x="487.898" y="155.783" fill="#000" font-size="13.542" textLength="25.761">und</text><text x="387.122" y="171.546" fill="#000" font-size="13.542" textLength="86.004">client_secret</text><polygon points="125.549,216.545,115.133,220.711,125.549,224.878,121.383,220.711" fill="#181818" style="stroke:#181818;stroke-width:1.042;stroke-linejoin:miter;stroke-miterlimit:10;"/><line x1="119.299" y1="220.711" x2="332.983" y2="220.711" style="stroke:#181818;stroke-width:1.042;stroke-dasharray:2.083,2.083;"/><text x="131.799" y="215.434" fill="#000" font-size="13.542" textLength="31.223" font-weight="700">[03]</text><text x="167.189" y="215.434" fill="#000" font-size="13.542" textLength="159.544">ti-provider-accesstoken</text><polygon points="787.764,278.418,798.181,282.585,787.764,286.751,791.931,282.585" fill="#181818" style="stroke:#181818;stroke-width:1.042;stroke-linejoin:miter;stroke-miterlimit:10;"/><line x1="114.091" y1="282.585" x2="794.014" y2="282.585" style="stroke:#181818;stroke-width:1.042;"/><text x="121.383" y="261.544" fill="#000" font-size="13.542" textLength="31.223" font-weight="700">[04]</text><text x="156.772" y="245.781" fill="#000" font-size="13.542" textLength="27.321">GET</text><text x="184.093" y="245.781" fill="#000" font-size="13.542"> </text><text x="188.398" y="245.781" fill="#000" font-size="13.542" textLength="166.269">/ti-provider-authenticate</text><text x="156.772" y="261.544" fill="#000" font-size="13.542" textLength="100.544">(Authorization:</text><text x="257.316" y="261.544" fill="#000" font-size="13.542"> </text><text x="261.621" y="261.544" fill="#000" font-size="13.542" textLength="51.614">"Bearer</text><text x="156.772" y="277.308" fill="#000" font-size="13.542" textLength="171.056">ti-provider-accesstoken")</text><line x1="810.681" y1="312.931" x2="854.431" y2="312.931" style="stroke:#181818;stroke-width:1.042;"/><line x1="854.431" y1="312.931" x2="854.431" y2="326.473" style="stroke:#181818;stroke-width:1.042;"/><line x1="811.723" y1="326.473" x2="854.431" y2="326.473" style="stroke:#181818;stroke-width:1.042;"/><polygon points="822.139,322.306,811.723,326.473,822.139,330.64,817.973,326.473" fill="#181818" style="stroke:#181818;stroke-width:1.042;stroke-linejoin:miter;stroke-miterlimit:10;"/><text x="817.973" y="307.654" fill="#000" font-size="13.542" textLength="31.223" font-weight="700">[05]</text><text x="853.362" y="307.654" fill="#000" font-size="13.542" textLength="35.844">prüfe</text><text x="889.206" y="307.654" fill="#000" font-size="13.542"> </text><text x="893.511" y="307.654" fill="#000" font-size="13.542" textLength="159.544">ti-provider-accesstoken</text><polygon points="125.549,352.653,115.133,356.82,125.549,360.986,121.383,356.82" fill="#181818" style="stroke:#181818;stroke-width:1.042;stroke-linejoin:miter;stroke-miterlimit:10;"/><line x1="119.299" y1="356.82" x2="799.223" y2="356.82" style="stroke:#181818;stroke-width:1.042;stroke-dasharray:2.083,2.083;"/><text x="131.799" y="351.543" fill="#000" font-size="13.542" textLength="31.223" font-weight="700">[06]</text><text x="167.189" y="351.543" fill="#000" font-size="13.542" textLength="145.586">provider-accesstoken</text><path d="M72.424,369.32 L139.552,369.32 L139.552,376.75 L129.136,387.166 L72.424,387.166 L72.424,369.32" style="stroke:#000;stroke-width:1.563;" fill="#D3D3D3"/><rect x="72.424" y="369.32" width="1056.673" height="900.033" fill="none" style="stroke:#000;stroke-width:1.563;"/><text x="88.049" y="382.931" fill="#000" font-size="13.542" textLength="20.253" font-weight="700">alt</text><text x="155.177" y="388.102" fill="#000" font-size="11.458" font-weight="700">[</text><text x="160.414" y="386.873" fill="#000" font-size="16.667" textLength="457.837" font-weight="700">Matrix-Domain nicht in der Föderation enthalten</text><text x="618.251" y="388.102" fill="#000" font-size="11.458" font-weight="700">]</text><path d="M92.216,405.526 L201.926,405.526 L201.926,412.956 L191.51,423.372 L92.216,423.372 L92.216,405.526" style="stroke:#000;stroke-width:1.563;" fill="#EEE"/><rect x="92.216" y="405.526" width="1010.839" height="476.196" fill="none" style="stroke:#000;stroke-width:1.563;"/><text x="107.841" y="419.137" fill="#000" font-size="13.542" textLength="62.835" font-weight="700">optional</text><polygon points="530.999,530.452,541.416,534.619,530.999,538.786,535.166,534.619" fill="#181818" style="stroke:#181818;stroke-width:1.042;stroke-linejoin:miter;stroke-miterlimit:10;"/><line x1="114.091" y1="534.619" x2="537.249" y2="534.619" style="stroke:#181818;stroke-width:1.042;"/><text x="121.383" y="489.934" fill="#000" font-size="13.542" textLength="31.223" font-weight="700">[07]</text><text x="156.772" y="450.525" fill="#000" font-size="13.542" textLength="35.692">POST</text><text x="156.772" y="466.289" fill="#000" font-size="13.542" textLength="223.272">/tim-provider-services/federation</text><text x="156.772" y="482.052" fill="#000" font-size="13.542" textLength="100.544">(Authorization:</text><text x="257.316" y="482.052" fill="#000" font-size="13.542"> </text><text x="261.621" y="482.052" fill="#000" font-size="13.542" textLength="51.614">"Bearer</text><text x="156.772" y="497.815" fill="#000" font-size="13.542" textLength="157.098">provider-accesstoken")</text><text x="156.772" y="513.579" fill="#000" font-size="13.542" textLength="63.635">{domain,</text><text x="220.407" y="513.579" fill="#000" font-size="13.542"> </text><text x="224.712" y="513.579" fill="#000" font-size="13.542" textLength="82.863">telematikID,</text><text x="156.772" y="529.342" fill="#000" font-size="13.542" textLength="85.872">isInsurance}</text><polygon points="1042.639,576.563,1053.055,580.729,1042.639,584.896,1046.805,580.729" fill="#181818" style="stroke:#181818;stroke-width:1.042;stroke-linejoin:miter;stroke-miterlimit:10;"/><line x1="553.916" y1="580.729" x2="1048.889" y2="580.729" style="stroke:#181818;stroke-width:1.042;"/><text x="561.208" y="567.57" fill="#000" font-size="13.542" textLength="31.223" font-weight="700">[08]</text><text x="596.597" y="559.689" fill="#000" font-size="13.542" textLength="27.321">GET</text><text x="596.597" y="575.452" fill="#000" font-size="13.542" textLength="279.542">{domain}/.well-known/matrix/server:443</text><path d="M532.041,593.229 L599.169,593.229 L599.169,600.659 L588.752,611.076 L532.041,611.076 L532.041,593.229" style="stroke:#000;stroke-width:1.563;" fill="#D3D3D3"/><rect x="532.041" y="593.229" width="544.973" height="122.038" fill="none" style="stroke:#000;stroke-width:1.563;"/><text x="547.666" y="606.841" fill="#000" font-size="13.542" textLength="20.253" font-weight="700">alt</text><text x="614.794" y="612.011" fill="#000" font-size="11.458" font-weight="700">[</text><text x="620.031" y="610.783" fill="#000" font-size="16.667" textLength="350.48" font-weight="700">well-known information not available</text><text x="970.511" y="612.011" fill="#000" font-size="11.458" font-weight="700">]</text><polygon points="565.374,643.115,554.958,647.282,565.374,651.449,561.208,647.282" fill="#181818" style="stroke:#181818;stroke-width:1.042;stroke-linejoin:miter;stroke-miterlimit:10;"/><line x1="559.124" y1="647.282" x2="1054.097" y2="647.282" style="stroke:#181818;stroke-width:1.042;"/><text x="571.624" y="642.005" fill="#000" font-size="13.542" textLength="31.223" font-weight="700">[09]</text><text x="607.013" y="642.005" fill="#000" font-size="13.542" textLength="34.892">HTTP</text><text x="641.906" y="642.005" fill="#000" font-size="13.542"> </text><text x="646.21" y="642.005" fill="#000" font-size="13.542" textLength="47.442">ERROR</text><line x1="553.916" y1="693.392" x2="597.666" y2="693.392" style="stroke:#181818;stroke-width:1.042;"/><line x1="597.666" y1="693.392" x2="597.666" y2="706.934" style="stroke:#181818;stroke-width:1.042;"/><line x1="554.958" y1="706.934" x2="597.666" y2="706.934" style="stroke:#181818;stroke-width:1.042;"/><polygon points="565.374,702.767,554.958,706.934,565.374,711.1,561.208,706.934" fill="#181818" style="stroke:#181818;stroke-width:1.042;stroke-linejoin:miter;stroke-miterlimit:10;"/><text x="561.208" y="680.233" fill="#000" font-size="13.542" textLength="31.223" font-weight="700">[10]</text><text x="596.597" y="672.352" fill="#000" font-size="13.542" textLength="36.089">Store</text><text x="632.686" y="672.352" fill="#000" font-size="13.542"> </text><text x="636.99" y="672.352" fill="#000" font-size="13.542" textLength="25.847">443</text><text x="662.837" y="672.352" fill="#000" font-size="13.542"> </text><text x="667.142" y="672.352" fill="#000" font-size="13.542" textLength="15.353">as</text><text x="682.495" y="672.352" fill="#000" font-size="13.542"> </text><text x="686.8" y="672.352" fill="#000" font-size="13.542" textLength="47.647">default</text><text x="734.447" y="672.352" fill="#000" font-size="13.542"> </text><text x="738.751" y="672.352" fill="#000" font-size="13.542" textLength="36.506">PORT</text><text x="775.257" y="672.352" fill="#000" font-size="13.542"> </text><text x="779.561" y="672.352" fill="#000" font-size="13.542" textLength="18.62">for</text><text x="596.597" y="688.115" fill="#000" font-size="13.542" textLength="50.715">domain</text><polygon points="565.374,779.224,554.958,783.39,565.374,787.557,561.208,783.39" fill="#181818" style="stroke:#181818;stroke-width:1.042;stroke-linejoin:miter;stroke-miterlimit:10;"/><line x1="559.124" y1="783.39" x2="1054.097" y2="783.39" style="stroke:#181818;stroke-width:1.042;"/><text x="571.624" y="762.35" fill="#000" font-size="13.542" textLength="31.223" font-weight="700">[11]</text><text x="607.013" y="746.587" fill="#000" font-size="13.542" textLength="34.892">HTTP</text><text x="641.906" y="746.587" fill="#000" font-size="13.542"> </text><text x="646.21" y="746.587" fill="#000" font-size="13.542" textLength="25.847">200</text><text x="672.057" y="746.587" fill="#000" font-size="13.542"> </text><text x="676.362" y="746.587" fill="#000" font-size="13.542" textLength="19.539">OK</text><text x="695.9" y="746.587" fill="#000" font-size="13.542"> </text><text x="700.205" y="746.587" fill="#000" font-size="13.542" textLength="65.645">Response</text><text x="765.85" y="746.587" fill="#000" font-size="13.542"> </text><text x="770.155" y="746.587" fill="#000" font-size="13.542" textLength="33.49">body</text><text x="607.013" y="762.35" fill="#000" font-size="13.542">{</text><text x="615.629" y="762.35" fill="#000" font-size="13.542"> </text><text x="619.934" y="762.35" fill="#000" font-size="13.542" textLength="77.382">"m.server":</text><text x="607.013" y="778.113" fill="#000" font-size="13.542" textLength="130.868">"HOSTNAME:PORT"</text><text x="737.881" y="778.113" fill="#000" font-size="13.542"> </text><text x="742.185" y="778.113" fill="#000" font-size="13.542">}</text><line x1="553.916" y1="813.737" x2="597.666" y2="813.737" style="stroke:#181818;stroke-width:1.042;"/><line x1="597.666" y1="813.737" x2="597.666" y2="827.279" style="stroke:#181818;stroke-width:1.042;"/><line x1="554.958" y1="827.279" x2="597.666" y2="827.279" style="stroke:#181818;stroke-width:1.042;"/><polygon points="565.374,823.112,554.958,827.279,565.374,831.445,561.208,827.279" fill="#181818" style="stroke:#181818;stroke-width:1.042;stroke-linejoin:miter;stroke-miterlimit:10;"/><text x="561.208" y="808.46" fill="#000" font-size="13.542" textLength="31.223" font-weight="700">[12]</text><text x="596.597" y="808.46" fill="#000" font-size="13.542" textLength="36.089">Store</text><text x="632.686" y="808.46" fill="#000" font-size="13.542"> </text><text x="636.99" y="808.46" fill="#000" font-size="13.542" textLength="36.506">PORT</text><text x="673.496" y="808.46" fill="#000" font-size="13.542"> </text><text x="677.8" y="808.46" fill="#000" font-size="13.542" textLength="18.62">for</text><text x="696.42" y="808.46" fill="#000" font-size="13.542"> </text><text x="700.725" y="808.46" fill="#000" font-size="13.542" textLength="50.715">domain</text><polygon points="125.549,869.222,115.133,873.389,125.549,877.555,121.383,873.389" fill="#181818" style="stroke:#181818;stroke-width:1.042;stroke-linejoin:miter;stroke-miterlimit:10;"/><line x1="119.299" y1="873.389" x2="542.458" y2="873.389" style="stroke:#181818;stroke-width:1.042;stroke-dasharray:2.083,2.083;"/><text x="131.799" y="860.23" fill="#000" font-size="13.542" textLength="31.223" font-weight="700">[13]</text><text x="167.189" y="852.348" fill="#000" font-size="13.542" textLength="34.892">HTTP</text><text x="202.081" y="852.348" fill="#000" font-size="13.542"> </text><text x="206.385" y="852.348" fill="#000" font-size="13.542" textLength="25.847">200</text><text x="232.232" y="852.348" fill="#000" font-size="13.542"> </text><text x="236.537" y="852.348" fill="#000" font-size="13.542" textLength="19.539">OK</text><text x="256.076" y="852.348" fill="#000" font-size="13.542"> </text><text x="260.38" y="852.348" fill="#000" font-size="13.542" textLength="65.645">Response</text><text x="326.025" y="852.348" fill="#000" font-size="13.542"> </text><text x="330.33" y="852.348" fill="#000" font-size="13.542" textLength="33.49">body</text><text x="167.189" y="868.112" fill="#000" font-size="13.542" textLength="87.426">domainArray</text><text x="254.614" y="868.112" fill="#000" font-size="13.542"> </text><text x="258.919" y="868.112" fill="#000" font-size="13.542" textLength="27.685">json</text><path d="M92.216,900.472 L201.926,900.472 L201.926,907.902 L191.51,918.319 L92.216,918.319 L92.216,900.472" style="stroke:#000;stroke-width:1.563;" fill="#EEE"/><rect x="92.216" y="900.472" width="478.367" height="152.01" fill="none" style="stroke:#000;stroke-width:1.563;"/><text x="107.841" y="914.083" fill="#000" font-size="13.542" textLength="62.835" font-weight="700">optional</text><polygon points="530.999,993.872,541.416,998.039,530.999,1002.205,535.166,998.039" fill="#181818" style="stroke:#181818;stroke-width:1.042;stroke-linejoin:miter;stroke-miterlimit:10;"/><line x1="114.091" y1="998.039" x2="537.249" y2="998.039" style="stroke:#181818;stroke-width:1.042;"/><text x="121.383" y="969.117" fill="#000" font-size="13.542" textLength="31.223" font-weight="700">[14]</text><text x="156.772" y="945.472" fill="#000" font-size="13.542" textLength="27.321">GET</text><text x="156.772" y="961.235" fill="#000" font-size="13.542" textLength="374.227">/tim-provider-services/FederationList/federationList.jws</text><text x="156.772" y="976.998" fill="#000" font-size="13.542" textLength="100.544">(Authorization:</text><text x="257.316" y="976.998" fill="#000" font-size="13.542"> </text><text x="261.621" y="976.998" fill="#000" font-size="13.542" textLength="51.614">"Bearer</text><text x="156.772" y="992.762" fill="#000" font-size="13.542" textLength="150.869">provider-accesstoken)</text><polygon points="125.549,1039.982,115.133,1044.149,125.549,1048.315,121.383,1044.149" fill="#181818" style="stroke:#181818;stroke-width:1.042;stroke-linejoin:miter;stroke-miterlimit:10;"/><line x1="119.299" y1="1044.149" x2="542.458" y2="1044.149" style="stroke:#181818;stroke-width:1.042;stroke-dasharray:2.083,2.083;"/><text x="131.799" y="1030.99" fill="#000" font-size="13.542" textLength="31.223" font-weight="700">[15]</text><text x="167.189" y="1023.108" fill="#000" font-size="13.542" textLength="34.892">HTTP</text><text x="202.081" y="1023.108" fill="#000" font-size="13.542"> </text><text x="206.385" y="1023.108" fill="#000" font-size="13.542" textLength="25.847">200</text><text x="232.232" y="1023.108" fill="#000" font-size="13.542"> </text><text x="236.537" y="1023.108" fill="#000" font-size="13.542" textLength="19.539">OK</text><text x="256.076" y="1023.108" fill="#000" font-size="13.542"> </text><text x="260.38" y="1023.108" fill="#000" font-size="13.542" textLength="65.645">Response</text><text x="326.025" y="1023.108" fill="#000" font-size="13.542"> </text><text x="330.33" y="1023.108" fill="#000" font-size="13.542" textLength="33.49">body</text><text x="167.189" y="1038.872" fill="#000" font-size="13.542" textLength="93.502">federationList</text><text x="260.691" y="1038.872" fill="#000" font-size="13.542"> </text><text x="264.995" y="1038.872" fill="#000" font-size="13.542" textLength="27.685">json</text><path d="M92.216,1071.232 L201.926,1071.232 L201.926,1078.662 L191.51,1089.079 L92.216,1089.079 L92.216,1071.232" style="stroke:#000;stroke-width:1.563;" fill="#EEE"/><rect x="92.216" y="1071.232" width="478.367" height="183.537" fill="none" style="stroke:#000;stroke-width:1.563;"/><text x="107.841" y="1084.843" fill="#000" font-size="13.542" textLength="62.835" font-weight="700">optional</text><polygon points="530.999,1180.396,541.416,1184.562,530.999,1188.729,535.166,1184.562" fill="#181818" style="stroke:#181818;stroke-width:1.042;stroke-linejoin:miter;stroke-miterlimit:10;"/><line x1="114.091" y1="1184.562" x2="537.249" y2="1184.562" style="stroke:#181818;stroke-width:1.042;"/><text x="121.383" y="1147.758" fill="#000" font-size="13.542" textLength="31.223" font-weight="700">[16]</text><text x="156.772" y="1116.232" fill="#000" font-size="13.542" textLength="27.321">GET</text><text x="156.772" y="1131.995" fill="#000" font-size="13.542" textLength="322.864">/tim-provider-services/localization?mxid=[MXID</text><text x="156.772" y="1147.758" fill="#000" font-size="13.542" textLength="12.345">in</text><text x="169.117" y="1147.758" fill="#000" font-size="13.542"> </text><text x="173.421" y="1147.758" fill="#000" font-size="13.542" textLength="26.865">URL</text><text x="200.286" y="1147.758" fill="#000" font-size="13.542"> </text><text x="204.591" y="1147.758" fill="#000" font-size="13.542" textLength="40.116">Form]</text><text x="156.772" y="1163.522" fill="#000" font-size="13.542" textLength="100.544">(Authorization:</text><text x="257.316" y="1163.522" fill="#000" font-size="13.542"> </text><text x="261.621" y="1163.522" fill="#000" font-size="13.542" textLength="51.614">"Bearer</text><text x="156.772" y="1179.285" fill="#000" font-size="13.542" textLength="150.869">provider-accesstoken)</text><polygon points="125.549,1242.269,115.133,1246.436,125.549,1250.602,121.383,1246.436" fill="#181818" style="stroke:#181818;stroke-width:1.042;stroke-linejoin:miter;stroke-miterlimit:10;"/><line x1="119.299" y1="1246.436" x2="542.458" y2="1246.436" style="stroke:#181818;stroke-width:1.042;stroke-dasharray:2.083,2.083;"/><text x="131.799" y="1225.395" fill="#000" font-size="13.542" textLength="31.223" font-weight="700">[17]</text><text x="167.189" y="1209.632" fill="#000" font-size="13.542" textLength="34.892">HTTP</text><text x="202.081" y="1209.632" fill="#000" font-size="13.542"> </text><text x="206.385" y="1209.632" fill="#000" font-size="13.542" textLength="25.847">200</text><text x="232.232" y="1209.632" fill="#000" font-size="13.542"> </text><text x="236.537" y="1209.632" fill="#000" font-size="13.542" textLength="19.539">OK</text><text x="256.076" y="1209.632" fill="#000" font-size="13.542"> </text><text x="260.38" y="1209.632" fill="#000" font-size="13.542" textLength="65.645">Response</text><text x="326.025" y="1209.632" fill="#000" font-size="13.542"> </text><text x="330.33" y="1209.632" fill="#000" font-size="13.542" textLength="33.49">body</text><text x="167.189" y="1225.395" fill="#000" font-size="13.542" textLength="54.596">&lt;enum:</text><text x="221.785" y="1225.395" fill="#000" font-size="13.542"> </text><text x="226.089" y="1225.395" fill="#000" font-size="13.542" textLength="32.036">[org,</text><text x="258.125" y="1225.395" fill="#000" font-size="13.542"> </text><text x="262.43" y="1225.395" fill="#000" font-size="13.542" textLength="39.521">pract,</text><text x="301.951" y="1225.395" fill="#000" font-size="13.542"> </text><text x="306.255" y="1225.395" fill="#000" font-size="13.542" textLength="61.539">orgPract,</text><text x="167.189" y="1241.159" fill="#000" font-size="13.542" textLength="50.411">none]></text><text x="217.599" y="1241.159" fill="#000" font-size="13.542"> </text><text x="221.904" y="1241.159" fill="#000" font-size="13.542" textLength="27.685">json</text><?plantuml-src jLLDRzf04BtxLuoSIoBXGDge1qIfg804DHHaQDCsHDLYZ_46UzVQNGWaoj_ggRVyiOu_-6g2qahjYMKz--QzjsziFUKYOOh5u2SSJYeLIwztBXLBBhblGdYrinzB8RrGoHWXO956os8p8yKi7gC2kpQkNrKgrxPbKRNX7a-OCA1yO1hiOSVfejOe9gYSDlD2dwFGPYHSd71j54Sr4nETxzex29Aj4FfAphcFQYHwZPa9dG6gEIhR6ii5r3I_m-h9c_hdRqsdVTvndIPNw1cfbhLo-gmE1vSXDpY8vHHt6WH9re0EGdeGXftkkfNJw7TswGGvdJK1xk5kGQYVAYuAHsAz1THXiIIpKFX00YoBd7BgfBOA_TvW26L3F0KSUX5vOhvplmJ5KgEdq1nPp3DypWoInvkrP1OPLW0bwl5dWB26W1arsq79YgbQ-LKmt4bMifdd4TECWkNZDdh1Co3uirPAS_iKcKBOtAFQaJXCFPAAtp73fQY2_HwP8kLx-jXRYW9c1MpLfb2nZrwmKV0IVOAbp4Rcu89FGdEcS0a7tSvW-DNj3LgmoL2NKI8NJbF6Z0iGt0iDq8AGeVtuWtuoHK1IGq93KIJCcYWvIq0cwLCMhPnArZVAuuq4dKT2bmDS0Uwtx7c_HkBUpoYMm624CHsQTfebuBeZz4mnuU73bgU9HKadGg7Ehwuu_50-liKeSgP2tefod4alwsoqggUdhpS0eVuJxpPOP5aWLPnx9QG1DcSyOkC8LtxHg1G6dG-7VMYvRi-5WcMwEw3nHI0IwKJv6B1PPCXBTmW433dzT82iDH8KKFJYWju7S54dKcYa2VENS0zsV9mhiydRSxgKZurkgveYsl2mdHJIkg81Anw_DxQoaY9w-xlcrGsbs19kjDmDP9BHtvkROiAUYqrx7PiBUe5kfIZzUtnpg_ykJKTFWlAYiDsM_r9R93qM5RJVnGlklxtgVkaqqndyv5v0cr9r_T_brP2-R5MuacfI8amwNm9Qz_ELa0Alw_j4_m80?></g></svg>