<svg xmlns="http://www.w3.org/2000/svg" xmlns:xlink="http://www.w3.org/1999/xlink" contentStyleType="text/css" data-diagram-type="SEQUENCE" height="567.7083px" preserveAspectRatio="none" style="width:1154px;height:567px;background:#FFFFFF;" version="1.1" viewBox="0 0 1154 567" width="1154.1667px" zoomAndPan="magnify"><defs/><g><g><title>Browser</title><rect fill="#FFFFFF" height="313.7451" style="stroke:#181818;stroke-width:1.0417;" width="10.4167" x="301.5101" y="134.0902"/></g><g><title>Auth-Service</title><rect fill="#FFFFFF" height="134.9284" style="stroke:#181818;stroke-width:1.0417;" width="10.4167" x="734.6354" y="238.6719"/></g><g><title>Org-Admin</title><rect fill="#000000" fill-opacity="0.00000" height="364.9251" width="8.3333" x="43.5303" y="101.6602"/><line style="stroke:#181818;stroke-width:0.5208;stroke-dasharray:5.0,5.0;" x1="46.875" x2="46.875" y1="101.6602" y2="466.5853"/></g><g><title>Browser</title><rect fill="#000000" fill-opacity="0.00000" height="364.9251" width="8.3333" x="302.5518" y="101.6602"/><line style="stroke:#181818;stroke-width:0.5208;stroke-dasharray:5.0,5.0;" x1="305.7938" x2="305.7938" y1="101.6602" y2="466.5853"/></g><g><title>SSP Backend</title><rect fill="#000000" fill-opacity="0.00000" height="364.9251" width="8.3333" x="616.5975" y="101.6602"/><line style="stroke:#181818;stroke-width:0.5208;stroke-dasharray:5.0,5.0;" x1="620.2291" x2="620.2291" y1="101.6602" y2="466.5853"/></g><g><title>Auth-Service</title><rect fill="#000000" fill-opacity="0.00000" height="364.9251" width="8.3333" x="735.6771" y="101.6602"/><line style="stroke:#181818;stroke-width:0.5208;stroke-dasharray:5.0,5.0;" x1="739.0076" x2="739.0076" y1="101.6602" y2="466.5853"/></g><g><title>FHIR-Proxy</title><rect fill="#000000" fill-opacity="0.00000" height="364.9251" width="8.3333" x="965.0675" y="101.6602"/><line style="stroke:#181818;stroke-width:0.5208;stroke-dasharray:5.0,5.0;" x1="968.8059" x2="968.8059" y1="101.6602" y2="466.5853"/></g><g><title>FHIR-Directory</title><rect fill="#000000" fill-opacity="0.00000" height="364.9251" width="8.3333" x="1083.371" y="101.6602"/><line style="stroke:#181818;stroke-width:0.5208;stroke-dasharray:5.0,5.0;" x1="1087.3708" x2="1087.3708" y1="101.6602" y2="466.5853"/></g><g class="participant participant-head" data-participant="o"><text fill="#000000" font-family="sans-serif" font-size="14.5833" lengthAdjust="spacing" textLength="78.7272" x="5.2083" y="81.2449">Org-Admin</text><text fill="#000000" font-family="sans-serif" font-size="14.5833" lengthAdjust="spacing" textLength="55.1219" x="17.011" y="98.2208">oder LE</text><ellipse cx="47.6969" cy="14.0625" fill="#E3E3E3" rx="8.3333" ry="8.3333" style="stroke:#181818;stroke-width:0.5208;"/><path d="M47.6969,22.3958 L47.6969,50.5208 M34.1553,30.7292 L61.2386,30.7292 M47.6969,50.5208 L34.1553,66.1458 M47.6969,50.5208 L61.2386,66.1458" fill="none" style="stroke:#181818;stroke-width:0.5208;"/></g><g class="participant participant-tail" data-participant="o"><text fill="#000000" font-family="sans-serif" font-size="14.5833" lengthAdjust="spacing" textLength="78.7272" x="5.2083" y="479.0802">Org-Admin</text><text fill="#000000" font-family="sans-serif" font-size="14.5833" lengthAdjust="spacing" textLength="55.1219" x="17.011" y="496.0561">oder LE</text><ellipse cx="47.6969" cy="508.3496" fill="#E3E3E3" rx="8.3333" ry="8.3333" style="stroke:#181818;stroke-width:0.5208;"/><path d="M47.6969,516.6829 L47.6969,544.8079 M34.1553,525.0163 L61.2386,525.0163 M47.6969,544.8079 L34.1553,560.4329 M47.6969,544.8079 L61.2386,560.4329" fill="none" style="stroke:#181818;stroke-width:0.5208;"/></g><g class="participant participant-head" data-participant="cl"><rect fill="#E3E3E3" height="48.5352" rx="2.6042" ry="2.6042" style="stroke:#181818;stroke-width:0.5208;" width="112.266" x="250.5854" y="52.0833"/><text fill="#000000" font-family="sans-serif" font-size="14.5833" lengthAdjust="spacing" textLength="59.4157" x="277.0106" y="72.9116">Browser</text><text fill="#000000" font-family="sans-serif" font-size="14.5833" lengthAdjust="spacing" textLength="97.6827" x="257.8771" y="89.8875">SSP Frontend</text></g><g class="participant participant-tail" data-participant="cl"><rect fill="#E3E3E3" height="48.5352" rx="2.6042" ry="2.6042" style="stroke:#181818;stroke-width:0.5208;" width="112.266" x="250.5854" y="465.5436"/><text fill="#000000" font-family="sans-serif" font-size="14.5833" lengthAdjust="spacing" textLength="59.4157" x="277.0106" y="486.3719">Browser</text><text fill="#000000" font-family="sans-serif" font-size="14.5833" lengthAdjust="spacing" textLength="97.6827" x="257.8771" y="503.3478">SSP Frontend</text></g><g class="participant participant-head" data-participant="be"><rect fill="#E3E3E3" height="31.5592" rx="2.6042" ry="2.6042" style="stroke:#181818;stroke-width:0.5208;" width="109.4035" x="566.0624" y="69.0592"/><text fill="#000000" font-family="sans-serif" font-size="14.5833" lengthAdjust="spacing" textLength="94.8201" x="573.3541" y="89.8875">SSP Backend</text></g><g class="participant participant-tail" data-participant="be"><rect fill="#E3E3E3" height="31.5592" rx="2.6042" ry="2.6042" style="stroke:#181818;stroke-width:0.5208;" width="109.4035" x="566.0624" y="465.5436"/><text fill="#000000" font-family="sans-serif" font-size="14.5833" lengthAdjust="spacing" textLength="94.8201" x="573.3541" y="486.3719">SSP Backend</text></g><g class="participant participant-head" data-participant="au"><rect fill="#E3E3E3" height="31.5592" rx="2.6042" ry="2.6042" style="stroke:#181818;stroke-width:0.5208;" width="107.9224" x="685.8826" y="69.0592"/><text fill="#000000" font-family="sans-serif" font-size="14.5833" lengthAdjust="spacing" textLength="93.339" x="693.1742" y="89.8875">Auth-Service</text></g><g class="participant participant-tail" data-participant="au"><rect fill="#E3E3E3" height="31.5592" rx="2.6042" ry="2.6042" style="stroke:#181818;stroke-width:0.5208;" width="107.9224" x="685.8826" y="465.5436"/><text fill="#000000" font-family="sans-serif" font-size="14.5833" lengthAdjust="spacing" textLength="93.339" x="693.1742" y="486.3719">Auth-Service</text></g><g class="participant participant-head" data-participant="fp"><rect fill="#E3E3E3" height="31.5592" rx="2.6042" ry="2.6042" style="stroke:#181818;stroke-width:0.5208;" width="94.6065" x="921.9309" y="69.0592"/><text fill="#000000" font-family="sans-serif" font-size="14.5833" lengthAdjust="spacing" textLength="80.0232" x="929.2226" y="89.8875">FHIR-Proxy</text></g><g class="participant participant-tail" data-participant="fp"><rect fill="#E3E3E3" height="31.5592" rx="2.6042" ry="2.6042" style="stroke:#181818;stroke-width:0.5208;" width="94.6065" x="921.9309" y="465.5436"/><text fill="#000000" font-family="sans-serif" font-size="14.5833" lengthAdjust="spacing" textLength="80.0232" x="929.2226" y="486.3719">FHIR-Proxy</text></g><g class="participant participant-head" data-participant="fd"><rect fill="#E3E3E3" height="31.5592" rx="2.6042" ry="2.6042" style="stroke:#181818;stroke-width:0.5208;" width="121.167" x="1026.9541" y="69.0592"/><text fill="#000000" font-family="sans-serif" font-size="14.5833" lengthAdjust="spacing" textLength="106.5837" x="1034.2458" y="89.8875">FHIR-Directory</text></g><g class="participant participant-tail" data-participant="fd"><rect fill="#E3E3E3" height="31.5592" rx="2.6042" ry="2.6042" style="stroke:#181818;stroke-width:0.5208;" width="121.167" x="1026.9541" y="465.5436"/><text fill="#000000" font-family="sans-serif" font-size="14.5833" lengthAdjust="spacing" textLength="106.5837" x="1034.2458" y="486.3719">FHIR-Directory</text></g><g><title>Browser</title><rect fill="#FFFFFF" height="313.7451" style="stroke:#181818;stroke-width:1.0417;" width="10.4167" x="301.5101" y="134.0902"/></g><g><title>Auth-Service</title><rect fill="#FFFFFF" height="134.9284" style="stroke:#181818;stroke-width:1.0417;" width="10.4167" x="734.6354" y="238.6719"/></g><g class="message" data-participant-1="o" data-participant-2="cl"><polygon fill="#181818" points="289.0101,129.9235,299.4268,134.0902,289.0101,138.2568,293.1768,134.0902" style="stroke:#181818;stroke-width:1.0417;"/><line style="stroke:#181818;stroke-width:1.0417;" x1="47.6969" x2="295.2601" y1="134.0902" y2="134.0902"/><text fill="#000000" font-family="sans-serif" font-size="13.5417" lengthAdjust="spacing" textLength="128.8376" x="54.9886" y="128.8132">[1] SSP UI aufrufen</text></g><g class="message" data-participant-1="cl" data-participant-2="cl"><line style="stroke:#181818;stroke-width:1.0417;" x1="311.9268" x2="355.6768" y1="164.4368" y2="164.4368"/><line style="stroke:#181818;stroke-width:1.0417;" x1="355.6768" x2="355.6768" y1="164.4368" y2="177.9785"/><line style="stroke:#181818;stroke-width:1.0417;" x1="312.9684" x2="355.6768" y1="177.9785" y2="177.9785"/><polygon fill="#181818" points="323.3851,173.8118,312.9684,177.9785,323.3851,182.1452,319.2184,177.9785" style="stroke:#181818;stroke-width:1.0417;"/><text fill="#000000" font-family="sans-serif" font-size="13.5417" lengthAdjust="spacing" textLength="203.7598" x="319.2184" y="159.1599">[2] Darstellung Login Auswahl</text></g><g class="message" data-participant-1="o" data-participant-2="cl"><polygon fill="#181818" points="289.0101,204.1585,299.4268,208.3252,289.0101,212.4919,293.1768,208.3252" style="stroke:#181818;stroke-width:1.0417;"/><line style="stroke:#181818;stroke-width:1.0417;" x1="47.6969" x2="295.2601" y1="208.3252" y2="208.3252"/><text fill="#000000" font-family="sans-serif" font-size="13.5417" lengthAdjust="spacing" textLength="228.8132" x="54.9886" y="203.0482">[3] Login mit Passwort ausw&#228;hlen</text></g><g class="message" data-participant-1="cl" data-participant-2="au"><polygon fill="#181818" points="722.1354,234.5052,732.5521,238.6719,722.1354,242.8385,726.3021,238.6719" style="stroke:#181818;stroke-width:1.0417;"/><line style="stroke:#181818;stroke-width:1.0417;" x1="311.9268" x2="728.3854" y1="238.6719" y2="238.6719"/><text fill="#000000" font-family="sans-serif" font-size="13.5417" lengthAdjust="spacing" textLength="182.1314" x="319.2184" y="233.3949">[3] Weiterleitung auf Login</text></g><g class="message" data-participant-1="au" data-participant-2="cl"><polygon fill="#181818" points="323.3851,264.8519,312.9684,269.0186,323.3851,273.1852,319.2184,269.0186" style="stroke:#181818;stroke-width:1.0417;"/><line style="stroke:#181818;stroke-width:1.0417;" x1="317.1351" x2="733.5938" y1="269.0186" y2="269.0186"/><text fill="#000000" font-family="sans-serif" font-size="13.5417" lengthAdjust="spacing" textLength="190.3503" x="329.6351" y="263.7416">[4] Darstellung Login Maske</text></g><g class="message" data-participant-1="o" data-participant-2="au"><polygon fill="#181818" points="722.1354,295.1986,732.5521,299.3652,722.1354,303.5319,726.3021,299.3652" style="stroke:#181818;stroke-width:1.0417;"/><line style="stroke:#181818;stroke-width:1.0417;" x1="47.6969" x2="728.3854" y1="299.3652" y2="299.3652"/><text fill="#000000" font-family="sans-serif" font-size="13.5417" lengthAdjust="spacing" textLength="281.4194" x="54.9886" y="294.0882">[5] Anmeldedaten eingeben &amp; best&#228;tigen</text></g><g class="message" data-participant-1="au" data-participant-2="au"><line style="stroke:#181818;stroke-width:1.0417;" x1="745.0521" x2="788.8021" y1="329.7119" y2="329.7119"/><line style="stroke:#181818;stroke-width:1.0417;" x1="788.8021" x2="788.8021" y1="329.7119" y2="343.2536"/><line style="stroke:#181818;stroke-width:1.0417;" x1="746.0938" x2="788.8021" y1="343.2536" y2="343.2536"/><polygon fill="#181818" points="756.5104,339.0869,746.0938,343.2536,756.5104,347.4202,752.3438,343.2536" style="stroke:#181818;stroke-width:1.0417;"/><text fill="#000000" font-family="sans-serif" font-size="13.5417" lengthAdjust="spacing" textLength="193.9738" x="752.3438" y="324.4349">[6] Anmeldedaten validieren</text></g><g class="message" data-participant-1="au" data-participant-2="cl"><polygon fill="#181818" points="323.3851,369.4336,312.9684,373.6003,323.3851,377.7669,319.2184,373.6003" style="stroke:#181818;stroke-width:1.0417;"/><line style="stroke:#181818;stroke-width:1.0417;" x1="317.1351" x2="738.8021" y1="373.6003" y2="373.6003"/><text fill="#000000" font-family="sans-serif" font-size="13.5417" lengthAdjust="spacing" textLength="308.8333" x="329.6351" y="368.3233">[7] R&#252;ckgabe Token, AAccount Informationen</text></g><g class="message" data-participant-1="cl" data-participant-2="cl"><line style="stroke:#181818;stroke-width:1.0417;" x1="311.9268" x2="355.6768" y1="403.9469" y2="403.9469"/><line style="stroke:#181818;stroke-width:1.0417;" x1="355.6768" x2="355.6768" y1="403.9469" y2="417.4886"/><line style="stroke:#181818;stroke-width:1.0417;" x1="312.9684" x2="355.6768" y1="417.4886" y2="417.4886"/><polygon fill="#181818" points="323.3851,413.3219,312.9684,417.4886,323.3851,421.6553,319.2184,417.4886" style="stroke:#181818;stroke-width:1.0417;"/><text fill="#000000" font-family="sans-serif" font-size="13.5417" lengthAdjust="spacing" textLength="278.629" x="319.2184" y="398.6699">[8] Benutzeranmeldung wird gespeichert</text></g><g class="message" data-participant-1="cl" data-participant-2="o"><polygon fill="#181818" points="59.1553,443.6686,48.7386,447.8353,59.1553,452.002,54.9886,447.8353" style="stroke:#181818;stroke-width:1.0417;"/><line style="stroke:#181818;stroke-width:1.0417;" x1="52.9053" x2="305.6768" y1="447.8353" y2="447.8353"/><text fill="#000000" font-family="sans-serif" font-size="13.5417" lengthAdjust="spacing" textLength="177.4236" x="65.4053" y="442.5583">[9] Anzeige SSP Suchseite</text></g><!--SRC=[RL7BRjim4BppAnOwj9SOID9dUYWW8mrg84MDk84FZGuCkPOMfaXrILgDloUVqPj_hAJiE7RQYo1mPsPdPlsIR2TPjg0xWhFJK-7tBtEMtPnqQE3ywBrrrgc6NOiGEA8GhmC5Wr1SVPtSZ2w9KGN73oSmmryHxLgJh3DlDfj26KE3Df2I0Q6b05FfVUyu549c5ZYG7ehlN8zAtPAziquZm_MNGgJbYKUTj06K6M1ZThr7lhDP-egT3MZrCV8U1sG6ZALQ_ZENSPXdNwCPyeeK7WCMtG0OiatP_NvuCTRFuttqGWZXOFGv-Vm4Fy-g8Vhj92rRS5oWpLbfbIjGHgGiJyZp2Yub-u36H5l3jQl9fifyBnjp8FYcseqE2qpYljyyDYR9xpHbt8BdI07Pf6zMJIQsz6SNCehKmvFys_-v-2Rz4hSU1jbt5PIsHQDH9mKBIBR6-_JpAbNkm-OnK9s3nZtZ_Gl6IXhIXBn73Si_L72p-QEMjKoN- -7ImKwWB9LoCPKziGl7hGpaR69fF0nmsEF72iPeOrWZos5bpj4JQwZHTqYgGGuxWaluYsnjZSdnSAbPL8tFdOd37Shy1G00]--></g></svg>