<svg xmlns="http://www.w3.org/2000/svg" xmlns:xlink="http://www.w3.org/1999/xlink" contentStyleType="text/css" height="897.9167px" preserveAspectRatio="none" style="width:1450px;height:897px;background:#FFFFFF;" version="1.1" viewBox="0 0 1450 897" width="1450px" zoomAndPan="magnify"><defs/><g><rect fill="#FFFFFF" height="666.3086" style="stroke:#181818;stroke-width:1.0416666666666667;" width="10.4167" x="320.3125" y="112.0768"/><rect fill="#FFFFFF" height="195.6217" style="stroke:#181818;stroke-width:1.0416666666666667;" width="10.4167" x="634.8958" y="343.2536"/><rect fill="#FFFFFF" height="74.235" style="stroke:#181818;stroke-width:1.0416666666666667;" width="10.4167" x="769.7917" y="238.6719"/><rect fill="#FFFFFF" height="134.9284" style="stroke:#181818;stroke-width:1.0416666666666667;" width="10.4167" x="769.7917" y="569.222"/><rect fill="#FFFFFF" height="30.3467" style="stroke:#181818;stroke-width:1.0416666666666667;" width="10.4167" x="1247.3958" y="373.6003"/><rect fill="#FFFFFF" height="30.3467" style="stroke:#181818;stroke-width:1.0416666666666667;" width="10.4167" x="1247.3958" y="478.182"/><rect fill="#FFFFFF" height="30.3467" style="stroke:#181818;stroke-width:1.0416666666666667;" width="10.4167" x="1247.3958" y="599.5687"/><line style="stroke:#181818;stroke-width:0.5208333333333334;stroke-dasharray:5.0,5.0;" x1="45.8333" x2="45.8333" y1="101.6602" y2="797.1354"/><line style="stroke:#181818;stroke-width:0.5208333333333334;stroke-dasharray:5.0,5.0;" x1="325.5208" x2="325.5208" y1="101.6602" y2="797.1354"/><line style="stroke:#181818;stroke-width:0.5208333333333334;stroke-dasharray:5.0,5.0;" x1="640.1042" x2="640.1042" y1="101.6602" y2="797.1354"/><line style="stroke:#181818;stroke-width:0.5208333333333334;stroke-dasharray:5.0,5.0;" x1="774.4792" x2="774.4792" y1="101.6602" y2="797.1354"/><line style="stroke:#181818;stroke-width:0.5208333333333334;stroke-dasharray:5.0,5.0;" x1="1131.7708" x2="1131.7708" y1="101.6602" y2="797.1354"/><line style="stroke:#181818;stroke-width:0.5208333333333334;stroke-dasharray:5.0,5.0;" x1="1252.6042" x2="1252.6042" y1="101.6602" y2="797.1354"/><line style="stroke:#181818;stroke-width:0.5208333333333334;stroke-dasharray:5.0,5.0;" x1="1385.9375" x2="1385.9375" y1="101.6602" y2="797.1354"/><text fill="#000000" font-family="sans-serif" font-size="14.5833" lengthAdjust="spacing" textLength="76.0417" x="5.2083" y="81.2449">Org-Admin</text><text fill="#000000" font-family="sans-serif" font-size="14.5833" lengthAdjust="spacing" textLength="54.1667" x="16.1458" y="98.2208">oder LE</text><ellipse cx="46.3542" cy="14.0625" fill="#E3E3E3" rx="8.3333" ry="8.3333" style="stroke:#181818;stroke-width:0.5208333333333334;"/><path d="M46.3542,22.3958 L46.3542,50.5208 M32.8125,30.7292 L59.8958,30.7292 M46.3542,50.5208 L32.8125,66.1458 M46.3542,50.5208 L59.8958,66.1458 " fill="none" style="stroke:#181818;stroke-width:0.5208333333333334;"/><text fill="#000000" font-family="sans-serif" font-size="14.5833" lengthAdjust="spacing" textLength="76.0417" x="5.2083" y="809.6303">Org-Admin</text><text fill="#000000" font-family="sans-serif" font-size="14.5833" lengthAdjust="spacing" textLength="54.1667" x="16.1458" y="826.6062">oder LE</text><ellipse cx="46.3542" cy="838.8997" fill="#E3E3E3" rx="8.3333" ry="8.3333" style="stroke:#181818;stroke-width:0.5208333333333334;"/><path d="M46.3542,847.2331 L46.3542,875.3581 M32.8125,855.5664 L59.8958,855.5664 M46.3542,875.3581 L32.8125,890.9831 M46.3542,875.3581 L59.8958,890.9831 " fill="none" style="stroke:#181818;stroke-width:0.5208333333333334;"/><rect fill="#E3E3E3" height="48.5352" rx="2.6042" ry="2.6042" style="stroke:#181818;stroke-width:0.5208333333333334;" width="112.5" x="269.2708" y="52.0833"/><text fill="#000000" font-family="sans-serif" font-size="14.5833" lengthAdjust="spacing" textLength="59.375" x="295.8333" y="72.9116">Browser</text><text fill="#000000" font-family="sans-serif" font-size="14.5833" lengthAdjust="spacing" textLength="97.9167" x="276.5625" y="89.8875">SSP Frontend</text><rect fill="#E3E3E3" height="48.5352" rx="2.6042" ry="2.6042" style="stroke:#181818;stroke-width:0.5208333333333334;" width="112.5" x="269.2708" y="796.0938"/><text fill="#000000" font-family="sans-serif" font-size="14.5833" lengthAdjust="spacing" textLength="59.375" x="295.8333" y="816.922">Browser</text><text fill="#000000" font-family="sans-serif" font-size="14.5833" lengthAdjust="spacing" textLength="97.9167" x="276.5625" y="833.8979">SSP Frontend</text><rect fill="#E3E3E3" height="48.5352" rx="2.6042" ry="2.6042" style="stroke:#181818;stroke-width:0.5208333333333334;" width="143.75" x="568.2292" y="52.0833"/><text fill="#000000" font-family="sans-serif" font-size="14.5833" lengthAdjust="spacing" textLength="129.1667" x="575.5208" y="72.9116">Authenticator App</text><text fill="#000000" font-family="sans-serif" font-size="14.5833" lengthAdjust="spacing" textLength="55.2083" x="612.5" y="89.8875">des IDP</text><rect fill="#E3E3E3" height="48.5352" rx="2.6042" ry="2.6042" style="stroke:#181818;stroke-width:0.5208333333333334;" width="143.75" x="568.2292" y="796.0938"/><text fill="#000000" font-family="sans-serif" font-size="14.5833" lengthAdjust="spacing" textLength="129.1667" x="575.5208" y="816.922">Authenticator App</text><text fill="#000000" font-family="sans-serif" font-size="14.5833" lengthAdjust="spacing" textLength="55.2083" x="612.5" y="833.8979">des IDP</text><rect fill="#E3E3E3" height="31.5592" rx="2.6042" ry="2.6042" style="stroke:#181818;stroke-width:0.5208333333333334;" width="105.2083" x="722.3958" y="69.0592"/><text fill="#000000" font-family="sans-serif" font-size="14.5833" lengthAdjust="spacing" textLength="90.625" x="729.6875" y="89.8875">Auth-Service</text><rect fill="#E3E3E3" height="31.5592" rx="2.6042" ry="2.6042" style="stroke:#181818;stroke-width:0.5208333333333334;" width="105.2083" x="722.3958" y="796.0938"/><text fill="#000000" font-family="sans-serif" font-size="14.5833" lengthAdjust="spacing" textLength="90.625" x="729.6875" y="816.922">Auth-Service</text><rect fill="#E3E3E3" height="31.5592" rx="2.6042" ry="2.6042" style="stroke:#181818;stroke-width:0.5208333333333334;" width="90.625" x="1086.9792" y="69.0592"/><text fill="#000000" font-family="sans-serif" font-size="14.5833" lengthAdjust="spacing" textLength="76.0417" x="1094.2708" y="89.8875">FHIR-Proxy</text><rect fill="#E3E3E3" height="31.5592" rx="2.6042" ry="2.6042" style="stroke:#181818;stroke-width:0.5208333333333334;" width="90.625" x="1086.9792" y="796.0938"/><text fill="#000000" font-family="sans-serif" font-size="14.5833" lengthAdjust="spacing" textLength="76.0417" x="1094.2708" y="816.922">FHIR-Proxy</text><rect fill="#E3E3E3" height="31.5592" rx="2.6042" ry="2.6042" style="stroke:#181818;stroke-width:0.5208333333333334;" width="129.1667" x="1188.0208" y="69.0592"/><text fill="#000000" font-family="sans-serif" font-size="14.5833" lengthAdjust="spacing" textLength="114.5833" x="1195.3125" y="89.8875">Identity Provider</text><rect fill="#E3E3E3" height="31.5592" rx="2.6042" ry="2.6042" style="stroke:#181818;stroke-width:0.5208333333333334;" width="129.1667" x="1188.0208" y="796.0938"/><text fill="#000000" font-family="sans-serif" font-size="14.5833" lengthAdjust="spacing" textLength="114.5833" x="1195.3125" y="816.922">Identity Provider</text><rect fill="#E3E3E3" height="31.5592" rx="2.6042" ry="2.6042" style="stroke:#181818;stroke-width:0.5208333333333334;" width="116.6667" x="1327.6042" y="69.0592"/><text fill="#000000" font-family="sans-serif" font-size="14.5833" lengthAdjust="spacing" textLength="102.0833" x="1334.8958" y="89.8875">FHIR-Directory</text><rect fill="#E3E3E3" height="31.5592" rx="2.6042" ry="2.6042" style="stroke:#181818;stroke-width:0.5208333333333334;" width="116.6667" x="1327.6042" y="796.0938"/><text fill="#000000" font-family="sans-serif" font-size="14.5833" lengthAdjust="spacing" textLength="102.0833" x="1334.8958" y="816.922">FHIR-Directory</text><rect fill="#FFFFFF" height="666.3086" style="stroke:#181818;stroke-width:1.0416666666666667;" width="10.4167" x="320.3125" y="112.0768"/><rect fill="#FFFFFF" height="195.6217" style="stroke:#181818;stroke-width:1.0416666666666667;" width="10.4167" x="634.8958" y="343.2536"/><rect fill="#FFFFFF" height="74.235" style="stroke:#181818;stroke-width:1.0416666666666667;" width="10.4167" x="769.7917" y="238.6719"/><rect fill="#FFFFFF" height="134.9284" style="stroke:#181818;stroke-width:1.0416666666666667;" width="10.4167" x="769.7917" y="569.222"/><rect fill="#FFFFFF" height="30.3467" style="stroke:#181818;stroke-width:1.0416666666666667;" width="10.4167" x="1247.3958" y="373.6003"/><rect fill="#FFFFFF" height="30.3467" style="stroke:#181818;stroke-width:1.0416666666666667;" width="10.4167" x="1247.3958" y="478.182"/><rect fill="#FFFFFF" height="30.3467" style="stroke:#181818;stroke-width:1.0416666666666667;" width="10.4167" x="1247.3958" y="599.5687"/><polygon fill="#181818" points="307.8125,129.9235,318.2292,134.0902,307.8125,138.2568,311.9792,134.0902" style="stroke:#181818;stroke-width:1.0416666666666667;"/><line style="stroke:#181818;stroke-width:1.0416666666666667;" x1="46.3542" x2="314.0625" y1="134.0902" y2="134.0902"/><text fill="#000000" font-family="sans-serif" font-size="13.5417" lengthAdjust="spacing" textLength="127.0833" x="53.6458" y="128.8132">[1] SSP UI aufrufen</text><line style="stroke:#181818;stroke-width:1.0416666666666667;" x1="330.7292" x2="374.4792" y1="164.4368" y2="164.4368"/><line style="stroke:#181818;stroke-width:1.0416666666666667;" x1="374.4792" x2="374.4792" y1="164.4368" y2="177.9785"/><line style="stroke:#181818;stroke-width:1.0416666666666667;" x1="331.7708" x2="374.4792" y1="177.9785" y2="177.9785"/><polygon fill="#181818" points="342.1875,173.8118,331.7708,177.9785,342.1875,182.1452,338.0208,177.9785" style="stroke:#181818;stroke-width:1.0416666666666667;"/><text fill="#000000" font-family="sans-serif" font-size="13.5417" lengthAdjust="spacing" textLength="196.875" x="338.0208" y="159.1599">[2] Darstellung Login Auswahl</text><polygon fill="#181818" points="307.8125,204.1585,318.2292,208.3252,307.8125,212.4919,311.9792,208.3252" style="stroke:#181818;stroke-width:1.0416666666666667;"/><line style="stroke:#181818;stroke-width:1.0416666666666667;" x1="46.3542" x2="314.0625" y1="208.3252" y2="208.3252"/><text fill="#000000" font-family="sans-serif" font-size="13.5417" lengthAdjust="spacing" textLength="248.9583" x="53.6458" y="203.0482">[3] Login mit HBA / SMC-B ausw&#228;hlen</text><polygon fill="#181818" points="757.2917,234.5052,767.7083,238.6719,757.2917,242.8385,761.4583,238.6719" style="stroke:#181818;stroke-width:1.0416666666666667;"/><line style="stroke:#181818;stroke-width:1.0416666666666667;" x1="330.7292" x2="763.5417" y1="238.6719" y2="238.6719"/><text fill="#000000" font-family="sans-serif" font-size="13.5417" lengthAdjust="spacing" textLength="186.4583" x="338.0208" y="233.3949">[4] GET /owner-authenticate</text><line style="stroke:#181818;stroke-width:1.0416666666666667;" x1="780.2083" x2="823.9583" y1="269.0186" y2="269.0186"/><line style="stroke:#181818;stroke-width:1.0416666666666667;" x1="823.9583" x2="823.9583" y1="269.0186" y2="282.5602"/><line style="stroke:#181818;stroke-width:1.0416666666666667;" x1="781.25" x2="823.9583" y1="282.5602" y2="282.5602"/><polygon fill="#181818" points="791.6667,278.3936,781.25,282.5602,791.6667,286.7269,787.5,282.5602" style="stroke:#181818;stroke-width:1.0416666666666667;"/><text fill="#000000" font-family="sans-serif" font-size="13.5417" lengthAdjust="spacing" textLength="321.875" x="787.5" y="263.7416">[5] Erzeuge PKCE Code f&#252;r verifier und challenge</text><polygon fill="#181818" points="342.1875,308.7402,331.7708,312.9069,342.1875,317.0736,338.0208,312.9069" style="stroke:#181818;stroke-width:1.0416666666666667;"/><line style="stroke:#181818;stroke-width:1.0416666666666667;stroke-dasharray:2.0,2.0;" x1="335.9375" x2="773.9583" y1="312.9069" y2="312.9069"/><text fill="#000000" font-family="sans-serif" font-size="13.5417" lengthAdjust="spacing" textLength="292.7083" x="348.4375" y="307.6299">Redirect (302) to IDP Authorization Endpoint</text><polygon fill="#181818" points="622.3958,339.0869,632.8125,343.2536,622.3958,347.4202,626.5625,343.2536" style="stroke:#181818;stroke-width:1.0416666666666667;"/><line style="stroke:#181818;stroke-width:1.0416666666666667;" x1="330.7292" x2="628.6458" y1="343.2536" y2="343.2536"/><text fill="#000000" font-family="sans-serif" font-size="13.5417" lengthAdjust="spacing" textLength="198.9583" x="338.0208" y="337.9766">[6] Deeplink authenticator://...</text><polygon fill="#181818" points="1234.8958,369.4336,1245.3125,373.6003,1234.8958,377.7669,1239.0625,373.6003" style="stroke:#181818;stroke-width:1.0416666666666667;"/><line style="stroke:#181818;stroke-width:1.0416666666666667;" x1="645.3125" x2="1241.1458" y1="373.6003" y2="373.6003"/><text fill="#000000" font-family="sans-serif" font-size="13.5417" lengthAdjust="spacing" textLength="222.9167" x="652.6042" y="368.3233">[7] GET {authorization_endpoint}</text><polygon fill="#181818" points="656.7708,399.7803,646.3542,403.9469,656.7708,408.1136,652.6042,403.9469" style="stroke:#181818;stroke-width:1.0416666666666667;"/><line style="stroke:#181818;stroke-width:1.0416666666666667;stroke-dasharray:2.0,2.0;" x1="650.5208" x2="1251.5625" y1="403.9469" y2="403.9469"/><text fill="#000000" font-family="sans-serif" font-size="13.5417" lengthAdjust="spacing" textLength="63.5417" x="663.0208" y="398.6699">challenge</text><line style="stroke:#181818;stroke-width:1.0416666666666667;" x1="645.3125" x2="689.0625" y1="434.2936" y2="434.2936"/><line style="stroke:#181818;stroke-width:1.0416666666666667;" x1="689.0625" x2="689.0625" y1="434.2936" y2="447.8353"/><line style="stroke:#181818;stroke-width:1.0416666666666667;" x1="646.3542" x2="689.0625" y1="447.8353" y2="447.8353"/><polygon fill="#181818" points="656.7708,443.6686,646.3542,447.8353,656.7708,452.002,652.6042,447.8353" style="stroke:#181818;stroke-width:1.0416666666666667;"/><text fill="#000000" font-family="sans-serif" font-size="13.5417" lengthAdjust="spacing" textLength="94.7917" x="652.6042" y="429.0166">sign challenge</text><polygon fill="#181818" points="1234.8958,474.0153,1245.3125,478.182,1234.8958,482.3486,1239.0625,478.182" style="stroke:#181818;stroke-width:1.0416666666666667;"/><line style="stroke:#181818;stroke-width:1.0416666666666667;" x1="645.3125" x2="1241.1458" y1="478.182" y2="478.182"/><text fill="#000000" font-family="sans-serif" font-size="13.5417" lengthAdjust="spacing" textLength="114.5833" x="652.6042" y="472.905">signed_challenge</text><polygon fill="#181818" points="656.7708,504.362,646.3542,508.5286,656.7708,512.6953,652.6042,508.5286" style="stroke:#181818;stroke-width:1.0416666666666667;"/><line style="stroke:#181818;stroke-width:1.0416666666666667;stroke-dasharray:2.0,2.0;" x1="650.5208" x2="1251.5625" y1="508.5286" y2="508.5286"/><text fill="#000000" font-family="sans-serif" font-size="13.5417" lengthAdjust="spacing" textLength="178.125" x="663.0208" y="503.2516">Redirect (302) (auth_code)</text><polygon fill="#181818" points="342.1875,534.7087,331.7708,538.8753,342.1875,543.042,338.0208,538.8753" style="stroke:#181818;stroke-width:1.0416666666666667;"/><line style="stroke:#181818;stroke-width:1.0416666666666667;stroke-dasharray:2.0,2.0;" x1="335.9375" x2="639.0625" y1="538.8753" y2="538.8753"/><text fill="#000000" font-family="sans-serif" font-size="13.5417" lengthAdjust="spacing" textLength="250" x="348.4375" y="533.5983">[8] {client_callback_uri} {auth_code}</text><polygon fill="#181818" points="757.2917,565.0553,767.7083,569.222,757.2917,573.3887,761.4583,569.222" style="stroke:#181818;stroke-width:1.0416666666666667;"/><line style="stroke:#181818;stroke-width:1.0416666666666667;" x1="330.7292" x2="763.5417" y1="569.222" y2="569.222"/><text fill="#000000" font-family="sans-serif" font-size="13.5417" lengthAdjust="spacing" textLength="346.875" x="338.0208" y="563.945">[9] GET /signin-gematik-idp-dienst with {auth_code}</text><polygon fill="#181818" points="1234.8958,595.402,1245.3125,599.5687,1234.8958,603.7354,1239.0625,599.5687" style="stroke:#181818;stroke-width:1.0416666666666667;"/><line style="stroke:#181818;stroke-width:1.0416666666666667;" x1="780.2083" x2="1241.1458" y1="599.5687" y2="599.5687"/><text fill="#000000" font-family="sans-serif" font-size="13.5417" lengthAdjust="spacing" textLength="328.125" x="787.5" y="594.2917">[10] POST {token_Endpoint} (auth_code, verifier)</text><polygon fill="#181818" points="791.6667,625.7487,781.25,629.9154,791.6667,634.082,787.5,629.9154" style="stroke:#181818;stroke-width:1.0416666666666667;"/><line style="stroke:#181818;stroke-width:1.0416666666666667;stroke-dasharray:2.0,2.0;" x1="785.4167" x2="1251.5625" y1="629.9154" y2="629.9154"/><text fill="#000000" font-family="sans-serif" font-size="13.5417" lengthAdjust="spacing" textLength="172.9167" x="797.9167" y="624.6384">[11] Response {id_token}</text><line style="stroke:#181818;stroke-width:1.0416666666666667;" x1="780.2083" x2="823.9583" y1="660.262" y2="660.262"/><line style="stroke:#181818;stroke-width:1.0416666666666667;" x1="823.9583" x2="823.9583" y1="660.262" y2="673.8037"/><line style="stroke:#181818;stroke-width:1.0416666666666667;" x1="781.25" x2="823.9583" y1="673.8037" y2="673.8037"/><polygon fill="#181818" points="791.6667,669.637,781.25,673.8037,791.6667,677.9704,787.5,673.8037" style="stroke:#181818;stroke-width:1.0416666666666667;"/><text fill="#000000" font-family="sans-serif" font-size="13.5417" lengthAdjust="spacing" textLength="163.5417" x="787.5" y="654.985">[12] Validierung id-token</text><polygon fill="#181818" points="342.1875,699.9837,331.7708,704.1504,342.1875,708.3171,338.0208,704.1504" style="stroke:#181818;stroke-width:1.0416666666666667;"/><line style="stroke:#181818;stroke-width:1.0416666666666667;stroke-dasharray:2.0,2.0;" x1="335.9375" x2="773.9583" y1="704.1504" y2="704.1504"/><text fill="#000000" font-family="sans-serif" font-size="13.5417" lengthAdjust="spacing" textLength="402.0833" x="348.4375" y="698.8734">[13] HTTP 200 OK, Result body {"access_token"="id_token"}</text><line style="stroke:#181818;stroke-width:1.0416666666666667;" x1="330.7292" x2="374.4792" y1="734.4971" y2="734.4971"/><line style="stroke:#181818;stroke-width:1.0416666666666667;" x1="374.4792" x2="374.4792" y1="734.4971" y2="748.0387"/><line style="stroke:#181818;stroke-width:1.0416666666666667;" x1="331.7708" x2="374.4792" y1="748.0387" y2="748.0387"/><polygon fill="#181818" points="342.1875,743.8721,331.7708,748.0387,342.1875,752.2054,338.0208,748.0387" style="stroke:#181818;stroke-width:1.0416666666666667;"/><text fill="#000000" font-family="sans-serif" font-size="13.5417" lengthAdjust="spacing" textLength="279.1667" x="338.0208" y="729.2201">[14] Benutzeranmeldung wird gespeichert</text><polygon fill="#181818" points="57.8125,774.2188,47.3958,778.3854,57.8125,782.5521,53.6458,778.3854" style="stroke:#181818;stroke-width:1.0416666666666667;"/><line style="stroke:#181818;stroke-width:1.0416666666666667;" x1="51.5625" x2="324.4792" y1="778.3854" y2="778.3854"/><text fill="#000000" font-family="sans-serif" font-size="13.5417" lengthAdjust="spacing" textLength="154.1667" x="64.0625" y="773.1084">Anzeige SSP Suchseite</text><!--SRC=[TLJRRjf047ttLunuIIB50T9xf5Q2X3GegOBYj7b84Dfu1tk4sNNNQoWW_gQVqRVyM6UD0KER9qkUENFEd9dPR4Gg5KQCGQO4pKR3opP_7en87qZQ64vt_e-rqc5iz1Z1cXmzxy2IJH1gbrVTE_-238PMczan1FWpHpMN92A72u8Uj78Rex8K2eim9Wl1M1WR2YCFFE5We45aKBiraT-IOr9FIaiqSDEfUSpEG4g5iX0cHLhRw6c6vacvsfT6AujAxcOAKMHMY9cabQPFIc86tOlUNdg-IVS3D1CASJTXc1O9HQyzet_DTiCaL_6kT6ns1fmp8MvXhuhSLjauLlES1pHnteI9fy7_mjypU6ps2_E-TrdUqEH3L1uRi8wUzk52cCnYakGgWXiTaMAZiwc8gqNUzCkGi_sgtO8w1D_E_JRNpAOll-E4gtfbNP4pu6qVldRkeQwd2eqlAfFRoXIvnuwj4U_wq35pp2E4tlLv1yvvTZ1y-MDWWeQ6n8FCbOGm5WcpHLXWItrtA0iVuF1Du_G8h7QpAVP56veBIrf1HybKaxAUnAg2KhDW1U_P2yGq8JK2KHtvMRr-Sd9I4IxORE5mF346VbWrkn1LmW6MXCijaDCzDsI_fDmsKn7babRLNKf6aQesBTQiBe1oK0cznhBdpg6JEGZPtgF_qQv7_h4FYp0XDc4GCiMp24U3tD1orMQ1N-vuANOMu5Ev04ucAJ_2CRioyfd5brmqip0bVXsgnVvTZ9MzpKOVUhS16spr2DLWFSbbfPNZpPOSlMA44zNaOxZ3BDKgGrYG71G5b_isLDUooHVoGoJ4eesx499-0QgktsEJx-Fg_hxd7ZkulJvs97bYuLdB6Ing8WmnorPajS-rDMzjkRUBrSDiyWMrKULsZaQeCIRIiK_9I8Yu0wGmHcDBX3w3bfeZyUsuMm_oCCwG-DQg1Fmg_0K0]--></g></svg>