<svg xmlns="http://www.w3.org/2000/svg" xmlns:xlink="http://www.w3.org/1999/xlink" contentStyleType="text/css" height="1590px" preserveAspectRatio="none" style="width:1857px;height:1590px;background:#FFFFFF;" version="1.1" viewBox="0 0 1857 1590" width="1857px" zoomAndPan="magnify"><title>FHIR-VZD Authentisierung mit GesundheitsID</title><defs/><g><text fill="#000000" font-family="sans-serif" font-size="14" font-weight="bold" lengthAdjust="spacing" textLength="359.6797" x="744.9851" y="27.9951">FHIR-VZD Authentisierung mit GesundheitsID</text><rect fill="#F5F5F5" height="1541.375" style="stroke:#181818;stroke-width:0.5;" width="791.1147" x="655.9385" y="43.2969"/><text fill="#000000" font-family="sans-serif" font-size="13" font-weight="bold" lengthAdjust="spacing" textLength="143.8887" x="977.2886" y="55.3638">VZD-FHIR-Directory</text><rect fill="#FFFFFF" height="29.1328" style="stroke:#181818;stroke-width:1.0;" width="10" x="107.4541" y="741.6484"/><rect fill="#FFFFFF" height="96.1328" style="stroke:#181818;stroke-width:1.0;" width="10" x="107.4541" y="806.9141"/><rect fill="#FFFFFF" height="841.3203" style="stroke:#181818;stroke-width:1.0;" width="10" x="706.7412" y="198.2578"/><rect fill="#FFFFFF" height="29.1328" style="stroke:#181818;stroke-width:1.0;" width="10" x="711.7412" y="452.4531"/><rect fill="#FFFFFF" height="59.1328" style="stroke:#181818;stroke-width:1.0;" width="10" x="711.7412" y="575.9844"/><rect fill="#FFFFFF" height="166.5313" style="stroke:#181818;stroke-width:1.0;" width="10" x="711.7412" y="873.0469"/><rect fill="#FFFFFF" height="113.3984" style="stroke:#181818;stroke-width:1.0;" width="10" x="706.7412" y="1418.9766"/><rect fill="#FFFFFF" height="212.7344" style="stroke:#181818;stroke-width:1.0;" width="10" x="1122.3149" y="1126.9766"/><rect fill="#FFFFFF" height="44.2656" style="stroke:#181818;stroke-width:1.0;" width="10" x="1379.8931" y="1222.375"/><rect fill="#FFFFFF" height="29.1328" style="stroke:#181818;stroke-width:1.0;" width="10" x="1504.2856" y="275.6563"/><rect fill="#FFFFFF" height="206.7969" style="stroke:#181818;stroke-width:1.0;" width="10" x="1504.2856" y="399.1875"/><rect fill="#FFFFFF" height="148.5313" style="stroke:#181818;stroke-width:1.0;" width="10" x="1504.2856" y="688.3828"/><rect fill="#FFFFFF" height="29.1328" style="stroke:#181818;stroke-width:1.0;" width="10" x="1504.2856" y="932.1797"/><rect fill="#FFFFFF" height="29.1328" style="stroke:#181818;stroke-width:1.0;" width="10" x="1744.8604" y="124.8594"/><rect fill="#FFFFFF" height="29.1328" style="stroke:#181818;stroke-width:1.0;" width="10" x="1744.8604" y="333.9219"/><rect fill="#FFFFFF" height="29.1328" style="stroke:#181818;stroke-width:1.0;" width="10" x="1744.8604" y="510.7188"/><rect fill="none" height="798.1875" style="stroke:#000000;stroke-width:1.5;" width="1830.6499" x="10" y="213.2578"/><rect fill="none" height="133.6641" style="stroke:#000000;stroke-width:1.5;" width="1180.7114" x="649.9385" y="237.3906"/><rect fill="none" height="133.6641" style="stroke:#000000;stroke-width:1.5;" width="1180.7114" x="649.9385" y="414.1875"/><rect fill="none" height="194.7969" style="stroke:#000000;stroke-width:1.5;" width="1565.5181" x="20" y="650.1172"/><rect fill="none" height="75.3984" style="stroke:#000000;stroke-width:1.5;" width="1545.5181" x="30" y="703.3828"/><rect fill="none" height="163.6016" style="stroke:#000000;stroke-width:1.5;" width="1423.0532" x="30" y="1184.1094"/><line style="stroke:#181818;stroke-width:0.5;stroke-dasharray:5.0,5.0;" x1="112" x2="112" y1="93.7266" y2="1550.375"/><line style="stroke:#181818;stroke-width:0.5;stroke-dasharray:5.0,5.0;" x1="710.9385" x2="710.9385" y1="93.7266" y2="1550.375"/><line style="stroke:#181818;stroke-width:0.5;stroke-dasharray:5.0,5.0;" x1="1126.9038" x2="1126.9038" y1="93.7266" y2="1550.375"/><line style="stroke:#181818;stroke-width:0.5;stroke-dasharray:5.0,5.0;" x1="1384.7329" x2="1384.7329" y1="93.7266" y2="1550.375"/><line style="stroke:#181818;stroke-width:0.5;stroke-dasharray:5.0,5.0;" x1="1509.0532" x2="1509.0532" y1="93.7266" y2="1550.375"/><line style="stroke:#181818;stroke-width:0.5;stroke-dasharray:5.0,5.0;" x1="1749.0708" x2="1749.0708" y1="93.7266" y2="1550.375"/><rect fill="#E2E2F0" height="30.2969" rx="2.5" ry="2.5" style="stroke:#181818;stroke-width:0.5;" width="144.9082" x="40" y="62.4297"/><text fill="#000000" font-family="sans-serif" font-size="14" lengthAdjust="spacing" textLength="130.9082" x="47" y="82.4248">Client Versicherter</text><rect fill="#E2E2F0" height="30.2969" rx="2.5" ry="2.5" style="stroke:#181818;stroke-width:0.5;" width="144.9082" x="40" y="1549.375"/><text fill="#000000" font-family="sans-serif" font-size="14" lengthAdjust="spacing" textLength="130.9082" x="47" y="1569.3701">Client Versicherter</text><rect fill="#E2E2F0" height="30.2969" rx="2.5" ry="2.5" style="stroke:#181818;stroke-width:0.5;" width="103.6055" x="659.9385" y="62.4297"/><text fill="#000000" font-family="sans-serif" font-size="14" lengthAdjust="spacing" textLength="89.6055" x="666.9385" y="82.4248">Auth-Service</text><rect fill="#E2E2F0" height="30.2969" rx="2.5" ry="2.5" style="stroke:#181818;stroke-width:0.5;" width="103.6055" x="659.9385" y="1549.375"/><text fill="#000000" font-family="sans-serif" font-size="14" lengthAdjust="spacing" textLength="89.6055" x="666.9385" y="1569.3701">Auth-Service</text><rect fill="#E2E2F0" height="30.2969" rx="2.5" ry="2.5" style="stroke:#181818;stroke-width:0.5;" width="90.8223" x="1081.9038" y="62.4297"/><text fill="#000000" font-family="sans-serif" font-size="14" lengthAdjust="spacing" textLength="76.8223" x="1088.9038" y="82.4248">FHIR-Proxy</text><rect fill="#E2E2F0" height="30.2969" rx="2.5" ry="2.5" style="stroke:#181818;stroke-width:0.5;" width="90.8223" x="1081.9038" y="1549.375"/><text fill="#000000" font-family="sans-serif" font-size="14" lengthAdjust="spacing" textLength="76.8223" x="1088.9038" y="1569.3701">FHIR-Proxy</text><rect fill="#E2E2F0" height="30.2969" rx="2.5" ry="2.5" style="stroke:#181818;stroke-width:0.5;" width="116.3203" x="1326.7329" y="62.4297"/><text fill="#000000" font-family="sans-serif" font-size="14" lengthAdjust="spacing" textLength="102.3203" x="1333.7329" y="82.4248">FHIR-Directory</text><rect fill="#E2E2F0" height="30.2969" rx="2.5" ry="2.5" style="stroke:#181818;stroke-width:0.5;" width="116.3203" x="1326.7329" y="1549.375"/><text fill="#000000" font-family="sans-serif" font-size="14" lengthAdjust="spacing" textLength="102.3203" x="1333.7329" y="1569.3701">FHIR-Directory</text><rect fill="#E2E2F0" height="30.2969" rx="2.5" ry="2.5" style="stroke:#181818;stroke-width:0.5;" width="112.4648" x="1453.0532" y="62.4297"/><text fill="#000000" font-family="sans-serif" font-size="14" lengthAdjust="spacing" textLength="98.4648" x="1460.0532" y="82.4248">sektoraler IDP</text><rect fill="#E2E2F0" height="30.2969" rx="2.5" ry="2.5" style="stroke:#181818;stroke-width:0.5;" width="112.4648" x="1453.0532" y="1549.375"/><text fill="#000000" font-family="sans-serif" font-size="14" lengthAdjust="spacing" textLength="98.4648" x="1460.0532" y="1569.3701">sektoraler IDP</text><rect fill="#E2E2F0" height="30.2969" rx="2.5" ry="2.5" style="stroke:#181818;stroke-width:0.5;" width="141.5791" x="1679.0708" y="62.4297"/><text fill="#000000" font-family="sans-serif" font-size="14" lengthAdjust="spacing" textLength="127.5791" x="1686.0708" y="82.4248">Federation Master</text><rect fill="#E2E2F0" height="30.2969" rx="2.5" ry="2.5" style="stroke:#181818;stroke-width:0.5;" width="141.5791" x="1679.0708" y="1549.375"/><text fill="#000000" font-family="sans-serif" font-size="14" lengthAdjust="spacing" textLength="127.5791" x="1686.0708" y="1569.3701">Federation Master</text><rect fill="#FFFFFF" height="29.1328" style="stroke:#181818;stroke-width:1.0;" width="10" x="107.4541" y="741.6484"/><rect fill="#FFFFFF" height="96.1328" style="stroke:#181818;stroke-width:1.0;" width="10" x="107.4541" y="806.9141"/><rect fill="#FFFFFF" height="841.3203" style="stroke:#181818;stroke-width:1.0;" width="10" x="706.7412" y="198.2578"/><rect fill="#FFFFFF" height="29.1328" style="stroke:#181818;stroke-width:1.0;" width="10" x="711.7412" y="452.4531"/><rect fill="#FFFFFF" height="59.1328" style="stroke:#181818;stroke-width:1.0;" width="10" x="711.7412" y="575.9844"/><rect fill="#FFFFFF" height="166.5313" style="stroke:#181818;stroke-width:1.0;" width="10" x="711.7412" y="873.0469"/><rect fill="#FFFFFF" height="113.3984" style="stroke:#181818;stroke-width:1.0;" width="10" x="706.7412" y="1418.9766"/><rect fill="#FFFFFF" height="212.7344" style="stroke:#181818;stroke-width:1.0;" width="10" x="1122.3149" y="1126.9766"/><rect fill="#FFFFFF" height="44.2656" style="stroke:#181818;stroke-width:1.0;" width="10" x="1379.8931" y="1222.375"/><rect fill="#FFFFFF" height="29.1328" style="stroke:#181818;stroke-width:1.0;" width="10" x="1504.2856" y="275.6563"/><rect fill="#FFFFFF" height="206.7969" style="stroke:#181818;stroke-width:1.0;" width="10" x="1504.2856" y="399.1875"/><rect fill="#FFFFFF" height="148.5313" style="stroke:#181818;stroke-width:1.0;" width="10" x="1504.2856" y="688.3828"/><rect fill="#FFFFFF" height="29.1328" style="stroke:#181818;stroke-width:1.0;" width="10" x="1504.2856" y="932.1797"/><rect fill="#FFFFFF" height="29.1328" style="stroke:#181818;stroke-width:1.0;" width="10" x="1744.8604" y="124.8594"/><rect fill="#FFFFFF" height="29.1328" style="stroke:#181818;stroke-width:1.0;" width="10" x="1744.8604" y="333.9219"/><rect fill="#FFFFFF" height="29.1328" style="stroke:#181818;stroke-width:1.0;" width="10" x="1744.8604" y="510.7188"/><polygon fill="#181818" points="1732.8604,120.8594,1742.8604,124.8594,1732.8604,128.8594,1736.8604,124.8594" style="stroke:#181818;stroke-width:1.0;"/><line style="stroke:#181818;stroke-width:1.0;" x1="711.7412" x2="1738.8604" y1="124.8594" y2="124.8594"/><text fill="#000000" font-family="sans-serif" font-size="13" font-weight="bold" lengthAdjust="spacing" textLength="29.9736" x="718.7412" y="119.7935">[01]</text><text fill="#000000" font-family="sans-serif" font-size="13" lengthAdjust="spacing" textLength="127.7085" x="752.7148" y="119.7935">getEntityStatement</text><polygon fill="#181818" points="722.7412,149.9922,712.7412,153.9922,722.7412,157.9922,718.7412,153.9922" style="stroke:#181818;stroke-width:1.0;"/><line style="stroke:#181818;stroke-width:1.0;stroke-dasharray:2.0,2.0;" x1="716.7412" x2="1748.8604" y1="153.9922" y2="153.9922"/><text fill="#000000" font-family="sans-serif" font-size="13" font-weight="bold" lengthAdjust="spacing" textLength="29.9736" x="728.7412" y="148.9263">[02]</text><text fill="#000000" font-family="sans-serif" font-size="13" lengthAdjust="spacing" textLength="234.9902" x="762.7148" y="148.9263">Response EntityStatement sekt. IDP</text><polygon fill="#181818" points="694.7412,194.2578,704.7412,198.2578,694.7412,202.2578,698.7412,198.2578" style="stroke:#181818;stroke-width:1.0;"/><line style="stroke:#181818;stroke-width:1.0;" x1="112.4541" x2="700.7412" y1="198.2578" y2="198.2578"/><text fill="#000000" font-family="sans-serif" font-size="13" font-weight="bold" lengthAdjust="spacing" textLength="29.9736" x="119.4541" y="185.6255">[03]</text><text fill="#000000" font-family="sans-serif" font-size="13" lengthAdjust="spacing" textLength="174.2876" x="153.4277" y="178.0591">AUTHORIZATION REQUEST</text><text fill="#000000" font-family="sans-serif" font-size="13" lengthAdjust="spacing" textLength="153.5371" x="157.5601" y="193.1919">iss= URL sektoraler IDP</text><path d="M10,213.2578 L79.4893,213.2578 L79.4893,220.3906 L69.4893,230.3906 L10,230.3906 L10,213.2578 " fill="#EEEEEE" style="stroke:#000000;stroke-width:1.5;"/><rect fill="none" height="798.1875" style="stroke:#000000;stroke-width:1.5;" width="1830.6499" x="10" y="213.2578"/><text fill="#000000" font-family="sans-serif" font-size="13" font-weight="bold" lengthAdjust="spacing" textLength="24.4893" x="25" y="226.3247">par</text><text fill="#000000" font-family="sans-serif" font-size="11" font-weight="bold" lengthAdjust="spacing" textLength="100.7188" x="94.4893" y="225.4683">[GesundheitsID]</text><path d="M649.9385,237.3906 L714.3813,237.3906 L714.3813,244.5234 L704.3813,254.5234 L649.9385,254.5234 L649.9385,237.3906 " fill="#EEEEEE" style="stroke:#000000;stroke-width:1.5;"/><rect fill="none" height="133.6641" style="stroke:#000000;stroke-width:1.5;" width="1180.7114" x="649.9385" y="237.3906"/><text fill="#000000" font-family="sans-serif" font-size="13" font-weight="bold" lengthAdjust="spacing" textLength="19.4429" x="664.9385" y="250.4575">alt</text><text fill="#000000" font-family="sans-serif" font-size="11" font-weight="bold" lengthAdjust="spacing" textLength="61.0962" x="729.3813" y="249.6011">[optional]</text><polygon fill="#181818" points="1492.2856,271.6563,1502.2856,275.6563,1492.2856,279.6563,1496.2856,275.6563" style="stroke:#181818;stroke-width:1.0;"/><line style="stroke:#181818;stroke-width:1.0;" x1="716.7412" x2="1498.2856" y1="275.6563" y2="275.6563"/><text fill="#000000" font-family="sans-serif" font-size="13" font-weight="bold" lengthAdjust="spacing" textLength="29.9736" x="723.7412" y="270.5903">[04]</text><text fill="#000000" font-family="sans-serif" font-size="13" lengthAdjust="spacing" textLength="163.668" x="757.7148" y="270.5903">getEntityStatement (IDP)</text><polygon fill="#181818" points="727.7412,300.7891,717.7412,304.7891,727.7412,308.7891,723.7412,304.7891" style="stroke:#181818;stroke-width:1.0;"/><line style="stroke:#181818;stroke-width:1.0;stroke-dasharray:2.0,2.0;" x1="721.7412" x2="1508.2856" y1="304.7891" y2="304.7891"/><text fill="#000000" font-family="sans-serif" font-size="13" font-weight="bold" lengthAdjust="spacing" textLength="29.9736" x="733.7412" y="299.7231">[05]</text><text fill="#000000" font-family="sans-serif" font-size="13" lengthAdjust="spacing" textLength="106.3613" x="767.7148" y="299.7231">EntityStatement</text><polygon fill="#181818" points="1732.8604,329.9219,1742.8604,333.9219,1732.8604,337.9219,1736.8604,333.9219" style="stroke:#181818;stroke-width:1.0;"/><line style="stroke:#181818;stroke-width:1.0;" x1="716.7412" x2="1738.8604" y1="333.9219" y2="333.9219"/><text fill="#000000" font-family="sans-serif" font-size="13" font-weight="bold" lengthAdjust="spacing" textLength="29.9736" x="723.7412" y="328.856">[06]</text><text fill="#000000" font-family="sans-serif" font-size="13" lengthAdjust="spacing" textLength="182.4126" x="757.7148" y="328.856">Fetch EntityStatement (IDP)</text><polygon fill="#181818" points="727.7412,359.0547,717.7412,363.0547,727.7412,367.0547,723.7412,363.0547" style="stroke:#181818;stroke-width:1.0;"/><line style="stroke:#181818;stroke-width:1.0;stroke-dasharray:2.0,2.0;" x1="721.7412" x2="1748.8604" y1="363.0547" y2="363.0547"/><text fill="#000000" font-family="sans-serif" font-size="13" font-weight="bold" lengthAdjust="spacing" textLength="29.9736" x="733.7412" y="357.9888">[07]</text><text fill="#000000" font-family="sans-serif" font-size="13" lengthAdjust="spacing" textLength="106.3613" x="767.7148" y="357.9888">EntityStatement</text><polygon fill="#181818" points="1492.2856,395.1875,1502.2856,399.1875,1492.2856,403.1875,1496.2856,399.1875" style="stroke:#181818;stroke-width:1.0;"/><line style="stroke:#181818;stroke-width:1.0;" x1="716.7412" x2="1498.2856" y1="399.1875" y2="399.1875"/><text fill="#000000" font-family="sans-serif" font-size="13" font-weight="bold" lengthAdjust="spacing" textLength="29.9736" x="723.7412" y="394.1216">[08]</text><text fill="#000000" font-family="sans-serif" font-size="13" lengthAdjust="spacing" textLength="214.3286" x="757.7148" y="394.1216">AUTHORIZATION REQUEST (PAR)</text><path d="M649.9385,414.1875 L714.3813,414.1875 L714.3813,421.3203 L704.3813,431.3203 L649.9385,431.3203 L649.9385,414.1875 " fill="#EEEEEE" style="stroke:#000000;stroke-width:1.5;"/><rect fill="none" height="133.6641" style="stroke:#000000;stroke-width:1.5;" width="1180.7114" x="649.9385" y="414.1875"/><text fill="#000000" font-family="sans-serif" font-size="13" font-weight="bold" lengthAdjust="spacing" textLength="19.4429" x="664.9385" y="427.2544">alt</text><text fill="#000000" font-family="sans-serif" font-size="11" font-weight="bold" lengthAdjust="spacing" textLength="61.0962" x="729.3813" y="426.3979">[optional]</text><polygon fill="#181818" points="732.7412,448.4531,722.7412,452.4531,732.7412,456.4531,728.7412,452.4531" style="stroke:#181818;stroke-width:1.0;"/><line style="stroke:#181818;stroke-width:1.0;" x1="726.7412" x2="1503.2856" y1="452.4531" y2="452.4531"/><text fill="#000000" font-family="sans-serif" font-size="13" font-weight="bold" lengthAdjust="spacing" textLength="29.9736" x="738.7412" y="447.3872">[09]</text><text fill="#000000" font-family="sans-serif" font-size="13" lengthAdjust="spacing" textLength="158.8564" x="772.7148" y="447.3872">getEntityStatement (RP)</text><polygon fill="#181818" points="1492.2856,477.5859,1502.2856,481.5859,1492.2856,485.5859,1496.2856,481.5859" style="stroke:#181818;stroke-width:1.0;"/><line style="stroke:#181818;stroke-width:1.0;stroke-dasharray:2.0,2.0;" x1="716.7412" x2="1498.2856" y1="481.5859" y2="481.5859"/><text fill="#000000" font-family="sans-serif" font-size="13" font-weight="bold" lengthAdjust="spacing" textLength="29.9736" x="723.7412" y="476.52">[10]</text><text fill="#000000" font-family="sans-serif" font-size="13" lengthAdjust="spacing" textLength="106.3613" x="757.7148" y="476.52">EntityStatement</text><polygon fill="#181818" points="1732.8604,506.7188,1742.8604,510.7188,1732.8604,514.7188,1736.8604,510.7188" style="stroke:#181818;stroke-width:1.0;"/><line style="stroke:#181818;stroke-width:1.0;" x1="1514.2856" x2="1738.8604" y1="510.7188" y2="510.7188"/><text fill="#000000" font-family="sans-serif" font-size="13" font-weight="bold" lengthAdjust="spacing" textLength="29.9736" x="1521.2856" y="505.6528">[11]</text><text fill="#000000" font-family="sans-serif" font-size="13" lengthAdjust="spacing" textLength="177.6011" x="1555.2593" y="505.6528">Fetch EntityStatement (RP)</text><polygon fill="#181818" points="1525.2856,535.8516,1515.2856,539.8516,1525.2856,543.8516,1521.2856,539.8516" style="stroke:#181818;stroke-width:1.0;"/><line style="stroke:#181818;stroke-width:1.0;stroke-dasharray:2.0,2.0;" x1="1519.2856" x2="1748.8604" y1="539.8516" y2="539.8516"/><text fill="#000000" font-family="sans-serif" font-size="13" font-weight="bold" lengthAdjust="spacing" textLength="29.9736" x="1531.2856" y="534.7856">[12]</text><text fill="#000000" font-family="sans-serif" font-size="13" lengthAdjust="spacing" textLength="106.3613" x="1565.2593" y="534.7856">EntityStatement</text><polygon fill="#181818" points="732.7412,571.9844,722.7412,575.9844,732.7412,579.9844,728.7412,575.9844" style="stroke:#181818;stroke-width:1.0;"/><line style="stroke:#181818;stroke-width:1.0;stroke-dasharray:2.0,2.0;" x1="726.7412" x2="1503.2856" y1="575.9844" y2="575.9844"/><text fill="#000000" font-family="sans-serif" font-size="13" font-weight="bold" lengthAdjust="spacing" textLength="29.9736" x="738.7412" y="570.9185">[13]</text><text fill="#000000" font-family="sans-serif" font-size="13" lengthAdjust="spacing" textLength="52.8379" x="772.7148" y="570.9185">URI-PAR</text><polygon fill="#181818" points="123.4541,631.1172,113.4541,635.1172,123.4541,639.1172,119.4541,635.1172" style="stroke:#181818;stroke-width:1.0;"/><line style="stroke:#181818;stroke-width:1.0;stroke-dasharray:2.0,2.0;" x1="117.4541" x2="705.7412" y1="635.1172" y2="635.1172"/><text fill="#000000" font-family="sans-serif" font-size="13" font-weight="bold" lengthAdjust="spacing" textLength="29.9736" x="129.4541" y="630.0513">[14]</text><text fill="#000000" font-family="sans-serif" font-size="13" lengthAdjust="spacing" textLength="241.4014" x="163.4277" y="630.0513">AUTHORIZATION REQUEST (URI-PAR)</text><path d="M20,650.1172 L84.4429,650.1172 L84.4429,657.25 L74.4429,667.25 L20,667.25 L20,650.1172 " fill="#EEEEEE" style="stroke:#000000;stroke-width:1.5;"/><rect fill="none" height="194.7969" style="stroke:#000000;stroke-width:1.5;" width="1565.5181" x="20" y="650.1172"/><text fill="#000000" font-family="sans-serif" font-size="13" font-weight="bold" lengthAdjust="spacing" textLength="19.4429" x="35" y="663.1841">alt</text><text fill="#000000" font-family="sans-serif" font-size="11" font-weight="bold" lengthAdjust="spacing" textLength="184.9751" x="99.4429" y="662.3276">[Implementierungsspezifisch]</text><polygon fill="#181818" points="1492.2856,684.3828,1502.2856,688.3828,1492.2856,692.3828,1496.2856,688.3828" style="stroke:#181818;stroke-width:1.0;"/><line style="stroke:#181818;stroke-width:1.0;" x1="112.4541" x2="1498.2856" y1="688.3828" y2="688.3828"/><text fill="#000000" font-family="sans-serif" font-size="13" font-weight="bold" lengthAdjust="spacing" textLength="29.9736" x="119.4541" y="683.3169">[15]</text><text fill="#000000" font-family="sans-serif" font-size="13" lengthAdjust="spacing" textLength="241.4014" x="153.4277" y="683.3169">AUTHORIZATION REQUEST (URI-PAR)</text><path d="M30,703.3828 L94.4429,703.3828 L94.4429,710.5156 L84.4429,720.5156 L30,720.5156 L30,703.3828 " fill="#EEEEEE" style="stroke:#000000;stroke-width:1.5;"/><rect fill="none" height="75.3984" style="stroke:#000000;stroke-width:1.5;" width="1545.5181" x="30" y="703.3828"/><text fill="#000000" font-family="sans-serif" font-size="13" font-weight="bold" lengthAdjust="spacing" textLength="19.4429" x="45" y="716.4497">alt</text><text fill="#000000" font-family="sans-serif" font-size="11" font-weight="bold" lengthAdjust="spacing" textLength="61.0962" x="109.4429" y="715.5933">[optional]</text><polygon fill="#181818" points="128.4541,737.6484,118.4541,741.6484,128.4541,745.6484,124.4541,741.6484" style="stroke:#181818;stroke-width:1.0;"/><line style="stroke:#181818;stroke-width:1.0;stroke-dasharray:2.0,2.0;" x1="122.4541" x2="1503.2856" y1="741.6484" y2="741.6484"/><text fill="#000000" font-family="sans-serif" font-size="13" font-weight="bold" lengthAdjust="spacing" textLength="29.9736" x="134.4541" y="736.5825">[16]</text><text fill="#000000" font-family="sans-serif" font-size="13" lengthAdjust="spacing" textLength="127.499" x="168.4277" y="736.5825">Login, user consent</text><polygon fill="#181818" points="1492.2856,766.7813,1502.2856,770.7813,1492.2856,774.7813,1496.2856,770.7813" style="stroke:#181818;stroke-width:1.0;"/><line style="stroke:#181818;stroke-width:1.0;" x1="112.4541" x2="1498.2856" y1="770.7813" y2="770.7813"/><text fill="#000000" font-family="sans-serif" font-size="13" font-weight="bold" lengthAdjust="spacing" textLength="29.9736" x="119.4541" y="765.7153">[17]</text><text fill="#000000" font-family="sans-serif" font-size="13" lengthAdjust="spacing" textLength="133.6816" x="153.4277" y="765.7153">credentials, Consent</text><polygon fill="#181818" points="128.4541,802.9141,118.4541,806.9141,128.4541,810.9141,124.4541,806.9141" style="stroke:#181818;stroke-width:1.0;"/><line style="stroke:#181818;stroke-width:1.0;stroke-dasharray:2.0,2.0;" x1="122.4541" x2="1503.2856" y1="806.9141" y2="806.9141"/><text fill="#000000" font-family="sans-serif" font-size="13" font-weight="bold" lengthAdjust="spacing" textLength="29.9736" x="134.4541" y="801.8481">[18]</text><text fill="#000000" font-family="sans-serif" font-size="13" lengthAdjust="spacing" textLength="244.937" x="168.4277" y="801.8481">Redirect to redirect URL, AUTH_CODE</text><polygon fill="#181818" points="699.7412,869.0469,709.7412,873.0469,699.7412,877.0469,703.7412,873.0469" style="stroke:#181818;stroke-width:1.0;"/><line style="stroke:#181818;stroke-width:1.0;" x1="117.4541" x2="705.7412" y1="873.0469" y2="873.0469"/><text fill="#000000" font-family="sans-serif" font-size="13" font-weight="bold" lengthAdjust="spacing" textLength="29.9736" x="124.4541" y="867.981">[19]</text><text fill="#000000" font-family="sans-serif" font-size="13" lengthAdjust="spacing" textLength="80.1582" x="158.4277" y="867.981">AUTH_CODE</text><polygon fill="#181818" points="1492.2856,928.1797,1502.2856,932.1797,1492.2856,936.1797,1496.2856,932.1797" style="stroke:#181818;stroke-width:1.0;"/><line style="stroke:#181818;stroke-width:1.0;" x1="721.7412" x2="1498.2856" y1="932.1797" y2="932.1797"/><text fill="#000000" font-family="sans-serif" font-size="13" font-weight="bold" lengthAdjust="spacing" textLength="29.9736" x="728.7412" y="927.1138">[20]</text><text fill="#000000" font-family="sans-serif" font-size="13" lengthAdjust="spacing" textLength="80.1582" x="762.7148" y="927.1138">AUTH_CODE</text><polygon fill="#181818" points="732.7412,957.3125,722.7412,961.3125,732.7412,965.3125,728.7412,961.3125" style="stroke:#181818;stroke-width:1.0;"/><line style="stroke:#181818;stroke-width:1.0;stroke-dasharray:2.0,2.0;" x1="726.7412" x2="1508.2856" y1="961.3125" y2="961.3125"/><text fill="#000000" font-family="sans-serif" font-size="13" font-weight="bold" lengthAdjust="spacing" textLength="29.9736" x="738.7412" y="956.2466">[21]</text><text fill="#000000" font-family="sans-serif" font-size="13" lengthAdjust="spacing" textLength="186.291" x="772.7148" y="956.2466">ID_TOKEN, (ACCESS_TOKEN)</text><line style="stroke:#181818;stroke-width:1.0;" x1="721.7412" x2="763.7412" y1="990.4453" y2="990.4453"/><line style="stroke:#181818;stroke-width:1.0;" x1="763.7412" x2="763.7412" y1="990.4453" y2="1003.4453"/><line style="stroke:#181818;stroke-width:1.0;" x1="722.7412" x2="763.7412" y1="1003.4453" y2="1003.4453"/><polygon fill="#181818" points="732.7412,999.4453,722.7412,1003.4453,732.7412,1007.4453,728.7412,1003.4453" style="stroke:#181818;stroke-width:1.0;"/><text fill="#000000" font-family="sans-serif" font-size="13" font-weight="bold" lengthAdjust="spacing" textLength="29.9736" x="728.7412" y="985.3794">[22]</text><text fill="#000000" font-family="sans-serif" font-size="13" lengthAdjust="spacing" textLength="337.6001" x="762.7148" y="985.3794">Erzeuge search-ACCESS_TOKEN &amp; REFRESH_TOKEN</text><polygon fill="#181818" points="123.4541,1035.5781,113.4541,1039.5781,123.4541,1043.5781,119.4541,1039.5781" style="stroke:#181818;stroke-width:1.0;"/><line style="stroke:#181818;stroke-width:1.0;stroke-dasharray:2.0,2.0;" x1="117.4541" x2="710.7412" y1="1039.5781" y2="1039.5781"/><text fill="#000000" font-family="sans-serif" font-size="13" font-weight="bold" lengthAdjust="spacing" textLength="29.9736" x="129.4541" y="1034.5122">[23]</text><text fill="#000000" font-family="sans-serif" font-size="13" lengthAdjust="spacing" textLength="536.3135" x="163.4277" y="1034.5122">Response AUTHORIZATION REQUEST (search-ACCESS_TOKEN &amp; REFRESH_TOKEN)</text><rect fill="#EEEEEE" height="3" style="stroke:#EEEEEE;stroke-width:1.0;" width="1850.6499" x="0" y="1068.1445"/><line style="stroke:#000000;stroke-width:1.0;" x1="0" x2="1850.6499" y1="1068.1445" y2="1068.1445"/><line style="stroke:#000000;stroke-width:1.0;" x1="0" x2="1850.6499" y1="1071.1445" y2="1071.1445"/><rect fill="#EEEEEE" height="23.1328" style="stroke:#000000;stroke-width:2.0;" width="156.2256" x="847.2122" y="1057.5781"/><text fill="#000000" font-family="sans-serif" font-size="13" font-weight="bold" lengthAdjust="spacing" textLength="137.6997" x="853.2122" y="1073.645">...fachlicher flow...</text><polygon fill="#181818" points="1110.3149,1122.9766,1120.3149,1126.9766,1110.3149,1130.9766,1114.3149,1126.9766" style="stroke:#181818;stroke-width:1.0;"/><line style="stroke:#181818;stroke-width:1.0;" x1="112.4541" x2="1116.3149" y1="1126.9766" y2="1126.9766"/><text fill="#000000" font-family="sans-serif" font-size="13" font-weight="bold" lengthAdjust="spacing" textLength="29.9736" x="119.4541" y="1114.3442">[24]</text><text fill="#000000" font-family="sans-serif" font-size="13" lengthAdjust="spacing" textLength="222.4028" x="153.4277" y="1106.7778">GET /psearch?... (Auth Header mit</text><text fill="#000000" font-family="sans-serif" font-size="13" lengthAdjust="spacing" textLength="156.1333" x="153.4277" y="1121.9106">search-ACCESS_TOKEN)</text><line style="stroke:#181818;stroke-width:1.0;" x1="1132.3149" x2="1174.3149" y1="1156.1094" y2="1156.1094"/><line style="stroke:#181818;stroke-width:1.0;" x1="1174.3149" x2="1174.3149" y1="1156.1094" y2="1169.1094"/><line style="stroke:#181818;stroke-width:1.0;" x1="1133.3149" x2="1174.3149" y1="1169.1094" y2="1169.1094"/><polygon fill="#181818" points="1143.3149,1165.1094,1133.3149,1169.1094,1143.3149,1173.1094,1139.3149,1169.1094" style="stroke:#181818;stroke-width:1.0;"/><text fill="#000000" font-family="sans-serif" font-size="13" font-weight="bold" lengthAdjust="spacing" textLength="29.9736" x="1139.3149" y="1151.0435">[25]</text><text fill="#000000" font-family="sans-serif" font-size="13" lengthAdjust="spacing" textLength="189.6045" x="1173.2886" y="1151.0435">pr&#252;fe search-ACCESS_TOKEN</text><path d="M30,1184.1094 L94.4429,1184.1094 L94.4429,1191.2422 L84.4429,1201.2422 L30,1201.2422 L30,1184.1094 " fill="#EEEEEE" style="stroke:#000000;stroke-width:1.5;"/><rect fill="none" height="163.6016" style="stroke:#000000;stroke-width:1.5;" width="1423.0532" x="30" y="1184.1094"/><text fill="#000000" font-family="sans-serif" font-size="13" font-weight="bold" lengthAdjust="spacing" textLength="19.4429" x="45" y="1197.1763">alt</text><text fill="#000000" font-family="sans-serif" font-size="11" font-weight="bold" lengthAdjust="spacing" textLength="199.4287" x="109.4429" y="1196.3198">[search-ACCESS_TOKEN is valid]</text><polygon fill="#181818" points="1367.8931,1218.375,1377.8931,1222.375,1367.8931,1226.375,1371.8931,1222.375" style="stroke:#181818;stroke-width:1.0;"/><line style="stroke:#181818;stroke-width:1.0;" x1="1132.3149" x2="1373.8931" y1="1222.375" y2="1222.375"/><text fill="#000000" font-family="sans-serif" font-size="13" font-weight="bold" lengthAdjust="spacing" textLength="29.9736" x="1139.3149" y="1217.3091">[26]</text><text fill="#000000" font-family="sans-serif" font-size="13" lengthAdjust="spacing" textLength="54.0376" x="1173.2886" y="1217.3091">GET /?...</text><polygon fill="#181818" points="1143.3149,1262.6406,1133.3149,1266.6406,1143.3149,1270.6406,1139.3149,1266.6406" style="stroke:#181818;stroke-width:1.0;"/><line style="stroke:#181818;stroke-width:1.0;stroke-dasharray:2.0,2.0;" x1="1137.3149" x2="1383.8931" y1="1266.6406" y2="1266.6406"/><text fill="#000000" font-family="sans-serif" font-size="13" font-weight="bold" lengthAdjust="spacing" textLength="29.9736" x="1149.3149" y="1254.0083">[27]</text><text fill="#000000" font-family="sans-serif" font-size="13" lengthAdjust="spacing" textLength="85.3315" x="1183.2886" y="1246.4419">HTTP 200 OK</text><text fill="#000000" font-family="sans-serif" font-size="13" lengthAdjust="spacing" textLength="118.5552" x="1183.2886" y="1261.5747">(Result Body json)</text><polygon fill="#181818" points="123.4541,1291.7734,113.4541,1295.7734,123.4541,1299.7734,119.4541,1295.7734" style="stroke:#181818;stroke-width:1.0;"/><line style="stroke:#181818;stroke-width:1.0;stroke-dasharray:2.0,2.0;" x1="117.4541" x2="1121.3149" y1="1295.7734" y2="1295.7734"/><text fill="#000000" font-family="sans-serif" font-size="13" font-weight="bold" lengthAdjust="spacing" textLength="29.9736" x="129.4541" y="1290.7075">[28]</text><text fill="#000000" font-family="sans-serif" font-size="13" lengthAdjust="spacing" textLength="208.019" x="163.4277" y="1290.7075">HTTP 200 OK (Result Body json)</text><line style="stroke:#000000;stroke-width:1.0;stroke-dasharray:2.0,2.0;" x1="30" x2="1453.0532" y1="1304.7734" y2="1304.7734"/><text fill="#000000" font-family="sans-serif" font-size="11" font-weight="bold" lengthAdjust="spacing" textLength="211.0303" x="35" y="1314.9839">[search-ACCESS_TOKEN is invalid]</text><polygon fill="#181818" points="123.4541,1335.7109,113.4541,1339.7109,123.4541,1343.7109,119.4541,1339.7109" style="stroke:#181818;stroke-width:1.0;"/><line style="stroke:#181818;stroke-width:1.0;stroke-dasharray:2.0,2.0;" x1="117.4541" x2="1126.3149" y1="1339.7109" y2="1339.7109"/><text fill="#000000" font-family="sans-serif" font-size="13" font-weight="bold" lengthAdjust="spacing" textLength="29.9736" x="129.4541" y="1334.645">[29]</text><text fill="#000000" font-family="sans-serif" font-size="13" lengthAdjust="spacing" textLength="62.4419" x="163.4277" y="1334.645">HTTP 401</text><rect fill="#EEEEEE" height="3" style="stroke:#EEEEEE;stroke-width:1.0;" width="1850.6499" x="0" y="1375.2773"/><line style="stroke:#000000;stroke-width:1.0;" x1="0" x2="1850.6499" y1="1375.2773" y2="1375.2773"/><line style="stroke:#000000;stroke-width:1.0;" x1="0" x2="1850.6499" y1="1378.2773" y2="1378.2773"/><rect fill="#EEEEEE" height="23.1328" style="stroke:#000000;stroke-width:2.0;" width="302.1899" x="774.23" y="1364.7109"/><text fill="#000000" font-family="sans-serif" font-size="13" font-weight="bold" lengthAdjust="spacing" textLength="283.6641" x="780.23" y="1380.7778">...search-ACCESS_TOKEN abgelaufen...</text><polygon fill="#181818" points="694.7412,1414.9766,704.7412,1418.9766,694.7412,1422.9766,698.7412,1418.9766" style="stroke:#181818;stroke-width:1.0;"/><line style="stroke:#181818;stroke-width:1.0;" x1="112.4541" x2="700.7412" y1="1418.9766" y2="1418.9766"/><text fill="#000000" font-family="sans-serif" font-size="13" font-weight="bold" lengthAdjust="spacing" textLength="29.9736" x="119.4541" y="1413.9106">[30]</text><text fill="#000000" font-family="sans-serif" font-size="13" lengthAdjust="spacing" textLength="111.1348" x="153.4277" y="1413.9106">REFRESH_TOKEN</text><line style="stroke:#181818;stroke-width:1.0;" x1="716.7412" x2="758.7412" y1="1448.1094" y2="1448.1094"/><line style="stroke:#181818;stroke-width:1.0;" x1="758.7412" x2="758.7412" y1="1448.1094" y2="1461.1094"/><line style="stroke:#181818;stroke-width:1.0;" x1="717.7412" x2="758.7412" y1="1461.1094" y2="1461.1094"/><polygon fill="#181818" points="727.7412,1457.1094,717.7412,1461.1094,727.7412,1465.1094,723.7412,1461.1094" style="stroke:#181818;stroke-width:1.0;"/><text fill="#000000" font-family="sans-serif" font-size="13" font-weight="bold" lengthAdjust="spacing" textLength="29.9736" x="723.7412" y="1443.0435">[31]</text><text fill="#000000" font-family="sans-serif" font-size="13" lengthAdjust="spacing" textLength="149.2651" x="757.7148" y="1443.0435">Pr&#252;fe REFRESH_TOKEN</text><line style="stroke:#181818;stroke-width:1.0;" x1="716.7412" x2="758.7412" y1="1490.2422" y2="1490.2422"/><line style="stroke:#181818;stroke-width:1.0;" x1="758.7412" x2="758.7412" y1="1490.2422" y2="1503.2422"/><line style="stroke:#181818;stroke-width:1.0;" x1="717.7412" x2="758.7412" y1="1503.2422" y2="1503.2422"/><polygon fill="#181818" points="727.7412,1499.2422,717.7412,1503.2422,727.7412,1507.2422,723.7412,1503.2422" style="stroke:#181818;stroke-width:1.0;"/><text fill="#000000" font-family="sans-serif" font-size="13" font-weight="bold" lengthAdjust="spacing" textLength="29.9736" x="723.7412" y="1485.1763">[32]</text><text fill="#000000" font-family="sans-serif" font-size="13" lengthAdjust="spacing" textLength="337.6001" x="757.7148" y="1485.1763">Erzeuge search-ACCESS_TOKEN &amp; REFRESH_TOKEN</text><polygon fill="#181818" points="123.4541,1528.375,113.4541,1532.375,123.4541,1536.375,119.4541,1532.375" style="stroke:#181818;stroke-width:1.0;"/><line style="stroke:#181818;stroke-width:1.0;stroke-dasharray:2.0,2.0;" x1="117.4541" x2="710.7412" y1="1532.375" y2="1532.375"/><text fill="#000000" font-family="sans-serif" font-size="13" font-weight="bold" lengthAdjust="spacing" textLength="29.9736" x="129.4541" y="1527.3091">[33]</text><text fill="#000000" font-family="sans-serif" font-size="13" lengthAdjust="spacing" textLength="357.8936" x="163.4277" y="1527.3091">Response (search-ACCESS_TOKEN &amp; REFRESH_TOKEN)</text><!--SRC=[hLNRRjf047tVhnYvKWKAfgJg4ofKb4j0IGCrbqffgcYn1zZ6s9PtdOPyMz_wOzsr3RPX8LGglDYxi-VCd3dZfP7mlMWznn0kvT_uE6z-hzL-64GmuI8OlVx0CcTt7MX5OeMUO9nX67bBM3C1LyWZpraX4tpGCGW9Q2YOpGBg2PYrNIRZWN8mqiSPXfpPAmm5XZ9wxZ-3H3PZYWuBqHP-k84ttrPCu7ZjFo81-Sk36YeBSupX4xFHKDYp5qUj7KGkWfWvnXw5_lF6E0nnif0TlK7GSq2cLYY6u-EWCuh3vQECewuKJ2uPK8WpUkXWI0NpFVX2kQfJ7LgWaxmHGjA4pUPkyUAY3aiKNIcks8m55RYMQf7TlcasqqDri907liSHzg9LXgAgCY8EKbkm9xcHvqtRiODIfAtff3-q1dUjoM1u2rRtwxGxdi2z1upp1aoj6oWM6pUus7H2g2l03rJ5rCsAImJJLmObkLKcIKY-k7q5SfKamKV4ww6mLw1dqQfuWYYJJFg0w0hIgrOQjQpodXffXNd9TMfOCiqjpvReP8vRps_npn73sjFY39ezAVRxfSYcri2KXMiwbQiejTvHvLAGigx4MD31Ed3Zx99F3-S1lh05u_OgitNMdrTfj4tQfQaWRlmbyoeGSUbxMusR56QFgGvsA6TTvaHTNe5s6fKl8Jb0pf8quxRGYRz587m8jyzo5YjnNG_jOQUhapjnwv4XFpYrpUs8lPFumm4TT1ucm-lkRGLAhNQxEnudh-LJaveDNVY2qL85qD1UcNa0U2lRrBEwutxoJeh3bxFGxljtfCbdW6jzfhDUem7LQdL1xPKRtrgmSFrVSWKQZPtKO3RbLLE7g-u4tWK9-oSLKr8Oq4SgxmDrLzvxcjJA97D6GEILbQ85uP_V2wrIYNbrLJ8EJzHbpXR6IPDIsUHevBu3PihJdqn6yBvMW-7rlLUIsaOI_BFlRE0dzxs2K8i4M1xSzI9t6ZI7qULuB5FcPRaUG7weNHQOWyGDIJjqW7I-H9T62_JskbCOXAB33lqvIaH_BUoVR7pAmV_Jgty1]--></g></svg>