<svg xmlns="http://www.w3.org/2000/svg" xmlns:xlink="http://www.w3.org/1999/xlink" contentStyleType="text/css" height="955.2083px" preserveAspectRatio="none" style="width:1361px;height:955px;background:#FFFFFF;" version="1.1" viewBox="0 0 1361 955" width="1361.4583px" zoomAndPan="magnify"><defs/><g><rect fill="#F5F5F5" height="943.7337" style="stroke:#181818;stroke-width:0.5208333333333334;" width="716.9505" x="467.3925" y="6.25"/><text fill="#000000" font-family="sans-serif" font-size="16.6667" font-weight="bold" lengthAdjust="spacing" textLength="138.737" x="754.142" y="21.7204">FHIR-Directory</text><text fill="#000000" font-family="sans-serif" font-size="13.5417" font-weight="bold" lengthAdjust="spacing" textLength="4.7145" x="892.879" y="22.4574">&#160;</text><rect fill="#FFFFFF" height="761.8652" style="stroke:#181818;stroke-width:1.0416666666666667;" width="10.4167" x="187.2569" y="95.1009"/><rect fill="#FFFFFF" height="221.5983" style="stroke:#181818;stroke-width:1.0416666666666667;" width="10.4167" x="513.6541" y="619.7428"/><rect fill="#FFFFFF" height="257.6335" style="stroke:#181818;stroke-width:1.0416666666666667;" width="10.4167" x="723.3668" y="308.7077"/><rect fill="#FFFFFF" height="46.11" style="stroke:#181818;stroke-width:1.0416666666666667;" width="10.4167" x="1114.3845" y="719.1162"/><rect fill="#FFFFFF" height="30.3467" style="stroke:#181818;stroke-width:1.0416666666666667;" width="10.4167" x="1262.8799" y="248.0143"/><rect fill="#FFFFFF" height="46.11" style="stroke:#181818;stroke-width:1.0416666666666667;" width="10.4167" x="1262.8799" y="414.4694"/><rect fill="none" height="366.5202" style="stroke:#000000;stroke-width:1.5625;" width="1253.8147" x="102.1856" y="208.1543"/><rect fill="none" height="170.4183" style="stroke:#000000;stroke-width:1.5625;" width="1088.4074" x="102.1856" y="679.2562"/><line style="stroke:#181818;stroke-width:0.5208333333333334;stroke-dasharray:5.0,5.0;" x1="32.2917" x2="32.2917" y1="84.6842" y2="867.3828"/><line style="stroke:#181818;stroke-width:0.5208333333333334;stroke-dasharray:5.0,5.0;" x1="191.7689" x2="191.7689" y1="84.6842" y2="867.3828"/><line style="stroke:#181818;stroke-width:0.5208333333333334;stroke-dasharray:5.0,5.0;" x1="518.4341" x2="518.4341" y1="84.6842" y2="867.3828"/><line style="stroke:#181818;stroke-width:0.5208333333333334;stroke-dasharray:5.0,5.0;" x1="727.739" x2="727.739" y1="84.6842" y2="867.3828"/><line style="stroke:#181818;stroke-width:0.5208333333333334;stroke-dasharray:5.0,5.0;" x1="1119.426" x2="1119.426" y1="84.6842" y2="867.3828"/><line style="stroke:#181818;stroke-width:0.5208333333333334;stroke-dasharray:5.0,5.0;" x1="1267.6763" x2="1267.6763" y1="84.6842" y2="867.3828"/><text fill="#000000" font-family="sans-serif" font-size="14.5833" lengthAdjust="spacing" textLength="48.4924" x="5.2083" y="81.2449">Nutzer</text><ellipse cx="32.5795" cy="14.0625" fill="#E3E3E3" rx="8.3333" ry="8.3333" style="stroke:#181818;stroke-width:0.5208333333333334;"/><path d="M32.5795,22.3958 L32.5795,50.5208 M19.0379,30.7292 L46.1212,30.7292 M32.5795,50.5208 L19.0379,66.1458 M32.5795,50.5208 L46.1212,66.1458 " fill="none" style="stroke:#181818;stroke-width:0.5208333333333334;"/><text fill="#000000" font-family="sans-serif" font-size="14.5833" lengthAdjust="spacing" textLength="48.4924" x="5.2083" y="879.8777">Nutzer</text><ellipse cx="32.5795" cy="892.1712" fill="#E3E3E3" rx="8.3333" ry="8.3333" style="stroke:#181818;stroke-width:0.5208333333333334;"/><path d="M32.5795,900.5046 L32.5795,928.6296 M19.0379,908.8379 L46.1212,908.8379 M32.5795,928.6296 L19.0379,944.2546 M32.5795,928.6296 L46.1212,944.2546 " fill="none" style="stroke:#181818;stroke-width:0.5208333333333334;"/><rect fill="#E3E3E3" height="31.5592" rx="2.6042" ry="2.6042" style="stroke:#181818;stroke-width:0.5208333333333334;" width="159.726" x="112.6022" y="52.0833"/><text fill="#000000" font-family="sans-serif" font-size="14.5833" lengthAdjust="spacing" textLength="145.1426" x="119.8939" y="72.9116">TI-Messenger-Client</text><rect fill="#E3E3E3" height="31.5592" rx="2.6042" ry="2.6042" style="stroke:#181818;stroke-width:0.5208333333333334;" width="159.726" x="112.6022" y="866.3411"/><text fill="#000000" font-family="sans-serif" font-size="14.5833" lengthAdjust="spacing" textLength="145.1426" x="119.8939" y="887.1694">TI-Messenger-Client</text><rect fill="#E3E3E3" height="31.5592" rx="2.6042" ry="2.6042" style="stroke:#181818;stroke-width:0.5208333333333334;" width="94.6065" x="471.5591" y="52.0833"/><text fill="#000000" font-family="sans-serif" font-size="14.5833" lengthAdjust="spacing" textLength="80.0232" x="478.8508" y="72.9116">FHIR-Proxy</text><rect fill="#E3E3E3" height="31.5592" rx="2.6042" ry="2.6042" style="stroke:#181818;stroke-width:0.5208333333333334;" width="94.6065" x="471.5591" y="866.3411"/><text fill="#000000" font-family="sans-serif" font-size="14.5833" lengthAdjust="spacing" textLength="80.0232" x="478.8508" y="887.1694">FHIR-Proxy</text><rect fill="#E3E3E3" height="31.5592" rx="2.6042" ry="2.6042" style="stroke:#181818;stroke-width:0.5208333333333334;" width="107.9224" x="674.614" y="52.0833"/><text fill="#000000" font-family="sans-serif" font-size="14.5833" lengthAdjust="spacing" textLength="93.339" x="681.9056" y="72.9116">Auth-Service</text><rect fill="#E3E3E3" height="31.5592" rx="2.6042" ry="2.6042" style="stroke:#181818;stroke-width:0.5208333333333334;" width="107.9224" x="674.614" y="866.3411"/><text fill="#000000" font-family="sans-serif" font-size="14.5833" lengthAdjust="spacing" textLength="93.339" x="681.9056" y="887.1694">Auth-Service</text><rect fill="#E3E3E3" height="31.5592" rx="2.6042" ry="2.6042" style="stroke:#181818;stroke-width:0.5208333333333334;" width="121.167" x="1059.0093" y="52.0833"/><text fill="#000000" font-family="sans-serif" font-size="14.5833" lengthAdjust="spacing" textLength="106.5837" x="1066.301" y="72.9116">FHIR-Directory</text><rect fill="#E3E3E3" height="31.5592" rx="2.6042" ry="2.6042" style="stroke:#181818;stroke-width:0.5208333333333334;" width="121.167" x="1059.0093" y="866.3411"/><text fill="#000000" font-family="sans-serif" font-size="14.5833" lengthAdjust="spacing" textLength="106.5837" x="1066.301" y="887.1694">FHIR-Directory</text><rect fill="#E3E3E3" height="48.5352" rx="2.6042" ry="2.6042" style="stroke:#181818;stroke-width:0.5208333333333334;" width="154.9906" x="1190.593" y="35.1074"/><text fill="#000000" font-family="sans-serif" font-size="14.5833" lengthAdjust="spacing" textLength="140.4073" x="1197.8846" y="55.9357">Matrix-Homeserver</text><text fill="#000000" font-family="sans-serif" font-size="14.5833" lengthAdjust="spacing" textLength="136.8042" x="1199.6862" y="72.9116">(Messenger-Proxy)</text><rect fill="#E3E3E3" height="48.5352" rx="2.6042" ry="2.6042" style="stroke:#181818;stroke-width:0.5208333333333334;" width="154.9906" x="1190.593" y="866.3411"/><text fill="#000000" font-family="sans-serif" font-size="14.5833" lengthAdjust="spacing" textLength="140.4073" x="1197.8846" y="887.1694">Matrix-Homeserver</text><text fill="#000000" font-family="sans-serif" font-size="14.5833" lengthAdjust="spacing" textLength="136.8042" x="1199.6862" y="904.1453">(Messenger-Proxy)</text><rect fill="#FFFFFF" height="761.8652" style="stroke:#181818;stroke-width:1.0416666666666667;" width="10.4167" x="187.2569" y="95.1009"/><rect fill="#FFFFFF" height="221.5983" style="stroke:#181818;stroke-width:1.0416666666666667;" width="10.4167" x="513.6541" y="619.7428"/><rect fill="#FFFFFF" height="257.6335" style="stroke:#181818;stroke-width:1.0416666666666667;" width="10.4167" x="723.3668" y="308.7077"/><rect fill="#FFFFFF" height="46.11" style="stroke:#181818;stroke-width:1.0416666666666667;" width="10.4167" x="1114.3845" y="719.1162"/><rect fill="#FFFFFF" height="30.3467" style="stroke:#181818;stroke-width:1.0416666666666667;" width="10.4167" x="1262.8799" y="248.0143"/><rect fill="#FFFFFF" height="46.11" style="stroke:#181818;stroke-width:1.0416666666666667;" width="10.4167" x="1262.8799" y="414.4694"/><polygon fill="#181818" points="174.7569,128.7109,185.1735,132.8776,174.7569,137.0443,178.9235,132.8776" style="stroke:#181818;stroke-width:1.0416666666666667;"/><line style="stroke:#181818;stroke-width:1.0416666666666667;" x1="32.5795" x2="181.0069" y1="132.8776" y2="132.8776"/><text fill="#000000" font-family="sans-serif" font-size="13.5417" lengthAdjust="spacing" textLength="66.8289" x="39.8712" y="111.8373">gibt FHIR-</text><text fill="#000000" font-family="sans-serif" font-size="13.5417" lengthAdjust="spacing" textLength="129.6773" x="39.8712" y="127.6006">Suchparameter ein</text><line style="stroke:#181818;stroke-width:1.0416666666666667;" x1="197.6735" x2="241.4235" y1="178.9876" y2="178.9876"/><line style="stroke:#181818;stroke-width:1.0416666666666667;" x1="241.4235" x2="241.4235" y1="178.9876" y2="192.5293"/><line style="stroke:#181818;stroke-width:1.0416666666666667;" x1="198.7152" x2="241.4235" y1="192.5293" y2="192.5293"/><polygon fill="#181818" points="209.1319,188.3626,198.7152,192.5293,209.1319,196.696,204.9652,192.5293" style="stroke:#181818;stroke-width:1.0416666666666667;"/><text fill="#000000" font-family="sans-serif" font-size="13.5417" lengthAdjust="spacing" textLength="290.9805" x="204.9652" y="157.9473">pr&#252;fe ob noch g&#252;ltiges search-accesstoken</text><text fill="#000000" font-family="sans-serif" font-size="13.5417" lengthAdjust="spacing" textLength="279.6738" x="204.9652" y="173.7106">vom FHIR-Directory Auth-Service vorliegt</text><path d="M102.1856,208.1543 L169.3136,208.1543 L169.3136,215.5843 L158.8969,226.001 L102.1856,226.001 L102.1856,208.1543 " fill="#EEEEEE" style="stroke:#000000;stroke-width:1.5625;"/><rect fill="none" height="366.5202" style="stroke:#000000;stroke-width:1.5625;" width="1253.8147" x="102.1856" y="208.1543"/><text fill="#000000" font-family="sans-serif" font-size="13.5417" font-weight="bold" lengthAdjust="spacing" textLength="20.253" x="117.8106" y="221.7656">alt</text><text fill="#000000" font-family="sans-serif" font-size="11.4583" font-weight="bold" lengthAdjust="spacing" textLength="298.879" x="184.9386" y="220.8735">[kein g&#252;ltiges search-accesstoken vorhanden]</text><polygon fill="#181818" points="1250.3799,243.8477,1260.7966,248.0143,1250.3799,252.181,1254.5466,248.0143" style="stroke:#181818;stroke-width:1.0416666666666667;"/><line style="stroke:#181818;stroke-width:1.0416666666666667;" x1="197.6735" x2="1256.6299" y1="248.0143" y2="248.0143"/><text fill="#000000" font-family="sans-serif" font-size="13.5417" lengthAdjust="spacing" textLength="406.164" x="204.9652" y="242.7373">POST /_matrix/client/r0/user/{userId}/openid/request_token</text><polygon fill="#181818" points="209.1319,274.1943,198.7152,278.361,209.1319,282.5277,204.9652,278.361" style="stroke:#181818;stroke-width:1.0416666666666667;"/><line style="stroke:#181818;stroke-width:1.0416666666666667;stroke-dasharray:2.0,2.0;" x1="202.8819" x2="1267.0466" y1="278.361" y2="278.361"/><text fill="#000000" font-family="sans-serif" font-size="13.5417" lengthAdjust="spacing" textLength="775.6505" x="215.3819" y="273.084">HTTP 200 OK, Result body {"access_token": "Matrix-OpenID-Token",..., "matrix_server_name": "example.com",...}</text><polygon fill="#181818" points="710.8668,304.541,721.2835,308.7077,710.8668,312.8743,715.0335,308.7077" style="stroke:#181818;stroke-width:1.0416666666666667;"/><line style="stroke:#181818;stroke-width:1.0416666666666667;" x1="197.6735" x2="717.1168" y1="308.7077" y2="308.7077"/><text fill="#000000" font-family="sans-serif" font-size="13.5417" lengthAdjust="spacing" textLength="437.7965" x="204.9652" y="303.4307">GET /tim-authenticate... (Auth Header mit Matrix-OpenID-Token)</text><line style="stroke:#181818;stroke-width:1.0416666666666667;" x1="733.7835" x2="777.5335" y1="354.8177" y2="354.8177"/><line style="stroke:#181818;stroke-width:1.0416666666666667;" x1="777.5335" x2="777.5335" y1="354.8177" y2="368.3594"/><line style="stroke:#181818;stroke-width:1.0416666666666667;" x1="734.8251" x2="777.5335" y1="368.3594" y2="368.3594"/><polygon fill="#181818" points="745.2418,364.1927,734.8251,368.3594,745.2418,372.526,741.0751,368.3594" style="stroke:#181818;stroke-width:1.0416666666666667;"/><text fill="#000000" font-family="sans-serif" font-size="13.5417" lengthAdjust="spacing" textLength="199.8586" x="741.0751" y="333.7774">Pr&#252;fe ob matrix_server_name</text><text fill="#000000" font-family="sans-serif" font-size="13.5417" lengthAdjust="spacing" textLength="194.1259" x="741.0751" y="349.5407">in F&#246;derationsliste enthalten</text><polygon fill="#181818" points="1250.3799,410.3027,1260.7966,414.4694,1250.3799,418.6361,1254.5466,414.4694" style="stroke:#181818;stroke-width:1.0416666666666667;"/><line style="stroke:#181818;stroke-width:1.0416666666666667;" x1="733.7835" x2="1256.6299" y1="414.4694" y2="414.4694"/><text fill="#000000" font-family="sans-serif" font-size="13.5417" lengthAdjust="spacing" textLength="146.3994" x="741.0751" y="393.4291">GET /openid/userinfo/</text><text fill="#000000" font-family="sans-serif" font-size="13.5417" lengthAdjust="spacing" textLength="405.9591" x="741.0751" y="409.1924">request header, Authorization: Bearer Matrix-OpenID-Token</text><polygon fill="#181818" points="745.2418,456.4128,734.8251,460.5794,745.2418,464.7461,741.0751,460.5794" style="stroke:#181818;stroke-width:1.0416666666666667;"/><line style="stroke:#181818;stroke-width:1.0416666666666667;stroke-dasharray:2.0,2.0;" x1="738.9918" x2="1267.0466" y1="460.5794" y2="460.5794"/><text fill="#000000" font-family="sans-serif" font-size="13.5417" lengthAdjust="spacing" textLength="88.887" x="751.4918" y="439.5391">HTTP 200 OK</text><text fill="#000000" font-family="sans-serif" font-size="13.5417" lengthAdjust="spacing" textLength="215.8666" x="751.4918" y="455.3024">(Result Body MXID des Nutzers)</text><line style="stroke:#181818;stroke-width:1.0416666666666667;" x1="733.7835" x2="777.5335" y1="490.9261" y2="490.9261"/><line style="stroke:#181818;stroke-width:1.0416666666666667;" x1="777.5335" x2="777.5335" y1="490.9261" y2="504.4678"/><line style="stroke:#181818;stroke-width:1.0416666666666667;" x1="734.8251" x2="777.5335" y1="504.4678" y2="504.4678"/><polygon fill="#181818" points="745.2418,500.3011,734.8251,504.4678,745.2418,508.6344,741.0751,504.4678" style="stroke:#181818;stroke-width:1.0416666666666667;"/><text fill="#000000" font-family="sans-serif" font-size="13.5417" lengthAdjust="spacing" textLength="355.601" x="741.0751" y="485.6491">erzeuge search-accesstoken f&#252;r TI-Messenger-Client</text><polygon fill="#181818" points="209.1319,562.1745,198.7152,566.3411,209.1319,570.5078,204.9652,566.3411" style="stroke:#181818;stroke-width:1.0416666666666667;"/><line style="stroke:#181818;stroke-width:1.0416666666666667;stroke-dasharray:2.0,2.0;" x1="202.8819" x2="727.5335" y1="566.3411" y2="566.3411"/><text fill="#000000" font-family="sans-serif" font-size="13.5417" lengthAdjust="spacing" textLength="177.741" x="215.3819" y="529.5375">HTTP 200 OK, Result body</text><text fill="#000000" font-family="sans-serif" font-size="13.5417" lengthAdjust="spacing" textLength="432.2291" x="215.3819" y="545.3008">{"access_token"="search-accesstoken", "token_type":"bearer",</text><text fill="#000000" font-family="sans-serif" font-size="13.5417" lengthAdjust="spacing" textLength="137.4863" x="215.3819" y="561.0641">"expires_in":86400}</text><polygon fill="#181818" points="501.1541,615.5762,511.5707,619.7428,501.1541,623.9095,505.3207,619.7428" style="stroke:#181818;stroke-width:1.0416666666666667;"/><line style="stroke:#181818;stroke-width:1.0416666666666667;" x1="197.6735" x2="507.4041" y1="619.7428" y2="619.7428"/><text fill="#000000" font-family="sans-serif" font-size="13.5417" lengthAdjust="spacing" textLength="223.0738" x="204.9652" y="598.7025">GET /search?... (Auth Header mit</text><text fill="#000000" font-family="sans-serif" font-size="13.5417" lengthAdjust="spacing" textLength="139.4302" x="204.9652" y="614.4658">search-accesstoken)</text><line style="stroke:#181818;stroke-width:1.0416666666666667;" x1="524.0707" x2="567.8207" y1="650.0895" y2="650.0895"/><line style="stroke:#181818;stroke-width:1.0416666666666667;" x1="567.8207" x2="567.8207" y1="650.0895" y2="663.6312"/><line style="stroke:#181818;stroke-width:1.0416666666666667;" x1="525.1124" x2="567.8207" y1="663.6312" y2="663.6312"/><polygon fill="#181818" points="535.5291,659.4645,525.1124,663.6312,535.5291,667.7979,531.3624,663.6312" style="stroke:#181818;stroke-width:1.0416666666666667;"/><text fill="#000000" font-family="sans-serif" font-size="13.5417" lengthAdjust="spacing" textLength="174.2961" x="531.3624" y="644.8125">pr&#252;fe search-accesstoken</text><path d="M102.1856,679.2562 L169.3136,679.2562 L169.3136,686.6862 L158.8969,697.1029 L102.1856,697.1029 L102.1856,679.2562 " fill="#EEEEEE" style="stroke:#000000;stroke-width:1.5625;"/><rect fill="none" height="170.4183" style="stroke:#000000;stroke-width:1.5625;" width="1088.4074" x="102.1856" y="679.2562"/><text fill="#000000" font-family="sans-serif" font-size="13.5417" font-weight="bold" lengthAdjust="spacing" textLength="20.253" x="117.8106" y="692.8675">alt</text><text fill="#000000" font-family="sans-serif" font-size="11.4583" font-weight="bold" lengthAdjust="spacing" textLength="187.7645" x="184.9386" y="691.9754">[search-accesstoken is valid]</text><polygon fill="#181818" points="1101.8845,714.9495,1112.3011,719.1162,1101.8845,723.2829,1106.0511,719.1162" style="stroke:#181818;stroke-width:1.0416666666666667;"/><line style="stroke:#181818;stroke-width:1.0416666666666667;" x1="524.0707" x2="1108.1345" y1="719.1162" y2="719.1162"/><text fill="#000000" font-family="sans-serif" font-size="13.5417" lengthAdjust="spacing" textLength="56.2892" x="531.3624" y="713.8392">GET /?...</text><polygon fill="#181818" points="535.5291,761.0596,525.1124,765.2262,535.5291,769.3929,531.3624,765.2262" style="stroke:#181818;stroke-width:1.0416666666666667;"/><line style="stroke:#181818;stroke-width:1.0416666666666667;stroke-dasharray:2.0,2.0;" x1="529.2791" x2="1118.5511" y1="765.2262" y2="765.2262"/><text fill="#000000" font-family="sans-serif" font-size="13.5417" lengthAdjust="spacing" textLength="88.887" x="541.7791" y="744.1859">HTTP 200 OK</text><text fill="#000000" font-family="sans-serif" font-size="13.5417" lengthAdjust="spacing" textLength="123.495" x="541.7791" y="759.9492">(Result Body json)</text><polygon fill="#181818" points="209.1319,791.4063,198.7152,795.5729,209.1319,799.7396,204.9652,795.5729" style="stroke:#181818;stroke-width:1.0416666666666667;"/><line style="stroke:#181818;stroke-width:1.0416666666666667;stroke-dasharray:2.0,2.0;" x1="202.8819" x2="512.6124" y1="795.5729" y2="795.5729"/><text fill="#000000" font-family="sans-serif" font-size="13.5417" lengthAdjust="spacing" textLength="216.6865" x="215.3819" y="790.2959">HTTP 200 OK (Result Body json)</text><line style="stroke:#000000;stroke-width:1.0416666666666667;stroke-dasharray:2.0,2.0;" x1="102.1856" x2="1190.593" y1="804.9479" y2="804.9479"/><text fill="#000000" font-family="sans-serif" font-size="11.4583" font-weight="bold" lengthAdjust="spacing" textLength="199.8494" x="107.3939" y="815.5838">[search-accesstoken is invalid]</text><polygon fill="#181818" points="209.1319,837.1745,198.7152,841.3411,209.1319,845.5078,204.9652,841.3411" style="stroke:#181818;stroke-width:1.0416666666666667;"/><line style="stroke:#181818;stroke-width:1.0416666666666667;stroke-dasharray:2.0,2.0;" x1="202.8819" x2="517.8207" y1="841.3411" y2="841.3411"/><text fill="#000000" font-family="sans-serif" font-size="13.5417" lengthAdjust="spacing" textLength="65.0436" x="215.3819" y="836.0641">HTTP 401</text><!--SRC=[XLHDJzj04BtlhnYv1q2Aur0XL4MKgfHIeeg2I2Hwi1Hjx4cynTvrTzTH4iJVweaRVwopQqC-QI-Hivvvy-QzjpRtGfPSymBIKi1XfyFCwycTvkMTI6q6xzVE2oLLacbL85XT8MDxLjWS8RYuxDs6vq9ZOfMUjw2FlokKYrJmYUipo7MIxJ7kNiEFoYvGCuAq8X4bbnQI7BY1OD0Bhz0Ob1FKuPTSeBG16waPd1YnmExXyUdwe9F8dP_2kxjCMEmNwXuPm2hmkFJ0lkr6gzays2ZWbI_uNDaixAEUYWGtIyRf4kDrTC1Gfa3SrlR8Z2-zubQBMNX9GXd2H1tB_ULYdiT1uDGGKswHjcUi5WN2K_hNdOYH1JylblqgoRpwQEaz2ib8hBeCIltyD4PG8t2-mEJvARTYWgOHFEH9GbCjoI9ZELK5hEy0grl3L6bIV68Puxc5UvhqJq1Ndt6PuWkXp7JXvhe_W6XO-FsZn3iOwKvKaGpHW_ljfO-HAb6ADD8k9COEFTnIZSmmaZ5iLhmS36vS2k7wUmjkqLJ4RQJIEJm4DPcwFUY-gdvDwBtpSE2FM-rskmL1JMXOcp6K9APhm1aloXpRYIfyuIDBSPL6lHUlkl3jAwrbHH5oKens4WcLK0ViEmdX4dbAvXJ2mWuI1ylTUCKeS0tepQjxs_HYIV9VFFyXM6w5aYONXlffT4RkEBcg5yqzjqPIfx2GOnN5ib4NCi-jvRrMMYmyN1VEo52Yl8FkBYSStHKdACwD5MVEYgkVlND8AILrYCt1XexBbL4li9hWhZYDdvyqxFW0-Ex_X26M6sdu66nF22W7_c5evoNv7uoy144hbfI4aYw56GeAqeVZeqvdBGha6brsrkHXN3QQroC-xOf1BBVdhyHWN3BwC3LOpINURgWluWwfX84fpqNw0f8sX1oLbI7qFlNIkIblk_VBABdcsBW6tjOSTlHXRl0DZa8kMQw27NKEryQLjRehHqd-5m00]--></g></svg>