<?xml version="1.0" encoding="us-ascii" standalone="no"?><svg xmlns="http://www.w3.org/2000/svg" xmlns:xlink="http://www.w3.org/1999/xlink" contentStyleType="text/css" height="1230.2083px" preserveAspectRatio="none" style="width:1655px;height:1230px;background:#FFFFFF;" version="1.1" viewBox="0 0 1655 1230" width="1655.2083px" zoomAndPan="magnify"><defs/><g><rect fill="#F5F5F5" height="1217.8304" style="stroke:#181818;stroke-width:0.5208333333333334;" width="810.9375" x="478.6458" y="6.25"/><text fill="#000000" font-family="sans-serif" font-size="16.6667" font-weight="bold" lengthAdjust="spacing" textLength="135.4167" x="813.8021" y="21.7204">FHIR-Directory</text><text fill="#000000" font-family="sans-serif" font-size="13.5417" font-weight="bold" lengthAdjust="spacing" textLength="5.2083" x="949.2188" y="22.4574">&#160;</text><rect fill="#FFFFFF" height="1035.9619" style="stroke:#181818;stroke-width:1.0416666666666667;" width="10.4167" x="198.9583" y="95.1009"/><rect fill="#FFFFFF" height="221.5983" style="stroke:#181818;stroke-width:1.0416666666666667;" width="10.4167" x="522.9167" y="893.8395"/><rect fill="#FFFFFF" height="500.2035" style="stroke:#181818;stroke-width:1.0416666666666667;" width="10.4167" x="742.7083" y="340.2344"/><rect fill="#FFFFFF" height="46.11" style="stroke:#181818;stroke-width:1.0416666666666667;" width="10.4167" x="1221.875" y="993.2129"/><rect fill="#FFFFFF" height="46.11" style="stroke:#181818;stroke-width:1.0416666666666667;" width="10.4167" x="1558.3333" y="248.0143"/><rect fill="#FFFFFF" height="46.11" style="stroke:#181818;stroke-width:1.0416666666666667;" width="10.4167" x="1558.3333" y="474.1211"/><rect fill="none" height="640.6169" style="stroke:#000000;stroke-width:1.5625;" width="1534.8958" x="114.0625" y="208.1543"/><rect fill="none" height="184.0983" style="stroke:#000000;stroke-width:1.5625;" width="488.0208" x="684.8958" y="595.5078"/><rect fill="none" height="170.4183" style="stroke:#000000;stroke-width:1.5625;" width="1181.7708" x="114.0625" y="953.3529"/><line style="stroke:#181818;stroke-width:0.5208333333333334;stroke-dasharray:5.0,5.0;" x1="32.2917" x2="32.2917" y1="84.6842" y2="1141.4795"/><line style="stroke:#181818;stroke-width:0.5208333333333334;stroke-dasharray:5.0,5.0;" x1="203.6458" x2="203.6458" y1="84.6842" y2="1141.4795"/><line style="stroke:#181818;stroke-width:0.5208333333333334;stroke-dasharray:5.0,5.0;" x1="527.6042" x2="527.6042" y1="84.6842" y2="1141.4795"/><line style="stroke:#181818;stroke-width:0.5208333333333334;stroke-dasharray:5.0,5.0;" x1="747.3958" x2="747.3958" y1="84.6842" y2="1141.4795"/><line style="stroke:#181818;stroke-width:0.5208333333333334;stroke-dasharray:5.0,5.0;" x1="1227.0833" x2="1227.0833" y1="84.6842" y2="1141.4795"/><line style="stroke:#181818;stroke-width:0.5208333333333334;stroke-dasharray:5.0,5.0;" x1="1563.5417" x2="1563.5417" y1="84.6842" y2="1141.4795"/><text fill="#000000" font-family="sans-serif" font-size="14.5833" lengthAdjust="spacing" textLength="47.9167" x="5.2083" y="81.2449">Nutzer</text><ellipse cx="32.2917" cy="14.0625" fill="#E3E3E3" rx="8.3333" ry="8.3333" style="stroke:#181818;stroke-width:0.5208333333333334;"/><path d="M32.2917,22.3958 L32.2917,50.5208 M18.75,30.7292 L45.8333,30.7292 M32.2917,50.5208 L18.75,66.1458 M32.2917,50.5208 L45.8333,66.1458 " fill="none" style="stroke:#181818;stroke-width:0.5208333333333334;"/><text fill="#000000" font-family="sans-serif" font-size="14.5833" lengthAdjust="spacing" textLength="47.9167" x="5.2083" y="1153.9744">Nutzer</text><ellipse cx="32.2917" cy="1166.2679" fill="#E3E3E3" rx="8.3333" ry="8.3333" style="stroke:#181818;stroke-width:0.5208333333333334;"/><path d="M32.2917,1174.6012 L32.2917,1202.7262 M18.75,1182.9346 L45.8333,1182.9346 M32.2917,1202.7262 L18.75,1218.3512 M32.2917,1202.7262 L45.8333,1218.3512 " fill="none" style="stroke:#181818;stroke-width:0.5208333333333334;"/><rect fill="#E3E3E3" height="31.5592" rx="2.6042" ry="2.6042" style="stroke:#181818;stroke-width:0.5208333333333334;" width="159.375" x="124.4792" y="52.0833"/><text fill="#000000" font-family="sans-serif" font-size="14.5833" lengthAdjust="spacing" textLength="144.7917" x="131.7708" y="72.9116">TI-Messenger-Client</text><rect fill="#E3E3E3" height="31.5592" rx="2.6042" ry="2.6042" style="stroke:#181818;stroke-width:0.5208333333333334;" width="159.375" x="124.4792" y="1140.4378"/><text fill="#000000" font-family="sans-serif" font-size="14.5833" lengthAdjust="spacing" textLength="144.7917" x="131.7708" y="1161.2661">TI-Messenger-Client</text><rect fill="#E3E3E3" height="31.5592" rx="2.6042" ry="2.6042" style="stroke:#181818;stroke-width:0.5208333333333334;" width="90.625" x="482.8125" y="52.0833"/><text fill="#000000" font-family="sans-serif" font-size="14.5833" lengthAdjust="spacing" textLength="76.0417" x="490.1042" y="72.9116">FHIR-Proxy</text><rect fill="#E3E3E3" height="31.5592" rx="2.6042" ry="2.6042" style="stroke:#181818;stroke-width:0.5208333333333334;" width="90.625" x="482.8125" y="1140.4378"/><text fill="#000000" font-family="sans-serif" font-size="14.5833" lengthAdjust="spacing" textLength="76.0417" x="490.1042" y="1161.2661">FHIR-Proxy</text><rect fill="#E3E3E3" height="31.5592" rx="2.6042" ry="2.6042" style="stroke:#181818;stroke-width:0.5208333333333334;" width="105.2083" x="695.3125" y="52.0833"/><text fill="#000000" font-family="sans-serif" font-size="14.5833" lengthAdjust="spacing" textLength="90.625" x="702.6042" y="72.9116">Auth-Service</text><rect fill="#E3E3E3" height="31.5592" rx="2.6042" ry="2.6042" style="stroke:#181818;stroke-width:0.5208333333333334;" width="105.2083" x="695.3125" y="1140.4378"/><text fill="#000000" font-family="sans-serif" font-size="14.5833" lengthAdjust="spacing" textLength="90.625" x="702.6042" y="1161.2661">Auth-Service</text><rect fill="#E3E3E3" height="31.5592" rx="2.6042" ry="2.6042" style="stroke:#181818;stroke-width:0.5208333333333334;" width="116.6667" x="1168.75" y="52.0833"/><text fill="#000000" font-family="sans-serif" font-size="14.5833" lengthAdjust="spacing" textLength="102.0833" x="1176.0417" y="72.9116">FHIR-Directory</text><rect fill="#E3E3E3" height="31.5592" rx="2.6042" ry="2.6042" style="stroke:#181818;stroke-width:0.5208333333333334;" width="116.6667" x="1168.75" y="1140.4378"/><text fill="#000000" font-family="sans-serif" font-size="14.5833" lengthAdjust="spacing" textLength="102.0833" x="1176.0417" y="1161.2661">FHIR-Directory</text><rect fill="#E3E3E3" height="48.5352" rx="2.6042" ry="2.6042" style="stroke:#181818;stroke-width:0.5208333333333334;" width="150" x="1488.5417" y="35.1074"/><text fill="#000000" font-family="sans-serif" font-size="14.5833" lengthAdjust="spacing" textLength="134.375" x="1496.3542" y="55.9357">Matrix-Homeserver</text><text fill="#000000" font-family="sans-serif" font-size="14.5833" lengthAdjust="spacing" textLength="135.4167" x="1495.8333" y="72.9116">(Messenger-Proxy)</text><rect fill="#E3E3E3" height="48.5352" rx="2.6042" ry="2.6042" style="stroke:#181818;stroke-width:0.5208333333333334;" width="150" x="1488.5417" y="1140.4378"/><text fill="#000000" font-family="sans-serif" font-size="14.5833" lengthAdjust="spacing" textLength="134.375" x="1496.3542" y="1161.2661">Matrix-Homeserver</text><text fill="#000000" font-family="sans-serif" font-size="14.5833" lengthAdjust="spacing" textLength="135.4167" x="1495.8333" y="1178.242">(Messenger-Proxy)</text><rect fill="#FFFFFF" height="1035.9619" style="stroke:#181818;stroke-width:1.0416666666666667;" width="10.4167" x="198.9583" y="95.1009"/><rect fill="#FFFFFF" height="221.5983" style="stroke:#181818;stroke-width:1.0416666666666667;" width="10.4167" x="522.9167" y="893.8395"/><rect fill="#FFFFFF" height="500.2035" style="stroke:#181818;stroke-width:1.0416666666666667;" width="10.4167" x="742.7083" y="340.2344"/><rect fill="#FFFFFF" height="46.11" style="stroke:#181818;stroke-width:1.0416666666666667;" width="10.4167" x="1221.875" y="993.2129"/><rect fill="#FFFFFF" height="46.11" style="stroke:#181818;stroke-width:1.0416666666666667;" width="10.4167" x="1558.3333" y="248.0143"/><rect fill="#FFFFFF" height="46.11" style="stroke:#181818;stroke-width:1.0416666666666667;" width="10.4167" x="1558.3333" y="474.1211"/><polygon fill="#181818" points="186.4583,128.7109,196.875,132.8776,186.4583,137.0443,190.625,132.8776" style="stroke:#181818;stroke-width:1.0416666666666667;"/><line style="stroke:#181818;stroke-width:1.0416666666666667;" x1="32.2917" x2="192.7083" y1="132.8776" y2="132.8776"/><text fill="#000000" font-family="sans-serif" font-size="13.5417" font-weight="bold" lengthAdjust="spacing" textLength="9.375" x="39.5833" y="119.7189">1</text><text fill="#000000" font-family="sans-serif" font-size="13.5417" lengthAdjust="spacing" textLength="63.5417" x="53.125" y="111.8373">gibt FHIR-</text><text fill="#000000" font-family="sans-serif" font-size="13.5417" lengthAdjust="spacing" textLength="128.125" x="53.125" y="127.6006">Suchparameter ein</text><line style="stroke:#181818;stroke-width:1.0416666666666667;" x1="209.375" x2="253.125" y1="178.9876" y2="178.9876"/><line style="stroke:#181818;stroke-width:1.0416666666666667;" x1="253.125" x2="253.125" y1="178.9876" y2="192.5293"/><line style="stroke:#181818;stroke-width:1.0416666666666667;" x1="210.4167" x2="253.125" y1="192.5293" y2="192.5293"/><polygon fill="#181818" points="220.8333,188.3626,210.4167,192.5293,220.8333,196.696,216.6667,192.5293" style="stroke:#181818;stroke-width:1.0416666666666667;"/><text fill="#000000" font-family="sans-serif" font-size="13.5417" font-weight="bold" lengthAdjust="spacing" textLength="9.375" x="216.6667" y="165.829">2</text><text fill="#000000" font-family="sans-serif" font-size="13.5417" lengthAdjust="spacing" textLength="285.4167" x="230.2083" y="157.9473">pr&#252;fe ob noch g&#252;ltiges search-accesstoken</text><text fill="#000000" font-family="sans-serif" font-size="13.5417" lengthAdjust="spacing" textLength="270.8333" x="230.2083" y="173.7106">vom FHIR-Directory Auth-Service vorliegt</text><path d="M114.0625,208.1543 L180.7292,208.1543 L180.7292,215.5843 L170.3125,226.001 L114.0625,226.001 L114.0625,208.1543 " fill="#EEEEEE" style="stroke:#000000;stroke-width:1.5625;"/><rect fill="none" height="640.6169" style="stroke:#000000;stroke-width:1.5625;" width="1534.8958" x="114.0625" y="208.1543"/><text fill="#000000" font-family="sans-serif" font-size="13.5417" font-weight="bold" lengthAdjust="spacing" textLength="19.7917" x="129.6875" y="221.7656">alt</text><text fill="#000000" font-family="sans-serif" font-size="11.4583" font-weight="bold" lengthAdjust="spacing" textLength="309.375" x="196.3542" y="220.8735">[kein g&#252;ltiges search-accesstoken vorhanden]</text><polygon fill="#181818" points="1545.8333,243.8477,1556.25,248.0143,1545.8333,252.181,1550,248.0143" style="stroke:#181818;stroke-width:1.0416666666666667;"/><line style="stroke:#181818;stroke-width:1.0416666666666667;" x1="209.375" x2="1552.0833" y1="248.0143" y2="248.0143"/><text fill="#000000" font-family="sans-serif" font-size="13.5417" font-weight="bold" lengthAdjust="spacing" textLength="9.375" x="216.6667" y="242.7373">3</text><text fill="#000000" font-family="sans-serif" font-size="13.5417" lengthAdjust="spacing" textLength="394.7917" x="230.2083" y="242.7373">POST /_matrix/client/r0/user/{userId}/openid/request_token</text><polygon fill="#181818" points="220.8333,289.9577,210.4167,294.1243,220.8333,298.291,216.6667,294.1243" style="stroke:#181818;stroke-width:1.0416666666666667;"/><line style="stroke:#181818;stroke-width:1.0416666666666667;stroke-dasharray:2.0,2.0;" x1="214.5833" x2="1562.5" y1="294.1243" y2="294.1243"/><text fill="#000000" font-family="sans-serif" font-size="13.5417" font-weight="bold" lengthAdjust="spacing" textLength="9.375" x="227.0833" y="280.9657">4</text><text fill="#000000" font-family="sans-serif" font-size="13.5417" lengthAdjust="spacing" textLength="500" x="240.625" y="273.084">HTTP 200 OK, Result body {"access_token": "OFdZNozDIomXLrCWjgejIQBM"</text><text fill="#000000" font-family="sans-serif" font-size="13.5417" lengthAdjust="spacing" textLength="344.7917" x="244.7917" y="288.8474">,..., "matrix_server_name": "matrix.service-ti.de",...}</text><polygon fill="#181818" points="730.2083,336.0677,740.625,340.2344,730.2083,344.401,734.375,340.2344" style="stroke:#181818;stroke-width:1.0416666666666667;"/><line style="stroke:#181818;stroke-width:1.0416666666666667;" x1="209.375" x2="736.4583" y1="340.2344" y2="340.2344"/><text fill="#000000" font-family="sans-serif" font-size="13.5417" font-weight="bold" lengthAdjust="spacing" textLength="9.375" x="216.6667" y="327.0757">5</text><text fill="#000000" font-family="sans-serif" font-size="13.5417" lengthAdjust="spacing" textLength="330.2083" x="230.2083" y="319.194">GET /tim-authenticate?mxId=matrix.service-ti.de"</text><text fill="#000000" font-family="sans-serif" font-size="13.5417" lengthAdjust="spacing" textLength="388.5417" x="234.375" y="334.9574">-H "X-Matrix-OpenID-Token: OFdZNozDIomXLrCWjgejIQBM"</text><line style="stroke:#181818;stroke-width:1.0416666666666667;" x1="753.125" x2="796.875" y1="386.3444" y2="386.3444"/><line style="stroke:#181818;stroke-width:1.0416666666666667;" x1="796.875" x2="796.875" y1="386.3444" y2="399.8861"/><line style="stroke:#181818;stroke-width:1.0416666666666667;" x1="754.1667" x2="796.875" y1="399.8861" y2="399.8861"/><polygon fill="#181818" points="764.5833,395.7194,754.1667,399.8861,764.5833,404.0527,760.4167,399.8861" style="stroke:#181818;stroke-width:1.0416666666666667;"/><text fill="#000000" font-family="sans-serif" font-size="13.5417" font-weight="bold" lengthAdjust="spacing" textLength="9.375" x="760.4167" y="373.1857">6</text><text fill="#000000" font-family="sans-serif" font-size="13.5417" lengthAdjust="spacing" textLength="252.0833" x="773.9583" y="365.3041">Pr&#252;fe ob die URL "matrix.service-ti.de"</text><text fill="#000000" font-family="sans-serif" font-size="13.5417" lengthAdjust="spacing" textLength="181.25" x="778.125" y="381.0674">Teil der F&#246;derationsliste ist.</text><line style="stroke:#181818;stroke-width:1.0416666666666667;" x1="753.125" x2="796.875" y1="430.2327" y2="430.2327"/><line style="stroke:#181818;stroke-width:1.0416666666666667;" x1="796.875" x2="796.875" y1="430.2327" y2="443.7744"/><line style="stroke:#181818;stroke-width:1.0416666666666667;" x1="754.1667" x2="796.875" y1="443.7744" y2="443.7744"/><polygon fill="#181818" points="764.5833,439.6077,754.1667,443.7744,764.5833,447.9411,760.4167,443.7744" style="stroke:#181818;stroke-width:1.0416666666666667;"/><text fill="#000000" font-family="sans-serif" font-size="13.5417" font-weight="bold" lengthAdjust="spacing" textLength="9.375" x="760.4167" y="424.9557">7</text><text fill="#000000" font-family="sans-serif" font-size="13.5417" lengthAdjust="spacing" textLength="440.625" x="773.9583" y="424.9557">Ermittele den hinterlegten UserInfo PORT f&#252;r die Matrix Server URL</text><polygon fill="#181818" points="1545.8333,469.9544,1556.25,474.1211,1545.8333,478.2878,1550,474.1211" style="stroke:#181818;stroke-width:1.0416666666666667;"/><line style="stroke:#181818;stroke-width:1.0416666666666667;" x1="753.125" x2="1552.0833" y1="474.1211" y2="474.1211"/><text fill="#000000" font-family="sans-serif" font-size="13.5417" font-weight="bold" lengthAdjust="spacing" textLength="9.375" x="760.4167" y="468.8441">8</text><text fill="#000000" font-family="sans-serif" font-size="13.5417" lengthAdjust="spacing" textLength="771.875" x="773.9583" y="468.8441">GET matrix.service-ti.de:{PORT}/_matrix/federation/v1/openid/userinfo?access_token=OFdZNozDIomXLrCWjgejIQBM</text><polygon fill="#181818" points="764.5833,516.0645,754.1667,520.2311,764.5833,524.3978,760.4167,520.2311" style="stroke:#181818;stroke-width:1.0416666666666667;"/><line style="stroke:#181818;stroke-width:1.0416666666666667;stroke-dasharray:2.0,2.0;" x1="758.3333" x2="1562.5" y1="520.2311" y2="520.2311"/><text fill="#000000" font-family="sans-serif" font-size="13.5417" font-weight="bold" lengthAdjust="spacing" textLength="9.375" x="770.8333" y="507.0724">9</text><text fill="#000000" font-family="sans-serif" font-size="13.5417" lengthAdjust="spacing" textLength="85.4167" x="784.375" y="499.1908">HTTP 200 OK</text><text fill="#000000" font-family="sans-serif" font-size="13.5417" lengthAdjust="spacing" textLength="353.125" x="784.375" y="514.9541">Result Body {"sub": "@testuser:matrix.service-ti.de"}</text><line style="stroke:#181818;stroke-width:1.0416666666666667;" x1="753.125" x2="796.875" y1="566.3411" y2="566.3411"/><line style="stroke:#181818;stroke-width:1.0416666666666667;" x1="796.875" x2="796.875" y1="566.3411" y2="579.8828"/><line style="stroke:#181818;stroke-width:1.0416666666666667;" x1="754.1667" x2="796.875" y1="579.8828" y2="579.8828"/><polygon fill="#181818" points="764.5833,575.7161,754.1667,579.8828,764.5833,584.0495,760.4167,579.8828" style="stroke:#181818;stroke-width:1.0416666666666667;"/><text fill="#000000" font-family="sans-serif" font-size="13.5417" font-weight="bold" lengthAdjust="spacing" textLength="18.75" x="760.4167" y="553.1825">10</text><text fill="#000000" font-family="sans-serif" font-size="13.5417" lengthAdjust="spacing" textLength="246.875" x="783.3333" y="545.3008">Ermittle den Status von "isInsurance"</text><text fill="#000000" font-family="sans-serif" font-size="13.5417" lengthAdjust="spacing" textLength="190.625" x="787.5" y="561.0641">f&#252;r URL "matrix.service-ti.de"</text><path d="M684.8958,595.5078 L751.5625,595.5078 L751.5625,602.9378 L741.1458,613.3545 L684.8958,613.3545 L684.8958,595.5078 " fill="#EEEEEE" style="stroke:#000000;stroke-width:1.5625;"/><rect fill="none" height="184.0983" style="stroke:#000000;stroke-width:1.5625;" width="488.0208" x="684.8958" y="595.5078"/><text fill="#000000" font-family="sans-serif" font-size="13.5417" font-weight="bold" lengthAdjust="spacing" textLength="19.7917" x="700.5208" y="609.1192">alt</text><text fill="#000000" font-family="sans-serif" font-size="11.4583" font-weight="bold" lengthAdjust="spacing" textLength="130.2083" x="767.1875" y="608.227">[isInsurance=false]</text><line style="stroke:#181818;stroke-width:1.0416666666666667;" x1="753.125" x2="796.875" y1="666.8945" y2="666.8945"/><line style="stroke:#181818;stroke-width:1.0416666666666667;" x1="796.875" x2="796.875" y1="666.8945" y2="680.4362"/><line style="stroke:#181818;stroke-width:1.0416666666666667;" x1="754.1667" x2="796.875" y1="680.4362" y2="680.4362"/><polygon fill="#181818" points="764.5833,676.2695,754.1667,680.4362,764.5833,684.6029,760.4167,680.4362" style="stroke:#181818;stroke-width:1.0416666666666667;"/><text fill="#000000" font-family="sans-serif" font-size="13.5417" font-weight="bold" lengthAdjust="spacing" textLength="18.75" x="760.4167" y="645.8542">11</text><text fill="#000000" font-family="sans-serif" font-size="13.5417" lengthAdjust="spacing" textLength="220.8333" x="783.3333" y="630.0908">erzeuge search-accesstoken: {...</text><text fill="#000000" font-family="sans-serif" font-size="13.5417" lengthAdjust="spacing" textLength="348.9583" x="787.5" y="645.8542">"aud": "https://fhir-directory.vzd.ti-dienste.de/search"</text><text fill="#000000" font-family="sans-serif" font-size="13.5417" lengthAdjust="spacing" textLength="20.8333" x="787.5" y="661.6175">...}</text><line style="stroke:#000000;stroke-width:1.0416666666666667;stroke-dasharray:2.0,2.0;" x1="684.8958" x2="1172.9167" y1="689.8112" y2="689.8112"/><text fill="#000000" font-family="sans-serif" font-size="11.4583" font-weight="bold" lengthAdjust="spacing" textLength="123.9583" x="690.1042" y="700.4471">[isInsurance=true]</text><line style="stroke:#181818;stroke-width:1.0416666666666667;" x1="753.125" x2="796.875" y1="757.7311" y2="757.7311"/><line style="stroke:#181818;stroke-width:1.0416666666666667;" x1="796.875" x2="796.875" y1="757.7311" y2="771.2728"/><line style="stroke:#181818;stroke-width:1.0416666666666667;" x1="754.1667" x2="796.875" y1="771.2728" y2="771.2728"/><polygon fill="#181818" points="764.5833,767.1061,754.1667,771.2728,764.5833,775.4395,760.4167,771.2728" style="stroke:#181818;stroke-width:1.0416666666666667;"/><text fill="#000000" font-family="sans-serif" font-size="13.5417" font-weight="bold" lengthAdjust="spacing" textLength="18.75" x="760.4167" y="736.6908">12</text><text fill="#000000" font-family="sans-serif" font-size="13.5417" lengthAdjust="spacing" textLength="220.8333" x="783.3333" y="720.9274">erzeuge search-accesstoken: {...</text><text fill="#000000" font-family="sans-serif" font-size="13.5417" lengthAdjust="spacing" textLength="372.9167" x="787.5" y="736.6908">"aud": "https://fhir-directory.vzd.ti-dienste.de/fdv/search"</text><text fill="#000000" font-family="sans-serif" font-size="13.5417" lengthAdjust="spacing" textLength="20.8333" x="787.5" y="752.4541">...}</text><polygon fill="#181818" points="220.8333,836.2712,210.4167,840.4378,220.8333,844.6045,216.6667,840.4378" style="stroke:#181818;stroke-width:1.0416666666666667;"/><line style="stroke:#181818;stroke-width:1.0416666666666667;stroke-dasharray:2.0,2.0;" x1="214.5833" x2="746.875" y1="840.4378" y2="840.4378"/><text fill="#000000" font-family="sans-serif" font-size="13.5417" font-weight="bold" lengthAdjust="spacing" textLength="18.75" x="227.0833" y="819.3975">13</text><text fill="#000000" font-family="sans-serif" font-size="13.5417" lengthAdjust="spacing" textLength="170.8333" x="250" y="803.6341">HTTP 200 OK, Result body</text><text fill="#000000" font-family="sans-serif" font-size="13.5417" lengthAdjust="spacing" textLength="419.7917" x="250" y="819.3975">{"access_token"="search-accesstoken", "token_type":"bearer",</text><text fill="#000000" font-family="sans-serif" font-size="13.5417" lengthAdjust="spacing" textLength="131.25" x="250" y="835.1608">"expires_in":86400}</text><polygon fill="#181818" points="510.4167,889.6729,520.8333,893.8395,510.4167,898.0062,514.5833,893.8395" style="stroke:#181818;stroke-width:1.0416666666666667;"/><line style="stroke:#181818;stroke-width:1.0416666666666667;" x1="209.375" x2="516.6667" y1="893.8395" y2="893.8395"/><text fill="#000000" font-family="sans-serif" font-size="13.5417" font-weight="bold" lengthAdjust="spacing" textLength="18.75" x="216.6667" y="880.6808">14</text><text fill="#000000" font-family="sans-serif" font-size="13.5417" lengthAdjust="spacing" textLength="231.25" x="239.5833" y="872.7992">GET .../search?... (Auth Header mit</text><text fill="#000000" font-family="sans-serif" font-size="13.5417" lengthAdjust="spacing" textLength="138.5417" x="239.5833" y="888.5625">search-accesstoken)</text><line style="stroke:#181818;stroke-width:1.0416666666666667;" x1="533.3333" x2="577.0833" y1="924.1862" y2="924.1862"/><line style="stroke:#181818;stroke-width:1.0416666666666667;" x1="577.0833" x2="577.0833" y1="924.1862" y2="937.7279"/><line style="stroke:#181818;stroke-width:1.0416666666666667;" x1="534.375" x2="577.0833" y1="937.7279" y2="937.7279"/><polygon fill="#181818" points="544.7917,933.5612,534.375,937.7279,544.7917,941.8945,540.625,937.7279" style="stroke:#181818;stroke-width:1.0416666666666667;"/><text fill="#000000" font-family="sans-serif" font-size="13.5417" font-weight="bold" lengthAdjust="spacing" textLength="18.75" x="540.625" y="918.9092">15</text><text fill="#000000" font-family="sans-serif" font-size="13.5417" lengthAdjust="spacing" textLength="171.875" x="563.5417" y="918.9092">pr&#252;fe search-accesstoken</text><path d="M114.0625,953.3529 L180.7292,953.3529 L180.7292,960.7829 L170.3125,971.1995 L114.0625,971.1995 L114.0625,953.3529 " fill="#EEEEEE" style="stroke:#000000;stroke-width:1.5625;"/><rect fill="none" height="170.4183" style="stroke:#000000;stroke-width:1.5625;" width="1181.7708" x="114.0625" y="953.3529"/><text fill="#000000" font-family="sans-serif" font-size="13.5417" font-weight="bold" lengthAdjust="spacing" textLength="19.7917" x="129.6875" y="966.9642">alt</text><text fill="#000000" font-family="sans-serif" font-size="11.4583" font-weight="bold" lengthAdjust="spacing" textLength="195.8333" x="196.3542" y="966.0721">[search-accesstoken is valid]</text><polygon fill="#181818" points="1209.375,989.0462,1219.7917,993.2129,1209.375,997.3796,1213.5417,993.2129" style="stroke:#181818;stroke-width:1.0416666666666667;"/><line style="stroke:#181818;stroke-width:1.0416666666666667;" x1="533.3333" x2="1215.625" y1="993.2129" y2="993.2129"/><text fill="#000000" font-family="sans-serif" font-size="13.5417" font-weight="bold" lengthAdjust="spacing" textLength="18.75" x="540.625" y="987.9359">16</text><text fill="#000000" font-family="sans-serif" font-size="13.5417" lengthAdjust="spacing" textLength="54.1667" x="563.5417" y="987.9359">GET /?...</text><polygon fill="#181818" points="544.7917,1035.1563,534.375,1039.3229,544.7917,1043.4896,540.625,1039.3229" style="stroke:#181818;stroke-width:1.0416666666666667;"/><line style="stroke:#181818;stroke-width:1.0416666666666667;stroke-dasharray:2.0,2.0;" x1="538.5417" x2="1226.0417" y1="1039.3229" y2="1039.3229"/><text fill="#000000" font-family="sans-serif" font-size="13.5417" font-weight="bold" lengthAdjust="spacing" textLength="18.75" x="551.0417" y="1026.1642">17</text><text fill="#000000" font-family="sans-serif" font-size="13.5417" lengthAdjust="spacing" textLength="85.4167" x="573.9583" y="1018.2826">HTTP 200 OK</text><text fill="#000000" font-family="sans-serif" font-size="13.5417" lengthAdjust="spacing" textLength="119.7917" x="573.9583" y="1034.0459">(Result Body json)</text><polygon fill="#181818" points="220.8333,1065.5029,210.4167,1069.6696,220.8333,1073.8363,216.6667,1069.6696" style="stroke:#181818;stroke-width:1.0416666666666667;"/><line style="stroke:#181818;stroke-width:1.0416666666666667;stroke-dasharray:2.0,2.0;" x1="214.5833" x2="521.875" y1="1069.6696" y2="1069.6696"/><text fill="#000000" font-family="sans-serif" font-size="13.5417" font-weight="bold" lengthAdjust="spacing" textLength="18.75" x="227.0833" y="1064.3926">18</text><text fill="#000000" font-family="sans-serif" font-size="13.5417" lengthAdjust="spacing" textLength="209.375" x="250" y="1064.3926">HTTP 200 OK (Result Body json)</text><line style="stroke:#000000;stroke-width:1.0416666666666667;stroke-dasharray:2.0,2.0;" x1="114.0625" x2="1295.8333" y1="1079.0446" y2="1079.0446"/><text fill="#000000" font-family="sans-serif" font-size="11.4583" font-weight="bold" lengthAdjust="spacing" textLength="208.3333" x="119.2708" y="1089.6805">[search-accesstoken is invalid]</text><polygon fill="#181818" points="220.8333,1111.2712,210.4167,1115.4378,220.8333,1119.6045,216.6667,1115.4378" style="stroke:#181818;stroke-width:1.0416666666666667;"/><line style="stroke:#181818;stroke-width:1.0416666666666667;stroke-dasharray:2.0,2.0;" x1="214.5833" x2="527.0833" y1="1115.4378" y2="1115.4378"/><text fill="#000000" font-family="sans-serif" font-size="13.5417" font-weight="bold" lengthAdjust="spacing" textLength="18.75" x="227.0833" y="1110.1608">19</text><text fill="#000000" font-family="sans-serif" font-size="13.5417" lengthAdjust="spacing" textLength="62.5" x="250" y="1110.1608">HTTP 401</text></g></svg>