<svg xmlns="http://www.w3.org/2000/svg" xmlns:xlink="http://www.w3.org/1999/xlink" contentStyleType="text/css" data-diagram-type="SEQUENCE" height="658.3333px" preserveAspectRatio="none" style="width:1390px;height:658px;background:#FFFFFF;" version="1.1" viewBox="0 0 1390 658" width="1390.625px" zoomAndPan="magnify"><defs/><g><g><title>Browser</title><rect fill="#FFFFFF" height="404.7852" style="stroke:#181818;stroke-width:1.0417;" width="10.4167" x="359.3135" y="134.0902"/></g><g><title>SSP Backend</title><rect fill="#FFFFFF" height="344.0918" style="stroke:#181818;stroke-width:1.0417;" width="10.4167" x="651.0651" y="164.4368"/></g><g><title>Auth-Service</title><rect fill="#FFFFFF" height="74.235" style="stroke:#181818;stroke-width:1.0417;" width="10.4167" x="884.3104" y="194.7835"/></g><g><title>FHIR-Proxy</title><rect fill="#FFFFFF" height="134.9284" style="stroke:#181818;stroke-width:1.0417;" width="10.4167" x="1055.838" y="343.2536"/></g><g><title>FHIR-Directory</title><rect fill="#FFFFFF" height="30.3467" style="stroke:#181818;stroke-width:1.0417;" width="10.4167" x="1319.5918" y="417.4886"/></g><g><title>Org-Admin</title><rect fill="#000000" fill-opacity="0.00000" height="455.9652" width="8.3333" x="43.5303" y="101.6602"/><line style="stroke:#181818;stroke-width:0.5208;stroke-dasharray:5.0,5.0;" x1="46.875" x2="46.875" y1="101.6602" y2="557.6253"/></g><g><title>Browser</title><rect fill="#000000" fill-opacity="0.00000" height="455.9652" width="8.3333" x="360.3551" y="101.6602"/><line style="stroke:#181818;stroke-width:0.5208;stroke-dasharray:5.0,5.0;" x1="363.5971" x2="363.5971" y1="101.6602" y2="557.6253"/></g><g><title>SSP Backend</title><rect fill="#000000" fill-opacity="0.00000" height="455.9652" width="8.3333" x="652.1067" y="101.6602"/><line style="stroke:#181818;stroke-width:0.5208;stroke-dasharray:5.0,5.0;" x1="655.7383" x2="655.7383" y1="101.6602" y2="557.6253"/></g><g><title>Auth-Service</title><rect fill="#000000" fill-opacity="0.00000" height="455.9652" width="8.3333" x="885.3521" y="101.6602"/><line style="stroke:#181818;stroke-width:0.5208;stroke-dasharray:5.0,5.0;" x1="888.6826" x2="888.6826" y1="101.6602" y2="557.6253"/></g><g><title>FHIR-Proxy</title><rect fill="#000000" fill-opacity="0.00000" height="455.9652" width="8.3333" x="1056.8797" y="101.6602"/><line style="stroke:#181818;stroke-width:0.5208;stroke-dasharray:5.0,5.0;" x1="1060.6181" x2="1060.6181" y1="101.6602" y2="557.6253"/></g><g><title>FHIR-Directory</title><rect fill="#000000" fill-opacity="0.00000" height="455.9652" width="8.3333" x="1320.6334" y="101.6602"/><line style="stroke:#181818;stroke-width:0.5208;stroke-dasharray:5.0,5.0;" x1="1324.6333" x2="1324.6333" y1="101.6602" y2="557.6253"/></g><g class="participant participant-head" data-participant="o"><text fill="#000000" font-family="sans-serif" font-size="14.5833" lengthAdjust="spacing" textLength="78.7272" x="5.2083" y="81.2449">Org-Admin</text><text fill="#000000" font-family="sans-serif" font-size="14.5833" lengthAdjust="spacing" textLength="55.1219" x="17.011" y="98.2208">oder LE</text><ellipse cx="47.6969" cy="14.0625" fill="#E3E3E3" rx="8.3333" ry="8.3333" style="stroke:#181818;stroke-width:0.5208;"/><path d="M47.6969,22.3958 L47.6969,50.5208 M34.1553,30.7292 L61.2386,30.7292 M47.6969,50.5208 L34.1553,66.1458 M47.6969,50.5208 L61.2386,66.1458" fill="none" style="stroke:#181818;stroke-width:0.5208;"/></g><g class="participant participant-tail" data-participant="o"><text fill="#000000" font-family="sans-serif" font-size="14.5833" lengthAdjust="spacing" textLength="78.7272" x="5.2083" y="570.1202">Org-Admin</text><text fill="#000000" font-family="sans-serif" font-size="14.5833" lengthAdjust="spacing" textLength="55.1219" x="17.011" y="587.0962">oder LE</text><ellipse cx="47.6969" cy="599.3896" fill="#E3E3E3" rx="8.3333" ry="8.3333" style="stroke:#181818;stroke-width:0.5208;"/><path d="M47.6969,607.723 L47.6969,635.848 M34.1553,616.0563 L61.2386,616.0563 M47.6969,635.848 L34.1553,651.473 M47.6969,635.848 L61.2386,651.473" fill="none" style="stroke:#181818;stroke-width:0.5208;"/></g><g class="participant participant-head" data-participant="cl"><rect fill="#E3E3E3" height="48.5352" rx="2.6042" ry="2.6042" style="stroke:#181818;stroke-width:0.5208;" width="112.266" x="308.3888" y="52.0833"/><text fill="#000000" font-family="sans-serif" font-size="14.5833" lengthAdjust="spacing" textLength="59.4157" x="334.8139" y="72.9116">Browser</text><text fill="#000000" font-family="sans-serif" font-size="14.5833" lengthAdjust="spacing" textLength="97.6827" x="315.6804" y="89.8875">SSP Frontend</text></g><g class="participant participant-tail" data-participant="cl"><rect fill="#E3E3E3" height="48.5352" rx="2.6042" ry="2.6042" style="stroke:#181818;stroke-width:0.5208;" width="112.266" x="308.3888" y="556.5837"/><text fill="#000000" font-family="sans-serif" font-size="14.5833" lengthAdjust="spacing" textLength="59.4157" x="334.8139" y="577.4119">Browser</text><text fill="#000000" font-family="sans-serif" font-size="14.5833" lengthAdjust="spacing" textLength="97.6827" x="315.6804" y="594.3878">SSP Frontend</text></g><g class="participant participant-head" data-participant="be"><rect fill="#E3E3E3" height="31.5592" rx="2.6042" ry="2.6042" style="stroke:#181818;stroke-width:0.5208;" width="109.4035" x="601.5717" y="69.0592"/><text fill="#000000" font-family="sans-serif" font-size="14.5833" lengthAdjust="spacing" textLength="94.8201" x="608.8633" y="89.8875">SSP Backend</text></g><g class="participant participant-tail" data-participant="be"><rect fill="#E3E3E3" height="31.5592" rx="2.6042" ry="2.6042" style="stroke:#181818;stroke-width:0.5208;" width="109.4035" x="601.5717" y="556.5837"/><text fill="#000000" font-family="sans-serif" font-size="14.5833" lengthAdjust="spacing" textLength="94.8201" x="608.8633" y="577.4119">SSP Backend</text></g><g class="participant participant-head" data-participant="au"><rect fill="#E3E3E3" height="31.5592" rx="2.6042" ry="2.6042" style="stroke:#181818;stroke-width:0.5208;" width="107.9224" x="835.5576" y="69.0592"/><text fill="#000000" font-family="sans-serif" font-size="14.5833" lengthAdjust="spacing" textLength="93.339" x="842.8492" y="89.8875">Auth-Service</text></g><g class="participant participant-tail" data-participant="au"><rect fill="#E3E3E3" height="31.5592" rx="2.6042" ry="2.6042" style="stroke:#181818;stroke-width:0.5208;" width="107.9224" x="835.5576" y="556.5837"/><text fill="#000000" font-family="sans-serif" font-size="14.5833" lengthAdjust="spacing" textLength="93.339" x="842.8492" y="577.4119">Auth-Service</text></g><g class="participant participant-head" data-participant="fp"><rect fill="#E3E3E3" height="31.5592" rx="2.6042" ry="2.6042" style="stroke:#181818;stroke-width:0.5208;" width="94.6065" x="1013.7431" y="69.0592"/><text fill="#000000" font-family="sans-serif" font-size="14.5833" lengthAdjust="spacing" textLength="80.0232" x="1021.0347" y="89.8875">FHIR-Proxy</text></g><g class="participant participant-tail" data-participant="fp"><rect fill="#E3E3E3" height="31.5592" rx="2.6042" ry="2.6042" style="stroke:#181818;stroke-width:0.5208;" width="94.6065" x="1013.7431" y="556.5837"/><text fill="#000000" font-family="sans-serif" font-size="14.5833" lengthAdjust="spacing" textLength="80.0232" x="1021.0347" y="577.4119">FHIR-Proxy</text></g><g class="participant participant-head" data-participant="fd"><rect fill="#E3E3E3" height="31.5592" rx="2.6042" ry="2.6042" style="stroke:#181818;stroke-width:0.5208;" width="121.167" x="1264.2166" y="69.0592"/><text fill="#000000" font-family="sans-serif" font-size="14.5833" lengthAdjust="spacing" textLength="106.5837" x="1271.5083" y="89.8875">FHIR-Directory</text></g><g class="participant participant-tail" data-participant="fd"><rect fill="#E3E3E3" height="31.5592" rx="2.6042" ry="2.6042" style="stroke:#181818;stroke-width:0.5208;" width="121.167" x="1264.2166" y="556.5837"/><text fill="#000000" font-family="sans-serif" font-size="14.5833" lengthAdjust="spacing" textLength="106.5837" x="1271.5083" y="577.4119">FHIR-Directory</text></g><g><title>Browser</title><rect fill="#FFFFFF" height="404.7852" style="stroke:#181818;stroke-width:1.0417;" width="10.4167" x="359.3135" y="134.0902"/></g><g><title>SSP Backend</title><rect fill="#FFFFFF" height="344.0918" style="stroke:#181818;stroke-width:1.0417;" width="10.4167" x="651.0651" y="164.4368"/></g><g><title>Auth-Service</title><rect fill="#FFFFFF" height="74.235" style="stroke:#181818;stroke-width:1.0417;" width="10.4167" x="884.3104" y="194.7835"/></g><g><title>FHIR-Proxy</title><rect fill="#FFFFFF" height="134.9284" style="stroke:#181818;stroke-width:1.0417;" width="10.4167" x="1055.838" y="343.2536"/></g><g><title>FHIR-Directory</title><rect fill="#FFFFFF" height="30.3467" style="stroke:#181818;stroke-width:1.0417;" width="10.4167" x="1319.5918" y="417.4886"/></g><g class="message" data-participant-1="o" data-participant-2="cl"><polygon fill="#181818" points="346.8135,129.9235,357.2301,134.0902,346.8135,138.2568,350.9801,134.0902" style="stroke:#181818;stroke-width:1.0417;"/><line style="stroke:#181818;stroke-width:1.0417;" x1="47.6969" x2="353.0635" y1="134.0902" y2="134.0902"/><text fill="#000000" font-family="sans-serif" font-size="13.5417" lengthAdjust="spacing" textLength="197.8022" x="54.9886" y="128.8132">[1] VZD-Eintrag aktualisieren</text></g><g class="message" data-participant-1="cl" data-participant-2="be"><polygon fill="#181818" points="638.5651,160.2702,648.9817,164.4368,638.5651,168.6035,642.7317,164.4368" style="stroke:#181818;stroke-width:1.0417;"/><line style="stroke:#181818;stroke-width:1.0417;" x1="369.7301" x2="644.8151" y1="164.4368" y2="164.4368"/><text fill="#000000" font-family="sans-serif" font-size="13.5417" lengthAdjust="spacing" textLength="261.5433" x="377.0218" y="159.1599">[2] Aktualisierter VZD-Eintrag &amp; Token</text></g><g class="message" data-participant-1="be" data-participant-2="au"><polygon fill="#181818" points="871.8104,190.6169,882.2271,194.7835,871.8104,198.9502,875.9771,194.7835" style="stroke:#181818;stroke-width:1.0417;"/><line style="stroke:#181818;stroke-width:1.0417;" x1="661.4817" x2="878.0604" y1="194.7835" y2="194.7835"/><text fill="#000000" font-family="sans-serif" font-size="13.5417" lengthAdjust="spacing" textLength="137.3606" x="668.7734" y="189.5065">[3] Token Validieren</text></g><g class="message" data-participant-1="au" data-participant-2="au"><line style="stroke:#181818;stroke-width:1.0417;" x1="894.7271" x2="938.4771" y1="225.1302" y2="225.1302"/><line style="stroke:#181818;stroke-width:1.0417;" x1="938.4771" x2="938.4771" y1="225.1302" y2="238.6719"/><line style="stroke:#181818;stroke-width:1.0417;" x1="895.7687" x2="938.4771" y1="238.6719" y2="238.6719"/><polygon fill="#181818" points="906.1854,234.5052,895.7687,238.6719,906.1854,242.8385,902.0187,238.6719" style="stroke:#181818;stroke-width:1.0417;"/><text fill="#000000" font-family="sans-serif" font-size="13.5417" lengthAdjust="spacing" textLength="136.1109" x="902.0187" y="219.8532">[4] Token validieren</text></g><g class="message" data-participant-1="au" data-participant-2="be"><polygon fill="#181818" points="672.9401,264.8519,662.5234,269.0186,672.9401,273.1852,668.7734,269.0186" style="stroke:#181818;stroke-width:1.0417;"/><line style="stroke:#181818;stroke-width:1.0417;" x1="666.6901" x2="888.4771" y1="269.0186" y2="269.0186"/><text fill="#000000" font-family="sans-serif" font-size="13.5417" lengthAdjust="spacing" textLength="166.4673" x="679.1901" y="263.7416">[5] Validierungsergebnis</text></g><g class="message" data-participant-1="be" data-participant-2="be"><line style="stroke:#181818;stroke-width:1.0417;" x1="661.4817" x2="705.2317" y1="299.3652" y2="299.3652"/><line style="stroke:#181818;stroke-width:1.0417;" x1="705.2317" x2="705.2317" y1="299.3652" y2="312.9069"/><line style="stroke:#181818;stroke-width:1.0417;" x1="662.5234" x2="705.2317" y1="312.9069" y2="312.9069"/><polygon fill="#181818" points="672.9401,308.7402,662.5234,312.9069,672.9401,317.0736,668.7734,312.9069" style="stroke:#181818;stroke-width:1.0417;"/><text fill="#000000" font-family="sans-serif" font-size="13.5417" lengthAdjust="spacing" textLength="197.8287" x="668.7734" y="294.0882">[6] Berechtigungen ermitteln</text></g><g class="message" data-participant-1="be" data-participant-2="fp"><polygon fill="#181818" points="1043.338,339.0869,1053.7547,343.2536,1043.338,347.4202,1047.5047,343.2536" style="stroke:#181818;stroke-width:1.0417;"/><line style="stroke:#181818;stroke-width:1.0417;" x1="661.4817" x2="1049.588" y1="343.2536" y2="343.2536"/><text fill="#000000" font-family="sans-serif" font-size="13.5417" lengthAdjust="spacing" textLength="353.8951" x="668.7734" y="337.9766">[7] Aktualisierter VZD-Eintrag &amp; SSP Backend Token</text></g><g class="message" data-participant-1="fp" data-participant-2="fp"><line style="stroke:#181818;stroke-width:1.0417;" x1="1066.2547" x2="1110.0047" y1="373.6003" y2="373.6003"/><line style="stroke:#181818;stroke-width:1.0417;" x1="1110.0047" x2="1110.0047" y1="373.6003" y2="387.1419"/><line style="stroke:#181818;stroke-width:1.0417;" x1="1067.2963" x2="1110.0047" y1="387.1419" y2="387.1419"/><polygon fill="#181818" points="1077.713,382.9753,1067.2963,387.1419,1077.713,391.3086,1073.5463,387.1419" style="stroke:#181818;stroke-width:1.0417;"/><text fill="#000000" font-family="sans-serif" font-size="13.5417" lengthAdjust="spacing" textLength="221.1299" x="1073.5463" y="368.3233">[8] Validiere SSP Backend Token</text></g><g class="message" data-participant-1="fp" data-participant-2="fd"><polygon fill="#181818" points="1307.0918,413.3219,1317.5084,417.4886,1307.0918,421.6553,1311.2584,417.4886" style="stroke:#181818;stroke-width:1.0417;"/><line style="stroke:#181818;stroke-width:1.0417;" x1="1066.2547" x2="1313.3418" y1="417.4886" y2="417.4886"/><text fill="#000000" font-family="sans-serif" font-size="13.5417" lengthAdjust="spacing" textLength="201.062" x="1073.5463" y="412.2116">[9] Aktualisierter VZD-Eintrag</text></g><g class="message" data-participant-1="fd" data-participant-2="fp"><polygon fill="#181818" points="1077.713,443.6686,1067.2963,447.8353,1077.713,452.002,1073.5463,447.8353" style="stroke:#181818;stroke-width:1.0417;"/><line style="stroke:#181818;stroke-width:1.0417;" x1="1071.463" x2="1323.7584" y1="447.8353" y2="447.8353"/><text fill="#000000" font-family="sans-serif" font-size="13.5417" lengthAdjust="spacing" textLength="228.3371" x="1083.963" y="442.5583">[10] Ergebnis der Daten&#228;nderung</text></g><g class="message" data-participant-1="fp" data-participant-2="be"><polygon fill="#181818" points="672.9401,474.0153,662.5234,478.182,672.9401,482.3486,668.7734,478.182" style="stroke:#181818;stroke-width:1.0417;"/><line style="stroke:#181818;stroke-width:1.0417;" x1="666.6901" x2="1060.0047" y1="478.182" y2="478.182"/><text fill="#000000" font-family="sans-serif" font-size="13.5417" lengthAdjust="spacing" textLength="228.3371" x="679.1901" y="472.905">[10] Ergebnis der Daten&#228;nderung</text></g><g class="message" data-participant-1="be" data-participant-2="cl"><polygon fill="#181818" points="381.1885,504.362,370.7718,508.5286,381.1885,512.6953,377.0218,508.5286" style="stroke:#181818;stroke-width:1.0417;"/><line style="stroke:#181818;stroke-width:1.0417;" x1="374.9385" x2="655.2317" y1="508.5286" y2="508.5286"/><text fill="#000000" font-family="sans-serif" font-size="13.5417" lengthAdjust="spacing" textLength="228.3371" x="387.4385" y="503.2516">[10] Ergebnis der Daten&#228;nderung</text></g><g class="message" data-participant-1="cl" data-participant-2="o"><polygon fill="#181818" points="59.1553,534.7087,48.7386,538.8753,59.1553,543.042,54.9886,538.8753" style="stroke:#181818;stroke-width:1.0417;"/><line style="stroke:#181818;stroke-width:1.0417;" x1="52.9053" x2="363.4801" y1="538.8753" y2="538.8753"/><text fill="#000000" font-family="sans-serif" font-size="13.5417" lengthAdjust="spacing" textLength="286.6165" x="65.4053" y="533.5983">[11] Anzeige Ergebnis der Daten&#228;nderung</text></g><!--SRC=[bPBRJi9048RlzoaclT0Rcm2UlJ210D74H2D64xKNItSe4-XktUxYuNby4r_CQIbGq7YutVd-V_QVcNn2EfDMfg0oWcQZ8VBbovsLsHqfDuRMsdjgj8d7rgG8pdeKOjkHco84_RFpwx1B5cDdxEiE3F39etvJ99D2DnXSGLSwr1_lMg7rEWc4B50m87C8BcqIjbLA-b4RhiD5Bn3SqL5CcTGEucc9TQnvpj4-wiAlRurcHxLE3h4a2w0ZuycNklHblUtTE1oWdL6Cwy0eAu4oq9KrBwyRPRKgB_C6GWW3uId_ymGUcX7StdV37cbdPG9ouhoSKaveKHUfQSQJO5HmAjOCaJMj2Dehpl48wXPRS6CcTV6GHyz9MIqzgtUZEG2tRA0s6aalEFG2tLkWinhgb__OZvOUl2IUTO93JRbGMFUhUfUAWmWwx1AF7IKiOMUqAJc7KrrXeuonmry2rXQs6NQK2LxAmkXezKFyHbMHYidZdrhMx9KGlDM5VxCHGQ-A3SKjhjzjVHAidBSh1_4VOLQDPdulVnSMUvzVZIc4V6bj_OQKu5yD-Ee-0G00]--></g></svg>