<?xml version="1.0" encoding="us-ascii" standalone="no"?><svg xmlns="http://www.w3.org/2000/svg" xmlns:xlink="http://www.w3.org/1999/xlink" contentStyleType="text/css" height="1260px" preserveAspectRatio="none" style="width:1829px;height:1260px;background:#FFFFFF;" version="1.1" viewBox="0 0 1829 1260" width="1829px" zoomAndPan="magnify"><defs/><g><text fill="#000000" font-family="sans-serif" font-size="14" font-weight="bold" lengthAdjust="spacing" textLength="331" x="745.25" y="27.9951">FHIR-VZD Authentisierung f&#252;r Versicherte</text><rect fill="#F5F5F5" height="1211.5469" style="stroke:#181818;stroke-width:0.5;" width="468.5" x="16" y="43.2969"/><text fill="#000000" font-family="sans-serif" font-size="13" font-weight="bold" lengthAdjust="spacing" textLength="121" x="187.25" y="55.3638">Fachanwendung</text><rect fill="#F5F5F5" height="1211.5469" style="stroke:#181818;stroke-width:0.5;" width="998" x="669.5" y="43.2969"/><text fill="#000000" font-family="sans-serif" font-size="13" font-weight="bold" lengthAdjust="spacing" textLength="142" x="1095" y="55.3638">VZD-FHIR-Directory</text><rect fill="#FFFFFF" height="71.2656" style="stroke:#181818;stroke-width:1.0;" width="10" x="721.5" y="301.6563"/><rect fill="#FFFFFF" height="158.7969" style="stroke:#181818;stroke-width:1.0;" width="10" x="964.5" y="417.1875"/><rect fill="#FFFFFF" height="200.9297" style="stroke:#181818;stroke-width:1.0;" width="10" x="964.5" y="635.0547"/><rect fill="#FFFFFF" height="212.7344" style="stroke:#181818;stroke-width:1.0;" width="10" x="1356.5" y="966.5156"/><rect fill="#FFFFFF" height="44.2656" style="stroke:#181818;stroke-width:1.0;" width="10" x="1602.5" y="1061.9141"/><rect fill="none" height="712.125" style="stroke:#000000;stroke-width:1.5;" width="1361.5" x="10" y="167.9922"/><rect fill="none" height="580.5938" style="stroke:#000000;stroke-width:1.5;" width="981" x="380.5" y="263.3906"/><rect fill="none" height="163.6016" style="stroke:#000000;stroke-width:1.5;" width="1663.5" x="10" y="1023.6484"/><line style="stroke:#181818;stroke-width:0.5;stroke-dasharray:5.0,5.0;" x1="90" x2="90" y1="93.7266" y2="1204.25"/><line style="stroke:#181818;stroke-width:0.5;stroke-dasharray:5.0,5.0;" x1="435.5" x2="435.5" y1="93.7266" y2="1204.25"/><line style="stroke:#181818;stroke-width:0.5;stroke-dasharray:5.0,5.0;" x1="726.5" x2="726.5" y1="93.7266" y2="1204.25"/><line style="stroke:#181818;stroke-width:0.5;stroke-dasharray:5.0,5.0;" x1="969" x2="969" y1="93.7266" y2="1204.25"/><line style="stroke:#181818;stroke-width:0.5;stroke-dasharray:5.0,5.0;" x1="1361" x2="1361" y1="93.7266" y2="1204.25"/><line style="stroke:#181818;stroke-width:0.5;stroke-dasharray:5.0,5.0;" x1="1607.5" x2="1607.5" y1="93.7266" y2="1204.25"/><line style="stroke:#181818;stroke-width:0.5;stroke-dasharray:5.0,5.0;" x1="1745.5" x2="1745.5" y1="93.7266" y2="1204.25"/><rect fill="#E2E2F0" height="30.2969" rx="2.5" ry="2.5" style="stroke:#181818;stroke-width:0.5;" width="141" x="20" y="62.4297"/><text fill="#000000" font-family="sans-serif" font-size="14" lengthAdjust="spacing" textLength="127" x="27" y="82.4248">Client Versicherter</text><rect fill="#E2E2F0" height="30.2969" rx="2.5" ry="2.5" style="stroke:#181818;stroke-width:0.5;" width="141" x="20" y="1203.25"/><text fill="#000000" font-family="sans-serif" font-size="14" lengthAdjust="spacing" textLength="127" x="27" y="1223.2451">Client Versicherter</text><rect fill="#E2E2F0" height="30.2969" rx="2.5" ry="2.5" style="stroke:#181818;stroke-width:0.5;" width="90" x="390.5" y="62.4297"/><text fill="#000000" font-family="sans-serif" font-size="14" lengthAdjust="spacing" textLength="76" x="397.5" y="82.4248">Fachdienst</text><rect fill="#E2E2F0" height="30.2969" rx="2.5" ry="2.5" style="stroke:#181818;stroke-width:0.5;" width="90" x="390.5" y="1203.25"/><text fill="#000000" font-family="sans-serif" font-size="14" lengthAdjust="spacing" textLength="76" x="397.5" y="1223.2451">Fachdienst</text><rect fill="#E2E2F0" height="30.2969" rx="2.5" ry="2.5" style="stroke:#181818;stroke-width:0.5;" width="106" x="673.5" y="62.4297"/><text fill="#000000" font-family="sans-serif" font-size="14" lengthAdjust="spacing" textLength="92" x="680.5" y="82.4248">OAuth-Server</text><rect fill="#E2E2F0" height="30.2969" rx="2.5" ry="2.5" style="stroke:#181818;stroke-width:0.5;" width="106" x="673.5" y="1203.25"/><text fill="#000000" font-family="sans-serif" font-size="14" lengthAdjust="spacing" textLength="92" x="680.5" y="1223.2451">OAuth-Server</text><rect fill="#E2E2F0" height="30.2969" rx="2.5" ry="2.5" style="stroke:#181818;stroke-width:0.5;" width="101" x="919" y="62.4297"/><text fill="#000000" font-family="sans-serif" font-size="14" lengthAdjust="spacing" textLength="87" x="926" y="82.4248">Auth-Service</text><rect fill="#E2E2F0" height="30.2969" rx="2.5" ry="2.5" style="stroke:#181818;stroke-width:0.5;" width="101" x="919" y="1203.25"/><text fill="#000000" font-family="sans-serif" font-size="14" lengthAdjust="spacing" textLength="87" x="926" y="1223.2451">Auth-Service</text><rect fill="#E2E2F0" height="30.2969" rx="2.5" ry="2.5" style="stroke:#181818;stroke-width:0.5;" width="87" x="1318" y="62.4297"/><text fill="#000000" font-family="sans-serif" font-size="14" lengthAdjust="spacing" textLength="73" x="1325" y="82.4248">FHIR-Proxy</text><rect fill="#E2E2F0" height="30.2969" rx="2.5" ry="2.5" style="stroke:#181818;stroke-width:0.5;" width="87" x="1318" y="1203.25"/><text fill="#000000" font-family="sans-serif" font-size="14" lengthAdjust="spacing" textLength="73" x="1325" y="1223.2451">FHIR-Proxy</text><rect fill="#E2E2F0" height="30.2969" rx="2.5" ry="2.5" style="stroke:#181818;stroke-width:0.5;" width="112" x="1551.5" y="62.4297"/><text fill="#000000" font-family="sans-serif" font-size="14" lengthAdjust="spacing" textLength="98" x="1558.5" y="82.4248">FHIR-Directory</text><rect fill="#E2E2F0" height="30.2969" rx="2.5" ry="2.5" style="stroke:#181818;stroke-width:0.5;" width="112" x="1551.5" y="1203.25"/><text fill="#000000" font-family="sans-serif" font-size="14" lengthAdjust="spacing" textLength="98" x="1558.5" y="1223.2451">FHIR-Directory</text><rect fill="#E2E2F0" height="46.5938" rx="2.5" ry="2.5" style="stroke:#181818;stroke-width:0.5;" width="144" x="1673.5" y="46.1328"/><text fill="#000000" font-family="sans-serif" font-size="14" lengthAdjust="spacing" textLength="129" x="1681" y="66.1279">Matrix-Homeserver</text><text fill="#000000" font-family="sans-serif" font-size="14" lengthAdjust="spacing" textLength="130" x="1680.5" y="82.4248">(Messenger-Proxy)</text><rect fill="#E2E2F0" height="46.5938" rx="2.5" ry="2.5" style="stroke:#181818;stroke-width:0.5;" width="144" x="1673.5" y="1203.25"/><text fill="#000000" font-family="sans-serif" font-size="14" lengthAdjust="spacing" textLength="129" x="1681" y="1223.2451">Matrix-Homeserver</text><text fill="#000000" font-family="sans-serif" font-size="14" lengthAdjust="spacing" textLength="130" x="1680.5" y="1239.542">(Messenger-Proxy)</text><rect fill="#FFFFFF" height="71.2656" style="stroke:#181818;stroke-width:1.0;" width="10" x="721.5" y="301.6563"/><rect fill="#FFFFFF" height="158.7969" style="stroke:#181818;stroke-width:1.0;" width="10" x="964.5" y="417.1875"/><rect fill="#FFFFFF" height="200.9297" style="stroke:#181818;stroke-width:1.0;" width="10" x="964.5" y="635.0547"/><rect fill="#FFFFFF" height="212.7344" style="stroke:#181818;stroke-width:1.0;" width="10" x="1356.5" y="966.5156"/><rect fill="#FFFFFF" height="44.2656" style="stroke:#181818;stroke-width:1.0;" width="10" x="1602.5" y="1061.9141"/><line style="stroke:#181818;stroke-width:1.0;" x1="90.5" x2="132.5" y1="139.9922" y2="139.9922"/><line style="stroke:#181818;stroke-width:1.0;" x1="132.5" x2="132.5" y1="139.9922" y2="152.9922"/><line style="stroke:#181818;stroke-width:1.0;" x1="91.5" x2="132.5" y1="152.9922" y2="152.9922"/><polygon fill="#181818" points="101.5,148.9922,91.5,152.9922,101.5,156.9922,97.5,152.9922" style="stroke:#181818;stroke-width:1.0;"/><text fill="#000000" font-family="sans-serif" font-size="13" font-weight="bold" lengthAdjust="spacing" textLength="30" x="97.5" y="127.3599">[01]</text><text fill="#000000" font-family="sans-serif" font-size="13" lengthAdjust="spacing" textLength="297" x="131.5" y="119.7935">pr&#252;fe ob noch g&#252;ltiges search-ACCESS_TOKEN</text><text fill="#000000" font-family="sans-serif" font-size="13" lengthAdjust="spacing" textLength="260" x="131.5" y="134.9263">vom FHIR-Directory Auth-Service vorliegt</text><path d="M10,167.9922 L74,167.9922 L74,175.125 L64,185.125 L10,185.125 L10,167.9922 " fill="#EEEEEE" style="stroke:#000000;stroke-width:1.5;"/><rect fill="none" height="712.125" style="stroke:#000000;stroke-width:1.5;" width="1361.5" x="10" y="167.9922"/><text fill="#000000" font-family="sans-serif" font-size="13" font-weight="bold" lengthAdjust="spacing" textLength="19" x="25" y="181.0591">alt</text><text fill="#000000" font-family="sans-serif" font-size="11" font-weight="bold" lengthAdjust="spacing" textLength="317" x="89" y="180.2026">[kein g&#252;ltiges search-ACCESS_TOKEN vorhanden]</text><polygon fill="#181818" points="423.5,202.2578,433.5,206.2578,423.5,210.2578,427.5,206.2578" style="stroke:#181818;stroke-width:1.0;"/><line style="stroke:#181818;stroke-width:1.0;" x1="90.5" x2="429.5" y1="206.2578" y2="206.2578"/><text fill="#000000" font-family="sans-serif" font-size="13" font-weight="bold" lengthAdjust="spacing" textLength="30" x="97.5" y="201.1919">[02]</text><text fill="#000000" font-family="sans-serif" font-size="13" lengthAdjust="spacing" textLength="205" x="131.5" y="201.1919">Anfrage search-ACCESS_TOKEN</text><line style="stroke:#181818;stroke-width:1.0;" x1="435.5" x2="477.5" y1="235.3906" y2="235.3906"/><line style="stroke:#181818;stroke-width:1.0;" x1="477.5" x2="477.5" y1="235.3906" y2="248.3906"/><line style="stroke:#181818;stroke-width:1.0;" x1="436.5" x2="477.5" y1="248.3906" y2="248.3906"/><polygon fill="#181818" points="446.5,244.3906,436.5,248.3906,446.5,252.3906,442.5,248.3906" style="stroke:#181818;stroke-width:1.0;"/><text fill="#000000" font-family="sans-serif" font-size="13" font-weight="bold" lengthAdjust="spacing" textLength="30" x="442.5" y="230.3247">[03]</text><text fill="#000000" font-family="sans-serif" font-size="13" lengthAdjust="spacing" textLength="241" x="476.5" y="230.3247">g&#252;ltiges REFRESH_TOKEN vorhanden?</text><path d="M380.5,263.3906 L444.5,263.3906 L444.5,270.5234 L434.5,280.5234 L380.5,280.5234 L380.5,263.3906 " fill="#EEEEEE" style="stroke:#000000;stroke-width:1.5;"/><rect fill="none" height="580.5938" style="stroke:#000000;stroke-width:1.5;" width="981" x="380.5" y="263.3906"/><text fill="#000000" font-family="sans-serif" font-size="13" font-weight="bold" lengthAdjust="spacing" textLength="19" x="395.5" y="276.4575">alt</text><text fill="#000000" font-family="sans-serif" font-size="11" font-weight="bold" lengthAdjust="spacing" textLength="276" x="459.5" y="275.6011">[kein g&#252;ltiges REFRESH_TOKEN vorhanden]</text><polygon fill="#181818" points="709.5,297.6563,719.5,301.6563,709.5,305.6563,713.5,301.6563" style="stroke:#181818;stroke-width:1.0;"/><line style="stroke:#181818;stroke-width:1.0;" x1="435.5" x2="715.5" y1="301.6563" y2="301.6563"/><text fill="#000000" font-family="sans-serif" font-size="13" font-weight="bold" lengthAdjust="spacing" textLength="30" x="442.5" y="296.5903">[04]</text><text fill="#000000" font-family="sans-serif" font-size="13" lengthAdjust="spacing" textLength="233" x="476.5" y="296.5903">POST /token (client_id, client_secret)</text><line style="stroke:#181818;stroke-width:1.0;" x1="731.5" x2="773.5" y1="330.7891" y2="330.7891"/><line style="stroke:#181818;stroke-width:1.0;" x1="773.5" x2="773.5" y1="330.7891" y2="343.7891"/><line style="stroke:#181818;stroke-width:1.0;" x1="732.5" x2="773.5" y1="343.7891" y2="343.7891"/><polygon fill="#181818" points="742.5,339.7891,732.5,343.7891,742.5,347.7891,738.5,343.7891" style="stroke:#181818;stroke-width:1.0;"/><text fill="#000000" font-family="sans-serif" font-size="13" font-weight="bold" lengthAdjust="spacing" textLength="30" x="738.5" y="325.7231">[05]</text><text fill="#000000" font-family="sans-serif" font-size="13" lengthAdjust="spacing" textLength="178" x="772.5" y="325.7231">pr&#252;fe client_id, client_secret</text><polygon fill="#181818" points="446.5,368.9219,436.5,372.9219,446.5,376.9219,442.5,372.9219" style="stroke:#181818;stroke-width:1.0;"/><line style="stroke:#181818;stroke-width:1.0;stroke-dasharray:2.0,2.0;" x1="440.5" x2="725.5" y1="372.9219" y2="372.9219"/><text fill="#000000" font-family="sans-serif" font-size="13" font-weight="bold" lengthAdjust="spacing" textLength="30" x="452.5" y="367.856">[06]</text><text fill="#000000" font-family="sans-serif" font-size="13" lengthAdjust="spacing" textLength="130" x="486.5" y="367.856">patient-accesstoken</text><polygon fill="#181818" points="952.5,413.1875,962.5,417.1875,952.5,421.1875,956.5,417.1875" style="stroke:#181818;stroke-width:1.0;"/><line style="stroke:#181818;stroke-width:1.0;" x1="435.5" x2="958.5" y1="417.1875" y2="417.1875"/><text fill="#000000" font-family="sans-serif" font-size="13" font-weight="bold" lengthAdjust="spacing" textLength="30" x="442.5" y="404.5552">[07]</text><text fill="#000000" font-family="sans-serif" font-size="13" lengthAdjust="spacing" textLength="164" x="476.5" y="396.9888">GET /patient-authenticate</text><text fill="#000000" font-family="sans-serif" font-size="13" lengthAdjust="spacing" textLength="370" x="476.5" y="412.1216">(Authorization: "grant_type=Bearer patient-accesstoken")</text><line style="stroke:#181818;stroke-width:1.0;" x1="974.5" x2="1016.5" y1="446.3203" y2="446.3203"/><line style="stroke:#181818;stroke-width:1.0;" x1="1016.5" x2="1016.5" y1="446.3203" y2="459.3203"/><line style="stroke:#181818;stroke-width:1.0;" x1="975.5" x2="1016.5" y1="459.3203" y2="459.3203"/><polygon fill="#181818" points="985.5,455.3203,975.5,459.3203,985.5,463.3203,981.5,459.3203" style="stroke:#181818;stroke-width:1.0;"/><text fill="#000000" font-family="sans-serif" font-size="13" font-weight="bold" lengthAdjust="spacing" textLength="30" x="981.5" y="441.2544">[08]</text><text fill="#000000" font-family="sans-serif" font-size="13" lengthAdjust="spacing" textLength="167" x="1015.5" y="441.2544">Pr&#252;fe patient-accesstoken</text><line style="stroke:#181818;stroke-width:1.0;" x1="974.5" x2="1016.5" y1="488.4531" y2="488.4531"/><line style="stroke:#181818;stroke-width:1.0;" x1="1016.5" x2="1016.5" y1="488.4531" y2="501.4531"/><line style="stroke:#181818;stroke-width:1.0;" x1="975.5" x2="1016.5" y1="501.4531" y2="501.4531"/><polygon fill="#181818" points="985.5,497.4531,975.5,501.4531,985.5,505.4531,981.5,501.4531" style="stroke:#181818;stroke-width:1.0;"/><text fill="#000000" font-family="sans-serif" font-size="13" font-weight="bold" lengthAdjust="spacing" textLength="30" x="981.5" y="483.3872">[09]</text><text fill="#000000" font-family="sans-serif" font-size="13" lengthAdjust="spacing" textLength="334" x="1015.5" y="483.3872">Erzeuge search-ACCESS_TOKEN &amp; REFRESH_TOKEN</text><polygon fill="#181818" points="446.5,571.9844,436.5,575.9844,446.5,579.9844,442.5,575.9844" style="stroke:#181818;stroke-width:1.0;"/><line style="stroke:#181818;stroke-width:1.0;stroke-dasharray:2.0,2.0;" x1="440.5" x2="968.5" y1="575.9844" y2="575.9844"/><text fill="#000000" font-family="sans-serif" font-size="13" font-weight="bold" lengthAdjust="spacing" textLength="30" x="452.5" y="548.2192">[10]</text><text fill="#000000" font-family="sans-serif" font-size="13" lengthAdjust="spacing" textLength="471" x="486.5" y="525.52">HTTP 200 OK, Result body mit search-ACCESS_TOKEN &amp; REFRESH_TOKEN</text><text fill="#000000" font-family="sans-serif" font-size="13" lengthAdjust="spacing" textLength="426" x="486.5" y="540.6528">{"access_token"="search-ACCESS_TOKEN", "token_type":"bearer",</text><text fill="#000000" font-family="sans-serif" font-size="13" lengthAdjust="spacing" textLength="118" x="486.5" y="555.7856">"expires_in":86400</text><text fill="#000000" font-family="sans-serif" font-size="13" lengthAdjust="spacing" textLength="426" x="486.5" y="570.9185">"refresh_token"="REFRESH_TOKEN", "token_type":"refresh_token"}</text><line style="stroke:#000000;stroke-width:1.0;stroke-dasharray:2.0,2.0;" x1="380.5" x2="1361.5" y1="584.9844" y2="584.9844"/><text fill="#000000" font-family="sans-serif" font-size="11" font-weight="bold" lengthAdjust="spacing" textLength="245" x="385.5" y="595.1948">[g&#252;ltiges REFRESH_TOKEN vorhanden]</text><polygon fill="#181818" points="952.5,631.0547,962.5,635.0547,952.5,639.0547,956.5,635.0547" style="stroke:#181818;stroke-width:1.0;"/><line style="stroke:#181818;stroke-width:1.0;" x1="435.5" x2="958.5" y1="635.0547" y2="635.0547"/><text fill="#000000" font-family="sans-serif" font-size="13" font-weight="bold" lengthAdjust="spacing" textLength="30" x="442.5" y="622.4224">[11]</text><text fill="#000000" font-family="sans-serif" font-size="13" lengthAdjust="spacing" textLength="164" x="476.5" y="614.856">GET /patient-authenticate</text><text fill="#000000" font-family="sans-serif" font-size="13" lengthAdjust="spacing" textLength="393" x="476.5" y="629.9888">(Authorization: "grant_type=refresh_token REFRESH_TOKEN")</text><line style="stroke:#181818;stroke-width:1.0;" x1="974.5" x2="1016.5" y1="664.1875" y2="664.1875"/><line style="stroke:#181818;stroke-width:1.0;" x1="1016.5" x2="1016.5" y1="664.1875" y2="677.1875"/><line style="stroke:#181818;stroke-width:1.0;" x1="975.5" x2="1016.5" y1="677.1875" y2="677.1875"/><polygon fill="#181818" points="985.5,673.1875,975.5,677.1875,985.5,681.1875,981.5,677.1875" style="stroke:#181818;stroke-width:1.0;"/><text fill="#000000" font-family="sans-serif" font-size="13" font-weight="bold" lengthAdjust="spacing" textLength="30" x="981.5" y="659.1216">[12]</text><text fill="#000000" font-family="sans-serif" font-size="13" lengthAdjust="spacing" textLength="145" x="1015.5" y="659.1216">Pr&#252;fe REFRESH_TOKEN</text><line style="stroke:#181818;stroke-width:1.0;" x1="974.5" x2="1016.5" y1="706.3203" y2="706.3203"/><line style="stroke:#181818;stroke-width:1.0;" x1="1016.5" x2="1016.5" y1="706.3203" y2="719.3203"/><line style="stroke:#181818;stroke-width:1.0;" x1="975.5" x2="1016.5" y1="719.3203" y2="719.3203"/><polygon fill="#181818" points="985.5,715.3203,975.5,719.3203,985.5,723.3203,981.5,719.3203" style="stroke:#181818;stroke-width:1.0;"/><text fill="#000000" font-family="sans-serif" font-size="13" font-weight="bold" lengthAdjust="spacing" textLength="30" x="981.5" y="701.2544">[13]</text><text fill="#000000" font-family="sans-serif" font-size="13" lengthAdjust="spacing" textLength="334" x="1015.5" y="701.2544">Erzeuge search-ACCESS_TOKEN &amp; REFRESH_TOKEN</text><line style="stroke:#181818;stroke-width:1.0;" x1="974.5" x2="1016.5" y1="748.4531" y2="748.4531"/><line style="stroke:#181818;stroke-width:1.0;" x1="1016.5" x2="1016.5" y1="748.4531" y2="761.4531"/><line style="stroke:#181818;stroke-width:1.0;" x1="975.5" x2="1016.5" y1="761.4531" y2="761.4531"/><polygon fill="#181818" points="985.5,757.4531,975.5,761.4531,985.5,765.4531,981.5,761.4531" style="stroke:#181818;stroke-width:1.0;"/><text fill="#000000" font-family="sans-serif" font-size="13" font-weight="bold" lengthAdjust="spacing" textLength="30" x="981.5" y="743.3872">[14]</text><text fill="#000000" font-family="sans-serif" font-size="13" lengthAdjust="spacing" textLength="219" x="1015.5" y="743.3872">Deaktiviere altes REFRESH_TOKEN</text><polygon fill="#181818" points="446.5,831.9844,436.5,835.9844,446.5,839.9844,442.5,835.9844" style="stroke:#181818;stroke-width:1.0;"/><line style="stroke:#181818;stroke-width:1.0;stroke-dasharray:2.0,2.0;" x1="440.5" x2="968.5" y1="835.9844" y2="835.9844"/><text fill="#000000" font-family="sans-serif" font-size="13" font-weight="bold" lengthAdjust="spacing" textLength="30" x="452.5" y="808.2192">[15]</text><text fill="#000000" font-family="sans-serif" font-size="13" lengthAdjust="spacing" textLength="471" x="486.5" y="785.52">HTTP 200 OK, Result body mit search-ACCESS_TOKEN &amp; REFRESH_TOKEN</text><text fill="#000000" font-family="sans-serif" font-size="13" lengthAdjust="spacing" textLength="426" x="486.5" y="800.6528">{"access_token"="search-ACCESS_TOKEN", "token_type":"bearer",</text><text fill="#000000" font-family="sans-serif" font-size="13" lengthAdjust="spacing" textLength="118" x="486.5" y="815.7856">"expires_in":86400</text><text fill="#000000" font-family="sans-serif" font-size="13" lengthAdjust="spacing" textLength="426" x="486.5" y="830.9185">"refresh_token"="REFRESH_TOKEN", "token_type":"refresh_token"}</text><polygon fill="#181818" points="101.5,868.1172,91.5,872.1172,101.5,876.1172,97.5,872.1172" style="stroke:#181818;stroke-width:1.0;"/><line style="stroke:#181818;stroke-width:1.0;stroke-dasharray:2.0,2.0;" x1="95.5" x2="434.5" y1="872.1172" y2="872.1172"/><text fill="#000000" font-family="sans-serif" font-size="13" font-weight="bold" lengthAdjust="spacing" textLength="30" x="107.5" y="867.0513">[16]</text><text fill="#000000" font-family="sans-serif" font-size="13" lengthAdjust="spacing" textLength="151" x="141.5" y="867.0513">search-ACCESS_TOKEN</text><rect fill="#EEEEEE" height="3" style="stroke:#EEEEEE;stroke-width:1.0;" width="1822.5" x="0" y="907.6836"/><line style="stroke:#000000;stroke-width:1.0;" x1="0" x2="1822.5" y1="907.6836" y2="907.6836"/><line style="stroke:#000000;stroke-width:1.0;" x1="0" x2="1822.5" y1="910.6836" y2="910.6836"/><rect fill="#EEEEEE" height="23.1328" style="stroke:#000000;stroke-width:2.0;" width="327" x="747.75" y="897.1172"/><text fill="#000000" font-family="sans-serif" font-size="13" font-weight="bold" lengthAdjust="spacing" textLength="308" x="753.75" y="913.1841">...Suche durch Versicherte im FHIR VZD...</text><polygon fill="#181818" points="1344.5,962.5156,1354.5,966.5156,1344.5,970.5156,1348.5,966.5156" style="stroke:#181818;stroke-width:1.0;"/><line style="stroke:#181818;stroke-width:1.0;" x1="90.5" x2="1350.5" y1="966.5156" y2="966.5156"/><text fill="#000000" font-family="sans-serif" font-size="13" font-weight="bold" lengthAdjust="spacing" textLength="30" x="97.5" y="953.8833">[17]</text><text fill="#000000" font-family="sans-serif" font-size="13" lengthAdjust="spacing" textLength="233" x="131.5" y="946.3169">GET /fdv/search?... (Auth Header mit</text><text fill="#000000" font-family="sans-serif" font-size="13" lengthAdjust="spacing" textLength="156" x="131.5" y="961.4497">search-ACCESS_TOKEN)</text><line style="stroke:#181818;stroke-width:1.0;" x1="1366.5" x2="1408.5" y1="995.6484" y2="995.6484"/><line style="stroke:#181818;stroke-width:1.0;" x1="1408.5" x2="1408.5" y1="995.6484" y2="1008.6484"/><line style="stroke:#181818;stroke-width:1.0;" x1="1367.5" x2="1408.5" y1="1008.6484" y2="1008.6484"/><polygon fill="#181818" points="1377.5,1004.6484,1367.5,1008.6484,1377.5,1012.6484,1373.5,1008.6484" style="stroke:#181818;stroke-width:1.0;"/><text fill="#000000" font-family="sans-serif" font-size="13" font-weight="bold" lengthAdjust="spacing" textLength="30" x="1373.5" y="990.5825">[18]</text><text fill="#000000" font-family="sans-serif" font-size="13" lengthAdjust="spacing" textLength="188" x="1407.5" y="990.5825">pr&#252;fe search-ACCESS_TOKEN</text><path d="M10,1023.6484 L74,1023.6484 L74,1030.7813 L64,1040.7813 L10,1040.7813 L10,1023.6484 " fill="#EEEEEE" style="stroke:#000000;stroke-width:1.5;"/><rect fill="none" height="163.6016" style="stroke:#000000;stroke-width:1.5;" width="1663.5" x="10" y="1023.6484"/><text fill="#000000" font-family="sans-serif" font-size="13" font-weight="bold" lengthAdjust="spacing" textLength="19" x="25" y="1036.7153">alt</text><text fill="#000000" font-family="sans-serif" font-size="11" font-weight="bold" lengthAdjust="spacing" textLength="208" x="89" y="1035.8589">[search-ACCESS_TOKEN is valid]</text><polygon fill="#181818" points="1590.5,1057.9141,1600.5,1061.9141,1590.5,1065.9141,1594.5,1061.9141" style="stroke:#181818;stroke-width:1.0;"/><line style="stroke:#181818;stroke-width:1.0;" x1="1366.5" x2="1596.5" y1="1061.9141" y2="1061.9141"/><text fill="#000000" font-family="sans-serif" font-size="13" font-weight="bold" lengthAdjust="spacing" textLength="30" x="1373.5" y="1056.8481">[19]</text><text fill="#000000" font-family="sans-serif" font-size="13" lengthAdjust="spacing" textLength="52" x="1407.5" y="1056.8481">GET /?...</text><polygon fill="#181818" points="1377.5,1102.1797,1367.5,1106.1797,1377.5,1110.1797,1373.5,1106.1797" style="stroke:#181818;stroke-width:1.0;"/><line style="stroke:#181818;stroke-width:1.0;stroke-dasharray:2.0,2.0;" x1="1371.5" x2="1606.5" y1="1106.1797" y2="1106.1797"/><text fill="#000000" font-family="sans-serif" font-size="13" font-weight="bold" lengthAdjust="spacing" textLength="30" x="1383.5" y="1093.5474">[20]</text><text fill="#000000" font-family="sans-serif" font-size="13" lengthAdjust="spacing" textLength="82" x="1417.5" y="1085.981">HTTP 200 OK</text><text fill="#000000" font-family="sans-serif" font-size="13" lengthAdjust="spacing" textLength="115" x="1417.5" y="1101.1138">(Result Body json)</text><polygon fill="#181818" points="101.5,1131.3125,91.5,1135.3125,101.5,1139.3125,97.5,1135.3125" style="stroke:#181818;stroke-width:1.0;"/><line style="stroke:#181818;stroke-width:1.0;stroke-dasharray:2.0,2.0;" x1="95.5" x2="1355.5" y1="1135.3125" y2="1135.3125"/><text fill="#000000" font-family="sans-serif" font-size="13" font-weight="bold" lengthAdjust="spacing" textLength="30" x="107.5" y="1130.2466">[21]</text><text fill="#000000" font-family="sans-serif" font-size="13" lengthAdjust="spacing" textLength="201" x="141.5" y="1130.2466">HTTP 200 OK (Result Body json)</text><line style="stroke:#000000;stroke-width:1.0;stroke-dasharray:2.0,2.0;" x1="10" x2="1673.5" y1="1144.3125" y2="1144.3125"/><text fill="#000000" font-family="sans-serif" font-size="11" font-weight="bold" lengthAdjust="spacing" textLength="200" x="15" y="1154.5229">[search-accesstoken is invalid]</text><polygon fill="#181818" points="101.5,1175.25,91.5,1179.25,101.5,1183.25,97.5,1179.25" style="stroke:#181818;stroke-width:1.0;"/><line style="stroke:#181818;stroke-width:1.0;stroke-dasharray:2.0,2.0;" x1="95.5" x2="1360.5" y1="1179.25" y2="1179.25"/><text fill="#000000" font-family="sans-serif" font-size="13" font-weight="bold" lengthAdjust="spacing" textLength="30" x="107.5" y="1174.1841">[22]</text><text fill="#000000" font-family="sans-serif" font-size="13" lengthAdjust="spacing" textLength="60" x="141.5" y="1174.1841">HTTP 401</text><!--SRC=[xLNRJjj047ttLuosKaK4Xb2XgeeQ49UagH054KIbDbMqiSV9bcHjhTTfGjK_uuqVw-pQyIKnj9LuBBmapfapPsQEPtYYGvdCHgXWd_xP-z7XrsRp6tEqq5C4rkrzl7Pllvp1SQ8dABM81Qf4ZY5uV51mYoeMtWILHkOupYXSG9Tx4ov_eFGDwjNdYT3OduLtw03zHLnfuOc8ImstfrD1ZC1ZODd74fzY6m7TCmB5QO19uzklpA5SGAdJ_AJLjQBFX49FXshvh0XsQGfp-wZcbD9GtzxxzjacD4SA3rVGMcGGfHgDZ2iLBfQRjGH-0ScLbaefOoUnnLvmhSJ2xOKpZAtSWTowm3X6EKQLvcdG5BAskeUh1hSWKeyF0K8u0Xbw4nW_Faor66CCCNBbJTpZqzDElp-ykJplV1h8UJY3jGwMAuTvg8Xth1s7JpNSeP3FCve0ieIFqdIXa9UDimN7Cb1yZ7MnZWd9WEvX7b7ak-vqhplztdgc8nDO8-y9k1rFxY_tSEM1xUqMN5tsRs1FataaR7bM_53uEv1zZD5Jg1ifmogkOCYR_rJaMc2fo8XhsodkUJHbAo05-yWzBUPSOs7MIWKs_Kh_Xmx9pxcojzWpmUGV0mgLkAUVGza2DbPakA5UHjW-eMdGLgXHmHfEhZglDYtsAYssJlfJ8HrrZqdzzE5rTM1LYbAhUZStL_2csOJBynsunZYXoOz2VmapeV-6U21_ibJhCAsmpMgYs0um-xDj46knaMqHsnb8Xek8tfPuA2HhlNjxq6pICuK1FPhab9MK6sHLzA-wKMUJnccC_-Zf5t54HM4rxPyjKHtaYvkXe3X3VaSjepE5PWEiD-Y_Xyp1eZjJMQtKlzMngDl25jvkm-xkRZ-X-mn-GfZokGQH7WrpVma5xNP-YMYVqaNCR1Vuyxqqmv61MRj13xbFguOQFP0rwHjENa0GENHSCy9iizQU3RFxwuOcOfZpgV1DyHcJdqapWipZ8bcAyi7D4fOiGczAvf4Juv7lSIZj3IWrEyYJ5BSOAYHGns7VxanwQNyQvK9Mj6_I7ZJtrqL4TdY_0G00]--></g></svg>