<svg xmlns="http://www.w3.org/2000/svg" xmlns:xlink="http://www.w3.org/1999/xlink" contentStyleType="text/css" height="567.7083px" preserveAspectRatio="none" style="width:1125px;height:567px;background:#FFFFFF;" version="1.1" viewBox="0 0 1125 567" width="1125px" zoomAndPan="magnify"><defs/><g><rect fill="#FFFFFF" height="313.7451" style="stroke:#181818;stroke-width:1.0416666666666667;" width="10.4167" x="293.2292" y="134.0902"/><rect fill="#FFFFFF" height="134.9284" style="stroke:#181818;stroke-width:1.0416666666666667;" width="10.4167" x="717.7083" y="238.6719"/><line style="stroke:#181818;stroke-width:0.5208333333333334;stroke-dasharray:5.0,5.0;" x1="45.8333" x2="45.8333" y1="101.6602" y2="466.5853"/><line style="stroke:#181818;stroke-width:0.5208333333333334;stroke-dasharray:5.0,5.0;" x1="298.4375" x2="298.4375" y1="101.6602" y2="466.5853"/><line style="stroke:#181818;stroke-width:0.5208333333333334;stroke-dasharray:5.0,5.0;" x1="604.6875" x2="604.6875" y1="101.6602" y2="466.5853"/><line style="stroke:#181818;stroke-width:0.5208333333333334;stroke-dasharray:5.0,5.0;" x1="722.3958" x2="722.3958" y1="101.6602" y2="466.5853"/><line style="stroke:#181818;stroke-width:0.5208333333333334;stroke-dasharray:5.0,5.0;" x1="946.3542" x2="946.3542" y1="101.6602" y2="466.5853"/><line style="stroke:#181818;stroke-width:0.5208333333333334;stroke-dasharray:5.0,5.0;" x1="1060.9375" x2="1060.9375" y1="101.6602" y2="466.5853"/><text fill="#000000" font-family="sans-serif" font-size="14.5833" lengthAdjust="spacing" textLength="76.0417" x="5.2083" y="81.2449">Org-Admin</text><text fill="#000000" font-family="sans-serif" font-size="14.5833" lengthAdjust="spacing" textLength="54.1667" x="16.1458" y="98.2208">oder LE</text><ellipse cx="46.3542" cy="14.0625" fill="#E3E3E3" rx="8.3333" ry="8.3333" style="stroke:#181818;stroke-width:0.5208333333333334;"/><path d="M46.3542,22.3958 L46.3542,50.5208 M32.8125,30.7292 L59.8958,30.7292 M46.3542,50.5208 L32.8125,66.1458 M46.3542,50.5208 L59.8958,66.1458 " fill="none" style="stroke:#181818;stroke-width:0.5208333333333334;"/><text fill="#000000" font-family="sans-serif" font-size="14.5833" lengthAdjust="spacing" textLength="76.0417" x="5.2083" y="479.0802">Org-Admin</text><text fill="#000000" font-family="sans-serif" font-size="14.5833" lengthAdjust="spacing" textLength="54.1667" x="16.1458" y="496.0561">oder LE</text><ellipse cx="46.3542" cy="508.3496" fill="#E3E3E3" rx="8.3333" ry="8.3333" style="stroke:#181818;stroke-width:0.5208333333333334;"/><path d="M46.3542,516.6829 L46.3542,544.8079 M32.8125,525.0163 L59.8958,525.0163 M46.3542,544.8079 L32.8125,560.4329 M46.3542,544.8079 L59.8958,560.4329 " fill="none" style="stroke:#181818;stroke-width:0.5208333333333334;"/><rect fill="#E3E3E3" height="48.5352" rx="2.6042" ry="2.6042" style="stroke:#181818;stroke-width:0.5208333333333334;" width="112.5" x="242.1875" y="52.0833"/><text fill="#000000" font-family="sans-serif" font-size="14.5833" lengthAdjust="spacing" textLength="59.375" x="268.75" y="72.9116">Browser</text><text fill="#000000" font-family="sans-serif" font-size="14.5833" lengthAdjust="spacing" textLength="97.9167" x="249.4792" y="89.8875">SSP Frontend</text><rect fill="#E3E3E3" height="48.5352" rx="2.6042" ry="2.6042" style="stroke:#181818;stroke-width:0.5208333333333334;" width="112.5" x="242.1875" y="465.5436"/><text fill="#000000" font-family="sans-serif" font-size="14.5833" lengthAdjust="spacing" textLength="59.375" x="268.75" y="486.3719">Browser</text><text fill="#000000" font-family="sans-serif" font-size="14.5833" lengthAdjust="spacing" textLength="97.9167" x="249.4792" y="503.3478">SSP Frontend</text><rect fill="#E3E3E3" height="31.5592" rx="2.6042" ry="2.6042" style="stroke:#181818;stroke-width:0.5208333333333334;" width="110.4167" x="549.4792" y="69.0592"/><text fill="#000000" font-family="sans-serif" font-size="14.5833" lengthAdjust="spacing" textLength="95.8333" x="556.7708" y="89.8875">SSP Backend</text><rect fill="#E3E3E3" height="31.5592" rx="2.6042" ry="2.6042" style="stroke:#181818;stroke-width:0.5208333333333334;" width="110.4167" x="549.4792" y="465.5436"/><text fill="#000000" font-family="sans-serif" font-size="14.5833" lengthAdjust="spacing" textLength="95.8333" x="556.7708" y="486.3719">SSP Backend</text><rect fill="#E3E3E3" height="31.5592" rx="2.6042" ry="2.6042" style="stroke:#181818;stroke-width:0.5208333333333334;" width="105.2083" x="670.3125" y="69.0592"/><text fill="#000000" font-family="sans-serif" font-size="14.5833" lengthAdjust="spacing" textLength="90.625" x="677.6042" y="89.8875">Auth-Service</text><rect fill="#E3E3E3" height="31.5592" rx="2.6042" ry="2.6042" style="stroke:#181818;stroke-width:0.5208333333333334;" width="105.2083" x="670.3125" y="465.5436"/><text fill="#000000" font-family="sans-serif" font-size="14.5833" lengthAdjust="spacing" textLength="90.625" x="677.6042" y="486.3719">Auth-Service</text><rect fill="#E3E3E3" height="31.5592" rx="2.6042" ry="2.6042" style="stroke:#181818;stroke-width:0.5208333333333334;" width="90.625" x="901.5625" y="69.0592"/><text fill="#000000" font-family="sans-serif" font-size="14.5833" lengthAdjust="spacing" textLength="76.0417" x="908.8542" y="89.8875">FHIR-Proxy</text><rect fill="#E3E3E3" height="31.5592" rx="2.6042" ry="2.6042" style="stroke:#181818;stroke-width:0.5208333333333334;" width="90.625" x="901.5625" y="465.5436"/><text fill="#000000" font-family="sans-serif" font-size="14.5833" lengthAdjust="spacing" textLength="76.0417" x="908.8542" y="486.3719">FHIR-Proxy</text><rect fill="#E3E3E3" height="31.5592" rx="2.6042" ry="2.6042" style="stroke:#181818;stroke-width:0.5208333333333334;" width="116.6667" x="1002.6042" y="69.0592"/><text fill="#000000" font-family="sans-serif" font-size="14.5833" lengthAdjust="spacing" textLength="102.0833" x="1009.8958" y="89.8875">FHIR-Directory</text><rect fill="#E3E3E3" height="31.5592" rx="2.6042" ry="2.6042" style="stroke:#181818;stroke-width:0.5208333333333334;" width="116.6667" x="1002.6042" y="465.5436"/><text fill="#000000" font-family="sans-serif" font-size="14.5833" lengthAdjust="spacing" textLength="102.0833" x="1009.8958" y="486.3719">FHIR-Directory</text><rect fill="#FFFFFF" height="313.7451" style="stroke:#181818;stroke-width:1.0416666666666667;" width="10.4167" x="293.2292" y="134.0902"/><rect fill="#FFFFFF" height="134.9284" style="stroke:#181818;stroke-width:1.0416666666666667;" width="10.4167" x="717.7083" y="238.6719"/><polygon fill="#181818" points="280.7292,129.9235,291.1458,134.0902,280.7292,138.2568,284.8958,134.0902" style="stroke:#181818;stroke-width:1.0416666666666667;"/><line style="stroke:#181818;stroke-width:1.0416666666666667;" x1="46.3542" x2="286.9792" y1="134.0902" y2="134.0902"/><text fill="#000000" font-family="sans-serif" font-size="13.5417" lengthAdjust="spacing" textLength="127.0833" x="53.6458" y="128.8132">[1] SSP UI aufrufen</text><line style="stroke:#181818;stroke-width:1.0416666666666667;" x1="303.6458" x2="347.3958" y1="164.4368" y2="164.4368"/><line style="stroke:#181818;stroke-width:1.0416666666666667;" x1="347.3958" x2="347.3958" y1="164.4368" y2="177.9785"/><line style="stroke:#181818;stroke-width:1.0416666666666667;" x1="304.6875" x2="347.3958" y1="177.9785" y2="177.9785"/><polygon fill="#181818" points="315.1042,173.8118,304.6875,177.9785,315.1042,182.1452,310.9375,177.9785" style="stroke:#181818;stroke-width:1.0416666666666667;"/><text fill="#000000" font-family="sans-serif" font-size="13.5417" lengthAdjust="spacing" textLength="196.875" x="310.9375" y="159.1599">[2] Darstellung Login Auswahl</text><polygon fill="#181818" points="280.7292,204.1585,291.1458,208.3252,280.7292,212.4919,284.8958,208.3252" style="stroke:#181818;stroke-width:1.0416666666666667;"/><line style="stroke:#181818;stroke-width:1.0416666666666667;" x1="46.3542" x2="286.9792" y1="208.3252" y2="208.3252"/><text fill="#000000" font-family="sans-serif" font-size="13.5417" lengthAdjust="spacing" textLength="221.875" x="53.6458" y="203.0482">[3] Login mit Passwort ausw&#228;hlen</text><polygon fill="#181818" points="705.2083,234.5052,715.625,238.6719,705.2083,242.8385,709.375,238.6719" style="stroke:#181818;stroke-width:1.0416666666666667;"/><line style="stroke:#181818;stroke-width:1.0416666666666667;" x1="303.6458" x2="711.4583" y1="238.6719" y2="238.6719"/><text fill="#000000" font-family="sans-serif" font-size="13.5417" lengthAdjust="spacing" textLength="173.9583" x="310.9375" y="233.3949">[3] Weiterleitung auf Login</text><polygon fill="#181818" points="315.1042,264.8519,304.6875,269.0186,315.1042,273.1852,310.9375,269.0186" style="stroke:#181818;stroke-width:1.0416666666666667;"/><line style="stroke:#181818;stroke-width:1.0416666666666667;" x1="308.8542" x2="716.6667" y1="269.0186" y2="269.0186"/><text fill="#000000" font-family="sans-serif" font-size="13.5417" lengthAdjust="spacing" textLength="185.4167" x="321.3542" y="263.7416">[4] Darstellung Login Maske</text><polygon fill="#181818" points="705.2083,295.1986,715.625,299.3652,705.2083,303.5319,709.375,299.3652" style="stroke:#181818;stroke-width:1.0416666666666667;"/><line style="stroke:#181818;stroke-width:1.0416666666666667;" x1="46.3542" x2="711.4583" y1="299.3652" y2="299.3652"/><text fill="#000000" font-family="sans-serif" font-size="13.5417" lengthAdjust="spacing" textLength="277.0833" x="53.6458" y="294.0882">[5] Anmeldedaten eingeben &amp; best&#228;tigen</text><line style="stroke:#181818;stroke-width:1.0416666666666667;" x1="728.125" x2="771.875" y1="329.7119" y2="329.7119"/><line style="stroke:#181818;stroke-width:1.0416666666666667;" x1="771.875" x2="771.875" y1="329.7119" y2="343.2536"/><line style="stroke:#181818;stroke-width:1.0416666666666667;" x1="729.1667" x2="771.875" y1="343.2536" y2="343.2536"/><polygon fill="#181818" points="739.5833,339.0869,729.1667,343.2536,739.5833,347.4202,735.4167,343.2536" style="stroke:#181818;stroke-width:1.0416666666666667;"/><text fill="#000000" font-family="sans-serif" font-size="13.5417" lengthAdjust="spacing" textLength="188.5417" x="735.4167" y="324.4349">[6] Anmeldedaten validieren</text><polygon fill="#181818" points="315.1042,369.4336,304.6875,373.6003,315.1042,377.7669,310.9375,373.6003" style="stroke:#181818;stroke-width:1.0416666666666667;"/><line style="stroke:#181818;stroke-width:1.0416666666666667;" x1="308.8542" x2="721.875" y1="373.6003" y2="373.6003"/><text fill="#000000" font-family="sans-serif" font-size="13.5417" lengthAdjust="spacing" textLength="290.625" x="321.3542" y="368.3233">[7] R&#252;ckgabe Token, Account Informationen</text><line style="stroke:#181818;stroke-width:1.0416666666666667;" x1="303.6458" x2="347.3958" y1="403.9469" y2="403.9469"/><line style="stroke:#181818;stroke-width:1.0416666666666667;" x1="347.3958" x2="347.3958" y1="403.9469" y2="417.4886"/><line style="stroke:#181818;stroke-width:1.0416666666666667;" x1="304.6875" x2="347.3958" y1="417.4886" y2="417.4886"/><polygon fill="#181818" points="315.1042,413.3219,304.6875,417.4886,315.1042,421.6553,310.9375,417.4886" style="stroke:#181818;stroke-width:1.0416666666666667;"/><text fill="#000000" font-family="sans-serif" font-size="13.5417" lengthAdjust="spacing" textLength="270.8333" x="310.9375" y="398.6699">[8] Benutzeranmeldung wird gespeichert</text><polygon fill="#181818" points="57.8125,443.6686,47.3958,447.8353,57.8125,452.002,53.6458,447.8353" style="stroke:#181818;stroke-width:1.0416666666666667;"/><line style="stroke:#181818;stroke-width:1.0416666666666667;" x1="51.5625" x2="297.3958" y1="447.8353" y2="447.8353"/><text fill="#000000" font-family="sans-serif" font-size="13.5417" lengthAdjust="spacing" textLength="177.0833" x="64.0625" y="442.5583">[9] Anzeige SSP Suchseite</text><!--SRC=[RL7BRjim4BppAnOwj9SOID9dUYXW8mrg84MDg84FZGuCkPOMfaXrITgDloUVqPj_hAJiE7BQYo1mPsPdPlsIR2TPjg0xWhFJK-4FBtEMtPnqQE3ywBrrrgc6NOiGEA8GhmC5Wr1SVPtUZ2w9KGN73oTGug-8TgD9rfbNbZCOnz2W3QHaG6Wfm4nwltOS2Y4p2nn83yLthaTZtPAziquZm_MNGgJbYKUTj06KwM4JTckFV6Upz1Kx6z3gO-GzziWCc4Yr_6SkOp_FlaObyeeK7WCMNG_eiytO_NvuCTRFuqFqGWZXOFGv-Vm4Fy-gFlhjD2rRS5oWpLbfbIjGHgGiJyZp2Yub-u36H5l3jQl9fihyMZPc8FYcse-61IPnlzu-DYR9xpLbt87dI07Pf6zMJIPsz6SNCehKmvFys_-v-2Rz4dSUUjbt5OnjYqQZJWeMa6oDz-ddLQhSX-rZe3e7ZGV6-nUCbJIa2Vc0wfT_gE1c-qSjQvakzyEbWvt0M2aNKzTJkt3Soa3E9fB6eVzXZHyhcA2DOOCi-uqvnffOGus-Gr8DSjWJNC9VP6SRJ8RxGvLHDJvN9eOxbFaB]--></g></svg>