<svg xmlns="http://www.w3.org/2000/svg" xmlns:xlink="http://www.w3.org/1999/xlink" contentStyleType="text/css" data-diagram-type="SEQUENCE" height="658.3333px" preserveAspectRatio="none" style="width:1233px;height:658px;background:#FFFFFF;" version="1.1" viewBox="0 0 1233 658" width="1233.3333px" zoomAndPan="magnify"><defs/><g><g><title>Browser</title><rect fill="#FFFFFF" height="404.7852" style="stroke:#181818;stroke-width:1.0417;" width="10.4167" x="300.4013" y="134.0902"/></g><g><title>SSP Backend</title><rect fill="#FFFFFF" height="344.0918" style="stroke:#181818;stroke-width:1.0417;" width="10.4167" x="500.2243" y="164.4368"/></g><g><title>Auth-Service</title><rect fill="#FFFFFF" height="74.235" style="stroke:#181818;stroke-width:1.0417;" width="10.4167" x="733.4696" y="194.7835"/></g><g><title>FHIR-Proxy</title><rect fill="#FFFFFF" height="134.9284" style="stroke:#181818;stroke-width:1.0417;" width="10.4167" x="904.9973" y="343.2536"/></g><g><title>FHIR-Directory</title><rect fill="#FFFFFF" height="30.3467" style="stroke:#181818;stroke-width:1.0417;" width="10.4167" x="1161.5438" y="417.4886"/></g><g><title>Org-Admin</title><rect fill="#000000" fill-opacity="0.00000" height="455.9652" width="8.3333" x="43.5303" y="101.6602"/><line style="stroke:#181818;stroke-width:0.5208;stroke-dasharray:5.2083,5.2083;" x1="46.875" x2="46.875" y1="101.6602" y2="557.6253"/></g><g><title>Browser</title><rect fill="#000000" fill-opacity="0.00000" height="455.9652" width="8.3333" x="301.443" y="101.6602"/><line style="stroke:#181818;stroke-width:0.5208;stroke-dasharray:5.2083,5.2083;" x1="304.685" x2="304.685" y1="101.6602" y2="557.6253"/></g><g><title>SSP Backend</title><rect fill="#000000" fill-opacity="0.00000" height="455.9652" width="8.3333" x="501.266" y="101.6602"/><line style="stroke:#181818;stroke-width:0.5208;stroke-dasharray:5.2083,5.2083;" x1="504.8976" x2="504.8976" y1="101.6602" y2="557.6253"/></g><g><title>Auth-Service</title><rect fill="#000000" fill-opacity="0.00000" height="455.9652" width="8.3333" x="734.5113" y="101.6602"/><line style="stroke:#181818;stroke-width:0.5208;stroke-dasharray:5.2083,5.2083;" x1="737.8418" x2="737.8418" y1="101.6602" y2="557.6253"/></g><g><title>FHIR-Proxy</title><rect fill="#000000" fill-opacity="0.00000" height="455.9652" width="8.3333" x="906.0389" y="101.6602"/><line style="stroke:#181818;stroke-width:0.5208;stroke-dasharray:5.2083,5.2083;" x1="909.7773" x2="909.7773" y1="101.6602" y2="557.6253"/></g><g><title>FHIR-Directory</title><rect fill="#000000" fill-opacity="0.00000" height="455.9652" width="8.3333" x="1162.5854" y="101.6602"/><line style="stroke:#181818;stroke-width:0.5208;stroke-dasharray:5.2083,5.2083;" x1="1166.5853" x2="1166.5853" y1="101.6602" y2="557.6253"/></g><g class="participant participant-head" data-participant="o"><text fill="#000000" font-family="sans-serif" font-size="14.5833" lengthAdjust="spacing" textLength="78.7272" x="5.2083" y="81.2449">Org-Admin</text><text fill="#000000" font-family="sans-serif" font-size="14.5833" lengthAdjust="spacing" textLength="55.1219" x="17.011" y="98.2208">oder LE</text><ellipse cx="47.6969" cy="14.0625" fill="#E3E3E3" rx="8.3333" ry="8.3333" style="stroke:#181818;stroke-width:0.5208;"/><path d="M47.6969,22.3958 L47.6969,50.5208 M34.1553,30.7292 L61.2386,30.7292 M47.6969,50.5208 L34.1553,66.1458 M47.6969,50.5208 L61.2386,66.1458" fill="none" style="stroke:#181818;stroke-width:0.5208;"/></g><g class="participant participant-tail" data-participant="o"><text fill="#000000" font-family="sans-serif" font-size="14.5833" lengthAdjust="spacing" textLength="78.7272" x="5.2083" y="570.1202">Org-Admin</text><text fill="#000000" font-family="sans-serif" font-size="14.5833" lengthAdjust="spacing" textLength="55.1219" x="17.011" y="587.0962">oder LE</text><ellipse cx="47.6969" cy="599.3896" fill="#E3E3E3" rx="8.3333" ry="8.3333" style="stroke:#181818;stroke-width:0.5208;"/><path d="M47.6969,607.723 L47.6969,635.848 M34.1553,616.0563 L61.2386,616.0563 M47.6969,635.848 L34.1553,651.473 M47.6969,635.848 L61.2386,651.473" fill="none" style="stroke:#181818;stroke-width:0.5208;"/></g><g class="participant participant-head" data-participant="cl"><rect fill="#E3E3E3" height="48.5352" rx="2.6042" ry="2.6042" style="stroke:#181818;stroke-width:0.5208;" width="112.266" x="249.4766" y="52.0833"/><text fill="#000000" font-family="sans-serif" font-size="14.5833" lengthAdjust="spacing" textLength="59.4157" x="275.9018" y="72.9116">Browser</text><text fill="#000000" font-family="sans-serif" font-size="14.5833" lengthAdjust="spacing" textLength="97.6827" x="256.7683" y="89.8875">SSP Frontend</text></g><g class="participant participant-tail" data-participant="cl"><rect fill="#E3E3E3" height="48.5352" rx="2.6042" ry="2.6042" style="stroke:#181818;stroke-width:0.5208;" width="112.266" x="249.4766" y="556.5837"/><text fill="#000000" font-family="sans-serif" font-size="14.5833" lengthAdjust="spacing" textLength="59.4157" x="275.9018" y="577.4119">Browser</text><text fill="#000000" font-family="sans-serif" font-size="14.5833" lengthAdjust="spacing" textLength="97.6827" x="256.7683" y="594.3878">SSP Frontend</text></g><g class="participant participant-head" data-participant="be"><rect fill="#E3E3E3" height="31.5592" rx="2.6042" ry="2.6042" style="stroke:#181818;stroke-width:0.5208;" width="109.4035" x="450.7309" y="69.0592"/><text fill="#000000" font-family="sans-serif" font-size="14.5833" lengthAdjust="spacing" textLength="94.8201" x="458.0226" y="89.8875">SSP Backend</text></g><g class="participant participant-tail" data-participant="be"><rect fill="#E3E3E3" height="31.5592" rx="2.6042" ry="2.6042" style="stroke:#181818;stroke-width:0.5208;" width="109.4035" x="450.7309" y="556.5837"/><text fill="#000000" font-family="sans-serif" font-size="14.5833" lengthAdjust="spacing" textLength="94.8201" x="458.0226" y="577.4119">SSP Backend</text></g><g class="participant participant-head" data-participant="au"><rect fill="#E3E3E3" height="31.5592" rx="2.6042" ry="2.6042" style="stroke:#181818;stroke-width:0.5208;" width="107.9224" x="684.7168" y="69.0592"/><text fill="#000000" font-family="sans-serif" font-size="14.5833" lengthAdjust="spacing" textLength="93.339" x="692.0085" y="89.8875">Auth-Service</text></g><g class="participant participant-tail" data-participant="au"><rect fill="#E3E3E3" height="31.5592" rx="2.6042" ry="2.6042" style="stroke:#181818;stroke-width:0.5208;" width="107.9224" x="684.7168" y="556.5837"/><text fill="#000000" font-family="sans-serif" font-size="14.5833" lengthAdjust="spacing" textLength="93.339" x="692.0085" y="577.4119">Auth-Service</text></g><g class="participant participant-head" data-participant="fp"><rect fill="#E3E3E3" height="31.5592" rx="2.6042" ry="2.6042" style="stroke:#181818;stroke-width:0.5208;" width="94.6065" x="862.9023" y="69.0592"/><text fill="#000000" font-family="sans-serif" font-size="14.5833" lengthAdjust="spacing" textLength="80.0232" x="870.194" y="89.8875">FHIR-Proxy</text></g><g class="participant participant-tail" data-participant="fp"><rect fill="#E3E3E3" height="31.5592" rx="2.6042" ry="2.6042" style="stroke:#181818;stroke-width:0.5208;" width="94.6065" x="862.9023" y="556.5837"/><text fill="#000000" font-family="sans-serif" font-size="14.5833" lengthAdjust="spacing" textLength="80.0232" x="870.194" y="577.4119">FHIR-Proxy</text></g><g class="participant participant-head" data-participant="fd"><rect fill="#E3E3E3" height="31.5592" rx="2.6042" ry="2.6042" style="stroke:#181818;stroke-width:0.5208;" width="121.167" x="1106.1686" y="69.0592"/><text fill="#000000" font-family="sans-serif" font-size="14.5833" lengthAdjust="spacing" textLength="106.5837" x="1113.4603" y="89.8875">FHIR-Directory</text></g><g class="participant participant-tail" data-participant="fd"><rect fill="#E3E3E3" height="31.5592" rx="2.6042" ry="2.6042" style="stroke:#181818;stroke-width:0.5208;" width="121.167" x="1106.1686" y="556.5837"/><text fill="#000000" font-family="sans-serif" font-size="14.5833" lengthAdjust="spacing" textLength="106.5837" x="1113.4603" y="577.4119">FHIR-Directory</text></g><g><title>Browser</title><rect fill="#FFFFFF" height="404.7852" style="stroke:#181818;stroke-width:1.0417;" width="10.4167" x="300.4013" y="134.0902"/></g><g><title>SSP Backend</title><rect fill="#FFFFFF" height="344.0918" style="stroke:#181818;stroke-width:1.0417;" width="10.4167" x="500.2243" y="164.4368"/></g><g><title>Auth-Service</title><rect fill="#FFFFFF" height="74.235" style="stroke:#181818;stroke-width:1.0417;" width="10.4167" x="733.4696" y="194.7835"/></g><g><title>FHIR-Proxy</title><rect fill="#FFFFFF" height="134.9284" style="stroke:#181818;stroke-width:1.0417;" width="10.4167" x="904.9973" y="343.2536"/></g><g><title>FHIR-Directory</title><rect fill="#FFFFFF" height="30.3467" style="stroke:#181818;stroke-width:1.0417;" width="10.4167" x="1161.5438" y="417.4886"/></g><g class="message" data-participant-1="o" data-participant-2="cl"><polygon fill="#181818" points="287.9013,129.9235,298.318,134.0902,287.9013,138.2568,292.068,134.0902" style="stroke:#181818;stroke-width:1.0417;"/><line style="stroke:#181818;stroke-width:1.0417;" x1="47.6969" x2="294.1513" y1="134.0902" y2="134.0902"/><text fill="#000000" font-family="sans-serif" font-size="13.5417" lengthAdjust="spacing" textLength="232.9127" x="54.9886" y="128.8132">[1] Suchanfrage zusammenstellen</text></g><g class="message" data-participant-1="cl" data-participant-2="be"><polygon fill="#181818" points="487.7243,160.2702,498.141,164.4368,487.7243,168.6035,491.891,164.4368" style="stroke:#181818;stroke-width:1.0417;"/><line style="stroke:#181818;stroke-width:1.0417;" x1="310.818" x2="493.9743" y1="164.4368" y2="164.4368"/><text fill="#000000" font-family="sans-serif" font-size="13.5417" lengthAdjust="spacing" textLength="169.6147" x="318.1096" y="159.1599">[2] Suchanfrage &amp; Token</text></g><g class="message" data-participant-1="be" data-participant-2="au"><polygon fill="#181818" points="720.9696,190.6169,731.3863,194.7835,720.9696,198.9502,725.1363,194.7835" style="stroke:#181818;stroke-width:1.0417;"/><line style="stroke:#181818;stroke-width:1.0417;" x1="510.641" x2="727.2196" y1="194.7835" y2="194.7835"/><text fill="#000000" font-family="sans-serif" font-size="13.5417" lengthAdjust="spacing" textLength="137.3606" x="517.9326" y="189.5065">[3] Token Validieren</text></g><g class="message" data-participant-1="au" data-participant-2="au"><line style="stroke:#181818;stroke-width:1.0417;" x1="743.8863" x2="787.6363" y1="225.1302" y2="225.1302"/><line style="stroke:#181818;stroke-width:1.0417;" x1="787.6363" x2="787.6363" y1="225.1302" y2="238.6719"/><line style="stroke:#181818;stroke-width:1.0417;" x1="744.928" x2="787.6363" y1="238.6719" y2="238.6719"/><polygon fill="#181818" points="755.3446,234.5052,744.928,238.6719,755.3446,242.8385,751.178,238.6719" style="stroke:#181818;stroke-width:1.0417;"/><text fill="#000000" font-family="sans-serif" font-size="13.5417" lengthAdjust="spacing" textLength="136.1109" x="751.178" y="219.8532">[4] Token validieren</text></g><g class="message" data-participant-1="au" data-participant-2="be"><polygon fill="#181818" points="522.0993,264.8519,511.6826,269.0186,522.0993,273.1852,517.9326,269.0186" style="stroke:#181818;stroke-width:1.0417;"/><line style="stroke:#181818;stroke-width:1.0417;" x1="515.8493" x2="737.6363" y1="269.0186" y2="269.0186"/><text fill="#000000" font-family="sans-serif" font-size="13.5417" lengthAdjust="spacing" textLength="166.4673" x="528.3493" y="263.7416">[5] Validierungsergebnis</text></g><g class="message" data-participant-1="be" data-participant-2="be"><line style="stroke:#181818;stroke-width:1.0417;" x1="510.641" x2="554.391" y1="299.3652" y2="299.3652"/><line style="stroke:#181818;stroke-width:1.0417;" x1="554.391" x2="554.391" y1="299.3652" y2="312.9069"/><line style="stroke:#181818;stroke-width:1.0417;" x1="511.6826" x2="554.391" y1="312.9069" y2="312.9069"/><polygon fill="#181818" points="522.0993,308.7402,511.6826,312.9069,522.0993,317.0736,517.9326,312.9069" style="stroke:#181818;stroke-width:1.0417;"/><text fill="#000000" font-family="sans-serif" font-size="13.5417" lengthAdjust="spacing" textLength="197.8287" x="517.9326" y="294.0882">[6] Berechtigungen ermitteln</text></g><g class="message" data-participant-1="be" data-participant-2="fp"><polygon fill="#181818" points="892.4973,339.0869,902.9139,343.2536,892.4973,347.4202,896.6639,343.2536" style="stroke:#181818;stroke-width:1.0417;"/><line style="stroke:#181818;stroke-width:1.0417;" x1="510.641" x2="898.7473" y1="343.2536" y2="343.2536"/><text fill="#000000" font-family="sans-serif" font-size="13.5417" lengthAdjust="spacing" textLength="261.9665" x="517.9326" y="337.9766">[7] Suchanfrage &amp; SSP Backend Token</text></g><g class="message" data-participant-1="fp" data-participant-2="fp"><line style="stroke:#181818;stroke-width:1.0417;" x1="915.4139" x2="959.1639" y1="373.6003" y2="373.6003"/><line style="stroke:#181818;stroke-width:1.0417;" x1="959.1639" x2="959.1639" y1="373.6003" y2="387.1419"/><line style="stroke:#181818;stroke-width:1.0417;" x1="916.4556" x2="959.1639" y1="387.1419" y2="387.1419"/><polygon fill="#181818" points="926.8723,382.9753,916.4556,387.1419,926.8723,391.3086,922.7056,387.1419" style="stroke:#181818;stroke-width:1.0417;"/><text fill="#000000" font-family="sans-serif" font-size="13.5417" lengthAdjust="spacing" textLength="221.1299" x="922.7056" y="368.3233">[8] Validiere SSP Backend Token</text></g><g class="message" data-participant-1="fp" data-participant-2="fd"><polygon fill="#181818" points="1149.0438,413.3219,1159.4604,417.4886,1149.0438,421.6553,1153.2104,417.4886" style="stroke:#181818;stroke-width:1.0417;"/><line style="stroke:#181818;stroke-width:1.0417;" x1="915.4139" x2="1155.2938" y1="417.4886" y2="417.4886"/><text fill="#000000" font-family="sans-serif" font-size="13.5417" lengthAdjust="spacing" textLength="109.1334" x="922.7056" y="412.2116">[9] Suchanfrage</text></g><g class="message" data-participant-1="fd" data-participant-2="fp"><polygon fill="#181818" points="926.8723,443.6686,916.4556,447.8353,926.8723,452.002,922.7056,447.8353" style="stroke:#181818;stroke-width:1.0417;"/><line style="stroke:#181818;stroke-width:1.0417;" x1="920.6223" x2="1165.7104" y1="447.8353" y2="447.8353"/><text fill="#000000" font-family="sans-serif" font-size="13.5417" lengthAdjust="spacing" textLength="124.1297" x="933.1223" y="442.5583">[10] Suchergebnis</text></g><g class="message" data-participant-1="fp" data-participant-2="be"><polygon fill="#181818" points="522.0993,474.0153,511.6826,478.182,522.0993,482.3486,517.9326,478.182" style="stroke:#181818;stroke-width:1.0417;"/><line style="stroke:#181818;stroke-width:1.0417;" x1="515.8493" x2="909.1639" y1="478.182" y2="478.182"/><text fill="#000000" font-family="sans-serif" font-size="13.5417" lengthAdjust="spacing" textLength="124.1297" x="528.3493" y="472.905">[10] Suchergebnis</text></g><g class="message" data-participant-1="be" data-participant-2="cl"><polygon fill="#181818" points="322.2763,504.362,311.8596,508.5286,322.2763,512.6953,318.1096,508.5286" style="stroke:#181818;stroke-width:1.0417;"/><line style="stroke:#181818;stroke-width:1.0417;" x1="316.0263" x2="504.391" y1="508.5286" y2="508.5286"/><text fill="#000000" font-family="sans-serif" font-size="13.5417" lengthAdjust="spacing" textLength="124.1297" x="328.5263" y="503.2516">[10] Suchergebnis</text></g><g class="message" data-participant-1="cl" data-participant-2="o"><polygon fill="#181818" points="59.1553,534.7087,48.7386,538.8753,59.1553,543.042,54.9886,538.8753" style="stroke:#181818;stroke-width:1.0417;"/><line style="stroke:#181818;stroke-width:1.0417;" x1="52.9053" x2="304.568" y1="538.8753" y2="538.8753"/><text fill="#000000" font-family="sans-serif" font-size="13.5417" lengthAdjust="spacing" textLength="182.4092" x="65.4053" y="533.5983">[11] Anzeige Suchergebnis</text></g><!--SRC=[VP9FRzim3CNl-XI43zjb0P9kwzOU2YJOYXKeq60kraERWo8njX1RyYWfNVFfHzb9QgT_hkBlFVAHycjZ6qco1jqOc8p7mXzUxaWsTqQ74au6xxMpJfNaQeH04ONu64oe4BBBNrU_HpyCeGgEdZv1ZdyZsgqsiaYwF9_3D8OIRJ1A1eJQ19XBxnyTXKp8f087qaDsGyLegcjZ7wpJI73zCnFSd7McaJQ0gbfiHkxH8ptOP7r9pWQqUaWkiIKJC9Dg_Q8kOrjFSurof8rHE0HMJGkqsURa_ZqTbVLp-H0z4q8u65tmdETmFrb07bKfxOfaWR2DNjOrMX-mgj2ct6QJrg4gmRbOjKHMdGnL7-3MhVlqaXVFuHYNaV7FYmw0Fx8osY3rMHa5vzoZN_RefeV6G-ElYuD7j0Mljy2bDLvexFljUhUAqmNCs4MLmHGiOMSalYtdipjirJ3sxJXHxoZ7wLQDuCNlbT-VHy9NL3jICtaswD7pqqBmgVQ6at77lHQEqSwmpVOksUpYTMT-Xqp7wcxh4ia_OcgtQ7WBRoduC_m7]--></g></svg>