<?xml version="1.0" encoding="us-ascii" standalone="no"?><svg xmlns="http://www.w3.org/2000/svg" xmlns:xlink="http://www.w3.org/1999/xlink" contentStyleType="text/css" height="1042.7083px" preserveAspectRatio="none" style="width:1881px;height:1042px;background:#FFFFFF;" version="1.1" viewBox="0 0 1881 1042" width="1881.25px" zoomAndPan="magnify"><defs/><g><rect fill="#F5F5F5" height="1030.2816" style="stroke:#181818;stroke-width:0.5208333333333334;" width="714.5833" x="954.6875" y="6.25"/><text fill="#000000" font-family="sans-serif" font-size="16.6667" font-weight="bold" lengthAdjust="spacing" textLength="135.4167" x="1241.6667" y="21.7204">FHIR-Directory</text><text fill="#000000" font-family="sans-serif" font-size="13.5417" font-weight="bold" lengthAdjust="spacing" textLength="5.2083" x="1377.0833" y="22.4574">&#160;</text><rect fill="#FFFFFF" height="818.0664" style="stroke:#181818;stroke-width:1.0416666666666667;" width="10.4167" x="431.25" y="117.1143"/><rect fill="#FFFFFF" height="221.5983" style="stroke:#181818;stroke-width:1.0416666666666667;" width="10.4167" x="998.9583" y="188.3626"/><rect fill="#FFFFFF" height="46.11" style="stroke:#181818;stroke-width:1.0416666666666667;" width="10.4167" x="1226.0417" y="287.736"/><rect fill="#FFFFFF" height="289.8763" style="stroke:#181818;stroke-width:1.0416666666666667;" width="10.4167" x="1564.5833" y="600.3743"/><rect fill="none" height="292.8467" style="stroke:#000000;stroke-width:1.5625;" width="959.375" x="351.0417" y="132.7393"/><rect fill="none" height="170.4183" style="stroke:#000000;stroke-width:1.5625;" width="938.5417" x="361.4583" y="247.876"/><rect fill="none" height="345.3613" style="stroke:#000000;stroke-width:1.5625;" width="1523.9583" x="351.0417" y="560.5143"/><rect fill="none" height="238.6963" style="stroke:#000000;stroke-width:1.5625;" width="1503.125" x="361.4583" y="659.8877"/><line style="stroke:#181818;stroke-width:0.5208333333333334;stroke-dasharray:5.0,5.0;" x1="32.2917" x2="32.2917" y1="84.6842" y2="953.9307"/><line style="stroke:#181818;stroke-width:0.5208333333333334;stroke-dasharray:5.0,5.0;" x1="436.4583" x2="436.4583" y1="84.6842" y2="953.9307"/><line style="stroke:#181818;stroke-width:0.5208333333333334;stroke-dasharray:5.0,5.0;" x1="1003.6458" x2="1003.6458" y1="84.6842" y2="953.9307"/><line style="stroke:#181818;stroke-width:0.5208333333333334;stroke-dasharray:5.0,5.0;" x1="1231.25" x2="1231.25" y1="84.6842" y2="953.9307"/><line style="stroke:#181818;stroke-width:0.5208333333333334;stroke-dasharray:5.0,5.0;" x1="1569.2708" x2="1569.2708" y1="84.6842" y2="953.9307"/><text fill="#000000" font-family="sans-serif" font-size="14.5833" lengthAdjust="spacing" textLength="47.9167" x="5.2083" y="81.2449">Nutzer</text><ellipse cx="32.2917" cy="14.0625" fill="#E3E3E3" rx="8.3333" ry="8.3333" style="stroke:#181818;stroke-width:0.5208333333333334;"/><path d="M32.2917,22.3958 L32.2917,50.5208 M18.75,30.7292 L45.8333,30.7292 M32.2917,50.5208 L18.75,66.1458 M32.2917,50.5208 L45.8333,66.1458 " fill="none" style="stroke:#181818;stroke-width:0.5208333333333334;"/><text fill="#000000" font-family="sans-serif" font-size="14.5833" lengthAdjust="spacing" textLength="47.9167" x="5.2083" y="966.4256">Nutzer</text><ellipse cx="32.2917" cy="978.7191" fill="#E3E3E3" rx="8.3333" ry="8.3333" style="stroke:#181818;stroke-width:0.5208333333333334;"/><path d="M32.2917,987.0524 L32.2917,1015.1774 M18.75,995.3857 L45.8333,995.3857 M32.2917,1015.1774 L18.75,1030.8024 M32.2917,1015.1774 L45.8333,1030.8024 " fill="none" style="stroke:#181818;stroke-width:0.5208333333333334;"/><rect fill="#E3E3E3" height="31.5592" rx="2.6042" ry="2.6042" style="stroke:#181818;stroke-width:0.5208333333333334;" width="129.1667" x="371.875" y="52.0833"/><text fill="#000000" font-family="sans-serif" font-size="14.5833" lengthAdjust="spacing" textLength="114.5833" x="379.1667" y="72.9116">FHIR-VZD-Client</text><rect fill="#E3E3E3" height="31.5592" rx="2.6042" ry="2.6042" style="stroke:#181818;stroke-width:0.5208333333333334;" width="129.1667" x="371.875" y="952.889"/><text fill="#000000" font-family="sans-serif" font-size="14.5833" lengthAdjust="spacing" textLength="114.5833" x="379.1667" y="973.7172">FHIR-VZD-Client</text><rect fill="#E3E3E3" height="31.5592" rx="2.6042" ry="2.6042" style="stroke:#181818;stroke-width:0.5208333333333334;" width="90.625" x="958.8542" y="52.0833"/><text fill="#000000" font-family="sans-serif" font-size="14.5833" lengthAdjust="spacing" textLength="76.0417" x="966.1458" y="72.9116">FHIR-Proxy</text><rect fill="#E3E3E3" height="31.5592" rx="2.6042" ry="2.6042" style="stroke:#181818;stroke-width:0.5208333333333334;" width="90.625" x="958.8542" y="952.889"/><text fill="#000000" font-family="sans-serif" font-size="14.5833" lengthAdjust="spacing" textLength="76.0417" x="966.1458" y="973.7172">FHIR-Proxy</text><rect fill="#E3E3E3" height="31.5592" rx="2.6042" ry="2.6042" style="stroke:#181818;stroke-width:0.5208333333333334;" width="116.6667" x="1172.9167" y="52.0833"/><text fill="#000000" font-family="sans-serif" font-size="14.5833" lengthAdjust="spacing" textLength="102.0833" x="1180.2083" y="72.9116">FHIR-Directory</text><rect fill="#E3E3E3" height="31.5592" rx="2.6042" ry="2.6042" style="stroke:#181818;stroke-width:0.5208333333333334;" width="116.6667" x="1172.9167" y="952.889"/><text fill="#000000" font-family="sans-serif" font-size="14.5833" lengthAdjust="spacing" textLength="102.0833" x="1180.2083" y="973.7172">FHIR-Directory</text><rect fill="#E3E3E3" height="31.5592" rx="2.6042" ry="2.6042" style="stroke:#181818;stroke-width:0.5208333333333334;" width="190.625" x="1474.4792" y="52.0833"/><text fill="#000000" font-family="sans-serif" font-size="14.5833" lengthAdjust="spacing" textLength="176.0417" x="1481.7708" y="72.9116">FHIR-VZD-Administration</text><rect fill="#E3E3E3" height="31.5592" rx="2.6042" ry="2.6042" style="stroke:#181818;stroke-width:0.5208333333333334;" width="190.625" x="1474.4792" y="952.889"/><text fill="#000000" font-family="sans-serif" font-size="14.5833" lengthAdjust="spacing" textLength="176.0417" x="1481.7708" y="973.7172">FHIR-VZD-Administration</text><rect fill="#FFFFFF" height="818.0664" style="stroke:#181818;stroke-width:1.0416666666666667;" width="10.4167" x="431.25" y="117.1143"/><rect fill="#FFFFFF" height="221.5983" style="stroke:#181818;stroke-width:1.0416666666666667;" width="10.4167" x="998.9583" y="188.3626"/><rect fill="#FFFFFF" height="46.11" style="stroke:#181818;stroke-width:1.0416666666666667;" width="10.4167" x="1226.0417" y="287.736"/><rect fill="#FFFFFF" height="289.8763" style="stroke:#181818;stroke-width:1.0416666666666667;" width="10.4167" x="1564.5833" y="600.3743"/><polygon fill="#181818" points="418.75,112.9476,429.1667,117.1143,418.75,121.2809,422.9167,117.1143" style="stroke:#181818;stroke-width:1.0416666666666667;"/><line style="stroke:#181818;stroke-width:1.0416666666666667;" x1="32.2917" x2="425" y1="117.1143" y2="117.1143"/><text fill="#000000" font-family="sans-serif" font-size="13.5417" font-weight="bold" lengthAdjust="spacing" textLength="31.25" x="39.5833" y="111.8373">[01]</text><text fill="#000000" font-family="sans-serif" font-size="13.5417" lengthAdjust="spacing" textLength="285.4167" x="75" y="111.8373">Suche nach eigenen verlinkten Ressourcen</text><path d="M351.0417,132.7393 L707.2917,132.7393 L707.2917,140.1693 L696.875,150.5859 L351.0417,150.5859 L351.0417,132.7393 " fill="#EEEEEE" style="stroke:#000000;stroke-width:1.5625;"/><rect fill="none" height="292.8467" style="stroke:#000000;stroke-width:1.5625;" width="959.375" x="351.0417" y="132.7393"/><text fill="#000000" font-family="sans-serif" font-size="13.5417" font-weight="bold" lengthAdjust="spacing" textLength="309.375" x="366.6667" y="146.3506">Lese alle eigenen verlinkten Rassourcen</text><polygon fill="#181818" points="986.4583,184.196,996.875,188.3626,986.4583,192.5293,990.625,188.3626" style="stroke:#181818;stroke-width:1.0416666666666667;"/><line style="stroke:#181818;stroke-width:1.0416666666666667;" x1="441.6667" x2="992.7083" y1="188.3626" y2="188.3626"/><text fill="#000000" font-family="sans-serif" font-size="13.5417" font-weight="bold" lengthAdjust="spacing" textLength="31.25" x="448.9583" y="175.204">[02]</text><text fill="#000000" font-family="sans-serif" font-size="13.5417" lengthAdjust="spacing" textLength="497.9167" x="484.375" y="167.3223">GET /owner?... (Suche alle eigenen HealthcareService oder PractitionerRole</text><text fill="#000000" font-family="sans-serif" font-size="13.5417" lengthAdjust="spacing" textLength="257.2917" x="484.375" y="183.0856">mit telematikID aus dem accesstoken)</text><line style="stroke:#181818;stroke-width:1.0416666666666667;" x1="1009.375" x2="1053.125" y1="218.7093" y2="218.7093"/><line style="stroke:#181818;stroke-width:1.0416666666666667;" x1="1053.125" x2="1053.125" y1="218.7093" y2="232.251"/><line style="stroke:#181818;stroke-width:1.0416666666666667;" x1="1010.4167" x2="1053.125" y1="232.251" y2="232.251"/><polygon fill="#181818" points="1020.8333,228.0843,1010.4167,232.251,1020.8333,236.4176,1016.6667,232.251" style="stroke:#181818;stroke-width:1.0416666666666667;"/><text fill="#000000" font-family="sans-serif" font-size="13.5417" font-weight="bold" lengthAdjust="spacing" textLength="31.25" x="1016.6667" y="213.4323">[03]</text><text fill="#000000" font-family="sans-serif" font-size="13.5417" lengthAdjust="spacing" textLength="166.6667" x="1052.0833" y="213.4323">pr&#252;fe owner-accesstoken</text><path d="M361.4583,247.876 L428.125,247.876 L428.125,255.306 L417.7083,265.7227 L361.4583,265.7227 L361.4583,247.876 " fill="#EEEEEE" style="stroke:#000000;stroke-width:1.5625;"/><rect fill="none" height="170.4183" style="stroke:#000000;stroke-width:1.5625;" width="938.5417" x="361.4583" y="247.876"/><text fill="#000000" font-family="sans-serif" font-size="13.5417" font-weight="bold" lengthAdjust="spacing" textLength="19.7917" x="377.0833" y="261.4873">alt</text><text fill="#000000" font-family="sans-serif" font-size="11.4583" font-weight="bold" lengthAdjust="spacing" textLength="145.8333" x="443.75" y="260.5952">[accesstoken is valid]</text><polygon fill="#181818" points="1213.5417,283.5693,1223.9583,287.736,1213.5417,291.9027,1217.7083,287.736" style="stroke:#181818;stroke-width:1.0416666666666667;"/><line style="stroke:#181818;stroke-width:1.0416666666666667;" x1="1009.375" x2="1219.7917" y1="287.736" y2="287.736"/><text fill="#000000" font-family="sans-serif" font-size="13.5417" font-weight="bold" lengthAdjust="spacing" textLength="31.25" x="1016.6667" y="282.459">[04]</text><text fill="#000000" font-family="sans-serif" font-size="13.5417" lengthAdjust="spacing" textLength="54.1667" x="1052.0833" y="282.459">GET /?...</text><polygon fill="#181818" points="1020.8333,329.6794,1010.4167,333.846,1020.8333,338.0127,1016.6667,333.846" style="stroke:#181818;stroke-width:1.0416666666666667;"/><line style="stroke:#181818;stroke-width:1.0416666666666667;stroke-dasharray:2.0,2.0;" x1="1014.5833" x2="1230.2083" y1="333.846" y2="333.846"/><text fill="#000000" font-family="sans-serif" font-size="13.5417" font-weight="bold" lengthAdjust="spacing" textLength="31.25" x="1027.0833" y="320.6874">[05]</text><text fill="#000000" font-family="sans-serif" font-size="13.5417" lengthAdjust="spacing" textLength="85.4167" x="1062.5" y="312.8057">HTTP 200 OK</text><text fill="#000000" font-family="sans-serif" font-size="13.5417" lengthAdjust="spacing" textLength="119.7917" x="1062.5" y="328.569">(Result Body json)</text><polygon fill="#181818" points="453.125,360.026,442.7083,364.1927,453.125,368.3594,448.9583,364.1927" style="stroke:#181818;stroke-width:1.0416666666666667;"/><line style="stroke:#181818;stroke-width:1.0416666666666667;stroke-dasharray:2.0,2.0;" x1="446.875" x2="997.9167" y1="364.1927" y2="364.1927"/><text fill="#000000" font-family="sans-serif" font-size="13.5417" font-weight="bold" lengthAdjust="spacing" textLength="31.25" x="459.375" y="358.9157">[06]</text><text fill="#000000" font-family="sans-serif" font-size="13.5417" lengthAdjust="spacing" textLength="209.375" x="494.7917" y="358.9157">HTTP 200 OK (Result Body json)</text><line style="stroke:#000000;stroke-width:1.0416666666666667;stroke-dasharray:2.0,2.0;" x1="361.4583" x2="1300" y1="373.5677" y2="373.5677"/><text fill="#000000" font-family="sans-serif" font-size="11.4583" font-weight="bold" lengthAdjust="spacing" textLength="208.3333" x="366.6667" y="384.2036">[search-accesstoken is invalid]</text><polygon fill="#181818" points="453.125,405.7943,442.7083,409.9609,453.125,414.1276,448.9583,409.9609" style="stroke:#181818;stroke-width:1.0416666666666667;"/><line style="stroke:#181818;stroke-width:1.0416666666666667;stroke-dasharray:2.0,2.0;" x1="446.875" x2="1003.125" y1="409.9609" y2="409.9609"/><text fill="#000000" font-family="sans-serif" font-size="13.5417" font-weight="bold" lengthAdjust="spacing" textLength="31.25" x="459.375" y="404.6839">[07]</text><text fill="#000000" font-family="sans-serif" font-size="13.5417" lengthAdjust="spacing" textLength="62.5" x="494.7917" y="404.6839">HTTP 401</text><polygon fill="#181818" points="43.75,450.7243,33.3333,454.891,43.75,459.0576,39.5833,454.891" style="stroke:#181818;stroke-width:1.0416666666666667;"/><line style="stroke:#181818;stroke-width:1.0416666666666667;stroke-dasharray:2.0,2.0;" x1="37.5" x2="430.2083" y1="454.891" y2="454.891"/><text fill="#000000" font-family="sans-serif" font-size="13.5417" font-weight="bold" lengthAdjust="spacing" textLength="31.25" x="50" y="449.614">[08]</text><text fill="#000000" font-family="sans-serif" font-size="13.5417" lengthAdjust="spacing" textLength="258.3333" x="85.4167" y="449.614">Anzeige eigener, verlinkter Ressourcen</text><line style="stroke:#181818;stroke-width:1.0416666666666667;" x1="32.2917" x2="76.0417" y1="485.2376" y2="485.2376"/><line style="stroke:#181818;stroke-width:1.0416666666666667;" x1="76.0417" x2="76.0417" y1="485.2376" y2="498.7793"/><line style="stroke:#181818;stroke-width:1.0416666666666667;" x1="33.3333" x2="76.0417" y1="498.7793" y2="498.7793"/><polygon fill="#181818" points="43.75,494.6126,33.3333,498.7793,43.75,502.946,39.5833,498.7793" style="stroke:#181818;stroke-width:1.0416666666666667;"/><text fill="#000000" font-family="sans-serif" font-size="13.5417" font-weight="bold" lengthAdjust="spacing" textLength="31.25" x="39.5833" y="479.9606">[09]</text><text fill="#000000" font-family="sans-serif" font-size="13.5417" lengthAdjust="spacing" textLength="354.1667" x="75" y="479.9606">Auswahl der Verlinkungen, die gel&#246;scht werden sollen</text><polygon fill="#181818" points="418.75,540.7227,429.1667,544.8893,418.75,549.056,422.9167,544.8893" style="stroke:#181818;stroke-width:1.0416666666666667;"/><line style="stroke:#181818;stroke-width:1.0416666666666667;" x1="32.2917" x2="425" y1="544.8893" y2="544.8893"/><text fill="#000000" font-family="sans-serif" font-size="13.5417" font-weight="bold" lengthAdjust="spacing" textLength="31.25" x="39.5833" y="531.7307">[10]</text><text fill="#000000" font-family="sans-serif" font-size="13.5417" lengthAdjust="spacing" textLength="137.5" x="75" y="523.849">L&#246;sche Verlinkungen</text><text fill="#000000" font-family="sans-serif" font-size="13.5417" lengthAdjust="spacing" textLength="185.4167" x="75" y="539.6123">mit selektierten Ressourcen</text><path d="M351.0417,560.5143 L554.1667,560.5143 L554.1667,567.9443 L543.75,578.361 L351.0417,578.361 L351.0417,560.5143 " fill="#EEEEEE" style="stroke:#000000;stroke-width:1.5625;"/><rect fill="none" height="345.3613" style="stroke:#000000;stroke-width:1.5625;" width="1523.9583" x="351.0417" y="560.5143"/><text fill="#000000" font-family="sans-serif" font-size="13.5417" font-weight="bold" lengthAdjust="spacing" textLength="156.25" x="366.6667" y="574.1257">VerlinkungsRemoval</text><polygon fill="#181818" points="1552.0833,596.2077,1562.5,600.3743,1552.0833,604.541,1556.25,600.3743" style="stroke:#181818;stroke-width:1.0416666666666667;"/><line style="stroke:#181818;stroke-width:1.0416666666666667;" x1="441.6667" x2="1558.3333" y1="600.3743" y2="600.3743"/><text fill="#000000" font-family="sans-serif" font-size="13.5417" font-weight="bold" lengthAdjust="spacing" textLength="31.25" x="448.9583" y="595.0974">[11]</text><text fill="#000000" font-family="sans-serif" font-size="13.5417" lengthAdjust="spacing" textLength="211.4583" x="484.375" y="595.0974">deletePersonInstitutionLink {id}</text><line style="stroke:#181818;stroke-width:1.0416666666666667;" x1="1575" x2="1618.75" y1="630.721" y2="630.721"/><line style="stroke:#181818;stroke-width:1.0416666666666667;" x1="1618.75" x2="1618.75" y1="630.721" y2="644.2627"/><line style="stroke:#181818;stroke-width:1.0416666666666667;" x1="1576.0417" x2="1618.75" y1="644.2627" y2="644.2627"/><polygon fill="#181818" points="1586.4583,640.096,1576.0417,644.2627,1586.4583,648.4294,1582.2917,644.2627" style="stroke:#181818;stroke-width:1.0416666666666667;"/><text fill="#000000" font-family="sans-serif" font-size="13.5417" font-weight="bold" lengthAdjust="spacing" textLength="31.25" x="1582.2917" y="625.444">[12]</text><text fill="#000000" font-family="sans-serif" font-size="13.5417" lengthAdjust="spacing" textLength="166.6667" x="1617.7083" y="625.444">pr&#252;fe owner-accesstoken</text><path d="M361.4583,659.8877 L428.125,659.8877 L428.125,667.3177 L417.7083,677.7344 L361.4583,677.7344 L361.4583,659.8877 " fill="#EEEEEE" style="stroke:#000000;stroke-width:1.5625;"/><rect fill="none" height="238.6963" style="stroke:#000000;stroke-width:1.5625;" width="1503.125" x="361.4583" y="659.8877"/><text fill="#000000" font-family="sans-serif" font-size="13.5417" font-weight="bold" lengthAdjust="spacing" textLength="19.7917" x="377.0833" y="673.499">alt</text><text fill="#000000" font-family="sans-serif" font-size="11.4583" font-weight="bold" lengthAdjust="spacing" textLength="140.625" x="443.75" y="672.6069">[accesstoken is valid</text><text fill="#000000" font-family="sans-serif" font-size="11.4583" font-weight="bold" lengthAdjust="spacing" textLength="525" x="443.75" y="685.9451">&amp; Verlinkung geh&#246;rt zu eigener Ressource (telematikID aus dem accesstoken)]</text><line style="stroke:#181818;stroke-width:1.0416666666666667;" x1="1575" x2="1618.75" y1="710.7992" y2="710.7992"/><line style="stroke:#181818;stroke-width:1.0416666666666667;" x1="1618.75" x2="1618.75" y1="710.7992" y2="724.3408"/><line style="stroke:#181818;stroke-width:1.0416666666666667;" x1="1576.0417" x2="1618.75" y1="724.3408" y2="724.3408"/><polygon fill="#181818" points="1586.4583,720.1742,1576.0417,724.3408,1586.4583,728.5075,1582.2917,724.3408" style="stroke:#181818;stroke-width:1.0416666666666667;"/><text fill="#000000" font-family="sans-serif" font-size="13.5417" font-weight="bold" lengthAdjust="spacing" textLength="31.25" x="1582.2917" y="705.5222">[13]</text><text fill="#000000" font-family="sans-serif" font-size="13.5417" lengthAdjust="spacing" textLength="234.375" x="1617.7083" y="705.5222">Eintragen des Verlinkungsremovals</text><polygon fill="#181818" points="1242.7083,750.5208,1232.2917,754.6875,1242.7083,758.8542,1238.5417,754.6875" style="stroke:#181818;stroke-width:1.0416666666666667;"/><line style="stroke:#181818;stroke-width:1.0416666666666667;" x1="1236.4583" x2="1563.5417" y1="754.6875" y2="754.6875"/><text fill="#000000" font-family="sans-serif" font-size="13.5417" font-weight="bold" lengthAdjust="spacing" textLength="31.25" x="1248.9583" y="749.4105">[14]</text><text fill="#000000" font-family="sans-serif" font-size="13.5417" lengthAdjust="spacing" textLength="272.9167" x="1284.375" y="749.4105">L&#246;schen der Verlinkung in die FHIR Daten</text><polygon fill="#181818" points="1552.0833,780.8675,1562.5,785.0342,1552.0833,789.2008,1556.25,785.0342" style="stroke:#181818;stroke-width:1.0416666666666667;"/><line style="stroke:#181818;stroke-width:1.0416666666666667;stroke-dasharray:2.0,2.0;" x1="1231.25" x2="1558.3333" y1="785.0342" y2="785.0342"/><text fill="#000000" font-family="sans-serif" font-size="13.5417" font-weight="bold" lengthAdjust="spacing" textLength="31.25" x="1238.5417" y="779.7572">[15]</text><text fill="#000000" font-family="sans-serif" font-size="13.5417" lengthAdjust="spacing" textLength="85.4167" x="1273.9583" y="779.7572">HTTP 200 OK</text><polygon fill="#181818" points="453.125,826.9775,442.7083,831.1442,453.125,835.3109,448.9583,831.1442" style="stroke:#181818;stroke-width:1.0416666666666667;"/><line style="stroke:#181818;stroke-width:1.0416666666666667;stroke-dasharray:2.0,2.0;" x1="446.875" x2="1563.5417" y1="831.1442" y2="831.1442"/><text fill="#000000" font-family="sans-serif" font-size="13.5417" font-weight="bold" lengthAdjust="spacing" textLength="31.25" x="459.375" y="817.9855">[16]</text><text fill="#000000" font-family="sans-serif" font-size="13.5417" lengthAdjust="spacing" textLength="85.4167" x="494.7917" y="810.1039">HTTP 200 OK</text><text fill="#000000" font-family="sans-serif" font-size="13.5417" lengthAdjust="spacing" textLength="119.7917" x="494.7917" y="825.8672">(Result Body json)</text><line style="stroke:#000000;stroke-width:1.0416666666666667;stroke-dasharray:2.0,2.0;" x1="361.4583" x2="1864.5833" y1="840.5192" y2="840.5192"/><text fill="#000000" font-family="sans-serif" font-size="11.4583" font-weight="bold" lengthAdjust="spacing" textLength="200" x="366.6667" y="851.1551">[owner-accesstoken is invalid</text><text fill="#000000" font-family="sans-serif" font-size="11.4583" font-weight="bold" lengthAdjust="spacing" textLength="390.625" x="366.6667" y="864.4933">oder Verlinkung bezieht sich nicht auf eigene Ressourcen]</text><polygon fill="#181818" points="453.125,886.084,442.7083,890.2507,453.125,894.4173,448.9583,890.2507" style="stroke:#181818;stroke-width:1.0416666666666667;"/><line style="stroke:#181818;stroke-width:1.0416666666666667;stroke-dasharray:2.0,2.0;" x1="446.875" x2="1568.75" y1="890.2507" y2="890.2507"/><text fill="#000000" font-family="sans-serif" font-size="13.5417" font-weight="bold" lengthAdjust="spacing" textLength="31.25" x="459.375" y="884.9737">[17]</text><text fill="#000000" font-family="sans-serif" font-size="13.5417" lengthAdjust="spacing" textLength="62.5" x="494.7917" y="884.9737">HTTP 401</text><polygon fill="#181818" points="43.75,931.014,33.3333,935.1807,43.75,939.3473,39.5833,935.1807" style="stroke:#181818;stroke-width:1.0416666666666667;"/><line style="stroke:#181818;stroke-width:1.0416666666666667;" x1="37.5" x2="435.4167" y1="935.1807" y2="935.1807"/><text fill="#000000" font-family="sans-serif" font-size="13.5417" font-weight="bold" lengthAdjust="spacing" textLength="31.25" x="50" y="929.9037">[18]</text><text fill="#000000" font-family="sans-serif" font-size="13.5417" lengthAdjust="spacing" textLength="195.8333" x="85.4167" y="929.9037">Ergebnis Verlinkungsapproval</text><!--SRC=[dPJFRjD04CRl-nIZ846HcZP5Y4DK1HLIQ4K5KLAr4fJ3nZk9bzYxPl-aRH2lrHEtlXYpZcklqu0GEJdspBVVpFnsx4AgWXkUWoWa7FHwpDPlBWqlBgLmARnelS-rqabgT8xWZ4V6lTFAvrCqq3cS3hxqUbyxZ3rpqcK8dNSdf-FkK1fCd3Qtkp31xnxLIaW-3sAPL0imcEibpvun7eBWetShD8nESpAH1LSEaWouhSGkFW-xRpE9odNOLD_0ePKhx1-y6hIFEjmFxmVmv3AL3YUvNY03Y4LdHICwClhcjhCP89g0MlTH46zREnAvLD8wmvtKgiDG2I2RZAtBWkw0gkbFV98YA9waW7AE2XKiqOHkE7eSexNQcmHLQ8bSSeUKn1YR6-qBE4EBm3DgxxPSNkT2w1kTDolwyFxu7FRrjKBpUczl3tRM1beY9yWpboRSu0JDKYO8Mf3XaGaUGZ5enfhYhrGk7JZCCASQ5wT3uDw2m1nuaf1pHwrMp-dqslkie7_KxifBOUv_pKWzkEb6EOoYA2jpiH182mI75EN7MaPK9OLggY_DSNMiW6vrvidv-IY039y-NAaTQh2dOzveSGlVh2xTXf_0BI95AK93YqNWJngOqN0iSfEatOqofDei9DPzsJlOugAeL9K8934M9afPQvZwHseLfbUDqEms89W88eZOgnBXoDjhdcOG9donJlAAH7P1I8GvPlTtDaaTNACHf60raQBQ3CDP6OEj_8eEItGid4IpWND5S9DXn-lBty3A-sGgGuSZDDJMKsM9FX_uEmlBueSKFrjiyS0MVqZzFxR8zTF85DMVtjyP1ol_qDgc2DZv1_JB0TUcZgMYVH2w8z36nLURpxOpHDrQjJ4VGgYSJzWsCAJorGRfl0Lf9FkOuBzSWuZaHusCGBvIUiFU55SIYHehQR4f6G3YVbRrCEPWkx7jLu1lkG8DoCTcZbDQk75RUL6O4YeMwT02_Gq0]--></g></svg>