<svg xmlns="http://www.w3.org/2000/svg" xmlns:xlink="http://www.w3.org/1999/xlink" contentStyleType="text/css" height="658.3333px" preserveAspectRatio="none" style="width:1359px;height:658px;background:#FFFFFF;" version="1.1" viewBox="0 0 1359 658" width="1359.375px" zoomAndPan="magnify"><defs/><g><rect fill="#FFFFFF" height="404.7852" style="stroke:#181818;stroke-width:1.0416666666666667;" width="10.4167" x="351.5625" y="134.0902"/><rect fill="#FFFFFF" height="344.0918" style="stroke:#181818;stroke-width:1.0416666666666667;" width="10.4167" x="638.0208" y="164.4368"/><rect fill="#FFFFFF" height="74.235" style="stroke:#181818;stroke-width:1.0416666666666667;" width="10.4167" x="866.1458" y="194.7835"/><rect fill="#FFFFFF" height="134.9284" style="stroke:#181818;stroke-width:1.0416666666666667;" width="10.4167" x="1031.7708" y="343.2536"/><rect fill="#FFFFFF" height="30.3467" style="stroke:#181818;stroke-width:1.0416666666666667;" width="10.4167" x="1290.1042" y="417.4886"/><line style="stroke:#181818;stroke-width:0.5208333333333334;stroke-dasharray:5.0,5.0;" x1="45.8333" x2="45.8333" y1="101.6602" y2="557.6253"/><line style="stroke:#181818;stroke-width:0.5208333333333334;stroke-dasharray:5.0,5.0;" x1="356.7708" x2="356.7708" y1="101.6602" y2="557.6253"/><line style="stroke:#181818;stroke-width:0.5208333333333334;stroke-dasharray:5.0,5.0;" x1="643.2292" x2="643.2292" y1="101.6602" y2="557.6253"/><line style="stroke:#181818;stroke-width:0.5208333333333334;stroke-dasharray:5.0,5.0;" x1="870.8333" x2="870.8333" y1="101.6602" y2="557.6253"/><line style="stroke:#181818;stroke-width:0.5208333333333334;stroke-dasharray:5.0,5.0;" x1="1036.4583" x2="1036.4583" y1="101.6602" y2="557.6253"/><line style="stroke:#181818;stroke-width:0.5208333333333334;stroke-dasharray:5.0,5.0;" x1="1295.3125" x2="1295.3125" y1="101.6602" y2="557.6253"/><text fill="#000000" font-family="sans-serif" font-size="14.5833" lengthAdjust="spacing" textLength="76.0417" x="5.2083" y="81.2449">Org-Admin</text><text fill="#000000" font-family="sans-serif" font-size="14.5833" lengthAdjust="spacing" textLength="54.1667" x="16.1458" y="98.2208">oder LE</text><ellipse cx="46.3542" cy="14.0625" fill="#E3E3E3" rx="8.3333" ry="8.3333" style="stroke:#181818;stroke-width:0.5208333333333334;"/><path d="M46.3542,22.3958 L46.3542,50.5208 M32.8125,30.7292 L59.8958,30.7292 M46.3542,50.5208 L32.8125,66.1458 M46.3542,50.5208 L59.8958,66.1458 " fill="none" style="stroke:#181818;stroke-width:0.5208333333333334;"/><text fill="#000000" font-family="sans-serif" font-size="14.5833" lengthAdjust="spacing" textLength="76.0417" x="5.2083" y="570.1202">Org-Admin</text><text fill="#000000" font-family="sans-serif" font-size="14.5833" lengthAdjust="spacing" textLength="54.1667" x="16.1458" y="587.0962">oder LE</text><ellipse cx="46.3542" cy="599.3896" fill="#E3E3E3" rx="8.3333" ry="8.3333" style="stroke:#181818;stroke-width:0.5208333333333334;"/><path d="M46.3542,607.723 L46.3542,635.848 M32.8125,616.0563 L59.8958,616.0563 M46.3542,635.848 L32.8125,651.473 M46.3542,635.848 L59.8958,651.473 " fill="none" style="stroke:#181818;stroke-width:0.5208333333333334;"/><rect fill="#E3E3E3" height="48.5352" rx="2.6042" ry="2.6042" style="stroke:#181818;stroke-width:0.5208333333333334;" width="112.5" x="300.5208" y="52.0833"/><text fill="#000000" font-family="sans-serif" font-size="14.5833" lengthAdjust="spacing" textLength="59.375" x="327.0833" y="72.9116">Browser</text><text fill="#000000" font-family="sans-serif" font-size="14.5833" lengthAdjust="spacing" textLength="97.9167" x="307.8125" y="89.8875">SSP Frontend</text><rect fill="#E3E3E3" height="48.5352" rx="2.6042" ry="2.6042" style="stroke:#181818;stroke-width:0.5208333333333334;" width="112.5" x="300.5208" y="556.5837"/><text fill="#000000" font-family="sans-serif" font-size="14.5833" lengthAdjust="spacing" textLength="59.375" x="327.0833" y="577.4119">Browser</text><text fill="#000000" font-family="sans-serif" font-size="14.5833" lengthAdjust="spacing" textLength="97.9167" x="307.8125" y="594.3878">SSP Frontend</text><rect fill="#E3E3E3" height="31.5592" rx="2.6042" ry="2.6042" style="stroke:#181818;stroke-width:0.5208333333333334;" width="110.4167" x="588.0208" y="69.0592"/><text fill="#000000" font-family="sans-serif" font-size="14.5833" lengthAdjust="spacing" textLength="95.8333" x="595.3125" y="89.8875">SSP Backend</text><rect fill="#E3E3E3" height="31.5592" rx="2.6042" ry="2.6042" style="stroke:#181818;stroke-width:0.5208333333333334;" width="110.4167" x="588.0208" y="556.5837"/><text fill="#000000" font-family="sans-serif" font-size="14.5833" lengthAdjust="spacing" textLength="95.8333" x="595.3125" y="577.4119">SSP Backend</text><rect fill="#E3E3E3" height="31.5592" rx="2.6042" ry="2.6042" style="stroke:#181818;stroke-width:0.5208333333333334;" width="105.2083" x="818.75" y="69.0592"/><text fill="#000000" font-family="sans-serif" font-size="14.5833" lengthAdjust="spacing" textLength="90.625" x="826.0417" y="89.8875">Auth-Service</text><rect fill="#E3E3E3" height="31.5592" rx="2.6042" ry="2.6042" style="stroke:#181818;stroke-width:0.5208333333333334;" width="105.2083" x="818.75" y="556.5837"/><text fill="#000000" font-family="sans-serif" font-size="14.5833" lengthAdjust="spacing" textLength="90.625" x="826.0417" y="577.4119">Auth-Service</text><rect fill="#E3E3E3" height="31.5592" rx="2.6042" ry="2.6042" style="stroke:#181818;stroke-width:0.5208333333333334;" width="90.625" x="991.6667" y="69.0592"/><text fill="#000000" font-family="sans-serif" font-size="14.5833" lengthAdjust="spacing" textLength="76.0417" x="998.9583" y="89.8875">FHIR-Proxy</text><rect fill="#E3E3E3" height="31.5592" rx="2.6042" ry="2.6042" style="stroke:#181818;stroke-width:0.5208333333333334;" width="90.625" x="991.6667" y="556.5837"/><text fill="#000000" font-family="sans-serif" font-size="14.5833" lengthAdjust="spacing" textLength="76.0417" x="998.9583" y="577.4119">FHIR-Proxy</text><rect fill="#E3E3E3" height="31.5592" rx="2.6042" ry="2.6042" style="stroke:#181818;stroke-width:0.5208333333333334;" width="116.6667" x="1236.9792" y="69.0592"/><text fill="#000000" font-family="sans-serif" font-size="14.5833" lengthAdjust="spacing" textLength="102.0833" x="1244.2708" y="89.8875">FHIR-Directory</text><rect fill="#E3E3E3" height="31.5592" rx="2.6042" ry="2.6042" style="stroke:#181818;stroke-width:0.5208333333333334;" width="116.6667" x="1236.9792" y="556.5837"/><text fill="#000000" font-family="sans-serif" font-size="14.5833" lengthAdjust="spacing" textLength="102.0833" x="1244.2708" y="577.4119">FHIR-Directory</text><rect fill="#FFFFFF" height="404.7852" style="stroke:#181818;stroke-width:1.0416666666666667;" width="10.4167" x="351.5625" y="134.0902"/><rect fill="#FFFFFF" height="344.0918" style="stroke:#181818;stroke-width:1.0416666666666667;" width="10.4167" x="638.0208" y="164.4368"/><rect fill="#FFFFFF" height="74.235" style="stroke:#181818;stroke-width:1.0416666666666667;" width="10.4167" x="866.1458" y="194.7835"/><rect fill="#FFFFFF" height="134.9284" style="stroke:#181818;stroke-width:1.0416666666666667;" width="10.4167" x="1031.7708" y="343.2536"/><rect fill="#FFFFFF" height="30.3467" style="stroke:#181818;stroke-width:1.0416666666666667;" width="10.4167" x="1290.1042" y="417.4886"/><polygon fill="#181818" points="339.0625,129.9235,349.4792,134.0902,339.0625,138.2568,343.2292,134.0902" style="stroke:#181818;stroke-width:1.0416666666666667;"/><line style="stroke:#181818;stroke-width:1.0416666666666667;" x1="46.3542" x2="345.3125" y1="134.0902" y2="134.0902"/><text fill="#000000" font-family="sans-serif" font-size="13.5417" lengthAdjust="spacing" textLength="193.75" x="53.6458" y="128.8132">[1] VZD-Eintrag aktualisieren</text><polygon fill="#181818" points="625.5208,160.2702,635.9375,164.4368,625.5208,168.6035,629.6875,164.4368" style="stroke:#181818;stroke-width:1.0416666666666667;"/><line style="stroke:#181818;stroke-width:1.0416666666666667;" x1="361.9792" x2="631.7708" y1="164.4368" y2="164.4368"/><text fill="#000000" font-family="sans-serif" font-size="13.5417" lengthAdjust="spacing" textLength="256.25" x="369.2708" y="159.1599">[2] Aktualisierter VZD-Eintrag &amp; Token</text><polygon fill="#181818" points="853.6458,190.6169,864.0625,194.7835,853.6458,198.9502,857.8125,194.7835" style="stroke:#181818;stroke-width:1.0416666666666667;"/><line style="stroke:#181818;stroke-width:1.0416666666666667;" x1="648.4375" x2="859.8958" y1="194.7835" y2="194.7835"/><text fill="#000000" font-family="sans-serif" font-size="13.5417" lengthAdjust="spacing" textLength="132.2917" x="655.7292" y="189.5065">[3] Token Validieren</text><line style="stroke:#181818;stroke-width:1.0416666666666667;" x1="876.5625" x2="920.3125" y1="225.1302" y2="225.1302"/><line style="stroke:#181818;stroke-width:1.0416666666666667;" x1="920.3125" x2="920.3125" y1="225.1302" y2="238.6719"/><line style="stroke:#181818;stroke-width:1.0416666666666667;" x1="877.6042" x2="920.3125" y1="238.6719" y2="238.6719"/><polygon fill="#181818" points="888.0208,234.5052,877.6042,238.6719,888.0208,242.8385,883.8542,238.6719" style="stroke:#181818;stroke-width:1.0416666666666667;"/><text fill="#000000" font-family="sans-serif" font-size="13.5417" lengthAdjust="spacing" textLength="130.2083" x="883.8542" y="219.8532">[4] Token validieren</text><polygon fill="#181818" points="659.8958,264.8519,649.4792,269.0186,659.8958,273.1852,655.7292,269.0186" style="stroke:#181818;stroke-width:1.0416666666666667;"/><line style="stroke:#181818;stroke-width:1.0416666666666667;" x1="653.6458" x2="870.3125" y1="269.0186" y2="269.0186"/><text fill="#000000" font-family="sans-serif" font-size="13.5417" lengthAdjust="spacing" textLength="161.4583" x="666.1458" y="263.7416">[5] Validierungsergebnis</text><line style="stroke:#181818;stroke-width:1.0416666666666667;" x1="648.4375" x2="692.1875" y1="299.3652" y2="299.3652"/><line style="stroke:#181818;stroke-width:1.0416666666666667;" x1="692.1875" x2="692.1875" y1="299.3652" y2="312.9069"/><line style="stroke:#181818;stroke-width:1.0416666666666667;" x1="649.4792" x2="692.1875" y1="312.9069" y2="312.9069"/><polygon fill="#181818" points="659.8958,308.7402,649.4792,312.9069,659.8958,317.0736,655.7292,312.9069" style="stroke:#181818;stroke-width:1.0416666666666667;"/><text fill="#000000" font-family="sans-serif" font-size="13.5417" lengthAdjust="spacing" textLength="192.7083" x="655.7292" y="294.0882">[6] Berechtigungen ermitteln</text><polygon fill="#181818" points="1019.2708,339.0869,1029.6875,343.2536,1019.2708,347.4202,1023.4375,343.2536" style="stroke:#181818;stroke-width:1.0416666666666667;"/><line style="stroke:#181818;stroke-width:1.0416666666666667;" x1="648.4375" x2="1025.5208" y1="343.2536" y2="343.2536"/><text fill="#000000" font-family="sans-serif" font-size="13.5417" lengthAdjust="spacing" textLength="348.9583" x="655.7292" y="337.9766">[7] Aktualisierter VZD-Eintrag &amp; SSP Backend Token</text><line style="stroke:#181818;stroke-width:1.0416666666666667;" x1="1042.1875" x2="1085.9375" y1="373.6003" y2="373.6003"/><line style="stroke:#181818;stroke-width:1.0416666666666667;" x1="1085.9375" x2="1085.9375" y1="373.6003" y2="387.1419"/><line style="stroke:#181818;stroke-width:1.0416666666666667;" x1="1043.2292" x2="1085.9375" y1="387.1419" y2="387.1419"/><polygon fill="#181818" points="1053.6458,382.9753,1043.2292,387.1419,1053.6458,391.3086,1049.4792,387.1419" style="stroke:#181818;stroke-width:1.0416666666666667;"/><text fill="#000000" font-family="sans-serif" font-size="13.5417" lengthAdjust="spacing" textLength="216.6667" x="1049.4792" y="368.3233">[8] Validiere SSP Backend Token</text><polygon fill="#181818" points="1277.6042,413.3219,1288.0208,417.4886,1277.6042,421.6553,1281.7708,417.4886" style="stroke:#181818;stroke-width:1.0416666666666667;"/><line style="stroke:#181818;stroke-width:1.0416666666666667;" x1="1042.1875" x2="1283.8542" y1="417.4886" y2="417.4886"/><text fill="#000000" font-family="sans-serif" font-size="13.5417" lengthAdjust="spacing" textLength="196.875" x="1049.4792" y="412.2116">[9] Aktualisierter VZD-Eintrag</text><polygon fill="#181818" points="1053.6458,443.6686,1043.2292,447.8353,1053.6458,452.002,1049.4792,447.8353" style="stroke:#181818;stroke-width:1.0416666666666667;"/><line style="stroke:#181818;stroke-width:1.0416666666666667;" x1="1047.3958" x2="1294.2708" y1="447.8353" y2="447.8353"/><text fill="#000000" font-family="sans-serif" font-size="13.5417" lengthAdjust="spacing" textLength="222.9167" x="1059.8958" y="442.5583">[10] Ergebnis der Daten&#228;nderung</text><polygon fill="#181818" points="659.8958,474.0153,649.4792,478.182,659.8958,482.3486,655.7292,478.182" style="stroke:#181818;stroke-width:1.0416666666666667;"/><line style="stroke:#181818;stroke-width:1.0416666666666667;" x1="653.6458" x2="1035.9375" y1="478.182" y2="478.182"/><text fill="#000000" font-family="sans-serif" font-size="13.5417" lengthAdjust="spacing" textLength="222.9167" x="666.1458" y="472.905">[10] Ergebnis der Daten&#228;nderung</text><polygon fill="#181818" points="373.4375,504.362,363.0208,508.5286,373.4375,512.6953,369.2708,508.5286" style="stroke:#181818;stroke-width:1.0416666666666667;"/><line style="stroke:#181818;stroke-width:1.0416666666666667;" x1="367.1875" x2="642.1875" y1="508.5286" y2="508.5286"/><text fill="#000000" font-family="sans-serif" font-size="13.5417" lengthAdjust="spacing" textLength="222.9167" x="379.6875" y="503.2516">[10] Ergebnis der Daten&#228;nderung</text><polygon fill="#181818" points="57.8125,534.7087,47.3958,538.8753,57.8125,543.042,53.6458,538.8753" style="stroke:#181818;stroke-width:1.0416666666666667;"/><line style="stroke:#181818;stroke-width:1.0416666666666667;" x1="51.5625" x2="355.7292" y1="538.8753" y2="538.8753"/><text fill="#000000" font-family="sans-serif" font-size="13.5417" lengthAdjust="spacing" textLength="280.2083" x="64.0625" y="533.5983">[11] Anzeige Ergebnis der Daten&#228;nderung</text><!--SRC=[bPBRJi9048RlzoaclT0Rcm2UlJ210D74H2D64xKNItSe4-XktUxYuNby4r_CQIbGq7YutVd-V_QVcNn2EfDMfg0oWcQZ8VBbovsLsHqfDuRMsdjgj8d7rgG8pdeKOjkHco84_RFpwx1B5cDdxEiE3F39etvJ99D2DnXSGLSwr1_lMg7rEWc4B50m87C8BcqIjbLA-b4RhiD5Bn3SqL5CcTGEucc9TQnvpj4-wiAlRurcHxLE3h4a2w0ZuycNklHblUtTE1oWdL6Cwy0eAu4oq9KrBwyRPRKgB_C6GWW3uId_ymGUcX7StdV37cbdPG9ouhoSKaveKHUfQSQJO5HmAjOCaJMj2Dehpl48wXPRS6CcTV6GHyz9MIqzgtUZEG2tRA0s6aalEFG2tLkWinhgb__OZvOUl2IUTO93JRbGMFUhUfUAWmWwx1AF7IKiOMUqAJc7KrrXeuonmry2rXQs6NQK2LxAmkXezKFyHbMHYidZdrhMx9KGlDM5VxCHGQ-A3SKjhjzjVHAidBSh1_4VOLQDPdulVnSMUvzVZIc4V6bj_OQKu5yD-Ee-0G00]--></g></svg>