<svg xmlns="http://www.w3.org/2000/svg" xmlns:xlink="http://www.w3.org/1999/xlink" contentStyleType="text/css" data-diagram-type="SEQUENCE" height="897.9167px" preserveAspectRatio="none" style="width:1491px;height:897px;background:#FFFFFF;" version="1.1" viewBox="0 0 1491 897" width="1491.6667px" zoomAndPan="magnify"><defs/><g><g><title>Browser</title><rect fill="#FFFFFF" height="666.3086" style="stroke:#181818;stroke-width:1.0417;" width="10.4167" x="326.5172" y="112.0768"/></g><g><title>Authenticator App</title><rect fill="#FFFFFF" height="195.6217" style="stroke:#181818;stroke-width:1.0417;" width="10.4167" x="649.1786" y="343.2536"/></g><g><title>Auth-Service</title><rect fill="#FFFFFF" height="74.235" style="stroke:#181818;stroke-width:1.0417;" width="10.4167" x="787.2884" y="238.6719"/></g><g><title>Auth-Service</title><rect fill="#FFFFFF" height="134.9284" style="stroke:#181818;stroke-width:1.0417;" width="10.4167" x="787.2884" y="569.222"/></g><g><title>Identity Provider</title><rect fill="#FFFFFF" height="30.3467" style="stroke:#181818;stroke-width:1.0417;" width="10.4167" x="1280.8736" y="373.6003"/></g><g><title>Identity Provider</title><rect fill="#FFFFFF" height="30.3467" style="stroke:#181818;stroke-width:1.0417;" width="10.4167" x="1280.8736" y="478.182"/></g><g><title>Identity Provider</title><rect fill="#FFFFFF" height="30.3467" style="stroke:#181818;stroke-width:1.0417;" width="10.4167" x="1280.8736" y="599.5687"/></g><g><title>Org-Admin</title><rect fill="#000000" fill-opacity="0.00000" height="695.4753" width="8.3333" x="43.5303" y="101.6602"/><line style="stroke:#181818;stroke-width:0.5208;stroke-dasharray:5.0,5.0;" x1="46.875" x2="46.875" y1="101.6602" y2="797.1354"/></g><g><title>Browser</title><rect fill="#000000" fill-opacity="0.00000" height="695.4753" width="8.3333" x="327.5589" y="101.6602"/><line style="stroke:#181818;stroke-width:0.5208;stroke-dasharray:5.0,5.0;" x1="330.8009" x2="330.8009" y1="101.6602" y2="797.1354"/></g><g><title>Authenticator App</title><rect fill="#000000" fill-opacity="0.00000" height="695.4753" width="8.3333" x="650.2202" y="101.6602"/><line style="stroke:#181818;stroke-width:0.5208;stroke-dasharray:5.0,5.0;" x1="653.5716" x2="653.5716" y1="101.6602" y2="797.1354"/></g><g><title>Auth-Service</title><rect fill="#000000" fill-opacity="0.00000" height="695.4753" width="8.3333" x="788.3301" y="101.6602"/><line style="stroke:#181818;stroke-width:0.5208;stroke-dasharray:5.0,5.0;" x1="791.6606" x2="791.6606" y1="101.6602" y2="797.1354"/></g><g><title>FHIR-Proxy</title><rect fill="#000000" fill-opacity="0.00000" height="695.4753" width="8.3333" x="1156.3309" y="101.6602"/><line style="stroke:#181818;stroke-width:0.5208;stroke-dasharray:5.0,5.0;" x1="1160.0693" x2="1160.0693" y1="101.6602" y2="797.1354"/></g><g><title>Identity Provider</title><rect fill="#000000" fill-opacity="0.00000" height="695.4753" width="8.3333" x="1281.9153" y="101.6602"/><line style="stroke:#181818;stroke-width:0.5208;stroke-dasharray:5.0,5.0;" x1="1285.9258" x2="1285.9258" y1="101.6602" y2="797.1354"/></g><g><title>FHIR-Directory</title><rect fill="#000000" fill-opacity="0.00000" height="695.4753" width="8.3333" x="1420.7799" y="101.6602"/><line style="stroke:#181818;stroke-width:0.5208;stroke-dasharray:5.0,5.0;" x1="1424.7798" x2="1424.7798" y1="101.6602" y2="797.1354"/></g><g class="participant participant-head" data-participant="o"><text fill="#000000" font-family="sans-serif" font-size="14.5833" lengthAdjust="spacing" textLength="78.7272" x="5.2083" y="81.2449">Org-Admin</text><text fill="#000000" font-family="sans-serif" font-size="14.5833" lengthAdjust="spacing" textLength="55.1219" x="17.011" y="98.2208">oder LE</text><ellipse cx="47.6969" cy="14.0625" fill="#E3E3E3" rx="8.3333" ry="8.3333" style="stroke:#181818;stroke-width:0.5208;"/><path d="M47.6969,22.3958 L47.6969,50.5208 M34.1553,30.7292 L61.2386,30.7292 M47.6969,50.5208 L34.1553,66.1458 M47.6969,50.5208 L61.2386,66.1458" fill="none" style="stroke:#181818;stroke-width:0.5208;"/></g><g class="participant participant-tail" data-participant="o"><text fill="#000000" font-family="sans-serif" font-size="14.5833" lengthAdjust="spacing" textLength="78.7272" x="5.2083" y="809.6303">Org-Admin</text><text fill="#000000" font-family="sans-serif" font-size="14.5833" lengthAdjust="spacing" textLength="55.1219" x="17.011" y="826.6062">oder LE</text><ellipse cx="47.6969" cy="838.8997" fill="#E3E3E3" rx="8.3333" ry="8.3333" style="stroke:#181818;stroke-width:0.5208;"/><path d="M47.6969,847.2331 L47.6969,875.3581 M34.1553,855.5664 L61.2386,855.5664 M47.6969,875.3581 L34.1553,890.9831 M47.6969,875.3581 L61.2386,890.9831" fill="none" style="stroke:#181818;stroke-width:0.5208;"/></g><g class="participant participant-head" data-participant="cl"><rect fill="#E3E3E3" height="48.5352" rx="2.6042" ry="2.6042" style="stroke:#181818;stroke-width:0.5208;" width="112.266" x="275.5925" y="52.0833"/><text fill="#000000" font-family="sans-serif" font-size="14.5833" lengthAdjust="spacing" textLength="59.4157" x="302.0177" y="72.9116">Browser</text><text fill="#000000" font-family="sans-serif" font-size="14.5833" lengthAdjust="spacing" textLength="97.6827" x="282.8842" y="89.8875">SSP Frontend</text></g><g class="participant participant-tail" data-participant="cl"><rect fill="#E3E3E3" height="48.5352" rx="2.6042" ry="2.6042" style="stroke:#181818;stroke-width:0.5208;" width="112.266" x="275.5925" y="796.0938"/><text fill="#000000" font-family="sans-serif" font-size="14.5833" lengthAdjust="spacing" textLength="59.4157" x="302.0177" y="816.922">Browser</text><text fill="#000000" font-family="sans-serif" font-size="14.5833" lengthAdjust="spacing" textLength="97.6827" x="282.8842" y="833.8979">SSP Frontend</text></g><g class="participant participant-head" data-participant="aa"><rect fill="#E3E3E3" height="48.5352" rx="2.6042" ry="2.6042" style="stroke:#181818;stroke-width:0.5208;" width="147.464" x="580.6549" y="52.0833"/><text fill="#000000" font-family="sans-serif" font-size="14.5833" lengthAdjust="spacing" textLength="132.8807" x="587.9466" y="72.9116">Authenticator App</text><text fill="#000000" font-family="sans-serif" font-size="14.5833" lengthAdjust="spacing" textLength="54.7872" x="626.9933" y="89.8875">des IDP</text></g><g class="participant participant-tail" data-participant="aa"><rect fill="#E3E3E3" height="48.5352" rx="2.6042" ry="2.6042" style="stroke:#181818;stroke-width:0.5208;" width="147.464" x="580.6549" y="796.0938"/><text fill="#000000" font-family="sans-serif" font-size="14.5833" lengthAdjust="spacing" textLength="132.8807" x="587.9466" y="816.922">Authenticator App</text><text fill="#000000" font-family="sans-serif" font-size="14.5833" lengthAdjust="spacing" textLength="54.7872" x="626.9933" y="833.8979">des IDP</text></g><g class="participant participant-head" data-participant="au"><rect fill="#E3E3E3" height="31.5592" rx="2.6042" ry="2.6042" style="stroke:#181818;stroke-width:0.5208;" width="107.9224" x="738.5356" y="69.0592"/><text fill="#000000" font-family="sans-serif" font-size="14.5833" lengthAdjust="spacing" textLength="93.339" x="745.8272" y="89.8875">Auth-Service</text></g><g class="participant participant-tail" data-participant="au"><rect fill="#E3E3E3" height="31.5592" rx="2.6042" ry="2.6042" style="stroke:#181818;stroke-width:0.5208;" width="107.9224" x="738.5356" y="796.0938"/><text fill="#000000" font-family="sans-serif" font-size="14.5833" lengthAdjust="spacing" textLength="93.339" x="745.8272" y="816.922">Auth-Service</text></g><g class="participant participant-head" data-participant="fp"><rect fill="#E3E3E3" height="31.5592" rx="2.6042" ry="2.6042" style="stroke:#181818;stroke-width:0.5208;" width="94.6065" x="1113.1943" y="69.0592"/><text fill="#000000" font-family="sans-serif" font-size="14.5833" lengthAdjust="spacing" textLength="80.0232" x="1120.4859" y="89.8875">FHIR-Proxy</text></g><g class="participant participant-tail" data-participant="fp"><rect fill="#E3E3E3" height="31.5592" rx="2.6042" ry="2.6042" style="stroke:#181818;stroke-width:0.5208;" width="94.6065" x="1113.1943" y="796.0938"/><text fill="#000000" font-family="sans-serif" font-size="14.5833" lengthAdjust="spacing" textLength="80.0232" x="1120.4859" y="816.922">FHIR-Proxy</text></g><g class="participant participant-head" data-participant="idp"><rect fill="#E3E3E3" height="31.5592" rx="2.6042" ry="2.6042" style="stroke:#181818;stroke-width:0.5208;" width="135.729" x="1218.2175" y="69.0592"/><text fill="#000000" font-family="sans-serif" font-size="14.5833" lengthAdjust="spacing" textLength="121.1456" x="1225.5091" y="89.8875">Identity Provider</text></g><g class="participant participant-tail" data-participant="idp"><rect fill="#E3E3E3" height="31.5592" rx="2.6042" ry="2.6042" style="stroke:#181818;stroke-width:0.5208;" width="135.729" x="1218.2175" y="796.0938"/><text fill="#000000" font-family="sans-serif" font-size="14.5833" lengthAdjust="spacing" textLength="121.1456" x="1225.5091" y="816.922">Identity Provider</text></g><g class="participant participant-head" data-participant="fd"><rect fill="#E3E3E3" height="31.5592" rx="2.6042" ry="2.6042" style="stroke:#181818;stroke-width:0.5208;" width="121.167" x="1364.3631" y="69.0592"/><text fill="#000000" font-family="sans-serif" font-size="14.5833" lengthAdjust="spacing" textLength="106.5837" x="1371.6548" y="89.8875">FHIR-Directory</text></g><g class="participant participant-tail" data-participant="fd"><rect fill="#E3E3E3" height="31.5592" rx="2.6042" ry="2.6042" style="stroke:#181818;stroke-width:0.5208;" width="121.167" x="1364.3631" y="796.0938"/><text fill="#000000" font-family="sans-serif" font-size="14.5833" lengthAdjust="spacing" textLength="106.5837" x="1371.6548" y="816.922">FHIR-Directory</text></g><g><title>Browser</title><rect fill="#FFFFFF" height="666.3086" style="stroke:#181818;stroke-width:1.0417;" width="10.4167" x="326.5172" y="112.0768"/></g><g><title>Authenticator App</title><rect fill="#FFFFFF" height="195.6217" style="stroke:#181818;stroke-width:1.0417;" width="10.4167" x="649.1786" y="343.2536"/></g><g><title>Auth-Service</title><rect fill="#FFFFFF" height="74.235" style="stroke:#181818;stroke-width:1.0417;" width="10.4167" x="787.2884" y="238.6719"/></g><g><title>Auth-Service</title><rect fill="#FFFFFF" height="134.9284" style="stroke:#181818;stroke-width:1.0417;" width="10.4167" x="787.2884" y="569.222"/></g><g><title>Identity Provider</title><rect fill="#FFFFFF" height="30.3467" style="stroke:#181818;stroke-width:1.0417;" width="10.4167" x="1280.8736" y="373.6003"/></g><g><title>Identity Provider</title><rect fill="#FFFFFF" height="30.3467" style="stroke:#181818;stroke-width:1.0417;" width="10.4167" x="1280.8736" y="478.182"/></g><g><title>Identity Provider</title><rect fill="#FFFFFF" height="30.3467" style="stroke:#181818;stroke-width:1.0417;" width="10.4167" x="1280.8736" y="599.5687"/></g><g class="message" data-participant-1="o" data-participant-2="cl"><polygon fill="#181818" points="314.0172,129.9235,324.4339,134.0902,314.0172,138.2568,318.1839,134.0902" style="stroke:#181818;stroke-width:1.0417;"/><line style="stroke:#181818;stroke-width:1.0417;" x1="47.6969" x2="320.2672" y1="134.0902" y2="134.0902"/><text fill="#000000" font-family="sans-serif" font-size="13.5417" lengthAdjust="spacing" textLength="128.8376" x="54.9886" y="128.8132">[1] SSP UI aufrufen</text></g><g class="message" data-participant-1="cl" data-participant-2="cl"><line style="stroke:#181818;stroke-width:1.0417;" x1="336.9339" x2="380.6839" y1="164.4368" y2="164.4368"/><line style="stroke:#181818;stroke-width:1.0417;" x1="380.6839" x2="380.6839" y1="164.4368" y2="177.9785"/><line style="stroke:#181818;stroke-width:1.0417;" x1="337.9756" x2="380.6839" y1="177.9785" y2="177.9785"/><polygon fill="#181818" points="348.3922,173.8118,337.9756,177.9785,348.3922,182.1452,344.2256,177.9785" style="stroke:#181818;stroke-width:1.0417;"/><text fill="#000000" font-family="sans-serif" font-size="13.5417" lengthAdjust="spacing" textLength="203.7598" x="344.2256" y="159.1599">[2] Darstellung Login Auswahl</text></g><g class="message" data-participant-1="o" data-participant-2="cl"><polygon fill="#181818" points="314.0172,204.1585,324.4339,208.3252,314.0172,212.4919,318.1839,208.3252" style="stroke:#181818;stroke-width:1.0417;"/><line style="stroke:#181818;stroke-width:1.0417;" x1="47.6969" x2="320.2672" y1="208.3252" y2="208.3252"/><text fill="#000000" font-family="sans-serif" font-size="13.5417" lengthAdjust="spacing" textLength="253.8203" x="54.9886" y="203.0482">[3] Login mit HBA / SMC-B ausw&#228;hlen</text></g><g class="message" data-participant-1="cl" data-participant-2="au"><polygon fill="#181818" points="774.7884,234.5052,785.2051,238.6719,774.7884,242.8385,778.9551,238.6719" style="stroke:#181818;stroke-width:1.0417;"/><line style="stroke:#181818;stroke-width:1.0417;" x1="336.9339" x2="781.0384" y1="238.6719" y2="238.6719"/><text fill="#000000" font-family="sans-serif" font-size="13.5417" lengthAdjust="spacing" textLength="192.5456" x="344.2256" y="233.3949">[4] GET /owner-authenticate</text></g><g class="message" data-participant-1="au" data-participant-2="au"><line style="stroke:#181818;stroke-width:1.0417;" x1="797.7051" x2="841.4551" y1="269.0186" y2="269.0186"/><line style="stroke:#181818;stroke-width:1.0417;" x1="841.4551" x2="841.4551" y1="269.0186" y2="282.5602"/><line style="stroke:#181818;stroke-width:1.0417;" x1="798.7467" x2="841.4551" y1="282.5602" y2="282.5602"/><polygon fill="#181818" points="809.1634,278.3936,798.7467,282.5602,809.1634,286.7269,804.9967,282.5602" style="stroke:#181818;stroke-width:1.0417;"/><text fill="#000000" font-family="sans-serif" font-size="13.5417" lengthAdjust="spacing" textLength="332.5841" x="804.9967" y="263.7416">[5] Erzeuge PKCE Code f&#252;r verifier und challenge</text></g><g class="message" data-participant-1="au" data-participant-2="cl"><polygon fill="#181818" points="348.3922,308.7402,337.9756,312.9069,348.3922,317.0736,344.2256,312.9069" style="stroke:#181818;stroke-width:1.0417;"/><line style="stroke:#181818;stroke-width:1.0417;stroke-dasharray:2.0,2.0;" x1="342.1422" x2="791.4551" y1="312.9069" y2="312.9069"/><text fill="#000000" font-family="sans-serif" font-size="13.5417" lengthAdjust="spacing" textLength="301.8377" x="354.6422" y="307.6299">Redirect (302) to IDP Authorization Endpoint</text></g><g class="message" data-participant-1="cl" data-participant-2="aa"><polygon fill="#181818" points="636.6786,339.0869,647.0952,343.2536,636.6786,347.4202,640.8452,343.2536" style="stroke:#181818;stroke-width:1.0417;"/><line style="stroke:#181818;stroke-width:1.0417;" x1="336.9339" x2="642.9286" y1="343.2536" y2="343.2536"/><text fill="#000000" font-family="sans-serif" font-size="13.5417" lengthAdjust="spacing" textLength="205.6905" x="344.2256" y="337.9766">[6] Deeplink authenticator://...</text></g><g class="message" data-participant-1="aa" data-participant-2="idp"><polygon fill="#181818" points="1268.3736,369.4336,1278.7903,373.6003,1268.3736,377.7669,1272.5403,373.6003" style="stroke:#181818;stroke-width:1.0417;"/><line style="stroke:#181818;stroke-width:1.0417;" x1="659.5952" x2="1274.6236" y1="373.6003" y2="373.6003"/><text fill="#000000" font-family="sans-serif" font-size="13.5417" lengthAdjust="spacing" textLength="228.8925" x="666.8869" y="368.3233">[7] GET {authorization_endpoint}</text></g><g class="message" data-participant-1="idp" data-participant-2="aa"><polygon fill="#181818" points="671.0536,399.7803,660.6369,403.9469,671.0536,408.1136,666.8869,403.9469" style="stroke:#181818;stroke-width:1.0417;"/><line style="stroke:#181818;stroke-width:1.0417;stroke-dasharray:2.0,2.0;" x1="664.8036" x2="1285.0403" y1="403.9469" y2="403.9469"/><text fill="#000000" font-family="sans-serif" font-size="13.5417" lengthAdjust="spacing" textLength="65.6916" x="677.3036" y="398.6699">challenge</text></g><g class="message" data-participant-1="aa" data-participant-2="aa"><line style="stroke:#181818;stroke-width:1.0417;" x1="659.5952" x2="703.3452" y1="434.2936" y2="434.2936"/><line style="stroke:#181818;stroke-width:1.0417;" x1="703.3452" x2="703.3452" y1="434.2936" y2="447.8353"/><line style="stroke:#181818;stroke-width:1.0417;" x1="660.6369" x2="703.3452" y1="447.8353" y2="447.8353"/><polygon fill="#181818" points="671.0536,443.6686,660.6369,447.8353,671.0536,452.002,666.8869,447.8353" style="stroke:#181818;stroke-width:1.0417;"/><text fill="#000000" font-family="sans-serif" font-size="13.5417" lengthAdjust="spacing" textLength="97.9919" x="666.8869" y="429.0166">sign challenge</text></g><g class="message" data-participant-1="aa" data-participant-2="idp"><polygon fill="#181818" points="1268.3736,474.0153,1278.7903,478.182,1268.3736,482.3486,1272.5403,478.182" style="stroke:#181818;stroke-width:1.0417;"/><line style="stroke:#181818;stroke-width:1.0417;" x1="659.5952" x2="1274.6236" y1="478.182" y2="478.182"/><text fill="#000000" font-family="sans-serif" font-size="13.5417" lengthAdjust="spacing" textLength="117.3854" x="666.8869" y="472.905">signed_challenge</text></g><g class="message" data-participant-1="idp" data-participant-2="aa"><polygon fill="#181818" points="671.0536,504.362,660.6369,508.5286,671.0536,512.6953,666.8869,508.5286" style="stroke:#181818;stroke-width:1.0417;"/><line style="stroke:#181818;stroke-width:1.0417;stroke-dasharray:2.0,2.0;" x1="664.8036" x2="1285.0403" y1="508.5286" y2="508.5286"/><text fill="#000000" font-family="sans-serif" font-size="13.5417" lengthAdjust="spacing" textLength="182.5414" x="677.3036" y="503.2516">Redirect (302) (auth_code)</text></g><g class="message" data-participant-1="aa" data-participant-2="cl"><polygon fill="#181818" points="348.3922,534.7087,337.9756,538.8753,348.3922,543.042,344.2256,538.8753" style="stroke:#181818;stroke-width:1.0417;"/><line style="stroke:#181818;stroke-width:1.0417;stroke-dasharray:2.0,2.0;" x1="342.1422" x2="653.3452" y1="538.8753" y2="538.8753"/><text fill="#000000" font-family="sans-serif" font-size="13.5417" lengthAdjust="spacing" textLength="256.5511" x="354.6422" y="533.5983">[8] {client_callback_uri} {auth_code}</text></g><g class="message" data-participant-1="cl" data-participant-2="au"><polygon fill="#181818" points="774.7884,565.0553,785.2051,569.222,774.7884,573.3887,778.9551,569.222" style="stroke:#181818;stroke-width:1.0417;"/><line style="stroke:#181818;stroke-width:1.0417;" x1="336.9339" x2="781.0384" y1="569.222" y2="569.222"/><text fill="#000000" font-family="sans-serif" font-size="13.5417" lengthAdjust="spacing" textLength="357.3664" x="344.2256" y="563.945">[9] GET /signin-gematik-idp-dienst with {auth_code}</text></g><g class="message" data-participant-1="au" data-participant-2="idp"><polygon fill="#181818" points="1268.3736,595.402,1278.7903,599.5687,1268.3736,603.7354,1272.5403,599.5687" style="stroke:#181818;stroke-width:1.0417;"/><line style="stroke:#181818;stroke-width:1.0417;" x1="797.7051" x2="1274.6236" y1="599.5687" y2="599.5687"/><text fill="#000000" font-family="sans-serif" font-size="13.5417" lengthAdjust="spacing" textLength="336.5051" x="804.9967" y="594.2917">[10] POST {token_Endpoint} (auth_code, verifier)</text></g><g class="message" data-participant-1="idp" data-participant-2="au"><polygon fill="#181818" points="809.1634,625.7487,798.7467,629.9154,809.1634,634.082,804.9967,629.9154" style="stroke:#181818;stroke-width:1.0417;"/><line style="stroke:#181818;stroke-width:1.0417;stroke-dasharray:2.0,2.0;" x1="802.9134" x2="1285.0403" y1="629.9154" y2="629.9154"/><text fill="#000000" font-family="sans-serif" font-size="13.5417" lengthAdjust="spacing" textLength="176.7624" x="815.4134" y="624.6384">[11] Response {id_token}</text></g><g class="message" data-participant-1="au" data-participant-2="au"><line style="stroke:#181818;stroke-width:1.0417;" x1="797.7051" x2="841.4551" y1="660.262" y2="660.262"/><line style="stroke:#181818;stroke-width:1.0417;" x1="841.4551" x2="841.4551" y1="660.262" y2="673.8037"/><line style="stroke:#181818;stroke-width:1.0417;" x1="798.7467" x2="841.4551" y1="673.8037" y2="673.8037"/><polygon fill="#181818" points="809.1634,669.637,798.7467,673.8037,809.1634,677.9704,804.9967,673.8037" style="stroke:#181818;stroke-width:1.0417;"/><text fill="#000000" font-family="sans-serif" font-size="13.5417" lengthAdjust="spacing" textLength="169.1055" x="804.9967" y="654.985">[12] Validierung id-token</text></g><g class="message" data-participant-1="au" data-participant-2="cl"><polygon fill="#181818" points="348.3922,699.9837,337.9756,704.1504,348.3922,708.3171,344.2256,704.1504" style="stroke:#181818;stroke-width:1.0417;"/><line style="stroke:#181818;stroke-width:1.0417;stroke-dasharray:2.0,2.0;" x1="342.1422" x2="791.4551" y1="704.1504" y2="704.1504"/><text fill="#000000" font-family="sans-serif" font-size="13.5417" lengthAdjust="spacing" textLength="415.8707" x="354.6422" y="698.8734">[13] HTTP 200 OK, Result body {"access_token"="id_token"}</text></g><g class="message" data-participant-1="cl" data-participant-2="cl"><line style="stroke:#181818;stroke-width:1.0417;" x1="336.9339" x2="380.6839" y1="734.4971" y2="734.4971"/><line style="stroke:#181818;stroke-width:1.0417;" x1="380.6839" x2="380.6839" y1="734.4971" y2="748.0387"/><line style="stroke:#181818;stroke-width:1.0417;" x1="337.9756" x2="380.6839" y1="748.0387" y2="748.0387"/><polygon fill="#181818" points="348.3922,743.8721,337.9756,748.0387,348.3922,752.2054,344.2256,748.0387" style="stroke:#181818;stroke-width:1.0417;"/><text fill="#000000" font-family="sans-serif" font-size="13.5417" lengthAdjust="spacing" textLength="287.2447" x="344.2256" y="729.2201">[14] Benutzeranmeldung wird gespeichert</text></g><g class="message" data-participant-1="cl" data-participant-2="o"><polygon fill="#181818" points="59.1553,774.2188,48.7386,778.3854,59.1553,782.5521,54.9886,778.3854" style="stroke:#181818;stroke-width:1.0417;"/><line style="stroke:#181818;stroke-width:1.0417;" x1="52.9053" x2="330.6839" y1="778.3854" y2="778.3854"/><text fill="#000000" font-family="sans-serif" font-size="13.5417" lengthAdjust="spacing" textLength="153.9373" x="65.4053" y="773.1084">Anzeige SSP Suchseite</text></g><!--SRC=[TLJRRjf047ttLunuIIB50T9xf5Q2X3GegOBYj7b84Dfu1tk4sNNNQoWW_gQVqRVyM6UD0KER9qkUENFEd9dPR4Gg5KQCGQO4pKR3opP_7en87qZQ64vt_e-rqc5iz1Z1cXmzxy2IJH1gbrVTE_-238PMczan1FWpHpMN92A72u8Uj78Rex8K2eim9Wl1M1WR2YCFFE5We45aKBiraT-IOr9FIaiqSDEfUSpEG4g5iX0cHLhRw6c6vacvsfT6AujAxcOAKMHMY9cabQPFIc86tOlUNdg-IVS3D1CASJTXc1O9HQyzet_DTiCaL_6kT6ns1fmp8MvXhuhSLjauLlES1pHnteI9fy7_mjypU6ps2_E-TrdUqEH3L1uRi8wUzk52cCnYakGgWXiTaMAZiwc8gqNUzCkGi_sgtO8w1D_E_JRNpAOll-E4gtfbNP4pu6qVldRkeQwd2eqlAfFRoXIvnuwj4U_wq35pp2E4tlLv1yvvTZ1y-MDWWeQ6n8FCbOGm5WcpHLXWItrtA0iVuF1Du_G8h7QpAVP56veBIrf1HybKaxAUnAg2KhDW1U_P2yGq8JK2KHtvMRr-Sd9I4IxORE5mF346VbWrkn1LmW6MXCijaDCzDsI_fDmsKn7babRLNKf6aQesBTQiBe1oK0cznhBdpg6JEGZPtgF_qQv7_h4FYp0XDc4GCiMp24U3tD1orMQ1N-vuANOMu5Ev04ucAJ_2CRioyfd5brmqip0bVXsgnVvTZ9MzpKOVUhS16spr2DLWFSbbfPNZpPOSlMA44zNaOxZ3BDKgGrYG71G5b_isLDUooHVoGoJ4eesx499-0QgktsEJx-Fg_hxd7ZkulJvs97bYuLdB6Ing8WmnorPajS-rDMzjkRUBrSDiyWMrKULsZaQeCIRIiK_9I8Yu0wGmHcDBX3w3bfeZyUsuMm_oCCwG-DQg1Fmg_0K0]--></g></svg>