<svg xmlns="http://www.w3.org/2000/svg" xmlns:xlink="http://www.w3.org/1999/xlink" contentStyleType="text/css" height="492px" preserveAspectRatio="none" style="width:618px;height:492px;background:#FFFFFF;" version="1.1" viewBox="0 0 618 492" width="618px" zoomAndPan="magnify"><defs/><g><text fill="#000000" font-family="sans-serif" font-size="14" font-weight="bold" lengthAdjust="spacing" textLength="257" x="176.75" y="27.9951">FHIR-VZD Lesen von Zertifikaten</text><rect fill="#FFFFFF" height="29.1328" style="stroke:#181818;stroke-width:1.0;" width="10" x="513" y="301.5234"/><rect fill="#FFFFFF" height="29.1328" style="stroke:#181818;stroke-width:1.0;" width="10" x="513" y="409.9219"/><rect fill="none" height="59.2656" style="stroke:#000000;stroke-width:1.5;" width="387" x="10" y="147.8594"/><rect fill="none" height="75.3984" style="stroke:#000000;stroke-width:1.5;" width="591.5" x="10" y="263.2578"/><line style="stroke:#181818;stroke-width:0.5;stroke-dasharray:5.0,5.0;" x1="82" x2="82" y1="73.5938" y2="457.0547"/><line style="stroke:#181818;stroke-width:0.5;stroke-dasharray:5.0,5.0;" x1="517.5" x2="517.5" y1="73.5938" y2="457.0547"/><rect fill="#E2E2F0" height="30.2969" rx="2.5" ry="2.5" style="stroke:#181818;stroke-width:0.5;" width="124" x="20" y="42.2969"/><text fill="#000000" font-family="sans-serif" font-size="14" lengthAdjust="spacing" textLength="110" x="27" y="62.292">FHIR-VZD-Client</text><rect fill="#E2E2F0" height="30.2969" rx="2.5" ry="2.5" style="stroke:#181818;stroke-width:0.5;" width="124" x="20" y="456.0547"/><text fill="#000000" font-family="sans-serif" font-size="14" lengthAdjust="spacing" textLength="110" x="27" y="476.0498">FHIR-VZD-Client</text><rect fill="#E2E2F0" height="30.2969" rx="2.5" ry="2.5" style="stroke:#181818;stroke-width:0.5;" width="147" x="444.5" y="42.2969"/><text fill="#000000" font-family="sans-serif" font-size="14" lengthAdjust="spacing" textLength="133" x="451.5" y="62.292">VZD-FHIR-Directory</text><rect fill="#E2E2F0" height="30.2969" rx="2.5" ry="2.5" style="stroke:#181818;stroke-width:0.5;" width="147" x="444.5" y="456.0547"/><text fill="#000000" font-family="sans-serif" font-size="14" lengthAdjust="spacing" textLength="133" x="451.5" y="476.0498">VZD-FHIR-Directory</text><rect fill="#FFFFFF" height="29.1328" style="stroke:#181818;stroke-width:1.0;" width="10" x="513" y="301.5234"/><rect fill="#FFFFFF" height="29.1328" style="stroke:#181818;stroke-width:1.0;" width="10" x="513" y="409.9219"/><line style="stroke:#181818;stroke-width:1.0;" x1="82" x2="124" y1="119.8594" y2="119.8594"/><line style="stroke:#181818;stroke-width:1.0;" x1="124" x2="124" y1="119.8594" y2="132.8594"/><line style="stroke:#181818;stroke-width:1.0;" x1="83" x2="124" y1="132.8594" y2="132.8594"/><polygon fill="#181818" points="93,128.8594,83,132.8594,93,136.8594,89,132.8594" style="stroke:#181818;stroke-width:1.0;"/><text fill="#000000" font-family="sans-serif" font-size="13" font-weight="bold" lengthAdjust="spacing" textLength="30" x="89" y="107.2271">[01]</text><text fill="#000000" font-family="sans-serif" font-size="13" lengthAdjust="spacing" textLength="111" x="123" y="99.6606">pr&#252;fe ob  g&#252;ltiges</text><text fill="#000000" font-family="monospace" font-size="13" lengthAdjust="spacing" textLength="152" x="238" y="99.6606">search-access_token</text><text fill="#000000" font-family="sans-serif" font-size="13" lengthAdjust="spacing" textLength="260" x="123" y="114.7935">vom FHIR-Directory Auth-Service vorliegt</text><path d="M10,147.8594 L74,147.8594 L74,154.9922 L64,164.9922 L10,164.9922 L10,147.8594 " fill="#EEEEEE" style="stroke:#000000;stroke-width:1.5;"/><rect fill="none" height="59.2656" style="stroke:#000000;stroke-width:1.5;" width="387" x="10" y="147.8594"/><text fill="#000000" font-family="sans-serif" font-size="13" font-weight="bold" lengthAdjust="spacing" textLength="19" x="25" y="160.9263">alt</text><text fill="#000000" font-family="sans-serif" font-size="11" font-weight="bold" lengthAdjust="spacing" textLength="303" x="89" y="160.0698">[kein g&#252;ltiges search-access_token vorhanden]</text><line style="stroke:#181818;stroke-width:1.0;" x1="82" x2="124" y1="186.125" y2="186.125"/><line style="stroke:#181818;stroke-width:1.0;" x1="124" x2="124" y1="186.125" y2="199.125"/><line style="stroke:#181818;stroke-width:1.0;" x1="83" x2="124" y1="199.125" y2="199.125"/><polygon fill="#181818" points="93,195.125,83,199.125,93,203.125,89,199.125" style="stroke:#181818;stroke-width:1.0;"/><text fill="#000000" font-family="sans-serif" font-size="13" font-weight="bold" lengthAdjust="spacing" textLength="30" x="89" y="181.0591">[02]</text><text fill="#000000" font-family="sans-serif" font-size="13" lengthAdjust="spacing" textLength="209" x="123" y="181.0591">search-access_token beschaffen</text><line style="stroke:#181818;stroke-width:1.0;" x1="82" x2="124" y1="235.2578" y2="235.2578"/><line style="stroke:#181818;stroke-width:1.0;" x1="124" x2="124" y1="235.2578" y2="248.2578"/><line style="stroke:#181818;stroke-width:1.0;" x1="83" x2="124" y1="248.2578" y2="248.2578"/><polygon fill="#181818" points="93,244.2578,83,248.2578,93,252.2578,89,248.2578" style="stroke:#181818;stroke-width:1.0;"/><text fill="#000000" font-family="sans-serif" font-size="13" font-weight="bold" lengthAdjust="spacing" textLength="30" x="89" y="230.1919">[03]</text><text fill="#000000" font-family="sans-serif" font-size="13" lengthAdjust="spacing" textLength="388" x="123" y="230.1919">pr&#252;fe ob  telematikID von dem VZD Datensatz vorhanden ist</text><path d="M10,263.2578 L74,263.2578 L74,270.3906 L64,280.3906 L10,280.3906 L10,263.2578 " fill="#EEEEEE" style="stroke:#000000;stroke-width:1.5;"/><rect fill="none" height="75.3984" style="stroke:#000000;stroke-width:1.5;" width="591.5" x="10" y="263.2578"/><text fill="#000000" font-family="sans-serif" font-size="13" font-weight="bold" lengthAdjust="spacing" textLength="19" x="25" y="276.3247">alt</text><text fill="#000000" font-family="sans-serif" font-size="11" font-weight="bold" lengthAdjust="spacing" textLength="350" x="89" y="275.4683">[keine telematikID von dem VZD Datensatz vorhanden]</text><polygon fill="#181818" points="501,297.5234,511,301.5234,501,305.5234,505,301.5234" style="stroke:#181818;stroke-width:1.0;"/><line style="stroke:#181818;stroke-width:1.0;" x1="82" x2="507" y1="301.5234" y2="301.5234"/><text fill="#000000" font-family="sans-serif" font-size="13" font-weight="bold" lengthAdjust="spacing" textLength="30" x="89" y="296.4575">[04]</text><text fill="#000000" font-family="sans-serif" font-size="13" lengthAdjust="spacing" textLength="123" x="123" y="296.4575">suche im FHIR VZD</text><polygon fill="#181818" points="93,326.6563,83,330.6563,93,334.6563,89,330.6563" style="stroke:#181818;stroke-width:1.0;"/><line style="stroke:#181818;stroke-width:1.0;stroke-dasharray:2.0,2.0;" x1="87" x2="517" y1="330.6563" y2="330.6563"/><text fill="#000000" font-family="sans-serif" font-size="13" font-weight="bold" lengthAdjust="spacing" textLength="30" x="99" y="325.5903">[05]</text><text fill="#000000" font-family="sans-serif" font-size="13" lengthAdjust="spacing" textLength="201" x="133" y="325.5903">HTTP 200 OK (Result Body json)</text><rect fill="#EEEEEE" height="3" style="stroke:#EEEEEE;stroke-width:1.0;" width="611.5" x="0" y="366.2227"/><line style="stroke:#000000;stroke-width:1.0;" x1="0" x2="611.5" y1="366.2227" y2="366.2227"/><line style="stroke:#000000;stroke-width:1.0;" x1="0" x2="611.5" y1="369.2227" y2="369.2227"/><rect fill="#EEEEEE" height="23.1328" style="stroke:#000000;stroke-width:2.0;" width="349" x="131.25" y="355.6563"/><text fill="#000000" font-family="sans-serif" font-size="13" font-weight="bold" lengthAdjust="spacing" textLength="330" x="137.25" y="371.7231">...Lese Zertifikate vom Verzeichniseintrag ...</text><polygon fill="#181818" points="501,405.9219,511,409.9219,501,413.9219,505,409.9219" style="stroke:#181818;stroke-width:1.0;"/><line style="stroke:#181818;stroke-width:1.0;" x1="82" x2="507" y1="409.9219" y2="409.9219"/><text fill="#000000" font-family="sans-serif" font-size="13" font-weight="bold" lengthAdjust="spacing" textLength="30" x="89" y="404.856">[06]</text><text fill="#000000" font-family="sans-serif" font-size="13" lengthAdjust="spacing" textLength="254" x="123" y="404.856">read_FhirVZD_Certificates (telematikID)</text><polygon fill="#181818" points="93,435.0547,83,439.0547,93,443.0547,89,439.0547" style="stroke:#181818;stroke-width:1.0;"/><line style="stroke:#181818;stroke-width:1.0;stroke-dasharray:2.0,2.0;" x1="87" x2="517" y1="439.0547" y2="439.0547"/><text fill="#000000" font-family="sans-serif" font-size="13" font-weight="bold" lengthAdjust="spacing" textLength="30" x="99" y="433.9888">[07]</text><text fill="#000000" font-family="sans-serif" font-size="13" lengthAdjust="spacing" textLength="274" x="133" y="433.9888">Liste der Zertifikate f&#252;r selektierten Eintrag</text><!--SRC=[bLB1IiD05BpdAnuvsKDAzLYie4PfKL1KUgXAsMvUccVIJTXzATXlwwq_vjiKQL85CJdjxipip9jLDPUcNYtGmgdyuVdYudKmU0y39YuGmjlnv2cQpcAuHuS6rgM16Lgcb7B5QC8W0Fag9LkQAcKORZEoqqroNH3AIhc3HhJV4yuFKberI0zgq35Pr5pQJm_kA4ONtHk6KDdTDaKe5m3BtRPWMg98XGwLrLcaj4RdvbpcuZPyC-jo1TqhuBBcB7f6koQDaj2AxfA3G1KCEP9fgVwYwGcPCWaQ7-eFgx_n5-Xqfj9K1D0a_uhBME1ACUMJk6acmHNuhc9VZLEyEPW3Sgr8-1_gZrmWfj9AqjGwGw3zF3tR8vLcMek88FnIYesECy0GnYylZt0s6C337PmyeQl5s5MPVCA7AqtF4nDiApMJ6OsWt-_xXzX-W-0RdQBT8EdCa9DuRDNIGs4qEXhdjtMBAfat9xDuVhqNqoBcuAGrcHu4RHDf9L6EshYNkQAOjHrBwMvhfUm2SoRPbl7Vx5q5tLXV]--></g></svg>