<svg xmlns="http://www.w3.org/2000/svg" xmlns:xlink="http://www.w3.org/1999/xlink" contentStyleType="text/css" height="501px" preserveAspectRatio="none" style="width:1193px;height:501px;background:#FFFFFF;" version="1.1" viewBox="0 0 1193 501" width="1193px" zoomAndPan="magnify"><title>Holder Authentisierung</title><defs/><g><text fill="#000000" font-family="sans-serif" font-size="14" font-weight="bold" lengthAdjust="spacing" textLength="185.3291" x="501.1814" y="27.9951">Holder Authentisierung</text><rect fill="#DDDDDD" height="452.0547" style="stroke:#181818;stroke-width:0.5;" width="68.2383" x="26" y="43.2969"/><text fill="#000000" font-family="sans-serif" font-size="13" font-weight="bold" lengthAdjust="spacing" textLength="42.7388" x="38.7498" y="55.3638">Client</text><rect fill="#DDDDDD" height="452.0547" style="stroke:#181818;stroke-width:0.5;" width="635.751" x="551.9409" y="43.2969"/><text fill="#000000" font-family="sans-serif" font-size="13" font-weight="bold" lengthAdjust="spacing" textLength="143.8887" x="797.8721" y="55.3638">VZD-FHIR-Directory</text><rect fill="none" height="291.1953" style="stroke:#000000;stroke-width:1.5;" width="1120.5317" x="10" y="152.8594"/><rect fill="none" height="117.5313" style="stroke:#000000;stroke-width:1.5;" width="843.6655" x="20" y="176.9922"/><line style="stroke:#181818;stroke-width:0.5;stroke-dasharray:5.0,5.0;" x1="60" x2="60" y1="93.7266" y2="461.0547"/><line style="stroke:#181818;stroke-width:0.5;stroke-dasharray:5.0,5.0;" x1="629.9409" x2="629.9409" y1="93.7266" y2="461.0547"/><line style="stroke:#181818;stroke-width:0.5;stroke-dasharray:5.0,5.0;" x1="858.1367" x2="858.1367" y1="93.7266" y2="461.0547"/><line style="stroke:#181818;stroke-width:0.5;stroke-dasharray:5.0,5.0;" x1="1125.3716" x2="1125.3716" y1="93.7266" y2="461.0547"/><rect fill="#E2E2F0" height="30.2969" rx="2.5" ry="2.5" style="stroke:#181818;stroke-width:0.5;" width="60.2383" x="30" y="62.4297"/><text fill="#000000" font-family="sans-serif" font-size="14" lengthAdjust="spacing" textLength="46.2383" x="37" y="82.4248">Holder</text><rect fill="#E2E2F0" height="30.2969" rx="2.5" ry="2.5" style="stroke:#181818;stroke-width:0.5;" width="60.2383" x="30" y="460.0547"/><text fill="#000000" font-family="sans-serif" font-size="14" lengthAdjust="spacing" textLength="46.2383" x="37" y="480.0498">Holder</text><rect fill="#E2E2F0" height="30.2969" rx="2.5" ry="2.5" style="stroke:#181818;stroke-width:0.5;" width="148.4219" x="555.9409" y="62.4297"/><text fill="#000000" font-family="sans-serif" font-size="14" lengthAdjust="spacing" textLength="134.4219" x="562.9409" y="82.4248">VZD OAuth Service</text><rect fill="#E2E2F0" height="30.2969" rx="2.5" ry="2.5" style="stroke:#181818;stroke-width:0.5;" width="148.4219" x="555.9409" y="460.0547"/><text fill="#000000" font-family="sans-serif" font-size="14" lengthAdjust="spacing" textLength="134.4219" x="562.9409" y="480.0498">VZD OAuth Service</text><rect fill="#E2E2F0" height="30.2969" rx="2.5" ry="2.5" style="stroke:#181818;stroke-width:0.5;" width="191.0576" x="763.1367" y="62.4297"/><text fill="#000000" font-family="sans-serif" font-size="14" lengthAdjust="spacing" textLength="177.0576" x="770.1367" y="82.4248">TI-ServiceProvider Dienst</text><rect fill="#E2E2F0" height="30.2969" rx="2.5" ry="2.5" style="stroke:#181818;stroke-width:0.5;" width="191.0576" x="763.1367" y="460.0547"/><text fill="#000000" font-family="sans-serif" font-size="14" lengthAdjust="spacing" textLength="177.0576" x="770.1367" y="480.0498">TI-ServiceProvider Dienst</text><rect fill="#E2E2F0" height="30.2969" rx="2.5" ry="2.5" style="stroke:#181818;stroke-width:0.5;" width="116.3203" x="1067.3716" y="62.4297"/><text fill="#000000" font-family="sans-serif" font-size="14" lengthAdjust="spacing" textLength="102.3203" x="1074.3716" y="82.4248">FHIR-Directory</text><rect fill="#E2E2F0" height="30.2969" rx="2.5" ry="2.5" style="stroke:#181818;stroke-width:0.5;" width="116.3203" x="1067.3716" y="460.0547"/><text fill="#000000" font-family="sans-serif" font-size="14" lengthAdjust="spacing" textLength="102.3203" x="1074.3716" y="480.0498">FHIR-Directory</text><line style="stroke:#181818;stroke-width:1.0;" x1="60.1191" x2="102.1191" y1="124.8594" y2="124.8594"/><line style="stroke:#181818;stroke-width:1.0;" x1="102.1191" x2="102.1191" y1="124.8594" y2="137.8594"/><line style="stroke:#181818;stroke-width:1.0;" x1="61.1191" x2="102.1191" y1="137.8594" y2="137.8594"/><polygon fill="#181818" points="71.1191,133.8594,61.1191,137.8594,71.1191,141.8594,67.1191,137.8594" style="stroke:#181818;stroke-width:1.0;"/><text fill="#000000" font-family="sans-serif" font-size="13" font-weight="bold" lengthAdjust="spacing" textLength="29.9736" x="67.1191" y="119.7935">[01]</text><text fill="#000000" font-family="sans-serif" font-size="13" lengthAdjust="spacing" textLength="114.8481" x="101.0928" y="119.7935">pr&#252;fe, ob g&#252;ltiges</text><text fill="#000000" font-family="monospace" font-size="13" lengthAdjust="spacing" textLength="148.7065" x="220.0732" y="119.7935">Holder-Access-Token</text><text fill="#000000" font-family="sans-serif" font-size="13" lengthAdjust="spacing" textLength="49.5625" x="372.9121" y="119.7935">vorliegt</text><path d="M10,152.8594 L74.4429,152.8594 L74.4429,159.9922 L64.4429,169.9922 L10,169.9922 L10,152.8594 " fill="#EEEEEE" style="stroke:#000000;stroke-width:1.5;"/><rect fill="none" height="291.1953" style="stroke:#000000;stroke-width:1.5;" width="1120.5317" x="10" y="152.8594"/><text fill="#000000" font-family="sans-serif" font-size="13" font-weight="bold" lengthAdjust="spacing" textLength="19.4429" x="25" y="165.9263">alt</text><text fill="#000000" font-family="sans-serif" font-size="11" font-weight="bold" lengthAdjust="spacing" textLength="294.9106" x="89.4429" y="165.0698">[kein g&#252;ltiges Holder-Access-Token vorhanden]</text><path d="M20,176.9922 L84.4429,176.9922 L84.4429,184.125 L74.4429,194.125 L20,194.125 L20,176.9922 " fill="#EEEEEE" style="stroke:#000000;stroke-width:1.5;"/><rect fill="none" height="117.5313" style="stroke:#000000;stroke-width:1.5;" width="843.6655" x="20" y="176.9922"/><text fill="#000000" font-family="sans-serif" font-size="13" font-weight="bold" lengthAdjust="spacing" textLength="19.4429" x="35" y="190.0591">alt</text><text fill="#000000" font-family="sans-serif" font-size="11" font-weight="bold" lengthAdjust="spacing" textLength="261.9214" x="99.4429" y="189.2026">[ben&#246;tigt Key Cloak Holder-Access-Token]</text><polygon fill="#181818" points="618.1519,211.2578,628.1519,215.2578,618.1519,219.2578,622.1519,215.2578" style="stroke:#181818;stroke-width:1.0;"/><line style="stroke:#181818;stroke-width:1.0;" x1="60.1191" x2="624.1519" y1="215.2578" y2="215.2578"/><text fill="#000000" font-family="sans-serif" font-size="13" font-weight="bold" lengthAdjust="spacing" textLength="29.9736" x="67.1191" y="210.1919">[02]</text><text fill="#000000" font-family="sans-serif" font-size="13" lengthAdjust="spacing" textLength="512.0591" x="101.0928" y="210.1919">POST /token (client_id, client_secret f&#252;r den Realm RSDirectoryAdministration)</text><line style="stroke:#181818;stroke-width:1.0;" x1="630.1519" x2="672.1519" y1="244.3906" y2="244.3906"/><line style="stroke:#181818;stroke-width:1.0;" x1="672.1519" x2="672.1519" y1="244.3906" y2="257.3906"/><line style="stroke:#181818;stroke-width:1.0;" x1="631.1519" x2="672.1519" y1="257.3906" y2="257.3906"/><polygon fill="#181818" points="641.1519,253.3906,631.1519,257.3906,641.1519,261.3906,637.1519,257.3906" style="stroke:#181818;stroke-width:1.0;"/><text fill="#000000" font-family="sans-serif" font-size="13" font-weight="bold" lengthAdjust="spacing" textLength="29.9736" x="637.1519" y="239.3247">[03]</text><text fill="#000000" font-family="sans-serif" font-size="13" lengthAdjust="spacing" textLength="180.54" x="671.1255" y="239.3247">pr&#252;ft client_id, client_secret</text><polygon fill="#181818" points="71.1191,282.5234,61.1191,286.5234,71.1191,290.5234,67.1191,286.5234" style="stroke:#181818;stroke-width:1.0;"/><line style="stroke:#181818;stroke-width:1.0;" x1="65.1191" x2="629.1519" y1="286.5234" y2="286.5234"/><text fill="#000000" font-family="sans-serif" font-size="13" font-weight="bold" lengthAdjust="spacing" textLength="29.9736" x="77.1191" y="281.4575">[04]</text><text fill="#000000" font-family="sans-serif" font-size="13" lengthAdjust="spacing" textLength="415.7651" x="111.0928" y="281.4575">erstellt Key Cloak Holder-Access-Token (beinhaltet die client-id)</text><polygon fill="#181818" points="846.6655,318.6563,856.6655,322.6563,846.6655,326.6563,850.6655,322.6563" style="stroke:#181818;stroke-width:1.0;"/><line style="stroke:#181818;stroke-width:1.0;" x1="60.1191" x2="852.6655" y1="322.6563" y2="322.6563"/><text fill="#000000" font-family="sans-serif" font-size="13" font-weight="bold" lengthAdjust="spacing" textLength="29.9736" x="67.1191" y="317.5903">[05]</text><text fill="#000000" font-family="sans-serif" font-size="13" lengthAdjust="spacing" textLength="383.1318" x="101.0928" y="317.5903">GET /holder-authenticate (Key Cloak Holder-Access-Token)</text><line style="stroke:#181818;stroke-width:1.0;" x1="858.6655" x2="900.6655" y1="351.7891" y2="351.7891"/><line style="stroke:#181818;stroke-width:1.0;" x1="900.6655" x2="900.6655" y1="351.7891" y2="364.7891"/><line style="stroke:#181818;stroke-width:1.0;" x1="859.6655" x2="900.6655" y1="364.7891" y2="364.7891"/><polygon fill="#181818" points="869.6655,360.7891,859.6655,364.7891,869.6655,368.7891,865.6655,364.7891" style="stroke:#181818;stroke-width:1.0;"/><text fill="#000000" font-family="sans-serif" font-size="13" font-weight="bold" lengthAdjust="spacing" textLength="29.9736" x="865.6655" y="346.7231">[06]</text><text fill="#000000" font-family="sans-serif" font-size="13" lengthAdjust="spacing" textLength="218.8926" x="899.6392" y="346.7231">pr&#252;ft Token und liest client-id aus</text><line style="stroke:#181818;stroke-width:1.0;" x1="858.6655" x2="900.6655" y1="393.9219" y2="393.9219"/><line style="stroke:#181818;stroke-width:1.0;" x1="900.6655" x2="900.6655" y1="393.9219" y2="406.9219"/><line style="stroke:#181818;stroke-width:1.0;" x1="859.6655" x2="900.6655" y1="406.9219" y2="406.9219"/><polygon fill="#181818" points="869.6655,402.9219,859.6655,406.9219,869.6655,410.9219,865.6655,406.9219" style="stroke:#181818;stroke-width:1.0;"/><text fill="#000000" font-family="sans-serif" font-size="13" font-weight="bold" lengthAdjust="spacing" textLength="29.9736" x="865.6655" y="388.856">[07]</text><text fill="#000000" font-family="sans-serif" font-size="13" lengthAdjust="spacing" textLength="186.3735" x="899.6392" y="388.856">erstellt Holder-Access-Token</text><polygon fill="#181818" points="71.1191,432.0547,61.1191,436.0547,71.1191,440.0547,67.1191,436.0547" style="stroke:#181818;stroke-width:1.0;"/><line style="stroke:#181818;stroke-width:1.0;" x1="65.1191" x2="857.6655" y1="436.0547" y2="436.0547"/><text fill="#000000" font-family="sans-serif" font-size="13" font-weight="bold" lengthAdjust="spacing" textLength="29.9736" x="77.1191" y="430.9888">[08]</text><text fill="#000000" font-family="sans-serif" font-size="13" lengthAdjust="spacing" textLength="136.7095" x="111.0928" y="430.9888">Holder-Access-Token</text><!--SRC=[XLBDJW8n4BxtAIPxWiIDd8an8Q9YF4Y0UD0OqzqTs0bBIzfPeY_cYHilvj2j_0LrJqqxt- -ihjcQUf6XW-GgktxjTDuIfJBx0JSLeM6rr8uffwKs3Cd0LWMw1BI7vgZG523J3UJvfP_U3Hv6QPySvcpTvp5Stk6fLtC9OtGhoZ4mXPlZmSb36YU6pgv8XA0lRZm7WDnzd30VguQfQKa7zfYumcWQjeAIZJoXgyrCgNYVNiU9BYpTPZt52x0Pp3RhYcc67f9OGDhBS_G-dTWvcYI1bNLIreoLqXN37CaSWCv0je1Icm9DWyZGRBvack4HFwLug-VdO0hasriDlNLX-3IUm2K7tbOUblPEnGN4eyVS8SDqitOWWZ12NIrWDDwLrIiMPCYpqqpMj8D8iwIzHcY3uJVsOynFXUWyOrNz4mfQcVHLIWtYiY2Cp2aLxUtsr4deiFiktDzAvh9Xqt6RkMQ4rfzYJRh0SK0MqpLsQlbZn87dlH7GjJyBt2NyRLaxm4ydvmQRcDy0]--></g></svg>