<svg xmlns="http://www.w3.org/2000/svg" xmlns:xlink="http://www.w3.org/1999/xlink" contentStyleType="text/css" height="501px" preserveAspectRatio="none" style="width:1163px;height:501px;background:#FFFFFF;" version="1.1" viewBox="0 0 1163 501" width="1163px" zoomAndPan="magnify"><defs/><g><text fill="#000000" font-family="sans-serif" font-size="14" font-weight="bold" lengthAdjust="spacing" textLength="184" x="486.75" y="27.9951">Holder Authentisierung</text><rect fill="#DDDDDD" height="452.0547" style="stroke:#181818;stroke-width:0.5;" width="67" x="26" y="43.2969"/><text fill="#000000" font-family="sans-serif" font-size="13" font-weight="bold" lengthAdjust="spacing" textLength="42" x="38.5" y="55.3638">Client</text><rect fill="#DDDDDD" height="452.0547" style="stroke:#181818;stroke-width:0.5;" width="618.5" x="539" y="43.2969"/><text fill="#000000" font-family="sans-serif" font-size="13" font-weight="bold" lengthAdjust="spacing" textLength="142" x="777.25" y="55.3638">VZD-FHIR-Directory</text><rect fill="none" height="291.1953" style="stroke:#000000;stroke-width:1.5;" width="1092.5" x="10" y="152.8594"/><rect fill="none" height="117.5313" style="stroke:#000000;stroke-width:1.5;" width="823.5" x="20" y="176.9922"/><line style="stroke:#181818;stroke-width:0.5;stroke-dasharray:5.0,5.0;" x1="59" x2="59" y1="93.7266" y2="461.0547"/><line style="stroke:#181818;stroke-width:0.5;stroke-dasharray:5.0,5.0;" x1="615" x2="615" y1="93.7266" y2="461.0547"/><line style="stroke:#181818;stroke-width:0.5;stroke-dasharray:5.0,5.0;" x1="838.5" x2="838.5" y1="93.7266" y2="461.0547"/><line style="stroke:#181818;stroke-width:0.5;stroke-dasharray:5.0,5.0;" x1="1097.5" x2="1097.5" y1="93.7266" y2="461.0547"/><rect fill="#E2E2F0" height="30.2969" rx="2.5" ry="2.5" style="stroke:#181818;stroke-width:0.5;" width="59" x="30" y="62.4297"/><text fill="#000000" font-family="sans-serif" font-size="14" lengthAdjust="spacing" textLength="45" x="37" y="82.4248">Holder</text><rect fill="#E2E2F0" height="30.2969" rx="2.5" ry="2.5" style="stroke:#181818;stroke-width:0.5;" width="59" x="30" y="460.0547"/><text fill="#000000" font-family="sans-serif" font-size="14" lengthAdjust="spacing" textLength="45" x="37" y="480.0498">Holder</text><rect fill="#E2E2F0" height="30.2969" rx="2.5" ry="2.5" style="stroke:#181818;stroke-width:0.5;" width="145" x="543" y="62.4297"/><text fill="#000000" font-family="sans-serif" font-size="14" lengthAdjust="spacing" textLength="131" x="550" y="82.4248">VZD OAuth Service</text><rect fill="#E2E2F0" height="30.2969" rx="2.5" ry="2.5" style="stroke:#181818;stroke-width:0.5;" width="145" x="543" y="460.0547"/><text fill="#000000" font-family="sans-serif" font-size="14" lengthAdjust="spacing" textLength="131" x="550" y="480.0498">VZD OAuth Service</text><rect fill="#E2E2F0" height="30.2969" rx="2.5" ry="2.5" style="stroke:#181818;stroke-width:0.5;" width="186" x="745.5" y="62.4297"/><text fill="#000000" font-family="sans-serif" font-size="14" lengthAdjust="spacing" textLength="172" x="752.5" y="82.4248">TI-ServiceProvider Dienst</text><rect fill="#E2E2F0" height="30.2969" rx="2.5" ry="2.5" style="stroke:#181818;stroke-width:0.5;" width="186" x="745.5" y="460.0547"/><text fill="#000000" font-family="sans-serif" font-size="14" lengthAdjust="spacing" textLength="172" x="752.5" y="480.0498">TI-ServiceProvider Dienst</text><rect fill="#E2E2F0" height="30.2969" rx="2.5" ry="2.5" style="stroke:#181818;stroke-width:0.5;" width="112" x="1041.5" y="62.4297"/><text fill="#000000" font-family="sans-serif" font-size="14" lengthAdjust="spacing" textLength="98" x="1048.5" y="82.4248">FHIR-Directory</text><rect fill="#E2E2F0" height="30.2969" rx="2.5" ry="2.5" style="stroke:#181818;stroke-width:0.5;" width="112" x="1041.5" y="460.0547"/><text fill="#000000" font-family="sans-serif" font-size="14" lengthAdjust="spacing" textLength="98" x="1048.5" y="480.0498">FHIR-Directory</text><line style="stroke:#181818;stroke-width:1.0;" x1="59.5" x2="101.5" y1="124.8594" y2="124.8594"/><line style="stroke:#181818;stroke-width:1.0;" x1="101.5" x2="101.5" y1="124.8594" y2="137.8594"/><line style="stroke:#181818;stroke-width:1.0;" x1="60.5" x2="101.5" y1="137.8594" y2="137.8594"/><polygon fill="#181818" points="70.5,133.8594,60.5,137.8594,70.5,141.8594,66.5,137.8594" style="stroke:#181818;stroke-width:1.0;"/><text fill="#000000" font-family="sans-serif" font-size="13" font-weight="bold" lengthAdjust="spacing" textLength="30" x="66.5" y="119.7935">[01]</text><text fill="#000000" font-family="sans-serif" font-size="13" lengthAdjust="spacing" textLength="111" x="100.5" y="119.7935">pr&#252;fe, ob g&#252;ltiges</text><text fill="#000000" font-family="monospace" font-size="13" lengthAdjust="spacing" textLength="152" x="215.5" y="119.7935">Holder-Access-Token</text><text fill="#000000" font-family="sans-serif" font-size="13" lengthAdjust="spacing" textLength="47" x="371.5" y="119.7935">vorliegt</text><path d="M10,152.8594 L74,152.8594 L74,159.9922 L64,169.9922 L10,169.9922 L10,152.8594 " fill="#EEEEEE" style="stroke:#000000;stroke-width:1.5;"/><rect fill="none" height="291.1953" style="stroke:#000000;stroke-width:1.5;" width="1092.5" x="10" y="152.8594"/><text fill="#000000" font-family="sans-serif" font-size="13" font-weight="bold" lengthAdjust="spacing" textLength="19" x="25" y="165.9263">alt</text><text fill="#000000" font-family="sans-serif" font-size="11" font-weight="bold" lengthAdjust="spacing" textLength="304" x="89" y="165.0698">[kein g&#252;ltiges Holder-Access-Token vorhanden]</text><path d="M20,176.9922 L84,176.9922 L84,184.125 L74,194.125 L20,194.125 L20,176.9922 " fill="#EEEEEE" style="stroke:#000000;stroke-width:1.5;"/><rect fill="none" height="117.5313" style="stroke:#000000;stroke-width:1.5;" width="823.5" x="20" y="176.9922"/><text fill="#000000" font-family="sans-serif" font-size="13" font-weight="bold" lengthAdjust="spacing" textLength="19" x="35" y="190.0591">alt</text><text fill="#000000" font-family="sans-serif" font-size="11" font-weight="bold" lengthAdjust="spacing" textLength="271" x="99" y="189.2026">[ben&#246;tigt Key Cloak Holder-Access-Token]</text><polygon fill="#181818" points="603.5,211.2578,613.5,215.2578,603.5,219.2578,607.5,215.2578" style="stroke:#181818;stroke-width:1.0;"/><line style="stroke:#181818;stroke-width:1.0;" x1="59.5" x2="609.5" y1="215.2578" y2="215.2578"/><text fill="#000000" font-family="sans-serif" font-size="13" font-weight="bold" lengthAdjust="spacing" textLength="30" x="66.5" y="210.1919">[02]</text><text fill="#000000" font-family="sans-serif" font-size="13" lengthAdjust="spacing" textLength="498" x="100.5" y="210.1919">POST /token (client_id, client_secret f&#252;r den Realm RSDirectoryAdministration)</text><line style="stroke:#181818;stroke-width:1.0;" x1="615.5" x2="657.5" y1="244.3906" y2="244.3906"/><line style="stroke:#181818;stroke-width:1.0;" x1="657.5" x2="657.5" y1="244.3906" y2="257.3906"/><line style="stroke:#181818;stroke-width:1.0;" x1="616.5" x2="657.5" y1="257.3906" y2="257.3906"/><polygon fill="#181818" points="626.5,253.3906,616.5,257.3906,626.5,261.3906,622.5,257.3906" style="stroke:#181818;stroke-width:1.0;"/><text fill="#000000" font-family="sans-serif" font-size="13" font-weight="bold" lengthAdjust="spacing" textLength="30" x="622.5" y="239.3247">[03]</text><text fill="#000000" font-family="sans-serif" font-size="13" lengthAdjust="spacing" textLength="175" x="656.5" y="239.3247">pr&#252;ft client_id, client_secret</text><polygon fill="#181818" points="70.5,282.5234,60.5,286.5234,70.5,290.5234,66.5,286.5234" style="stroke:#181818;stroke-width:1.0;"/><line style="stroke:#181818;stroke-width:1.0;" x1="64.5" x2="614.5" y1="286.5234" y2="286.5234"/><text fill="#000000" font-family="sans-serif" font-size="13" font-weight="bold" lengthAdjust="spacing" textLength="30" x="76.5" y="281.4575">[04]</text><text fill="#000000" font-family="sans-serif" font-size="13" lengthAdjust="spacing" textLength="404" x="110.5" y="281.4575">erstellt Key Cloak Holder-Access-Token (beinhaltet die client-id)</text><polygon fill="#181818" points="826.5,318.6563,836.5,322.6563,826.5,326.6563,830.5,322.6563" style="stroke:#181818;stroke-width:1.0;"/><line style="stroke:#181818;stroke-width:1.0;" x1="59.5" x2="832.5" y1="322.6563" y2="322.6563"/><text fill="#000000" font-family="sans-serif" font-size="13" font-weight="bold" lengthAdjust="spacing" textLength="30" x="66.5" y="317.5903">[05]</text><text fill="#000000" font-family="sans-serif" font-size="13" lengthAdjust="spacing" textLength="374" x="100.5" y="317.5903">GET /holder-authenticate (Key Cloak Holder-Access-Token)</text><line style="stroke:#181818;stroke-width:1.0;" x1="838.5" x2="880.5" y1="351.7891" y2="351.7891"/><line style="stroke:#181818;stroke-width:1.0;" x1="880.5" x2="880.5" y1="351.7891" y2="364.7891"/><line style="stroke:#181818;stroke-width:1.0;" x1="839.5" x2="880.5" y1="364.7891" y2="364.7891"/><polygon fill="#181818" points="849.5,360.7891,839.5,364.7891,849.5,368.7891,845.5,364.7891" style="stroke:#181818;stroke-width:1.0;"/><text fill="#000000" font-family="sans-serif" font-size="13" font-weight="bold" lengthAdjust="spacing" textLength="30" x="845.5" y="346.7231">[06]</text><text fill="#000000" font-family="sans-serif" font-size="13" lengthAdjust="spacing" textLength="211" x="879.5" y="346.7231">pr&#252;ft Token und liest client-id aus</text><line style="stroke:#181818;stroke-width:1.0;" x1="838.5" x2="880.5" y1="393.9219" y2="393.9219"/><line style="stroke:#181818;stroke-width:1.0;" x1="880.5" x2="880.5" y1="393.9219" y2="406.9219"/><line style="stroke:#181818;stroke-width:1.0;" x1="839.5" x2="880.5" y1="406.9219" y2="406.9219"/><polygon fill="#181818" points="849.5,402.9219,839.5,406.9219,849.5,410.9219,845.5,406.9219" style="stroke:#181818;stroke-width:1.0;"/><text fill="#000000" font-family="sans-serif" font-size="13" font-weight="bold" lengthAdjust="spacing" textLength="30" x="845.5" y="388.856">[07]</text><text fill="#000000" font-family="sans-serif" font-size="13" lengthAdjust="spacing" textLength="183" x="879.5" y="388.856">erstellt Holder-Access-Token</text><polygon fill="#181818" points="70.5,432.0547,60.5,436.0547,70.5,440.0547,66.5,436.0547" style="stroke:#181818;stroke-width:1.0;"/><line style="stroke:#181818;stroke-width:1.0;" x1="64.5" x2="837.5" y1="436.0547" y2="436.0547"/><text fill="#000000" font-family="sans-serif" font-size="13" font-weight="bold" lengthAdjust="spacing" textLength="30" x="76.5" y="430.9888">[08]</text><text fill="#000000" font-family="sans-serif" font-size="13" lengthAdjust="spacing" textLength="135" x="110.5" y="430.9888">Holder-Access-Token</text><!--SRC=[XLBDJW8n4BxtAIPxWiIDd8an8Q9YF4Y0UD0OqzqTs0bBIzfPeY_cYHilvj2j_0LrJqqxt- -ihjcQUf6XW-GgktxjTDuIfJBx0JSLeM6rr8uffwKs3Cd0LWMw1BI7vgZG523J3UJvfP_U3Hv6QPySvcpTvp5Stk6fLtC9OtGhoZ4mXPlZmSb36YU6pgv8XA0lRZm7WDnzd30VguQfQKa7zfYumcWQjeAIZJoXgyrCgNYVNiU9BYpTPZt52x0Pp3RhYcc67f9OGDhBS_G-dTWvcYI1bNLIreoLqXN37CaSWCv0je1Icm9DWyZGRBvack4HFwLug-VdO0hasriDlNLX-3IUm2K7tbOUblPEnGN4eyVS8SDqitOWWZ12NIrWDDwLrIiMPCYpqqpMj8D8iwIzHcY3uJVsOynFXUWyOrNz4mfQcVHLIWtYiY2Cp2aLxUtsr4deiFiktDzAvh9Xqt6RkMQ4rfzYJRh0SK0MqpLsQlbZn87dlH7GjJyBt2NyRLaxm4ydvmQRcDy0]--></g></svg>