<?xml version="1.0" encoding="us-ascii" standalone="no"?><svg xmlns="http://www.w3.org/2000/svg" xmlns:xlink="http://www.w3.org/1999/xlink" contentStyleType="text/css" height="1590px" preserveAspectRatio="none" style="width:1809px;height:1590px;background:#FFFFFF;" version="1.1" viewBox="0 0 1809 1590" width="1809px" zoomAndPan="magnify"><defs/><g><text fill="#000000" font-family="sans-serif" font-size="14" font-weight="bold" lengthAdjust="spacing" textLength="354" x="723.5" y="27.9951">FHIR-VZD Authentisierung mit GesundheitsID</text><rect fill="#F5F5F5" height="1541.375" style="stroke:#181818;stroke-width:0.5;" width="757.5" x="647" y="43.2969"/><text fill="#000000" font-family="sans-serif" font-size="13" font-weight="bold" lengthAdjust="spacing" textLength="142" x="952.25" y="55.3638">VZD-FHIR-Directory</text><rect fill="#FFFFFF" height="29.1328" style="stroke:#181818;stroke-width:1.0;" width="10" x="105.5" y="741.6484"/><rect fill="#FFFFFF" height="96.1328" style="stroke:#181818;stroke-width:1.0;" width="10" x="105.5" y="806.9141"/><rect fill="#FFFFFF" height="841.3203" style="stroke:#181818;stroke-width:1.0;" width="10" x="696.5" y="198.2578"/><rect fill="#FFFFFF" height="29.1328" style="stroke:#181818;stroke-width:1.0;" width="10" x="701.5" y="452.4531"/><rect fill="#FFFFFF" height="59.1328" style="stroke:#181818;stroke-width:1.0;" width="10" x="701.5" y="575.9844"/><rect fill="#FFFFFF" height="166.5313" style="stroke:#181818;stroke-width:1.0;" width="10" x="701.5" y="873.0469"/><rect fill="#FFFFFF" height="113.3984" style="stroke:#181818;stroke-width:1.0;" width="10" x="696.5" y="1418.9766"/><rect fill="#FFFFFF" height="212.7344" style="stroke:#181818;stroke-width:1.0;" width="10" x="1093.5" y="1126.9766"/><rect fill="#FFFFFF" height="44.2656" style="stroke:#181818;stroke-width:1.0;" width="10" x="1339.5" y="1222.375"/><rect fill="#FFFFFF" height="29.1328" style="stroke:#181818;stroke-width:1.0;" width="10" x="1460.5" y="275.6563"/><rect fill="#FFFFFF" height="206.7969" style="stroke:#181818;stroke-width:1.0;" width="10" x="1460.5" y="399.1875"/><rect fill="#FFFFFF" height="148.5313" style="stroke:#181818;stroke-width:1.0;" width="10" x="1460.5" y="688.3828"/><rect fill="#FFFFFF" height="29.1328" style="stroke:#181818;stroke-width:1.0;" width="10" x="1460.5" y="932.1797"/><rect fill="#FFFFFF" height="29.1328" style="stroke:#181818;stroke-width:1.0;" width="10" x="1697.5" y="124.8594"/><rect fill="#FFFFFF" height="29.1328" style="stroke:#181818;stroke-width:1.0;" width="10" x="1697.5" y="333.9219"/><rect fill="#FFFFFF" height="29.1328" style="stroke:#181818;stroke-width:1.0;" width="10" x="1697.5" y="510.7188"/><rect fill="none" height="798.1875" style="stroke:#000000;stroke-width:1.5;" width="1782" x="10" y="213.2578"/><rect fill="none" height="133.6641" style="stroke:#000000;stroke-width:1.5;" width="1141" x="641" y="237.3906"/><rect fill="none" height="133.6641" style="stroke:#000000;stroke-width:1.5;" width="1141" x="641" y="414.1875"/><rect fill="none" height="194.7969" style="stroke:#000000;stroke-width:1.5;" width="1520.5" x="20" y="650.1172"/><rect fill="none" height="75.3984" style="stroke:#000000;stroke-width:1.5;" width="1500.5" x="30" y="703.3828"/><rect fill="none" height="163.6016" style="stroke:#000000;stroke-width:1.5;" width="1380.5" x="30" y="1184.1094"/><line style="stroke:#181818;stroke-width:0.5;stroke-dasharray:5.0,5.0;" x1="110" x2="110" y1="93.7266" y2="1550.375"/><line style="stroke:#181818;stroke-width:0.5;stroke-dasharray:5.0,5.0;" x1="701" x2="701" y1="93.7266" y2="1550.375"/><line style="stroke:#181818;stroke-width:0.5;stroke-dasharray:5.0,5.0;" x1="1098" x2="1098" y1="93.7266" y2="1550.375"/><line style="stroke:#181818;stroke-width:0.5;stroke-dasharray:5.0,5.0;" x1="1344.5" x2="1344.5" y1="93.7266" y2="1550.375"/><line style="stroke:#181818;stroke-width:0.5;stroke-dasharray:5.0,5.0;" x1="1465.5" x2="1465.5" y1="93.7266" y2="1550.375"/><line style="stroke:#181818;stroke-width:0.5;stroke-dasharray:5.0,5.0;" x1="1702" x2="1702" y1="93.7266" y2="1550.375"/><rect fill="#E2E2F0" height="30.2969" rx="2.5" ry="2.5" style="stroke:#181818;stroke-width:0.5;" width="141" x="40" y="62.4297"/><text fill="#000000" font-family="sans-serif" font-size="14" lengthAdjust="spacing" textLength="127" x="47" y="82.4248">Client Versicherter</text><rect fill="#E2E2F0" height="30.2969" rx="2.5" ry="2.5" style="stroke:#181818;stroke-width:0.5;" width="141" x="40" y="1549.375"/><text fill="#000000" font-family="sans-serif" font-size="14" lengthAdjust="spacing" textLength="127" x="47" y="1569.3701">Client Versicherter</text><rect fill="#E2E2F0" height="30.2969" rx="2.5" ry="2.5" style="stroke:#181818;stroke-width:0.5;" width="101" x="651" y="62.4297"/><text fill="#000000" font-family="sans-serif" font-size="14" lengthAdjust="spacing" textLength="87" x="658" y="82.4248">Auth-Service</text><rect fill="#E2E2F0" height="30.2969" rx="2.5" ry="2.5" style="stroke:#181818;stroke-width:0.5;" width="101" x="651" y="1549.375"/><text fill="#000000" font-family="sans-serif" font-size="14" lengthAdjust="spacing" textLength="87" x="658" y="1569.3701">Auth-Service</text><rect fill="#E2E2F0" height="30.2969" rx="2.5" ry="2.5" style="stroke:#181818;stroke-width:0.5;" width="87" x="1055" y="62.4297"/><text fill="#000000" font-family="sans-serif" font-size="14" lengthAdjust="spacing" textLength="73" x="1062" y="82.4248">FHIR-Proxy</text><rect fill="#E2E2F0" height="30.2969" rx="2.5" ry="2.5" style="stroke:#181818;stroke-width:0.5;" width="87" x="1055" y="1549.375"/><text fill="#000000" font-family="sans-serif" font-size="14" lengthAdjust="spacing" textLength="73" x="1062" y="1569.3701">FHIR-Proxy</text><rect fill="#E2E2F0" height="30.2969" rx="2.5" ry="2.5" style="stroke:#181818;stroke-width:0.5;" width="112" x="1288.5" y="62.4297"/><text fill="#000000" font-family="sans-serif" font-size="14" lengthAdjust="spacing" textLength="98" x="1295.5" y="82.4248">FHIR-Directory</text><rect fill="#E2E2F0" height="30.2969" rx="2.5" ry="2.5" style="stroke:#181818;stroke-width:0.5;" width="112" x="1288.5" y="1549.375"/><text fill="#000000" font-family="sans-serif" font-size="14" lengthAdjust="spacing" textLength="98" x="1295.5" y="1569.3701">FHIR-Directory</text><rect fill="#E2E2F0" height="30.2969" rx="2.5" ry="2.5" style="stroke:#181818;stroke-width:0.5;" width="110" x="1410.5" y="62.4297"/><text fill="#000000" font-family="sans-serif" font-size="14" lengthAdjust="spacing" textLength="96" x="1417.5" y="82.4248">sektoraler IDP</text><rect fill="#E2E2F0" height="30.2969" rx="2.5" ry="2.5" style="stroke:#181818;stroke-width:0.5;" width="110" x="1410.5" y="1549.375"/><text fill="#000000" font-family="sans-serif" font-size="14" lengthAdjust="spacing" textLength="96" x="1417.5" y="1569.3701">sektoraler IDP</text><rect fill="#E2E2F0" height="30.2969" rx="2.5" ry="2.5" style="stroke:#181818;stroke-width:0.5;" width="139" x="1633" y="62.4297"/><text fill="#000000" font-family="sans-serif" font-size="14" lengthAdjust="spacing" textLength="125" x="1640" y="82.4248">Federation Master</text><rect fill="#E2E2F0" height="30.2969" rx="2.5" ry="2.5" style="stroke:#181818;stroke-width:0.5;" width="139" x="1633" y="1549.375"/><text fill="#000000" font-family="sans-serif" font-size="14" lengthAdjust="spacing" textLength="125" x="1640" y="1569.3701">Federation Master</text><rect fill="#FFFFFF" height="29.1328" style="stroke:#181818;stroke-width:1.0;" width="10" x="105.5" y="741.6484"/><rect fill="#FFFFFF" height="96.1328" style="stroke:#181818;stroke-width:1.0;" width="10" x="105.5" y="806.9141"/><rect fill="#FFFFFF" height="841.3203" style="stroke:#181818;stroke-width:1.0;" width="10" x="696.5" y="198.2578"/><rect fill="#FFFFFF" height="29.1328" style="stroke:#181818;stroke-width:1.0;" width="10" x="701.5" y="452.4531"/><rect fill="#FFFFFF" height="59.1328" style="stroke:#181818;stroke-width:1.0;" width="10" x="701.5" y="575.9844"/><rect fill="#FFFFFF" height="166.5313" style="stroke:#181818;stroke-width:1.0;" width="10" x="701.5" y="873.0469"/><rect fill="#FFFFFF" height="113.3984" style="stroke:#181818;stroke-width:1.0;" width="10" x="696.5" y="1418.9766"/><rect fill="#FFFFFF" height="212.7344" style="stroke:#181818;stroke-width:1.0;" width="10" x="1093.5" y="1126.9766"/><rect fill="#FFFFFF" height="44.2656" style="stroke:#181818;stroke-width:1.0;" width="10" x="1339.5" y="1222.375"/><rect fill="#FFFFFF" height="29.1328" style="stroke:#181818;stroke-width:1.0;" width="10" x="1460.5" y="275.6563"/><rect fill="#FFFFFF" height="206.7969" style="stroke:#181818;stroke-width:1.0;" width="10" x="1460.5" y="399.1875"/><rect fill="#FFFFFF" height="148.5313" style="stroke:#181818;stroke-width:1.0;" width="10" x="1460.5" y="688.3828"/><rect fill="#FFFFFF" height="29.1328" style="stroke:#181818;stroke-width:1.0;" width="10" x="1460.5" y="932.1797"/><rect fill="#FFFFFF" height="29.1328" style="stroke:#181818;stroke-width:1.0;" width="10" x="1697.5" y="124.8594"/><rect fill="#FFFFFF" height="29.1328" style="stroke:#181818;stroke-width:1.0;" width="10" x="1697.5" y="333.9219"/><rect fill="#FFFFFF" height="29.1328" style="stroke:#181818;stroke-width:1.0;" width="10" x="1697.5" y="510.7188"/><polygon fill="#181818" points="1685.5,120.8594,1695.5,124.8594,1685.5,128.8594,1689.5,124.8594" style="stroke:#181818;stroke-width:1.0;"/><line style="stroke:#181818;stroke-width:1.0;" x1="701.5" x2="1691.5" y1="124.8594" y2="124.8594"/><text fill="#000000" font-family="sans-serif" font-size="13" font-weight="bold" lengthAdjust="spacing" textLength="30" x="708.5" y="119.7935">[01]</text><text fill="#000000" font-family="sans-serif" font-size="13" lengthAdjust="spacing" textLength="126" x="742.5" y="119.7935">getEntityStatement</text><polygon fill="#181818" points="712.5,149.9922,702.5,153.9922,712.5,157.9922,708.5,153.9922" style="stroke:#181818;stroke-width:1.0;"/><line style="stroke:#181818;stroke-width:1.0;stroke-dasharray:2.0,2.0;" x1="706.5" x2="1701.5" y1="153.9922" y2="153.9922"/><text fill="#000000" font-family="sans-serif" font-size="13" font-weight="bold" lengthAdjust="spacing" textLength="30" x="718.5" y="148.9263">[02]</text><text fill="#000000" font-family="sans-serif" font-size="13" lengthAdjust="spacing" textLength="231" x="752.5" y="148.9263">Response EntityStatement sekt. IDP</text><polygon fill="#181818" points="684.5,194.2578,694.5,198.2578,684.5,202.2578,688.5,198.2578" style="stroke:#181818;stroke-width:1.0;"/><line style="stroke:#181818;stroke-width:1.0;" x1="110.5" x2="690.5" y1="198.2578" y2="198.2578"/><text fill="#000000" font-family="sans-serif" font-size="13" font-weight="bold" lengthAdjust="spacing" textLength="30" x="117.5" y="185.6255">[03]</text><text fill="#000000" font-family="sans-serif" font-size="13" lengthAdjust="spacing" textLength="170" x="151.5" y="178.0591">AUTHORIZATION REQUEST</text><text fill="#000000" font-family="sans-serif" font-size="13" lengthAdjust="spacing" textLength="150" x="155.5" y="193.1919">iss= URL sektoraler IDP</text><path d="M10,213.2578 L80,213.2578 L80,220.3906 L70,230.3906 L10,230.3906 L10,213.2578 " fill="#EEEEEE" style="stroke:#000000;stroke-width:1.5;"/><rect fill="none" height="798.1875" style="stroke:#000000;stroke-width:1.5;" width="1782" x="10" y="213.2578"/><text fill="#000000" font-family="sans-serif" font-size="13" font-weight="bold" lengthAdjust="spacing" textLength="25" x="25" y="226.3247">par</text><text fill="#000000" font-family="sans-serif" font-size="11" font-weight="bold" lengthAdjust="spacing" textLength="103" x="95" y="225.4683">[GesundheitsID]</text><path d="M641,237.3906 L705,237.3906 L705,244.5234 L695,254.5234 L641,254.5234 L641,237.3906 " fill="#EEEEEE" style="stroke:#000000;stroke-width:1.5;"/><rect fill="none" height="133.6641" style="stroke:#000000;stroke-width:1.5;" width="1141" x="641" y="237.3906"/><text fill="#000000" font-family="sans-serif" font-size="13" font-weight="bold" lengthAdjust="spacing" textLength="19" x="656" y="250.4575">alt</text><text fill="#000000" font-family="sans-serif" font-size="11" font-weight="bold" lengthAdjust="spacing" textLength="63" x="720" y="249.6011">[optional]</text><polygon fill="#181818" points="1448.5,271.6563,1458.5,275.6563,1448.5,279.6563,1452.5,275.6563" style="stroke:#181818;stroke-width:1.0;"/><line style="stroke:#181818;stroke-width:1.0;" x1="706.5" x2="1454.5" y1="275.6563" y2="275.6563"/><text fill="#000000" font-family="sans-serif" font-size="13" font-weight="bold" lengthAdjust="spacing" textLength="30" x="713.5" y="270.5903">[04]</text><text fill="#000000" font-family="sans-serif" font-size="13" lengthAdjust="spacing" textLength="161" x="747.5" y="270.5903">getEntityStatement (IDP)</text><polygon fill="#181818" points="717.5,300.7891,707.5,304.7891,717.5,308.7891,713.5,304.7891" style="stroke:#181818;stroke-width:1.0;"/><line style="stroke:#181818;stroke-width:1.0;stroke-dasharray:2.0,2.0;" x1="711.5" x2="1464.5" y1="304.7891" y2="304.7891"/><text fill="#000000" font-family="sans-serif" font-size="13" font-weight="bold" lengthAdjust="spacing" textLength="30" x="723.5" y="299.7231">[05]</text><text fill="#000000" font-family="sans-serif" font-size="13" lengthAdjust="spacing" textLength="105" x="757.5" y="299.7231">EntityStatement</text><polygon fill="#181818" points="1685.5,329.9219,1695.5,333.9219,1685.5,337.9219,1689.5,333.9219" style="stroke:#181818;stroke-width:1.0;"/><line style="stroke:#181818;stroke-width:1.0;" x1="706.5" x2="1691.5" y1="333.9219" y2="333.9219"/><text fill="#000000" font-family="sans-serif" font-size="13" font-weight="bold" lengthAdjust="spacing" textLength="30" x="713.5" y="328.856">[06]</text><text fill="#000000" font-family="sans-serif" font-size="13" lengthAdjust="spacing" textLength="179" x="747.5" y="328.856">Fetch EntityStatement (IDP)</text><polygon fill="#181818" points="717.5,359.0547,707.5,363.0547,717.5,367.0547,713.5,363.0547" style="stroke:#181818;stroke-width:1.0;"/><line style="stroke:#181818;stroke-width:1.0;stroke-dasharray:2.0,2.0;" x1="711.5" x2="1701.5" y1="363.0547" y2="363.0547"/><text fill="#000000" font-family="sans-serif" font-size="13" font-weight="bold" lengthAdjust="spacing" textLength="30" x="723.5" y="357.9888">[07]</text><text fill="#000000" font-family="sans-serif" font-size="13" lengthAdjust="spacing" textLength="105" x="757.5" y="357.9888">EntityStatement</text><polygon fill="#181818" points="1448.5,395.1875,1458.5,399.1875,1448.5,403.1875,1452.5,399.1875" style="stroke:#181818;stroke-width:1.0;"/><line style="stroke:#181818;stroke-width:1.0;" x1="706.5" x2="1454.5" y1="399.1875" y2="399.1875"/><text fill="#000000" font-family="sans-serif" font-size="13" font-weight="bold" lengthAdjust="spacing" textLength="30" x="713.5" y="394.1216">[08]</text><text fill="#000000" font-family="sans-serif" font-size="13" lengthAdjust="spacing" textLength="209" x="747.5" y="394.1216">AUTHORIZATION REQUEST (PAR)</text><path d="M641,414.1875 L705,414.1875 L705,421.3203 L695,431.3203 L641,431.3203 L641,414.1875 " fill="#EEEEEE" style="stroke:#000000;stroke-width:1.5;"/><rect fill="none" height="133.6641" style="stroke:#000000;stroke-width:1.5;" width="1141" x="641" y="414.1875"/><text fill="#000000" font-family="sans-serif" font-size="13" font-weight="bold" lengthAdjust="spacing" textLength="19" x="656" y="427.2544">alt</text><text fill="#000000" font-family="sans-serif" font-size="11" font-weight="bold" lengthAdjust="spacing" textLength="63" x="720" y="426.3979">[optional]</text><polygon fill="#181818" points="722.5,448.4531,712.5,452.4531,722.5,456.4531,718.5,452.4531" style="stroke:#181818;stroke-width:1.0;"/><line style="stroke:#181818;stroke-width:1.0;" x1="716.5" x2="1459.5" y1="452.4531" y2="452.4531"/><text fill="#000000" font-family="sans-serif" font-size="13" font-weight="bold" lengthAdjust="spacing" textLength="30" x="728.5" y="447.3872">[09]</text><text fill="#000000" font-family="sans-serif" font-size="13" lengthAdjust="spacing" textLength="156" x="762.5" y="447.3872">getEntityStatement (RP)</text><polygon fill="#181818" points="1448.5,477.5859,1458.5,481.5859,1448.5,485.5859,1452.5,481.5859" style="stroke:#181818;stroke-width:1.0;"/><line style="stroke:#181818;stroke-width:1.0;stroke-dasharray:2.0,2.0;" x1="706.5" x2="1454.5" y1="481.5859" y2="481.5859"/><text fill="#000000" font-family="sans-serif" font-size="13" font-weight="bold" lengthAdjust="spacing" textLength="30" x="713.5" y="476.52">[10]</text><text fill="#000000" font-family="sans-serif" font-size="13" lengthAdjust="spacing" textLength="105" x="747.5" y="476.52">EntityStatement</text><polygon fill="#181818" points="1685.5,506.7188,1695.5,510.7188,1685.5,514.7188,1689.5,510.7188" style="stroke:#181818;stroke-width:1.0;"/><line style="stroke:#181818;stroke-width:1.0;" x1="1470.5" x2="1691.5" y1="510.7188" y2="510.7188"/><text fill="#000000" font-family="sans-serif" font-size="13" font-weight="bold" lengthAdjust="spacing" textLength="30" x="1477.5" y="505.6528">[11]</text><text fill="#000000" font-family="sans-serif" font-size="13" lengthAdjust="spacing" textLength="174" x="1511.5" y="505.6528">Fetch EntityStatement (RP)</text><polygon fill="#181818" points="1481.5,535.8516,1471.5,539.8516,1481.5,543.8516,1477.5,539.8516" style="stroke:#181818;stroke-width:1.0;"/><line style="stroke:#181818;stroke-width:1.0;stroke-dasharray:2.0,2.0;" x1="1475.5" x2="1701.5" y1="539.8516" y2="539.8516"/><text fill="#000000" font-family="sans-serif" font-size="13" font-weight="bold" lengthAdjust="spacing" textLength="30" x="1487.5" y="534.7856">[12]</text><text fill="#000000" font-family="sans-serif" font-size="13" lengthAdjust="spacing" textLength="105" x="1521.5" y="534.7856">EntityStatement</text><polygon fill="#181818" points="722.5,571.9844,712.5,575.9844,722.5,579.9844,718.5,575.9844" style="stroke:#181818;stroke-width:1.0;"/><line style="stroke:#181818;stroke-width:1.0;stroke-dasharray:2.0,2.0;" x1="716.5" x2="1459.5" y1="575.9844" y2="575.9844"/><text fill="#000000" font-family="sans-serif" font-size="13" font-weight="bold" lengthAdjust="spacing" textLength="30" x="728.5" y="570.9185">[13]</text><text fill="#000000" font-family="sans-serif" font-size="13" lengthAdjust="spacing" textLength="51" x="762.5" y="570.9185">URI-PAR</text><polygon fill="#181818" points="121.5,631.1172,111.5,635.1172,121.5,639.1172,117.5,635.1172" style="stroke:#181818;stroke-width:1.0;"/><line style="stroke:#181818;stroke-width:1.0;stroke-dasharray:2.0,2.0;" x1="115.5" x2="695.5" y1="635.1172" y2="635.1172"/><text fill="#000000" font-family="sans-serif" font-size="13" font-weight="bold" lengthAdjust="spacing" textLength="30" x="127.5" y="630.0513">[14]</text><text fill="#000000" font-family="sans-serif" font-size="13" lengthAdjust="spacing" textLength="235" x="161.5" y="630.0513">AUTHORIZATION REQUEST (URI-PAR)</text><path d="M20,650.1172 L84,650.1172 L84,657.25 L74,667.25 L20,667.25 L20,650.1172 " fill="#EEEEEE" style="stroke:#000000;stroke-width:1.5;"/><rect fill="none" height="194.7969" style="stroke:#000000;stroke-width:1.5;" width="1520.5" x="20" y="650.1172"/><text fill="#000000" font-family="sans-serif" font-size="13" font-weight="bold" lengthAdjust="spacing" textLength="19" x="35" y="663.1841">alt</text><text fill="#000000" font-family="sans-serif" font-size="11" font-weight="bold" lengthAdjust="spacing" textLength="190" x="99" y="662.3276">[Implementierungsspezifisch]</text><polygon fill="#181818" points="1448.5,684.3828,1458.5,688.3828,1448.5,692.3828,1452.5,688.3828" style="stroke:#181818;stroke-width:1.0;"/><line style="stroke:#181818;stroke-width:1.0;" x1="110.5" x2="1454.5" y1="688.3828" y2="688.3828"/><text fill="#000000" font-family="sans-serif" font-size="13" font-weight="bold" lengthAdjust="spacing" textLength="30" x="117.5" y="683.3169">[15]</text><text fill="#000000" font-family="sans-serif" font-size="13" lengthAdjust="spacing" textLength="235" x="151.5" y="683.3169">AUTHORIZATION REQUEST (URI-PAR)</text><path d="M30,703.3828 L94,703.3828 L94,710.5156 L84,720.5156 L30,720.5156 L30,703.3828 " fill="#EEEEEE" style="stroke:#000000;stroke-width:1.5;"/><rect fill="none" height="75.3984" style="stroke:#000000;stroke-width:1.5;" width="1500.5" x="30" y="703.3828"/><text fill="#000000" font-family="sans-serif" font-size="13" font-weight="bold" lengthAdjust="spacing" textLength="19" x="45" y="716.4497">alt</text><text fill="#000000" font-family="sans-serif" font-size="11" font-weight="bold" lengthAdjust="spacing" textLength="63" x="109" y="715.5933">[optional]</text><polygon fill="#181818" points="126.5,737.6484,116.5,741.6484,126.5,745.6484,122.5,741.6484" style="stroke:#181818;stroke-width:1.0;"/><line style="stroke:#181818;stroke-width:1.0;stroke-dasharray:2.0,2.0;" x1="120.5" x2="1459.5" y1="741.6484" y2="741.6484"/><text fill="#000000" font-family="sans-serif" font-size="13" font-weight="bold" lengthAdjust="spacing" textLength="30" x="132.5" y="736.5825">[16]</text><text fill="#000000" font-family="sans-serif" font-size="13" lengthAdjust="spacing" textLength="125" x="166.5" y="736.5825">Login, user consent</text><polygon fill="#181818" points="1448.5,766.7813,1458.5,770.7813,1448.5,774.7813,1452.5,770.7813" style="stroke:#181818;stroke-width:1.0;"/><line style="stroke:#181818;stroke-width:1.0;" x1="110.5" x2="1454.5" y1="770.7813" y2="770.7813"/><text fill="#000000" font-family="sans-serif" font-size="13" font-weight="bold" lengthAdjust="spacing" textLength="30" x="117.5" y="765.7153">[17]</text><text fill="#000000" font-family="sans-serif" font-size="13" lengthAdjust="spacing" textLength="131" x="151.5" y="765.7153">credentials, Consent</text><polygon fill="#181818" points="126.5,802.9141,116.5,806.9141,126.5,810.9141,122.5,806.9141" style="stroke:#181818;stroke-width:1.0;"/><line style="stroke:#181818;stroke-width:1.0;stroke-dasharray:2.0,2.0;" x1="120.5" x2="1459.5" y1="806.9141" y2="806.9141"/><text fill="#000000" font-family="sans-serif" font-size="13" font-weight="bold" lengthAdjust="spacing" textLength="30" x="132.5" y="801.8481">[18]</text><text fill="#000000" font-family="sans-serif" font-size="13" lengthAdjust="spacing" textLength="239" x="166.5" y="801.8481">Redirect to redirect URL, AUTH_CODE</text><polygon fill="#181818" points="689.5,869.0469,699.5,873.0469,689.5,877.0469,693.5,873.0469" style="stroke:#181818;stroke-width:1.0;"/><line style="stroke:#181818;stroke-width:1.0;" x1="115.5" x2="695.5" y1="873.0469" y2="873.0469"/><text fill="#000000" font-family="sans-serif" font-size="13" font-weight="bold" lengthAdjust="spacing" textLength="30" x="122.5" y="867.981">[19]</text><text fill="#000000" font-family="sans-serif" font-size="13" lengthAdjust="spacing" textLength="80" x="156.5" y="867.981">AUTH_CODE</text><polygon fill="#181818" points="1448.5,928.1797,1458.5,932.1797,1448.5,936.1797,1452.5,932.1797" style="stroke:#181818;stroke-width:1.0;"/><line style="stroke:#181818;stroke-width:1.0;" x1="711.5" x2="1454.5" y1="932.1797" y2="932.1797"/><text fill="#000000" font-family="sans-serif" font-size="13" font-weight="bold" lengthAdjust="spacing" textLength="30" x="718.5" y="927.1138">[20]</text><text fill="#000000" font-family="sans-serif" font-size="13" lengthAdjust="spacing" textLength="80" x="752.5" y="927.1138">AUTH_CODE</text><polygon fill="#181818" points="722.5,957.3125,712.5,961.3125,722.5,965.3125,718.5,961.3125" style="stroke:#181818;stroke-width:1.0;"/><line style="stroke:#181818;stroke-width:1.0;stroke-dasharray:2.0,2.0;" x1="716.5" x2="1464.5" y1="961.3125" y2="961.3125"/><text fill="#000000" font-family="sans-serif" font-size="13" font-weight="bold" lengthAdjust="spacing" textLength="30" x="728.5" y="956.2466">[21]</text><text fill="#000000" font-family="sans-serif" font-size="13" lengthAdjust="spacing" textLength="184" x="762.5" y="956.2466">ID_TOKEN, (ACCESS_TOKEN)</text><line style="stroke:#181818;stroke-width:1.0;" x1="711.5" x2="753.5" y1="990.4453" y2="990.4453"/><line style="stroke:#181818;stroke-width:1.0;" x1="753.5" x2="753.5" y1="990.4453" y2="1003.4453"/><line style="stroke:#181818;stroke-width:1.0;" x1="712.5" x2="753.5" y1="1003.4453" y2="1003.4453"/><polygon fill="#181818" points="722.5,999.4453,712.5,1003.4453,722.5,1007.4453,718.5,1003.4453" style="stroke:#181818;stroke-width:1.0;"/><text fill="#000000" font-family="sans-serif" font-size="13" font-weight="bold" lengthAdjust="spacing" textLength="30" x="718.5" y="985.3794">[22]</text><text fill="#000000" font-family="sans-serif" font-size="13" lengthAdjust="spacing" textLength="334" x="752.5" y="985.3794">Erzeuge search-ACCESS_TOKEN &amp; REFRESH_TOKEN</text><polygon fill="#181818" points="121.5,1035.5781,111.5,1039.5781,121.5,1043.5781,117.5,1039.5781" style="stroke:#181818;stroke-width:1.0;"/><line style="stroke:#181818;stroke-width:1.0;stroke-dasharray:2.0,2.0;" x1="115.5" x2="700.5" y1="1039.5781" y2="1039.5781"/><text fill="#000000" font-family="sans-serif" font-size="13" font-weight="bold" lengthAdjust="spacing" textLength="30" x="127.5" y="1034.5122">[23]</text><text fill="#000000" font-family="sans-serif" font-size="13" lengthAdjust="spacing" textLength="528" x="161.5" y="1034.5122">Response AUTHORIZATION REQUEST (search-ACCESS_TOKEN &amp; REFRESH_TOKEN)</text><rect fill="#EEEEEE" height="3" style="stroke:#EEEEEE;stroke-width:1.0;" width="1802" x="0" y="1068.1445"/><line style="stroke:#000000;stroke-width:1.0;" x1="0" x2="1802" y1="1068.1445" y2="1068.1445"/><line style="stroke:#000000;stroke-width:1.0;" x1="0" x2="1802" y1="1071.1445" y2="1071.1445"/><rect fill="#EEEEEE" height="23.1328" style="stroke:#000000;stroke-width:2.0;" width="157" x="822.5" y="1057.5781"/><text fill="#000000" font-family="sans-serif" font-size="13" font-weight="bold" lengthAdjust="spacing" textLength="138" x="828.5" y="1073.645">...fachlicher flow...</text><polygon fill="#181818" points="1081.5,1122.9766,1091.5,1126.9766,1081.5,1130.9766,1085.5,1126.9766" style="stroke:#181818;stroke-width:1.0;"/><line style="stroke:#181818;stroke-width:1.0;" x1="110.5" x2="1087.5" y1="1126.9766" y2="1126.9766"/><text fill="#000000" font-family="sans-serif" font-size="13" font-weight="bold" lengthAdjust="spacing" textLength="30" x="117.5" y="1114.3442">[24]</text><text fill="#000000" font-family="sans-serif" font-size="13" lengthAdjust="spacing" textLength="218" x="151.5" y="1106.7778">GET /psearch?... (Auth Header mit</text><text fill="#000000" font-family="sans-serif" font-size="13" lengthAdjust="spacing" textLength="156" x="151.5" y="1121.9106">search-ACCESS_TOKEN)</text><line style="stroke:#181818;stroke-width:1.0;" x1="1103.5" x2="1145.5" y1="1156.1094" y2="1156.1094"/><line style="stroke:#181818;stroke-width:1.0;" x1="1145.5" x2="1145.5" y1="1156.1094" y2="1169.1094"/><line style="stroke:#181818;stroke-width:1.0;" x1="1104.5" x2="1145.5" y1="1169.1094" y2="1169.1094"/><polygon fill="#181818" points="1114.5,1165.1094,1104.5,1169.1094,1114.5,1173.1094,1110.5,1169.1094" style="stroke:#181818;stroke-width:1.0;"/><text fill="#000000" font-family="sans-serif" font-size="13" font-weight="bold" lengthAdjust="spacing" textLength="30" x="1110.5" y="1151.0435">[25]</text><text fill="#000000" font-family="sans-serif" font-size="13" lengthAdjust="spacing" textLength="188" x="1144.5" y="1151.0435">pr&#252;fe search-ACCESS_TOKEN</text><path d="M30,1184.1094 L94,1184.1094 L94,1191.2422 L84,1201.2422 L30,1201.2422 L30,1184.1094 " fill="#EEEEEE" style="stroke:#000000;stroke-width:1.5;"/><rect fill="none" height="163.6016" style="stroke:#000000;stroke-width:1.5;" width="1380.5" x="30" y="1184.1094"/><text fill="#000000" font-family="sans-serif" font-size="13" font-weight="bold" lengthAdjust="spacing" textLength="19" x="45" y="1197.1763">alt</text><text fill="#000000" font-family="sans-serif" font-size="11" font-weight="bold" lengthAdjust="spacing" textLength="208" x="109" y="1196.3198">[search-ACCESS_TOKEN is valid]</text><polygon fill="#181818" points="1327.5,1218.375,1337.5,1222.375,1327.5,1226.375,1331.5,1222.375" style="stroke:#181818;stroke-width:1.0;"/><line style="stroke:#181818;stroke-width:1.0;" x1="1103.5" x2="1333.5" y1="1222.375" y2="1222.375"/><text fill="#000000" font-family="sans-serif" font-size="13" font-weight="bold" lengthAdjust="spacing" textLength="30" x="1110.5" y="1217.3091">[26]</text><text fill="#000000" font-family="sans-serif" font-size="13" lengthAdjust="spacing" textLength="52" x="1144.5" y="1217.3091">GET /?...</text><polygon fill="#181818" points="1114.5,1262.6406,1104.5,1266.6406,1114.5,1270.6406,1110.5,1266.6406" style="stroke:#181818;stroke-width:1.0;"/><line style="stroke:#181818;stroke-width:1.0;stroke-dasharray:2.0,2.0;" x1="1108.5" x2="1343.5" y1="1266.6406" y2="1266.6406"/><text fill="#000000" font-family="sans-serif" font-size="13" font-weight="bold" lengthAdjust="spacing" textLength="30" x="1120.5" y="1254.0083">[27]</text><text fill="#000000" font-family="sans-serif" font-size="13" lengthAdjust="spacing" textLength="82" x="1154.5" y="1246.4419">HTTP 200 OK</text><text fill="#000000" font-family="sans-serif" font-size="13" lengthAdjust="spacing" textLength="115" x="1154.5" y="1261.5747">(Result Body json)</text><polygon fill="#181818" points="121.5,1291.7734,111.5,1295.7734,121.5,1299.7734,117.5,1295.7734" style="stroke:#181818;stroke-width:1.0;"/><line style="stroke:#181818;stroke-width:1.0;stroke-dasharray:2.0,2.0;" x1="115.5" x2="1092.5" y1="1295.7734" y2="1295.7734"/><text fill="#000000" font-family="sans-serif" font-size="13" font-weight="bold" lengthAdjust="spacing" textLength="30" x="127.5" y="1290.7075">[28]</text><text fill="#000000" font-family="sans-serif" font-size="13" lengthAdjust="spacing" textLength="201" x="161.5" y="1290.7075">HTTP 200 OK (Result Body json)</text><line style="stroke:#000000;stroke-width:1.0;stroke-dasharray:2.0,2.0;" x1="30" x2="1410.5" y1="1304.7734" y2="1304.7734"/><text fill="#000000" font-family="sans-serif" font-size="11" font-weight="bold" lengthAdjust="spacing" textLength="220" x="35" y="1314.9839">[search-ACCESS_TOKEN is invalid]</text><polygon fill="#181818" points="121.5,1335.7109,111.5,1339.7109,121.5,1343.7109,117.5,1339.7109" style="stroke:#181818;stroke-width:1.0;"/><line style="stroke:#181818;stroke-width:1.0;stroke-dasharray:2.0,2.0;" x1="115.5" x2="1097.5" y1="1339.7109" y2="1339.7109"/><text fill="#000000" font-family="sans-serif" font-size="13" font-weight="bold" lengthAdjust="spacing" textLength="30" x="127.5" y="1334.645">[29]</text><text fill="#000000" font-family="sans-serif" font-size="13" lengthAdjust="spacing" textLength="60" x="161.5" y="1334.645">HTTP 401</text><rect fill="#EEEEEE" height="3" style="stroke:#EEEEEE;stroke-width:1.0;" width="1802" x="0" y="1375.2773"/><line style="stroke:#000000;stroke-width:1.0;" x1="0" x2="1802" y1="1375.2773" y2="1375.2773"/><line style="stroke:#000000;stroke-width:1.0;" x1="0" x2="1802" y1="1378.2773" y2="1378.2773"/><rect fill="#EEEEEE" height="23.1328" style="stroke:#000000;stroke-width:2.0;" width="305" x="748.5" y="1364.7109"/><text fill="#000000" font-family="sans-serif" font-size="13" font-weight="bold" lengthAdjust="spacing" textLength="286" x="754.5" y="1380.7778">...search-ACCESS_TOKEN abgelaufen...</text><polygon fill="#181818" points="684.5,1414.9766,694.5,1418.9766,684.5,1422.9766,688.5,1418.9766" style="stroke:#181818;stroke-width:1.0;"/><line style="stroke:#181818;stroke-width:1.0;" x1="110.5" x2="690.5" y1="1418.9766" y2="1418.9766"/><text fill="#000000" font-family="sans-serif" font-size="13" font-weight="bold" lengthAdjust="spacing" textLength="30" x="117.5" y="1413.9106">[30]</text><text fill="#000000" font-family="sans-serif" font-size="13" lengthAdjust="spacing" textLength="108" x="151.5" y="1413.9106">REFRESH_TOKEN</text><line style="stroke:#181818;stroke-width:1.0;" x1="706.5" x2="748.5" y1="1448.1094" y2="1448.1094"/><line style="stroke:#181818;stroke-width:1.0;" x1="748.5" x2="748.5" y1="1448.1094" y2="1461.1094"/><line style="stroke:#181818;stroke-width:1.0;" x1="707.5" x2="748.5" y1="1461.1094" y2="1461.1094"/><polygon fill="#181818" points="717.5,1457.1094,707.5,1461.1094,717.5,1465.1094,713.5,1461.1094" style="stroke:#181818;stroke-width:1.0;"/><text fill="#000000" font-family="sans-serif" font-size="13" font-weight="bold" lengthAdjust="spacing" textLength="30" x="713.5" y="1443.0435">[31]</text><text fill="#000000" font-family="sans-serif" font-size="13" lengthAdjust="spacing" textLength="145" x="747.5" y="1443.0435">Pr&#252;fe REFRESH_TOKEN</text><line style="stroke:#181818;stroke-width:1.0;" x1="706.5" x2="748.5" y1="1490.2422" y2="1490.2422"/><line style="stroke:#181818;stroke-width:1.0;" x1="748.5" x2="748.5" y1="1490.2422" y2="1503.2422"/><line style="stroke:#181818;stroke-width:1.0;" x1="707.5" x2="748.5" y1="1503.2422" y2="1503.2422"/><polygon fill="#181818" points="717.5,1499.2422,707.5,1503.2422,717.5,1507.2422,713.5,1503.2422" style="stroke:#181818;stroke-width:1.0;"/><text fill="#000000" font-family="sans-serif" font-size="13" font-weight="bold" lengthAdjust="spacing" textLength="30" x="713.5" y="1485.1763">[32]</text><text fill="#000000" font-family="sans-serif" font-size="13" lengthAdjust="spacing" textLength="334" x="747.5" y="1485.1763">Erzeuge search-ACCESS_TOKEN &amp; REFRESH_TOKEN</text><polygon fill="#181818" points="121.5,1528.375,111.5,1532.375,121.5,1536.375,117.5,1532.375" style="stroke:#181818;stroke-width:1.0;"/><line style="stroke:#181818;stroke-width:1.0;stroke-dasharray:2.0,2.0;" x1="115.5" x2="700.5" y1="1532.375" y2="1532.375"/><text fill="#000000" font-family="sans-serif" font-size="13" font-weight="bold" lengthAdjust="spacing" textLength="30" x="127.5" y="1527.3091">[33]</text><text fill="#000000" font-family="sans-serif" font-size="13" lengthAdjust="spacing" textLength="354" x="161.5" y="1527.3091">Response (search-ACCESS_TOKEN &amp; REFRESH_TOKEN)</text></g></svg>