<svg xmlns="http://www.w3.org/2000/svg" xmlns:xlink="http://www.w3.org/1999/xlink" contentStyleType="text/css" height="1069.7917px" preserveAspectRatio="none" style="width:1937px;height:1069px;background:#FFFFFF;" version="1.1" viewBox="0 0 1937 1069" width="1937.5px" zoomAndPan="magnify"><defs/><g><rect fill="#F5F5F5" height="1057.3649" style="stroke:#181818;stroke-width:0.5208333333333334;" width="639.0523" x="1069.9524" y="6.25"/><text fill="#000000" font-family="sans-serif" font-size="16.6667" font-weight="bold" lengthAdjust="spacing" textLength="138.737" x="1317.7528" y="21.7204">FHIR-Directory</text><text fill="#000000" font-family="sans-serif" font-size="13.5417" font-weight="bold" lengthAdjust="spacing" textLength="4.7145" x="1456.4898" y="22.4574">&#160;</text><rect fill="#FFFFFF" height="845.1497" style="stroke:#181818;stroke-width:1.0416666666666667;" width="10.4167" x="556.017" y="117.1143"/><rect fill="#FFFFFF" height="248.6816" style="stroke:#181818;stroke-width:1.0416666666666667;" width="10.4167" x="1601.0997" y="172.5993"/><rect fill="#FFFFFF" height="289.8763" style="stroke:#181818;stroke-width:1.0416666666666667;" width="10.4167" x="1601.0997" y="627.4577"/><rect fill="none" height="304.1667" style="stroke:#000000;stroke-width:1.5625;" width="1403.2873" x="474.2366" y="132.7393"/><rect fill="none" height="197.5016" style="stroke:#000000;stroke-width:1.5625;" width="1382.4539" x="484.6532" y="232.1126"/><rect fill="none" height="345.3613" style="stroke:#000000;stroke-width:1.5625;" width="1457.8705" x="474.2366" y="587.5977"/><rect fill="none" height="238.6963" style="stroke:#000000;stroke-width:1.5625;" width="1437.0372" x="484.6532" y="686.971"/><line style="stroke:#181818;stroke-width:0.5208333333333334;stroke-dasharray:5.0,5.0;" x1="32.2917" x2="32.2917" y1="84.6842" y2="981.014"/><line style="stroke:#181818;stroke-width:0.5208333333333334;stroke-dasharray:5.0,5.0;" x1="560.6949" x2="560.6949" y1="84.6842" y2="981.014"/><line style="stroke:#181818;stroke-width:0.5208333333333334;stroke-dasharray:5.0,5.0;" x1="1120.9941" x2="1120.9941" y1="84.6842" y2="981.014"/><line style="stroke:#181818;stroke-width:0.5208333333333334;stroke-dasharray:5.0,5.0;" x1="1239.5589" x2="1239.5589" y1="84.6842" y2="981.014"/><line style="stroke:#181818;stroke-width:0.5208333333333334;stroke-dasharray:5.0,5.0;" x1="1605.6946" x2="1605.6946" y1="84.6842" y2="981.014"/><text fill="#000000" font-family="sans-serif" font-size="14.5833" lengthAdjust="spacing" textLength="48.4924" x="5.2083" y="81.2449">Nutzer</text><ellipse cx="32.5795" cy="14.0625" fill="#E3E3E3" rx="8.3333" ry="8.3333" style="stroke:#181818;stroke-width:0.5208333333333334;"/><path d="M32.5795,22.3958 L32.5795,50.5208 M19.0379,30.7292 L46.1212,30.7292 M32.5795,50.5208 L19.0379,66.1458 M32.5795,50.5208 L46.1212,66.1458 " fill="none" style="stroke:#181818;stroke-width:0.5208333333333334;"/><text fill="#000000" font-family="sans-serif" font-size="14.5833" lengthAdjust="spacing" textLength="48.4924" x="5.2083" y="993.5089">Nutzer</text><ellipse cx="32.5795" cy="1005.8024" fill="#E3E3E3" rx="8.3333" ry="8.3333" style="stroke:#181818;stroke-width:0.5208333333333334;"/><path d="M32.5795,1014.1357 L32.5795,1042.2607 M19.0379,1022.4691 L46.1212,1022.4691 M32.5795,1042.2607 L19.0379,1057.8857 M32.5795,1042.2607 L46.1212,1057.8857 " fill="none" style="stroke:#181818;stroke-width:0.5208333333333334;"/><rect fill="#E3E3E3" height="31.5592" rx="2.6042" ry="2.6042" style="stroke:#181818;stroke-width:0.5208333333333334;" width="132.311" x="495.0699" y="52.0833"/><text fill="#000000" font-family="sans-serif" font-size="14.5833" lengthAdjust="spacing" textLength="117.7277" x="502.3616" y="72.9116">FHIR-VZD-Client</text><rect fill="#E3E3E3" height="31.5592" rx="2.6042" ry="2.6042" style="stroke:#181818;stroke-width:0.5208333333333334;" width="132.311" x="495.0699" y="979.9723"/><text fill="#000000" font-family="sans-serif" font-size="14.5833" lengthAdjust="spacing" textLength="117.7277" x="502.3616" y="1000.8006">FHIR-VZD-Client</text><rect fill="#E3E3E3" height="31.5592" rx="2.6042" ry="2.6042" style="stroke:#181818;stroke-width:0.5208333333333334;" width="94.6065" x="1074.1191" y="52.0833"/><text fill="#000000" font-family="sans-serif" font-size="14.5833" lengthAdjust="spacing" textLength="80.0232" x="1081.4107" y="72.9116">FHIR-Proxy</text><rect fill="#E3E3E3" height="31.5592" rx="2.6042" ry="2.6042" style="stroke:#181818;stroke-width:0.5208333333333334;" width="94.6065" x="1074.1191" y="979.9723"/><text fill="#000000" font-family="sans-serif" font-size="14.5833" lengthAdjust="spacing" textLength="80.0232" x="1081.4107" y="1000.8006">FHIR-Proxy</text><rect fill="#E3E3E3" height="31.5592" rx="2.6042" ry="2.6042" style="stroke:#181818;stroke-width:0.5208333333333334;" width="121.167" x="1179.1423" y="52.0833"/><text fill="#000000" font-family="sans-serif" font-size="14.5833" lengthAdjust="spacing" textLength="106.5837" x="1186.4339" y="72.9116">FHIR-Directory</text><rect fill="#E3E3E3" height="31.5592" rx="2.6042" ry="2.6042" style="stroke:#181818;stroke-width:0.5208333333333334;" width="121.167" x="1179.1423" y="979.9723"/><text fill="#000000" font-family="sans-serif" font-size="14.5833" lengthAdjust="spacing" textLength="106.5837" x="1186.4339" y="1000.8006">FHIR-Directory</text><rect fill="#E3E3E3" height="31.5592" rx="2.6042" ry="2.6042" style="stroke:#181818;stroke-width:0.5208333333333334;" width="197.0601" x="1507.7779" y="52.0833"/><text fill="#000000" font-family="sans-serif" font-size="14.5833" lengthAdjust="spacing" textLength="182.4768" x="1515.0696" y="72.9116">FHIR-VZD-Administration</text><rect fill="#E3E3E3" height="31.5592" rx="2.6042" ry="2.6042" style="stroke:#181818;stroke-width:0.5208333333333334;" width="197.0601" x="1507.7779" y="979.9723"/><text fill="#000000" font-family="sans-serif" font-size="14.5833" lengthAdjust="spacing" textLength="182.4768" x="1515.0696" y="1000.8006">FHIR-VZD-Administration</text><rect fill="#FFFFFF" height="845.1497" style="stroke:#181818;stroke-width:1.0416666666666667;" width="10.4167" x="556.017" y="117.1143"/><rect fill="#FFFFFF" height="248.6816" style="stroke:#181818;stroke-width:1.0416666666666667;" width="10.4167" x="1601.0997" y="172.5993"/><rect fill="#FFFFFF" height="289.8763" style="stroke:#181818;stroke-width:1.0416666666666667;" width="10.4167" x="1601.0997" y="627.4577"/><polygon fill="#181818" points="543.517,112.9476,553.9337,117.1143,543.517,121.2809,547.6837,117.1143" style="stroke:#181818;stroke-width:1.0416666666666667;"/><line style="stroke:#181818;stroke-width:1.0416666666666667;" x1="32.5795" x2="549.767" y1="117.1143" y2="117.1143"/><text fill="#000000" font-family="sans-serif" font-size="13.5417" font-weight="bold" lengthAdjust="spacing" textLength="31.2225" x="39.8712" y="111.8373">[01]</text><text fill="#000000" font-family="sans-serif" font-size="13.5417" lengthAdjust="spacing" textLength="234.2087" x="75.2604" y="111.8373">&#214;ffne Administration GUI im Client</text><path d="M474.2366,132.7393 L1052.0864,132.7393 L1052.0864,140.1693 L1041.6697,150.5859 L474.2366,150.5859 L474.2366,132.7393 " fill="#EEEEEE" style="stroke:#000000;stroke-width:1.5625;"/><rect fill="none" height="304.1667" style="stroke:#000000;stroke-width:1.5625;" width="1403.2873" x="474.2366" y="132.7393"/><text fill="#000000" font-family="sans-serif" font-size="13.5417" font-weight="bold" lengthAdjust="spacing" textLength="530.9748" x="489.8616" y="146.3506">Lese alle Verlinkungsanfragen, die auf Approval durch Nutzer warten</text><polygon fill="#181818" points="1588.5997,168.4326,1599.0163,172.5993,1588.5997,176.766,1592.7663,172.5993" style="stroke:#181818;stroke-width:1.0416666666666667;"/><line style="stroke:#181818;stroke-width:1.0416666666666667;" x1="566.4337" x2="1594.8497" y1="172.5993" y2="172.5993"/><text fill="#000000" font-family="sans-serif" font-size="13.5417" font-weight="bold" lengthAdjust="spacing" textLength="31.2225" x="573.7254" y="167.3223">[02]</text><text fill="#000000" font-family="sans-serif" font-size="13.5417" lengthAdjust="spacing" textLength="193.0812" x="609.1146" y="167.3223">getPersonInstitutionLinks {}</text><line style="stroke:#181818;stroke-width:1.0416666666666667;" x1="1611.5163" x2="1655.2663" y1="202.946" y2="202.946"/><line style="stroke:#181818;stroke-width:1.0416666666666667;" x1="1655.2663" x2="1655.2663" y1="202.946" y2="216.4876"/><line style="stroke:#181818;stroke-width:1.0416666666666667;" x1="1612.558" x2="1655.2663" y1="216.4876" y2="216.4876"/><polygon fill="#181818" points="1622.9747,212.321,1612.558,216.4876,1622.9747,220.6543,1618.808,216.4876" style="stroke:#181818;stroke-width:1.0416666666666667;"/><text fill="#000000" font-family="sans-serif" font-size="13.5417" font-weight="bold" lengthAdjust="spacing" textLength="31.2225" x="1618.808" y="197.669">[03]</text><text fill="#000000" font-family="sans-serif" font-size="13.5417" lengthAdjust="spacing" textLength="170.8577" x="1654.1972" y="197.669">pr&#252;fe owner-accesstoken</text><path d="M484.6532,232.1126 L551.7812,232.1126 L551.7812,239.5426 L541.3645,249.9593 L484.6532,249.9593 L484.6532,232.1126 " fill="#EEEEEE" style="stroke:#000000;stroke-width:1.5625;"/><rect fill="none" height="197.5016" style="stroke:#000000;stroke-width:1.5625;" width="1382.4539" x="484.6532" y="232.1126"/><text fill="#000000" font-family="sans-serif" font-size="13.5417" font-weight="bold" lengthAdjust="spacing" textLength="20.253" x="500.2782" y="245.724">alt</text><text fill="#000000" font-family="sans-serif" font-size="11.4583" font-weight="bold" lengthAdjust="spacing" textLength="140.0848" x="567.4062" y="244.8318">[accesstoken is valid]</text><line style="stroke:#181818;stroke-width:1.0416666666666667;" x1="1611.5163" x2="1655.2663" y1="271.9727" y2="271.9727"/><line style="stroke:#181818;stroke-width:1.0416666666666667;" x1="1655.2663" x2="1655.2663" y1="271.9727" y2="285.5143"/><line style="stroke:#181818;stroke-width:1.0416666666666667;" x1="1612.558" x2="1655.2663" y1="285.5143" y2="285.5143"/><polygon fill="#181818" points="1622.9747,281.3477,1612.558,285.5143,1622.9747,289.681,1618.808,285.5143" style="stroke:#181818;stroke-width:1.0416666666666667;"/><text fill="#000000" font-family="sans-serif" font-size="13.5417" font-weight="bold" lengthAdjust="spacing" textLength="31.2225" x="1618.808" y="266.6957">[04]</text><text fill="#000000" font-family="sans-serif" font-size="13.5417" lengthAdjust="spacing" textLength="189.9933" x="1654.1972" y="266.6957">Lesen der Verlinkungsdaten</text><polygon fill="#181818" points="577.892,327.4577,567.4754,331.6243,577.892,335.791,573.7254,331.6243" style="stroke:#181818;stroke-width:1.0416666666666667;"/><line style="stroke:#181818;stroke-width:1.0416666666666667;stroke-dasharray:2.0,2.0;" x1="571.642" x2="1600.058" y1="331.6243" y2="331.6243"/><text fill="#000000" font-family="sans-serif" font-size="13.5417" font-weight="bold" lengthAdjust="spacing" textLength="31.2225" x="584.142" y="318.4657">[05]</text><text fill="#000000" font-family="sans-serif" font-size="13.5417" lengthAdjust="spacing" textLength="88.887" x="619.5313" y="310.584">HTTP 200 OK</text><text fill="#000000" font-family="sans-serif" font-size="13.5417" lengthAdjust="spacing" textLength="123.495" x="619.5313" y="326.3474">(Result Body json)</text><line style="stroke:#181818;stroke-width:1.0416666666666667;" x1="566.4337" x2="610.1837" y1="361.971" y2="361.971"/><line style="stroke:#181818;stroke-width:1.0416666666666667;" x1="610.1837" x2="610.1837" y1="361.971" y2="375.5127"/><line style="stroke:#181818;stroke-width:1.0416666666666667;" x1="567.4754" x2="610.1837" y1="375.5127" y2="375.5127"/><polygon fill="#181818" points="577.892,371.346,567.4754,375.5127,577.892,379.6794,573.7254,375.5127" style="stroke:#181818;stroke-width:1.0416666666666667;"/><text fill="#000000" font-family="sans-serif" font-size="13.5417" font-weight="bold" lengthAdjust="spacing" textLength="31.2225" x="573.7254" y="356.694">[06]</text><text fill="#000000" font-family="sans-serif" font-size="13.5417" lengthAdjust="spacing" textLength="489.3911" x="609.1146" y="356.694">Filtern nach Verlinkungsanfragen, die auf Approval durch Nutzer warten</text><line style="stroke:#000000;stroke-width:1.0416666666666667;stroke-dasharray:2.0,2.0;" x1="484.6532" x2="1867.1071" y1="384.8877" y2="384.8877"/><text fill="#000000" font-family="sans-serif" font-size="11.4583" font-weight="bold" lengthAdjust="spacing" textLength="196.9625" x="489.8616" y="395.5236">[owner-accesstoken is invalid]</text><polygon fill="#181818" points="577.892,417.1143,567.4754,421.2809,577.892,425.4476,573.7254,421.2809" style="stroke:#181818;stroke-width:1.0416666666666667;"/><line style="stroke:#181818;stroke-width:1.0416666666666667;stroke-dasharray:2.0,2.0;" x1="571.642" x2="1605.2663" y1="421.2809" y2="421.2809"/><text fill="#000000" font-family="sans-serif" font-size="13.5417" font-weight="bold" lengthAdjust="spacing" textLength="31.2225" x="584.142" y="416.0039">[07]</text><text fill="#000000" font-family="sans-serif" font-size="13.5417" lengthAdjust="spacing" textLength="65.0436" x="619.5313" y="416.0039">HTTP 401</text><polygon fill="#181818" points="44.0379,477.8076,33.6212,481.9743,44.0379,486.141,39.8712,481.9743" style="stroke:#181818;stroke-width:1.0416666666666667;"/><line style="stroke:#181818;stroke-width:1.0416666666666667;stroke-dasharray:2.0,2.0;" x1="37.7879" x2="554.9754" y1="481.9743" y2="481.9743"/><text fill="#000000" font-family="sans-serif" font-size="13.5417" font-weight="bold" lengthAdjust="spacing" textLength="31.2225" x="50.2879" y="468.8156">[08]</text><text fill="#000000" font-family="sans-serif" font-size="13.5417" lengthAdjust="spacing" textLength="463.0483" x="85.6771" y="460.9339">Anzeige Verlinkungsanfragen, die auf Approval durch Nutzer warten</text><text fill="#000000" font-family="sans-serif" font-size="13.5417" lengthAdjust="spacing" textLength="411.7711" x="85.6771" y="476.6973">(kann auch nur ein Hinweis auf offene Anfragen im GUI sein)</text><line style="stroke:#181818;stroke-width:1.0416666666666667;" x1="32.5795" x2="76.3295" y1="512.321" y2="512.321"/><line style="stroke:#181818;stroke-width:1.0416666666666667;" x1="76.3295" x2="76.3295" y1="512.321" y2="525.8626"/><line style="stroke:#181818;stroke-width:1.0416666666666667;" x1="33.6212" x2="76.3295" y1="525.8626" y2="525.8626"/><polygon fill="#181818" points="44.0379,521.696,33.6212,525.8626,44.0379,530.0293,39.8712,525.8626" style="stroke:#181818;stroke-width:1.0416666666666667;"/><text fill="#000000" font-family="sans-serif" font-size="13.5417" font-weight="bold" lengthAdjust="spacing" textLength="31.2225" x="39.8712" y="507.044">[09]</text><text fill="#000000" font-family="sans-serif" font-size="13.5417" lengthAdjust="spacing" textLength="441.7109" x="75.2604" y="507.044">Auswahl der zu Verlinkungsanfragen, die best&#228;tigt werden sollen</text><polygon fill="#181818" points="543.517,567.806,553.9337,571.9727,543.517,576.1393,547.6837,571.9727" style="stroke:#181818;stroke-width:1.0416666666666667;"/><line style="stroke:#181818;stroke-width:1.0416666666666667;" x1="32.5795" x2="549.767" y1="571.9727" y2="571.9727"/><text fill="#000000" font-family="sans-serif" font-size="13.5417" font-weight="bold" lengthAdjust="spacing" textLength="31.2225" x="39.8712" y="558.814">[10]</text><text fill="#000000" font-family="sans-serif" font-size="13.5417" lengthAdjust="spacing" textLength="139.3443" x="75.2604" y="550.9323">Verlinkungsapproval</text><text fill="#000000" font-family="sans-serif" font-size="13.5417" lengthAdjust="spacing" textLength="252.3392" x="75.2604" y="566.6957">mit selektierten Verlinkungsanfragen</text><path d="M474.2366,587.5977 L680.8741,587.5977 L680.8741,595.0277 L670.4575,605.4443 L474.2366,605.4443 L474.2366,587.5977 " fill="#EEEEEE" style="stroke:#000000;stroke-width:1.5625;"/><rect fill="none" height="345.3613" style="stroke:#000000;stroke-width:1.5625;" width="1457.8705" x="474.2366" y="587.5977"/><text fill="#000000" font-family="sans-serif" font-size="13.5417" font-weight="bold" lengthAdjust="spacing" textLength="159.7626" x="489.8616" y="601.209">VerlinkungsApproval</text><polygon fill="#181818" points="1588.5997,623.291,1599.0163,627.4577,1588.5997,631.6243,1592.7663,627.4577" style="stroke:#181818;stroke-width:1.0416666666666667;"/><line style="stroke:#181818;stroke-width:1.0416666666666667;" x1="566.4337" x2="1594.8497" y1="627.4577" y2="627.4577"/><text fill="#000000" font-family="sans-serif" font-size="13.5417" font-weight="bold" lengthAdjust="spacing" textLength="31.2225" x="573.7254" y="622.1807">[11]</text><text fill="#000000" font-family="sans-serif" font-size="13.5417" lengthAdjust="spacing" textLength="231.8349" x="609.1146" y="622.1807">approvePersonInstitutionLink {id}</text><line style="stroke:#181818;stroke-width:1.0416666666666667;" x1="1611.5163" x2="1655.2663" y1="657.8044" y2="657.8044"/><line style="stroke:#181818;stroke-width:1.0416666666666667;" x1="1655.2663" x2="1655.2663" y1="657.8044" y2="671.346"/><line style="stroke:#181818;stroke-width:1.0416666666666667;" x1="1612.558" x2="1655.2663" y1="671.346" y2="671.346"/><polygon fill="#181818" points="1622.9747,667.1794,1612.558,671.346,1622.9747,675.5127,1618.808,671.346" style="stroke:#181818;stroke-width:1.0416666666666667;"/><text fill="#000000" font-family="sans-serif" font-size="13.5417" font-weight="bold" lengthAdjust="spacing" textLength="31.2225" x="1618.808" y="652.5274">[12]</text><text fill="#000000" font-family="sans-serif" font-size="13.5417" lengthAdjust="spacing" textLength="170.8577" x="1654.1972" y="652.5274">pr&#252;fe owner-accesstoken</text><path d="M484.6532,686.971 L551.7812,686.971 L551.7812,694.401 L541.3645,704.8177 L484.6532,704.8177 L484.6532,686.971 " fill="#EEEEEE" style="stroke:#000000;stroke-width:1.5625;"/><rect fill="none" height="238.6963" style="stroke:#000000;stroke-width:1.5625;" width="1437.0372" x="484.6532" y="686.971"/><text fill="#000000" font-family="sans-serif" font-size="13.5417" font-weight="bold" lengthAdjust="spacing" textLength="20.253" x="500.2782" y="700.5824">alt</text><text fill="#000000" font-family="sans-serif" font-size="11.4583" font-weight="bold" lengthAdjust="spacing" textLength="134.848" x="567.4062" y="699.6902">[accesstoken is valid</text><text fill="#000000" font-family="sans-serif" font-size="11.4583" font-weight="bold" lengthAdjust="spacing" textLength="628.6418" x="567.4062" y="713.0285">&amp; Verlinkungsanfrage wartet auf Approval durch den Nutzer (telematikID aus dem accesstoken)]</text><line style="stroke:#181818;stroke-width:1.0416666666666667;" x1="1611.5163" x2="1655.2663" y1="737.8825" y2="737.8825"/><line style="stroke:#181818;stroke-width:1.0416666666666667;" x1="1655.2663" x2="1655.2663" y1="737.8825" y2="751.4242"/><line style="stroke:#181818;stroke-width:1.0416666666666667;" x1="1612.558" x2="1655.2663" y1="751.4242" y2="751.4242"/><polygon fill="#181818" points="1622.9747,747.2575,1612.558,751.4242,1622.9747,755.5908,1618.808,751.4242" style="stroke:#181818;stroke-width:1.0416666666666667;"/><text fill="#000000" font-family="sans-serif" font-size="13.5417" font-weight="bold" lengthAdjust="spacing" textLength="31.2225" x="1618.808" y="732.6055">[13]</text><text fill="#000000" font-family="sans-serif" font-size="13.5417" lengthAdjust="spacing" textLength="244.5765" x="1654.1972" y="732.6055">Eintragen des Verlinkungsapprovals</text><polygon fill="#181818" points="1251.1841,777.6042,1240.7674,781.7708,1251.1841,785.9375,1247.0174,781.7708" style="stroke:#181818;stroke-width:1.0416666666666667;"/><line style="stroke:#181818;stroke-width:1.0416666666666667;" x1="1244.9341" x2="1600.058" y1="781.7708" y2="781.7708"/><text fill="#000000" font-family="sans-serif" font-size="13.5417" font-weight="bold" lengthAdjust="spacing" textLength="31.2225" x="1257.4341" y="776.4938">[14]</text><text fill="#000000" font-family="sans-serif" font-size="13.5417" lengthAdjust="spacing" textLength="300.9847" x="1292.8233" y="776.4938">Eintragung der Verlinkung in die FHIR Daten</text><polygon fill="#181818" points="1588.5997,807.9508,1599.0163,812.1175,1588.5997,816.2842,1592.7663,812.1175" style="stroke:#181818;stroke-width:1.0416666666666667;"/><line style="stroke:#181818;stroke-width:1.0416666666666667;stroke-dasharray:2.0,2.0;" x1="1239.7257" x2="1594.8497" y1="812.1175" y2="812.1175"/><text fill="#000000" font-family="sans-serif" font-size="13.5417" font-weight="bold" lengthAdjust="spacing" textLength="31.2225" x="1247.0174" y="806.8405">[15]</text><text fill="#000000" font-family="sans-serif" font-size="13.5417" lengthAdjust="spacing" textLength="88.887" x="1282.4066" y="806.8405">HTTP 200 OK</text><polygon fill="#181818" points="577.892,854.0609,567.4754,858.2275,577.892,862.3942,573.7254,858.2275" style="stroke:#181818;stroke-width:1.0416666666666667;"/><line style="stroke:#181818;stroke-width:1.0416666666666667;stroke-dasharray:2.0,2.0;" x1="571.642" x2="1600.058" y1="858.2275" y2="858.2275"/><text fill="#000000" font-family="sans-serif" font-size="13.5417" font-weight="bold" lengthAdjust="spacing" textLength="31.2225" x="584.142" y="845.0689">[16]</text><text fill="#000000" font-family="sans-serif" font-size="13.5417" lengthAdjust="spacing" textLength="88.887" x="619.5313" y="837.1872">HTTP 200 OK</text><text fill="#000000" font-family="sans-serif" font-size="13.5417" lengthAdjust="spacing" textLength="123.495" x="619.5313" y="852.9505">(Result Body json)</text><line style="stroke:#000000;stroke-width:1.0416666666666667;stroke-dasharray:2.0,2.0;" x1="484.6532" x2="1921.6904" y1="867.6025" y2="867.6025"/><text fill="#000000" font-family="sans-serif" font-size="11.4583" font-weight="bold" lengthAdjust="spacing" textLength="191.7257" x="489.8616" y="878.2384">[owner-accesstoken is invalid</text><text fill="#000000" font-family="sans-serif" font-size="11.4583" font-weight="bold" lengthAdjust="spacing" textLength="556.9712" x="489.8616" y="891.5766">oder Verlinkungsanfrage wartet nicht auf Approval durch den authentisierten Nutzer]</text><polygon fill="#181818" points="577.892,913.1673,567.4754,917.334,577.892,921.5007,573.7254,917.334" style="stroke:#181818;stroke-width:1.0416666666666667;"/><line style="stroke:#181818;stroke-width:1.0416666666666667;stroke-dasharray:2.0,2.0;" x1="571.642" x2="1605.2663" y1="917.334" y2="917.334"/><text fill="#000000" font-family="sans-serif" font-size="13.5417" font-weight="bold" lengthAdjust="spacing" textLength="31.2225" x="584.142" y="912.057">[17]</text><text fill="#000000" font-family="sans-serif" font-size="13.5417" lengthAdjust="spacing" textLength="65.0436" x="619.5313" y="912.057">HTTP 401</text><polygon fill="#181818" points="44.0379,958.0973,33.6212,962.264,44.0379,966.4307,39.8712,962.264" style="stroke:#181818;stroke-width:1.0416666666666667;"/><line style="stroke:#181818;stroke-width:1.0416666666666667;" x1="37.7879" x2="560.1837" y1="962.264" y2="962.264"/><text fill="#000000" font-family="sans-serif" font-size="13.5417" font-weight="bold" lengthAdjust="spacing" textLength="31.2225" x="50.2879" y="956.987">[18]</text><text fill="#000000" font-family="sans-serif" font-size="13.5417" lengthAdjust="spacing" textLength="202.6952" x="85.6771" y="956.987">Ergebnis Verlinkungsapproval</text><!--SRC=[hLNHJbD147tVhvZKH22XiHZZ0o5DgWKX4YM0a2W-RBjpsx7tpbvtzr8eyJVy0Z_3DtxCsTvRkBUKn8XzQRfxPkQSCpDRFo7EjTCPc9nWgzDH_kxatEdyd4mOmyl6UMRP3iVEPWZ15QXq4ImNsG0Tj7O6tI-TpjUMKck1GehGsji_E6xtoU4mM7Uz2IVulK2U6TAZc2mbde3ESsSlTRgcT4J1XoBCq2af5sX8kUO0mnIqhxATVUwttwQ475fgOAzWnzCCjxTUTvkrTbx4youyEnzJm9FCJb01r9Cc-NtI8sUlhblB07CFkClx0AIRr7ec8oOVd0vakQMG3GXDfKfPqEwAcktRdqd224qmlFjq09H1gIwwGPSweE2LKYDdYnmEqIFeLAmzGnVTAtZaDITEZv0tmP3S5WdqAal156uuhXo5gT165lvYfz18z3QCC1oXyvOFs4lBYaZZKD9wkFaXm3iAYPPV8hKAoztjxmJ1JXbTMm-7w7qGWra9IgBI0BL380_2XSpyifucgc4mGgscnkYIv09Q6WRxfwT7SHJXu_iBNZz6NqYLDzPSmpUXlr45bCeYVe_IW8w1jHZm5BFYf_p2rA_G7EKHBmkiitxLsQfk33OTZKdPn1bHAbANgBByTezdIACdj5bCccXcmSaD5mwG6FQ9foXyOx1D4emZM6MDWnVdpmjk0shJMX62Nk6dUfpEspKh7YSsG1zkVmKQ1PYYCvBPMnbORYv08tuXuu8p2i8WnKaWZ2fMbLdiGkrgOKHZjikqk7A-uORC_nzm4V1y1UEo8s5Low8zbI_hGNHdyX1C3le2zNANrQjiF5YVNU9GziwWNsMeRuQOkn01BQsTZF2yU_4TWtvz1SryB6EzsWh-wtx-vI9Ti5rw5PQiP1gE7pLK_fB6ye2IhsQe-aDvwdBUhyAk6-50tkrLdYjLooClzny0]--></g></svg>