<?xml version="1.0" encoding="us-ascii" standalone="no"?><svg xmlns="http://www.w3.org/2000/svg" xmlns:xlink="http://www.w3.org/1999/xlink" contentStyleType="text/css" height="1264px" preserveAspectRatio="none" style="width:1534px;height:1264px;background:#FFFFFF;" version="1.1" viewBox="0 0 1534 1264" width="1534px" zoomAndPan="magnify"><defs/><g><text fill="#000000" font-family="sans-serif" font-size="14" font-weight="bold" lengthAdjust="spacing" textLength="331" x="597.5" y="27.9951">FHIR-VZD Authentisierung f&#252;r Versicherte</text><rect fill="#F5F5F5" height="1214.8125" style="stroke:#181818;stroke-width:0.5;" width="944" x="403" y="43.2969"/><text fill="#000000" font-family="sans-serif" font-size="13" font-weight="bold" lengthAdjust="spacing" textLength="142" x="801.5" y="55.3638">VZD-FHIR-Directory</text><rect fill="#FFFFFF" height="262.4609" style="stroke:#181818;stroke-width:1.0;" width="10" x="644" y="345.9219"/><rect fill="#FFFFFF" height="200.9297" style="stroke:#181818;stroke-width:1.0;" width="10" x="644" y="667.4531"/><rect fill="#FFFFFF" height="212.7344" style="stroke:#181818;stroke-width:1.0;" width="10" x="1036" y="969.7813"/><rect fill="#FFFFFF" height="44.2656" style="stroke:#181818;stroke-width:1.0;" width="10" x="1282" y="1065.1797"/><rect fill="#FFFFFF" height="29.1328" style="stroke:#181818;stroke-width:1.0;" width="10" x="1420" y="272.5234"/><rect fill="#FFFFFF" height="160.9297" style="stroke:#181818;stroke-width:1.0;" width="10" x="1420" y="447.4531"/><rect fill="none" height="715.3906" style="stroke:#000000;stroke-width:1.5;" width="1507" x="10" y="167.9922"/><rect fill="none" height="642.125" style="stroke:#000000;stroke-width:1.5;" width="1487" x="20" y="234.2578"/><rect fill="none" height="163.6016" style="stroke:#000000;stroke-width:1.5;" width="1333" x="20" y="1026.9141"/><line style="stroke:#181818;stroke-width:0.5;stroke-dasharray:5.0,5.0;" x1="115" x2="115" y1="93.7266" y2="1207.5156"/><line style="stroke:#181818;stroke-width:0.5;stroke-dasharray:5.0,5.0;" x1="460" x2="460" y1="93.7266" y2="1207.5156"/><line style="stroke:#181818;stroke-width:0.5;stroke-dasharray:5.0,5.0;" x1="648.5" x2="648.5" y1="93.7266" y2="1207.5156"/><line style="stroke:#181818;stroke-width:0.5;stroke-dasharray:5.0,5.0;" x1="1040.5" x2="1040.5" y1="93.7266" y2="1207.5156"/><line style="stroke:#181818;stroke-width:0.5;stroke-dasharray:5.0,5.0;" x1="1287" x2="1287" y1="93.7266" y2="1207.5156"/><line style="stroke:#181818;stroke-width:0.5;stroke-dasharray:5.0,5.0;" x1="1425" x2="1425" y1="93.7266" y2="1207.5156"/><rect fill="#E2E2F0" height="30.2969" rx="2.5" ry="2.5" style="stroke:#181818;stroke-width:0.5;" width="170" x="30" y="62.4297"/><text fill="#000000" font-family="sans-serif" font-size="14" lengthAdjust="spacing" textLength="156" x="37" y="82.4248">TIM-Client Versicherter</text><rect fill="#E2E2F0" height="30.2969" rx="2.5" ry="2.5" style="stroke:#181818;stroke-width:0.5;" width="170" x="30" y="1206.5156"/><text fill="#000000" font-family="sans-serif" font-size="14" lengthAdjust="spacing" textLength="156" x="37" y="1226.5107">TIM-Client Versicherter</text><rect fill="#E2E2F0" height="30.2969" rx="2.5" ry="2.5" style="stroke:#181818;stroke-width:0.5;" width="106" x="407" y="62.4297"/><text fill="#000000" font-family="sans-serif" font-size="14" lengthAdjust="spacing" textLength="92" x="414" y="82.4248">OAuth-Server</text><rect fill="#E2E2F0" height="30.2969" rx="2.5" ry="2.5" style="stroke:#181818;stroke-width:0.5;" width="106" x="407" y="1206.5156"/><text fill="#000000" font-family="sans-serif" font-size="14" lengthAdjust="spacing" textLength="92" x="414" y="1226.5107">OAuth-Server</text><rect fill="#E2E2F0" height="30.2969" rx="2.5" ry="2.5" style="stroke:#181818;stroke-width:0.5;" width="101" x="598.5" y="62.4297"/><text fill="#000000" font-family="sans-serif" font-size="14" lengthAdjust="spacing" textLength="87" x="605.5" y="82.4248">Auth-Service</text><rect fill="#E2E2F0" height="30.2969" rx="2.5" ry="2.5" style="stroke:#181818;stroke-width:0.5;" width="101" x="598.5" y="1206.5156"/><text fill="#000000" font-family="sans-serif" font-size="14" lengthAdjust="spacing" textLength="87" x="605.5" y="1226.5107">Auth-Service</text><rect fill="#E2E2F0" height="30.2969" rx="2.5" ry="2.5" style="stroke:#181818;stroke-width:0.5;" width="87" x="997.5" y="62.4297"/><text fill="#000000" font-family="sans-serif" font-size="14" lengthAdjust="spacing" textLength="73" x="1004.5" y="82.4248">FHIR-Proxy</text><rect fill="#E2E2F0" height="30.2969" rx="2.5" ry="2.5" style="stroke:#181818;stroke-width:0.5;" width="87" x="997.5" y="1206.5156"/><text fill="#000000" font-family="sans-serif" font-size="14" lengthAdjust="spacing" textLength="73" x="1004.5" y="1226.5107">FHIR-Proxy</text><rect fill="#E2E2F0" height="30.2969" rx="2.5" ry="2.5" style="stroke:#181818;stroke-width:0.5;" width="112" x="1231" y="62.4297"/><text fill="#000000" font-family="sans-serif" font-size="14" lengthAdjust="spacing" textLength="98" x="1238" y="82.4248">FHIR-Directory</text><rect fill="#E2E2F0" height="30.2969" rx="2.5" ry="2.5" style="stroke:#181818;stroke-width:0.5;" width="112" x="1231" y="1206.5156"/><text fill="#000000" font-family="sans-serif" font-size="14" lengthAdjust="spacing" textLength="98" x="1238" y="1226.5107">FHIR-Directory</text><rect fill="#E2E2F0" height="46.5938" rx="2.5" ry="2.5" style="stroke:#181818;stroke-width:0.5;" width="144" x="1353" y="46.1328"/><text fill="#000000" font-family="sans-serif" font-size="14" lengthAdjust="spacing" textLength="129" x="1360.5" y="66.1279">Matrix-Homeserver</text><text fill="#000000" font-family="sans-serif" font-size="14" lengthAdjust="spacing" textLength="130" x="1360" y="82.4248">(Messenger-Proxy)</text><rect fill="#E2E2F0" height="46.5938" rx="2.5" ry="2.5" style="stroke:#181818;stroke-width:0.5;" width="144" x="1353" y="1206.5156"/><text fill="#000000" font-family="sans-serif" font-size="14" lengthAdjust="spacing" textLength="129" x="1360.5" y="1226.5107">Matrix-Homeserver</text><text fill="#000000" font-family="sans-serif" font-size="14" lengthAdjust="spacing" textLength="130" x="1360" y="1242.8076">(Messenger-Proxy)</text><rect fill="#FFFFFF" height="262.4609" style="stroke:#181818;stroke-width:1.0;" width="10" x="644" y="345.9219"/><rect fill="#FFFFFF" height="200.9297" style="stroke:#181818;stroke-width:1.0;" width="10" x="644" y="667.4531"/><rect fill="#FFFFFF" height="212.7344" style="stroke:#181818;stroke-width:1.0;" width="10" x="1036" y="969.7813"/><rect fill="#FFFFFF" height="44.2656" style="stroke:#181818;stroke-width:1.0;" width="10" x="1282" y="1065.1797"/><rect fill="#FFFFFF" height="29.1328" style="stroke:#181818;stroke-width:1.0;" width="10" x="1420" y="272.5234"/><rect fill="#FFFFFF" height="160.9297" style="stroke:#181818;stroke-width:1.0;" width="10" x="1420" y="447.4531"/><line style="stroke:#181818;stroke-width:1.0;" x1="115" x2="157" y1="139.9922" y2="139.9922"/><line style="stroke:#181818;stroke-width:1.0;" x1="157" x2="157" y1="139.9922" y2="152.9922"/><line style="stroke:#181818;stroke-width:1.0;" x1="116" x2="157" y1="152.9922" y2="152.9922"/><polygon fill="#181818" points="126,148.9922,116,152.9922,126,156.9922,122,152.9922" style="stroke:#181818;stroke-width:1.0;"/><text fill="#000000" font-family="sans-serif" font-size="13" font-weight="bold" lengthAdjust="spacing" textLength="30" x="122" y="127.3599">[01]</text><text fill="#000000" font-family="sans-serif" font-size="13" lengthAdjust="spacing" textLength="297" x="156" y="119.7935">pr&#252;fe ob noch g&#252;ltiges search-ACCESS_TOKEN</text><text fill="#000000" font-family="sans-serif" font-size="13" lengthAdjust="spacing" textLength="260" x="156" y="134.9263">vom FHIR-Directory Auth-Service vorliegt</text><path d="M10,167.9922 L74,167.9922 L74,175.125 L64,185.125 L10,185.125 L10,167.9922 " fill="#EEEEEE" style="stroke:#000000;stroke-width:1.5;"/><rect fill="none" height="715.3906" style="stroke:#000000;stroke-width:1.5;" width="1507" x="10" y="167.9922"/><text fill="#000000" font-family="sans-serif" font-size="13" font-weight="bold" lengthAdjust="spacing" textLength="19" x="25" y="181.0591">alt</text><text fill="#000000" font-family="sans-serif" font-size="11" font-weight="bold" lengthAdjust="spacing" textLength="317" x="89" y="180.2026">[kein g&#252;ltiges search-ACCESS_TOKEN vorhanden]</text><line style="stroke:#181818;stroke-width:1.0;" x1="115" x2="157" y1="206.2578" y2="206.2578"/><line style="stroke:#181818;stroke-width:1.0;" x1="157" x2="157" y1="206.2578" y2="219.2578"/><line style="stroke:#181818;stroke-width:1.0;" x1="116" x2="157" y1="219.2578" y2="219.2578"/><polygon fill="#181818" points="126,215.2578,116,219.2578,126,223.2578,122,219.2578" style="stroke:#181818;stroke-width:1.0;"/><text fill="#000000" font-family="sans-serif" font-size="13" font-weight="bold" lengthAdjust="spacing" textLength="30" x="122" y="201.1919">[02]</text><text fill="#000000" font-family="sans-serif" font-size="13" lengthAdjust="spacing" textLength="241" x="156" y="201.1919">g&#252;ltiges REFRESH_TOKEN vorhanden?</text><path d="M20,234.2578 L84,234.2578 L84,241.3906 L74,251.3906 L20,251.3906 L20,234.2578 " fill="#EEEEEE" style="stroke:#000000;stroke-width:1.5;"/><rect fill="none" height="642.125" style="stroke:#000000;stroke-width:1.5;" width="1487" x="20" y="234.2578"/><text fill="#000000" font-family="sans-serif" font-size="13" font-weight="bold" lengthAdjust="spacing" textLength="19" x="35" y="247.3247">alt</text><text fill="#000000" font-family="sans-serif" font-size="11" font-weight="bold" lengthAdjust="spacing" textLength="276" x="99" y="246.4683">[kein g&#252;ltiges REFRESH_TOKEN vorhanden]</text><polygon fill="#181818" points="1408,268.5234,1418,272.5234,1408,276.5234,1412,272.5234" style="stroke:#181818;stroke-width:1.0;"/><line style="stroke:#181818;stroke-width:1.0;" x1="115" x2="1414" y1="272.5234" y2="272.5234"/><text fill="#000000" font-family="sans-serif" font-size="13" font-weight="bold" lengthAdjust="spacing" textLength="30" x="122" y="267.4575">[03]</text><text fill="#000000" font-family="sans-serif" font-size="13" lengthAdjust="spacing" textLength="379" x="156" y="267.4575">POST /_matrix/client/r0/user/{userId}/openid/request_token</text><polygon fill="#181818" points="126,297.6563,116,301.6563,126,305.6563,122,301.6563" style="stroke:#181818;stroke-width:1.0;"/><line style="stroke:#181818;stroke-width:1.0;stroke-dasharray:2.0,2.0;" x1="120" x2="1424" y1="301.6563" y2="301.6563"/><text fill="#000000" font-family="sans-serif" font-size="13" font-weight="bold" lengthAdjust="spacing" textLength="30" x="132" y="296.5903">[04]</text><text fill="#000000" font-family="sans-serif" font-size="13" lengthAdjust="spacing" textLength="720" x="166" y="296.5903">HTTP 200 OK, Result body {"access_token": "Matrix-OpenID-Token",..., "matrix_server_name": "example.com",...}</text><polygon fill="#181818" points="632,341.9219,642,345.9219,632,349.9219,636,345.9219" style="stroke:#181818;stroke-width:1.0;"/><line style="stroke:#181818;stroke-width:1.0;" x1="115" x2="638" y1="345.9219" y2="345.9219"/><text fill="#000000" font-family="sans-serif" font-size="13" font-weight="bold" lengthAdjust="spacing" textLength="30" x="122" y="333.2896">[05]</text><text fill="#000000" font-family="sans-serif" font-size="13" lengthAdjust="spacing" textLength="164" x="156" y="325.7231">GET /patient-authenticate</text><text fill="#000000" font-family="sans-serif" font-size="13" lengthAdjust="spacing" textLength="294" x="156" y="340.856">(Authorization: "Bearer Matrix-OpenID-Token")</text><line style="stroke:#181818;stroke-width:1.0;" x1="654" x2="696" y1="390.1875" y2="390.1875"/><line style="stroke:#181818;stroke-width:1.0;" x1="696" x2="696" y1="390.1875" y2="403.1875"/><line style="stroke:#181818;stroke-width:1.0;" x1="655" x2="696" y1="403.1875" y2="403.1875"/><polygon fill="#181818" points="665,399.1875,655,403.1875,665,407.1875,661,403.1875" style="stroke:#181818;stroke-width:1.0;"/><text fill="#000000" font-family="sans-serif" font-size="13" font-weight="bold" lengthAdjust="spacing" textLength="30" x="661" y="377.5552">[06]</text><text fill="#000000" font-family="sans-serif" font-size="13" lengthAdjust="spacing" textLength="189" x="695" y="369.9888">Pr&#252;fe ob matrix_server_name</text><text fill="#000000" font-family="sans-serif" font-size="13" lengthAdjust="spacing" textLength="181" x="695" y="385.1216">in F&#246;derationsliste enthalten</text><polygon fill="#181818" points="1408,443.4531,1418,447.4531,1408,451.4531,1412,447.4531" style="stroke:#181818;stroke-width:1.0;"/><line style="stroke:#181818;stroke-width:1.0;" x1="654" x2="1414" y1="447.4531" y2="447.4531"/><text fill="#000000" font-family="sans-serif" font-size="13" font-weight="bold" lengthAdjust="spacing" textLength="30" x="661" y="434.8208">[07]</text><text fill="#000000" font-family="sans-serif" font-size="13" lengthAdjust="spacing" textLength="135" x="695" y="427.2544">GET /openid/userinfo/</text><text fill="#000000" font-family="sans-serif" font-size="13" lengthAdjust="spacing" textLength="380" x="695" y="442.3872">request header, Authorization: Bearer Matrix-OpenID-Token</text><polygon fill="#181818" points="665,487.7188,655,491.7188,665,495.7188,661,491.7188" style="stroke:#181818;stroke-width:1.0;"/><line style="stroke:#181818;stroke-width:1.0;stroke-dasharray:2.0,2.0;" x1="659" x2="1419" y1="491.7188" y2="491.7188"/><text fill="#000000" font-family="sans-serif" font-size="13" font-weight="bold" lengthAdjust="spacing" textLength="30" x="671" y="479.0864">[08]</text><text fill="#000000" font-family="sans-serif" font-size="13" lengthAdjust="spacing" textLength="82" x="705" y="471.52">HTTP 200 OK</text><text fill="#000000" font-family="sans-serif" font-size="13" lengthAdjust="spacing" textLength="202" x="705" y="486.6528">(Result Body MXID des Nutzers)</text><line style="stroke:#181818;stroke-width:1.0;" x1="654" x2="696" y1="520.8516" y2="520.8516"/><line style="stroke:#181818;stroke-width:1.0;" x1="696" x2="696" y1="520.8516" y2="533.8516"/><line style="stroke:#181818;stroke-width:1.0;" x1="655" x2="696" y1="533.8516" y2="533.8516"/><polygon fill="#181818" points="665,529.8516,655,533.8516,665,537.8516,661,533.8516" style="stroke:#181818;stroke-width:1.0;"/><text fill="#000000" font-family="sans-serif" font-size="13" font-weight="bold" lengthAdjust="spacing" textLength="30" x="661" y="515.7856">[09]</text><text fill="#000000" font-family="sans-serif" font-size="13" lengthAdjust="spacing" textLength="334" x="695" y="515.7856">Erzeuge search-ACCESS_TOKEN &amp; REFRESH_TOKEN</text><polygon fill="#181818" points="126,604.3828,116,608.3828,126,612.3828,122,608.3828" style="stroke:#181818;stroke-width:1.0;"/><line style="stroke:#181818;stroke-width:1.0;stroke-dasharray:2.0,2.0;" x1="120" x2="648" y1="608.3828" y2="608.3828"/><text fill="#000000" font-family="sans-serif" font-size="13" font-weight="bold" lengthAdjust="spacing" textLength="30" x="132" y="580.6177">[10]</text><text fill="#000000" font-family="sans-serif" font-size="13" lengthAdjust="spacing" textLength="471" x="166" y="557.9185">HTTP 200 OK, Result body mit search-ACCESS_TOKEN &amp; REFRESH_TOKEN</text><text fill="#000000" font-family="sans-serif" font-size="13" lengthAdjust="spacing" textLength="426" x="166" y="573.0513">{"access_token"="search-ACCESS_TOKEN", "token_type":"bearer",</text><text fill="#000000" font-family="sans-serif" font-size="13" lengthAdjust="spacing" textLength="118" x="166" y="588.1841">"expires_in":86400</text><text fill="#000000" font-family="sans-serif" font-size="13" lengthAdjust="spacing" textLength="426" x="166" y="603.3169">"refresh_token"="REFRESH_TOKEN", "token_type":"refresh_token"}</text><line style="stroke:#000000;stroke-width:1.0;stroke-dasharray:2.0,2.0;" x1="20" x2="1507" y1="617.3828" y2="617.3828"/><text fill="#000000" font-family="sans-serif" font-size="11" font-weight="bold" lengthAdjust="spacing" textLength="245" x="25" y="627.5933">[g&#252;ltiges REFRESH_TOKEN vorhanden]</text><polygon fill="#181818" points="632,663.4531,642,667.4531,632,671.4531,636,667.4531" style="stroke:#181818;stroke-width:1.0;"/><line style="stroke:#181818;stroke-width:1.0;" x1="115" x2="638" y1="667.4531" y2="667.4531"/><text fill="#000000" font-family="sans-serif" font-size="13" font-weight="bold" lengthAdjust="spacing" textLength="30" x="122" y="654.8208">[11]</text><text fill="#000000" font-family="sans-serif" font-size="13" lengthAdjust="spacing" textLength="164" x="156" y="647.2544">GET /patient-authenticate</text><text fill="#000000" font-family="sans-serif" font-size="13" lengthAdjust="spacing" textLength="268" x="156" y="662.3872">(Authorization: "Bearer REFRESH_TOKEN")</text><line style="stroke:#181818;stroke-width:1.0;" x1="654" x2="696" y1="696.5859" y2="696.5859"/><line style="stroke:#181818;stroke-width:1.0;" x1="696" x2="696" y1="696.5859" y2="709.5859"/><line style="stroke:#181818;stroke-width:1.0;" x1="655" x2="696" y1="709.5859" y2="709.5859"/><polygon fill="#181818" points="665,705.5859,655,709.5859,665,713.5859,661,709.5859" style="stroke:#181818;stroke-width:1.0;"/><text fill="#000000" font-family="sans-serif" font-size="13" font-weight="bold" lengthAdjust="spacing" textLength="30" x="661" y="691.52">[12]</text><text fill="#000000" font-family="sans-serif" font-size="13" lengthAdjust="spacing" textLength="145" x="695" y="691.52">Pr&#252;fe REFRESH_TOKEN</text><line style="stroke:#181818;stroke-width:1.0;" x1="654" x2="696" y1="738.7188" y2="738.7188"/><line style="stroke:#181818;stroke-width:1.0;" x1="696" x2="696" y1="738.7188" y2="751.7188"/><line style="stroke:#181818;stroke-width:1.0;" x1="655" x2="696" y1="751.7188" y2="751.7188"/><polygon fill="#181818" points="665,747.7188,655,751.7188,665,755.7188,661,751.7188" style="stroke:#181818;stroke-width:1.0;"/><text fill="#000000" font-family="sans-serif" font-size="13" font-weight="bold" lengthAdjust="spacing" textLength="30" x="661" y="733.6528">[13]</text><text fill="#000000" font-family="sans-serif" font-size="13" lengthAdjust="spacing" textLength="334" x="695" y="733.6528">Erzeuge search-ACCESS_TOKEN &amp; REFRESH_TOKEN</text><line style="stroke:#181818;stroke-width:1.0;" x1="654" x2="696" y1="780.8516" y2="780.8516"/><line style="stroke:#181818;stroke-width:1.0;" x1="696" x2="696" y1="780.8516" y2="793.8516"/><line style="stroke:#181818;stroke-width:1.0;" x1="655" x2="696" y1="793.8516" y2="793.8516"/><polygon fill="#181818" points="665,789.8516,655,793.8516,665,797.8516,661,793.8516" style="stroke:#181818;stroke-width:1.0;"/><text fill="#000000" font-family="sans-serif" font-size="13" font-weight="bold" lengthAdjust="spacing" textLength="30" x="661" y="775.7856">[14]</text><text fill="#000000" font-family="sans-serif" font-size="13" lengthAdjust="spacing" textLength="219" x="695" y="775.7856">Deaktiviere altes REFRESH_TOKEN</text><polygon fill="#181818" points="126,864.3828,116,868.3828,126,872.3828,122,868.3828" style="stroke:#181818;stroke-width:1.0;"/><line style="stroke:#181818;stroke-width:1.0;stroke-dasharray:2.0,2.0;" x1="120" x2="648" y1="868.3828" y2="868.3828"/><text fill="#000000" font-family="sans-serif" font-size="13" font-weight="bold" lengthAdjust="spacing" textLength="30" x="132" y="840.6177">[15]</text><text fill="#000000" font-family="sans-serif" font-size="13" lengthAdjust="spacing" textLength="471" x="166" y="817.9185">HTTP 200 OK, Result body mit search-ACCESS_TOKEN &amp; REFRESH_TOKEN</text><text fill="#000000" font-family="sans-serif" font-size="13" lengthAdjust="spacing" textLength="426" x="166" y="833.0513">{"access_token"="search-ACCESS_TOKEN", "token_type":"bearer",</text><text fill="#000000" font-family="sans-serif" font-size="13" lengthAdjust="spacing" textLength="118" x="166" y="848.1841">"expires_in":86400</text><text fill="#000000" font-family="sans-serif" font-size="13" lengthAdjust="spacing" textLength="426" x="166" y="863.3169">"refresh_token"="REFRESH_TOKEN", "token_type":"refresh_token"}</text><rect fill="#EEEEEE" height="3" style="stroke:#EEEEEE;stroke-width:1.0;" width="1527" x="0" y="910.9492"/><line style="stroke:#000000;stroke-width:1.0;" x1="0" x2="1527" y1="910.9492" y2="910.9492"/><line style="stroke:#000000;stroke-width:1.0;" x1="0" x2="1527" y1="913.9492" y2="913.9492"/><rect fill="#EEEEEE" height="23.1328" style="stroke:#000000;stroke-width:2.0;" width="327" x="600" y="900.3828"/><text fill="#000000" font-family="sans-serif" font-size="13" font-weight="bold" lengthAdjust="spacing" textLength="308" x="606" y="916.4497">...Suche durch Versicherte im FHIR VZD...</text><polygon fill="#181818" points="1024,965.7813,1034,969.7813,1024,973.7813,1028,969.7813" style="stroke:#181818;stroke-width:1.0;"/><line style="stroke:#181818;stroke-width:1.0;" x1="115" x2="1030" y1="969.7813" y2="969.7813"/><text fill="#000000" font-family="sans-serif" font-size="13" font-weight="bold" lengthAdjust="spacing" textLength="30" x="122" y="957.1489">[16]</text><text fill="#000000" font-family="sans-serif" font-size="13" lengthAdjust="spacing" textLength="233" x="156" y="949.5825">GET /fdv/search?... (Auth Header mit</text><text fill="#000000" font-family="sans-serif" font-size="13" lengthAdjust="spacing" textLength="156" x="156" y="964.7153">search-ACCESS_TOKEN)</text><line style="stroke:#181818;stroke-width:1.0;" x1="1046" x2="1088" y1="998.9141" y2="998.9141"/><line style="stroke:#181818;stroke-width:1.0;" x1="1088" x2="1088" y1="998.9141" y2="1011.9141"/><line style="stroke:#181818;stroke-width:1.0;" x1="1047" x2="1088" y1="1011.9141" y2="1011.9141"/><polygon fill="#181818" points="1057,1007.9141,1047,1011.9141,1057,1015.9141,1053,1011.9141" style="stroke:#181818;stroke-width:1.0;"/><text fill="#000000" font-family="sans-serif" font-size="13" font-weight="bold" lengthAdjust="spacing" textLength="30" x="1053" y="993.8481">[17]</text><text fill="#000000" font-family="sans-serif" font-size="13" lengthAdjust="spacing" textLength="188" x="1087" y="993.8481">pr&#252;fe search-ACCESS_TOKEN</text><path d="M20,1026.9141 L84,1026.9141 L84,1034.0469 L74,1044.0469 L20,1044.0469 L20,1026.9141 " fill="#EEEEEE" style="stroke:#000000;stroke-width:1.5;"/><rect fill="none" height="163.6016" style="stroke:#000000;stroke-width:1.5;" width="1333" x="20" y="1026.9141"/><text fill="#000000" font-family="sans-serif" font-size="13" font-weight="bold" lengthAdjust="spacing" textLength="19" x="35" y="1039.981">alt</text><text fill="#000000" font-family="sans-serif" font-size="11" font-weight="bold" lengthAdjust="spacing" textLength="208" x="99" y="1039.1245">[search-ACCESS_TOKEN is valid]</text><polygon fill="#181818" points="1270,1061.1797,1280,1065.1797,1270,1069.1797,1274,1065.1797" style="stroke:#181818;stroke-width:1.0;"/><line style="stroke:#181818;stroke-width:1.0;" x1="1046" x2="1276" y1="1065.1797" y2="1065.1797"/><text fill="#000000" font-family="sans-serif" font-size="13" font-weight="bold" lengthAdjust="spacing" textLength="30" x="1053" y="1060.1138">[18]</text><text fill="#000000" font-family="sans-serif" font-size="13" lengthAdjust="spacing" textLength="52" x="1087" y="1060.1138">GET /?...</text><polygon fill="#181818" points="1057,1105.4453,1047,1109.4453,1057,1113.4453,1053,1109.4453" style="stroke:#181818;stroke-width:1.0;"/><line style="stroke:#181818;stroke-width:1.0;stroke-dasharray:2.0,2.0;" x1="1051" x2="1286" y1="1109.4453" y2="1109.4453"/><text fill="#000000" font-family="sans-serif" font-size="13" font-weight="bold" lengthAdjust="spacing" textLength="30" x="1063" y="1096.813">[19]</text><text fill="#000000" font-family="sans-serif" font-size="13" lengthAdjust="spacing" textLength="82" x="1097" y="1089.2466">HTTP 200 OK</text><text fill="#000000" font-family="sans-serif" font-size="13" lengthAdjust="spacing" textLength="115" x="1097" y="1104.3794">(Result Body json)</text><polygon fill="#181818" points="126,1134.5781,116,1138.5781,126,1142.5781,122,1138.5781" style="stroke:#181818;stroke-width:1.0;"/><line style="stroke:#181818;stroke-width:1.0;stroke-dasharray:2.0,2.0;" x1="120" x2="1035" y1="1138.5781" y2="1138.5781"/><text fill="#000000" font-family="sans-serif" font-size="13" font-weight="bold" lengthAdjust="spacing" textLength="30" x="132" y="1133.5122">[20]</text><text fill="#000000" font-family="sans-serif" font-size="13" lengthAdjust="spacing" textLength="201" x="166" y="1133.5122">HTTP 200 OK (Result Body json)</text><line style="stroke:#000000;stroke-width:1.0;stroke-dasharray:2.0,2.0;" x1="20" x2="1353" y1="1147.5781" y2="1147.5781"/><text fill="#000000" font-family="sans-serif" font-size="11" font-weight="bold" lengthAdjust="spacing" textLength="200" x="25" y="1157.7886">[search-accesstoken is invalid]</text><polygon fill="#181818" points="126,1178.5156,116,1182.5156,126,1186.5156,122,1182.5156" style="stroke:#181818;stroke-width:1.0;"/><line style="stroke:#181818;stroke-width:1.0;stroke-dasharray:2.0,2.0;" x1="120" x2="1040" y1="1182.5156" y2="1182.5156"/><text fill="#000000" font-family="sans-serif" font-size="13" font-weight="bold" lengthAdjust="spacing" textLength="30" x="132" y="1177.4497">[21]</text><text fill="#000000" font-family="sans-serif" font-size="13" lengthAdjust="spacing" textLength="60" x="166" y="1177.4497">HTTP 401</text><!--SRC=[xLNHRjDA47ttLuny9KH4N8ShX51r0u8clObGITL41K5GjB77yT9uRNRNKLl4RzsdllN7xkpQTUp4GI1UQQKeiMVEd9bpTeVbEXLviaG9J-dV_MVvybElzzbrDDTh1FTqDBxmBZyEu7MkOnIQAuuo5ok8xkyaNA9KF8XHQdGT9sDIyu1dJ6YuF5bp2WUcm9sDpxpoPor1KiOolGO2zsoL0PSOw5JUm5_lOwvncgHNw03zrO7TYM7YJL5k2CBWNzw6zjb-Q1N90tm8ROsCCalKqZYNwVMDknyIRaCgfgw38WJgejbyh6pi6TEINtkZD45bwSx5upDK2iKAPL6dGqCeH-MzV1ZQCMJo_Yv2I9SWqY26rVtTMlCLAb38P11xhqzEXjFfOZPvEtmt5viqWPq9rZk7JIe9TwKTXwqrN24NFqOq2J4J8OejjuhQDlDYU7end8vsSrwrLJaGQwQyRJzMnt0-cSx0NoHsT7vWN_cov-SqGV-R-Ho7t_qqGy53N-BN79LUQ3AAnMA1vXkcaQ3CJzB1guzrD9kTmz-z7apUTk42LKv4bsbu0zzS5WIaJ87a7bVQJQZGUE3DxEFkqT5H5zo2swAGT25OWYO1hrcIhV4eI1CR-DqG2B7EgD5jQSKdJuxXto6rd35jNx3od0KcYGnZWbB9R-brAgZE6zAB3ciRlqvHeG0sVHVVQAYLdVQvpmK9TNh_NuZIbb1hhgWoKOX9nrAY2j98PEcM2XX1k8XIVovACI16HbXTs25-cFSFX7jee2OSZQHKxerHxkp3U41ZLl0krxTqkNGQV2k0eRp5V8MjRd_KT6STuAVCat3zCxXpiUEoljkIvPB1xEk5lid8MExIpitjpWLPBAC3hXQS7FhY-RDUZvv9ZEXHN44sIkw1DQDtBLgx7Pl61Lmh_CNJ_9l-RlPnGDNIrmVb-stzjm03P5Sq45f-2EPSg3-cQPh6RCBoezy7kW2dEUrv27CYMr_xm8jbPVO-HK6_Nsr0eCb5MUcNADpuHQklJ9Zr2OpitMA6DnSjS-Wu5QqeSsYfbu3bEct9A5PYcn1SmOQjUMZQBP72afeXrBYqeY8gj9UMANZullgYKj7P6M5K5TbQ1neWq8PX3sL9lV28LSWmvwB1VH_sMU_fBedCYlS_]--></g></svg>