<?xml version="1.0" encoding="us-ascii" standalone="no"?><svg xmlns="http://www.w3.org/2000/svg" xmlns:xlink="http://www.w3.org/1999/xlink" contentStyleType="text/css" height="1045px" preserveAspectRatio="none" style="width:1588px;height:1045px;background:#FFFFFF;" version="1.1" viewBox="0 0 1588 1045" width="1588px" zoomAndPan="magnify"><defs/><g><text fill="#000000" font-family="sans-serif" font-size="14" font-weight="bold" lengthAdjust="spacing" textLength="331" x="624.75" y="27.9951">FHIR-VZD Authentisierung f&#252;r Versicherte</text><rect fill="#F5F5F5" height="996.6484" style="stroke:#181818;stroke-width:0.5;" width="438.5" x="186" y="43.2969"/><text fill="#000000" font-family="sans-serif" font-size="13" font-weight="bold" lengthAdjust="spacing" textLength="121" x="342.25" y="55.3638">Fachanwendung</text><rect fill="#F5F5F5" height="996.6484" style="stroke:#181818;stroke-width:0.5;" width="589.5" x="809.5" y="43.2969"/><text fill="#000000" font-family="sans-serif" font-size="13" font-weight="bold" lengthAdjust="spacing" textLength="142" x="1030.75" y="55.3638">VZD-FHIR-Directory</text><rect fill="#FFFFFF" height="71.2656" style="stroke:#181818;stroke-width:1.0;" width="10" x="861.5" y="328.9219"/><rect fill="#FFFFFF" height="552.1953" style="stroke:#181818;stroke-width:1.0;" width="10" x="1097.5" y="444.4531"/><rect fill="#FFFFFF" height="181.4688" style="stroke:#181818;stroke-width:1.0;" width="10" x="1346.5" y="799.1797"/><rect fill="none" height="544.7891" style="stroke:#000000;stroke-width:1.5;" width="1342.5" x="9" y="167.9922"/><rect fill="none" height="132.3359" style="stroke:#000000;stroke-width:1.5;" width="1352.5" x="180" y="856.3125"/><line style="stroke:#181818;stroke-width:0.5;stroke-dasharray:5.0,5.0;" x1="260" x2="260" y1="93.7266" y2="1005.6484"/><line style="stroke:#181818;stroke-width:0.5;stroke-dasharray:5.0,5.0;" x1="575.5" x2="575.5" y1="93.7266" y2="1005.6484"/><line style="stroke:#181818;stroke-width:0.5;stroke-dasharray:5.0,5.0;" x1="866.5" x2="866.5" y1="93.7266" y2="1005.6484"/><line style="stroke:#181818;stroke-width:0.5;stroke-dasharray:5.0,5.0;" x1="1102" x2="1102" y1="93.7266" y2="1005.6484"/><line style="stroke:#181818;stroke-width:0.5;stroke-dasharray:5.0,5.0;" x1="1351" x2="1351" y1="93.7266" y2="1005.6484"/><rect fill="#E2E2F0" height="30.2969" rx="2.5" ry="2.5" style="stroke:#181818;stroke-width:0.5;" width="141" x="190" y="62.4297"/><text fill="#000000" font-family="sans-serif" font-size="14" lengthAdjust="spacing" textLength="127" x="197" y="82.4248">Client Versicherter</text><rect fill="#E2E2F0" height="30.2969" rx="2.5" ry="2.5" style="stroke:#181818;stroke-width:0.5;" width="141" x="190" y="1004.6484"/><text fill="#000000" font-family="sans-serif" font-size="14" lengthAdjust="spacing" textLength="127" x="197" y="1024.6436">Client Versicherter</text><rect fill="#E2E2F0" height="30.2969" rx="2.5" ry="2.5" style="stroke:#181818;stroke-width:0.5;" width="90" x="530.5" y="62.4297"/><text fill="#000000" font-family="sans-serif" font-size="14" lengthAdjust="spacing" textLength="76" x="537.5" y="82.4248">Fachdienst</text><rect fill="#E2E2F0" height="30.2969" rx="2.5" ry="2.5" style="stroke:#181818;stroke-width:0.5;" width="90" x="530.5" y="1004.6484"/><text fill="#000000" font-family="sans-serif" font-size="14" lengthAdjust="spacing" textLength="76" x="537.5" y="1024.6436">Fachdienst</text><rect fill="#E2E2F0" height="30.2969" rx="2.5" ry="2.5" style="stroke:#181818;stroke-width:0.5;" width="106" x="813.5" y="62.4297"/><text fill="#000000" font-family="sans-serif" font-size="14" lengthAdjust="spacing" textLength="92" x="820.5" y="82.4248">OAuth-Server</text><rect fill="#E2E2F0" height="30.2969" rx="2.5" ry="2.5" style="stroke:#181818;stroke-width:0.5;" width="106" x="813.5" y="1004.6484"/><text fill="#000000" font-family="sans-serif" font-size="14" lengthAdjust="spacing" textLength="92" x="820.5" y="1024.6436">OAuth-Server</text><rect fill="#E2E2F0" height="30.2969" rx="2.5" ry="2.5" style="stroke:#181818;stroke-width:0.5;" width="101" x="1052" y="62.4297"/><text fill="#000000" font-family="sans-serif" font-size="14" lengthAdjust="spacing" textLength="87" x="1059" y="82.4248">Auth-Service</text><rect fill="#E2E2F0" height="30.2969" rx="2.5" ry="2.5" style="stroke:#181818;stroke-width:0.5;" width="101" x="1052" y="1004.6484"/><text fill="#000000" font-family="sans-serif" font-size="14" lengthAdjust="spacing" textLength="87" x="1059" y="1024.6436">Auth-Service</text><rect fill="#E2E2F0" height="30.2969" rx="2.5" ry="2.5" style="stroke:#181818;stroke-width:0.5;" width="87" x="1308" y="62.4297"/><text fill="#000000" font-family="sans-serif" font-size="14" lengthAdjust="spacing" textLength="73" x="1315" y="82.4248">FHIR-Proxy</text><rect fill="#E2E2F0" height="30.2969" rx="2.5" ry="2.5" style="stroke:#181818;stroke-width:0.5;" width="87" x="1308" y="1004.6484"/><text fill="#000000" font-family="sans-serif" font-size="14" lengthAdjust="spacing" textLength="73" x="1315" y="1024.6436">FHIR-Proxy</text><rect fill="#FFFFFF" height="71.2656" style="stroke:#181818;stroke-width:1.0;" width="10" x="861.5" y="328.9219"/><rect fill="#FFFFFF" height="552.1953" style="stroke:#181818;stroke-width:1.0;" width="10" x="1097.5" y="444.4531"/><rect fill="#FFFFFF" height="181.4688" style="stroke:#181818;stroke-width:1.0;" width="10" x="1346.5" y="799.1797"/><line style="stroke:#181818;stroke-width:1.0;" x1="260.5" x2="302.5" y1="139.9922" y2="139.9922"/><line style="stroke:#181818;stroke-width:1.0;" x1="302.5" x2="302.5" y1="139.9922" y2="152.9922"/><line style="stroke:#181818;stroke-width:1.0;" x1="261.5" x2="302.5" y1="152.9922" y2="152.9922"/><polygon fill="#181818" points="271.5,148.9922,261.5,152.9922,271.5,156.9922,267.5,152.9922" style="stroke:#181818;stroke-width:1.0;"/><text fill="#000000" font-family="sans-serif" font-size="13" font-weight="bold" lengthAdjust="spacing" textLength="30" x="267.5" y="127.3599">[01]</text><text fill="#000000" font-family="sans-serif" font-size="13" lengthAdjust="spacing" textLength="111" x="301.5" y="119.7935">pr&#252;fe ob  g&#252;ltiges</text><text fill="#000000" font-family="monospace" font-size="13" lengthAdjust="spacing" textLength="152" x="416.5" y="119.7935">search-access_token</text><text fill="#000000" font-family="sans-serif" font-size="13" lengthAdjust="spacing" textLength="260" x="301.5" y="134.9263">vom FHIR-Directory Auth-Service vorliegt</text><path d="M9,167.9922 L73,167.9922 L73,175.125 L63,185.125 L9,185.125 L9,167.9922 " fill="#EEEEEE" style="stroke:#000000;stroke-width:1.5;"/><rect fill="none" height="544.7891" style="stroke:#000000;stroke-width:1.5;" width="1342.5" x="9" y="167.9922"/><text fill="#000000" font-family="sans-serif" font-size="13" font-weight="bold" lengthAdjust="spacing" textLength="19" x="24" y="181.0591">alt</text><text fill="#000000" font-family="sans-serif" font-size="11" font-weight="bold" lengthAdjust="spacing" textLength="303" x="88" y="180.2026">[kein g&#252;ltiges search-access_token vorhanden]</text><polygon fill="#181818" points="563.5,220.3906,573.5,224.3906,563.5,228.3906,567.5,224.3906" style="stroke:#181818;stroke-width:1.0;"/><line style="stroke:#181818;stroke-width:1.0;" x1="260.5" x2="569.5" y1="224.3906" y2="224.3906"/><text fill="#000000" font-family="sans-serif" font-size="13" font-weight="bold" lengthAdjust="spacing" textLength="30" x="267.5" y="219.3247">[02]</text><text fill="#000000" font-family="sans-serif" font-size="13" lengthAdjust="spacing" textLength="189" x="301.5" y="219.3247">Anfrage search-access_token</text><path d="M19,190.125 L19,245.125 L255,245.125 L255,200.125 L245,190.125 L19,190.125 " fill="#FEFFDD" style="stroke:#181818;stroke-width:0.5;"/><path d="M245,190.125 L245,200.125 L255,200.125 L245,190.125 " fill="#FEFFDD" style="stroke:#181818;stroke-width:0.5;"/><text fill="#000000" font-family="sans-serif" font-size="13" lengthAdjust="spacing" textLength="101" x="25" y="207.1919">Vor der Anfrage</text><text fill="#000000" font-family="sans-serif" font-size="13" lengthAdjust="spacing" textLength="167" x="25" y="222.3247">vom search-access_token</text><text fill="#000000" font-family="sans-serif" font-size="13" lengthAdjust="spacing" textLength="215" x="25" y="237.4575">muss der Client authentisiert sein</text><line style="stroke:#181818;stroke-width:1.0;" x1="575.5" x2="617.5" y1="286.7891" y2="286.7891"/><line style="stroke:#181818;stroke-width:1.0;" x1="617.5" x2="617.5" y1="286.7891" y2="299.7891"/><line style="stroke:#181818;stroke-width:1.0;" x1="576.5" x2="617.5" y1="299.7891" y2="299.7891"/><polygon fill="#181818" points="586.5,295.7891,576.5,299.7891,586.5,303.7891,582.5,299.7891" style="stroke:#181818;stroke-width:1.0;"/><text fill="#000000" font-family="sans-serif" font-size="13" font-weight="bold" lengthAdjust="spacing" textLength="30" x="582.5" y="274.1567">[03]</text><text fill="#000000" font-family="sans-serif" font-size="13" lengthAdjust="spacing" textLength="165" x="616.5" y="266.5903">client_id und client_secret</text><text fill="#000000" font-family="sans-serif" font-size="13" lengthAdjust="spacing" textLength="156" x="616.5" y="281.7231">z.B. aus config File lesen</text><polygon fill="#181818" points="849.5,324.9219,859.5,328.9219,849.5,332.9219,853.5,328.9219" style="stroke:#181818;stroke-width:1.0;"/><line style="stroke:#181818;stroke-width:1.0;" x1="575.5" x2="855.5" y1="328.9219" y2="328.9219"/><text fill="#000000" font-family="sans-serif" font-size="13" font-weight="bold" lengthAdjust="spacing" textLength="30" x="582.5" y="323.856">[04]</text><text fill="#000000" font-family="sans-serif" font-size="13" lengthAdjust="spacing" textLength="233" x="616.5" y="323.856">POST /token (client_id, client_secret)</text><line style="stroke:#181818;stroke-width:1.0;" x1="871.5" x2="913.5" y1="358.0547" y2="358.0547"/><line style="stroke:#181818;stroke-width:1.0;" x1="913.5" x2="913.5" y1="358.0547" y2="371.0547"/><line style="stroke:#181818;stroke-width:1.0;" x1="872.5" x2="913.5" y1="371.0547" y2="371.0547"/><polygon fill="#181818" points="882.5,367.0547,872.5,371.0547,882.5,375.0547,878.5,371.0547" style="stroke:#181818;stroke-width:1.0;"/><text fill="#000000" font-family="sans-serif" font-size="13" font-weight="bold" lengthAdjust="spacing" textLength="30" x="878.5" y="352.9888">[05]</text><text fill="#000000" font-family="sans-serif" font-size="13" lengthAdjust="spacing" textLength="178" x="912.5" y="352.9888">pr&#252;fe client_id, client_secret</text><polygon fill="#181818" points="586.5,396.1875,576.5,400.1875,586.5,404.1875,582.5,400.1875" style="stroke:#181818;stroke-width:1.0;"/><line style="stroke:#181818;stroke-width:1.0;stroke-dasharray:2.0,2.0;" x1="580.5" x2="865.5" y1="400.1875" y2="400.1875"/><text fill="#000000" font-family="sans-serif" font-size="13" font-weight="bold" lengthAdjust="spacing" textLength="30" x="592.5" y="395.1216">[06]</text><text fill="#000000" font-family="monospace" font-size="13" lengthAdjust="spacing" textLength="152" x="626.5" y="395.1216">service-authz-token</text><polygon fill="#181818" points="1085.5,440.4531,1095.5,444.4531,1085.5,448.4531,1089.5,444.4531" style="stroke:#181818;stroke-width:1.0;"/><line style="stroke:#181818;stroke-width:1.0;" x1="575.5" x2="1091.5" y1="444.4531" y2="444.4531"/><text fill="#000000" font-family="sans-serif" font-size="13" font-weight="bold" lengthAdjust="spacing" textLength="30" x="582.5" y="431.8208">[07]</text><text fill="#000000" font-family="sans-serif" font-size="13" lengthAdjust="spacing" textLength="164" x="616.5" y="424.2544">GET /service-authenticate</text><text fill="#000000" font-family="sans-serif" font-size="13" lengthAdjust="spacing" textLength="291" x="620.5" y="439.3872">Authorization:   Bearer {service-authz-token}</text><line style="stroke:#181818;stroke-width:1.0;" x1="1107.5" x2="1149.5" y1="473.5859" y2="473.5859"/><line style="stroke:#181818;stroke-width:1.0;" x1="1149.5" x2="1149.5" y1="473.5859" y2="486.5859"/><line style="stroke:#181818;stroke-width:1.0;" x1="1108.5" x2="1149.5" y1="486.5859" y2="486.5859"/><polygon fill="#181818" points="1118.5,482.5859,1108.5,486.5859,1118.5,490.5859,1114.5,486.5859" style="stroke:#181818;stroke-width:1.0;"/><text fill="#000000" font-family="sans-serif" font-size="13" font-weight="bold" lengthAdjust="spacing" textLength="30" x="1114.5" y="468.52">[08]</text><text fill="#000000" font-family="sans-serif" font-size="13" lengthAdjust="spacing" textLength="164" x="1148.5" y="468.52">Pr&#252;fe service-authz-token</text><line style="stroke:#181818;stroke-width:1.0;" x1="1107.5" x2="1149.5" y1="515.7188" y2="515.7188"/><line style="stroke:#181818;stroke-width:1.0;" x1="1149.5" x2="1149.5" y1="515.7188" y2="528.7188"/><line style="stroke:#181818;stroke-width:1.0;" x1="1108.5" x2="1149.5" y1="528.7188" y2="528.7188"/><polygon fill="#181818" points="1118.5,524.7188,1108.5,528.7188,1118.5,532.7188,1114.5,528.7188" style="stroke:#181818;stroke-width:1.0;"/><text fill="#000000" font-family="sans-serif" font-size="13" font-weight="bold" lengthAdjust="spacing" textLength="30" x="1114.5" y="510.6528">[09]</text><text fill="#000000" font-family="sans-serif" font-size="13" lengthAdjust="spacing" textLength="191" x="1148.5" y="510.6528">Erzeuge search-access_token</text><polygon fill="#181818" points="586.5,629.5156,576.5,633.5156,586.5,637.5156,582.5,633.5156" style="stroke:#181818;stroke-width:1.0;"/><line style="stroke:#181818;stroke-width:1.0;stroke-dasharray:2.0,2.0;" x1="580.5" x2="1096.5" y1="633.5156" y2="633.5156"/><text fill="#000000" font-family="sans-serif" font-size="13" font-weight="bold" lengthAdjust="spacing" textLength="30" x="592.5" y="590.6177">[10]</text><text fill="#000000" font-family="sans-serif" font-size="13" lengthAdjust="spacing" textLength="82" x="626.5" y="552.7856">HTTP 200 OK</text><text fill="#000000" font-family="sans-serif" font-size="13" lengthAdjust="spacing" textLength="8" x="626.5" y="567.9185">{</text><text fill="#000000" font-family="sans-serif" font-size="13" lengthAdjust="spacing" textLength="257" x="630.5" y="583.0513">"access_token"="search-access_token",</text><text fill="#000000" font-family="sans-serif" font-size="13" lengthAdjust="spacing" textLength="141" x="634.5" y="598.1841">"token_type":"bearer",</text><text fill="#000000" font-family="sans-serif" font-size="13" lengthAdjust="spacing" textLength="118" x="630.5" y="613.3169">"expires_in":86400</text><text fill="#000000" font-family="sans-serif" font-size="13" lengthAdjust="spacing" textLength="8" x="626.5" y="628.4497">}</text><line style="stroke:#181818;stroke-width:1.0;" x1="575.5" x2="617.5" y1="662.6484" y2="662.6484"/><line style="stroke:#181818;stroke-width:1.0;" x1="617.5" x2="617.5" y1="662.6484" y2="675.6484"/><line style="stroke:#181818;stroke-width:1.0;" x1="576.5" x2="617.5" y1="675.6484" y2="675.6484"/><polygon fill="#181818" points="586.5,671.6484,576.5,675.6484,586.5,679.6484,582.5,675.6484" style="stroke:#181818;stroke-width:1.0;"/><text fill="#000000" font-family="sans-serif" font-size="13" font-weight="bold" lengthAdjust="spacing" textLength="30" x="582.5" y="657.5825">[11]</text><text fill="#000000" font-family="sans-serif" font-size="13" lengthAdjust="spacing" textLength="38" x="616.5" y="657.5825">cache</text><text fill="#000000" font-family="monospace" font-size="13" lengthAdjust="spacing" textLength="152" x="658.5" y="657.5825">search-access_token</text><polygon fill="#181818" points="271.5,700.7813,261.5,704.7813,271.5,708.7813,267.5,704.7813" style="stroke:#181818;stroke-width:1.0;"/><line style="stroke:#181818;stroke-width:1.0;stroke-dasharray:2.0,2.0;" x1="265.5" x2="574.5" y1="704.7813" y2="704.7813"/><text fill="#000000" font-family="sans-serif" font-size="13" font-weight="bold" lengthAdjust="spacing" textLength="30" x="277.5" y="699.7153">[12]</text><text fill="#000000" font-family="monospace" font-size="13" lengthAdjust="spacing" textLength="152" x="311.5" y="699.7153">search-access_token</text><rect fill="#EEEEEE" height="3" style="stroke:#EEEEEE;stroke-width:1.0;" width="1581.5" x="0" y="740.3477"/><line style="stroke:#000000;stroke-width:1.0;" x1="0" x2="1581.5" y1="740.3477" y2="740.3477"/><line style="stroke:#000000;stroke-width:1.0;" x1="0" x2="1581.5" y1="743.3477" y2="743.3477"/><rect fill="#EEEEEE" height="23.1328" style="stroke:#000000;stroke-width:2.0;" width="327" x="627.25" y="729.7813"/><text fill="#000000" font-family="sans-serif" font-size="13" font-weight="bold" lengthAdjust="spacing" textLength="308" x="633.25" y="745.8481">...Suche durch Versicherte im FHIR VZD...</text><polygon fill="#181818" points="1334.5,795.1797,1344.5,799.1797,1334.5,803.1797,1338.5,799.1797" style="stroke:#181818;stroke-width:1.0;"/><line style="stroke:#181818;stroke-width:1.0;" x1="260.5" x2="1340.5" y1="799.1797" y2="799.1797"/><text fill="#000000" font-family="sans-serif" font-size="13" font-weight="bold" lengthAdjust="spacing" textLength="30" x="267.5" y="786.5474">[13]</text><text fill="#000000" font-family="sans-serif" font-size="13" lengthAdjust="spacing" textLength="118" x="301.5" y="778.981">GET /fdv/search?...</text><text fill="#000000" font-family="sans-serif" font-size="13" lengthAdjust="spacing" textLength="275" x="301.5" y="794.1138">Authorization: Bearer search-access_token</text><line style="stroke:#181818;stroke-width:1.0;" x1="1356.5" x2="1398.5" y1="828.3125" y2="828.3125"/><line style="stroke:#181818;stroke-width:1.0;" x1="1398.5" x2="1398.5" y1="828.3125" y2="841.3125"/><line style="stroke:#181818;stroke-width:1.0;" x1="1357.5" x2="1398.5" y1="841.3125" y2="841.3125"/><polygon fill="#181818" points="1367.5,837.3125,1357.5,841.3125,1367.5,845.3125,1363.5,841.3125" style="stroke:#181818;stroke-width:1.0;"/><text fill="#000000" font-family="sans-serif" font-size="13" font-weight="bold" lengthAdjust="spacing" textLength="30" x="1363.5" y="823.2466">[14]</text><text fill="#000000" font-family="sans-serif" font-size="13" lengthAdjust="spacing" textLength="172" x="1397.5" y="823.2466">pr&#252;fe search-access_token</text><path d="M180,856.3125 L244,856.3125 L244,863.4453 L234,873.4453 L180,873.4453 L180,856.3125 " fill="#EEEEEE" style="stroke:#000000;stroke-width:1.5;"/><rect fill="none" height="132.3359" style="stroke:#000000;stroke-width:1.5;" width="1352.5" x="180" y="856.3125"/><text fill="#000000" font-family="sans-serif" font-size="13" font-weight="bold" lengthAdjust="spacing" textLength="19" x="195" y="869.3794">alt</text><text fill="#000000" font-family="sans-serif" font-size="11" font-weight="bold" lengthAdjust="spacing" textLength="205" x="259" y="868.5229">[search-access_token ist g&#252;ltig]</text><line style="stroke:#181818;stroke-width:1.0;" x1="1356.5" x2="1398.5" y1="894.5781" y2="894.5781"/><line style="stroke:#181818;stroke-width:1.0;" x1="1398.5" x2="1398.5" y1="894.5781" y2="907.5781"/><line style="stroke:#181818;stroke-width:1.0;" x1="1357.5" x2="1398.5" y1="907.5781" y2="907.5781"/><polygon fill="#181818" points="1367.5,903.5781,1357.5,907.5781,1367.5,911.5781,1363.5,907.5781" style="stroke:#181818;stroke-width:1.0;"/><text fill="#000000" font-family="sans-serif" font-size="13" font-weight="bold" lengthAdjust="spacing" textLength="30" x="1363.5" y="889.5122">[15]</text><text fill="#000000" font-family="sans-serif" font-size="13" lengthAdjust="spacing" textLength="123" x="1397.5" y="889.5122">suche im FHIR VZD</text><polygon fill="#181818" points="271.5,932.7109,261.5,936.7109,271.5,940.7109,267.5,936.7109" style="stroke:#181818;stroke-width:1.0;"/><line style="stroke:#181818;stroke-width:1.0;stroke-dasharray:2.0,2.0;" x1="265.5" x2="1345.5" y1="936.7109" y2="936.7109"/><text fill="#000000" font-family="sans-serif" font-size="13" font-weight="bold" lengthAdjust="spacing" textLength="30" x="277.5" y="931.645">[16]</text><text fill="#000000" font-family="sans-serif" font-size="13" lengthAdjust="spacing" textLength="201" x="311.5" y="931.645">HTTP 200 OK (Result Body json)</text><line style="stroke:#000000;stroke-width:1.0;stroke-dasharray:2.0,2.0;" x1="180" x2="1532.5" y1="945.7109" y2="945.7109"/><text fill="#000000" font-family="sans-serif" font-size="11" font-weight="bold" lengthAdjust="spacing" textLength="221" x="185" y="955.9214">[search-access_token ist ung&#252;ltig]</text><polygon fill="#181818" points="271.5,976.6484,261.5,980.6484,271.5,984.6484,267.5,980.6484" style="stroke:#181818;stroke-width:1.0;"/><line style="stroke:#181818;stroke-width:1.0;stroke-dasharray:2.0,2.0;" x1="265.5" x2="1350.5" y1="980.6484" y2="980.6484"/><text fill="#000000" font-family="sans-serif" font-size="13" font-weight="bold" lengthAdjust="spacing" textLength="30" x="277.5" y="975.5825">[17]</text><text fill="#000000" font-family="sans-serif" font-size="13" lengthAdjust="spacing" textLength="60" x="311.5" y="975.5825">HTTP 401</text></g></svg>