<?xml version="1.0" encoding="UTF-8" standalone="no"?><svg xmlns="http://www.w3.org/2000/svg" xmlns:xlink="http://www.w3.org/1999/xlink" contentStyleType="text/css" height="920px" preserveAspectRatio="none" style="width:1343px;height:920px;background:#FFFFFF;" version="1.1" viewBox="0 0 1343 920" width="1343px" zoomAndPan="magnify"><defs/><g><text fill="#000000" font-family="sans-serif" font-size="14" font-weight="bold" lengthAdjust="spacing" textLength="354" x="490.75" y="27.9951">FHIR-VZD Authentisierung mit GesundheitsID</text><rect fill="#F5F5F5" height="870.7188" style="stroke:#181818;stroke-width:0.5;" width="996" x="324.5" y="43.2969"/><text fill="#000000" font-family="sans-serif" font-size="13" font-weight="bold" lengthAdjust="spacing" textLength="142" x="749" y="55.3638">VZD-FHIR-Directory</text><rect fill="#FFFFFF" height="745.8594" style="stroke:#181818;stroke-width:1.0;" width="10" x="376.5" y="124.8594"/><rect fill="#FFFFFF" height="621.3281" style="stroke:#181818;stroke-width:1.0;" width="10" x="612.5" y="240.3906"/><rect fill="#FFFFFF" height="113.3984" style="stroke:#181818;stroke-width:1.0;" width="10" x="617.5" y="748.3203"/><rect fill="#FFFFFF" height="212.7344" style="stroke:#181818;stroke-width:1.0;" width="10" x="1009.5" y="441.1875"/><rect fill="#FFFFFF" height="44.2656" style="stroke:#181818;stroke-width:1.0;" width="10" x="1255.5" y="536.5859"/><rect fill="none" height="163.6016" style="stroke:#000000;stroke-width:1.5;" width="1316.5" x="10" y="498.3203"/><line style="stroke:#181818;stroke-width:0.5;stroke-dasharray:5.0,5.0;" x1="90" x2="90" y1="93.7266" y2="879.7188"/><line style="stroke:#181818;stroke-width:0.5;stroke-dasharray:5.0,5.0;" x1="381.5" x2="381.5" y1="93.7266" y2="879.7188"/><line style="stroke:#181818;stroke-width:0.5;stroke-dasharray:5.0,5.0;" x1="617" x2="617" y1="93.7266" y2="879.7188"/><line style="stroke:#181818;stroke-width:0.5;stroke-dasharray:5.0,5.0;" x1="1014" x2="1014" y1="93.7266" y2="879.7188"/><line style="stroke:#181818;stroke-width:0.5;stroke-dasharray:5.0,5.0;" x1="1260.5" x2="1260.5" y1="93.7266" y2="879.7188"/><rect fill="#E2E2F0" height="30.2969" rx="2.5" ry="2.5" style="stroke:#181818;stroke-width:0.5;" width="141" x="20" y="62.4297"/><text fill="#000000" font-family="sans-serif" font-size="14" lengthAdjust="spacing" textLength="127" x="27" y="82.4248">Client Versicherter</text><rect fill="#E2E2F0" height="30.2969" rx="2.5" ry="2.5" style="stroke:#181818;stroke-width:0.5;" width="141" x="20" y="878.7188"/><text fill="#000000" font-family="sans-serif" font-size="14" lengthAdjust="spacing" textLength="127" x="27" y="898.7139">Client Versicherter</text><rect fill="#E2E2F0" height="30.2969" rx="2.5" ry="2.5" style="stroke:#181818;stroke-width:0.5;" width="106" x="328.5" y="62.4297"/><text fill="#000000" font-family="sans-serif" font-size="14" lengthAdjust="spacing" textLength="92" x="335.5" y="82.4248">OAuth-Server</text><rect fill="#E2E2F0" height="30.2969" rx="2.5" ry="2.5" style="stroke:#181818;stroke-width:0.5;" width="106" x="328.5" y="878.7188"/><text fill="#000000" font-family="sans-serif" font-size="14" lengthAdjust="spacing" textLength="92" x="335.5" y="898.7139">OAuth-Server</text><rect fill="#E2E2F0" height="30.2969" rx="2.5" ry="2.5" style="stroke:#181818;stroke-width:0.5;" width="101" x="567" y="62.4297"/><text fill="#000000" font-family="sans-serif" font-size="14" lengthAdjust="spacing" textLength="87" x="574" y="82.4248">Auth-Service</text><rect fill="#E2E2F0" height="30.2969" rx="2.5" ry="2.5" style="stroke:#181818;stroke-width:0.5;" width="101" x="567" y="878.7188"/><text fill="#000000" font-family="sans-serif" font-size="14" lengthAdjust="spacing" textLength="87" x="574" y="898.7139">Auth-Service</text><rect fill="#E2E2F0" height="30.2969" rx="2.5" ry="2.5" style="stroke:#181818;stroke-width:0.5;" width="87" x="971" y="62.4297"/><text fill="#000000" font-family="sans-serif" font-size="14" lengthAdjust="spacing" textLength="73" x="978" y="82.4248">FHIR-Proxy</text><rect fill="#E2E2F0" height="30.2969" rx="2.5" ry="2.5" style="stroke:#181818;stroke-width:0.5;" width="87" x="971" y="878.7188"/><text fill="#000000" font-family="sans-serif" font-size="14" lengthAdjust="spacing" textLength="73" x="978" y="898.7139">FHIR-Proxy</text><rect fill="#E2E2F0" height="30.2969" rx="2.5" ry="2.5" style="stroke:#181818;stroke-width:0.5;" width="112" x="1204.5" y="62.4297"/><text fill="#000000" font-family="sans-serif" font-size="14" lengthAdjust="spacing" textLength="98" x="1211.5" y="82.4248">FHIR-Directory</text><rect fill="#E2E2F0" height="30.2969" rx="2.5" ry="2.5" style="stroke:#181818;stroke-width:0.5;" width="112" x="1204.5" y="878.7188"/><text fill="#000000" font-family="sans-serif" font-size="14" lengthAdjust="spacing" textLength="98" x="1211.5" y="898.7139">FHIR-Directory</text><rect fill="#FFFFFF" height="745.8594" style="stroke:#181818;stroke-width:1.0;" width="10" x="376.5" y="124.8594"/><rect fill="#FFFFFF" height="621.3281" style="stroke:#181818;stroke-width:1.0;" width="10" x="612.5" y="240.3906"/><rect fill="#FFFFFF" height="113.3984" style="stroke:#181818;stroke-width:1.0;" width="10" x="617.5" y="748.3203"/><rect fill="#FFFFFF" height="212.7344" style="stroke:#181818;stroke-width:1.0;" width="10" x="1009.5" y="441.1875"/><rect fill="#FFFFFF" height="44.2656" style="stroke:#181818;stroke-width:1.0;" width="10" x="1255.5" y="536.5859"/><polygon fill="#181818" points="364.5,120.8594,374.5,124.8594,364.5,128.8594,368.5,124.8594" style="stroke:#181818;stroke-width:1.0;"/><line style="stroke:#181818;stroke-width:1.0;" x1="90.5" x2="370.5" y1="124.8594" y2="124.8594"/><text fill="#000000" font-family="sans-serif" font-size="13" font-weight="bold" lengthAdjust="spacing" textLength="30" x="97.5" y="119.7935">[01]</text><text fill="#000000" font-family="sans-serif" font-size="13" lengthAdjust="spacing" textLength="233" x="131.5" y="119.7935">POST /token (client_id, client_secret)</text><line style="stroke:#181818;stroke-width:1.0;" x1="386.5" x2="428.5" y1="153.9922" y2="153.9922"/><line style="stroke:#181818;stroke-width:1.0;" x1="428.5" x2="428.5" y1="153.9922" y2="166.9922"/><line style="stroke:#181818;stroke-width:1.0;" x1="387.5" x2="428.5" y1="166.9922" y2="166.9922"/><polygon fill="#181818" points="397.5,162.9922,387.5,166.9922,397.5,170.9922,393.5,166.9922" style="stroke:#181818;stroke-width:1.0;"/><text fill="#000000" font-family="sans-serif" font-size="13" font-weight="bold" lengthAdjust="spacing" textLength="30" x="393.5" y="148.9263">[02]</text><text fill="#000000" font-family="sans-serif" font-size="13" lengthAdjust="spacing" textLength="178" x="427.5" y="148.9263">prüfe client_id, client_secret</text><polygon fill="#181818" points="101.5,192.125,91.5,196.125,101.5,200.125,97.5,196.125" style="stroke:#181818;stroke-width:1.0;"/><line style="stroke:#181818;stroke-width:1.0;stroke-dasharray:2.0,2.0;" x1="95.5" x2="375.5" y1="196.125" y2="196.125"/><text fill="#000000" font-family="sans-serif" font-size="13" font-weight="bold" lengthAdjust="spacing" textLength="30" x="107.5" y="191.0591">[03]</text><text fill="#000000" font-family="sans-serif" font-size="13" lengthAdjust="spacing" textLength="130" x="141.5" y="191.0591">patient-accesstoken</text><polygon fill="#181818" points="600.5,236.3906,610.5,240.3906,600.5,244.3906,604.5,240.3906" style="stroke:#181818;stroke-width:1.0;"/><line style="stroke:#181818;stroke-width:1.0;" x1="90.5" x2="606.5" y1="240.3906" y2="240.3906"/><text fill="#000000" font-family="sans-serif" font-size="13" font-weight="bold" lengthAdjust="spacing" textLength="30" x="97.5" y="227.7583">[04]</text><text fill="#000000" font-family="sans-serif" font-size="13" lengthAdjust="spacing" textLength="164" x="131.5" y="220.1919">GET /patient-authenticate</text><text fill="#000000" font-family="sans-serif" font-size="13" lengthAdjust="spacing" textLength="290" x="131.5" y="235.3247">(Authorization: "Bearer patient-accesstoken")</text><line style="stroke:#181818;stroke-width:1.0;" x1="622.5" x2="664.5" y1="269.5234" y2="269.5234"/><line style="stroke:#181818;stroke-width:1.0;" x1="664.5" x2="664.5" y1="269.5234" y2="282.5234"/><line style="stroke:#181818;stroke-width:1.0;" x1="623.5" x2="664.5" y1="282.5234" y2="282.5234"/><polygon fill="#181818" points="633.5,278.5234,623.5,282.5234,633.5,286.5234,629.5,282.5234" style="stroke:#181818;stroke-width:1.0;"/><text fill="#000000" font-family="sans-serif" font-size="13" font-weight="bold" lengthAdjust="spacing" textLength="30" x="629.5" y="264.4575">[05]</text><text fill="#000000" font-family="sans-serif" font-size="13" lengthAdjust="spacing" textLength="167" x="663.5" y="264.4575">Prüfe patient-accesstoken</text><line style="stroke:#181818;stroke-width:1.0;" x1="622.5" x2="664.5" y1="311.6563" y2="311.6563"/><line style="stroke:#181818;stroke-width:1.0;" x1="664.5" x2="664.5" y1="311.6563" y2="324.6563"/><line style="stroke:#181818;stroke-width:1.0;" x1="623.5" x2="664.5" y1="324.6563" y2="324.6563"/><polygon fill="#181818" points="633.5,320.6563,623.5,324.6563,633.5,328.6563,629.5,324.6563" style="stroke:#181818;stroke-width:1.0;"/><text fill="#000000" font-family="sans-serif" font-size="13" font-weight="bold" lengthAdjust="spacing" textLength="30" x="629.5" y="306.5903">[06]</text><text fill="#000000" font-family="sans-serif" font-size="13" lengthAdjust="spacing" textLength="334" x="663.5" y="306.5903">Erzeuge search-ACCESS_TOKEN &amp; REFRESH_TOKEN</text><polygon fill="#181818" points="101.5,349.7891,91.5,353.7891,101.5,357.7891,97.5,353.7891" style="stroke:#181818;stroke-width:1.0;"/><line style="stroke:#181818;stroke-width:1.0;stroke-dasharray:2.0,2.0;" x1="95.5" x2="611.5" y1="353.7891" y2="353.7891"/><text fill="#000000" font-family="sans-serif" font-size="13" font-weight="bold" lengthAdjust="spacing" textLength="30" x="107.5" y="348.7231">[07]</text><text fill="#000000" font-family="sans-serif" font-size="13" lengthAdjust="spacing" textLength="278" x="141.5" y="348.7231">search-ACCESS_TOKEN &amp; REFRESH_TOKEN</text><rect fill="#EEEEEE" height="3" style="stroke:#EEEEEE;stroke-width:1.0;" width="1336.5" x="0" y="382.3555"/><line style="stroke:#000000;stroke-width:1.0;" x1="0" x2="1336.5" y1="382.3555" y2="382.3555"/><line style="stroke:#000000;stroke-width:1.0;" x1="0" x2="1336.5" y1="385.3555" y2="385.3555"/><rect fill="#EEEEEE" height="23.1328" style="stroke:#000000;stroke-width:2.0;" width="327" x="504.75" y="371.7891"/><text fill="#000000" font-family="sans-serif" font-size="13" font-weight="bold" lengthAdjust="spacing" textLength="308" x="510.75" y="387.856">...Suche durch Versicherte im FHIR VZD...</text><polygon fill="#181818" points="997.5,437.1875,1007.5,441.1875,997.5,445.1875,1001.5,441.1875" style="stroke:#181818;stroke-width:1.0;"/><line style="stroke:#181818;stroke-width:1.0;" x1="90.5" x2="1003.5" y1="441.1875" y2="441.1875"/><text fill="#000000" font-family="sans-serif" font-size="13" font-weight="bold" lengthAdjust="spacing" textLength="30" x="97.5" y="428.5552">[08]</text><text fill="#000000" font-family="sans-serif" font-size="13" lengthAdjust="spacing" textLength="210" x="131.5" y="420.9888">GET /search?... (Auth Header mit</text><text fill="#000000" font-family="sans-serif" font-size="13" lengthAdjust="spacing" textLength="156" x="131.5" y="436.1216">search-ACCESS_TOKEN)</text><line style="stroke:#181818;stroke-width:1.0;" x1="1019.5" x2="1061.5" y1="470.3203" y2="470.3203"/><line style="stroke:#181818;stroke-width:1.0;" x1="1061.5" x2="1061.5" y1="470.3203" y2="483.3203"/><line style="stroke:#181818;stroke-width:1.0;" x1="1020.5" x2="1061.5" y1="483.3203" y2="483.3203"/><polygon fill="#181818" points="1030.5,479.3203,1020.5,483.3203,1030.5,487.3203,1026.5,483.3203" style="stroke:#181818;stroke-width:1.0;"/><text fill="#000000" font-family="sans-serif" font-size="13" font-weight="bold" lengthAdjust="spacing" textLength="30" x="1026.5" y="465.2544">[09]</text><text fill="#000000" font-family="sans-serif" font-size="13" lengthAdjust="spacing" textLength="188" x="1060.5" y="465.2544">prüfe search-ACCESS_TOKEN</text><path d="M10,498.3203 L74,498.3203 L74,505.4531 L64,515.4531 L10,515.4531 L10,498.3203 " fill="#EEEEEE" style="stroke:#000000;stroke-width:1.5;"/><rect fill="none" height="163.6016" style="stroke:#000000;stroke-width:1.5;" width="1316.5" x="10" y="498.3203"/><text fill="#000000" font-family="sans-serif" font-size="13" font-weight="bold" lengthAdjust="spacing" textLength="19" x="25" y="511.3872">alt</text><text fill="#000000" font-family="sans-serif" font-size="11" font-weight="bold" lengthAdjust="spacing" textLength="208" x="89" y="510.5308">[search-ACCESS_TOKEN is valid]</text><polygon fill="#181818" points="1243.5,532.5859,1253.5,536.5859,1243.5,540.5859,1247.5,536.5859" style="stroke:#181818;stroke-width:1.0;"/><line style="stroke:#181818;stroke-width:1.0;" x1="1019.5" x2="1249.5" y1="536.5859" y2="536.5859"/><text fill="#000000" font-family="sans-serif" font-size="13" font-weight="bold" lengthAdjust="spacing" textLength="30" x="1026.5" y="531.52">[10]</text><text fill="#000000" font-family="sans-serif" font-size="13" lengthAdjust="spacing" textLength="52" x="1060.5" y="531.52">GET /?...</text><polygon fill="#181818" points="1030.5,576.8516,1020.5,580.8516,1030.5,584.8516,1026.5,580.8516" style="stroke:#181818;stroke-width:1.0;"/><line style="stroke:#181818;stroke-width:1.0;stroke-dasharray:2.0,2.0;" x1="1024.5" x2="1259.5" y1="580.8516" y2="580.8516"/><text fill="#000000" font-family="sans-serif" font-size="13" font-weight="bold" lengthAdjust="spacing" textLength="30" x="1036.5" y="568.2192">[11]</text><text fill="#000000" font-family="sans-serif" font-size="13" lengthAdjust="spacing" textLength="82" x="1070.5" y="560.6528">HTTP 200 OK</text><text fill="#000000" font-family="sans-serif" font-size="13" lengthAdjust="spacing" textLength="115" x="1070.5" y="575.7856">(Result Body json)</text><polygon fill="#181818" points="101.5,605.9844,91.5,609.9844,101.5,613.9844,97.5,609.9844" style="stroke:#181818;stroke-width:1.0;"/><line style="stroke:#181818;stroke-width:1.0;stroke-dasharray:2.0,2.0;" x1="95.5" x2="1008.5" y1="609.9844" y2="609.9844"/><text fill="#000000" font-family="sans-serif" font-size="13" font-weight="bold" lengthAdjust="spacing" textLength="30" x="107.5" y="604.9185">[12]</text><text fill="#000000" font-family="sans-serif" font-size="13" lengthAdjust="spacing" textLength="201" x="141.5" y="604.9185">HTTP 200 OK (Result Body json)</text><line style="stroke:#000000;stroke-width:1.0;stroke-dasharray:2.0,2.0;" x1="10" x2="1326.5" y1="618.9844" y2="618.9844"/><text fill="#000000" font-family="sans-serif" font-size="11" font-weight="bold" lengthAdjust="spacing" textLength="200" x="15" y="629.1948">[search-accesstoken is invalid]</text><polygon fill="#181818" points="101.5,649.9219,91.5,653.9219,101.5,657.9219,97.5,653.9219" style="stroke:#181818;stroke-width:1.0;"/><line style="stroke:#181818;stroke-width:1.0;stroke-dasharray:2.0,2.0;" x1="95.5" x2="1013.5" y1="653.9219" y2="653.9219"/><text fill="#000000" font-family="sans-serif" font-size="13" font-weight="bold" lengthAdjust="spacing" textLength="30" x="107.5" y="648.856">[13]</text><text fill="#000000" font-family="sans-serif" font-size="13" lengthAdjust="spacing" textLength="60" x="141.5" y="648.856">HTTP 401</text><rect fill="#EEEEEE" height="3" style="stroke:#EEEEEE;stroke-width:1.0;" width="1336.5" x="0" y="689.4883"/><line style="stroke:#000000;stroke-width:1.0;" x1="0" x2="1336.5" y1="689.4883" y2="689.4883"/><line style="stroke:#000000;stroke-width:1.0;" x1="0" x2="1336.5" y1="692.4883" y2="692.4883"/><rect fill="#EEEEEE" height="23.1328" style="stroke:#000000;stroke-width:2.0;" width="305" x="515.75" y="678.9219"/><text fill="#000000" font-family="sans-serif" font-size="13" font-weight="bold" lengthAdjust="spacing" textLength="286" x="521.75" y="694.9888">...search-ACCESS_TOKEN abgelaufen...</text><polygon fill="#181818" points="605.5,744.3203,615.5,748.3203,605.5,752.3203,609.5,748.3203" style="stroke:#181818;stroke-width:1.0;"/><line style="stroke:#181818;stroke-width:1.0;" x1="90.5" x2="611.5" y1="748.3203" y2="748.3203"/><text fill="#000000" font-family="sans-serif" font-size="13" font-weight="bold" lengthAdjust="spacing" textLength="30" x="97.5" y="735.688">[14]</text><text fill="#000000" font-family="sans-serif" font-size="13" lengthAdjust="spacing" textLength="164" x="131.5" y="728.1216">GET /patient-authenticate</text><text fill="#000000" font-family="sans-serif" font-size="13" lengthAdjust="spacing" textLength="268" x="131.5" y="743.2544">(Authorization: "Bearer REFRESH_TOKEN")</text><line style="stroke:#181818;stroke-width:1.0;" x1="627.5" x2="669.5" y1="777.4531" y2="777.4531"/><line style="stroke:#181818;stroke-width:1.0;" x1="669.5" x2="669.5" y1="777.4531" y2="790.4531"/><line style="stroke:#181818;stroke-width:1.0;" x1="628.5" x2="669.5" y1="790.4531" y2="790.4531"/><polygon fill="#181818" points="638.5,786.4531,628.5,790.4531,638.5,794.4531,634.5,790.4531" style="stroke:#181818;stroke-width:1.0;"/><text fill="#000000" font-family="sans-serif" font-size="13" font-weight="bold" lengthAdjust="spacing" textLength="30" x="634.5" y="772.3872">[15]</text><text fill="#000000" font-family="sans-serif" font-size="13" lengthAdjust="spacing" textLength="145" x="668.5" y="772.3872">Prüfe REFRESH_TOKEN</text><line style="stroke:#181818;stroke-width:1.0;" x1="627.5" x2="669.5" y1="819.5859" y2="819.5859"/><line style="stroke:#181818;stroke-width:1.0;" x1="669.5" x2="669.5" y1="819.5859" y2="832.5859"/><line style="stroke:#181818;stroke-width:1.0;" x1="628.5" x2="669.5" y1="832.5859" y2="832.5859"/><polygon fill="#181818" points="638.5,828.5859,628.5,832.5859,638.5,836.5859,634.5,832.5859" style="stroke:#181818;stroke-width:1.0;"/><text fill="#000000" font-family="sans-serif" font-size="13" font-weight="bold" lengthAdjust="spacing" textLength="30" x="634.5" y="814.52">[16]</text><text fill="#000000" font-family="sans-serif" font-size="13" lengthAdjust="spacing" textLength="334" x="668.5" y="814.52">Erzeuge search-ACCESS_TOKEN &amp; REFRESH_TOKEN</text><polygon fill="#181818" points="101.5,857.7188,91.5,861.7188,101.5,865.7188,97.5,861.7188" style="stroke:#181818;stroke-width:1.0;"/><line style="stroke:#181818;stroke-width:1.0;stroke-dasharray:2.0,2.0;" x1="95.5" x2="616.5" y1="861.7188" y2="861.7188"/><text fill="#000000" font-family="sans-serif" font-size="13" font-weight="bold" lengthAdjust="spacing" textLength="30" x="107.5" y="856.6528">[17]</text><text fill="#000000" font-family="sans-serif" font-size="13" lengthAdjust="spacing" textLength="354" x="141.5" y="856.6528">Response (search-ACCESS_TOKEN &amp; REFRESH_TOKEN)</text><!--MD5=[5e09a965661d6a2b3939b4cebe51ac28]
@startuml
autonumber 1 1 "<b>[00]"
title "FHIR-VZD Authentisierung mit GesundheitsID"

participant VClient as "Client Versicherter"

box VZD-FHIR-Directory #WhiteSmoke
    participant "OAuth-Server" as VzdOAuth
    participant "Auth-Service" as VzdAuth
    participant fp as "FHIR-Proxy"
    participant fd as "FHIR-Directory"
end box


VClient->VzdOAuth++: POST /token (client_id, client_secret)
VzdOAuth->VzdOAuth: prüfe client_id, client_secret
VzdOAuth- ->VClient: patient-accesstoken

VClient->VzdAuth++: GET /patient-authenticate \n(Authorization: "Bearer patient-accesstoken")
VzdAuth->VzdAuth: Prüfe patient-accesstoken
VzdAuth->VzdAuth: Erzeuge search-ACCESS_TOKEN & REFRESH_TOKEN
VzdAuth- ->VClient: search-ACCESS_TOKEN & REFRESH_TOKEN

== ...Suche durch Versicherte im FHIR VZD... ==

VClient -> fp: GET /search?... (Auth Header mit\nsearch-ACCESS_TOKEN)
activate fp
fp -> fp: prüfe search-ACCESS_TOKEN

alt search-ACCESS_TOKEN is valid
fp -> fd: GET /?...
activate fd
fd - -> fp: HTTP 200 OK\n(Result Body json)
deactivate fd
fp - -> VClient : HTTP 200 OK (Result Body json)
else search-accesstoken is invalid
fp - -> VClient : HTTP 401
deactivate fp
end

== ...search-ACCESS_TOKEN abgelaufen... ==

VClient->VzdAuth++: GET /patient-authenticate \n(Authorization: "Bearer REFRESH_TOKEN")
VzdAuth->VzdAuth: Prüfe REFRESH_TOKEN
VzdAuth->VzdAuth: Erzeuge search-ACCESS_TOKEN & REFRESH_TOKEN

VzdAuth- ->VClient: Response (search-ACCESS_TOKEN & REFRESH_TOKEN)
deactivate VzdAuth
deactivate VzdAuth

@enduml

PlantUML version 1.2022.13(Sat Nov 19 13:22:17 UTC 2022)
(GPL source distribution)
Java Runtime: OpenJDK Runtime Environment
JVM: OpenJDK 64-Bit Server VM
Default Encoding: UTF-8
Language: en
Country: null
--></g></svg>