<?xml version="1.0" encoding="us-ascii" standalone="no"?><svg xmlns="http://www.w3.org/2000/svg" xmlns:xlink="http://www.w3.org/1999/xlink" contentStyleType="text/css" height="446.875px" preserveAspectRatio="none" style="width:938px;height:446px;background:#FFFFFF;" version="1.1" viewBox="0 0 938 446" width="938.5417px" zoomAndPan="magnify"><defs/><g><rect fill="#FFFFFF" height="122.4284" style="stroke:#181818;stroke-width:1.0416666666666667;" width="10.4167" x="73.9583" y="277.4577"/><rect fill="#FFFFFF" height="329.6468" style="stroke:#181818;stroke-width:1.0416666666666667;" width="10.4167" x="487.5" y="70.2393"/><rect fill="#FFFFFF" height="151.7334" style="stroke:#181818;stroke-width:1.0416666666666667;" width="10.4167" x="847.9167" y="70.2393"/><rect fill="none" height="154.9967" style="stroke:#000000;stroke-width:1.5625;" width="538.0208" x="10.4167" y="237.5977"/><line style="stroke:#181818;stroke-width:0.5208333333333334;stroke-dasharray:5.0,5.0;" x1="79.1667" x2="79.1667" y1="37.8092" y2="410.3027"/><line style="stroke:#181818;stroke-width:0.5208333333333334;stroke-dasharray:5.0,5.0;" x1="492.1875" x2="492.1875" y1="37.8092" y2="410.3027"/><line style="stroke:#181818;stroke-width:0.5208333333333334;stroke-dasharray:5.0,5.0;" x1="853.125" x2="853.125" y1="37.8092" y2="410.3027"/><rect fill="#E3E3E3" height="31.5592" rx="2.6042" ry="2.6042" style="stroke:#181818;stroke-width:0.5208333333333334;" width="116.6667" x="20.8333" y="5.2083"/><text fill="#000000" font-family="sans-serif" font-size="14.5833" lengthAdjust="spacing" textLength="102.0833" x="28.125" y="26.0366">FHIR-Directory</text><rect fill="#E3E3E3" height="31.5592" rx="2.6042" ry="2.6042" style="stroke:#181818;stroke-width:0.5208333333333334;" width="116.6667" x="20.8333" y="409.2611"/><text fill="#000000" font-family="sans-serif" font-size="14.5833" lengthAdjust="spacing" textLength="102.0833" x="28.125" y="430.0893">FHIR-Directory</text><rect fill="#E3E3E3" height="31.5592" rx="2.6042" ry="2.6042" style="stroke:#181818;stroke-width:0.5208333333333334;" width="90.625" x="447.3958" y="5.2083"/><text fill="#000000" font-family="sans-serif" font-size="14.5833" lengthAdjust="spacing" textLength="76.0417" x="454.6875" y="26.0366">FHIR-Proxy</text><rect fill="#E3E3E3" height="31.5592" rx="2.6042" ry="2.6042" style="stroke:#181818;stroke-width:0.5208333333333334;" width="90.625" x="447.3958" y="409.2611"/><text fill="#000000" font-family="sans-serif" font-size="14.5833" lengthAdjust="spacing" textLength="76.0417" x="454.6875" y="430.0893">FHIR-Proxy</text><rect fill="#E3E3E3" height="31.5592" rx="2.6042" ry="2.6042" style="stroke:#181818;stroke-width:0.5208333333333334;" width="158.3333" x="773.9583" y="5.2083"/><text fill="#000000" font-family="sans-serif" font-size="14.5833" lengthAdjust="spacing" textLength="143.75" x="781.25" y="26.0366">VZD-LDAP-Directory</text><rect fill="#E3E3E3" height="31.5592" rx="2.6042" ry="2.6042" style="stroke:#181818;stroke-width:0.5208333333333334;" width="158.3333" x="773.9583" y="409.2611"/><text fill="#000000" font-family="sans-serif" font-size="14.5833" lengthAdjust="spacing" textLength="143.75" x="781.25" y="430.0893">VZD-LDAP-Directory</text><rect fill="#FFFFFF" height="122.4284" style="stroke:#181818;stroke-width:1.0416666666666667;" width="10.4167" x="73.9583" y="277.4577"/><rect fill="#FFFFFF" height="329.6468" style="stroke:#181818;stroke-width:1.0416666666666667;" width="10.4167" x="487.5" y="70.2393"/><rect fill="#FFFFFF" height="151.7334" style="stroke:#181818;stroke-width:1.0416666666666667;" width="10.4167" x="847.9167" y="70.2393"/><polygon fill="#181818" points="835.4167,66.0726,845.8333,70.2393,835.4167,74.4059,839.5833,70.2393" style="stroke:#181818;stroke-width:1.0416666666666667;"/><line style="stroke:#181818;stroke-width:1.0416666666666667;" x1="497.9167" x2="841.6667" y1="70.2393" y2="70.2393"/><text fill="#000000" font-family="sans-serif" font-size="13.5417" lengthAdjust="spacing" textLength="129.1667" x="505.2083" y="64.9623">Verbindungsaufbau</text><polygon fill="#181818" points="509.375,96.4193,498.9583,100.5859,509.375,104.7526,505.2083,100.5859" style="stroke:#181818;stroke-width:1.0416666666666667;"/><line style="stroke:#181818;stroke-width:1.0416666666666667;stroke-dasharray:2.0,2.0;" x1="503.125" x2="846.875" y1="100.5859" y2="100.5859"/><text fill="#000000" font-family="sans-serif" font-size="13.5417" lengthAdjust="spacing" textLength="246.875" x="515.625" y="95.3089">verschl&#252;sselte Verbindung aufgebaut</text><polygon fill="#181818" points="835.4167,126.766,845.8333,130.9326,835.4167,135.0993,839.5833,130.9326" style="stroke:#181818;stroke-width:1.0416666666666667;"/><line style="stroke:#181818;stroke-width:1.0416666666666667;" x1="497.9167" x2="841.6667" y1="130.9326" y2="130.9326"/><text fill="#000000" font-family="sans-serif" font-size="13.5417" lengthAdjust="spacing" textLength="325" x="505.2083" y="125.6556">GET /changed_entries?changed_since=dateTime</text><polygon fill="#181818" points="509.375,157.1126,498.9583,161.2793,509.375,165.446,505.2083,161.2793" style="stroke:#181818;stroke-width:1.0416666666666667;"/><line style="stroke:#181818;stroke-width:1.0416666666666667;stroke-dasharray:2.0,2.0;" x1="503.125" x2="846.875" y1="161.2793" y2="161.2793"/><text fill="#000000" font-family="sans-serif" font-size="13.5417" lengthAdjust="spacing" textLength="192.7083" x="515.625" y="156.0023">Result Body changed_entries</text><polygon fill="#181818" points="835.4167,187.4593,845.8333,191.626,835.4167,195.7926,839.5833,191.626" style="stroke:#181818;stroke-width:1.0416666666666667;"/><line style="stroke:#181818;stroke-width:1.0416666666666667;" x1="497.9167" x2="841.6667" y1="191.626" y2="191.626"/><text fill="#000000" font-family="sans-serif" font-size="13.5417" lengthAdjust="spacing" textLength="125" x="505.2083" y="186.349">Verbindungsabbau</text><polygon fill="#181818" points="509.375,217.806,498.9583,221.9727,509.375,226.1393,505.2083,221.9727" style="stroke:#181818;stroke-width:1.0416666666666667;"/><line style="stroke:#181818;stroke-width:1.0416666666666667;stroke-dasharray:2.0,2.0;" x1="503.125" x2="852.0833" y1="221.9727" y2="221.9727"/><text fill="#000000" font-family="sans-serif" font-size="13.5417" lengthAdjust="spacing" textLength="137.5" x="515.625" y="216.6957">Verbindung getrennt</text><path d="M10.4167,237.5977 L285.4167,237.5977 L285.4167,245.0277 L275,255.4443 L10.4167,255.4443 L10.4167,237.5977 " fill="#EEEEEE" style="stroke:#000000;stroke-width:1.5625;"/><rect fill="none" height="154.9967" style="stroke:#000000;stroke-width:1.5625;" width="538.0208" x="10.4167" y="237.5977"/><text fill="#000000" font-family="sans-serif" font-size="13.5417" font-weight="bold" lengthAdjust="spacing" textLength="228.125" x="26.0417" y="251.209">F&#252;r jeden ge&#228;nderten Eintrag</text><polygon fill="#181818" points="95.8333,273.291,85.4167,277.4577,95.8333,281.6243,91.6667,277.4577" style="stroke:#181818;stroke-width:1.0416666666666667;"/><line style="stroke:#181818;stroke-width:1.0416666666666667;" x1="89.5833" x2="486.4583" y1="277.4577" y2="277.4577"/><text fill="#000000" font-family="sans-serif" font-size="13.5417" lengthAdjust="spacing" textLength="254.1667" x="102.0833" y="272.1807">HTTP GET /ResourceName/telematikID</text><polygon fill="#181818" points="475,303.6377,485.4167,307.8044,475,311.971,479.1667,307.8044" style="stroke:#181818;stroke-width:1.0416666666666667;"/><line style="stroke:#181818;stroke-width:1.0416666666666667;stroke-dasharray:2.0,2.0;" x1="84.375" x2="481.25" y1="307.8044" y2="307.8044"/><text fill="#000000" font-family="sans-serif" font-size="13.5417" lengthAdjust="spacing" textLength="209.375" x="91.6667" y="302.5274">HTTP Result Body json resource</text><polygon fill="#181818" points="95.8333,349.7477,85.4167,353.9144,95.8333,358.0811,91.6667,353.9144" style="stroke:#181818;stroke-width:1.0416666666666667;"/><line style="stroke:#181818;stroke-width:1.0416666666666667;" x1="89.5833" x2="486.4583" y1="353.9144" y2="353.9144"/><text fill="#000000" font-family="sans-serif" font-size="13.5417" lengthAdjust="spacing" textLength="378.125" x="102.0833" y="332.874">HTTP PUT /resourceName/telematikID Request Body json</text><text fill="#000000" font-family="sans-serif" font-size="13.5417" lengthAdjust="spacing" textLength="309.375" x="102.0833" y="348.6374">(anstatt PUT auch POST oder DELETE m&#246;glich)</text><polygon fill="#181818" points="475,380.0944,485.4167,384.2611,475,388.4277,479.1667,384.2611" style="stroke:#181818;stroke-width:1.0416666666666667;"/><line style="stroke:#181818;stroke-width:1.0416666666666667;stroke-dasharray:2.0,2.0;" x1="84.375" x2="481.25" y1="384.2611" y2="384.2611"/><text fill="#000000" font-family="sans-serif" font-size="13.5417" lengthAdjust="spacing" textLength="198.9583" x="91.6667" y="378.9841">HTTP 200 OK Result Body json</text></g></svg>