<svg xmlns="http://www.w3.org/2000/svg" xmlns:xlink="http://www.w3.org/1999/xlink" contentStyleType="text/css" height="1205.2083px" preserveAspectRatio="none" style="width:1828px;height:1205px;background:#FFFFFF;" version="1.1" viewBox="0 0 1828 1205" width="1828.125px" zoomAndPan="magnify"><defs/><g><rect fill="#FFFFFF" height="935.9619" style="stroke:#181818;stroke-width:1.0417;" width="10.4167" x="256.8207" y="149.8535"/><rect fill="#FFFFFF" height="195.6217" style="stroke:#181818;stroke-width:1.0417;" width="10.4167" x="590.1937" y="545.0602"/><rect fill="#FFFFFF" height="562.4268" style="stroke:#181818;stroke-width:1.0417;" width="10.4167" x="788.7187" y="350.8219"/><rect fill="#FFFFFF" height="134.9284" style="stroke:#181818;stroke-width:1.0417;" width="10.4167" x="1155.602" y="950.887"/><rect fill="#FFFFFF" height="256.3151" style="stroke:#181818;stroke-width:1.0417;" width="10.4167" x="1361.8764" y="575.4069"/><rect fill="#FFFFFF" height="30.3467" style="stroke:#181818;stroke-width:1.0417;" width="10.4167" x="1559.6807" y="1025.1221"/><rect fill="#FFFFFF" height="30.3467" style="stroke:#181818;stroke-width:1.0417;" width="10.4167" x="1713.4349" y="290.1286"/><rect fill="none" height="696.4518" style="stroke:#000000;stroke-width:1.5625;" width="1660.8978" x="161.3327" y="225.1302"/><rect fill="none" height="589.7868" style="stroke:#000000;stroke-width:1.5625;" width="1640.0645" x="171.7494" y="250.2686"/><line style="stroke:#181818;stroke-width:0.5208;stroke-dasharray:5.0,5.0;" x1="46.875" x2="46.875" y1="101.6602" y2="1104.5654"/><line style="stroke:#181818;stroke-width:0.5208;stroke-dasharray:5.0,5.0;" x1="261.3327" x2="261.3327" y1="101.6602" y2="1104.5654"/><line style="stroke:#181818;stroke-width:0.5208;stroke-dasharray:5.0,5.0;" x1="594.5867" x2="594.5867" y1="101.6602" y2="1104.5654"/><line style="stroke:#181818;stroke-width:0.5208;stroke-dasharray:5.0,5.0;" x1="793.0908" x2="793.0908" y1="101.6602" y2="1104.5654"/><line style="stroke:#181818;stroke-width:0.5208;stroke-dasharray:5.0,5.0;" x1="1160.3821" x2="1160.3821" y1="101.6602" y2="1104.5654"/><line style="stroke:#181818;stroke-width:0.5208;stroke-dasharray:5.0,5.0;" x1="1366.9286" x2="1366.9286" y1="101.6602" y2="1104.5654"/><line style="stroke:#181818;stroke-width:0.5208;stroke-dasharray:5.0,5.0;" x1="1564.7222" x2="1564.7222" y1="101.6602" y2="1104.5654"/><line style="stroke:#181818;stroke-width:0.5208;stroke-dasharray:5.0,5.0;" x1="1718.1808" x2="1718.1808" y1="101.6602" y2="1104.5654"/><text fill="#000000" font-family="sans-serif" font-size="14.5833" lengthAdjust="spacing" textLength="78.7272" x="5.2083" y="81.2449">Org-Admin</text><text fill="#000000" font-family="sans-serif" font-size="14.5833" lengthAdjust="spacing" textLength="55.1219" x="17.011" y="98.2208">oder LE</text><ellipse cx="47.6969" cy="14.0625" fill="#E3E3E3" rx="8.3333" ry="8.3333" style="stroke:#181818;stroke-width:0.5208;"/><path d="M47.6969,22.3958 L47.6969,50.5208 M34.1553,30.7292 L61.2386,30.7292 M47.6969,50.5208 L34.1553,66.1458 M47.6969,50.5208 L61.2386,66.1458 " fill="none" style="stroke:#181818;stroke-width:0.5208;"/><text fill="#000000" font-family="sans-serif" font-size="14.5833" lengthAdjust="spacing" textLength="78.7272" x="5.2083" y="1117.0603">Org-Admin</text><text fill="#000000" font-family="sans-serif" font-size="14.5833" lengthAdjust="spacing" textLength="55.1219" x="17.011" y="1134.0363">oder LE</text><ellipse cx="47.6969" cy="1146.3298" fill="#E3E3E3" rx="8.3333" ry="8.3333" style="stroke:#181818;stroke-width:0.5208;"/><path d="M47.6969,1154.6631 L47.6969,1182.7881 M34.1553,1162.9964 L61.2386,1162.9964 M47.6969,1182.7881 L34.1553,1198.4131 M47.6969,1182.7881 L61.2386,1198.4131 " fill="none" style="stroke:#181818;stroke-width:0.5208;"/><rect fill="#E3E3E3" height="65.5111" rx="2.6042" ry="2.6042" style="stroke:#181818;stroke-width:0.5208;" width="159.726" x="182.166" y="35.1074"/><text fill="#000000" font-family="sans-serif" font-size="14.5833" lengthAdjust="spacing" textLength="126.2085" x="198.9248" y="55.9357">Org-Admin-Client</text><text fill="#000000" font-family="sans-serif" font-size="14.5833" lengthAdjust="spacing" textLength="33.1472" x="245.4554" y="72.9116">oder</text><text fill="#000000" font-family="sans-serif" font-size="14.5833" lengthAdjust="spacing" textLength="145.1426" x="189.4577" y="89.8875">TI-Messenger-Client</text><rect fill="#E3E3E3" height="65.5111" rx="2.6042" ry="2.6042" style="stroke:#181818;stroke-width:0.5208;" width="159.726" x="182.166" y="1103.5238"/><text fill="#000000" font-family="sans-serif" font-size="14.5833" lengthAdjust="spacing" textLength="126.2085" x="198.9248" y="1124.352">Org-Admin-Client</text><text fill="#000000" font-family="sans-serif" font-size="14.5833" lengthAdjust="spacing" textLength="33.1472" x="245.4554" y="1141.3279">oder</text><text fill="#000000" font-family="sans-serif" font-size="14.5833" lengthAdjust="spacing" textLength="145.1426" x="189.4577" y="1158.3038">TI-Messenger-Client</text><rect fill="#E3E3E3" height="48.5352" rx="2.6042" ry="2.6042" style="stroke:#181818;stroke-width:0.5208;" width="147.464" x="521.67" y="52.0833"/><text fill="#000000" font-family="sans-serif" font-size="14.5833" lengthAdjust="spacing" textLength="132.8807" x="528.9617" y="72.9116">Authenticator App</text><text fill="#000000" font-family="sans-serif" font-size="14.5833" lengthAdjust="spacing" textLength="54.7872" x="568.0084" y="89.8875">des IDP</text><rect fill="#E3E3E3" height="48.5352" rx="2.6042" ry="2.6042" style="stroke:#181818;stroke-width:0.5208;" width="147.464" x="521.67" y="1103.5238"/><text fill="#000000" font-family="sans-serif" font-size="14.5833" lengthAdjust="spacing" textLength="132.8807" x="528.9617" y="1124.352">Authenticator App</text><text fill="#000000" font-family="sans-serif" font-size="14.5833" lengthAdjust="spacing" textLength="54.7872" x="568.0084" y="1141.3279">des IDP</text><rect fill="#E3E3E3" height="31.5592" rx="2.6042" ry="2.6042" style="stroke:#181818;stroke-width:0.5208;" width="107.9224" x="739.9658" y="69.0592"/><text fill="#000000" font-family="sans-serif" font-size="14.5833" lengthAdjust="spacing" textLength="93.339" x="747.2575" y="89.8875">Auth-Service</text><rect fill="#E3E3E3" height="31.5592" rx="2.6042" ry="2.6042" style="stroke:#181818;stroke-width:0.5208;" width="107.9224" x="739.9658" y="1103.5238"/><text fill="#000000" font-family="sans-serif" font-size="14.5833" lengthAdjust="spacing" textLength="93.339" x="747.2575" y="1124.352">Auth-Service</text><rect fill="#E3E3E3" height="31.5592" rx="2.6042" ry="2.6042" style="stroke:#181818;stroke-width:0.5208;" width="94.6065" x="1113.5071" y="69.0592"/><text fill="#000000" font-family="sans-serif" font-size="14.5833" lengthAdjust="spacing" textLength="80.0232" x="1120.7987" y="89.8875">FHIR-Proxy</text><rect fill="#E3E3E3" height="31.5592" rx="2.6042" ry="2.6042" style="stroke:#181818;stroke-width:0.5208;" width="94.6065" x="1113.5071" y="1103.5238"/><text fill="#000000" font-family="sans-serif" font-size="14.5833" lengthAdjust="spacing" textLength="80.0232" x="1120.7987" y="1124.352">FHIR-Proxy</text><rect fill="#E3E3E3" height="31.5592" rx="2.6042" ry="2.6042" style="stroke:#181818;stroke-width:0.5208;" width="135.729" x="1299.2203" y="69.0592"/><text fill="#000000" font-family="sans-serif" font-size="14.5833" lengthAdjust="spacing" textLength="121.1456" x="1306.5119" y="89.8875">Identity Provider</text><rect fill="#E3E3E3" height="31.5592" rx="2.6042" ry="2.6042" style="stroke:#181818;stroke-width:0.5208;" width="135.729" x="1299.2203" y="1103.5238"/><text fill="#000000" font-family="sans-serif" font-size="14.5833" lengthAdjust="spacing" textLength="121.1456" x="1306.5119" y="1124.352">Identity Provider</text><rect fill="#E3E3E3" height="31.5592" rx="2.6042" ry="2.6042" style="stroke:#181818;stroke-width:0.5208;" width="121.167" x="1504.3055" y="69.0592"/><text fill="#000000" font-family="sans-serif" font-size="14.5833" lengthAdjust="spacing" textLength="106.5837" x="1511.5972" y="89.8875">FHIR-Directory</text><rect fill="#E3E3E3" height="31.5592" rx="2.6042" ry="2.6042" style="stroke:#181818;stroke-width:0.5208;" width="121.167" x="1504.3055" y="1103.5238"/><text fill="#000000" font-family="sans-serif" font-size="14.5833" lengthAdjust="spacing" textLength="106.5837" x="1511.5972" y="1124.352">FHIR-Directory</text><rect fill="#E3E3E3" height="48.5352" rx="2.6042" ry="2.6042" style="stroke:#181818;stroke-width:0.5208;" width="165.508" x="1635.8892" y="52.0833"/><text fill="#000000" font-family="sans-serif" font-size="14.5833" lengthAdjust="spacing" textLength="97.6613" x="1669.8125" y="72.9116">TI-Messenger</text><text fill="#000000" font-family="sans-serif" font-size="14.5833" lengthAdjust="spacing" textLength="150.9247" x="1643.1808" y="89.8875">Registrierungsdienst</text><rect fill="#E3E3E3" height="48.5352" rx="2.6042" ry="2.6042" style="stroke:#181818;stroke-width:0.5208;" width="165.508" x="1635.8892" y="1103.5238"/><text fill="#000000" font-family="sans-serif" font-size="14.5833" lengthAdjust="spacing" textLength="97.6613" x="1669.8125" y="1124.352">TI-Messenger</text><text fill="#000000" font-family="sans-serif" font-size="14.5833" lengthAdjust="spacing" textLength="150.9247" x="1643.1808" y="1141.3279">Registrierungsdienst</text><rect fill="#FFFFFF" height="935.9619" style="stroke:#181818;stroke-width:1.0417;" width="10.4167" x="256.8207" y="149.8535"/><rect fill="#FFFFFF" height="195.6217" style="stroke:#181818;stroke-width:1.0417;" width="10.4167" x="590.1937" y="545.0602"/><rect fill="#FFFFFF" height="562.4268" style="stroke:#181818;stroke-width:1.0417;" width="10.4167" x="788.7187" y="350.8219"/><rect fill="#FFFFFF" height="134.9284" style="stroke:#181818;stroke-width:1.0417;" width="10.4167" x="1155.602" y="950.887"/><rect fill="#FFFFFF" height="256.3151" style="stroke:#181818;stroke-width:1.0417;" width="10.4167" x="1361.8764" y="575.4069"/><rect fill="#FFFFFF" height="30.3467" style="stroke:#181818;stroke-width:1.0417;" width="10.4167" x="1559.6807" y="1025.1221"/><rect fill="#FFFFFF" height="30.3467" style="stroke:#181818;stroke-width:1.0417;" width="10.4167" x="1713.4349" y="290.1286"/><polygon fill="#181818" points="244.3207,145.6868,254.7373,149.8535,244.3207,154.0202,248.4873,149.8535" style="stroke:#181818;stroke-width:1.0417;"/><line style="stroke:#181818;stroke-width:1.0417;" x1="47.6969" x2="250.5707" y1="149.8535" y2="149.8535"/><text fill="#000000" font-family="sans-serif" font-size="13.5417" lengthAdjust="spacing" textLength="189.3321" x="54.9886" y="128.8132">m&#246;chte seinen FHIR-Eintrag</text><text fill="#000000" font-family="sans-serif" font-size="13.5417" lengthAdjust="spacing" textLength="47.9579" x="54.9886" y="144.5765">&#228;ndern</text><line style="stroke:#181818;stroke-width:1.0417;" x1="267.2373" x2="310.9873" y1="195.9635" y2="195.9635"/><line style="stroke:#181818;stroke-width:1.0417;" x1="310.9873" x2="310.9873" y1="195.9635" y2="209.5052"/><line style="stroke:#181818;stroke-width:1.0417;" x1="268.279" x2="310.9873" y1="209.5052" y2="209.5052"/><polygon fill="#181818" points="278.6957,205.3385,268.279,209.5052,278.6957,213.6719,274.529,209.5052" style="stroke:#181818;stroke-width:1.0417;"/><text fill="#000000" font-family="sans-serif" font-size="13.5417" lengthAdjust="spacing" textLength="287.5422" x="274.529" y="174.9232">pr&#252;fe ob noch g&#252;ltiges owner-accesstoken</text><text fill="#000000" font-family="sans-serif" font-size="13.5417" lengthAdjust="spacing" textLength="297.9563" x="274.529" y="190.6865">f&#252;r Schreibzugriff vom Auth-Service vorliegt</text><path d="M161.3327,225.1302 L228.4607,225.1302 L228.4607,232.5602 L218.044,242.9769 L161.3327,242.9769 L161.3327,225.1302 " fill="#EEEEEE" style="stroke:#000000;stroke-width:1.5625;"/><rect fill="none" height="696.4518" style="stroke:#000000;stroke-width:1.5625;" width="1660.8978" x="161.3327" y="225.1302"/><text fill="#000000" font-family="sans-serif" font-size="13.5417" font-weight="bold" lengthAdjust="spacing" textLength="20.253" x="176.9577" y="238.7416">alt</text><text fill="#000000" font-family="sans-serif" font-size="11.4583" font-weight="bold" lengthAdjust="spacing" textLength="414.0945" x="244.0857" y="237.8494">[kein g&#252;ltiges owner-accesstoken f&#252;r Schreibzugriff vorhanden]</text><path d="M171.7494,250.2686 L238.8774,250.2686 L238.8774,257.6986 L228.4607,268.1152 L171.7494,268.1152 L171.7494,250.2686 " fill="#EEEEEE" style="stroke:#000000;stroke-width:1.5625;"/><rect fill="none" height="589.7868" style="stroke:#000000;stroke-width:1.5625;" width="1640.0645" x="171.7494" y="250.2686"/><text fill="#000000" font-family="sans-serif" font-size="13.5417" font-weight="bold" lengthAdjust="spacing" textLength="20.253" x="187.3744" y="263.8799">alt</text><text fill="#000000" font-family="sans-serif" font-size="11.4583" font-weight="bold" lengthAdjust="spacing" textLength="79.9174" x="254.5024" y="262.9878">[Org-Admin]</text><polygon fill="#181818" points="1700.9349,285.9619,1711.3515,290.1286,1700.9349,294.2952,1705.1015,290.1286" style="stroke:#181818;stroke-width:1.0417;"/><line style="stroke:#181818;stroke-width:1.0417;" x1="267.2373" x2="1707.1849" y1="290.1286" y2="290.1286"/><text fill="#000000" font-family="sans-serif" font-size="13.5417" lengthAdjust="spacing" textLength="315.0355" x="274.529" y="284.8516">POST /regservice/user/{userId}/request_token</text><polygon fill="#181818" points="278.6957,316.3086,268.279,320.4753,278.6957,324.6419,274.529,320.4753" style="stroke:#181818;stroke-width:1.0417;"/><line style="stroke:#181818;stroke-width:1.0417;stroke-dasharray:2.0,2.0;" x1="272.4457" x2="1717.6015" y1="320.4753" y2="320.4753"/><text fill="#000000" font-family="sans-serif" font-size="13.5417" lengthAdjust="spacing" textLength="570.694" x="284.9457" y="315.1983">HTTP 200 OK, Result body {"access_token": "RegService-OpenID-Token=id_token"}</text><polygon fill="#181818" points="776.2187,346.6553,786.6353,350.8219,776.2187,354.9886,780.3853,350.8219" style="stroke:#181818;stroke-width:1.0417;"/><line style="stroke:#181818;stroke-width:1.0417;" x1="267.2373" x2="782.4687" y1="350.8219" y2="350.8219"/><text fill="#000000" font-family="sans-serif" font-size="13.5417" lengthAdjust="spacing" textLength="501.6897" x="274.529" y="345.5449">GET /owner-authenticate... ((Auth Header mit RegService-OpenID-Token))</text><line style="stroke:#181818;stroke-width:1.0417;" x1="799.1353" x2="842.8853" y1="381.1686" y2="381.1686"/><line style="stroke:#181818;stroke-width:1.0417;" x1="842.8853" x2="842.8853" y1="381.1686" y2="394.7103"/><line style="stroke:#181818;stroke-width:1.0417;" x1="800.177" x2="842.8853" y1="394.7103" y2="394.7103"/><polygon fill="#181818" points="810.5937,390.5436,800.177,394.7103,810.5937,398.877,806.427,394.7103" style="stroke:#181818;stroke-width:1.0417;"/><text fill="#000000" font-family="sans-serif" font-size="13.5417" lengthAdjust="spacing" textLength="331.4667" x="806.427" y="375.8916">verify RegService-OpenID-Token (telematikID,...)</text><line style="stroke:#000000;stroke-width:1.0417;stroke-dasharray:2.0,2.0;" x1="171.7494" x2="1811.8139" y1="404.0853" y2="404.0853"/><text fill="#000000" font-family="sans-serif" font-size="11.4583" font-weight="bold" lengthAdjust="spacing" textLength="243.4728" x="176.9577" y="414.7212">[LE mit HBA und TI-Messenger Client]</text><polygon fill="#181818" points="776.2187,436.3118,786.6353,440.4785,776.2187,444.6452,780.3853,440.4785" style="stroke:#181818;stroke-width:1.0417;"/><line style="stroke:#181818;stroke-width:1.0417;" x1="267.2373" x2="782.4687" y1="440.4785" y2="440.4785"/><text fill="#000000" font-family="sans-serif" font-size="13.5417" lengthAdjust="spacing" textLength="169.0592" x="274.529" y="435.2015">GET /owner-authenticate</text><line style="stroke:#181818;stroke-width:1.0417;" x1="799.1353" x2="842.8853" y1="470.8252" y2="470.8252"/><line style="stroke:#181818;stroke-width:1.0417;" x1="842.8853" x2="842.8853" y1="470.8252" y2="484.3669"/><line style="stroke:#181818;stroke-width:1.0417;" x1="800.177" x2="842.8853" y1="484.3669" y2="484.3669"/><polygon fill="#181818" points="810.5937,480.2002,800.177,484.3669,810.5937,488.5335,806.427,484.3669" style="stroke:#181818;stroke-width:1.0417;"/><text fill="#000000" font-family="sans-serif" font-size="13.5417" lengthAdjust="spacing" textLength="309.0978" x="806.427" y="465.5482">Erzeuge PKCE Code f&#252;r verifier und challenge</text><polygon fill="#181818" points="278.6957,510.5469,268.279,514.7135,278.6957,518.8802,274.529,514.7135" style="stroke:#181818;stroke-width:1.0417;"/><line style="stroke:#181818;stroke-width:1.0417;stroke-dasharray:2.0,2.0;" x1="272.4457" x2="787.677" y1="514.7135" y2="514.7135"/><text fill="#000000" font-family="sans-serif" font-size="13.5417" lengthAdjust="spacing" textLength="301.8377" x="284.9457" y="509.4365">Redirect (302) to IDP Authorization Endpoint</text><polygon fill="#181818" points="577.6937,540.8936,588.1104,545.0602,577.6937,549.2269,581.8604,545.0602" style="stroke:#181818;stroke-width:1.0417;"/><line style="stroke:#181818;stroke-width:1.0417;" x1="267.2373" x2="583.9437" y1="545.0602" y2="545.0602"/><text fill="#000000" font-family="sans-serif" font-size="13.5417" lengthAdjust="spacing" textLength="182.2042" x="274.529" y="539.7832">Deeplink authenticator://...</text><polygon fill="#181818" points="1349.3764,571.2402,1359.7931,575.4069,1349.3764,579.5736,1353.5431,575.4069" style="stroke:#181818;stroke-width:1.0417;"/><line style="stroke:#181818;stroke-width:1.0417;" x1="600.6104" x2="1355.6264" y1="575.4069" y2="575.4069"/><text fill="#000000" font-family="sans-serif" font-size="13.5417" lengthAdjust="spacing" textLength="205.4062" x="607.902" y="570.1299">GET {authorization_endpoint}</text><polygon fill="#181818" points="612.0687,601.5869,601.652,605.7536,612.0687,609.9202,607.902,605.7536" style="stroke:#181818;stroke-width:1.0417;"/><line style="stroke:#181818;stroke-width:1.0417;stroke-dasharray:2.0,2.0;" x1="605.8187" x2="1360.8348" y1="605.7536" y2="605.7536"/><text fill="#000000" font-family="sans-serif" font-size="13.5417" lengthAdjust="spacing" textLength="65.6916" x="618.3187" y="600.4766">challenge</text><line style="stroke:#181818;stroke-width:1.0417;" x1="600.6104" x2="644.3604" y1="636.1003" y2="636.1003"/><line style="stroke:#181818;stroke-width:1.0417;" x1="644.3604" x2="644.3604" y1="636.1003" y2="649.6419"/><line style="stroke:#181818;stroke-width:1.0417;" x1="601.652" x2="644.3604" y1="649.6419" y2="649.6419"/><polygon fill="#181818" points="612.0687,645.4753,601.652,649.6419,612.0687,653.8086,607.902,649.6419" style="stroke:#181818;stroke-width:1.0417;"/><text fill="#000000" font-family="sans-serif" font-size="13.5417" lengthAdjust="spacing" textLength="97.9919" x="607.902" y="630.8233">sign challenge</text><polygon fill="#181818" points="1349.3764,675.8219,1359.7931,679.9886,1349.3764,684.1553,1353.5431,679.9886" style="stroke:#181818;stroke-width:1.0417;"/><line style="stroke:#181818;stroke-width:1.0417;" x1="600.6104" x2="1355.6264" y1="679.9886" y2="679.9886"/><text fill="#000000" font-family="sans-serif" font-size="13.5417" lengthAdjust="spacing" textLength="117.3854" x="607.902" y="674.7116">signed_challenge</text><polygon fill="#181818" points="612.0687,706.1686,601.652,710.3353,612.0687,714.502,607.902,710.3353" style="stroke:#181818;stroke-width:1.0417;"/><line style="stroke:#181818;stroke-width:1.0417;stroke-dasharray:2.0,2.0;" x1="605.8187" x2="1360.8348" y1="710.3353" y2="710.3353"/><text fill="#000000" font-family="sans-serif" font-size="13.5417" lengthAdjust="spacing" textLength="182.5414" x="618.3187" y="705.0583">Redirect (302) (auth_code)</text><polygon fill="#181818" points="278.6957,736.5153,268.279,740.682,278.6957,744.8486,274.529,740.682" style="stroke:#181818;stroke-width:1.0417;"/><line style="stroke:#181818;stroke-width:1.0417;stroke-dasharray:2.0,2.0;" x1="272.4457" x2="594.3604" y1="740.682" y2="740.682"/><text fill="#000000" font-family="sans-serif" font-size="13.5417" lengthAdjust="spacing" textLength="233.0648" x="284.9457" y="735.405">{client_callback_uri} {auth_code}</text><polygon fill="#181818" points="776.2187,766.862,786.6353,771.0286,776.2187,775.1953,780.3853,771.0286" style="stroke:#181818;stroke-width:1.0417;"/><line style="stroke:#181818;stroke-width:1.0417;" x1="267.2373" x2="782.4687" y1="771.0286" y2="771.0286"/><text fill="#000000" font-family="sans-serif" font-size="13.5417" lengthAdjust="spacing" textLength="333.8801" x="274.529" y="765.7516">GET /signin-gematik-idp-dienst with {auth_code}</text><polygon fill="#181818" points="1349.3764,797.2087,1359.7931,801.3753,1349.3764,805.542,1353.5431,801.3753" style="stroke:#181818;stroke-width:1.0417;"/><line style="stroke:#181818;stroke-width:1.0417;" x1="799.1353" x2="1355.6264" y1="801.3753" y2="801.3753"/><text fill="#000000" font-family="sans-serif" font-size="13.5417" lengthAdjust="spacing" textLength="304.4032" x="806.427" y="796.0983">POST {token_Endpoint} (auth_code, verifier)</text><polygon fill="#181818" points="810.5937,827.5553,800.177,831.722,810.5937,835.8887,806.427,831.722" style="stroke:#181818;stroke-width:1.0417;"/><line style="stroke:#181818;stroke-width:1.0417;stroke-dasharray:2.0,2.0;" x1="804.3437" x2="1366.0431" y1="831.722" y2="831.722"/><text fill="#000000" font-family="sans-serif" font-size="13.5417" lengthAdjust="spacing" textLength="144.6604" x="816.8437" y="826.445">Response {id_token}</text><line style="stroke:#181818;stroke-width:1.0417;" x1="799.1353" x2="842.8853" y1="869.3604" y2="869.3604"/><line style="stroke:#181818;stroke-width:1.0417;" x1="842.8853" x2="842.8853" y1="869.3604" y2="882.902"/><line style="stroke:#181818;stroke-width:1.0417;" x1="800.177" x2="842.8853" y1="882.902" y2="882.902"/><polygon fill="#181818" points="810.5937,878.7354,800.177,882.902,810.5937,887.0687,806.427,882.902" style="stroke:#181818;stroke-width:1.0417;"/><text fill="#000000" font-family="sans-serif" font-size="13.5417" lengthAdjust="spacing" textLength="189.861" x="806.427" y="864.0834">erzeuge owner-accesstoken</text><polygon fill="#181818" points="278.6957,909.082,268.279,913.2487,278.6957,917.4154,274.529,913.2487" style="stroke:#181818;stroke-width:1.0417;"/><line style="stroke:#181818;stroke-width:1.0417;stroke-dasharray:2.0,2.0;" x1="272.4457" x2="792.8853" y1="913.2487" y2="913.2487"/><text fill="#000000" font-family="sans-serif" font-size="13.5417" lengthAdjust="spacing" textLength="456.9982" x="284.9457" y="907.9717">HTTP 200 OK, Result body {"access_token"="owner-accesstoken"}</text><polygon fill="#181818" points="1143.102,946.7204,1153.5187,950.887,1143.102,955.0537,1147.2687,950.887" style="stroke:#181818;stroke-width:1.0417;"/><line style="stroke:#181818;stroke-width:1.0417;" x1="267.2373" x2="1149.352" y1="950.887" y2="950.887"/><text fill="#000000" font-family="sans-serif" font-size="13.5417" lengthAdjust="spacing" textLength="710.5474" x="274.529" y="945.61">POST /owner/HealthcareService (Authorization Bearer owner-accesstoken) {providedBy.id=telematikID}</text><line style="stroke:#181818;stroke-width:1.0417;" x1="1166.0187" x2="1209.7687" y1="981.2337" y2="981.2337"/><line style="stroke:#181818;stroke-width:1.0417;" x1="1209.7687" x2="1209.7687" y1="981.2337" y2="994.7754"/><line style="stroke:#181818;stroke-width:1.0417;" x1="1167.0603" x2="1209.7687" y1="994.7754" y2="994.7754"/><polygon fill="#181818" points="1177.477,990.6087,1167.0603,994.7754,1177.477,998.9421,1173.3103,994.7754" style="stroke:#181818;stroke-width:1.0417;"/><text fill="#000000" font-family="sans-serif" font-size="13.5417" lengthAdjust="spacing" textLength="170.8577" x="1173.3103" y="975.9567">pr&#252;fe owner-accesstoken</text><polygon fill="#181818" points="1547.1807,1020.9554,1557.5974,1025.1221,1547.1807,1029.2887,1551.3474,1025.1221" style="stroke:#181818;stroke-width:1.0417;"/><line style="stroke:#181818;stroke-width:1.0417;" x1="1166.0187" x2="1553.4307" y1="1025.1221" y2="1025.1221"/><text fill="#000000" font-family="sans-serif" font-size="13.5417" lengthAdjust="spacing" textLength="373.8703" x="1173.3103" y="1019.8451">POST /HealthcareService {providedBy.id=telematikID}</text><polygon fill="#181818" points="1177.477,1051.3021,1167.0603,1055.4688,1177.477,1059.6354,1173.3103,1055.4688" style="stroke:#181818;stroke-width:1.0417;"/><line style="stroke:#181818;stroke-width:1.0417;stroke-dasharray:2.0,2.0;" x1="1171.227" x2="1563.8474" y1="1055.4688" y2="1055.4688"/><text fill="#000000" font-family="sans-serif" font-size="13.5417" lengthAdjust="spacing" textLength="216.6865" x="1183.727" y="1050.1918">HTTP 200 OK (Result Body json)</text><polygon fill="#181818" points="273.4873,1081.6488,263.0707,1085.8154,273.4873,1089.9821,269.3207,1085.8154" style="stroke:#181818;stroke-width:1.0417;"/><line style="stroke:#181818;stroke-width:1.0417;stroke-dasharray:2.0,2.0;" x1="267.2373" x2="1159.7687" y1="1085.8154" y2="1085.8154"/><text fill="#000000" font-family="sans-serif" font-size="13.5417" lengthAdjust="spacing" textLength="216.6865" x="279.7373" y="1080.5384">HTTP 200 OK (Result Body json)</text><!--SRC=[ZLLDRo8v4BtthoXn6P3I8JDpGyfAIM0tQ7OLb23bWeISTj5uQEmUsyqCGTpsfynls5Dk_B4jsmsuG-RZ4WLSLU_LgrU5MGXPCisMm4i1xoyk4dFuvb6pyb5mEuSFZU-NIgfihjKImUeAa-IT5RP0QFrvExnF-q9ZPfLUdy43VgbGFdF1SfUt-rTor9NCOQKaeCXHeeI1a5RlljE7TmbpYQ206MZTwJozuaiX9r9H6lmzQ2M4RqKcIYOjP4KpBBqf14eReYToF4p_GMDGvgZhfsO-Opx_gh9pUXCPSz1NPJaXaWQ6_T6hyEeGdZwWNeaCcm6pqWTu3KPQVLitdmKFxqFkqEmQA6ObYEghAlnOvQ1aCqI7aBZ1YRp7N1YhXTVNS6hNKByAqZz8g1uiT_zbSujWK3ZDVNalFCidSlVTpKKwzSMAKLHM9AHkdLhgtSiCGJs1cphakvV2qkWCgA-If6LPHYoiMY0DQhPxqV10ta3nz5pbMincDEibnAhH5vh6aTk45HOMHEXdDU7jadhEYBFq9GuEg4bhteFHtSCOkXfp4q2x5VtJtRY_Gxwb1pAciLCFSUnRyuJ4JUl6RyVZaNC-t7qwWtiq5M4zARw6JIiG3Ecj7hH8_RgxzAv4EUodO_TqANWTiqqunZ21AQjwyDU0YDPj7ws8v-Vdq6uxtU0McVF_KbZu0KwdS-o1LGbPjIw-Gj9h_QCqQ5iiSCciM0pxPuJOIR0mI9lcmMwlhw2I76AZGTYaN_EFI0pqCrOvmkZJpG1kQ3l3J3qtygl7oEQiA1o2pwi7S8_SRm2qFrvyw81LRYkzbvGMpqIRhiX0ybA98oFMWpvYMGYv01QlTg_RfGuZdLYIq0cW7DhCqCQ6nQMdM9VU7fCeD76BdDPG4MssXpSYbus7FOHxG3uzFiMLNlNQTbIc6OdLyQLhHJQPbt-QKOadbYscbHRRmDi7DspcEdmr9qU1BcKUXfuIWJIS2lWgo6bneJ0_JzmlqyORURhNUnjHF3lCidFigN8zcL99CjHclmVR92Rer2IH8wjWRPMJCn3RudVtyh9rKgQvXxGg3ZveDDit6ipSfQqhx3nZ6lTtgzrqtZNIcpwbse5D6KuxlrwV2tuPBLbafLcPq2z63Ro_iITjro67YtRAwlV0U38BXysXHG92knRmsWdusIZPYHLoUULRmlyghum_PSN_]--></g></svg>