<?xml version="1.0" encoding="us-ascii" standalone="no"?><svg xmlns="http://www.w3.org/2000/svg" xmlns:xlink="http://www.w3.org/1999/xlink" contentStyleType="text/css" height="1051px" preserveAspectRatio="none" style="width:1414px;height:1051px;background:#FFFFFF;" version="1.1" viewBox="0 0 1414 1051" width="1414px" zoomAndPan="magnify"><defs/><g><text fill="#000000" font-family="sans-serif" font-size="14" font-weight="bold" lengthAdjust="spacing" textLength="331" x="537.75" y="27.9951">FHIR-VZD Authentisierung f&#252;r Versicherte</text><rect fill="#F5F5F5" height="1002.5156" style="stroke:#181818;stroke-width:0.5;" width="438.5" x="16" y="43.2969"/><text fill="#000000" font-family="sans-serif" font-size="13" font-weight="bold" lengthAdjust="spacing" textLength="121" x="172.25" y="55.3638">Fachanwendung</text><rect fill="#F5F5F5" height="1002.5156" style="stroke:#181818;stroke-width:0.5;" width="587.5" x="639.5" y="43.2969"/><text fill="#000000" font-family="sans-serif" font-size="13" font-weight="bold" lengthAdjust="spacing" textLength="142" x="859.75" y="55.3638">VZD-FHIR-Directory</text><rect fill="#FFFFFF" height="71.2656" style="stroke:#181818;stroke-width:1.0;" width="10" x="691.5" y="334.7891"/><rect fill="#FFFFFF" height="552.1953" style="stroke:#181818;stroke-width:1.0;" width="10" x="927.5" y="450.3203"/><rect fill="#FFFFFF" height="181.4688" style="stroke:#181818;stroke-width:1.0;" width="10" x="1174.5" y="805.0469"/><rect fill="none" height="550.6563" style="stroke:#000000;stroke-width:1.5;" width="1169.5" x="10" y="167.9922"/><rect fill="none" height="90.2031" style="stroke:#000000;stroke-width:1.5;" width="1223" x="10" y="904.3125"/><line style="stroke:#181818;stroke-width:0.5;stroke-dasharray:5.0,5.0;" x1="90" x2="90" y1="93.7266" y2="1011.5156"/><line style="stroke:#181818;stroke-width:0.5;stroke-dasharray:5.0,5.0;" x1="405.5" x2="405.5" y1="93.7266" y2="1011.5156"/><line style="stroke:#181818;stroke-width:0.5;stroke-dasharray:5.0,5.0;" x1="696.5" x2="696.5" y1="93.7266" y2="1011.5156"/><line style="stroke:#181818;stroke-width:0.5;stroke-dasharray:5.0,5.0;" x1="932" x2="932" y1="93.7266" y2="1011.5156"/><line style="stroke:#181818;stroke-width:0.5;stroke-dasharray:5.0,5.0;" x1="1179" x2="1179" y1="93.7266" y2="1011.5156"/><rect fill="#E2E2F0" height="30.2969" rx="2.5" ry="2.5" style="stroke:#181818;stroke-width:0.5;" width="141" x="20" y="62.4297"/><text fill="#000000" font-family="sans-serif" font-size="14" lengthAdjust="spacing" textLength="127" x="27" y="82.4248">Client Versicherter</text><rect fill="#E2E2F0" height="30.2969" rx="2.5" ry="2.5" style="stroke:#181818;stroke-width:0.5;" width="141" x="20" y="1010.5156"/><text fill="#000000" font-family="sans-serif" font-size="14" lengthAdjust="spacing" textLength="127" x="27" y="1030.5107">Client Versicherter</text><rect fill="#E2E2F0" height="30.2969" rx="2.5" ry="2.5" style="stroke:#181818;stroke-width:0.5;" width="90" x="360.5" y="62.4297"/><text fill="#000000" font-family="sans-serif" font-size="14" lengthAdjust="spacing" textLength="76" x="367.5" y="82.4248">Fachdienst</text><rect fill="#E2E2F0" height="30.2969" rx="2.5" ry="2.5" style="stroke:#181818;stroke-width:0.5;" width="90" x="360.5" y="1010.5156"/><text fill="#000000" font-family="sans-serif" font-size="14" lengthAdjust="spacing" textLength="76" x="367.5" y="1030.5107">Fachdienst</text><rect fill="#E2E2F0" height="30.2969" rx="2.5" ry="2.5" style="stroke:#181818;stroke-width:0.5;" width="106" x="643.5" y="62.4297"/><text fill="#000000" font-family="sans-serif" font-size="14" lengthAdjust="spacing" textLength="92" x="650.5" y="82.4248">OAuth-Server</text><rect fill="#E2E2F0" height="30.2969" rx="2.5" ry="2.5" style="stroke:#181818;stroke-width:0.5;" width="106" x="643.5" y="1010.5156"/><text fill="#000000" font-family="sans-serif" font-size="14" lengthAdjust="spacing" textLength="92" x="650.5" y="1030.5107">OAuth-Server</text><rect fill="#E2E2F0" height="30.2969" rx="2.5" ry="2.5" style="stroke:#181818;stroke-width:0.5;" width="101" x="882" y="62.4297"/><text fill="#000000" font-family="sans-serif" font-size="14" lengthAdjust="spacing" textLength="87" x="889" y="82.4248">Auth-Service</text><rect fill="#E2E2F0" height="30.2969" rx="2.5" ry="2.5" style="stroke:#181818;stroke-width:0.5;" width="101" x="882" y="1010.5156"/><text fill="#000000" font-family="sans-serif" font-size="14" lengthAdjust="spacing" textLength="87" x="889" y="1030.5107">Auth-Service</text><rect fill="#E2E2F0" height="30.2969" rx="2.5" ry="2.5" style="stroke:#181818;stroke-width:0.5;" width="87" x="1136" y="62.4297"/><text fill="#000000" font-family="sans-serif" font-size="14" lengthAdjust="spacing" textLength="73" x="1143" y="82.4248">FHIR-Proxy</text><rect fill="#E2E2F0" height="30.2969" rx="2.5" ry="2.5" style="stroke:#181818;stroke-width:0.5;" width="87" x="1136" y="1010.5156"/><text fill="#000000" font-family="sans-serif" font-size="14" lengthAdjust="spacing" textLength="73" x="1143" y="1030.5107">FHIR-Proxy</text><rect fill="#FFFFFF" height="71.2656" style="stroke:#181818;stroke-width:1.0;" width="10" x="691.5" y="334.7891"/><rect fill="#FFFFFF" height="552.1953" style="stroke:#181818;stroke-width:1.0;" width="10" x="927.5" y="450.3203"/><rect fill="#FFFFFF" height="181.4688" style="stroke:#181818;stroke-width:1.0;" width="10" x="1174.5" y="805.0469"/><line style="stroke:#181818;stroke-width:1.0;" x1="90.5" x2="132.5" y1="139.9922" y2="139.9922"/><line style="stroke:#181818;stroke-width:1.0;" x1="132.5" x2="132.5" y1="139.9922" y2="152.9922"/><line style="stroke:#181818;stroke-width:1.0;" x1="91.5" x2="132.5" y1="152.9922" y2="152.9922"/><polygon fill="#181818" points="101.5,148.9922,91.5,152.9922,101.5,156.9922,97.5,152.9922" style="stroke:#181818;stroke-width:1.0;"/><text fill="#000000" font-family="sans-serif" font-size="13" font-weight="bold" lengthAdjust="spacing" textLength="30" x="97.5" y="127.3599">[01]</text><text fill="#000000" font-family="sans-serif" font-size="13" lengthAdjust="spacing" textLength="111" x="131.5" y="119.7935">pr&#252;fe ob  g&#252;ltiges</text><text fill="#000000" font-family="monospace" font-size="13" lengthAdjust="spacing" textLength="152" x="246.5" y="119.7935">search-access-token</text><text fill="#000000" font-family="sans-serif" font-size="13" lengthAdjust="spacing" textLength="260" x="131.5" y="134.9263">vom FHIR-Directory Auth-Service vorliegt</text><path d="M10,167.9922 L74,167.9922 L74,175.125 L64,185.125 L10,185.125 L10,167.9922 " fill="#EEEEEE" style="stroke:#000000;stroke-width:1.5;"/><rect fill="none" height="550.6563" style="stroke:#000000;stroke-width:1.5;" width="1169.5" x="10" y="167.9922"/><text fill="#000000" font-family="sans-serif" font-size="13" font-weight="bold" lengthAdjust="spacing" textLength="19" x="25" y="181.0591">alt</text><text fill="#000000" font-family="sans-serif" font-size="11" font-weight="bold" lengthAdjust="spacing" textLength="302" x="89" y="180.2026">[kein g&#252;ltiges search-access-token vorhanden]</text><polygon fill="#181818" points="393.5,202.2578,403.5,206.2578,393.5,210.2578,397.5,206.2578" style="stroke:#181818;stroke-width:1.0;"/><line style="stroke:#181818;stroke-width:1.0;" x1="90.5" x2="399.5" y1="206.2578" y2="206.2578"/><text fill="#000000" font-family="sans-serif" font-size="13" font-weight="bold" lengthAdjust="spacing" textLength="30" x="97.5" y="201.1919">[02]</text><text fill="#000000" font-family="sans-serif" font-size="13" lengthAdjust="spacing" textLength="187" x="131.5" y="201.1919">Anfrage search-access-token</text><line style="stroke:#181818;stroke-width:1.0;" x1="405.5" x2="447.5" y1="235.3906" y2="235.3906"/><line style="stroke:#181818;stroke-width:1.0;" x1="447.5" x2="447.5" y1="235.3906" y2="248.3906"/><line style="stroke:#181818;stroke-width:1.0;" x1="406.5" x2="447.5" y1="248.3906" y2="248.3906"/><polygon fill="#181818" points="416.5,244.3906,406.5,248.3906,416.5,252.3906,412.5,248.3906" style="stroke:#181818;stroke-width:1.0;"/><text fill="#000000" font-family="sans-serif" font-size="13" font-weight="bold" lengthAdjust="spacing" textLength="30" x="412.5" y="230.3247">[03]</text><text fill="#000000" font-family="sans-serif" font-size="13" lengthAdjust="spacing" textLength="200" x="446.5" y="230.3247">Pr&#252;fe Benutzer Authentisierung</text><line style="stroke:#181818;stroke-width:1.0;" x1="405.5" x2="447.5" y1="292.6563" y2="292.6563"/><line style="stroke:#181818;stroke-width:1.0;" x1="447.5" x2="447.5" y1="292.6563" y2="305.6563"/><line style="stroke:#181818;stroke-width:1.0;" x1="406.5" x2="447.5" y1="305.6563" y2="305.6563"/><polygon fill="#181818" points="416.5,301.6563,406.5,305.6563,416.5,309.6563,412.5,305.6563" style="stroke:#181818;stroke-width:1.0;"/><text fill="#000000" font-family="sans-serif" font-size="13" font-weight="bold" lengthAdjust="spacing" textLength="30" x="412.5" y="280.0239">[04]</text><text fill="#000000" font-family="sans-serif" font-size="13" lengthAdjust="spacing" textLength="165" x="446.5" y="272.4575">client_id und client_secret</text><text fill="#000000" font-family="sans-serif" font-size="13" lengthAdjust="spacing" textLength="49" x="446.5" y="287.5903">abrufen</text><polygon fill="#181818" points="679.5,330.7891,689.5,334.7891,679.5,338.7891,683.5,334.7891" style="stroke:#181818;stroke-width:1.0;"/><line style="stroke:#181818;stroke-width:1.0;" x1="405.5" x2="685.5" y1="334.7891" y2="334.7891"/><text fill="#000000" font-family="sans-serif" font-size="13" font-weight="bold" lengthAdjust="spacing" textLength="30" x="412.5" y="329.7231">[05]</text><text fill="#000000" font-family="sans-serif" font-size="13" lengthAdjust="spacing" textLength="233" x="446.5" y="329.7231">POST /token (client_id, client_secret)</text><line style="stroke:#181818;stroke-width:1.0;" x1="701.5" x2="743.5" y1="363.9219" y2="363.9219"/><line style="stroke:#181818;stroke-width:1.0;" x1="743.5" x2="743.5" y1="363.9219" y2="376.9219"/><line style="stroke:#181818;stroke-width:1.0;" x1="702.5" x2="743.5" y1="376.9219" y2="376.9219"/><polygon fill="#181818" points="712.5,372.9219,702.5,376.9219,712.5,380.9219,708.5,376.9219" style="stroke:#181818;stroke-width:1.0;"/><text fill="#000000" font-family="sans-serif" font-size="13" font-weight="bold" lengthAdjust="spacing" textLength="30" x="708.5" y="358.856">[06]</text><text fill="#000000" font-family="sans-serif" font-size="13" lengthAdjust="spacing" textLength="178" x="742.5" y="358.856">pr&#252;fe client_id, client_secret</text><polygon fill="#181818" points="416.5,402.0547,406.5,406.0547,416.5,410.0547,412.5,406.0547" style="stroke:#181818;stroke-width:1.0;"/><line style="stroke:#181818;stroke-width:1.0;stroke-dasharray:2.0,2.0;" x1="410.5" x2="695.5" y1="406.0547" y2="406.0547"/><text fill="#000000" font-family="sans-serif" font-size="13" font-weight="bold" lengthAdjust="spacing" textLength="30" x="422.5" y="400.9888">[07]</text><text fill="#000000" font-family="monospace" font-size="13" lengthAdjust="spacing" textLength="152" x="456.5" y="400.9888">service-authz-token</text><polygon fill="#181818" points="915.5,446.3203,925.5,450.3203,915.5,454.3203,919.5,450.3203" style="stroke:#181818;stroke-width:1.0;"/><line style="stroke:#181818;stroke-width:1.0;" x1="405.5" x2="921.5" y1="450.3203" y2="450.3203"/><text fill="#000000" font-family="sans-serif" font-size="13" font-weight="bold" lengthAdjust="spacing" textLength="30" x="412.5" y="437.688">[08]</text><text fill="#000000" font-family="sans-serif" font-size="13" lengthAdjust="spacing" textLength="164" x="446.5" y="430.1216">GET /service-authenticate</text><text fill="#000000" font-family="sans-serif" font-size="13" lengthAdjust="spacing" textLength="291" x="450.5" y="445.2544">Authorization:   Bearer {service-authz-token}</text><line style="stroke:#181818;stroke-width:1.0;" x1="937.5" x2="979.5" y1="479.4531" y2="479.4531"/><line style="stroke:#181818;stroke-width:1.0;" x1="979.5" x2="979.5" y1="479.4531" y2="492.4531"/><line style="stroke:#181818;stroke-width:1.0;" x1="938.5" x2="979.5" y1="492.4531" y2="492.4531"/><polygon fill="#181818" points="948.5,488.4531,938.5,492.4531,948.5,496.4531,944.5,492.4531" style="stroke:#181818;stroke-width:1.0;"/><text fill="#000000" font-family="sans-serif" font-size="13" font-weight="bold" lengthAdjust="spacing" textLength="30" x="944.5" y="474.3872">[09]</text><text fill="#000000" font-family="sans-serif" font-size="13" lengthAdjust="spacing" textLength="164" x="978.5" y="474.3872">Pr&#252;fe service-authz-token</text><line style="stroke:#181818;stroke-width:1.0;" x1="937.5" x2="979.5" y1="521.5859" y2="521.5859"/><line style="stroke:#181818;stroke-width:1.0;" x1="979.5" x2="979.5" y1="521.5859" y2="534.5859"/><line style="stroke:#181818;stroke-width:1.0;" x1="938.5" x2="979.5" y1="534.5859" y2="534.5859"/><polygon fill="#181818" points="948.5,530.5859,938.5,534.5859,948.5,538.5859,944.5,534.5859" style="stroke:#181818;stroke-width:1.0;"/><text fill="#000000" font-family="sans-serif" font-size="13" font-weight="bold" lengthAdjust="spacing" textLength="30" x="944.5" y="516.52">[10]</text><text fill="#000000" font-family="sans-serif" font-size="13" lengthAdjust="spacing" textLength="189" x="978.5" y="516.52">Erzeuge search-access-token</text><polygon fill="#181818" points="416.5,635.3828,406.5,639.3828,416.5,643.3828,412.5,639.3828" style="stroke:#181818;stroke-width:1.0;"/><line style="stroke:#181818;stroke-width:1.0;stroke-dasharray:2.0,2.0;" x1="410.5" x2="926.5" y1="639.3828" y2="639.3828"/><text fill="#000000" font-family="sans-serif" font-size="13" font-weight="bold" lengthAdjust="spacing" textLength="30" x="422.5" y="596.4849">[11]</text><text fill="#000000" font-family="sans-serif" font-size="13" lengthAdjust="spacing" textLength="82" x="456.5" y="558.6528">HTTP 200 OK</text><text fill="#000000" font-family="sans-serif" font-size="13" lengthAdjust="spacing" textLength="8" x="456.5" y="573.7856">{</text><text fill="#000000" font-family="sans-serif" font-size="13" lengthAdjust="spacing" textLength="255" x="460.5" y="588.9185">"access_token"="search-access-token",</text><text fill="#000000" font-family="sans-serif" font-size="13" lengthAdjust="spacing" textLength="141" x="464.5" y="604.0513">"token_type":"bearer",</text><text fill="#000000" font-family="sans-serif" font-size="13" lengthAdjust="spacing" textLength="118" x="460.5" y="619.1841">"expires_in":86400</text><text fill="#000000" font-family="sans-serif" font-size="13" lengthAdjust="spacing" textLength="8" x="456.5" y="634.3169">}</text><line style="stroke:#181818;stroke-width:1.0;" x1="405.5" x2="447.5" y1="668.5156" y2="668.5156"/><line style="stroke:#181818;stroke-width:1.0;" x1="447.5" x2="447.5" y1="668.5156" y2="681.5156"/><line style="stroke:#181818;stroke-width:1.0;" x1="406.5" x2="447.5" y1="681.5156" y2="681.5156"/><polygon fill="#181818" points="416.5,677.5156,406.5,681.5156,416.5,685.5156,412.5,681.5156" style="stroke:#181818;stroke-width:1.0;"/><text fill="#000000" font-family="sans-serif" font-size="13" font-weight="bold" lengthAdjust="spacing" textLength="30" x="412.5" y="663.4497">[12]</text><text fill="#000000" font-family="sans-serif" font-size="13" lengthAdjust="spacing" textLength="38" x="446.5" y="663.4497">cache</text><text fill="#000000" font-family="monospace" font-size="13" lengthAdjust="spacing" textLength="152" x="488.5" y="663.4497">search-access-token</text><polygon fill="#181818" points="101.5,706.6484,91.5,710.6484,101.5,714.6484,97.5,710.6484" style="stroke:#181818;stroke-width:1.0;"/><line style="stroke:#181818;stroke-width:1.0;stroke-dasharray:2.0,2.0;" x1="95.5" x2="404.5" y1="710.6484" y2="710.6484"/><text fill="#000000" font-family="sans-serif" font-size="13" font-weight="bold" lengthAdjust="spacing" textLength="30" x="107.5" y="705.5825">[13]</text><text fill="#000000" font-family="monospace" font-size="13" lengthAdjust="spacing" textLength="152" x="141.5" y="705.5825">search-access-token</text><rect fill="#EEEEEE" height="3" style="stroke:#EEEEEE;stroke-width:1.0;" width="1407.5" x="0" y="746.2148"/><line style="stroke:#000000;stroke-width:1.0;" x1="0" x2="1407.5" y1="746.2148" y2="746.2148"/><line style="stroke:#000000;stroke-width:1.0;" x1="0" x2="1407.5" y1="749.2148" y2="749.2148"/><rect fill="#EEEEEE" height="23.1328" style="stroke:#000000;stroke-width:2.0;" width="327" x="540.25" y="735.6484"/><text fill="#000000" font-family="sans-serif" font-size="13" font-weight="bold" lengthAdjust="spacing" textLength="308" x="546.25" y="751.7153">...Suche durch Versicherte im FHIR VZD...</text><polygon fill="#181818" points="1162.5,801.0469,1172.5,805.0469,1162.5,809.0469,1166.5,805.0469" style="stroke:#181818;stroke-width:1.0;"/><line style="stroke:#181818;stroke-width:1.0;" x1="90.5" x2="1168.5" y1="805.0469" y2="805.0469"/><text fill="#000000" font-family="sans-serif" font-size="13" font-weight="bold" lengthAdjust="spacing" textLength="30" x="97.5" y="792.4146">[14]</text><text fill="#000000" font-family="sans-serif" font-size="13" lengthAdjust="spacing" textLength="151" x="131.5" y="784.8481">GET /insurant/search?...</text><text fill="#000000" font-family="sans-serif" font-size="13" lengthAdjust="spacing" textLength="273" x="131.5" y="799.981">Authorization: Bearer search-access-token</text><line style="stroke:#181818;stroke-width:1.0;" x1="1184.5" x2="1226.5" y1="834.1797" y2="834.1797"/><line style="stroke:#181818;stroke-width:1.0;" x1="1226.5" x2="1226.5" y1="834.1797" y2="847.1797"/><line style="stroke:#181818;stroke-width:1.0;" x1="1185.5" x2="1226.5" y1="847.1797" y2="847.1797"/><polygon fill="#181818" points="1195.5,843.1797,1185.5,847.1797,1195.5,851.1797,1191.5,847.1797" style="stroke:#181818;stroke-width:1.0;"/><text fill="#000000" font-family="sans-serif" font-size="13" font-weight="bold" lengthAdjust="spacing" textLength="30" x="1191.5" y="829.1138">[15]</text><text fill="#000000" font-family="sans-serif" font-size="13" lengthAdjust="spacing" textLength="170" x="1225.5" y="829.1138">pr&#252;fe search-access-token</text><line style="stroke:#181818;stroke-width:1.0;" x1="1184.5" x2="1226.5" y1="876.3125" y2="876.3125"/><line style="stroke:#181818;stroke-width:1.0;" x1="1226.5" x2="1226.5" y1="876.3125" y2="889.3125"/><line style="stroke:#181818;stroke-width:1.0;" x1="1185.5" x2="1226.5" y1="889.3125" y2="889.3125"/><polygon fill="#181818" points="1195.5,885.3125,1185.5,889.3125,1195.5,893.3125,1191.5,889.3125" style="stroke:#181818;stroke-width:1.0;"/><text fill="#000000" font-family="sans-serif" font-size="13" font-weight="bold" lengthAdjust="spacing" textLength="30" x="1191.5" y="871.2466">[16]</text><text fill="#000000" font-family="sans-serif" font-size="13" lengthAdjust="spacing" textLength="38" x="1225.5" y="871.2466">suche</text><path d="M10,904.3125 L74,904.3125 L74,911.4453 L64,921.4453 L10,921.4453 L10,904.3125 " fill="#EEEEEE" style="stroke:#000000;stroke-width:1.5;"/><rect fill="none" height="90.2031" style="stroke:#000000;stroke-width:1.5;" width="1223" x="10" y="904.3125"/><text fill="#000000" font-family="sans-serif" font-size="13" font-weight="bold" lengthAdjust="spacing" textLength="19" x="25" y="917.3794">alt</text><text fill="#000000" font-family="sans-serif" font-size="11" font-weight="bold" lengthAdjust="spacing" textLength="204" x="89" y="916.5229">[search-access-token ist g&#252;ltig]</text><polygon fill="#181818" points="101.5,938.5781,91.5,942.5781,101.5,946.5781,97.5,942.5781" style="stroke:#181818;stroke-width:1.0;"/><line style="stroke:#181818;stroke-width:1.0;stroke-dasharray:2.0,2.0;" x1="95.5" x2="1173.5" y1="942.5781" y2="942.5781"/><text fill="#000000" font-family="sans-serif" font-size="13" font-weight="bold" lengthAdjust="spacing" textLength="30" x="107.5" y="937.5122">[17]</text><text fill="#000000" font-family="sans-serif" font-size="13" lengthAdjust="spacing" textLength="201" x="141.5" y="937.5122">HTTP 200 OK (Result Body json)</text><line style="stroke:#000000;stroke-width:1.0;stroke-dasharray:2.0,2.0;" x1="10" x2="1233" y1="951.5781" y2="951.5781"/><text fill="#000000" font-family="sans-serif" font-size="11" font-weight="bold" lengthAdjust="spacing" textLength="220" x="15" y="961.7886">[search-access-token ist ung&#252;ltig]</text><polygon fill="#181818" points="101.5,982.5156,91.5,986.5156,101.5,990.5156,97.5,986.5156" style="stroke:#181818;stroke-width:1.0;"/><line style="stroke:#181818;stroke-width:1.0;stroke-dasharray:2.0,2.0;" x1="95.5" x2="1178.5" y1="986.5156" y2="986.5156"/><text fill="#000000" font-family="sans-serif" font-size="13" font-weight="bold" lengthAdjust="spacing" textLength="30" x="107.5" y="981.4497">[18]</text><text fill="#000000" font-family="sans-serif" font-size="13" lengthAdjust="spacing" textLength="60" x="141.5" y="981.4497">HTTP 401</text><!--SRC=[XLHDRzf04BtxLuosbrI94wUAgWgLL4b9cYe7eX1HgQL2oteCsy3QsbrJ8Ee_oor_hBFsOammBLmmdlVclVdYkKrLFXkXXbFwie-ZynzHz9C5Ljef0hk- -NeVzhztu2At4rHM6eawLsD8Nfurz54RAIQeBR8W24Rf0gwvc73r6rNiejvycqYBlLdwY07G9-FQIY4phYpqFqybCG8tmFpF6fzcEu3h3WMP4k3InCKZ2oWNKEeoFsaD2z4TgL7OL2__AO9rdR6mXtfEAHrrVnKN_-s6Lf5Iu3gqCJB9IerEnfrE5ykQni3R3i_N1MX1fb-U4uHq131-UPvQEKQ2CuDSYqd8XK1ZGalo5MC3DKzdyCfXNHdCKqsyOqkv-DJ28qfLesqWTGZgMOpAETdey_LkmOLAD1zZ4pPm41yOdbU8kzBH9QhShcYsNasF0zM0K4ycYlH36KDEDVDF1eL6Er1yfFEarBd1hZjsU4Y9kxq7E2bj7LHKHziyRmkV7hN1LutOXzk2LMx3i5KqgwX-oEdTQjsixUhuSN4olroHoZh45KTmYp1GHR5IBLVSobIrYE6Iwav5V6h8yIVmeYehfHFVW0R47i2LNc6-fySrGAt7DmyFT_0kYg1xEr1Ff9kLe65fljqulqSK1wpuFRJB35cBZGftnHk6Yuo6sWobOgqFxy-YQE0TxewOe0k0-xPa2qCkrvksBvpMCmZQRJW-FkxbZZVEAQf-Zq2MM-SE34L1krsjiXlV9FDDbShacex0IPdeauiTg5SjzGrjgZKNLixT82HPG7V4KsVhTku2Da76AIzslcd99UsAFmEkE0wskK6mrKuuk4UJ4yzb6Y_XbqaLRGnE3Uubfft-7_LPTEfUnbXtwEh-5m00]--></g></svg>