<svg xmlns="http://www.w3.org/2000/svg" xmlns:xlink="http://www.w3.org/1999/xlink" contentStyleType="text/css" data-diagram-type="SEQUENCE" height="897.9167px" preserveAspectRatio="none" style="width:1697px;height:897px;background:#FFFFFF;" version="1.1" viewBox="0 0 1697 897" width="1697.9167px" zoomAndPan="magnify"><defs/><g><g><title>Browser</title><rect fill="#FFFFFF" height="666.3086" style="stroke:#181818;stroke-width:1.0417;" width="10.4167" x="326.5172" y="112.0768"/></g><g><title>Authenticator App</title><rect fill="#FFFFFF" height="195.6217" style="stroke:#181818;stroke-width:1.0417;" width="10.4167" x="794.7581" y="343.2536"/></g><g><title>Auth-Service</title><rect fill="#FFFFFF" height="74.235" style="stroke:#181818;stroke-width:1.0417;" width="10.4167" x="932.8679" y="238.6719"/></g><g><title>Auth-Service</title><rect fill="#FFFFFF" height="134.9284" style="stroke:#181818;stroke-width:1.0417;" width="10.4167" x="932.8679" y="569.222"/></g><g><title>Identity Provider</title><rect fill="#FFFFFF" height="256.3151" style="stroke:#181818;stroke-width:1.0417;" width="10.4167" x="1487.2055" y="373.6003"/></g><g><title>Org-Admin</title><rect fill="#000000" fill-opacity="0.00000" height="695.4753" width="8.3333" x="43.5303" y="101.6602"/><line style="stroke:#181818;stroke-width:0.5208;stroke-dasharray:5.0,5.0;" x1="46.875" x2="46.875" y1="101.6602" y2="797.1354"/></g><g><title>Browser</title><rect fill="#000000" fill-opacity="0.00000" height="695.4753" width="8.3333" x="327.5589" y="101.6602"/><line style="stroke:#181818;stroke-width:0.5208;stroke-dasharray:5.0,5.0;" x1="330.8009" x2="330.8009" y1="101.6602" y2="797.1354"/></g><g><title>Authenticator App</title><rect fill="#000000" fill-opacity="0.00000" height="695.4753" width="8.3333" x="795.7998" y="101.6602"/><line style="stroke:#181818;stroke-width:0.5208;stroke-dasharray:5.0,5.0;" x1="799.1511" x2="799.1511" y1="101.6602" y2="797.1354"/></g><g><title>Auth-Service</title><rect fill="#000000" fill-opacity="0.00000" height="695.4753" width="8.3333" x="933.9096" y="101.6602"/><line style="stroke:#181818;stroke-width:0.5208;stroke-dasharray:5.0,5.0;" x1="937.2401" x2="937.2401" y1="101.6602" y2="797.1354"/></g><g><title>FHIR-Proxy</title><rect fill="#000000" fill-opacity="0.00000" height="695.4753" width="8.3333" x="1362.6628" y="101.6602"/><line style="stroke:#181818;stroke-width:0.5208;stroke-dasharray:5.0,5.0;" x1="1366.4012" x2="1366.4012" y1="101.6602" y2="797.1354"/></g><g><title>Identity Provider</title><rect fill="#000000" fill-opacity="0.00000" height="695.4753" width="8.3333" x="1488.2472" y="101.6602"/><line style="stroke:#181818;stroke-width:0.5208;stroke-dasharray:5.0,5.0;" x1="1492.2577" x2="1492.2577" y1="101.6602" y2="797.1354"/></g><g><title>FHIR-Directory</title><rect fill="#000000" fill-opacity="0.00000" height="695.4753" width="8.3333" x="1627.1118" y="101.6602"/><line style="stroke:#181818;stroke-width:0.5208;stroke-dasharray:5.0,5.0;" x1="1631.1117" x2="1631.1117" y1="101.6602" y2="797.1354"/></g><g class="participant participant-head" data-participant="o"><text fill="#000000" font-family="sans-serif" font-size="14.5833" lengthAdjust="spacing" textLength="78.7272" x="5.2083" y="81.2449">Org-Admin</text><text fill="#000000" font-family="sans-serif" font-size="14.5833" lengthAdjust="spacing" textLength="55.1219" x="17.011" y="98.2208">oder LE</text><ellipse cx="47.6969" cy="14.0625" fill="#E3E3E3" rx="8.3333" ry="8.3333" style="stroke:#181818;stroke-width:0.5208;"/><path d="M47.6969,22.3958 L47.6969,50.5208 M34.1553,30.7292 L61.2386,30.7292 M47.6969,50.5208 L34.1553,66.1458 M47.6969,50.5208 L61.2386,66.1458" fill="none" style="stroke:#181818;stroke-width:0.5208;"/></g><g class="participant participant-tail" data-participant="o"><text fill="#000000" font-family="sans-serif" font-size="14.5833" lengthAdjust="spacing" textLength="78.7272" x="5.2083" y="809.6303">Org-Admin</text><text fill="#000000" font-family="sans-serif" font-size="14.5833" lengthAdjust="spacing" textLength="55.1219" x="17.011" y="826.6062">oder LE</text><ellipse cx="47.6969" cy="838.8997" fill="#E3E3E3" rx="8.3333" ry="8.3333" style="stroke:#181818;stroke-width:0.5208;"/><path d="M47.6969,847.2331 L47.6969,875.3581 M34.1553,855.5664 L61.2386,855.5664 M47.6969,875.3581 L34.1553,890.9831 M47.6969,875.3581 L61.2386,890.9831" fill="none" style="stroke:#181818;stroke-width:0.5208;"/></g><g class="participant participant-head" data-participant="cl"><rect fill="#E3E3E3" height="48.5352" rx="2.6042" ry="2.6042" style="stroke:#181818;stroke-width:0.5208;" width="112.266" x="275.5925" y="52.0833"/><text fill="#000000" font-family="sans-serif" font-size="14.5833" lengthAdjust="spacing" textLength="59.4157" x="302.0177" y="72.9116">Browser</text><text fill="#000000" font-family="sans-serif" font-size="14.5833" lengthAdjust="spacing" textLength="97.6827" x="282.8842" y="89.8875">SSP Frontend</text></g><g class="participant participant-tail" data-participant="cl"><rect fill="#E3E3E3" height="48.5352" rx="2.6042" ry="2.6042" style="stroke:#181818;stroke-width:0.5208;" width="112.266" x="275.5925" y="796.0938"/><text fill="#000000" font-family="sans-serif" font-size="14.5833" lengthAdjust="spacing" textLength="59.4157" x="302.0177" y="816.922">Browser</text><text fill="#000000" font-family="sans-serif" font-size="14.5833" lengthAdjust="spacing" textLength="97.6827" x="282.8842" y="833.8979">SSP Frontend</text></g><g class="participant participant-head" data-participant="aa"><rect fill="#E3E3E3" height="48.5352" rx="2.6042" ry="2.6042" style="stroke:#181818;stroke-width:0.5208;" width="147.464" x="726.2344" y="52.0833"/><text fill="#000000" font-family="sans-serif" font-size="14.5833" lengthAdjust="spacing" textLength="132.8807" x="733.5261" y="72.9116">Authenticator App</text><text fill="#000000" font-family="sans-serif" font-size="14.5833" lengthAdjust="spacing" textLength="54.7872" x="772.5728" y="89.8875">des IDP</text></g><g class="participant participant-tail" data-participant="aa"><rect fill="#E3E3E3" height="48.5352" rx="2.6042" ry="2.6042" style="stroke:#181818;stroke-width:0.5208;" width="147.464" x="726.2344" y="796.0938"/><text fill="#000000" font-family="sans-serif" font-size="14.5833" lengthAdjust="spacing" textLength="132.8807" x="733.5261" y="816.922">Authenticator App</text><text fill="#000000" font-family="sans-serif" font-size="14.5833" lengthAdjust="spacing" textLength="54.7872" x="772.5728" y="833.8979">des IDP</text></g><g class="participant participant-head" data-participant="au"><rect fill="#E3E3E3" height="31.5592" rx="2.6042" ry="2.6042" style="stroke:#181818;stroke-width:0.5208;" width="107.9224" x="884.1151" y="69.0592"/><text fill="#000000" font-family="sans-serif" font-size="14.5833" lengthAdjust="spacing" textLength="93.339" x="891.4068" y="89.8875">Auth-Service</text></g><g class="participant participant-tail" data-participant="au"><rect fill="#E3E3E3" height="31.5592" rx="2.6042" ry="2.6042" style="stroke:#181818;stroke-width:0.5208;" width="107.9224" x="884.1151" y="796.0938"/><text fill="#000000" font-family="sans-serif" font-size="14.5833" lengthAdjust="spacing" textLength="93.339" x="891.4068" y="816.922">Auth-Service</text></g><g class="participant participant-head" data-participant="fp"><rect fill="#E3E3E3" height="31.5592" rx="2.6042" ry="2.6042" style="stroke:#181818;stroke-width:0.5208;" width="94.6065" x="1319.5262" y="69.0592"/><text fill="#000000" font-family="sans-serif" font-size="14.5833" lengthAdjust="spacing" textLength="80.0232" x="1326.8178" y="89.8875">FHIR-Proxy</text></g><g class="participant participant-tail" data-participant="fp"><rect fill="#E3E3E3" height="31.5592" rx="2.6042" ry="2.6042" style="stroke:#181818;stroke-width:0.5208;" width="94.6065" x="1319.5262" y="796.0938"/><text fill="#000000" font-family="sans-serif" font-size="14.5833" lengthAdjust="spacing" textLength="80.0232" x="1326.8178" y="816.922">FHIR-Proxy</text></g><g class="participant participant-head" data-participant="idp"><rect fill="#E3E3E3" height="31.5592" rx="2.6042" ry="2.6042" style="stroke:#181818;stroke-width:0.5208;" width="135.729" x="1424.5494" y="69.0592"/><text fill="#000000" font-family="sans-serif" font-size="14.5833" lengthAdjust="spacing" textLength="121.1456" x="1431.841" y="89.8875">Identity Provider</text></g><g class="participant participant-tail" data-participant="idp"><rect fill="#E3E3E3" height="31.5592" rx="2.6042" ry="2.6042" style="stroke:#181818;stroke-width:0.5208;" width="135.729" x="1424.5494" y="796.0938"/><text fill="#000000" font-family="sans-serif" font-size="14.5833" lengthAdjust="spacing" textLength="121.1456" x="1431.841" y="816.922">Identity Provider</text></g><g class="participant participant-head" data-participant="fd"><rect fill="#E3E3E3" height="31.5592" rx="2.6042" ry="2.6042" style="stroke:#181818;stroke-width:0.5208;" width="121.167" x="1570.695" y="69.0592"/><text fill="#000000" font-family="sans-serif" font-size="14.5833" lengthAdjust="spacing" textLength="106.5837" x="1577.9867" y="89.8875">FHIR-Directory</text></g><g class="participant participant-tail" data-participant="fd"><rect fill="#E3E3E3" height="31.5592" rx="2.6042" ry="2.6042" style="stroke:#181818;stroke-width:0.5208;" width="121.167" x="1570.695" y="796.0938"/><text fill="#000000" font-family="sans-serif" font-size="14.5833" lengthAdjust="spacing" textLength="106.5837" x="1577.9867" y="816.922">FHIR-Directory</text></g><g><title>Browser</title><rect fill="#FFFFFF" height="666.3086" style="stroke:#181818;stroke-width:1.0417;" width="10.4167" x="326.5172" y="112.0768"/></g><g><title>Authenticator App</title><rect fill="#FFFFFF" height="195.6217" style="stroke:#181818;stroke-width:1.0417;" width="10.4167" x="794.7581" y="343.2536"/></g><g><title>Auth-Service</title><rect fill="#FFFFFF" height="74.235" style="stroke:#181818;stroke-width:1.0417;" width="10.4167" x="932.8679" y="238.6719"/></g><g><title>Auth-Service</title><rect fill="#FFFFFF" height="134.9284" style="stroke:#181818;stroke-width:1.0417;" width="10.4167" x="932.8679" y="569.222"/></g><g><title>Identity Provider</title><rect fill="#FFFFFF" height="256.3151" style="stroke:#181818;stroke-width:1.0417;" width="10.4167" x="1487.2055" y="373.6003"/></g><g class="message" data-participant-1="o" data-participant-2="cl"><polygon fill="#181818" points="314.0172,129.9235,324.4339,134.0902,314.0172,138.2568,318.1839,134.0902" style="stroke:#181818;stroke-width:1.0417;"/><line style="stroke:#181818;stroke-width:1.0417;" x1="47.6969" x2="320.2672" y1="134.0902" y2="134.0902"/><text fill="#000000" font-family="sans-serif" font-size="13.5417" lengthAdjust="spacing" textLength="128.8376" x="54.9886" y="128.8132">[1] SSP UI aufrufen</text></g><g class="message" data-participant-1="cl" data-participant-2="cl"><line style="stroke:#181818;stroke-width:1.0417;" x1="336.9339" x2="380.6839" y1="164.4368" y2="164.4368"/><line style="stroke:#181818;stroke-width:1.0417;" x1="380.6839" x2="380.6839" y1="164.4368" y2="177.9785"/><line style="stroke:#181818;stroke-width:1.0417;" x1="337.9756" x2="380.6839" y1="177.9785" y2="177.9785"/><polygon fill="#181818" points="348.3922,173.8118,337.9756,177.9785,348.3922,182.1452,344.2256,177.9785" style="stroke:#181818;stroke-width:1.0417;"/><text fill="#000000" font-family="sans-serif" font-size="13.5417" lengthAdjust="spacing" textLength="203.7598" x="344.2256" y="159.1599">[2] Darstellung Login Auswahl</text></g><g class="message" data-participant-1="o" data-participant-2="cl"><polygon fill="#181818" points="314.0172,204.1585,324.4339,208.3252,314.0172,212.4919,318.1839,208.3252" style="stroke:#181818;stroke-width:1.0417;"/><line style="stroke:#181818;stroke-width:1.0417;" x1="47.6969" x2="320.2672" y1="208.3252" y2="208.3252"/><text fill="#000000" font-family="sans-serif" font-size="13.5417" lengthAdjust="spacing" textLength="253.8203" x="54.9886" y="203.0482">[3] Login mit HBA / SMC-B ausw&#228;hlen</text></g><g class="message" data-participant-1="cl" data-participant-2="au"><polygon fill="#181818" points="920.3679,234.5052,930.7846,238.6719,920.3679,242.8385,924.5346,238.6719" style="stroke:#181818;stroke-width:1.0417;"/><line style="stroke:#181818;stroke-width:1.0417;" x1="336.9339" x2="926.6179" y1="238.6719" y2="238.6719"/><text fill="#000000" font-family="sans-serif" font-size="13.5417" lengthAdjust="spacing" textLength="192.5456" x="344.2256" y="233.3949">[4] GET /owner-authenticate</text></g><g class="message" data-participant-1="au" data-participant-2="au"><line style="stroke:#181818;stroke-width:1.0417;" x1="943.2846" x2="987.0346" y1="269.0186" y2="269.0186"/><line style="stroke:#181818;stroke-width:1.0417;" x1="987.0346" x2="987.0346" y1="269.0186" y2="282.5602"/><line style="stroke:#181818;stroke-width:1.0417;" x1="944.3263" x2="987.0346" y1="282.5602" y2="282.5602"/><polygon fill="#181818" points="954.7429,278.3936,944.3263,282.5602,954.7429,286.7269,950.5763,282.5602" style="stroke:#181818;stroke-width:1.0417;"/><text fill="#000000" font-family="sans-serif" font-size="13.5417" lengthAdjust="spacing" textLength="332.5841" x="950.5763" y="263.7416">[5] Erzeuge PKCE Code f&#252;r verifier und challenge</text></g><g class="message" data-participant-1="au" data-participant-2="cl"><polygon fill="#181818" points="348.3922,308.7402,337.9756,312.9069,348.3922,317.0736,344.2256,312.9069" style="stroke:#181818;stroke-width:1.0417;"/><line style="stroke:#181818;stroke-width:1.0417;stroke-dasharray:2.0,2.0;" x1="342.1422" x2="937.0346" y1="312.9069" y2="312.9069"/><text fill="#000000" font-family="sans-serif" font-size="13.5417" lengthAdjust="spacing" textLength="301.8377" x="354.6422" y="307.6299">Redirect (302) to IDP Authorization Endpoint</text></g><g class="message" data-participant-1="cl" data-participant-2="aa"><polygon fill="#181818" points="782.2581,339.0869,792.6748,343.2536,782.2581,347.4202,786.4248,343.2536" style="stroke:#181818;stroke-width:1.0417;"/><line style="stroke:#181818;stroke-width:1.0417;" x1="336.9339" x2="788.5081" y1="343.2536" y2="343.2536"/><text fill="#000000" font-family="sans-serif" font-size="13.5417" lengthAdjust="spacing" textLength="205.6905" x="344.2256" y="337.9766">[6] Deeplink authenticator://...</text></g><g class="message" data-participant-1="aa" data-participant-2="idp"><polygon fill="#181818" points="1474.7055,369.4336,1485.1222,373.6003,1474.7055,377.7669,1478.8722,373.6003" style="stroke:#181818;stroke-width:1.0417;"/><line style="stroke:#181818;stroke-width:1.0417;" x1="805.1748" x2="1480.9555" y1="373.6003" y2="373.6003"/><text fill="#000000" font-family="sans-serif" font-size="13.5417" lengthAdjust="spacing" textLength="228.8925" x="812.4664" y="368.3233">[7] GET {authorization_endpoint}</text></g><g class="message" data-participant-1="idp" data-participant-2="aa"><polygon fill="#181818" points="816.6331,399.7803,806.2164,403.9469,816.6331,408.1136,812.4664,403.9469" style="stroke:#181818;stroke-width:1.0417;"/><line style="stroke:#181818;stroke-width:1.0417;stroke-dasharray:2.0,2.0;" x1="810.3831" x2="1486.1638" y1="403.9469" y2="403.9469"/><text fill="#000000" font-family="sans-serif" font-size="13.5417" lengthAdjust="spacing" textLength="65.6916" x="822.8831" y="398.6699">challenge</text></g><g class="message" data-participant-1="aa" data-participant-2="aa"><line style="stroke:#181818;stroke-width:1.0417;" x1="805.1748" x2="848.9248" y1="434.2936" y2="434.2936"/><line style="stroke:#181818;stroke-width:1.0417;" x1="848.9248" x2="848.9248" y1="434.2936" y2="447.8353"/><line style="stroke:#181818;stroke-width:1.0417;" x1="806.2164" x2="848.9248" y1="447.8353" y2="447.8353"/><polygon fill="#181818" points="816.6331,443.6686,806.2164,447.8353,816.6331,452.002,812.4664,447.8353" style="stroke:#181818;stroke-width:1.0417;"/><text fill="#000000" font-family="sans-serif" font-size="13.5417" lengthAdjust="spacing" textLength="97.9919" x="812.4664" y="429.0166">sign challenge</text></g><g class="message" data-participant-1="aa" data-participant-2="idp"><polygon fill="#181818" points="1474.7055,474.0153,1485.1222,478.182,1474.7055,482.3486,1478.8722,478.182" style="stroke:#181818;stroke-width:1.0417;"/><line style="stroke:#181818;stroke-width:1.0417;" x1="805.1748" x2="1480.9555" y1="478.182" y2="478.182"/><text fill="#000000" font-family="sans-serif" font-size="13.5417" lengthAdjust="spacing" textLength="117.3854" x="812.4664" y="472.905">signed_challenge</text></g><g class="message" data-participant-1="idp" data-participant-2="aa"><polygon fill="#181818" points="816.6331,504.362,806.2164,508.5286,816.6331,512.6953,812.4664,508.5286" style="stroke:#181818;stroke-width:1.0417;"/><line style="stroke:#181818;stroke-width:1.0417;stroke-dasharray:2.0,2.0;" x1="810.3831" x2="1486.1638" y1="508.5286" y2="508.5286"/><text fill="#000000" font-family="sans-serif" font-size="13.5417" lengthAdjust="spacing" textLength="182.5414" x="822.8831" y="503.2516">Redirect (302) (auth_code)</text></g><g class="message" data-participant-1="aa" data-participant-2="cl"><polygon fill="#181818" points="348.3922,534.7087,337.9756,538.8753,348.3922,543.042,344.2256,538.8753" style="stroke:#181818;stroke-width:1.0417;"/><line style="stroke:#181818;stroke-width:1.0417;stroke-dasharray:2.0,2.0;" x1="342.1422" x2="798.9248" y1="538.8753" y2="538.8753"/><text fill="#000000" font-family="sans-serif" font-size="13.5417" lengthAdjust="spacing" textLength="256.5511" x="354.6422" y="533.5983">[8] {client_callback_uri} {auth_code}</text></g><g class="message" data-participant-1="cl" data-participant-2="au"><polygon fill="#181818" points="920.3679,565.0553,930.7846,569.222,920.3679,573.3887,924.5346,569.222" style="stroke:#181818;stroke-width:1.0417;"/><line style="stroke:#181818;stroke-width:1.0417;" x1="336.9339" x2="926.6179" y1="569.222" y2="569.222"/><text fill="#000000" font-family="sans-serif" font-size="13.5417" lengthAdjust="spacing" textLength="357.3664" x="344.2256" y="563.945">[9] GET /signin-gematik-idp-dienst with {auth_code}</text></g><g class="message" data-participant-1="au" data-participant-2="idp"><polygon fill="#181818" points="1474.7055,595.402,1485.1222,599.5687,1474.7055,603.7354,1478.8722,599.5687" style="stroke:#181818;stroke-width:1.0417;"/><line style="stroke:#181818;stroke-width:1.0417;" x1="943.2846" x2="1480.9555" y1="599.5687" y2="599.5687"/><text fill="#000000" font-family="sans-serif" font-size="13.5417" lengthAdjust="spacing" textLength="336.5051" x="950.5763" y="594.2917">[10] POST {token_Endpoint} (auth_code, verifier)</text></g><g class="message" data-participant-1="idp" data-participant-2="au"><polygon fill="#181818" points="954.7429,625.7487,944.3263,629.9154,954.7429,634.082,950.5763,629.9154" style="stroke:#181818;stroke-width:1.0417;"/><line style="stroke:#181818;stroke-width:1.0417;stroke-dasharray:2.0,2.0;" x1="948.4929" x2="1491.3722" y1="629.9154" y2="629.9154"/><text fill="#000000" font-family="sans-serif" font-size="13.5417" lengthAdjust="spacing" textLength="176.7624" x="960.9929" y="624.6384">[11] Response {id_token}</text></g><g class="message" data-participant-1="au" data-participant-2="au"><line style="stroke:#181818;stroke-width:1.0417;" x1="943.2846" x2="987.0346" y1="660.262" y2="660.262"/><line style="stroke:#181818;stroke-width:1.0417;" x1="987.0346" x2="987.0346" y1="660.262" y2="673.8037"/><line style="stroke:#181818;stroke-width:1.0417;" x1="944.3263" x2="987.0346" y1="673.8037" y2="673.8037"/><polygon fill="#181818" points="954.7429,669.637,944.3263,673.8037,954.7429,677.9704,950.5763,673.8037" style="stroke:#181818;stroke-width:1.0417;"/><text fill="#000000" font-family="sans-serif" font-size="13.5417" lengthAdjust="spacing" textLength="393.3365" x="950.5763" y="654.985">[12] Validierung id-token und erzeuge owner-accesstoken</text></g><g class="message" data-participant-1="au" data-participant-2="cl"><polygon fill="#181818" points="348.3922,699.9837,337.9756,704.1504,348.3922,708.3171,344.2256,704.1504" style="stroke:#181818;stroke-width:1.0417;"/><line style="stroke:#181818;stroke-width:1.0417;stroke-dasharray:2.0,2.0;" x1="342.1422" x2="937.0346" y1="704.1504" y2="704.1504"/><text fill="#000000" font-family="sans-serif" font-size="13.5417" lengthAdjust="spacing" textLength="489.1001" x="354.6422" y="698.8734">[13] HTTP 200 OK, Result body {"access_token"="owner-accesstoken"}</text></g><g class="message" data-participant-1="cl" data-participant-2="cl"><line style="stroke:#181818;stroke-width:1.0417;" x1="336.9339" x2="380.6839" y1="734.4971" y2="734.4971"/><line style="stroke:#181818;stroke-width:1.0417;" x1="380.6839" x2="380.6839" y1="734.4971" y2="748.0387"/><line style="stroke:#181818;stroke-width:1.0417;" x1="337.9756" x2="380.6839" y1="748.0387" y2="748.0387"/><polygon fill="#181818" points="348.3922,743.8721,337.9756,748.0387,348.3922,752.2054,344.2256,748.0387" style="stroke:#181818;stroke-width:1.0417;"/><text fill="#000000" font-family="sans-serif" font-size="13.5417" lengthAdjust="spacing" textLength="432.8242" x="344.2256" y="729.2201">[14] Benutzeranmeldung (owner-accesstoken) wird gespeichert</text></g><g class="message" data-participant-1="cl" data-participant-2="o"><polygon fill="#181818" points="59.1553,774.2188,48.7386,778.3854,59.1553,782.5521,54.9886,778.3854" style="stroke:#181818;stroke-width:1.0417;"/><line style="stroke:#181818;stroke-width:1.0417;" x1="52.9053" x2="330.6839" y1="778.3854" y2="778.3854"/><text fill="#000000" font-family="sans-serif" font-size="13.5417" lengthAdjust="spacing" textLength="153.9373" x="65.4053" y="773.1084">Anzeige SSP Suchseite</text></g><!--SRC=[PLJRRjf047ttLupyaY350T9xf5Q2X3GegOBYj7b84Dhi3lOAUzTThw60-9j-Hj_oOvqr1WnvGlBCENFcd5doYLGPCom5aKbejrfUlltoQ5ZsA8MDuMplUwgLvh7HAO8r1NhUaPKsGV2lhlltmQKqoAqsynC8yNU1QY4aYnmk30VGAMoCoahEB48gBOGfCvOp8uuyvc2WWUNWtvaew8XKgcUb1HguxVaUJIUWp9Yom9EohMlqB4Vph1ptbT7AeXBxdOoLdRN1DAIJPSzAO0xzoy51Ux5j3q8qKybnls6SbGtbhWEZ_yptorAiwttXfjavKCzKqWe7B6B7idNCzvm7SkgyuOcd8VX6l-Vmr1wMvltiaxonASQeF39WKpqRmYKpkSKaALG4jpgIYepEPookaxmRLYLd-tMt0qq8Vrm4NUBCPwz_uuHOlOgN5GHuFuJllGTewfb24x1QSZkPhF38iGtYmn1wPe55X32ukUZ11MK7uzT_1gPev5XIa8KIm6EMqBG8Isobxnv5wGCSlskTDS1gbqrvBzh81RDIA-WfaMcfh2Umhg3Ip4Z1H_82CKkacW2hHtxUR9wUdjQ4CpAREHmbHi1FwsMNh3vmXDN0rGv8xPuBEQX6rfPX6ncvZDHUOJF65L2CTgKwqu43nqxAY9E5ZP9wa-Fd8Inv8ccp4IUQ5yOdeyB8rLfx2LZj6SJsKlrIfUgaI1L4cDAgau241898SmipIK- -JlOsxRLdxTOG1dSXkMRr1DLe4y-gflra6trZjwpJqQQZliSyqof7M4enAZbMNbswyxf-NsqwzLyiaIJKk5EN8YXHvLLXTNdLkNAEULvMwrVsrAPdSFtmC73_QN1tS-8q58c55otciFJNiBKM_wl_XijV7TnU_I6swSLqKHLsWOQf51FXH1w_8McGnKP0HDkZv34QMx7eS-Ye1KhQmhttiE1nZfBUMtqe_JFy1m00]--></g></svg>