<svg xmlns="http://www.w3.org/2000/svg" xmlns:xlink="http://www.w3.org/1999/xlink" version="1.1" data-diagram-type="SEQUENCE" style="width:1289px;height:2183px;background:#FFFFFF;" width="1289.583px" height="2183.333px" viewBox="0 0 1289 2183" zoomAndPan="magnify" preserveAspectRatio="none" contentStyleType="text/css"><?plantuml 1.2026.8?><defs/><g font-family="sans-serif" lengthAdjust="spacing"><rect x="506.457" y="11.458" width="731.162" height="2156.95" fill="#F5F5F5" style="stroke:#181818;stroke-width:0.521;"/><text x="800.312" y="26.929" fill="#000" font-size="16.667" textLength="138.737" font-weight="700">FHIR-Directory</text><text x="939.049" y="27.666" fill="#000" font-size="13.542" font-weight="700"> </text><rect x="271.249" y="188.875" width="560.633" height="385.067" fill="none" style="stroke:#000;stroke-width:1.563;"/><rect x="291.041" y="358.594" width="514.8" height="200.765" fill="none" style="stroke:#000;stroke-width:1.563;"/><rect x="271.249" y="592.692" width="589.333" height="369.303" fill="none" style="stroke:#000;stroke-width:1.563;"/><rect x="291.041" y="746.647" width="514.8" height="200.765" fill="none" style="stroke:#000;stroke-width:1.563;"/><rect x="271.249" y="980.745" width="997.62" height="289.445" fill="none" style="stroke:#000;stroke-width:1.563;"/><rect x="291.041" y="1087.41" width="951.787" height="168.197" fill="none" style="stroke:#000;stroke-width:1.563;"/><rect x="271.249" y="1535.392" width="965.092" height="491.943" fill="none" style="stroke:#000;stroke-width:1.563;"/><rect x="291.041" y="1815.454" width="900.549" height="197.298" fill="none" style="stroke:#000;stroke-width:1.563;"/><g><title>Nutzer</title><rect x="34.142" y="114.502" width="8.333" height="1968.18" fill="#000" fill-opacity="0"/><line x1="37.788" y1="114.502" x2="37.788" y2="2082.682" style="stroke:#181818;stroke-width:0.521;stroke-dasharray:5.208,5.208;"/></g><g><title>FHIR-VZD-Client</title><rect x="304.061" y="114.502" width="8.333" height="1968.18" fill="#000" fill-opacity="0"/><line x1="307.707" y1="114.502" x2="307.707" y2="2082.682" style="stroke:#181818;stroke-width:0.521;stroke-dasharray:5.208,5.208;"/></g><g><title></title><rect x="302.499" y="176.375" width="10.417" height="1887.557" fill="#FFF" style="stroke:#181818;stroke-width:1.042;"/></g><g><title>FHIR-Proxy</title><rect x="554.281" y="114.502" width="8.333" height="1968.18" fill="#000" fill-opacity="0"/><line x1="557.927" y1="114.502" x2="557.927" y2="2082.682" style="stroke:#181818;stroke-width:0.521;stroke-dasharray:5.208,5.208;"/></g><g><title></title><rect x="552.719" y="302.205" width="10.417" height="248.82" fill="#FFF" style="stroke:#181818;stroke-width:1.042;"/></g><g><title></title><rect x="552.719" y="690.259" width="10.417" height="248.82" fill="#FFF" style="stroke:#181818;stroke-width:1.042;"/></g><g><title>FHIR-Directory</title><rect x="780.32" y="114.502" width="8.333" height="1968.18" fill="#000" fill-opacity="0"/><line x1="783.966" y1="114.502" x2="783.966" y2="2082.682" style="stroke:#181818;stroke-width:0.521;stroke-dasharray:5.208,5.208;"/></g><g><title></title><rect x="778.757" y="408.87" width="10.417" height="46.11" fill="#FFF" style="stroke:#181818;stroke-width:1.042;"/></g><g><title></title><rect x="778.757" y="796.924" width="10.417" height="46.11" fill="#FFF" style="stroke:#181818;stroke-width:1.042;"/></g><g><title>FHIR-VZD-Administration</title><rect x="984.632" y="114.502" width="8.333" height="1968.18" fill="#000" fill-opacity="0"/><line x1="988.278" y1="114.502" x2="988.278" y2="2082.682" style="stroke:#181818;stroke-width:0.521;stroke-dasharray:5.208,5.208;"/></g><g><title></title><rect x="983.07" y="1031.022" width="10.417" height="216.252" fill="#FFF" style="stroke:#181818;stroke-width:1.042;"/></g><g><title></title><rect x="983.07" y="1617.196" width="10.417" height="387.223" fill="#FFF" style="stroke:#181818;stroke-width:1.042;"/></g><text x="10.417" y="111.063" fill="#000" font-size="14.583" textLength="48.492">Nutzer</text><ellipse cx="37.788" cy="43.88" rx="8.333" ry="8.333" fill="#E3E3E3" style="stroke:#181818;stroke-width:0.521;"/><path d="M37.788,52.214 L37.788,80.339 M24.246,60.547 L51.33,60.547 M37.788,80.339 L24.246,95.964 M37.788,80.339 L51.33,95.964" style="stroke:#181818;stroke-width:0.521;" fill="none"/><rect x="241.552" y="81.901" width="132.311" height="31.559" fill="#E3E3E3" style="stroke:#181818;stroke-width:0.521;" rx="2.604" ry="2.604"/><text x="248.843" y="102.729" fill="#000" font-size="14.583" textLength="117.728">FHIR-VZD-Client</text><rect x="510.624" y="81.901" width="94.607" height="31.559" fill="#E3E3E3" style="stroke:#181818;stroke-width:0.521;" rx="2.604" ry="2.604"/><text x="517.915" y="102.729" fill="#000" font-size="14.583" textLength="80.023">FHIR-Proxy</text><rect x="723.382" y="81.901" width="121.167" height="31.559" fill="#E3E3E3" style="stroke:#181818;stroke-width:0.521;" rx="2.604" ry="2.604"/><text x="730.674" y="102.729" fill="#000" font-size="14.583" textLength="106.584">FHIR-Directory</text><rect x="889.748" y="81.901" width="197.06" height="31.559" fill="#E3E3E3" style="stroke:#181818;stroke-width:0.521;" rx="2.604" ry="2.604"/><text x="897.04" y="102.729" fill="#000" font-size="14.583" textLength="182.477">FHIR-VZD-Administration</text><text x="10.417" y="2096.219" fill="#000" font-size="14.583" textLength="48.492">Nutzer</text><ellipse cx="37.788" cy="2108.512" rx="8.333" ry="8.333" fill="#E3E3E3" style="stroke:#181818;stroke-width:0.521;"/><path d="M37.788,2116.846 L37.788,2144.971 M24.246,2125.179 L51.33,2125.179 M37.788,2144.971 L24.246,2160.596 M37.788,2144.971 L51.33,2160.596" style="stroke:#181818;stroke-width:0.521;" fill="none"/><rect x="241.552" y="2082.682" width="132.311" height="31.559" fill="#E3E3E3" style="stroke:#181818;stroke-width:0.521;" rx="2.604" ry="2.604"/><text x="248.843" y="2103.511" fill="#000" font-size="14.583" textLength="117.728">FHIR-VZD-Client</text><rect x="510.624" y="2082.682" width="94.607" height="31.559" fill="#E3E3E3" style="stroke:#181818;stroke-width:0.521;" rx="2.604" ry="2.604"/><text x="517.915" y="2103.511" fill="#000" font-size="14.583" textLength="80.023">FHIR-Proxy</text><rect x="723.382" y="2082.682" width="121.167" height="31.559" fill="#E3E3E3" style="stroke:#181818;stroke-width:0.521;" rx="2.604" ry="2.604"/><text x="730.674" y="2103.511" fill="#000" font-size="14.583" textLength="106.584">FHIR-Directory</text><rect x="889.748" y="2082.682" width="197.06" height="31.559" fill="#E3E3E3" style="stroke:#181818;stroke-width:0.521;" rx="2.604" ry="2.604"/><text x="897.04" y="2103.511" fill="#000" font-size="14.583" textLength="182.477">FHIR-VZD-Administration</text><polygon points="289.999,172.209,300.416,176.375,289.999,180.542,294.166,176.375" fill="#181818" style="stroke:#181818;stroke-width:1.042;stroke-linejoin:miter;stroke-miterlimit:10;"/><line x1="37.788" y1="176.375" x2="296.249" y2="176.375" style="stroke:#181818;stroke-width:1.042;"/><text x="45.08" y="155.335" fill="#000" font-size="13.542" textLength="31.223" font-weight="700">[01]</text><text x="80.469" y="139.572" fill="#000" font-size="13.542" textLength="33.081">Start</text><text x="113.549" y="139.572" fill="#000" font-size="13.542"> </text><text x="117.854" y="139.572" fill="#000" font-size="13.542" textLength="132.368">Verlinkungsanfrage</text><text x="80.469" y="155.335" fill="#000" font-size="13.542" textLength="22.263">mit</text><text x="102.732" y="155.335" fill="#000" font-size="13.542"> </text><text x="107.036" y="155.335" fill="#000" font-size="13.542" textLength="41.537">Suche</text><text x="148.574" y="155.335" fill="#000" font-size="13.542"> </text><text x="152.878" y="155.335" fill="#000" font-size="13.542" textLength="32.909">nach</text><text x="185.787" y="155.335" fill="#000" font-size="13.542"> </text><text x="190.091" y="155.335" fill="#000" font-size="13.542" textLength="22.495">der</text><text x="212.586" y="155.335" fill="#000" font-size="13.542"> </text><text x="216.89" y="155.335" fill="#000" font-size="13.542" textLength="15.691">zu</text><text x="80.469" y="171.098" fill="#000" font-size="13.542" textLength="88.285">verlinkenden</text><text x="168.754" y="171.098" fill="#000" font-size="13.542"> </text><text x="173.059" y="171.098" fill="#000" font-size="13.542" textLength="78.645">Ressourcen</text><path d="M271.249,188.875 L782.091,188.875 L782.091,196.305 L771.675,206.722 L271.249,206.722 L271.249,188.875" style="stroke:#000;stroke-width:1.563;" fill="#EEE"/><rect x="271.249" y="188.875" width="560.633" height="385.067" fill="none" style="stroke:#000;stroke-width:1.563;"/><text x="286.874" y="202.487" fill="#000" font-size="13.542" textLength="463.967" font-weight="700">Suche aller eigenen Ressourcen, die verlinkt werden können</text><polygon points="540.219,298.039,550.635,302.205,540.219,306.372,544.385,302.205" fill="#181818" style="stroke:#181818;stroke-width:1.042;stroke-linejoin:miter;stroke-miterlimit:10;"/><line x1="312.916" y1="302.205" x2="546.469" y2="302.205" style="stroke:#181818;stroke-width:1.042;"/><text x="320.207" y="265.402" fill="#000" font-size="13.542" textLength="31.223" font-weight="700">[02]</text><text x="355.596" y="233.875" fill="#000" font-size="13.542" textLength="27.321">GET</text><text x="382.918" y="233.875" fill="#000" font-size="13.542"> </text><text x="387.222" y="233.875" fill="#000" font-size="13.542" textLength="66.505">/owner?...</text><text x="453.727" y="233.875" fill="#000" font-size="13.542"> </text><text x="458.032" y="233.875" fill="#000" font-size="13.542" textLength="46.821">(Suche</text><text x="504.852" y="233.875" fill="#000" font-size="13.542"> </text><text x="509.157" y="233.875" fill="#000" font-size="13.542" textLength="24.154">alle</text><text x="355.596" y="249.638" fill="#000" font-size="13.542" textLength="54.517">eigenen</text><text x="410.114" y="249.638" fill="#000" font-size="13.542"> </text><text x="414.418" y="249.638" fill="#000" font-size="13.542" textLength="124.156">HealthcareService</text><text x="355.596" y="265.402" fill="#000" font-size="13.542" textLength="30.78">oder</text><text x="386.376" y="265.402" fill="#000" font-size="13.542"> </text><text x="390.68" y="265.402" fill="#000" font-size="13.542" textLength="108.175">PractitionerRole</text><text x="355.596" y="281.165" fill="#000" font-size="13.542" textLength="22.263">mit</text><text x="377.859" y="281.165" fill="#000" font-size="13.542"> </text><text x="382.164" y="281.165" fill="#000" font-size="13.542" textLength="78.559">telematikID</text><text x="460.723" y="281.165" fill="#000" font-size="13.542"> </text><text x="465.027" y="281.165" fill="#000" font-size="13.542" textLength="23.936">aus</text><text x="488.963" y="281.165" fill="#000" font-size="13.542"> </text><text x="493.268" y="281.165" fill="#000" font-size="13.542" textLength="30.118">dem</text><text x="355.596" y="296.928" fill="#000" font-size="13.542" textLength="89.264">accesstoken)</text><line x1="563.135" y1="332.552" x2="606.885" y2="332.552" style="stroke:#181818;stroke-width:1.042;"/><line x1="606.885" y1="332.552" x2="606.885" y2="346.094" style="stroke:#181818;stroke-width:1.042;"/><line x1="564.177" y1="346.094" x2="606.885" y2="346.094" style="stroke:#181818;stroke-width:1.042;"/><polygon points="574.594,341.927,564.177,346.094,574.594,350.26,570.427,346.094" fill="#181818" style="stroke:#181818;stroke-width:1.042;stroke-linejoin:miter;stroke-miterlimit:10;"/><text x="570.427" y="327.275" fill="#000" font-size="13.542" textLength="31.223" font-weight="700">[03]</text><text x="605.816" y="327.275" fill="#000" font-size="13.542" textLength="35.844">prüfe</text><text x="641.661" y="327.275" fill="#000" font-size="13.542"> </text><text x="645.965" y="327.275" fill="#000" font-size="13.542" textLength="130.709">owner-accesstoken</text><path d="M291.041,358.594 L358.169,358.594 L358.169,366.024 L347.752,376.44 L291.041,376.44 L291.041,358.594" style="stroke:#000;stroke-width:1.563;" fill="#EEE"/><rect x="291.041" y="358.594" width="514.8" height="200.765" fill="none" style="stroke:#000;stroke-width:1.563;"/><text x="306.666" y="372.205" fill="#000" font-size="13.542" textLength="20.253" font-weight="700">alt</text><text x="373.794" y="371.313" fill="#000" font-size="11.458" textLength="140.085" font-weight="700">[accesstoken is valid]</text><polygon points="766.257,404.704,776.674,408.87,766.257,413.037,770.424,408.87" fill="#181818" style="stroke:#181818;stroke-width:1.042;stroke-linejoin:miter;stroke-miterlimit:10;"/><line x1="563.135" y1="408.87" x2="772.507" y2="408.87" style="stroke:#181818;stroke-width:1.042;"/><text x="570.427" y="403.593" fill="#000" font-size="13.542" textLength="31.223" font-weight="700">[04]</text><text x="605.816" y="403.593" fill="#000" font-size="13.542" textLength="27.321">GET</text><text x="633.138" y="403.593" fill="#000" font-size="13.542"> </text><text x="637.442" y="403.593" fill="#000" font-size="13.542" textLength="24.663">/?...</text><polygon points="574.594,450.814,564.177,454.98,574.594,459.147,570.427,454.98" fill="#181818" style="stroke:#181818;stroke-width:1.042;stroke-linejoin:miter;stroke-miterlimit:10;"/><line x1="568.344" y1="454.98" x2="777.716" y2="454.98" style="stroke:#181818;stroke-width:1.042;stroke-dasharray:2.083,2.083;"/><text x="580.844" y="441.822" fill="#000" font-size="13.542" textLength="31.223" font-weight="700">[05]</text><text x="616.233" y="433.94" fill="#000" font-size="13.542" textLength="34.892">HTTP</text><text x="651.125" y="433.94" fill="#000" font-size="13.542"> </text><text x="655.43" y="433.94" fill="#000" font-size="13.542" textLength="25.847">200</text><text x="681.276" y="433.94" fill="#000" font-size="13.542"> </text><text x="685.581" y="433.94" fill="#000" font-size="13.542" textLength="19.539">OK</text><text x="616.233" y="449.703" fill="#000" font-size="13.542" textLength="47.733">(Result</text><text x="663.966" y="449.703" fill="#000" font-size="13.542"> </text><text x="668.27" y="449.703" fill="#000" font-size="13.542" textLength="34.185">Body</text><text x="702.455" y="449.703" fill="#000" font-size="13.542"> </text><text x="706.76" y="449.703" fill="#000" font-size="13.542" textLength="32.968">json)</text><polygon points="324.374,496.924,313.957,501.09,324.374,505.257,320.207,501.09" fill="#181818" style="stroke:#181818;stroke-width:1.042;stroke-linejoin:miter;stroke-miterlimit:10;"/><line x1="318.124" y1="501.09" x2="551.677" y2="501.09" style="stroke:#181818;stroke-width:1.042;stroke-dasharray:2.083,2.083;"/><text x="330.624" y="487.932" fill="#000" font-size="13.542" textLength="31.223" font-weight="700">[06]</text><text x="366.013" y="480.05" fill="#000" font-size="13.542" textLength="34.892">HTTP</text><text x="400.905" y="480.05" fill="#000" font-size="13.542"> </text><text x="405.21" y="480.05" fill="#000" font-size="13.542" textLength="25.847">200</text><text x="431.057" y="480.05" fill="#000" font-size="13.542"> </text><text x="435.361" y="480.05" fill="#000" font-size="13.542" textLength="19.539">OK</text><text x="454.9" y="480.05" fill="#000" font-size="13.542"> </text><text x="459.205" y="480.05" fill="#000" font-size="13.542" textLength="47.733">(Result</text><text x="506.938" y="480.05" fill="#000" font-size="13.542"> </text><text x="511.242" y="480.05" fill="#000" font-size="13.542" textLength="34.185">Body</text><text x="366.013" y="495.813" fill="#000" font-size="13.542" textLength="32.968">json)</text><line x1="291.041" y1="510.465" x2="805.841" y2="510.465" style="stroke:#000;stroke-width:1.042;stroke-dasharray:2.083,2.083;"/><text x="296.249" y="523.185" fill="#000" font-size="11.458" textLength="199.849" font-weight="700">[search-accesstoken is invalid]</text><polygon points="324.374,546.859,313.957,551.025,324.374,555.192,320.207,551.025" fill="#181818" style="stroke:#181818;stroke-width:1.042;stroke-linejoin:miter;stroke-miterlimit:10;"/><line x1="318.124" y1="551.025" x2="551.677" y2="551.025" style="stroke:#181818;stroke-width:1.042;stroke-dasharray:2.083,2.083;"/><text x="330.624" y="545.748" fill="#000" font-size="13.542" textLength="31.223" font-weight="700">[07]</text><text x="366.013" y="545.748" fill="#000" font-size="13.542" textLength="34.892">HTTP</text><text x="400.905" y="545.748" fill="#000" font-size="13.542"> </text><text x="405.21" y="545.748" fill="#000" font-size="13.542" textLength="25.847">401</text><path d="M271.249,592.692 L843.915,592.692 L843.915,600.122 L833.498,610.539 L271.249,610.539 L271.249,592.692" style="stroke:#000;stroke-width:1.563;" fill="#EEE"/><rect x="271.249" y="592.692" width="589.333" height="369.303" fill="none" style="stroke:#000;stroke-width:1.563;"/><text x="286.874" y="606.303" fill="#000" font-size="13.542" textLength="525.791" font-weight="700">Suche der Ressourcen, mit denen die Verlinkung erstellt werden soll</text><polygon points="540.219,686.092,550.635,690.259,540.219,694.425,544.385,690.259" fill="#181818" style="stroke:#181818;stroke-width:1.042;stroke-linejoin:miter;stroke-miterlimit:10;"/><line x1="312.916" y1="690.259" x2="546.469" y2="690.259" style="stroke:#181818;stroke-width:1.042;"/><text x="320.207" y="661.337" fill="#000" font-size="13.542" textLength="31.223" font-weight="700">[08]</text><text x="355.596" y="637.692" fill="#000" font-size="13.542" textLength="27.321">GET</text><text x="382.918" y="637.692" fill="#000" font-size="13.542"> </text><text x="387.222" y="637.692" fill="#000" font-size="13.542" textLength="66.505">/owner?...</text><text x="453.727" y="637.692" fill="#000" font-size="13.542"> </text><text x="458.032" y="637.692" fill="#000" font-size="13.542" textLength="26.039">(Mit</text><text x="484.07" y="637.692" fill="#000" font-size="13.542"> </text><text x="488.375" y="637.692" fill="#000" font-size="13.542" textLength="45.029">Nutzer</text><text x="355.596" y="653.455" fill="#000" font-size="13.542" textLength="72.079">Suchstring</text><text x="427.675" y="653.455" fill="#000" font-size="13.542"> </text><text x="431.98" y="653.455" fill="#000" font-size="13.542" textLength="18.917">für</text><text x="355.596" y="669.218" fill="#000" font-size="13.542" textLength="124.156">HealthcareService</text><text x="479.753" y="669.218" fill="#000" font-size="13.542"> </text><text x="484.057" y="669.218" fill="#000" font-size="13.542" textLength="30.78">oder</text><text x="355.596" y="684.982" fill="#000" font-size="13.542" textLength="113.458">PractitionerRole)</text><line x1="563.135" y1="720.605" x2="606.885" y2="720.605" style="stroke:#181818;stroke-width:1.042;"/><line x1="606.885" y1="720.605" x2="606.885" y2="734.147" style="stroke:#181818;stroke-width:1.042;"/><line x1="564.177" y1="734.147" x2="606.885" y2="734.147" style="stroke:#181818;stroke-width:1.042;"/><polygon points="574.594,729.98,564.177,734.147,574.594,738.314,570.427,734.147" fill="#181818" style="stroke:#181818;stroke-width:1.042;stroke-linejoin:miter;stroke-miterlimit:10;"/><text x="570.427" y="715.328" fill="#000" font-size="13.542" textLength="31.223" font-weight="700">[09]</text><text x="605.816" y="715.328" fill="#000" font-size="13.542" textLength="35.844">prüfe</text><text x="641.661" y="715.328" fill="#000" font-size="13.542"> </text><text x="645.965" y="715.328" fill="#000" font-size="13.542" textLength="130.709">owner-accesstoken</text><path d="M291.041,746.647 L358.169,746.647 L358.169,754.077 L347.752,764.494 L291.041,764.494 L291.041,746.647" style="stroke:#000;stroke-width:1.563;" fill="#EEE"/><rect x="291.041" y="746.647" width="514.8" height="200.765" fill="none" style="stroke:#000;stroke-width:1.563;"/><text x="306.666" y="760.258" fill="#000" font-size="13.542" textLength="20.253" font-weight="700">alt</text><text x="373.794" y="759.366" fill="#000" font-size="11.458" textLength="140.085" font-weight="700">[accesstoken is valid]</text><polygon points="766.257,792.757,776.674,796.924,766.257,801.09,770.424,796.924" fill="#181818" style="stroke:#181818;stroke-width:1.042;stroke-linejoin:miter;stroke-miterlimit:10;"/><line x1="563.135" y1="796.924" x2="772.507" y2="796.924" style="stroke:#181818;stroke-width:1.042;"/><text x="570.427" y="791.647" fill="#000" font-size="13.542" textLength="31.223" font-weight="700">[10]</text><text x="605.816" y="791.647" fill="#000" font-size="13.542" textLength="27.321">GET</text><text x="633.138" y="791.647" fill="#000" font-size="13.542"> </text><text x="637.442" y="791.647" fill="#000" font-size="13.542" textLength="24.663">/?...</text><polygon points="574.594,838.867,564.177,843.034,574.594,847.201,570.427,843.034" fill="#181818" style="stroke:#181818;stroke-width:1.042;stroke-linejoin:miter;stroke-miterlimit:10;"/><line x1="568.344" y1="843.034" x2="777.716" y2="843.034" style="stroke:#181818;stroke-width:1.042;stroke-dasharray:2.083,2.083;"/><text x="580.844" y="829.875" fill="#000" font-size="13.542" textLength="31.223" font-weight="700">[11]</text><text x="616.233" y="821.994" fill="#000" font-size="13.542" textLength="34.892">HTTP</text><text x="651.125" y="821.994" fill="#000" font-size="13.542"> </text><text x="655.43" y="821.994" fill="#000" font-size="13.542" textLength="25.847">200</text><text x="681.276" y="821.994" fill="#000" font-size="13.542"> </text><text x="685.581" y="821.994" fill="#000" font-size="13.542" textLength="19.539">OK</text><text x="616.233" y="837.757" fill="#000" font-size="13.542" textLength="47.733">(Result</text><text x="663.966" y="837.757" fill="#000" font-size="13.542"> </text><text x="668.27" y="837.757" fill="#000" font-size="13.542" textLength="34.185">Body</text><text x="702.455" y="837.757" fill="#000" font-size="13.542"> </text><text x="706.76" y="837.757" fill="#000" font-size="13.542" textLength="32.968">json)</text><polygon points="324.374,884.977,313.957,889.144,324.374,893.311,320.207,889.144" fill="#181818" style="stroke:#181818;stroke-width:1.042;stroke-linejoin:miter;stroke-miterlimit:10;"/><line x1="318.124" y1="889.144" x2="551.677" y2="889.144" style="stroke:#181818;stroke-width:1.042;stroke-dasharray:2.083,2.083;"/><text x="330.624" y="875.985" fill="#000" font-size="13.542" textLength="31.223" font-weight="700">[12]</text><text x="366.013" y="868.104" fill="#000" font-size="13.542" textLength="34.892">HTTP</text><text x="400.905" y="868.104" fill="#000" font-size="13.542"> </text><text x="405.21" y="868.104" fill="#000" font-size="13.542" textLength="25.847">200</text><text x="431.057" y="868.104" fill="#000" font-size="13.542"> </text><text x="435.361" y="868.104" fill="#000" font-size="13.542" textLength="19.539">OK</text><text x="454.9" y="868.104" fill="#000" font-size="13.542"> </text><text x="459.205" y="868.104" fill="#000" font-size="13.542" textLength="47.733">(Result</text><text x="506.938" y="868.104" fill="#000" font-size="13.542"> </text><text x="511.242" y="868.104" fill="#000" font-size="13.542" textLength="34.185">Body</text><text x="366.013" y="883.867" fill="#000" font-size="13.542" textLength="32.968">json)</text><line x1="291.041" y1="898.519" x2="805.841" y2="898.519" style="stroke:#000;stroke-width:1.042;stroke-dasharray:2.083,2.083;"/><text x="296.249" y="911.238" fill="#000" font-size="11.458" textLength="199.849" font-weight="700">[search-accesstoken is invalid]</text><polygon points="324.374,934.912,313.957,939.079,324.374,943.245,320.207,939.079" fill="#181818" style="stroke:#181818;stroke-width:1.042;stroke-linejoin:miter;stroke-miterlimit:10;"/><line x1="318.124" y1="939.079" x2="551.677" y2="939.079" style="stroke:#181818;stroke-width:1.042;stroke-dasharray:2.083,2.083;"/><text x="330.624" y="933.802" fill="#000" font-size="13.542" textLength="31.223" font-weight="700">[13]</text><text x="366.013" y="933.802" fill="#000" font-size="13.542" textLength="34.892">HTTP</text><text x="400.905" y="933.802" fill="#000" font-size="13.542"> </text><text x="405.21" y="933.802" fill="#000" font-size="13.542" textLength="25.847">401</text><path d="M271.249,980.745 L630.938,980.745 L630.938,988.175 L620.521,998.592 L271.249,998.592 L271.249,980.745" style="stroke:#000;stroke-width:1.563;" fill="#EEE"/><rect x="271.249" y="980.745" width="997.62" height="289.445" fill="none" style="stroke:#000;stroke-width:1.563;"/><text x="286.874" y="994.357" fill="#000" font-size="13.542" textLength="312.814" font-weight="700">Lese alle vorhandenen Verlinkungsdaten</text><polygon points="970.57,1026.855,980.987,1031.022,970.57,1035.189,974.737,1031.022" fill="#181818" style="stroke:#181818;stroke-width:1.042;stroke-linejoin:miter;stroke-miterlimit:10;"/><line x1="312.916" y1="1031.022" x2="976.82" y2="1031.022" style="stroke:#181818;stroke-width:1.042;"/><text x="320.207" y="1025.745" fill="#000" font-size="13.542" textLength="31.223" font-weight="700">[14]</text><text x="355.596" y="1025.745" fill="#000" font-size="13.542" textLength="171.545">getPersonInstitutionLinks</text><text x="527.142" y="1025.745" fill="#000" font-size="13.542"> </text><text x="531.446" y="1025.745" fill="#000" font-size="13.542" textLength="17.231">{}</text><line x1="993.487" y1="1061.369" x2="1037.237" y2="1061.369" style="stroke:#181818;stroke-width:1.042;"/><line x1="1037.237" y1="1061.369" x2="1037.237" y2="1074.91" style="stroke:#181818;stroke-width:1.042;"/><line x1="994.528" y1="1074.91" x2="1037.237" y2="1074.91" style="stroke:#181818;stroke-width:1.042;"/><polygon points="1004.945,1070.744,994.528,1074.91,1004.945,1079.077,1000.778,1074.91" fill="#181818" style="stroke:#181818;stroke-width:1.042;stroke-linejoin:miter;stroke-miterlimit:10;"/><text x="1000.778" y="1056.092" fill="#000" font-size="13.542" textLength="31.223" font-weight="700">[15]</text><text x="1036.167" y="1056.092" fill="#000" font-size="13.542" textLength="35.844">prüfe</text><text x="1072.012" y="1056.092" fill="#000" font-size="13.542"> </text><text x="1076.316" y="1056.092" fill="#000" font-size="13.542" textLength="130.709">owner-accesstoken</text><path d="M291.041,1087.41 L358.169,1087.41 L358.169,1094.84 L347.752,1105.257 L291.041,1105.257 L291.041,1087.41" style="stroke:#000;stroke-width:1.563;" fill="#EEE"/><rect x="291.041" y="1087.41" width="951.787" height="168.197" fill="none" style="stroke:#000;stroke-width:1.563;"/><text x="306.666" y="1101.022" fill="#000" font-size="13.542" textLength="20.253" font-weight="700">alt</text><text x="373.794" y="1100.13" fill="#000" font-size="11.458" textLength="140.085" font-weight="700">[accesstoken is valid]</text><line x1="993.487" y1="1137.687" x2="1037.237" y2="1137.687" style="stroke:#181818;stroke-width:1.042;"/><line x1="1037.237" y1="1137.687" x2="1037.237" y2="1151.229" style="stroke:#181818;stroke-width:1.042;"/><line x1="994.528" y1="1151.229" x2="1037.237" y2="1151.229" style="stroke:#181818;stroke-width:1.042;"/><polygon points="1004.945,1147.062,994.528,1151.229,1004.945,1155.396,1000.778,1151.229" fill="#181818" style="stroke:#181818;stroke-width:1.042;stroke-linejoin:miter;stroke-miterlimit:10;"/><text x="1000.778" y="1132.41" fill="#000" font-size="13.542" textLength="31.223" font-weight="700">[16]</text><text x="1036.167" y="1132.41" fill="#000" font-size="13.542" textLength="39.845">Lesen</text><text x="1076.012" y="1132.41" fill="#000" font-size="13.542"> </text><text x="1080.317" y="1132.41" fill="#000" font-size="13.542" textLength="22.495">der</text><text x="1102.811" y="1132.41" fill="#000" font-size="13.542"> </text><text x="1107.116" y="1132.41" fill="#000" font-size="13.542" textLength="119.045">Verlinkungsdaten</text><polygon points="324.374,1193.172,313.957,1197.339,324.374,1201.506,320.207,1197.339" fill="#181818" style="stroke:#181818;stroke-width:1.042;stroke-linejoin:miter;stroke-miterlimit:10;"/><line x1="318.124" y1="1197.339" x2="982.028" y2="1197.339" style="stroke:#181818;stroke-width:1.042;stroke-dasharray:2.083,2.083;"/><text x="330.624" y="1184.18" fill="#000" font-size="13.542" textLength="31.223" font-weight="700">[17]</text><text x="366.013" y="1176.299" fill="#000" font-size="13.542" textLength="34.892">HTTP</text><text x="400.905" y="1176.299" fill="#000" font-size="13.542"> </text><text x="405.21" y="1176.299" fill="#000" font-size="13.542" textLength="25.847">200</text><text x="431.057" y="1176.299" fill="#000" font-size="13.542"> </text><text x="435.361" y="1176.299" fill="#000" font-size="13.542" textLength="19.539">OK</text><text x="366.013" y="1192.062" fill="#000" font-size="13.542" textLength="47.733">(Result</text><text x="413.746" y="1192.062" fill="#000" font-size="13.542"> </text><text x="418.051" y="1192.062" fill="#000" font-size="13.542" textLength="34.185">Body</text><text x="452.235" y="1192.062" fill="#000" font-size="13.542"> </text><text x="456.54" y="1192.062" fill="#000" font-size="13.542" textLength="32.968">json)</text><line x1="291.041" y1="1206.714" x2="1242.827" y2="1206.714" style="stroke:#000;stroke-width:1.042;stroke-dasharray:2.083,2.083;"/><text x="296.249" y="1219.433" fill="#000" font-size="11.458" textLength="196.962" font-weight="700">[owner-accesstoken is invalid]</text><polygon points="324.374,1243.107,313.957,1247.274,324.374,1251.44,320.207,1247.274" fill="#181818" style="stroke:#181818;stroke-width:1.042;stroke-linejoin:miter;stroke-miterlimit:10;"/><line x1="318.124" y1="1247.274" x2="982.028" y2="1247.274" style="stroke:#181818;stroke-width:1.042;stroke-dasharray:2.083,2.083;"/><text x="330.624" y="1241.997" fill="#000" font-size="13.542" textLength="31.223" font-weight="700">[18]</text><text x="366.013" y="1241.997" fill="#000" font-size="13.542" textLength="34.892">HTTP</text><text x="400.905" y="1241.997" fill="#000" font-size="13.542"> </text><text x="405.21" y="1241.997" fill="#000" font-size="13.542" textLength="25.847">401</text><polygon points="49.246,1381.437,38.83,1385.604,49.246,1389.771,45.08,1385.604" fill="#181818" style="stroke:#181818;stroke-width:1.042;stroke-linejoin:miter;stroke-miterlimit:10;"/><line x1="42.996" y1="1385.604" x2="301.457" y2="1385.604" style="stroke:#181818;stroke-width:1.042;stroke-dasharray:2.083,2.083;"/><text x="55.496" y="1340.918" fill="#000" font-size="13.542" textLength="31.223" font-weight="700">[19]</text><text x="90.885" y="1301.51" fill="#000" font-size="13.542" textLength="53.975">Anzeige</text><text x="144.86" y="1301.51" fill="#000" font-size="13.542"> </text><text x="149.165" y="1301.51" fill="#000" font-size="13.542" textLength="29.722">aller</text><text x="178.886" y="1301.51" fill="#000" font-size="13.542"> </text><text x="183.191" y="1301.51" fill="#000" font-size="13.542" textLength="54.517">eigenen</text><text x="237.708" y="1301.51" fill="#000" font-size="13.542"> </text><text x="242.013" y="1301.51" fill="#000" font-size="13.542" textLength="25.761">und</text><text x="90.885" y="1317.273" fill="#000" font-size="13.542" textLength="70.816">gesuchten</text><text x="161.701" y="1317.273" fill="#000" font-size="13.542"> </text><text x="166.006" y="1317.273" fill="#000" font-size="13.542" textLength="78.645">Ressourcen</text><text x="90.885" y="1333.037" fill="#000" font-size="13.542" textLength="129.439">(HealthcareService</text><text x="220.325" y="1333.037" fill="#000" font-size="13.542"> </text><text x="224.629" y="1333.037" fill="#000" font-size="13.542" textLength="25.761">und</text><text x="90.885" y="1348.8" fill="#000" font-size="13.542" textLength="113.458">PractitionerRole)</text><text x="90.885" y="1364.563" fill="#000" font-size="13.542" textLength="38.509">sowie</text><text x="129.395" y="1364.563" fill="#000" font-size="13.542"> </text><text x="133.699" y="1364.563" fill="#000" font-size="13.542" textLength="81.171">vorhandene</text><text x="90.885" y="1380.327" fill="#000" font-size="13.542" textLength="119.045">Verlinkungsdaten</text><line x1="37.788" y1="1431.714" x2="81.538" y2="1431.714" style="stroke:#181818;stroke-width:1.042;"/><line x1="81.538" y1="1431.714" x2="81.538" y2="1445.256" style="stroke:#181818;stroke-width:1.042;"/><line x1="38.83" y1="1445.256" x2="81.538" y2="1445.256" style="stroke:#181818;stroke-width:1.042;"/><polygon points="49.246,1441.089,38.83,1445.256,49.246,1449.422,45.08,1445.256" fill="#181818" style="stroke:#181818;stroke-width:1.042;stroke-linejoin:miter;stroke-miterlimit:10;"/><text x="45.08" y="1418.555" fill="#000" font-size="13.542" textLength="31.223" font-weight="700">[20]</text><text x="80.469" y="1410.674" fill="#000" font-size="13.542" textLength="56.62">Auswahl</text><text x="137.089" y="1410.674" fill="#000" font-size="13.542"> </text><text x="141.393" y="1410.674" fill="#000" font-size="13.542" textLength="22.495">der</text><text x="163.888" y="1410.674" fill="#000" font-size="13.542"> </text><text x="168.192" y="1410.674" fill="#000" font-size="13.542" textLength="15.691">zu</text><text x="183.883" y="1410.674" fill="#000" font-size="13.542"> </text><text x="188.187" y="1410.674" fill="#000" font-size="13.542" textLength="15.691">zu</text><text x="80.469" y="1426.437" fill="#000" font-size="13.542" textLength="88.285">verlinkenden</text><text x="168.754" y="1426.437" fill="#000" font-size="13.542"> </text><text x="173.059" y="1426.437" fill="#000" font-size="13.542" textLength="78.645">Ressourcen</text><polygon points="289.999,1518.726,300.416,1522.892,289.999,1527.059,294.166,1522.892" fill="#181818" style="stroke:#181818;stroke-width:1.042;stroke-linejoin:miter;stroke-miterlimit:10;"/><line x1="37.788" y1="1522.892" x2="296.249" y2="1522.892" style="stroke:#181818;stroke-width:1.042;"/><text x="45.08" y="1493.97" fill="#000" font-size="13.542" textLength="31.223" font-weight="700">[21]</text><text x="80.469" y="1470.325" fill="#000" font-size="13.542" textLength="132.368">Verlinkungsanfrage</text><text x="80.469" y="1486.089" fill="#000" font-size="13.542" textLength="22.263">mit</text><text x="102.732" y="1486.089" fill="#000" font-size="13.542"> </text><text x="107.036" y="1486.089" fill="#000" font-size="13.542" textLength="94.805">ausgewählten</text><text x="201.841" y="1486.089" fill="#000" font-size="13.542"> </text><text x="206.146" y="1486.089" fill="#000" font-size="13.542" textLength="78.645">Ressourcen</text><text x="80.469" y="1501.852" fill="#000" font-size="13.542" textLength="137.076">{HealthcareService,</text><text x="80.469" y="1517.615" fill="#000" font-size="13.542" textLength="116.79">PractitionerRole}</text><path d="M271.249,1535.392 L472.094,1535.392 L472.094,1542.822 L461.678,1553.239 L271.249,1553.239 L271.249,1535.392" style="stroke:#000;stroke-width:1.563;" fill="#EEE"/><rect x="271.249" y="1535.392" width="965.092" height="491.943" fill="none" style="stroke:#000;stroke-width:1.563;"/><text x="286.874" y="1549.004" fill="#000" font-size="13.542" textLength="153.97" font-weight="700">VerlinkungsRequest</text><polygon points="970.57,1613.029,980.987,1617.196,970.57,1621.362,974.737,1617.196" fill="#181818" style="stroke:#181818;stroke-width:1.042;stroke-linejoin:miter;stroke-miterlimit:10;"/><line x1="312.916" y1="1617.196" x2="976.82" y2="1617.196" style="stroke:#181818;stroke-width:1.042;"/><text x="320.207" y="1596.155" fill="#000" font-size="13.542" textLength="31.223" font-weight="700">[22]</text><text x="355.596" y="1580.392" fill="#000" font-size="13.542" textLength="195.779">suggestPersonInstitutionLink</text><text x="355.596" y="1596.155" fill="#000" font-size="13.542" textLength="137.076">{HealthcareService,</text><text x="355.596" y="1611.919" fill="#000" font-size="13.542" textLength="116.79">PractitionerRole}</text><line x1="993.487" y1="1789.412" x2="1037.237" y2="1789.412" style="stroke:#181818;stroke-width:1.042;"/><line x1="1037.237" y1="1789.412" x2="1037.237" y2="1802.954" style="stroke:#181818;stroke-width:1.042;"/><line x1="994.528" y1="1802.954" x2="1037.237" y2="1802.954" style="stroke:#181818;stroke-width:1.042;"/><polygon points="1004.945,1798.787,994.528,1802.954,1004.945,1807.121,1000.778,1802.954" fill="#181818" style="stroke:#181818;stroke-width:1.042;stroke-linejoin:miter;stroke-miterlimit:10;"/><text x="1000.778" y="1713.2" fill="#000" font-size="13.542" textLength="31.223" font-weight="700">[23]</text><text x="1036.167" y="1642.265" fill="#000" font-size="13.542" textLength="35.844">prüfe</text><text x="1072.012" y="1642.265" fill="#000" font-size="13.542"> </text><text x="1076.316" y="1642.265" fill="#000" font-size="13.542" textLength="130.709">owner-accesstoken</text><text x="1036.167" y="1658.029" fill="#000" font-size="13.542">&amp;</text><text x="1046.727" y="1658.029" fill="#000" font-size="13.542"> </text><text x="1051.031" y="1658.029" fill="#000" font-size="13.542" textLength="39.719">Prüfe,</text><text x="1090.751" y="1658.029" fill="#000" font-size="13.542"> </text><text x="1095.055" y="1658.029" fill="#000" font-size="13.542" textLength="31.004">dass</text><text x="1126.059" y="1658.029" fill="#000" font-size="13.542"> </text><text x="1130.364" y="1658.029" fill="#000" font-size="13.542" textLength="29.007">eine</text><text x="1159.371" y="1658.029" fill="#000" font-size="13.542"> </text><text x="1163.676" y="1658.029" fill="#000" font-size="13.542" textLength="22.495">der</text><text x="1036.167" y="1673.792" fill="#000" font-size="13.542" textLength="78.645">Ressourcen</text><text x="1036.167" y="1689.555" fill="#000" font-size="13.542" textLength="29.007">eine</text><text x="1065.175" y="1689.555" fill="#000" font-size="13.542"> </text><text x="1069.479" y="1689.555" fill="#000" font-size="13.542" textLength="45.935">eigene</text><text x="1115.414" y="1689.555" fill="#000" font-size="13.542"> </text><text x="1119.718" y="1689.555" fill="#000" font-size="13.542" textLength="70.062">Ressource</text><text x="1189.781" y="1689.555" fill="#000" font-size="13.542"> </text><text x="1194.085" y="1689.555" fill="#000" font-size="13.542" textLength="16.127">ist</text><text x="1036.167" y="1705.319" fill="#000" font-size="13.542">&amp;</text><text x="1046.727" y="1705.319" fill="#000" font-size="13.542"> </text><text x="1051.031" y="1705.319" fill="#000" font-size="13.542" textLength="39.719">Prüfe,</text><text x="1090.751" y="1705.319" fill="#000" font-size="13.542"> </text><text x="1095.055" y="1705.319" fill="#000" font-size="13.542" textLength="31.004">dass</text><text x="1126.059" y="1705.319" fill="#000" font-size="13.542"> </text><text x="1130.364" y="1705.319" fill="#000" font-size="13.542" textLength="29.007">eine</text><text x="1159.371" y="1705.319" fill="#000" font-size="13.542"> </text><text x="1163.676" y="1705.319" fill="#000" font-size="13.542" textLength="22.495">der</text><text x="1036.167" y="1721.082" fill="#000" font-size="13.542" textLength="78.645">Ressourcen</text><text x="1036.167" y="1736.845" fill="#000" font-size="13.542"> </text><text x="1040.472" y="1736.845" fill="#000" font-size="13.542" textLength="20.676">ein</text><text x="1061.148" y="1736.845" fill="#000" font-size="13.542"> </text><text x="1065.453" y="1736.845" fill="#000" font-size="13.542" textLength="124.156">HealthcareService</text><text x="1189.609" y="1736.845" fill="#000" font-size="13.542"> </text><text x="1193.913" y="1736.845" fill="#000" font-size="13.542" textLength="25.761">und</text><text x="1036.167" y="1752.609" fill="#000" font-size="13.542" textLength="20.689">die</text><text x="1056.857" y="1752.609" fill="#000" font-size="13.542"> </text><text x="1061.161" y="1752.609" fill="#000" font-size="13.542" textLength="47.707">andere</text><text x="1036.167" y="1768.372" fill="#000" font-size="13.542"> </text><text x="1040.472" y="1768.372" fill="#000" font-size="13.542" textLength="70.062">Ressource</text><text x="1110.534" y="1768.372" fill="#000" font-size="13.542"> </text><text x="1114.839" y="1768.372" fill="#000" font-size="13.542" textLength="29.007">eine</text><text x="1036.167" y="1784.135" fill="#000" font-size="13.542" textLength="108.175">PractitionerRole</text><text x="1144.342" y="1784.135" fill="#000" font-size="13.542"> </text><text x="1148.647" y="1784.135" fill="#000" font-size="13.542" textLength="20.432">ist.</text><path d="M291.041,1815.454 L358.169,1815.454 L358.169,1822.884 L347.752,1833.301 L291.041,1833.301 L291.041,1815.454" style="stroke:#000;stroke-width:1.563;" fill="#EEE"/><rect x="291.041" y="1815.454" width="900.549" height="197.298" fill="none" style="stroke:#000;stroke-width:1.563;"/><text x="306.666" y="1829.065" fill="#000" font-size="13.542" textLength="20.253" font-weight="700">alt</text><text x="373.794" y="1828.173" fill="#000" font-size="11.458" textLength="140.085" font-weight="700">[accesstoken is valid]</text><line x1="993.487" y1="1881.494" x2="1037.237" y2="1881.494" style="stroke:#181818;stroke-width:1.042;"/><line x1="1037.237" y1="1881.494" x2="1037.237" y2="1895.036" style="stroke:#181818;stroke-width:1.042;"/><line x1="994.528" y1="1895.036" x2="1037.237" y2="1895.036" style="stroke:#181818;stroke-width:1.042;"/><polygon points="1004.945,1890.869,994.528,1895.036,1004.945,1899.202,1000.778,1895.036" fill="#181818" style="stroke:#181818;stroke-width:1.042;stroke-linejoin:miter;stroke-miterlimit:10;"/><text x="1000.778" y="1868.335" fill="#000" font-size="13.542" textLength="31.223" font-weight="700">[24]</text><text x="1036.167" y="1860.454" fill="#000" font-size="13.542" textLength="65.586">Eintragen</text><text x="1101.753" y="1860.454" fill="#000" font-size="13.542"> </text><text x="1106.058" y="1860.454" fill="#000" font-size="13.542" textLength="23.982">des</text><text x="1036.167" y="1876.217" fill="#000" font-size="13.542" textLength="138.756">Verlinkungsrequests</text><polygon points="324.374,1936.979,313.957,1941.146,324.374,1945.313,320.207,1941.146" fill="#181818" style="stroke:#181818;stroke-width:1.042;stroke-linejoin:miter;stroke-miterlimit:10;"/><line x1="318.124" y1="1941.146" x2="982.028" y2="1941.146" style="stroke:#181818;stroke-width:1.042;stroke-dasharray:2.083,2.083;"/><text x="330.624" y="1927.987" fill="#000" font-size="13.542" textLength="31.223" font-weight="700">[25]</text><text x="366.013" y="1920.105" fill="#000" font-size="13.542" textLength="34.892">HTTP</text><text x="400.905" y="1920.105" fill="#000" font-size="13.542"> </text><text x="405.21" y="1920.105" fill="#000" font-size="13.542" textLength="25.847">200</text><text x="431.057" y="1920.105" fill="#000" font-size="13.542"> </text><text x="435.361" y="1920.105" fill="#000" font-size="13.542" textLength="19.539">OK</text><text x="366.013" y="1935.869" fill="#000" font-size="13.542" textLength="47.733">(Result</text><text x="413.746" y="1935.869" fill="#000" font-size="13.542"> </text><text x="418.051" y="1935.869" fill="#000" font-size="13.542" textLength="34.185">Body</text><text x="452.235" y="1935.869" fill="#000" font-size="13.542"> </text><text x="456.54" y="1935.869" fill="#000" font-size="13.542" textLength="32.968">json)</text><line x1="291.041" y1="1950.521" x2="1191.59" y2="1950.521" style="stroke:#000;stroke-width:1.042;stroke-dasharray:2.083,2.083;"/><text x="296.249" y="1963.24" fill="#000" font-size="11.458" textLength="191.726" font-weight="700">[owner-accesstoken is invalid</text><text x="296.249" y="1976.578" fill="#000" font-size="11.458" textLength="270.58" font-weight="700">oder keine eigene Ressource ausgewählt]</text><polygon points="324.374,2000.252,313.957,2004.419,324.374,2008.586,320.207,2004.419" fill="#181818" style="stroke:#181818;stroke-width:1.042;stroke-linejoin:miter;stroke-miterlimit:10;"/><line x1="318.124" y1="2004.419" x2="982.028" y2="2004.419" style="stroke:#181818;stroke-width:1.042;stroke-dasharray:2.083,2.083;"/><text x="330.624" y="1999.142" fill="#000" font-size="13.542" textLength="31.223" font-weight="700">[26]</text><text x="366.013" y="1999.142" fill="#000" font-size="13.542" textLength="34.892">HTTP</text><text x="400.905" y="1999.142" fill="#000" font-size="13.542"> </text><text x="405.21" y="1999.142" fill="#000" font-size="13.542" textLength="25.847">401</text><polygon points="49.246,2059.766,38.83,2063.932,49.246,2068.099,45.08,2063.932" fill="#181818" style="stroke:#181818;stroke-width:1.042;stroke-linejoin:miter;stroke-miterlimit:10;"/><line x1="42.996" y1="2063.932" x2="301.457" y2="2063.932" style="stroke:#181818;stroke-width:1.042;"/><text x="55.496" y="2058.655" fill="#000" font-size="13.542" textLength="31.223" font-weight="700">[27]</text><text x="90.885" y="2058.655" fill="#000" font-size="13.542" textLength="59.046">Ergebnis</text><text x="149.932" y="2058.655" fill="#000" font-size="13.542"> </text><text x="154.236" y="2058.655" fill="#000" font-size="13.542" textLength="132.368">Verlinkungsanfrage</text><?plantuml-src xLRDRXCn4BxxAKP1WY8r9KM8GrGL5LfeHO6ggQW4uU3kJdPDlEF5zYOqYBVX6JXnwuinJZR9RZQjWX0tSejtvfkVxnkFtL1HBgtC8CuLx7OwmYrEBgtCBrNiKtXSEyyCcIYr9aFmja0X2s-eoAxGGcllQlzZf_Ef9SG3hxn6QBqyFZbl7ogBaJVsUXjw-AL0ciHA9W5CAng23MVEFn0o6C7Rma_G2excLQHoIHuY3TALOEy_7BPVQ8NaM-BAV8KzfoROtNswNm-rzoYSxyEzorHvx6LcY0AW2Zh8bw1drdozRgqQn4k31Mx3IDPJEuWpHSfvAxqor198CN2QGipAWlO-LzFjUOQ0zsX30mfAdAI1bGb2dpBbeLT4AGB9A8MOVIO5Z6QcZ8O4v-YSAMo455gcHj8ZWmgHM5FafRFKcZrH9KWrZss85SxXF8pH1iJXpKzYEwwDMyqf3l8kl3gwW4TcJ6YVxUpimDOITm5xZ5BxD98MUsX7Aa8m8Typ6z8AzQCzDtfUbKUD6RTbU788id1SMWOoYZWrp-pGGuw-A6UGypzcgCmbjpU_1emUicbNV0HRiPVsLI1G3aPIgtZwSG4JboM5Qielot0BsnZQPSpZYukpe7ruzxfFMzp1WiCyD_4rV7PccctunRW699-2CCzL4BWD0xL3S2XjbBPNob2qMaWLzqbdTqqMUObASH1VNHM1dQeM0YtnbCgWYgKU0QrZklH28CveVQSwtZ1IAV4GYWT0CSpWvfTbzZVKoNy5_4i5dA8hntTaR2ffndlb3ehPkN85o2uawCzO2OPEo35HHQ3gbAqTVFjUuqe6hkJSxLQkDg5gWHBofQbYr-GuDsqs-GwcAirkvBQcrtAJNikLNeVciTTi5Be7D0btvSfjNF1EI3Z7AFMrkvadPQivAi6wCIbiwinOLRbijccvSifquA1mOvdg-LQvOx7KrjNjcuhlyGJ7DpzItIZbMwEKxKOTt-VYh0Gudpq7Qa9qHS8DMoz6s2pGdykrJ_SP9tpZfIcTO_vezGhbEgUdCsgN7rXEVXF_FeLJMCzwk9C3jnRxbTxEO1exbWFkY3-Ri2D5Fd0PfinLAIXVPEuV3rgVfcjWkBw35MdzzKGk9-389dZ53xGraXQY0iFlgTy0?></g></svg>