<?xml version="1.0" encoding="UTF-8" standalone="no"?><svg xmlns="http://www.w3.org/2000/svg" xmlns:xlink="http://www.w3.org/1999/xlink" contentScriptType="application/ecmascript" contentStyleType="text/css" height="463px" preserveAspectRatio="none" style="width:637px;height:463px;background:#FFFFFF;" version="1.1" viewBox="0 0 637 463" width="637px" zoomAndPan="magnify"><defs><filter height="300%" id="f1hno2877cwv09" width="300%" x="-1" y="-1"><feGaussianBlur result="blurOut" stdDeviation="2.0"/><feColorMatrix in="blurOut" result="blurOut2" type="matrix" values="0 0 0 0 0 0 0 0 0 0 0 0 0 0 0 0 0 0 .4 0"/><feOffset dx="4.0" dy="4.0" in="blurOut2" result="blurOut3"/><feBlend in="SourceGraphic" in2="blurOut3" mode="normal"/></filter></defs><g><!--MD5=[4fd3bb6c1d79f4919f90c95b62a35422]
class Endpoint--><rect codeLine="2" fill="#F8F8F8" filter="url(#f1hno2877cwv09)" height="137.6328" id="Endpoint" style="stroke:#383838;stroke-width:1.5;" width="198" x="7" y="298.5"/><ellipse cx="73.75" cy="314.5" fill="#C2C2C2" rx="11" ry="11" style="stroke:#383838;stroke-width:1.0;"/><path d="M76.7188,320.1406 Q76.1406,320.4375 75.5,320.5781 Q74.8594,320.7344 74.1563,320.7344 Q71.6563,320.7344 70.3281,319.0938 Q69.0156,317.4375 69.0156,314.3125 Q69.0156,311.1875 70.3281,309.5313 Q71.6563,307.875 74.1563,307.875 Q74.8594,307.875 75.5,308.0313 Q76.1563,308.1875 76.7188,308.4844 L76.7188,311.2031 Q76.0938,310.625 75.5,310.3594 Q74.9063,310.0781 74.2813,310.0781 Q72.9375,310.0781 72.25,311.1563 Q71.5625,312.2188 71.5625,314.3125 Q71.5625,316.4063 72.25,317.4844 Q72.9375,318.5469 74.2813,318.5469 Q74.9063,318.5469 75.5,318.2813 Q76.0938,318 76.7188,317.4219 L76.7188,320.1406 Z " fill="#000000"/><text fill="#000000" font-family="sans-serif" font-size="12" lengthAdjust="spacing" textLength="56" x="94.25" y="318.6543">Endpoint</text><line style="stroke:#383838;stroke-width:1.5;" x1="8" x2="204" y1="330.5" y2="330.5"/><text fill="#000000" font-family="sans-serif" font-size="11" lengthAdjust="spacing" textLength="144" x="13" y="344.7104">identifier (1..*, MS, LDAP)</text><text fill="#000000" font-family="sans-serif" font-size="11" lengthAdjust="spacing" textLength="94" x="13" y="357.5151">status (0..*, MS)</text><text fill="#000000" font-family="sans-serif" font-size="11" lengthAdjust="spacing" textLength="146" x="13" y="370.3198">connectionType (0..*, MS)</text><text fill="#000000" font-family="sans-serif" font-size="11" lengthAdjust="spacing" textLength="91" x="13" y="383.1245">name (0..1, MS)</text><text fill="#000000" font-family="sans-serif" font-size="11" lengthAdjust="spacing" textLength="186" x="13" y="395.9292">managingOrganization (0..1, MS)</text><text fill="#000000" font-family="sans-serif" font-size="11" lengthAdjust="spacing" textLength="129" x="13" y="408.7339">payloadType (1..*, MS)</text><text fill="#000000" font-family="sans-serif" font-size="11" lengthAdjust="spacing" textLength="106" x="13" y="421.5386">address (1..1, MS)</text><line style="stroke:#383838;stroke-width:1.5;" x1="8" x2="204" y1="428.1328" y2="428.1328"/><!--MD5=[4f1f3706c1a355a8488e154afcaed5df]
class Location--><rect codeLine="11" fill="#F8F8F8" filter="url(#f1hno2877cwv09)" height="163.2422" id="Location" style="stroke:#383838;stroke-width:1.5;" width="191" x="240.5" y="286"/><ellipse cx="305.25" cy="302" fill="#C2C2C2" rx="11" ry="11" style="stroke:#383838;stroke-width:1.0;"/><path d="M308.2188,307.6406 Q307.6406,307.9375 307,308.0781 Q306.3594,308.2344 305.6563,308.2344 Q303.1563,308.2344 301.8281,306.5938 Q300.5156,304.9375 300.5156,301.8125 Q300.5156,298.6875 301.8281,297.0313 Q303.1563,295.375 305.6563,295.375 Q306.3594,295.375 307,295.5313 Q307.6563,295.6875 308.2188,295.9844 L308.2188,298.7031 Q307.5938,298.125 307,297.8594 Q306.4063,297.5781 305.7813,297.5781 Q304.4375,297.5781 303.75,298.6563 Q303.0625,299.7188 303.0625,301.8125 Q303.0625,303.9063 303.75,304.9844 Q304.4375,306.0469 305.7813,306.0469 Q306.4063,306.0469 307,305.7813 Q307.5938,305.5 308.2188,304.9219 L308.2188,307.6406 Z " fill="#000000"/><text fill="#000000" font-family="sans-serif" font-size="12" lengthAdjust="spacing" textLength="53" x="325.75" y="306.1543">Location</text><line style="stroke:#383838;stroke-width:1.5;" x1="241.5" x2="430.5" y1="318" y2="318"/><text fill="#000000" font-family="sans-serif" font-size="11" lengthAdjust="spacing" textLength="144" x="246.5" y="332.2104">identifier (1..*, MS, LDAP)</text><text fill="#000000" font-family="sans-serif" font-size="11" lengthAdjust="spacing" textLength="94" x="246.5" y="345.0151">status (0..*, MS)</text><text fill="#000000" font-family="sans-serif" font-size="11" lengthAdjust="spacing" textLength="91" x="246.5" y="357.8198">name (0..1, MS)</text><text fill="#000000" font-family="sans-serif" font-size="11" lengthAdjust="spacing" textLength="122" x="246.5" y="370.6245">description (0..1, MS)</text><text fill="#000000" font-family="sans-serif" font-size="11" lengthAdjust="spacing" textLength="103" x="246.5" y="383.4292">telecom (0..*, MS)</text><text fill="#000000" font-family="sans-serif" font-size="11" lengthAdjust="spacing" textLength="106" x="246.5" y="396.2339">address (0..1, MS)</text><text fill="#000000" font-family="sans-serif" font-size="11" lengthAdjust="spacing" textLength="104" x="246.5" y="409.0386">position (0..1, MS)</text><text fill="#000000" font-family="sans-serif" font-size="11" lengthAdjust="spacing" textLength="160" x="246.5" y="421.8433">hoursOfOperation (0..*, MS)</text><text fill="#000000" font-family="sans-serif" font-size="11" lengthAdjust="spacing" textLength="179" x="246.5" y="434.6479">availabilityExceptions (0..1, MS)</text><line style="stroke:#383838;stroke-width:1.5;" x1="241.5" x2="430.5" y1="441.2422" y2="441.2422"/><!--MD5=[e7f1f8ff98ca4645da414d6b6c370369]
class HealthcareService--><rect codeLine="22" fill="#F8F8F8" filter="url(#f1hno2877cwv09)" height="201.6563" id="HealthcareService" style="stroke:#383838;stroke-width:1.5;" width="277" x="197.5" y="7"/><ellipse cx="274.75" cy="23" fill="#C2C2C2" rx="11" ry="11" style="stroke:#383838;stroke-width:1.0;"/><path d="M277.7188,28.6406 Q277.1406,28.9375 276.5,29.0781 Q275.8594,29.2344 275.1563,29.2344 Q272.6563,29.2344 271.3281,27.5938 Q270.0156,25.9375 270.0156,22.8125 Q270.0156,19.6875 271.3281,18.0313 Q272.6563,16.375 275.1563,16.375 Q275.8594,16.375 276.5,16.5313 Q277.1563,16.6875 277.7188,16.9844 L277.7188,19.7031 Q277.0938,19.125 276.5,18.8594 Q275.9063,18.5781 275.2813,18.5781 Q273.9375,18.5781 273.25,19.6563 Q272.5625,20.7188 272.5625,22.8125 Q272.5625,24.9063 273.25,25.9844 Q273.9375,27.0469 275.2813,27.0469 Q275.9063,27.0469 276.5,26.7813 Q277.0938,26.5 277.7188,25.9219 L277.7188,28.6406 Z " fill="#000000"/><text fill="#000000" font-family="sans-serif" font-size="12" lengthAdjust="spacing" textLength="114" x="295.25" y="27.1543">HealthcareService</text><line style="stroke:#383838;stroke-width:1.5;" x1="198.5" x2="473.5" y1="39" y2="39"/><text fill="#000000" font-family="sans-serif" font-size="11" lengthAdjust="spacing" textLength="144" x="203.5" y="53.2104">identifier (1..*, MS, LDAP)</text><text fill="#000000" font-family="sans-serif" font-size="11" lengthAdjust="spacing" textLength="265" x="203.5" y="66.0151">active (1..1, MS, LDAP) //reicht active hier oder</text><text fill="#000000" font-family="sans-serif" font-size="11" lengthAdjust="spacing" textLength="194" x="219.5" y="78.8198">auch in practitioner und endpoint?</text><text fill="#000000" font-family="sans-serif" font-size="11" lengthAdjust="spacing" textLength="158" x="203.5" y="91.6245">providedBy (1..1, MS, LDAP)</text><text fill="#000000" font-family="sans-serif" font-size="11" lengthAdjust="spacing" textLength="147" x="203.5" y="104.4292">speciality (0..*, MS, LDAP)</text><text fill="#000000" font-family="sans-serif" font-size="11" lengthAdjust="spacing" textLength="102" x="203.5" y="117.2339">location (0..*, MS)</text><text fill="#000000" font-family="sans-serif" font-size="11" lengthAdjust="spacing" textLength="103" x="203.5" y="130.0386">telecom (0..*, MS)</text><text fill="#000000" font-family="sans-serif" font-size="11" lengthAdjust="spacing" textLength="180" x="203.5" y="142.8433">serviceProvisionCode (0..*, MS)</text><text fill="#000000" font-family="sans-serif" font-size="11" lengthAdjust="spacing" textLength="144" x="203.5" y="155.6479">communication (0..*, MS)</text><text fill="#000000" font-family="sans-serif" font-size="11" lengthAdjust="spacing" textLength="136" x="203.5" y="168.4526">availableTime (0..*, MS)</text><text fill="#000000" font-family="sans-serif" font-size="11" lengthAdjust="spacing" textLength="178" x="203.5" y="181.2573">availabilityExceptions (0..*, MS)</text><text fill="#000000" font-family="sans-serif" font-size="11" lengthAdjust="spacing" textLength="107" x="203.5" y="194.062">endpoint (0..*, MS)</text><line style="stroke:#383838;stroke-width:1.5;" x1="198.5" x2="473.5" y1="200.6563" y2="200.6563"/><!--MD5=[86c7c362de55a38b660185a1328fe18d]
class Organization--><rect codeLine="36" fill="#F8F8F8" filter="url(#f1hno2877cwv09)" height="124.8281" id="Organization" style="stroke:#383838;stroke-width:1.5;" width="156" x="467" y="305"/><ellipse cx="502.7" cy="321" fill="#C2C2C2" rx="11" ry="11" style="stroke:#383838;stroke-width:1.0;"/><path d="M505.6688,326.6406 Q505.0906,326.9375 504.45,327.0781 Q503.8094,327.2344 503.1063,327.2344 Q500.6063,327.2344 499.2781,325.5938 Q497.9656,323.9375 497.9656,320.8125 Q497.9656,317.6875 499.2781,316.0313 Q500.6063,314.375 503.1063,314.375 Q503.8094,314.375 504.45,314.5313 Q505.1063,314.6875 505.6688,314.9844 L505.6688,317.7031 Q505.0438,317.125 504.45,316.8594 Q503.8563,316.5781 503.2313,316.5781 Q501.8875,316.5781 501.2,317.6563 Q500.5125,318.7188 500.5125,320.8125 Q500.5125,322.9063 501.2,323.9844 Q501.8875,325.0469 503.2313,325.0469 Q503.8563,325.0469 504.45,324.7813 Q505.0438,324.5 505.6688,323.9219 L505.6688,326.6406 Z " fill="#000000"/><text fill="#000000" font-family="sans-serif" font-size="12" lengthAdjust="spacing" textLength="78" x="521.3" y="325.1543">Organization</text><line style="stroke:#383838;stroke-width:1.5;" x1="468" x2="622" y1="337" y2="337"/><text fill="#000000" font-family="sans-serif" font-size="11" lengthAdjust="spacing" textLength="144" x="473" y="351.2104">identifier (1..*, MS, LDAP)</text><text fill="#000000" font-family="sans-serif" font-size="11" lengthAdjust="spacing" textLength="119" x="473" y="364.0151">type (1..1, MS, LDAP)</text><text fill="#000000" font-family="sans-serif" font-size="11" lengthAdjust="spacing" textLength="91" x="473" y="376.8198">name (1..1, MS)</text><text fill="#000000" font-family="sans-serif" font-size="11" lengthAdjust="spacing" textLength="85" x="473" y="389.6245">alias (0..*, MS)</text><text fill="#000000" font-family="sans-serif" font-size="11" lengthAdjust="spacing" textLength="103" x="473" y="402.4292">telecom (0..*, MS)</text><text fill="#000000" font-family="sans-serif" font-size="11" lengthAdjust="spacing" textLength="99" x="473" y="415.2339">contact (0..*, MS)</text><line style="stroke:#383838;stroke-width:1.5;" x1="468" x2="622" y1="421.8281" y2="421.8281"/><!--MD5=[6f2477b0057d6d863baac3cc01263906]
reverse link HealthcareService to Organization--><path codeLine="45" d="M425.73,219.55 C449.42,248.74 474.14,279.2 494.9,304.77 " fill="none" id="HealthcareService-backto-Organization" style="stroke:#383838;stroke-width:1.0;"/><polygon fill="#FFFFFF" points="417.4,209.29,418.0703,216.4699,424.9557,218.6126,424.2854,211.4328,417.4,209.29" style="stroke:#383838;stroke-width:1.0;"/><text fill="#000000" font-family="sans-serif" font-size="13" lengthAdjust="spacing" textLength="71" x="454" y="252.0669">providedBy</text><!--MD5=[3511516a64eecd1a7f097b12e1d19ff7]
reverse link HealthcareService to Endpoint--><path codeLine="46" d="M237.62,219.14 C213.61,246.02 188.61,274.01 166.94,298.28 " fill="none" id="HealthcareService-backto-Endpoint" style="stroke:#383838;stroke-width:1.0;"/><polygon fill="#FFFFFF" points="246.42,209.29,239.4405,211.103,238.4296,218.2429,245.4091,216.4299,246.42,209.29" style="stroke:#383838;stroke-width:1.0;"/><text fill="#000000" font-family="sans-serif" font-size="13" lengthAdjust="spacing" textLength="56" x="216" y="252.0669">endpoint</text><!--MD5=[eb80e139a64af3c5d009312d469c3596]
reverse link HealthcareService to Location--><path codeLine="47" d="M336,222.52 C336,243.91 336,265.86 336,285.99 " fill="none" id="HealthcareService-backto-Location" style="stroke:#383838;stroke-width:1.0;"/><polygon fill="#FFFFFF" points="336,209.29,332,215.29,336,221.29,340,215.29,336,209.29" style="stroke:#383838;stroke-width:1.0;"/><text fill="#000000" font-family="sans-serif" font-size="13" lengthAdjust="spacing" textLength="50" x="337" y="252.0669">location</text><!--MD5=[b2ab61bf7eeddec805d5891f5d67a451]
@startuml cd_FHIR_HealthcareService
skinparam monochrome true
class Endpoint {
  {field} identifier (1..*, MS, LDAP)
  {field} status (0..*, MS)
  {field} connectionType (0..*, MS)
  {field} name (0..1, MS)
  {field} managingOrganization (0..1, MS)
  {field} payloadType (1..*, MS)
  {field} address (1..1, MS)
}
class Location {
  {field} identifier (1..*, MS, LDAP)
  {field} status (0..*, MS)
  {field} name (0..1, MS)
  {field} description (0..1, MS)
  {field} telecom (0..*, MS)
  {field} address (0..1, MS)
  {field} position (0..1, MS)
  {field} hoursOfOperation (0..*, MS)
  {field} availabilityExceptions (0..1, MS)
}
class HealthcareService {
  {field} identifier (1..*, MS, LDAP)
  {field} active (1..1, MS, LDAP) //reicht active hier oder\n    auch in practitioner und endpoint?
  {field} providedBy (1..1, MS, LDAP)
  {field} speciality (0..*, MS, LDAP)
  {field} location (0..*, MS)
  {field} telecom (0..*, MS)
  {field} serviceProvisionCode (0..*, MS)
  {field} communication (0..*, MS)
  '{field} appointmentRequired (0..1, MS)
  {field} availableTime (0..*, MS)
  {field} availabilityExceptions (0..*, MS)
  {field} endpoint (0..*, MS)
}
class Organization {
  {field} identifier (1..*, MS, LDAP)
  {field} type (1..1, MS, LDAP)
  {field} name (1..1, MS)
  {field} alias (0..*, MS)
  {field} telecom (0..*, MS)
  {field} contact (0..*, MS)
}

HealthcareService o- - Organization: providedBy
HealthcareService o- - Endpoint: endpoint
HealthcareService o- - Location: location

@enduml

@startuml cd_FHIR_HealthcareService
skinparam monochrome true
class Endpoint {
  {field} identifier (1..*, MS, LDAP)
  {field} status (0..*, MS)
  {field} connectionType (0..*, MS)
  {field} name (0..1, MS)
  {field} managingOrganization (0..1, MS)
  {field} payloadType (1..*, MS)
  {field} address (1..1, MS)
}
class Location {
  {field} identifier (1..*, MS, LDAP)
  {field} status (0..*, MS)
  {field} name (0..1, MS)
  {field} description (0..1, MS)
  {field} telecom (0..*, MS)
  {field} address (0..1, MS)
  {field} position (0..1, MS)
  {field} hoursOfOperation (0..*, MS)
  {field} availabilityExceptions (0..1, MS)
}
class HealthcareService {
  {field} identifier (1..*, MS, LDAP)
  {field} active (1..1, MS, LDAP) //reicht active hier oder\n    auch in practitioner und endpoint?
  {field} providedBy (1..1, MS, LDAP)
  {field} speciality (0..*, MS, LDAP)
  {field} location (0..*, MS)
  {field} telecom (0..*, MS)
  {field} serviceProvisionCode (0..*, MS)
  {field} communication (0..*, MS)
  {field} availableTime (0..*, MS)
  {field} availabilityExceptions (0..*, MS)
  {field} endpoint (0..*, MS)
}
class Organization {
  {field} identifier (1..*, MS, LDAP)
  {field} type (1..1, MS, LDAP)
  {field} name (1..1, MS)
  {field} alias (0..*, MS)
  {field} telecom (0..*, MS)
  {field} contact (0..*, MS)
}

HealthcareService o- - Organization: providedBy
HealthcareService o- - Endpoint: endpoint
HealthcareService o- - Location: location

@enduml

PlantUML version 1.2021.16(Wed Dec 08 17:25:22 UTC 2021)
(GPL source distribution)
Java Runtime: OpenJDK Runtime Environment
JVM: OpenJDK 64-Bit Server VM
Default Encoding: UTF-8
Language: en
Country: null
--></g></svg>