<?xml version="1.0" encoding="UTF-8" standalone="no"?><svg xmlns="http://www.w3.org/2000/svg" xmlns:xlink="http://www.w3.org/1999/xlink" contentScriptType="application/ecmascript" contentStyleType="text/css" height="386px" preserveAspectRatio="none" style="width:654px;height:386px;background:#FFFFFF;" version="1.1" viewBox="0 0 654 386" width="654px" zoomAndPan="magnify"><defs><filter height="300%" id="f1lkaex9qw2ci0" width="300%" x="-1" y="-1"><feGaussianBlur result="blurOut" stdDeviation="2.0"/><feColorMatrix in="blurOut" result="blurOut2" type="matrix" values="0 0 0 0 0 0 0 0 0 0 0 0 0 0 0 0 0 0 .4 0"/><feOffset dx="4.0" dy="4.0" in="blurOut2" result="blurOut3"/><feBlend in="SourceGraphic" in2="blurOut3" mode="normal"/></filter></defs><g><!--MD5=[7b9c16a3d4995a55b032296f71ab1184]
class PractitionerRole--><rect codeLine="2" fill="#F8F8F8" filter="url(#f1lkaex9qw2ci0)" height="124.8281" id="PractitionerRole" style="stroke:#383838;stroke-width:1.5;" width="172" x="229" y="7"/><ellipse cx="262" cy="23" fill="#C2C2C2" rx="11" ry="11" style="stroke:#383838;stroke-width:1.0;"/><path d="M264.9688,28.6406 Q264.3906,28.9375 263.75,29.0781 Q263.1094,29.2344 262.4063,29.2344 Q259.9063,29.2344 258.5781,27.5938 Q257.2656,25.9375 257.2656,22.8125 Q257.2656,19.6875 258.5781,18.0313 Q259.9063,16.375 262.4063,16.375 Q263.1094,16.375 263.75,16.5313 Q264.4063,16.6875 264.9688,16.9844 L264.9688,19.7031 Q264.3438,19.125 263.75,18.8594 Q263.1563,18.5781 262.5313,18.5781 Q261.1875,18.5781 260.5,19.6563 Q259.8125,20.7188 259.8125,22.8125 Q259.8125,24.9063 260.5,25.9844 Q261.1875,27.0469 262.5313,27.0469 Q263.1563,27.0469 263.75,26.7813 Q264.3438,26.5 264.9688,25.9219 L264.9688,28.6406 Z " fill="#000000"/><text fill="#000000" font-family="sans-serif" font-size="12" lengthAdjust="spacing" textLength="100" x="280" y="27.1543">PractitionerRole</text><line style="stroke:#383838;stroke-width:1.5;" x1="230" x2="400" y1="39" y2="39"/><text fill="#000000" font-family="sans-serif" font-size="11" lengthAdjust="spacing" textLength="144" x="235" y="53.2104">identifier (1..*, MS, LDAP)</text><text fill="#000000" font-family="sans-serif" font-size="11" lengthAdjust="spacing" textLength="128" x="235" y="66.0151">active (1..1, MS, LDAP)</text><text fill="#000000" font-family="sans-serif" font-size="11" lengthAdjust="spacing" textLength="160" x="235" y="78.8198">practitioner (1..1, MS, LDAP)</text><text fill="#000000" font-family="sans-serif" font-size="11" lengthAdjust="spacing" textLength="111" x="235" y="91.6245">speciality (0..*, MS)</text><text fill="#000000" font-family="sans-serif" font-size="11" lengthAdjust="spacing" textLength="102" x="235" y="104.4292">location (0..*, MS)</text><text fill="#000000" font-family="sans-serif" font-size="11" lengthAdjust="spacing" textLength="107" x="235" y="117.2339">endpoint (0..*, MS)</text><line style="stroke:#383838;stroke-width:1.5;" x1="230" x2="400" y1="123.8281" y2="123.8281"/><!--MD5=[2edc31ff762501c9cec4b1b863028f54]
class Practitioner--><rect codeLine="10" fill="#F8F8F8" filter="url(#f1lkaex9qw2ci0)" height="150.4375" id="Practitioner" style="stroke:#383838;stroke-width:1.5;" width="174" x="7" y="215.5"/><ellipse cx="53.25" cy="231.5" fill="#C2C2C2" rx="11" ry="11" style="stroke:#383838;stroke-width:1.0;"/><path d="M56.2188,237.1406 Q55.6406,237.4375 55,237.5781 Q54.3594,237.7344 53.6563,237.7344 Q51.1563,237.7344 49.8281,236.0938 Q48.5156,234.4375 48.5156,231.3125 Q48.5156,228.1875 49.8281,226.5313 Q51.1563,224.875 53.6563,224.875 Q54.3594,224.875 55,225.0313 Q55.6563,225.1875 56.2188,225.4844 L56.2188,228.2031 Q55.5938,227.625 55,227.3594 Q54.4063,227.0781 53.7813,227.0781 Q52.4375,227.0781 51.75,228.1563 Q51.0625,229.2188 51.0625,231.3125 Q51.0625,233.4063 51.75,234.4844 Q52.4375,235.5469 53.7813,235.5469 Q54.4063,235.5469 55,235.2813 Q55.5938,235 56.2188,234.4219 L56.2188,237.1406 Z " fill="#000000"/><text fill="#000000" font-family="sans-serif" font-size="12" lengthAdjust="spacing" textLength="73" x="73.75" y="235.6543">Practitioner</text><line style="stroke:#383838;stroke-width:1.5;" x1="8" x2="180" y1="247.5" y2="247.5"/><text fill="#000000" font-family="sans-serif" font-size="11" lengthAdjust="spacing" textLength="144" x="13" y="261.7104">identifier (1..*, MS, LDAP)</text><text fill="#000000" font-family="sans-serif" font-size="11" lengthAdjust="spacing" textLength="126" x="13" y="274.5151">name (1..*, MS, LDAP)</text><text fill="#000000" font-family="sans-serif" font-size="11" lengthAdjust="spacing" textLength="103" x="13" y="287.3198">telecom (0..*, MS)</text><text fill="#000000" font-family="sans-serif" font-size="11" lengthAdjust="spacing" textLength="98" x="13" y="300.1245">gender (0..*, MS)</text><text fill="#000000" font-family="sans-serif" font-size="11" lengthAdjust="spacing" textLength="110" x="13" y="312.9292">birthDate (0..*, MS)</text><text fill="#000000" font-family="sans-serif" font-size="11" lengthAdjust="spacing" textLength="90" x="13" y="325.7339">photo (0..*, MS)</text><text fill="#000000" font-family="sans-serif" font-size="11" lengthAdjust="spacing" textLength="162" x="13" y="338.5386">qualification (0..*, MS, LDAP)</text><text fill="#000000" font-family="sans-serif" font-size="11" lengthAdjust="spacing" textLength="144" x="13" y="351.3433">communication (0..*, MS)</text><line style="stroke:#383838;stroke-width:1.5;" x1="8" x2="180" y1="357.9375" y2="357.9375"/><!--MD5=[4fd3bb6c1d79f4919f90c95b62a35422]
class Endpoint--><rect codeLine="20" fill="#F8F8F8" filter="url(#f1lkaex9qw2ci0)" height="137.6328" id="Endpoint" style="stroke:#383838;stroke-width:1.5;" width="198" x="216" y="221.5"/><ellipse cx="282.75" cy="237.5" fill="#C2C2C2" rx="11" ry="11" style="stroke:#383838;stroke-width:1.0;"/><path d="M285.7188,243.1406 Q285.1406,243.4375 284.5,243.5781 Q283.8594,243.7344 283.1563,243.7344 Q280.6563,243.7344 279.3281,242.0938 Q278.0156,240.4375 278.0156,237.3125 Q278.0156,234.1875 279.3281,232.5313 Q280.6563,230.875 283.1563,230.875 Q283.8594,230.875 284.5,231.0313 Q285.1563,231.1875 285.7188,231.4844 L285.7188,234.2031 Q285.0938,233.625 284.5,233.3594 Q283.9063,233.0781 283.2813,233.0781 Q281.9375,233.0781 281.25,234.1563 Q280.5625,235.2188 280.5625,237.3125 Q280.5625,239.4063 281.25,240.4844 Q281.9375,241.5469 283.2813,241.5469 Q283.9063,241.5469 284.5,241.2813 Q285.0938,241 285.7188,240.4219 L285.7188,243.1406 Z " fill="#000000"/><text fill="#000000" font-family="sans-serif" font-size="12" lengthAdjust="spacing" textLength="56" x="303.25" y="241.6543">Endpoint</text><line style="stroke:#383838;stroke-width:1.5;" x1="217" x2="413" y1="253.5" y2="253.5"/><text fill="#000000" font-family="sans-serif" font-size="11" lengthAdjust="spacing" textLength="144" x="222" y="267.7104">identifier (1..*, MS, LDAP)</text><text fill="#000000" font-family="sans-serif" font-size="11" lengthAdjust="spacing" textLength="94" x="222" y="280.5151">status (0..*, MS)</text><text fill="#000000" font-family="sans-serif" font-size="11" lengthAdjust="spacing" textLength="146" x="222" y="293.3198">connectionType (0..*, MS)</text><text fill="#000000" font-family="sans-serif" font-size="11" lengthAdjust="spacing" textLength="91" x="222" y="306.1245">name (0..1, MS)</text><text fill="#000000" font-family="sans-serif" font-size="11" lengthAdjust="spacing" textLength="186" x="222" y="318.9292">managingOrganization (0..1, MS)</text><text fill="#000000" font-family="sans-serif" font-size="11" lengthAdjust="spacing" textLength="129" x="222" y="331.7339">payloadType (1..*, MS)</text><text fill="#000000" font-family="sans-serif" font-size="11" lengthAdjust="spacing" textLength="106" x="222" y="344.5386">address (1..1, MS)</text><line style="stroke:#383838;stroke-width:1.5;" x1="217" x2="413" y1="351.1328" y2="351.1328"/><!--MD5=[4f1f3706c1a355a8488e154afcaed5df]
class Location--><rect codeLine="29" fill="#F8F8F8" filter="url(#f1lkaex9qw2ci0)" height="163.2422" id="Location" style="stroke:#383838;stroke-width:1.5;" width="191" x="449.5" y="209"/><ellipse cx="514.25" cy="225" fill="#C2C2C2" rx="11" ry="11" style="stroke:#383838;stroke-width:1.0;"/><path d="M517.2188,230.6406 Q516.6406,230.9375 516,231.0781 Q515.3594,231.2344 514.6563,231.2344 Q512.1563,231.2344 510.8281,229.5938 Q509.5156,227.9375 509.5156,224.8125 Q509.5156,221.6875 510.8281,220.0313 Q512.1563,218.375 514.6563,218.375 Q515.3594,218.375 516,218.5313 Q516.6563,218.6875 517.2188,218.9844 L517.2188,221.7031 Q516.5938,221.125 516,220.8594 Q515.4063,220.5781 514.7813,220.5781 Q513.4375,220.5781 512.75,221.6563 Q512.0625,222.7188 512.0625,224.8125 Q512.0625,226.9063 512.75,227.9844 Q513.4375,229.0469 514.7813,229.0469 Q515.4063,229.0469 516,228.7813 Q516.5938,228.5 517.2188,227.9219 L517.2188,230.6406 Z " fill="#000000"/><text fill="#000000" font-family="sans-serif" font-size="12" lengthAdjust="spacing" textLength="53" x="534.75" y="229.1543">Location</text><line style="stroke:#383838;stroke-width:1.5;" x1="450.5" x2="639.5" y1="241" y2="241"/><text fill="#000000" font-family="sans-serif" font-size="11" lengthAdjust="spacing" textLength="144" x="455.5" y="255.2104">identifier (1..*, MS, LDAP)</text><text fill="#000000" font-family="sans-serif" font-size="11" lengthAdjust="spacing" textLength="94" x="455.5" y="268.0151">status (0..*, MS)</text><text fill="#000000" font-family="sans-serif" font-size="11" lengthAdjust="spacing" textLength="91" x="455.5" y="280.8198">name (0..1, MS)</text><text fill="#000000" font-family="sans-serif" font-size="11" lengthAdjust="spacing" textLength="122" x="455.5" y="293.6245">description (0..1, MS)</text><text fill="#000000" font-family="sans-serif" font-size="11" lengthAdjust="spacing" textLength="103" x="455.5" y="306.4292">telecom (0..*, MS)</text><text fill="#000000" font-family="sans-serif" font-size="11" lengthAdjust="spacing" textLength="106" x="455.5" y="319.2339">address (0..1, MS)</text><text fill="#000000" font-family="sans-serif" font-size="11" lengthAdjust="spacing" textLength="104" x="455.5" y="332.0386">position (0..1, MS)</text><text fill="#000000" font-family="sans-serif" font-size="11" lengthAdjust="spacing" textLength="160" x="455.5" y="344.8433">hoursOfOperation (0..*, MS)</text><text fill="#000000" font-family="sans-serif" font-size="11" lengthAdjust="spacing" textLength="179" x="455.5" y="357.6479">availabilityExceptions (0..1, MS)</text><line style="stroke:#383838;stroke-width:1.5;" x1="450.5" x2="639.5" y1="364.2422" y2="364.2422"/><!--MD5=[8bdbfd47c206126371fe28da16da2c38]
reverse link PractitionerRole to Practitioner--><path codeLine="41" d="M243.52,141.33 C219.7,164.94 193.1,191.3 169.02,215.16 " fill="none" id="PractitionerRole-backto-Practitioner" style="stroke:#383838;stroke-width:1.0;"/><polygon fill="#FFFFFF" points="252.85,132.09,245.7735,133.4767,244.3318,140.5423,251.4083,139.1555,252.85,132.09" style="stroke:#383838;stroke-width:1.0;"/><text fill="#000000" font-family="sans-serif" font-size="13" lengthAdjust="spacing" textLength="73" x="219" y="175.0669">practitioner</text><!--MD5=[19650f91da0f4b19284021841804106f]
reverse link PractitionerRole to Endpoint--><path codeLine="42" d="M315,145.13 C315,169.86 315,197.25 315,221.46 " fill="none" id="PractitionerRole-backto-Endpoint" style="stroke:#383838;stroke-width:1.0;"/><polygon fill="#FFFFFF" points="315,132.09,311,138.09,315,144.09,319,138.09,315,132.09" style="stroke:#383838;stroke-width:1.0;"/><text fill="#000000" font-family="sans-serif" font-size="13" lengthAdjust="spacing" textLength="56" x="316" y="175.0669">endpoint</text><!--MD5=[8db30d2c8d0b651ef32eee6ae94cb401]
reverse link PractitionerRole to Location--><path codeLine="43" d="M389.22,141.17 C411.85,162.72 436.91,186.58 460.19,208.74 " fill="none" id="PractitionerRole-backto-Location" style="stroke:#383838;stroke-width:1.0;"/><polygon fill="#FFFFFF" points="379.68,132.09,381.2697,139.1237,388.3737,140.3616,386.7841,133.3279,379.68,132.09" style="stroke:#383838;stroke-width:1.0;"/><text fill="#000000" font-family="sans-serif" font-size="13" lengthAdjust="spacing" textLength="50" x="425" y="175.0669">location</text><!--MD5=[a6b64a861e607be39605418f5faee9ee]
@startuml ClassDiagram.PractitionerRole
skinparam monochrome true
class PractitionerRole {
  {field} identifier (1..*, MS, LDAP)
  {field} active (1..1, MS, LDAP)
  {field} practitioner (1..1, MS, LDAP)
  {field} speciality (0..*, MS)
  {field} location (0..*, MS)
  {field} endpoint (0..*, MS)
}
class Practitioner {
  {field} identifier (1..*, MS, LDAP)
  {field} name (1..*, MS, LDAP)
  {field} telecom (0..*, MS)
  {field} gender (0..*, MS)
  {field} birthDate (0..*, MS)
  {field} photo (0..*, MS)
  {field} qualification (0..*, MS, LDAP)
  {field} communication (0..*, MS)
}
class Endpoint {
  {field} identifier (1..*, MS, LDAP)
  {field} status (0..*, MS)
  {field} connectionType (0..*, MS)
  {field} name (0..1, MS)
  {field} managingOrganization (0..1, MS)
  {field} payloadType (1..*, MS)
  {field} address (1..1, MS)
}
class Location {
  {field} identifier (1..*, MS, LDAP)
  {field} status (0..*, MS)
  {field} name (0..1, MS)
  {field} description (0..1, MS)
  {field} telecom (0..*, MS)
  {field} address (0..1, MS)
  {field} position (0..1, MS)
  {field} hoursOfOperation (0..*, MS)
  {field} availabilityExceptions (0..1, MS)
}

PractitionerRole o- - Practitioner: practitioner
PractitionerRole o- - Endpoint: endpoint
PractitionerRole o- - Location: location
@enduml

PlantUML version 1.2021.16(Wed Dec 08 17:25:22 UTC 2021)
(GPL source distribution)
Java Runtime: OpenJDK Runtime Environment
JVM: OpenJDK 64-Bit Server VM
Default Encoding: UTF-8
Language: en
Country: null
--></g></svg>