<?xml version="1.0" encoding="UTF-8" standalone="no"?><svg xmlns="http://www.w3.org/2000/svg" xmlns:xlink="http://www.w3.org/1999/xlink" contentScriptType="application/ecmascript" contentStyleType="text/css" height="475px" preserveAspectRatio="none" style="width:635px;height:475px;background:#FFFFFF;" version="1.1" viewBox="0 0 635 475" width="635px" zoomAndPan="magnify"><defs><filter height="300%" id="frvgg8zr00fbi" width="300%" x="-1" y="-1"><feGaussianBlur result="blurOut" stdDeviation="2.0"/><feColorMatrix in="blurOut" result="blurOut2" type="matrix" values="0 0 0 0 0 0 0 0 0 0 0 0 0 0 0 0 0 0 .4 0"/><feOffset dx="4.0" dy="4.0" in="blurOut2" result="blurOut3"/><feBlend in="SourceGraphic" in2="blurOut3" mode="normal"/></filter></defs><g><!--MD5=[e7f1f8ff98ca4645da414d6b6c370369]
class HealthcareService--><rect codeLine="2" fill="#F8F8F8" filter="url(#frvgg8zr00fbi)" height="214.4609" id="HealthcareService" style="stroke:#383838;stroke-width:1.5;" width="192" x="238.5" y="7"/><ellipse cx="274.2" cy="23" fill="#C2C2C2" rx="11" ry="11" style="stroke:#383838;stroke-width:1.0;"/><path d="M277.1688,28.6406 Q276.5906,28.9375 275.95,29.0781 Q275.3094,29.2344 274.6063,29.2344 Q272.1063,29.2344 270.7781,27.5938 Q269.4656,25.9375 269.4656,22.8125 Q269.4656,19.6875 270.7781,18.0313 Q272.1063,16.375 274.6063,16.375 Q275.3094,16.375 275.95,16.5313 Q276.6063,16.6875 277.1688,16.9844 L277.1688,19.7031 Q276.5438,19.125 275.95,18.8594 Q275.3563,18.5781 274.7313,18.5781 Q273.3875,18.5781 272.7,19.6563 Q272.0125,20.7188 272.0125,22.8125 Q272.0125,24.9063 272.7,25.9844 Q273.3875,27.0469 274.7313,27.0469 Q275.3563,27.0469 275.95,26.7813 Q276.5438,26.5 277.1688,25.9219 L277.1688,28.6406 Z " fill="#000000"/><text fill="#000000" font-family="sans-serif" font-size="12" lengthAdjust="spacing" textLength="114" x="292.8" y="27.1543">HealthcareService</text><line style="stroke:#383838;stroke-width:1.5;" x1="239.5" x2="429.5" y1="39" y2="39"/><text fill="#000000" font-family="sans-serif" font-size="11" lengthAdjust="spacing" textLength="144" x="244.5" y="53.2104">identifier (1..*, MS, LDAP)</text><text fill="#000000" font-family="sans-serif" font-size="11" lengthAdjust="spacing" textLength="128" x="244.5" y="66.0151">active (1..1, MS, LDAP)</text><text fill="#000000" font-family="sans-serif" font-size="11" lengthAdjust="spacing" textLength="158" x="244.5" y="78.8198">providedBy (1..1, MS, LDAP)</text><text fill="#000000" font-family="sans-serif" font-size="11" lengthAdjust="spacing" textLength="147" x="244.5" y="91.6245">speciality (0..*, MS, LDAP)</text><text fill="#000000" font-family="sans-serif" font-size="11" lengthAdjust="spacing" textLength="138" x="244.5" y="104.4292">location (0..*, MS, LDAP)</text><text fill="#000000" font-family="sans-serif" font-size="11" lengthAdjust="spacing" textLength="91" x="244.5" y="117.2339">name (0..1, MS)</text><text fill="#000000" font-family="sans-serif" font-size="11" lengthAdjust="spacing" textLength="103" x="244.5" y="130.0386">telecom (0..*, MS)</text><text fill="#000000" font-family="sans-serif" font-size="11" lengthAdjust="spacing" textLength="180" x="244.5" y="142.8433">serviceProvisionCode (0..*, MS)</text><text fill="#000000" font-family="sans-serif" font-size="11" lengthAdjust="spacing" textLength="144" x="244.5" y="155.6479">communication (0..*, MS)</text><text fill="#000000" font-family="sans-serif" font-size="11" lengthAdjust="spacing" textLength="180" x="244.5" y="168.4526">appointmentRequired (0..1, MS)</text><text fill="#000000" font-family="sans-serif" font-size="11" lengthAdjust="spacing" textLength="136" x="244.5" y="181.2573">availableTime (0..*, MS)</text><text fill="#000000" font-family="sans-serif" font-size="11" lengthAdjust="spacing" textLength="178" x="244.5" y="194.062">availabilityExceptions (0..*, MS)</text><text fill="#000000" font-family="sans-serif" font-size="11" lengthAdjust="spacing" textLength="107" x="244.5" y="206.8667">endpoint (0..*, MS)</text><line style="stroke:#383838;stroke-width:1.5;" x1="239.5" x2="429.5" y1="213.4609" y2="213.4609"/><!--MD5=[4fd3bb6c1d79f4919f90c95b62a35422]
class Endpoint--><rect codeLine="17" fill="#F8F8F8" filter="url(#frvgg8zr00fbi)" height="137.6328" id="Endpoint" style="stroke:#383838;stroke-width:1.5;" width="197" x="7" y="310.5"/><ellipse cx="73.25" cy="326.5" fill="#C2C2C2" rx="11" ry="11" style="stroke:#383838;stroke-width:1.0;"/><path d="M76.2188,332.1406 Q75.6406,332.4375 75,332.5781 Q74.3594,332.7344 73.6563,332.7344 Q71.1563,332.7344 69.8281,331.0938 Q68.5156,329.4375 68.5156,326.3125 Q68.5156,323.1875 69.8281,321.5313 Q71.1563,319.875 73.6563,319.875 Q74.3594,319.875 75,320.0313 Q75.6563,320.1875 76.2188,320.4844 L76.2188,323.2031 Q75.5938,322.625 75,322.3594 Q74.4063,322.0781 73.7813,322.0781 Q72.4375,322.0781 71.75,323.1563 Q71.0625,324.2188 71.0625,326.3125 Q71.0625,328.4063 71.75,329.4844 Q72.4375,330.5469 73.7813,330.5469 Q74.4063,330.5469 75,330.2813 Q75.5938,330 76.2188,329.4219 L76.2188,332.1406 Z " fill="#000000"/><text fill="#000000" font-family="sans-serif" font-size="12" lengthAdjust="spacing" textLength="56" x="93.75" y="330.6543">Endpoint</text><line style="stroke:#383838;stroke-width:1.5;" x1="8" x2="203" y1="342.5" y2="342.5"/><text fill="#000000" font-family="sans-serif" font-size="11" lengthAdjust="spacing" textLength="108" x="13" y="356.7104">identifier (1..*, MS)</text><text fill="#000000" font-family="sans-serif" font-size="11" lengthAdjust="spacing" textLength="94" x="13" y="369.5151">status (0..*, MS)</text><text fill="#000000" font-family="sans-serif" font-size="11" lengthAdjust="spacing" textLength="147" x="13" y="382.3198">connectionType (1..1, MS)</text><text fill="#000000" font-family="sans-serif" font-size="11" lengthAdjust="spacing" textLength="91" x="13" y="395.1245">name (0..1, MS)</text><text fill="#000000" font-family="sans-serif" font-size="11" lengthAdjust="spacing" textLength="185" x="13" y="407.9292">managingOrganization (0..*, MS)</text><text fill="#000000" font-family="sans-serif" font-size="11" lengthAdjust="spacing" textLength="129" x="13" y="420.7339">payloadType (1..*, MS)</text><text fill="#000000" font-family="sans-serif" font-size="11" lengthAdjust="spacing" textLength="106" x="13" y="433.5386">address (1..1, MS)</text><line style="stroke:#383838;stroke-width:1.5;" x1="8" x2="203" y1="440.1328" y2="440.1328"/><!--MD5=[4f1f3706c1a355a8488e154afcaed5df]
class Location--><rect codeLine="26" fill="#F8F8F8" filter="url(#frvgg8zr00fbi)" height="163.2422" id="Location" style="stroke:#383838;stroke-width:1.5;" width="191" x="239" y="298"/><ellipse cx="303.75" cy="314" fill="#C2C2C2" rx="11" ry="11" style="stroke:#383838;stroke-width:1.0;"/><path d="M306.7188,319.6406 Q306.1406,319.9375 305.5,320.0781 Q304.8594,320.2344 304.1563,320.2344 Q301.6563,320.2344 300.3281,318.5938 Q299.0156,316.9375 299.0156,313.8125 Q299.0156,310.6875 300.3281,309.0313 Q301.6563,307.375 304.1563,307.375 Q304.8594,307.375 305.5,307.5313 Q306.1563,307.6875 306.7188,307.9844 L306.7188,310.7031 Q306.0938,310.125 305.5,309.8594 Q304.9063,309.5781 304.2813,309.5781 Q302.9375,309.5781 302.25,310.6563 Q301.5625,311.7188 301.5625,313.8125 Q301.5625,315.9063 302.25,316.9844 Q302.9375,318.0469 304.2813,318.0469 Q304.9063,318.0469 305.5,317.7813 Q306.0938,317.5 306.7188,316.9219 L306.7188,319.6406 Z " fill="#000000"/><text fill="#000000" font-family="sans-serif" font-size="12" lengthAdjust="spacing" textLength="53" x="324.25" y="318.1543">Location</text><line style="stroke:#383838;stroke-width:1.5;" x1="240" x2="429" y1="330" y2="330"/><text fill="#000000" font-family="sans-serif" font-size="11" lengthAdjust="spacing" textLength="144" x="245" y="344.2104">identifier (1..*, MS, LDAP)</text><text fill="#000000" font-family="sans-serif" font-size="11" lengthAdjust="spacing" textLength="94" x="245" y="357.0151">status (0..*, MS)</text><text fill="#000000" font-family="sans-serif" font-size="11" lengthAdjust="spacing" textLength="91" x="245" y="369.8198">name (0..1, MS)</text><text fill="#000000" font-family="sans-serif" font-size="11" lengthAdjust="spacing" textLength="122" x="245" y="382.6245">description (0..1, MS)</text><text fill="#000000" font-family="sans-serif" font-size="11" lengthAdjust="spacing" textLength="103" x="245" y="395.4292">telecom (0..*, MS)</text><text fill="#000000" font-family="sans-serif" font-size="11" lengthAdjust="spacing" textLength="142" x="245" y="408.2339">address (0..1, MS, LDAP)</text><text fill="#000000" font-family="sans-serif" font-size="11" lengthAdjust="spacing" textLength="104" x="245" y="421.0386">position (0..1, MS)</text><text fill="#000000" font-family="sans-serif" font-size="11" lengthAdjust="spacing" textLength="160" x="245" y="433.8433">hoursOfOperation (0..*, MS)</text><text fill="#000000" font-family="sans-serif" font-size="11" lengthAdjust="spacing" textLength="179" x="245" y="446.6479">availabilityExceptions (0..1, MS)</text><line style="stroke:#383838;stroke-width:1.5;" x1="240" x2="429" y1="453.2422" y2="453.2422"/><!--MD5=[86c7c362de55a38b660185a1328fe18d]
class Organization--><rect codeLine="37" fill="#F8F8F8" filter="url(#frvgg8zr00fbi)" height="124.8281" id="Organization" style="stroke:#383838;stroke-width:1.5;" width="156" x="465.5" y="317"/><ellipse cx="501.2" cy="333" fill="#C2C2C2" rx="11" ry="11" style="stroke:#383838;stroke-width:1.0;"/><path d="M504.1688,338.6406 Q503.5906,338.9375 502.95,339.0781 Q502.3094,339.2344 501.6063,339.2344 Q499.1063,339.2344 497.7781,337.5938 Q496.4656,335.9375 496.4656,332.8125 Q496.4656,329.6875 497.7781,328.0313 Q499.1063,326.375 501.6063,326.375 Q502.3094,326.375 502.95,326.5313 Q503.6063,326.6875 504.1688,326.9844 L504.1688,329.7031 Q503.5438,329.125 502.95,328.8594 Q502.3563,328.5781 501.7313,328.5781 Q500.3875,328.5781 499.7,329.6563 Q499.0125,330.7188 499.0125,332.8125 Q499.0125,334.9063 499.7,335.9844 Q500.3875,337.0469 501.7313,337.0469 Q502.3563,337.0469 502.95,336.7813 Q503.5438,336.5 504.1688,335.9219 L504.1688,338.6406 Z " fill="#000000"/><text fill="#000000" font-family="sans-serif" font-size="12" lengthAdjust="spacing" textLength="78" x="519.8" y="337.1543">Organization</text><line style="stroke:#383838;stroke-width:1.5;" x1="466.5" x2="620.5" y1="349" y2="349"/><text fill="#000000" font-family="sans-serif" font-size="11" lengthAdjust="spacing" textLength="144" x="471.5" y="363.2104">identifier (1..*, MS, LDAP)</text><text fill="#000000" font-family="sans-serif" font-size="11" lengthAdjust="spacing" textLength="119" x="471.5" y="376.0151">type (1..1, MS, LDAP)</text><text fill="#000000" font-family="sans-serif" font-size="11" lengthAdjust="spacing" textLength="127" x="471.5" y="388.8198">name (1..1, MS, LDAP)</text><text fill="#000000" font-family="sans-serif" font-size="11" lengthAdjust="spacing" textLength="85" x="471.5" y="401.6245">alias (0..*, MS)</text><text fill="#000000" font-family="sans-serif" font-size="11" lengthAdjust="spacing" textLength="103" x="471.5" y="414.4292">telecom (0..*, MS)</text><text fill="#000000" font-family="sans-serif" font-size="11" lengthAdjust="spacing" textLength="99" x="471.5" y="427.2339">contact (0..*, MS)</text><line style="stroke:#383838;stroke-width:1.5;" x1="466.5" x2="620.5" y1="433.8281" y2="433.8281"/><!--MD5=[6f2477b0057d6d863baac3cc01263906]
reverse link HealthcareService to Organization--><path codeLine="46" d="M426.84,231.42 C450.23,260.91 474.45,291.45 494.72,317 " fill="none" id="HealthcareService-backto-Organization" style="stroke:#383838;stroke-width:1.0;"/><polygon fill="#FFFFFF" points="418.6,221.04,419.1976,228.2263,426.0609,230.4387,425.4633,223.2524,418.6,221.04" style="stroke:#383838;stroke-width:1.0;"/><text fill="#000000" font-family="sans-serif" font-size="13" lengthAdjust="spacing" textLength="71" x="452.5" y="264.0669">providedBy</text><!--MD5=[3511516a64eecd1a7f097b12e1d19ff7]
reverse link HealthcareService to Endpoint--><path codeLine="47" d="M233.73,230.95 C210.23,257.99 185.95,285.93 164.93,310.12 " fill="none" id="HealthcareService-backto-Endpoint" style="stroke:#383838;stroke-width:1.0;"/><polygon fill="#FFFFFF" points="242.35,221.04,235.3951,222.9452,234.4788,230.0978,241.4337,228.1926,242.35,221.04" style="stroke:#383838;stroke-width:1.0;"/><text fill="#000000" font-family="sans-serif" font-size="13" lengthAdjust="spacing" textLength="56" x="214.5" y="264.0669">endpoint</text><!--MD5=[eb80e139a64af3c5d009312d469c3596]
reverse link HealthcareService to Location--><path codeLine="48" d="M334.5,234.33 C334.5,255.82 334.5,277.74 334.5,297.8 " fill="none" id="HealthcareService-backto-Location" style="stroke:#383838;stroke-width:1.0;"/><polygon fill="#FFFFFF" points="334.5,221.04,330.5,227.04,334.5,233.04,338.5,227.04,334.5,221.04" style="stroke:#383838;stroke-width:1.0;"/><text fill="#000000" font-family="sans-serif" font-size="13" lengthAdjust="spacing" textLength="50" x="335.5" y="264.0669">location</text><!--MD5=[6a6db3df3db051f12dd5255e3b671d0e]
@startuml ClassDiagram.HealthcareService
skinparam monochrome true
class HealthcareService {
  {field} identifier (1..*, MS, LDAP)
  {field} active (1..1, MS, LDAP)
  {field} providedBy (1..1, MS, LDAP)
  {field} speciality (0..*, MS, LDAP)
  {field} location (0..*, MS, LDAP)
  {field} name (0..1, MS)
  {field} telecom (0..*, MS)
  {field} serviceProvisionCode (0..*, MS)
  {field} communication (0..*, MS)
  {field} appointmentRequired (0..1, MS)
  {field} availableTime (0..*, MS)
  {field} availabilityExceptions (0..*, MS)
  {field} endpoint (0..*, MS)
}
class Endpoint {
  {field} identifier (1..*, MS)
  {field} status (0..*, MS)
  {field} connectionType (1..1, MS)
  {field} name (0..1, MS)
  {field} managingOrganization (0..*, MS)
  {field} payloadType (1..*, MS)
  {field} address (1..1, MS)
}
class Location {
  {field} identifier (1..*, MS, LDAP)
  {field} status (0..*, MS)
  {field} name (0..1, MS)
  {field} description (0..1, MS)
  {field} telecom (0..*, MS)
  {field} address (0..1, MS, LDAP)
  {field} position (0..1, MS)
  {field} hoursOfOperation (0..*, MS)
  {field} availabilityExceptions (0..1, MS)
}
class Organization {
  {field} identifier (1..*, MS, LDAP)
  {field} type (1..1, MS, LDAP)
  {field} name (1..1, MS, LDAP)
  {field} alias (0..*, MS)
  {field} telecom (0..*, MS)
  {field} contact (0..*, MS)
}

HealthcareService o- - Organization: providedBy
HealthcareService o- - Endpoint: endpoint
HealthcareService o- - Location: location

@enduml

PlantUML version 1.2021.16(Wed Dec 08 17:25:22 UTC 2021)
(GPL source distribution)
Java Runtime: OpenJDK Runtime Environment
JVM: OpenJDK 64-Bit Server VM
Default Encoding: UTF-8
Language: en
Country: null
--></g></svg>