<?xml version="1.0" encoding="UTF-8" standalone="no"?><svg xmlns="http://www.w3.org/2000/svg" xmlns:xlink="http://www.w3.org/1999/xlink" contentScriptType="application/ecmascript" contentStyleType="text/css" height="399px" preserveAspectRatio="none" style="width:654px;height:399px;background:#FFFFFF;" version="1.1" viewBox="0 0 654 399" width="654px" zoomAndPan="magnify"><defs><filter height="300%" id="fmxdmyihrfh76" width="300%" x="-1" y="-1"><feGaussianBlur result="blurOut" stdDeviation="2.0"/><feColorMatrix in="blurOut" result="blurOut2" type="matrix" values="0 0 0 0 0 0 0 0 0 0 0 0 0 0 0 0 0 0 .4 0"/><feOffset dx="4.0" dy="4.0" in="blurOut2" result="blurOut3"/><feBlend in="SourceGraphic" in2="blurOut3" mode="normal"/></filter></defs><g><!--MD5=[7b9c16a3d4995a55b032296f71ab1184]
class PractitionerRole--><rect codeLine="2" fill="#F8F8F8" filter="url(#fmxdmyihrfh76)" height="137.6328" id="PractitionerRole" style="stroke:#383838;stroke-width:1.5;" width="277" x="176.5" y="7"/><ellipse cx="260.75" cy="23" fill="#C2C2C2" rx="11" ry="11" style="stroke:#383838;stroke-width:1.0;"/><path d="M263.7188,28.6406 Q263.1406,28.9375 262.5,29.0781 Q261.8594,29.2344 261.1563,29.2344 Q258.6563,29.2344 257.3281,27.5938 Q256.0156,25.9375 256.0156,22.8125 Q256.0156,19.6875 257.3281,18.0313 Q258.6563,16.375 261.1563,16.375 Q261.8594,16.375 262.5,16.5313 Q263.1563,16.6875 263.7188,16.9844 L263.7188,19.7031 Q263.0938,19.125 262.5,18.8594 Q261.9063,18.5781 261.2813,18.5781 Q259.9375,18.5781 259.25,19.6563 Q258.5625,20.7188 258.5625,22.8125 Q258.5625,24.9063 259.25,25.9844 Q259.9375,27.0469 261.2813,27.0469 Q261.9063,27.0469 262.5,26.7813 Q263.0938,26.5 263.7188,25.9219 L263.7188,28.6406 Z " fill="#000000"/><text fill="#000000" font-family="sans-serif" font-size="12" lengthAdjust="spacing" textLength="100" x="281.25" y="27.1543">PractitionerRole</text><line style="stroke:#383838;stroke-width:1.5;" x1="177.5" x2="452.5" y1="39" y2="39"/><text fill="#000000" font-family="sans-serif" font-size="11" lengthAdjust="spacing" textLength="144" x="182.5" y="53.2104">identifier (1..*, MS, LDAP)</text><text fill="#000000" font-family="sans-serif" font-size="11" lengthAdjust="spacing" textLength="265" x="182.5" y="66.0151">active (1..1, MS, LDAP) //reicht active hier oder</text><text fill="#000000" font-family="sans-serif" font-size="11" lengthAdjust="spacing" textLength="194" x="198.5" y="78.8198">auch in practitioner und endpoint?</text><text fill="#000000" font-family="sans-serif" font-size="11" lengthAdjust="spacing" textLength="160" x="182.5" y="91.6245">practitioner (1..1, MS, LDAP)</text><text fill="#000000" font-family="sans-serif" font-size="11" lengthAdjust="spacing" textLength="111" x="182.5" y="104.4292">speciality (0..*, MS)</text><text fill="#000000" font-family="sans-serif" font-size="11" lengthAdjust="spacing" textLength="102" x="182.5" y="117.2339">location (0..*, MS)</text><text fill="#000000" font-family="sans-serif" font-size="11" lengthAdjust="spacing" textLength="107" x="182.5" y="130.0386">endpoint (0..*, MS)</text><line style="stroke:#383838;stroke-width:1.5;" x1="177.5" x2="452.5" y1="136.6328" y2="136.6328"/><!--MD5=[2edc31ff762501c9cec4b1b863028f54]
class Practitioner--><rect codeLine="10" fill="#F8F8F8" filter="url(#fmxdmyihrfh76)" height="150.4375" id="Practitioner" style="stroke:#383838;stroke-width:1.5;" width="174" x="7" y="228.5"/><ellipse cx="53.25" cy="244.5" fill="#C2C2C2" rx="11" ry="11" style="stroke:#383838;stroke-width:1.0;"/><path d="M56.2188,250.1406 Q55.6406,250.4375 55,250.5781 Q54.3594,250.7344 53.6563,250.7344 Q51.1563,250.7344 49.8281,249.0938 Q48.5156,247.4375 48.5156,244.3125 Q48.5156,241.1875 49.8281,239.5313 Q51.1563,237.875 53.6563,237.875 Q54.3594,237.875 55,238.0313 Q55.6563,238.1875 56.2188,238.4844 L56.2188,241.2031 Q55.5938,240.625 55,240.3594 Q54.4063,240.0781 53.7813,240.0781 Q52.4375,240.0781 51.75,241.1563 Q51.0625,242.2188 51.0625,244.3125 Q51.0625,246.4063 51.75,247.4844 Q52.4375,248.5469 53.7813,248.5469 Q54.4063,248.5469 55,248.2813 Q55.5938,248 56.2188,247.4219 L56.2188,250.1406 Z " fill="#000000"/><text fill="#000000" font-family="sans-serif" font-size="12" lengthAdjust="spacing" textLength="73" x="73.75" y="248.6543">Practitioner</text><line style="stroke:#383838;stroke-width:1.5;" x1="8" x2="180" y1="260.5" y2="260.5"/><text fill="#000000" font-family="sans-serif" font-size="11" lengthAdjust="spacing" textLength="144" x="13" y="274.7104">identifier (1..*, MS, LDAP)</text><text fill="#000000" font-family="sans-serif" font-size="11" lengthAdjust="spacing" textLength="126" x="13" y="287.5151">name (1..*, MS, LDAP)</text><text fill="#000000" font-family="sans-serif" font-size="11" lengthAdjust="spacing" textLength="103" x="13" y="300.3198">telecom (0..*, MS)</text><text fill="#000000" font-family="sans-serif" font-size="11" lengthAdjust="spacing" textLength="98" x="13" y="313.1245">gender (0..*, MS)</text><text fill="#000000" font-family="sans-serif" font-size="11" lengthAdjust="spacing" textLength="110" x="13" y="325.9292">birthDate (0..*, MS)</text><text fill="#000000" font-family="sans-serif" font-size="11" lengthAdjust="spacing" textLength="90" x="13" y="338.7339">photo (0..*, MS)</text><text fill="#000000" font-family="sans-serif" font-size="11" lengthAdjust="spacing" textLength="162" x="13" y="351.5386">qualification (0..*, MS, LDAP)</text><text fill="#000000" font-family="sans-serif" font-size="11" lengthAdjust="spacing" textLength="144" x="13" y="364.3433">communication (0..*, MS)</text><line style="stroke:#383838;stroke-width:1.5;" x1="8" x2="180" y1="370.9375" y2="370.9375"/><!--MD5=[4fd3bb6c1d79f4919f90c95b62a35422]
class Endpoint--><rect codeLine="20" fill="#F8F8F8" filter="url(#fmxdmyihrfh76)" height="137.6328" id="Endpoint" style="stroke:#383838;stroke-width:1.5;" width="198" x="216" y="234.5"/><ellipse cx="282.75" cy="250.5" fill="#C2C2C2" rx="11" ry="11" style="stroke:#383838;stroke-width:1.0;"/><path d="M285.7188,256.1406 Q285.1406,256.4375 284.5,256.5781 Q283.8594,256.7344 283.1563,256.7344 Q280.6563,256.7344 279.3281,255.0938 Q278.0156,253.4375 278.0156,250.3125 Q278.0156,247.1875 279.3281,245.5313 Q280.6563,243.875 283.1563,243.875 Q283.8594,243.875 284.5,244.0313 Q285.1563,244.1875 285.7188,244.4844 L285.7188,247.2031 Q285.0938,246.625 284.5,246.3594 Q283.9063,246.0781 283.2813,246.0781 Q281.9375,246.0781 281.25,247.1563 Q280.5625,248.2188 280.5625,250.3125 Q280.5625,252.4063 281.25,253.4844 Q281.9375,254.5469 283.2813,254.5469 Q283.9063,254.5469 284.5,254.2813 Q285.0938,254 285.7188,253.4219 L285.7188,256.1406 Z " fill="#000000"/><text fill="#000000" font-family="sans-serif" font-size="12" lengthAdjust="spacing" textLength="56" x="303.25" y="254.6543">Endpoint</text><line style="stroke:#383838;stroke-width:1.5;" x1="217" x2="413" y1="266.5" y2="266.5"/><text fill="#000000" font-family="sans-serif" font-size="11" lengthAdjust="spacing" textLength="144" x="222" y="280.7104">identifier (1..*, MS, LDAP)</text><text fill="#000000" font-family="sans-serif" font-size="11" lengthAdjust="spacing" textLength="94" x="222" y="293.5151">status (0..*, MS)</text><text fill="#000000" font-family="sans-serif" font-size="11" lengthAdjust="spacing" textLength="146" x="222" y="306.3198">connectionType (0..*, MS)</text><text fill="#000000" font-family="sans-serif" font-size="11" lengthAdjust="spacing" textLength="91" x="222" y="319.1245">name (0..1, MS)</text><text fill="#000000" font-family="sans-serif" font-size="11" lengthAdjust="spacing" textLength="186" x="222" y="331.9292">managingOrganization (0..1, MS)</text><text fill="#000000" font-family="sans-serif" font-size="11" lengthAdjust="spacing" textLength="129" x="222" y="344.7339">payloadType (1..*, MS)</text><text fill="#000000" font-family="sans-serif" font-size="11" lengthAdjust="spacing" textLength="106" x="222" y="357.5386">address (1..1, MS)</text><line style="stroke:#383838;stroke-width:1.5;" x1="217" x2="413" y1="364.1328" y2="364.1328"/><!--MD5=[4f1f3706c1a355a8488e154afcaed5df]
class Location--><rect codeLine="29" fill="#F8F8F8" filter="url(#fmxdmyihrfh76)" height="163.2422" id="Location" style="stroke:#383838;stroke-width:1.5;" width="191" x="449.5" y="222"/><ellipse cx="514.25" cy="238" fill="#C2C2C2" rx="11" ry="11" style="stroke:#383838;stroke-width:1.0;"/><path d="M517.2188,243.6406 Q516.6406,243.9375 516,244.0781 Q515.3594,244.2344 514.6563,244.2344 Q512.1563,244.2344 510.8281,242.5938 Q509.5156,240.9375 509.5156,237.8125 Q509.5156,234.6875 510.8281,233.0313 Q512.1563,231.375 514.6563,231.375 Q515.3594,231.375 516,231.5313 Q516.6563,231.6875 517.2188,231.9844 L517.2188,234.7031 Q516.5938,234.125 516,233.8594 Q515.4063,233.5781 514.7813,233.5781 Q513.4375,233.5781 512.75,234.6563 Q512.0625,235.7188 512.0625,237.8125 Q512.0625,239.9063 512.75,240.9844 Q513.4375,242.0469 514.7813,242.0469 Q515.4063,242.0469 516,241.7813 Q516.5938,241.5 517.2188,240.9219 L517.2188,243.6406 Z " fill="#000000"/><text fill="#000000" font-family="sans-serif" font-size="12" lengthAdjust="spacing" textLength="53" x="534.75" y="242.1543">Location</text><line style="stroke:#383838;stroke-width:1.5;" x1="450.5" x2="639.5" y1="254" y2="254"/><text fill="#000000" font-family="sans-serif" font-size="11" lengthAdjust="spacing" textLength="144" x="455.5" y="268.2104">identifier (1..*, MS, LDAP)</text><text fill="#000000" font-family="sans-serif" font-size="11" lengthAdjust="spacing" textLength="94" x="455.5" y="281.0151">status (0..*, MS)</text><text fill="#000000" font-family="sans-serif" font-size="11" lengthAdjust="spacing" textLength="91" x="455.5" y="293.8198">name (0..1, MS)</text><text fill="#000000" font-family="sans-serif" font-size="11" lengthAdjust="spacing" textLength="122" x="455.5" y="306.6245">description (0..1, MS)</text><text fill="#000000" font-family="sans-serif" font-size="11" lengthAdjust="spacing" textLength="103" x="455.5" y="319.4292">telecom (0..*, MS)</text><text fill="#000000" font-family="sans-serif" font-size="11" lengthAdjust="spacing" textLength="106" x="455.5" y="332.2339">address (0..1, MS)</text><text fill="#000000" font-family="sans-serif" font-size="11" lengthAdjust="spacing" textLength="104" x="455.5" y="345.0386">position (0..1, MS)</text><text fill="#000000" font-family="sans-serif" font-size="11" lengthAdjust="spacing" textLength="160" x="455.5" y="357.8433">hoursOfOperation (0..*, MS)</text><text fill="#000000" font-family="sans-serif" font-size="11" lengthAdjust="spacing" textLength="179" x="455.5" y="370.6479">availabilityExceptions (0..1, MS)</text><line style="stroke:#383838;stroke-width:1.5;" x1="450.5" x2="639.5" y1="377.2422" y2="377.2422"/><!--MD5=[8bdbfd47c206126371fe28da16da2c38]
reverse link PractitionerRole to Practitioner--><path codeLine="41" d="M238.93,154.62 C215.58,178.44 189.96,204.58 166.84,228.18 " fill="none" id="PractitionerRole-backto-Practitioner" style="stroke:#383838;stroke-width:1.0;"/><polygon fill="#FFFFFF" points="248.09,145.27,241.0336,146.7556,239.6909,153.8406,246.7473,152.355,248.09,145.27" style="stroke:#383838;stroke-width:1.0;"/><text fill="#000000" font-family="sans-serif" font-size="13" lengthAdjust="spacing" textLength="73" x="219" y="188.0669">practitioner</text><!--MD5=[19650f91da0f4b19284021841804106f]
reverse link PractitionerRole to Endpoint--><path codeLine="42" d="M315,158.46 C315,183.39 315,210.53 315,234.46 " fill="none" id="PractitionerRole-backto-Endpoint" style="stroke:#383838;stroke-width:1.0;"/><polygon fill="#FFFFFF" points="315,145.27,311,151.27,315,157.27,319,151.27,315,145.27" style="stroke:#383838;stroke-width:1.0;"/><text fill="#000000" font-family="sans-serif" font-size="13" lengthAdjust="spacing" textLength="56" x="316" y="188.0669">endpoint</text><!--MD5=[8db30d2c8d0b651ef32eee6ae94cb401]
reverse link PractitionerRole to Location--><path codeLine="43" d="M394,154.45 C416.16,176.18 440.31,199.85 462.66,221.77 " fill="none" id="PractitionerRole-backto-Location" style="stroke:#383838;stroke-width:1.0;"/><polygon fill="#FFFFFF" points="384.63,145.27,386.1156,152.3264,393.2006,153.6691,391.715,146.6127,384.63,145.27" style="stroke:#383838;stroke-width:1.0;"/><text fill="#000000" font-family="sans-serif" font-size="13" lengthAdjust="spacing" textLength="50" x="431" y="188.0669">location</text><!--MD5=[19e834f0c6d79122c2f0bc768006cb37]
@startuml ClassDiagram.PractitionerRole
skinparam monochrome true
class PractitionerRole {
  {field} identifier (1..*, MS, LDAP)
  {field} active (1..1, MS, LDAP) //reicht active hier oder\n    auch in practitioner und endpoint?
  {field} practitioner (1..1, MS, LDAP)
  {field} speciality (0..*, MS)
  {field} location (0..*, MS)
  {field} endpoint (0..*, MS)
}
class Practitioner {
  {field} identifier (1..*, MS, LDAP)
  {field} name (1..*, MS, LDAP)
  {field} telecom (0..*, MS)
  {field} gender (0..*, MS)
  {field} birthDate (0..*, MS)
  {field} photo (0..*, MS)
  {field} qualification (0..*, MS, LDAP)
  {field} communication (0..*, MS)
}
class Endpoint {
  {field} identifier (1..*, MS, LDAP)
  {field} status (0..*, MS)
  {field} connectionType (0..*, MS)
  {field} name (0..1, MS)
  {field} managingOrganization (0..1, MS)
  {field} payloadType (1..*, MS)
  {field} address (1..1, MS)
}
class Location {
  {field} identifier (1..*, MS, LDAP)
  {field} status (0..*, MS)
  {field} name (0..1, MS)
  {field} description (0..1, MS)
  {field} telecom (0..*, MS)
  {field} address (0..1, MS)
  {field} position (0..1, MS)
  {field} hoursOfOperation (0..*, MS)
  {field} availabilityExceptions (0..1, MS)
}

PractitionerRole o- - Practitioner: practitioner
PractitionerRole o- - Endpoint: endpoint
PractitionerRole o- - Location: location
@enduml

PlantUML version 1.2021.16(Wed Dec 08 17:25:22 UTC 2021)
(GPL source distribution)
Java Runtime: OpenJDK Runtime Environment
JVM: OpenJDK 64-Bit Server VM
Default Encoding: UTF-8
Language: en
Country: null
--></g></svg>