<?xml version="1.0" encoding="UTF-8" standalone="no"?><svg xmlns="http://www.w3.org/2000/svg" xmlns:xlink="http://www.w3.org/1999/xlink" contentScriptType="application/ecmascript" contentStyleType="text/css" height="148px" preserveAspectRatio="none" style="width:588px;height:148px;background:#FFFFFF;" version="1.1" viewBox="0 0 588 148" width="588px" zoomAndPan="magnify"><defs><filter height="300%" id="f1druvni680paj" width="300%" x="-1" y="-1"><feGaussianBlur result="blurOut" stdDeviation="2.0"/><feColorMatrix in="blurOut" result="blurOut2" type="matrix" values="0 0 0 0 0 0 0 0 0 0 0 0 0 0 0 0 0 0 .4 0"/><feOffset dx="4.0" dy="4.0" in="blurOut2" result="blurOut3"/><feBlend in="SourceGraphic" in2="blurOut3" mode="normal"/></filter></defs><g><rect fill="#F8F8F8" filter="url(#f1druvni680paj)" height="33.9688" style="stroke:#383838;stroke-width:1.5;" width="140" x="92.5" y="7"/><text fill="#000000" font-family="sans-serif" font-size="12" lengthAdjust="spacing" textLength="126" x="99.5" y="20.1387">HealthcareService 1</text><line style="stroke:#383838;stroke-width:1.5;" x1="93.5" x2="231.5" y1="24.9688" y2="24.9688"/><rect fill="#F8F8F8" filter="url(#f1druvni680paj)" height="33.9688" style="stroke:#383838;stroke-width:1.5;" width="140" x="347.5" y="7"/><text fill="#000000" font-family="sans-serif" font-size="12" lengthAdjust="spacing" textLength="126" x="354.5" y="20.1387">HealthcareService 2</text><line style="stroke:#383838;stroke-width:1.5;" x1="348.5" x2="486.5" y1="24.9688" y2="24.9688"/><rect fill="#F8F8F8" filter="url(#f1druvni680paj)" height="33.9688" style="stroke:#383838;stroke-width:1.5;" width="104" x="238.5" y="101"/><text fill="#000000" font-family="sans-serif" font-size="12" lengthAdjust="spacing" textLength="90" x="245.5" y="114.1387">Organization 1</text><line style="stroke:#383838;stroke-width:1.5;" x1="239.5" x2="341.5" y1="118.9688" y2="118.9688"/><rect fill="#F8F8F8" filter="url(#f1druvni680paj)" height="33.9688" style="stroke:#383838;stroke-width:1.5;" width="79" x="7" y="101"/><text fill="#000000" font-family="sans-serif" font-size="12" lengthAdjust="spacing" textLength="65" x="14" y="114.1387">Location 1</text><line style="stroke:#383838;stroke-width:1.5;" x1="8" x2="85" y1="118.9688" y2="118.9688"/><rect fill="#F8F8F8" filter="url(#f1druvni680paj)" height="33.9688" style="stroke:#383838;stroke-width:1.5;" width="79" x="378" y="101"/><text fill="#000000" font-family="sans-serif" font-size="12" lengthAdjust="spacing" textLength="65" x="385" y="114.1387">Location 2</text><line style="stroke:#383838;stroke-width:1.5;" x1="379" x2="456" y1="118.9688" y2="118.9688"/><rect fill="#F8F8F8" filter="url(#f1druvni680paj)" height="33.9688" style="stroke:#383838;stroke-width:1.5;" width="82" x="121.5" y="101"/><text fill="#000000" font-family="sans-serif" font-size="12" lengthAdjust="spacing" textLength="68" x="128.5" y="114.1387">Endpoint 1</text><line style="stroke:#383838;stroke-width:1.5;" x1="122.5" x2="202.5" y1="118.9688" y2="118.9688"/><rect fill="#F8F8F8" filter="url(#f1druvni680paj)" height="33.9688" style="stroke:#383838;stroke-width:1.5;" width="82" x="492.5" y="101"/><text fill="#000000" font-family="sans-serif" font-size="12" lengthAdjust="spacing" textLength="68" x="499.5" y="114.1387">Endpoint 2</text><line style="stroke:#383838;stroke-width:1.5;" x1="493.5" x2="573.5" y1="118.9688" y2="118.9688"/><!--MD5=[5937da5babd7ec9a26249619f3bae6a1]
reverse link hs1 to o1--><path codeLine="10" d="M195.35,48.61 C218.14,64.99 247.91,86.39 268.03,100.85 " fill="none" id="hs1-backto-o1" style="stroke:#383838;stroke-width:1.0;"/><polygon fill="#FFFFFF" points="184.8,41.03,187.3385,47.7795,194.5452,48.0323,192.0067,41.2827,184.8,41.03" style="stroke:#383838;stroke-width:1.0;"/><!--MD5=[586bd36b0521ce49ba1c4676e8bb3519]
reverse link hs1 to l1--><path codeLine="11" d="M131.88,49.29 C111.34,65.58 84.85,86.58 66.86,100.85 " fill="none" id="hs1-backto-l1" style="stroke:#383838;stroke-width:1.0;"/><polygon fill="#FFFFFF" points="142.29,41.03,135.1037,41.6276,132.8913,48.4909,140.0776,47.8933,142.29,41.03" style="stroke:#383838;stroke-width:1.0;"/><!--MD5=[7b553e166dab221e0d7961ead9476de2]
reverse link hs1 to e1--><path codeLine="12" d="M162.5,54.14 C162.5,69.58 162.5,87.96 162.5,100.85 " fill="none" id="hs1-backto-e1" style="stroke:#383838;stroke-width:1.0;"/><polygon fill="#FFFFFF" points="162.5,41.03,158.5,47.03,162.5,53.03,166.5,47.03,162.5,41.03" style="stroke:#383838;stroke-width:1.0;"/><!--MD5=[efa9b71d66255ff164a401775df77538]
reverse link hs2 to o1--><path codeLine="13" d="M384.6,48.84 C362.02,65.19 332.67,86.45 312.79,100.85 " fill="none" id="hs2-backto-o1" style="stroke:#383838;stroke-width:1.0;"/><polygon fill="#FFFFFF" points="395.38,41.03,388.1744,41.3113,385.6626,48.0708,392.8683,47.7895,395.38,41.03" style="stroke:#383838;stroke-width:1.0;"/><!--MD5=[56412f4bf2ca764b2a468698095b441d]
reverse link hs2 to l2--><path codeLine="14" d="M417.5,54.14 C417.5,69.58 417.5,87.96 417.5,100.85 " fill="none" id="hs2-backto-l2" style="stroke:#383838;stroke-width:1.0;"/><polygon fill="#FFFFFF" points="417.5,41.03,413.5,47.03,417.5,53.03,421.5,47.03,417.5,41.03" style="stroke:#383838;stroke-width:1.0;"/><!--MD5=[fe36076cd34b4d6169ce9a607d4f54a7]
reverse link hs2 to e2--><path codeLine="15" d="M448.12,49.29 C468.66,65.58 495.15,86.58 513.14,100.85 " fill="none" id="hs2-backto-e2" style="stroke:#383838;stroke-width:1.0;"/><polygon fill="#FFFFFF" points="437.71,41.03,439.9224,47.8933,447.1087,48.4909,444.8963,41.6276,437.71,41.03" style="stroke:#383838;stroke-width:1.0;"/><!--MD5=[1cedb45466207f3e54dcf7b2e1f73cca]
@startuml od_FHIR_HealthcareService
skinparam monochrome true
object "HealthcareService 1" as hs1
object "HealthcareService 2" as hs2
object "Organization 1" as o1
object "Location 1" as l1
object "Location 2" as l2
object "Endpoint 1" as e1
object "Endpoint 2" as e2

hs1 o- - o1
hs1 o- - l1
hs1 o- - e1
hs2 o- - o1
hs2 o- - l2
hs2 o- - e2

@enduml

PlantUML version 1.2021.16(Wed Dec 08 17:25:22 UTC 2021)
(GPL source distribution)
Java Runtime: OpenJDK Runtime Environment
JVM: OpenJDK 64-Bit Server VM
Default Encoding: UTF-8
Language: en
Country: null
--></g></svg>